<svg id="Vrstva_1" data-name="Vrstva 1" xmlns="http://www.w3.org/2000/svg" xmlns:xlink="http://www.w3.org/1999/xlink" viewBox="0 0 187.34 59.71"><defs><style>.cls-1{fill:none;}.cls-2{clip-path:url(#clip-path);}.cls-3{fill:#5f8aa6;}.cls-4{clip-path:url(#clip-path-2);}.cls-5{opacity:0.59;}.cls-6{clip-path:url(#clip-path-3);}.cls-7{opacity:0.08;}.cls-8{fill:#fff;}.cls-9{fill:url(#Nepojmenovaný_přechod_30);}.cls-10{fill:url(#Nepojmenovaný_přechod_13);}.cls-11{fill:url(#Nepojmenovaný_přechod_13-2);}.cls-12{fill:url(#Nepojmenovaný_přechod_13-3);}.cls-13{fill:url(#Nepojmenovaný_přechod_13-4);}.cls-14{fill:url(#Nepojmenovaný_přechod_13-5);}.cls-15{fill:url(#Nepojmenovaný_přechod_13-6);}.cls-16{fill:url(#Nepojmenovaný_přechod_13-7);}</style><clipPath id="clip-path"><rect class="cls-1" x="-2362.56" y="206.19" width="957" height="977.91"/></clipPath><clipPath id="clip-path-2"><rect class="cls-1" x="-2362.56" y="206.19" width="1920" height="977.91"/></clipPath><clipPath id="clip-path-3"><rect class="cls-1" x="-7044.86" y="-981.67" width="1920" height="2802"/></clipPath><linearGradient id="Nepojmenovaný_přechod_30" x1="97.16" x2="97.16" y2="32.59" gradientUnits="userSpaceOnUse"><stop offset="0" stop-color="#f39600"/><stop offset="0.3" stop-color="#de6d0e"/><stop offset="0.59" stop-color="#cd4d1a"/><stop offset="0.83" stop-color="#c33921"/><stop offset="1" stop-color="#bf3223"/></linearGradient><linearGradient id="Nepojmenovaný_přechod_13" x1="9.44" y1="7.28" x2="9.44" y2="33.11" gradientUnits="userSpaceOnUse"><stop offset="0" stop-color="#b17f49"/><stop offset="1" stop-color="#683b11"/></linearGradient><linearGradient id="Nepojmenovaný_přechod_13-2" x1="77.86" y1="7.28" x2="77.86" y2="32.6" xlink:href="#Nepojmenovaný_přechod_13"/><linearGradient id="Nepojmenovaný_přechod_13-3" x1="32.05" y1="7.94" x2="32.05" y2="32.62" xlink:href="#Nepojmenovaný_přechod_13"/><linearGradient id="Nepojmenovaný_přechod_13-4" x1="118.53" y1="7.94" x2="118.53" y2="32.62" xlink:href="#Nepojmenovaný_přechod_13"/><linearGradient id="Nepojmenovaný_přechod_13-5" x1="56.25" y1="7.94" x2="56.25" y2="32.62" xlink:href="#Nepojmenovaný_přechod_13"/><linearGradient id="Nepojmenovaný_přechod_13-6" x1="134.98" y1="7.88" x2="134.98" y2="32.56" xlink:href="#Nepojmenovaný_přechod_13"/><linearGradient id="Nepojmenovaný_přechod_13-7" x1="149.71" y1="7.88" x2="149.71" y2="32.56" xlink:href="#Nepojmenovaný_přechod_13"/></defs><title>logo</title><g class="cls-2"><path class="cls-3" d="M-2485.1,627.78V-76.58c1.71-.9,3.55-.45,5.32-.45q1296.27,0,2592.53,0c1.77,0,3.62-.45,5.33.45V625.81c-15.13-4.14-30.62-2.69-45.89-2.2-20.95.66-41.91,1.71-62.82,3.35-8.81.69-17.62,1.91-26.5,1.34-3.22-2.92-.63-5.53,1-7.49,2.08-2.52,4.09-4.62,3-8.21-.55-1.7.62-2.75,2-3.48a34,34,0,0,1,20-3.82,93.67,93.67,0,0,0,16.23.31c5.74-.31,7.61-2.37,7.42-8-.09-2.56.91-3.8,3.1-4.9,5.62-2.82,6.09-6.22,1.71-10.69-4.17-4.24-9.59-6.22-15-8.18a20.06,20.06,0,0,0-5.21-1.45c-8.64-.64-10.93-7.88-14.39-13.77-1.49-2.55.25-3.56,2.79-3.35,2.85.23,6.63,1.66,7.43-2.37.84-4.19-3.19-5.41-6.25-6.25a72.92,72.92,0,0,1-20-9.18c-1.66-1.07-3.44-2-4.65-3.57-3-4-7.21-6.13-11.79-7.67a153.69,153.69,0,0,0-20.39-5.67,12.56,12.56,0,0,1-8.06-5,51,51,0,0,0-24.85-17.68c-21.72-7.22-43.92-12.37-66.36-16.66-5.48-1.05-10.93-2.28-16.35-3.62-1.2-.29-2.84-.52-2.9-2.16s1.39-2.07,2.65-2.48a21.43,21.43,0,0,0,4.6-1.73c1.89-1.14,3.57-2.53,3.27-5-.26-2.2-1.86-3.45-3.81-4.09a40.13,40.13,0,0,0-13-2.39,16.33,16.33,0,0,1-12.46-4.89c-2.38-2.43-5.22-3.1-8.49-3.07-9.69.08-19.38,0-29.07.05-3.67,0-6.64-.7-8.84-4.07-2.38-3.64-6.55-4.73-10.42-6.14-1.33-.48-3.38-.85-3.18-2.54s2.25-1.56,3.67-1.68c4-.34,7.85.37,11.77.71,3.32.28,7.88,1.09,8.56-3.42s-3.91-5-7.17-5.67c-12.89-2.6-26-3.49-39.07-4.75-3.46-.33-6-.91-6.44-5.08-.37-3.25-3.23-4.25-6.08-4.87a189.58,189.58,0,0,0-29.25-3.88c-4.61-.28-8.42-.92-10.47-6.22-1.66-4.28-7.22-5.52-9.75-9.48a27.7,27.7,0,0,0-2.48-1.82,1.22,1.22,0,0,1-.4-1.41c1.92-2.12,4.5-1.22,6.82-1.52,11.32.5,22.49,2.53,33.76,3.52,3.76.33,7.53.49,11.28,1,2.44.35,4.75-.37,5.52-3,.82-2.88-1.25-4.24-3.49-5.1-7.42-2.84-15.28-3.8-23-5.12-6-1-11.62-2.25-16.93-5.88-7-4.8-15.71-5.62-23.95-7-21.54-3.61-43.27-5.75-65-8.28-16.79-1.95-33.65-3.07-50.46-4.71-2.29-.23-4.59-.13-6.89-.19-2,0-4.17.08-5.72-1.16-8.05-6.45-17.94-6.93-27.43-8.38-21.41-3.28-42.92-5.85-64.55-7.29-.65,0-1.3-.14-2-.23-9.24-1.32-9.27-1.39-4.16-9-1,1.11-2,2.13-3.09,3.17-5.94,5.89-12.79,6.06-19,.23-5.61-5.28-11.24-10.56-16.79-15.9-16.54-15.94-33.1-31.85-50.3-47.08a164.74,164.74,0,0,0-17.81-14c-3.29-2.19-6.69-3.5-10.66-2-2.09.78-3.8,0-5.48-1.23a81.48,81.48,0,0,1-9.89-8.86,31.88,31.88,0,0,0-6.52-5.22c-4.77-2.82-6.53-2.46-9.44,2.42-1,1.66-2.08,2.4-3.94,2.11a8.65,8.65,0,0,0-6.16,1.15c-2.71,1.86-4.65,0-6.68-1.39-6.06-5.75-11.6-12-17.17-18.22A80.6,80.6,0,0,0-763,215c-2.15-1.72-4.75-3.67-7.47-1.16-2.54,2.34-1.54,5.1,0,7.63,4.36,7.13,8.55,14.38,13.63,21a17.52,17.52,0,0,1,1.82,2.91,22.11,22.11,0,0,0,1.24,2.71c.23.28.44.59.66.88s.47.54.7.81.25.27.37.4a6.11,6.11,0,0,1,.68.86,3,3,0,0,1,.36,1,1.83,1.83,0,0,1-.66,1.45,1.56,1.56,0,0,1-1.06.11,4,4,0,0,1-.92-.58c-.14-.11-.27-.24-.41-.36s-.52-.49-.77-.75-.26-.25-.39-.37-.54-.5-.81-.76l-.43-.37-.92-.73c-.17-.11-.32-.24-.5-.36a8.55,8.55,0,0,1-1-.8c-12.48-12.59-24.35-25.74-36.13-39a20.82,20.82,0,0,0-5.46-4.18c-2-1.1-4.09-1.42-6,.13s-1.87,3.65-1.1,5.82c.61,1.71,1.52,3.28,2.05,5,.24.81.41,1.73-.3,2.29-1,.8-1.91,0-2.52-.73-2.94-3.54-6.45-6.54-9.45-10-7.16-8.33-14.8-16.24-21.94-24.59a35,35,0,0,0-4.21-4.14c-4.26-3.54-6.73-2.6-8,3a8.53,8.53,0,0,0,.13,2.31c.13.34.24.68.36,1,.21.5.42,1,.64,1.5a3.29,3.29,0,0,1,.26,1.07,1.83,1.83,0,0,1-.77,1.45,1.69,1.69,0,0,1-1.13,0,5.28,5.28,0,0,1-1-.63c-.16-.13-.3-.26-.46-.38l-.94-.73c-.18-.11-.34-.23-.52-.33-.38-.2-.74-.42-1.12-.63-2.2-1.16-4.52-2.34-6.68-.23s-.78,4.47.3,6.64c.65,1.29,1.52,2.49,1.38,4a1.51,1.51,0,0,1-1.48,1.24c-5.25-2.79-8.16-7.95-11.87-12.19-10.22-11.67-20.4-23.38-30.14-35.45a23.34,23.34,0,0,0-4.48-4.51,4,4,0,0,0-5-.18c-1.69,1.28-1.66,3.12-.92,4.89,1.53,3.61,3.83,6.83,5.56,10.34.29.75.47,1.54.73,2.29.15.33.28.67.41,1s.31.63.46.94l.56.88a8.32,8.32,0,0,1,.59.87,2.65,2.65,0,0,1,.29,1,1.75,1.75,0,0,1-.72,1.39,1.67,1.67,0,0,1-1.06,0,4.81,4.81,0,0,1-.9-.59l-.4-.36c-.27-.23-.52-.48-.77-.73s-.25-.25-.39-.37l-.82-.7c-.16-.1-.3-.21-.45-.32-.32-.2-.62-.43-.92-.66-.48-.37-.92-.78-1.37-1.19-1.44-1.27-3.17-1.05-4.86-.93-.36.1-.72.21-1.07.34s-.59.37-.87.58c-.11.13-.24.25-.35.38a7.31,7.31,0,0,0-.73,1.35c-.12.36-.24.71-.35,1.08a5.11,5.11,0,0,0,0,1.7c.11.34.19.68.3,1s.35.94.56,1.39a7.16,7.16,0,0,1,.43.88c.2.44.39.87.62,1.3a6,6,0,0,1,.45.87c.22.45.43.9.65,1.36a3,3,0,0,1,.23,1,1.76,1.76,0,0,1-.76,1.39,1.57,1.57,0,0,1-1.09,0,3.77,3.77,0,0,1-.9-.67,6.38,6.38,0,0,1-.67-.88c-.3-.45-.58-.9-.9-1.33-.23-.26-.44-.54-.66-.81s-.46-.52-.69-.78-.24-.25-.36-.38-.49-.52-.72-.79-.47-.57-.7-.85a13,13,0,0,0-1.8-1.52c-4.11-4.48-7.3-9.64-10.93-14.47a34,34,0,0,0-4-4.94c-2.56-2.34-5.2-3-7.52.18-2.08,2.84-3.66,1.91-5.32-.33-4.86-6.58-9.37-13.39-13.71-20.33-1.55-2.48-3.2-6.47-7-4.09-3.35,2.11-1.48,5.47,0,8.3,2.91,5.64,7,10.68,8.64,17-.17,2-1.22,2.49-3,1.77-4.83-4.33-7.74-10.07-11.22-15.4a65.3,65.3,0,0,0-4.49-6.46c-1.36-1.61-3.07-2.68-5.18-1.62-2.35,1.18-2.4,3.35-1.69,5.53.76,2.34,1.79,4.58,2.65,6.88.27.75.45,1.54.71,2.3.15.34.28.7.41,1.05l.65,1.52a3.66,3.66,0,0,1,.28,1.08,1.86,1.86,0,0,1-.75,1.47,1.66,1.66,0,0,1-1.14,0,4.08,4.08,0,0,1-.94-.71,9.43,9.43,0,0,1-.74-.93,9,9,0,0,0-2.21-2.06c-3.81-3.89-6.61-8.55-10-12.74-2.38-2.93-5-4.28-8.33-1.42-1.31,1.16-.68,3.63-2.85,4.19-3.8-1.6-4.44-5.67-6.62-8.53-1.82-2.38-3.08-5.49-7-4.74a4,4,0,0,0-2.45,2.67c-.41,1.09-1,2-2.46,1.37a4.35,4.35,0,0,1-1-.86c-.57-.73-1.08-1.5-1.63-2.25a86.68,86.68,0,0,1-5.46-8.17c-2.56-4.63-7-5.69-11.57-6.4-3.36-.54-5.87,2.22-5.64,5.8.19,3,1.45,5.68,2.76,8.34,8.84,17.94,19,35.13,29,52.45,2.86,5,5.75,9.91,8.3,15,1.55,3.13,3,6.18,2.2,9.83a6.47,6.47,0,0,0,.93,4.26c6.44,12.34,10.34,25.87,17.64,37.82.84,1.37,2.27,3.09.05,4.66-4.19-1.44-7.18-4.68-10.07-7.65-15.71-16.1-34.6-26.91-55.56-34.55-27.47-10-54.85-20.47-83.11-27.92-27-7.12-54.08-14-81.31-20.11q-31-7-61.94-14.27c-14.07-3.29-27.79-8-42.17-10-20.82-2.92-41.54-6.57-62.41-9.12-6.48-.79-13.07-1.07-19.62-1.45-48.74-2.78-97.52-1.61-146.29-1.87-36-.19-71.79,2.93-107.41,8.33-34.8,5.27-69.18,12.46-103.28,21.13a375.42,375.42,0,0,1-63.18,10c-28.36,2.24-56.53,5.74-84.11,13-18.81,5-36.68,12.53-54.6,19.9A751.57,751.57,0,0,0-2054,231.59c-3.3,1.84-6.68,3.53-10.09,5.16A184.94,184.94,0,0,0-2094.47,255c-15.84,11.72-31,24.33-47.59,35a100.79,100.79,0,0,0-18.29,15.69c-5.87,6.21-12.27,11.87-18.6,17.59-19,17.19-33.52,38.22-49.56,57.94a123.7,123.7,0,0,0-16,25.91c-2.71,5.81-5.4,11.67-6.88,17.9-3.79,15.84-9,31.22-14.63,46.47-5.2,14.09-8,28.75-10.52,43.49-1.18,7-1.5,7.32-8.61,6.68-9.49-.85-18.76-3.29-28.23-4.38-2-.23-3.91-.42-5.88-.54-4-.23-6.37,1.29-8.73,4.84-7.19,10.79-14,21.8-20.86,32.81-7.49,12-11.31,25.44-15.46,38.76-1.9,6.11-3.77,12.24-5.12,18.5-.87,4-3.2,5.7-7.32,5.61-9.52-.2-19-.37-28.49-1.44-17.59-1.95-35.1-.6-52,5.52-7.73,2.81-15.85,4.29-23.66,6.81C-2482.33,628.71-2483.81,628.9-2485.1,627.78Z"/></g><g class="cls-4"><path class="cls-3" d="M-2485.1,627.78V-76.58c1.71-.9,3.55-.45,5.32-.45q1296.27,0,2592.53,0c1.77,0,3.62-.45,5.33.45V625.81c-15.13-4.14-30.62-2.69-45.89-2.2-20.95.66-41.91,1.71-62.82,3.35-8.81.69-17.62,1.91-26.5,1.34-3.22-2.92-.63-5.53,1-7.49,2.08-2.52,4.09-4.62,3-8.21-.55-1.7.62-2.75,2-3.48a34,34,0,0,1,20-3.82,93.67,93.67,0,0,0,16.23.31c5.74-.31,7.61-2.37,7.42-8-.09-2.56.91-3.8,3.1-4.9,5.62-2.82,6.09-6.22,1.71-10.69-4.17-4.24-9.59-6.22-15-8.18a20.06,20.06,0,0,0-5.21-1.45c-8.64-.64-10.93-7.88-14.39-13.77-1.49-2.55.25-3.56,2.79-3.35,2.85.23,6.63,1.66,7.43-2.37.84-4.19-3.19-5.41-6.25-6.25a72.92,72.92,0,0,1-20-9.18c-1.66-1.07-3.44-2-4.65-3.57-3-4-7.21-6.13-11.79-7.67a153.69,153.69,0,0,0-20.39-5.67,12.56,12.56,0,0,1-8.06-5,51,51,0,0,0-24.85-17.68c-21.72-7.22-43.92-12.37-66.36-16.66-5.48-1.05-10.93-2.28-16.35-3.62-1.2-.29-2.84-.52-2.9-2.16s1.39-2.07,2.65-2.48a21.43,21.43,0,0,0,4.6-1.73c1.89-1.14,3.57-2.53,3.27-5-.26-2.2-1.86-3.45-3.81-4.09a40.13,40.13,0,0,0-13-2.39,16.33,16.33,0,0,1-12.46-4.89c-2.38-2.43-5.22-3.1-8.49-3.07-9.69.08-19.38,0-29.07.05-3.67,0-6.64-.7-8.84-4.07-2.38-3.64-6.55-4.73-10.42-6.14-1.33-.48-3.38-.85-3.18-2.54s2.25-1.56,3.67-1.68c4-.34,7.85.37,11.77.71,3.32.28,7.88,1.09,8.56-3.42s-3.91-5-7.17-5.67c-12.89-2.6-26-3.49-39.07-4.75-3.46-.33-6-.91-6.44-5.08-.37-3.25-3.23-4.25-6.08-4.87a189.58,189.58,0,0,0-29.25-3.88c-4.61-.28-8.42-.92-10.47-6.22-1.66-4.28-7.22-5.52-9.75-9.48a27.7,27.7,0,0,0-2.48-1.82,1.22,1.22,0,0,1-.4-1.41c1.92-2.12,4.5-1.22,6.82-1.52,11.32.5,22.49,2.53,33.76,3.52,3.76.33,7.53.49,11.28,1,2.44.35,4.75-.37,5.52-3,.82-2.88-1.25-4.24-3.49-5.1-7.42-2.84-15.28-3.8-23-5.12-6-1-11.62-2.25-16.93-5.88-7-4.8-15.71-5.62-23.95-7-21.54-3.61-43.27-5.75-65-8.28-16.79-1.95-33.65-3.07-50.46-4.71-2.29-.23-4.59-.13-6.89-.19-2,0-4.17.08-5.72-1.16-8.05-6.45-17.94-6.93-27.43-8.38-21.41-3.28-42.92-5.85-64.55-7.29-.65,0-1.3-.14-2-.23-9.24-1.32-9.27-1.39-4.16-9-1,1.11-2,2.13-3.09,3.17-5.94,5.89-12.79,6.06-19,.23-5.61-5.28-11.24-10.56-16.79-15.9-16.54-15.94-33.1-31.85-50.3-47.08a164.74,164.74,0,0,0-17.81-14c-3.29-2.19-6.69-3.5-10.66-2-2.09.78-3.8,0-5.48-1.23a81.48,81.48,0,0,1-9.89-8.86,31.88,31.88,0,0,0-6.52-5.22c-4.77-2.82-6.53-2.46-9.44,2.42-1,1.66-2.08,2.4-3.94,2.11a8.65,8.65,0,0,0-6.16,1.15c-2.71,1.86-4.65,0-6.68-1.39-6.06-5.75-11.6-12-17.17-18.22A80.6,80.6,0,0,0-763,215c-2.15-1.72-4.75-3.67-7.47-1.16-2.54,2.34-1.54,5.1,0,7.63,4.36,7.13,8.55,14.38,13.63,21a17.52,17.52,0,0,1,1.82,2.91,22.11,22.11,0,0,0,1.24,2.71c.23.28.44.59.66.88s.47.54.7.81.25.27.37.4a6.11,6.11,0,0,1,.68.86,3,3,0,0,1,.36,1,1.83,1.83,0,0,1-.66,1.45,1.56,1.56,0,0,1-1.06.11,4,4,0,0,1-.92-.58c-.14-.11-.27-.24-.41-.36s-.52-.49-.77-.75-.26-.25-.39-.37-.54-.5-.81-.76l-.43-.37-.92-.73c-.17-.11-.32-.24-.5-.36a8.55,8.55,0,0,1-1-.8c-12.48-12.59-24.35-25.74-36.13-39a20.82,20.82,0,0,0-5.46-4.18c-2-1.1-4.09-1.42-6,.13s-1.87,3.65-1.1,5.82c.61,1.71,1.52,3.28,2.05,5,.24.81.41,1.73-.3,2.29-1,.8-1.91,0-2.52-.73-2.94-3.54-6.45-6.54-9.45-10-7.16-8.33-14.8-16.24-21.94-24.59a35,35,0,0,0-4.21-4.14c-4.26-3.54-6.73-2.6-8,3a8.53,8.53,0,0,0,.13,2.31c.13.34.24.68.36,1,.21.5.42,1,.64,1.5a3.29,3.29,0,0,1,.26,1.07,1.83,1.83,0,0,1-.77,1.45,1.69,1.69,0,0,1-1.13,0,5.28,5.28,0,0,1-1-.63c-.16-.13-.3-.26-.46-.38l-.94-.73c-.18-.11-.34-.23-.52-.33-.38-.2-.74-.42-1.12-.63-2.2-1.16-4.52-2.34-6.68-.23s-.78,4.47.3,6.64c.65,1.29,1.52,2.49,1.38,4a1.51,1.51,0,0,1-1.48,1.24c-5.25-2.79-8.16-7.95-11.87-12.19-10.22-11.67-20.4-23.38-30.14-35.45a23.34,23.34,0,0,0-4.48-4.51,4,4,0,0,0-5-.18c-1.69,1.28-1.66,3.12-.92,4.89,1.53,3.61,3.83,6.83,5.56,10.34.29.75.47,1.54.73,2.29.15.33.28.67.41,1s.31.63.46.94l.56.88a8.32,8.32,0,0,1,.59.87,2.65,2.65,0,0,1,.29,1,1.75,1.75,0,0,1-.72,1.39,1.67,1.67,0,0,1-1.06,0,4.81,4.81,0,0,1-.9-.59l-.4-.36c-.27-.23-.52-.48-.77-.73s-.25-.25-.39-.37l-.82-.7c-.16-.1-.3-.21-.45-.32-.32-.2-.62-.43-.92-.66-.48-.37-.92-.78-1.37-1.19-1.44-1.27-3.17-1.05-4.86-.93-.36.1-.72.21-1.07.34s-.59.37-.87.58c-.11.13-.24.25-.35.38a7.31,7.31,0,0,0-.73,1.35c-.12.36-.24.71-.35,1.08a5.11,5.11,0,0,0,0,1.7c.11.34.19.68.3,1s.35.94.56,1.39a7.16,7.16,0,0,1,.43.88c.2.44.39.87.62,1.3a6,6,0,0,1,.45.87c.22.45.43.9.65,1.36a3,3,0,0,1,.23,1,1.76,1.76,0,0,1-.76,1.39,1.57,1.57,0,0,1-1.09,0,3.77,3.77,0,0,1-.9-.67,6.38,6.38,0,0,1-.67-.88c-.3-.45-.58-.9-.9-1.33-.23-.26-.44-.54-.66-.81s-.46-.52-.69-.78-.24-.25-.36-.38-.49-.52-.72-.79-.47-.57-.7-.85a13,13,0,0,0-1.8-1.52c-4.11-4.48-7.3-9.64-10.93-14.47a34,34,0,0,0-4-4.94c-2.56-2.34-5.2-3-7.52.18-2.08,2.84-3.66,1.91-5.32-.33-4.86-6.58-9.37-13.39-13.71-20.33-1.55-2.48-3.2-6.47-7-4.09-3.35,2.11-1.48,5.47,0,8.3,2.91,5.64,7,10.68,8.64,17-.17,2-1.22,2.49-3,1.77-4.83-4.33-7.74-10.07-11.22-15.4a65.3,65.3,0,0,0-4.49-6.46c-1.36-1.61-3.07-2.68-5.18-1.62-2.35,1.18-2.4,3.35-1.69,5.53.76,2.34,1.79,4.58,2.65,6.88.27.75.45,1.54.71,2.3.15.34.28.7.41,1.05l.65,1.52a3.66,3.66,0,0,1,.28,1.08,1.86,1.86,0,0,1-.75,1.47,1.66,1.66,0,0,1-1.14,0,4.08,4.08,0,0,1-.94-.71,9.43,9.43,0,0,1-.74-.93,9,9,0,0,0-2.21-2.06c-3.81-3.89-6.61-8.55-10-12.74-2.38-2.93-5-4.28-8.33-1.42-1.31,1.16-.68,3.63-2.85,4.19-3.8-1.6-4.44-5.67-6.62-8.53-1.82-2.38-3.08-5.49-7-4.74a4,4,0,0,0-2.45,2.67c-.41,1.09-1,2-2.46,1.37a4.35,4.35,0,0,1-1-.86c-.57-.73-1.08-1.5-1.63-2.25a86.68,86.68,0,0,1-5.46-8.17c-2.56-4.63-7-5.69-11.57-6.4-3.36-.54-5.87,2.22-5.64,5.8.19,3,1.45,5.68,2.76,8.34,8.84,17.94,19,35.13,29,52.45,2.86,5,5.75,9.91,8.3,15,1.55,3.13,3,6.18,2.2,9.83a6.47,6.47,0,0,0,.93,4.26c6.44,12.34,10.34,25.87,17.64,37.82.84,1.37,2.27,3.09.05,4.66-4.19-1.44-7.18-4.68-10.07-7.65-15.71-16.1-34.6-26.91-55.56-34.55-27.47-10-54.85-20.47-83.11-27.92-27-7.12-54.08-14-81.31-20.11q-31-7-61.94-14.27c-14.07-3.29-27.79-8-42.17-10-20.82-2.92-41.54-6.57-62.41-9.12-6.48-.79-13.07-1.07-19.62-1.45-48.74-2.78-97.52-1.61-146.29-1.87-36-.19-71.79,2.93-107.41,8.33-34.8,5.27-69.18,12.46-103.28,21.13a375.42,375.42,0,0,1-63.18,10c-28.36,2.24-56.53,5.74-84.11,13-18.81,5-36.68,12.53-54.6,19.9A751.57,751.57,0,0,0-2054,231.59c-3.3,1.84-6.68,3.53-10.09,5.16A184.94,184.94,0,0,0-2094.47,255c-15.84,11.72-31,24.33-47.59,35a100.79,100.79,0,0,0-18.29,15.69c-5.87,6.21-12.27,11.87-18.6,17.59-19,17.19-33.52,38.22-49.56,57.94a123.7,123.7,0,0,0-16,25.91c-2.71,5.81-5.4,11.67-6.88,17.9-3.79,15.84-9,31.22-14.63,46.47-5.2,14.09-8,28.75-10.52,43.49-1.18,7-1.5,7.32-8.61,6.68-9.49-.85-18.76-3.29-28.23-4.38-2-.23-3.91-.42-5.88-.54-4-.23-6.37,1.29-8.73,4.84-7.19,10.79-14,21.8-20.86,32.81-7.49,12-11.31,25.44-15.46,38.76-1.9,6.11-3.77,12.24-5.12,18.5-.87,4-3.2,5.7-7.32,5.61-9.52-.2-19-.37-28.49-1.44-17.59-1.95-35.1-.6-52,5.52-7.73,2.81-15.85,4.29-23.66,6.81C-2482.33,628.71-2483.81,628.9-2485.1,627.78Z"/></g><g class="cls-5"><g class="cls-6"><g class="cls-7"><path class="cls-8" d="M-7226.17-1851.82v-659.66H99.14v5491.3H-7226.17V2417.5c7.16-7.91,13.63-16.56,22.89-22.27,6.91-4.27,15.12-9.59,22.1-3.07,24.46,22.86,50.56,9.94,75.64,3.61,12.62-3.19,23.88-6,36.1-.3,7.59,3.52,15.76,4.35,23.26.24,13.06-7.15,24-7.38,36.37,3.24s25.68,4.37,35.94-5.47c16.11-15.45,34.06-28.69,50.59-43.64,18.92-17.13,25.67-15.33,37.16,7.35,10,19.75,22.35,22.76,40.65,9.5,8.69-6.29,15.58-14.64,23.39-21.93,7.23-6.74,14.84-15,24.86-14.48,22.89,1.07,41.59-7.39,58.94-20.91,9.72-7.57,17.53-5.63,24.52,4.54,8.62,12.58,20.22,15.67,35.1,10.81,22.14-7.22,35.19,3.38,43.53,23.61,10.38,25.2,18.5,28.34,42.86,15.36,17.76-9.46,33.36-18.79,54.1-4.86,11.66,7.84,23.73-1.84,33.49-10.1,9.54-8.07,19.7-15.32,29.53-23a47.89,47.89,0,0,1,13.67-6.84c1.24-.24,2.51-.43,3.76-.66,1.26.09,2.53.22,3.79.3,1.19.37,2.39.79,3.6,1.14,2.33.85,4.63,1.84,6.92,2.79,13.57,3.71,27.59,5.23,40,13.6,14,9.48,27.27,2.76,39.23-6,22.17-16.31,43.47-33.75,64.82-51.11,6.21-5.05,12.55-10.15,20.26-12.58,10.48-3.31,16-.27,12.1,11.58-2.72,8.34-8.75,16.24-5.7,25.42,5.58,16.76,18.83,16.9,32.71,13.06,12.95-3.59,19-1.81,20.31,14,2.19,27.11,17.12,32.37,39.13,15.55,7-5.37,12.47-12.71,20.64-16.7a13.56,13.56,0,0,1,11,.68c4.14,4.21,2.5,9.89,3.79,14.83,5.47,20.89,21.69,27.48,39.93,16,11.16-7,18.85-18.26,29.85-25.52,1.78-1.3,3.68-2.47,5.56-3.6.85-.58,1.79-1.13,2.65-1.72,1.59-1.22,3.27-2.39,4.87-3.6.73-.64,1.53-1.24,2.25-1.88,1.37-1.31,2.82-2.56,4.24-3.81.65-.65,1.37-1.26,2-1.9,1.26-1.31,2.61-2.54,4-3.78.62-.63,1.3-1.23,1.93-1.87,1.2-1.3,2.5-2.52,3.8-3.72-.05,0,1.93-1.81,1.88-1.85,1.18-1.31,2.46-2.52,3.75-3.73-.05,0,1.91-1.82,1.87-1.86,1.18-1.34,2.46-2.57,3.76-3.8.62-.66,1.27-1.27,1.89-1.93,1.23-1.38,2.54-2.66,3.84-4,.64-.7,1.32-1.34,2-2.05,1.28-1.47,2.63-2.85,4-4.25.66-.76,1.36-1.46,2-2.22,1.34-1.61,2.75-3.1,4.19-4.64.72-.82,1.48-1.57,2.2-2.38,7.33-7.08,13.78-15.05,22.12-21.07a16.17,16.17,0,0,1,6.82-2c17.38,7.61,4.11,15.56-.73,21.49-12.22,15-28.1,26.65-39.33,42.61a67.63,67.63,0,0,1-4,5.76,68.16,68.16,0,0,0-9.17,14.63c-.86,2.25-1.8,4.44-2.68,6.66-3.93,10.26-2.09,20.54,5.28,27.34,12.05,11.12,20,24.52,28.41,38.19,9.53,15.44,31.46,15.51,49.47.84,16.58-13.49,30.54-29.88,45.93-44.7,35.36-34,81.52-29,107.47,11.55,6.73,10.51,15,20,23.31,29.15,15.38,16.84,40.21,10.86,64.29-14.29,15.63-16.47,33-22.19,55.47-13.21,19.47,7.78,38.92-.46,57.37-6.56,59.81-19.77,121.05-19.19,182.66-14.77,17.27,6.56,15.15,17.08,5.31,28.53-10.95,12.73-23.47,24-35.19,36-7.41,7.58-15.61,14.48-21.83,23.08-8.65,12-15.89,25.68-2.87,38.05,11.92,11.33,22.76.94,32.74-6.29,6.44-4.67,12.82-9.41,19-14.35,12-8.05,23.67-16.58,33.27-27.57,14.56-14.51,32.25-25.36,46.58-40.13a48.07,48.07,0,0,1,5.88-4,87,87,0,0,0,8.63-6.19c10-9,19-19.21,31.72-24.7a40.25,40.25,0,0,1,7.5-2.34c13.34-1.87,27.06-.72,40.05-5.31q73.2-4.08,146.2-10.47c6.3-.55,12.93-.59,18.31,2.47,17.77,10.09,34.42,4.38,51.11-2.49,19.12-7.88,38.74-13.16,59.62-12.48,12.21.4,21.59,4,28.33,16,12.66,22.51,20.4,24,42.37,11.75,7.76-4.33,14.85-9.83,23-13.59,29.79-12.29,22.79,15.27,30,27.55,9.23,17.34,23,17.49,38.8,10.42,15.6-7,29.43-16.84,43.53-26.31,5.85-3.93,12.54-8.62,19.4-2.49,5.68,5.07,3.13,11.78.58,17.44-18.51,41.13-12.84,76.33,24.54,104.34,11,8.22,13.34,20.5,14.29,33.37,1.16,15.76,7,28.88,25.28,28.42,16.92-.44,20.84,8.58,22.8,22.86,4.68,34.24,9.91,36.44,40.78,24.76,20.81-7.88,42.58-15.5,59.3,9.35,4.84,7.19,13.77,7.31,22.16,5.48,24.34-5.32,47.77-3.63,69.87,9,14.93,8.52,25.94,2.25,33.82-10.69,8.75-14.36,18-18.79,31.67-5.66,6.49,6.22,15.75,8.34,24.11,11.39,23.9,8.72,38.49,3.94,41.28-21.21,4.74-42.67,42.34-54.53,67.26-76.46,14.08-12.39,26-22.21,30.21-40.38,2-8.71,3.88-17.45,6-26.12,8-32.18,31.88-41.69,58-21.41,12.09,9.39,22.54,19.75,38.61,22.06,7.69,1.11,10.94,8.51,14.41,14.84,4.39,8,9.25,16.16,20,15,12.3-1.38,20.37-10.39,21.25-21.18,3-36.43,30.53-41.22,57.54-47.52,12,12.75,6.51,28.64,7.61,43.26,1.26,16.78-1.75,33.76,2.15,50.36,18,25.18,29,24.46,45.39-3.12,6.3-19.95-2-41.33,6.11-61a9.79,9.79,0,0,1,6.24-4.76c18,7.18,34.32,22.2,56.16,10.45,3.45-1.85,8.46,1.7,12.24,4.11,23,14.72,45.69,24,70,1.3,8.37-7.82,12.3.42,13.86,8,2.27,11.06-3.45,20.76-6,31-3.12,12.78.2,23.56,12.94,28.52,14,5.43,21.17-3.94,27.06-14.86,9.5-17.61,5.22-38.81,14.82-56.39,7.83-10.79-2.79-34.89,14.83-34,12.83.62,7.33,22.42,8.45,35,.83,9.41,4.63,16.75,10.87,23.3,14.61,18.37,31,18.35,49,5.18,8.63-6.31,17.75-12,26.29-18.39,16.46-12.38,31.95-18.81,49.24-.08,10.56,11.45,26.41,9.67,40.55,9,57-2.66,113.63-10.2,170.11-17.59,152.29-19.94,305-30.15,458.53-25.12,10.49.77,21.06.31,31.56,1.27,8.13.73,18.52,2.56,20.14,10.13,6.11,28.62,32.49,42.43,45.42,65.73,17.53,17.47,44.08,24.1,54.66,51,4.77,12.16,24.34,6.62,31.31-7.71,5.82-12,4.45-26.17,11.54-37.8a12.48,12.48,0,0,1,10.78-2.73c11.54,4.9,15.86,16.15,22.14,25.58,16.23,24.36,27.45,25,46.67,2.19,4-4.74,7.94-9.5,12.07-14.08,5-5.11,6.11-12,8.23-18.41a13.38,13.38,0,0,1,4.53-5.28,15.74,15.74,0,0,1,7.07-.88,19,19,0,0,1,6.53,3.22,26.87,26.87,0,0,0,13.65,6c26.51-4.47,49.8-14.71,64.5-38.26,8.76-14,16.85-13.4,30.66-5.93,20.32,11,40.73,19,51.75,42.72,7.37,15.87,24.66,15.55,34.28-.48,13.53-22.55,31-37.23,55.19-47.53,19.62-8.36,18.26-28.86,16.36-47.06-5.52-53-2.25-59,50.78-69.17,22.81-4.39,30.86-15.18,26.88-36.85-2.32-12.68-2.84-25.11,5.84-35.79,12-14.75,12.58-30.88,6.75-48-5.08-14.9-6.11-29.27,1.84-44,8.86-16.37,4.87-33.94-1.37-49.5-18.33-45.71,1.52-84.59,19.62-124,1.84-4,6.53-7.7,6-11.75-6.34-46.64,24.76-83.47,32.64-126.31,1.31-7.15,1.52-14.39-.33-21.3-19.55-73.19-3.49-147.6-7.64-221.31-.46-8-.14-17,4.86-23.29,18.4-23.08,16-50,16.33-76.77,1.69-127.74-1.43-255.67-7.61-383-7.43-152.93,9.91-303,26.47-453.72,3.52-32,3-64.17,7.09-96.12,2.1-16.3-3.75-30.6-22-34.93-16.79-4-20.39-16.29-19.79-30.49,2.53-59.93-5.87-119.49-5.68-179.31a125.58,125.58,0,0,0-12.75-56.73c-16.72-34.59-9.48-72.2-7.26-108.24,3.36-54.31,6-108.66,9.14-163a210.3,210.3,0,0,1,7.08-44.86c6.16-18.73,10.77-37.7,9.82-57.73-.55-11.79,1.85-22.77,9-32.89,25.72-36.33,23.36-75.3,8.69-114.65-4-10.65-2.31-19.65-.91-30.53,4.66-36.29,19.5-69.82,8.71-110.26-12-44.81-7.87-94.09-.35-141,3.25-20.34,4.91-37-17.56-47-12.77-5.65-13.21-18.36-12.89-30.07,1.05-38.33,1-76.7,2.22-115,1.16-37.06-2.18-74.72-2.49-112.16-.12-14.4,1.12-28.55,5.15-42.41,5.72-19.69,11-21.4,27.47-8.3,8.41,6.69,15.47,14.82,22.51,22.92,4.76,5.46,9.82,11.46,18.06,7.88,7.47-3.25,8.79-10.7,9.47-18,.58-6.28-.78-12.46-1.15-18.7-2.55-43.16-4.53-86.61-8.47-129.38-3.14-34-11.94-65.15,6.14-97.93,6.37-11.56-.48-28-4.78-41.77-9.36-30-13.32-61-15.3-92.3-1.32-20.92,3-39.86,13.92-58.76,18.29-31.74,14.25-67.66,11.18-102.25-1.82-20.48-4.33-40.84-3.72-61.41.61-20.93-1.12-41-14.5-58.55-5-6.56-8.85-15.72-5.81-22.69,9.72-22.35,2.39-47.25,12.36-69.52,5.5-12.29,6.44-25.85,1.18-39.2-3.38-8.56-4.54-18.11.05-26.1,11.55-20.08,2.7-32.4-12.59-45.67-13.47-11.69-25.37-25.15-41.55-33.34s-31.75-12.85-51-6.45c-25.87,8.6-46.57-.51-62.22-22.87-7.35-10.5-14.91-19.71-29-21.32-10.23-1.17-17.28-8.44-24.53-15.3-28.83-27.28-51.87-26.09-81.52.3-22.87,20.35-49.24,34.75-81.92,29.71-7.56-1.16-13.74,2.58-20.54,4.6-16.76,5-28.6-6.66-22.55-23,7.9-21.39-1.86-41.42-4.22-61.5-1.94-16.52-39.35-18-49-.68-17.59,31.45-42.15,44.57-77.34,39.62-8-1.13-13.63,2.93-16.91,10.33-1.45,3.25-2.54,8.15-5.46,9-33.94,9.42-21.34,34.46-17.52,54.91,4.86,26-10.94,45.92-17.24,68.48-2.93,10.49-16,13.81-27.06,14.23-14.3.55-28.42,3.62-42.75,2.83-10.26-.57-17.68,3.5-20.85,13.13-7.6,23.1-25.76,27.88-46.73,27.42-19.56-.43-34.64,3.79-41.06,25.69-4.86,16.57-18.39,20.32-34.56,15.78-9.7-2.72-20.28-6.1-25.27-14.19-15.15-24.58-35-33.1-63.09-25.6-10.25,2.74-18.11-5.09-25-12.71-11.77-13-26.32-17.88-43.51-12.5-5.16,1.62-12.25,5.21-15.35,1.72-25.55-28.81-60.49-14.5-90.13-17.2-36.5-3.32-73.44-10.5-111.65-2.72-23.27,4.74-49.59.44-74.49-.86-16.29-.85-32.18-.44-47.33,6.2-12.17,5.32-23.64,4-36.29-.06-35.88-11.61-51.18-6.25-74.87,23.45-10.45,13.09-23.77,19.39-40.14,14.37-15.6-4.78-17-19.23-18.77-32.59-1.06-8,1-16.07.73-24.07-.28-10,7.74-24-5.27-28.91a64.41,64.41,0,0,0-49.7,1.56c-13.11,6-10.45,18.54-9.4,30.51,3.36,38.4-4.69,76.35-5.93,114.63-.55,17-11.18,28.41-30.68,24.89-14.46-2.61-28.25,2.79-42.58,2.49-19.87-.42-29-8.69-29.79-29.06-1.37-34.8,7.79-69,4.08-104-1.54-14.6-5.72-26.17-16.16-35.11-13-11.12-26.14-4-35.81,9.07-28.54,38.73-11,81-12.82,121.68-1.48,32.58-9.34,40.47-40.26,36.87-22.62-2.64-29.78-12.33-30-35.65-.21-22.3,1.59-44.34,3.6-66.47,1.39-15.26-.8-29.54-20.68-30.82-18.28-1.18-36.65-2-43.53,21-3.39,11.33-2.78,23-3.55,34.56-1.81,27-10.34,34-37.82,31.73-3.56-.29.84.31-2.64-.41-17.38-3.61-36.82,3.3-52.41-7.27-16.38-11.11-8.07-31.56-13.66-47.25-6-16.79-11.65-29.37-32.87-27.22-20.85,2.11-31.69,10.06-32.81,33.21-1.54,31.92-24.82,53-56.84,51.09-40.16-2.33-80.23,3.08-120.27-.74-12.87-1.23-24.48,2-28.4,14.73-6.18,20.11-18.94,26.47-38.48,24.06-21.94-2.71-25.3-19.43-28.64-36.59-6.21-31.82-32.43-52.2-62.63-47.25-14.87,2.44-30.32,6.62-42.24,15.91-12.92,10.06-27.87,9-41.59,13.45-48.48,15.55-103.76,8.66-146.18,44.33-19,16-42.21,11.38-64.34,9-11.7-1.25-14.47-11.73-18.81-20.57-7.45-15.16-22.33-20.24-32.75-9.05-20.67,22.2-50.57,17.35-74.06,30.74s-49.6,17.36-76.71,5.46c-14-6.13-22.12.81-26.16,16.81-9.12,36.12-29.23,42.57-61.71,24-15.62-8.92-31.21-15.59-38.54-34.49-4.7-12.12-18.9-8-29-8.11-16.07-.18-32.2,2.83-44.38-12-4.55-5.55-11-4.21-17.22-1.43-37.33,16.66-72.35,16.49-108.09-7.61-30.56-20.61-67.77-20.37-103.49-21.79-13.36-.52-26.76.35-40.16.3-21.33-.09-39.23-3.39-45.25-27.93-1.49-6.08-5.91-11.59-12.91-12.16-9.21-.75-12,7-14.13,13.59-6,18.77-19.8,23.59-37.52,23.17-13.4-.31-26.81-.15-40.21-.06-16.89.11-30.19-4-32.2-23.94-1-9.82-6.2-16.52-16.24-18.85-2.6-.61-6.16-.8-7.48-2.64-17-23.67-29.16-17.83-48.32,1.16-17.72,17.55-80.84-2.25-93-25-4.08-7.67-9.45-12.73-17.1-16-9.44-4-15.76-10.5-20.17-20.18-11.37-25-20.81-27.16-37.38-5.63-16.84,21.88-37.31,31.39-64.11,32.44-20.62.81-31.85-8.46-37-27.24-5.68-20.78-8.66-41.61-6.88-63.48,2.07-25.4-15.12-41.64-40.58-41.2-34.12.6-42.56,6.69-49.22,45-3.93,22.62-13.87,36.39-36.36,39.66-11.2,1.63-17.95,6.41-20.33,17.66-2.93,13.92-11,21.83-26.08,21.84-13.06,0-21.92-4.59-26.45-17.78-6.35-18.5-24.06-24.85-39.05-21.21-46.14,11.18-91.77-7-137.85.86-14.94,2.53-23.17,5.14-25.4,20.14-2.69,18-13.62,21.68-30.81,20.78a781.58,781.58,0,0,0-106.89,1.66c-33,2.8-36.4-.23-47.55-31.52-9.95-28-33.22-44-60.23-52.32-15.23-4.7-29.38,3.51-40.24,15.88-23.87,27.18-52.22,32.9-83,15.87-14.19-7.84-26.37-15-39.61,1.87-7.84,10-20.15,3.56-30.5,4-14.56.7-28.63.29-29.07,21.78-.31,14.87-13.48,19.79-26.12,22.92-14.69,3.64-28.07-.76-35.07-13.33-10.24-18.41-26-24.88-44.91-29.61-30.15-7.55-42.07-24.73-41.86-56.12.21-30.1-1.07-31.43-31.26-32-16-.3-32.29,1.23-47.11-7.15-13.3-7.53-23.29,7.12-35.71,5.53a30.25,30.25,0,0,1-7.73-1.21c-13.09-6.2-22.59-16.84-30.52-28.23-13.08-18.82-27.09-20-43.76-5.57C-7216.54-1851.91-7220.78-1848.76-7226.17-1851.82Z"/></g></g></g><path class="cls-9" d="M111.25,19.76v6.61h-4v6.22h-8V26.37H83.07V20.86L95.91,0h11.33V19.76ZM99.21,7h-.08L91.36,19.76h7.85Z"/><path class="cls-10" d="M13.26,13.46a7,7,0,0,1,5.63,2.7V8.52A15.17,15.17,0,0,0,13,7.28a13.45,13.45,0,0,0-9.4,4,12.83,12.83,0,0,0-3.63,9A12,12,0,0,0,4,29.5a13.78,13.78,0,0,0,9.26,3.61A18.3,18.3,0,0,0,18.89,32V24.33a7.43,7.43,0,0,1-5.54,2.6,6.38,6.38,0,0,1-6.67-6.67A6.48,6.48,0,0,1,13.26,13.46Zm-12,9.61A12.43,12.43,0,0,1,5,11.3C8.56,7.93,12.33,8,16.7,8.73,16.7,8.73,2.86,6.46,1.28,23.07Z"/><path class="cls-11" d="M82.09,27.35V20.58l1.47-2.39a13.87,13.87,0,0,0-2.4-.89l-1.64-.48c-1.11-.35-2.85-.9-2.85-2.3s1.57-2,2.75-2a6.86,6.86,0,0,1,4.26,1.6l2.55-4.85a17.26,17.26,0,0,0-7.73-2c-4.94,0-8.51,3.19-8.51,8.07C70,20,72.65,21,76.67,22.14c1.38.38,3.9,1,3.9,2.74S79,27.31,77.46,27.31a8.93,8.93,0,0,1-5.7-2.49l-2.75,5a15.53,15.53,0,0,0,8.68,2.74,11,11,0,0,0,7-2.26,6.65,6.65,0,0,0,2-3ZM71.47,17.48s-1.82-5.21,2-7.91C76.15,7.63,79.37,8,83.16,9l.28.07L83.16,9C81.36,8.52,71.16,6.6,71.47,17.48Z"/><path class="cls-12" d="M35.65,7.94h-7L19.15,32.62H26l1.7-4.29H36.5l1.6,4.29h6.84ZM29.43,23.42l2.65-7.86h.07l2.61,7.86Zm.31-12.75L26,16.61l3-7.84h5.83Z"/><path class="cls-13" d="M119.55,7.94h-7l-4.17,10.84h3.85v8.57h-4v5.27h1.64l1.7-4.29h8.84L122,32.62h6.84Zm-6.22,15.48L116,15.56h.07l2.62,7.86ZM114,10.67l-3.71,5.94,3-7.84h5.84Z"/><path class="cls-14" d="M62.16,7.94V23h-.07L50.34,7.94H43.93V32.62h6.41V17.49h.07L62.16,32.62h6.41V7.94ZM45.65,9.76l-1,8.87v-10h4.67Zm18.24,0-1,8.87v-10h4.66Z"/><path class="cls-15" d="M134.34,27.12V7.88h-6.41V32.56H142V27.12ZM129.66,9.87l-1,8.86v-10h4.67Z"/><path class="cls-16" d="M149.07,27.12V7.88h-6.41V32.56h14.1V27.12ZM144.5,9.87l-1,8.86v-10h4.67Z"/><path d="M6.05,47.47a2.56,2.56,0,0,1,1,1A3,3,0,0,1,7.41,50a2.91,2.91,0,0,1-.36,1.47,2.5,2.5,0,0,1-1,1,3.14,3.14,0,0,1-1.53.35H2s-.05,0-.05.06v4a.12.12,0,0,1-.14.14H.76a.12.12,0,0,1-.14-.14V47.25a.13.13,0,0,1,.14-.14H4.54A3.07,3.07,0,0,1,6.05,47.47ZM5.6,51.2A1.66,1.66,0,0,0,6.07,50a1.69,1.69,0,0,0-.47-1.24,1.67,1.67,0,0,0-1.24-.47H2s-.05,0-.05.06V51.6s0,.06.05.06H4.36A1.67,1.67,0,0,0,5.6,51.2Z"/><path d="M8.84,56.78V47.26A.13.13,0,0,1,9,47.12h1.07a.13.13,0,0,1,.14.14v9.52a.12.12,0,0,1-.14.14H9A.12.12,0,0,1,8.84,56.78Z"/><path d="M17.94,53.76a.12.12,0,0,1-.14.14H13.34a.05.05,0,0,0-.06.06,2.59,2.59,0,0,0,.08.72,1.5,1.5,0,0,0,.63.88,2.05,2.05,0,0,0,1.18.31,1.81,1.81,0,0,0,1.6-.85c0-.09.1-.11.18,0l.8.53c.06.06.08.12,0,.18a2.77,2.77,0,0,1-1.11,1,3.66,3.66,0,0,1-1.64.36,3.12,3.12,0,0,1-1.72-.45,2.81,2.81,0,0,1-1.05-1.27,5.4,5.4,0,0,1-.33-2,6.12,6.12,0,0,1,.15-1.56,2.65,2.65,0,0,1,1-1.52,2.93,2.93,0,0,1,1.83-.56,2.88,2.88,0,0,1,2.12.7,3.44,3.44,0,0,1,.85,2.08A10.44,10.44,0,0,1,17.94,53.76Zm-4-2.61a1.48,1.48,0,0,0-.53.8,3.16,3.16,0,0,0-.13.79s0,0,.06,0h3.2s.06,0,.06,0a3.88,3.88,0,0,0-.09-.69,1.54,1.54,0,0,0-.55-.87,1.78,1.78,0,0,0-2,0Z"/><path d="M20.67,56.5a2.69,2.69,0,0,1-1-1.47,5.58,5.58,0,0,1-.21-1.69,6.1,6.1,0,0,1,.21-1.69,2.6,2.6,0,0,1,1-1.43,3,3,0,0,1,1.81-.53,3.18,3.18,0,0,1,1.84.53,2.43,2.43,0,0,1,1,1.34,2.56,2.56,0,0,1,.11.46.13.13,0,0,1-.13.14l-1,.16h0c-.07,0-.12,0-.14-.13L24.07,52a1.32,1.32,0,0,0-.54-.8,1.74,1.74,0,0,0-1.05-.32,1.65,1.65,0,0,0-1,.32,1.45,1.45,0,0,0-.55.85,5.89,5.89,0,0,0-.13,1.33,5.8,5.8,0,0,0,.13,1.32,1.56,1.56,0,0,0,.55.88,1.59,1.59,0,0,0,1,.32,1.73,1.73,0,0,0,1.06-.32,1.38,1.38,0,0,0,.55-.84,0,0,0,0,0,0,0s0,0,0,0v0a.12.12,0,0,1,.16-.09l1,.17c.07,0,.11.06.11.11v.06a1.19,1.19,0,0,1-.07.31,2.39,2.39,0,0,1-1,1.37,3.33,3.33,0,0,1-1.84.52A3.06,3.06,0,0,1,20.67,56.5Z"/><path d="M32,50.37a2.39,2.39,0,0,1,.67,1.79v4.62a.12.12,0,0,1-.14.14H31.47c-.1,0-.14,0-.14-.14V52.43a1.58,1.58,0,0,0-.41-1.13,1.41,1.41,0,0,0-1.08-.44,1.44,1.44,0,0,0-1.08.44,1.54,1.54,0,0,0-.42,1.12v4.36c0,.1,0,.14-.14.14H27.14a.12.12,0,0,1-.14-.14V47.26a.13.13,0,0,1,.14-.14H28.2a.12.12,0,0,1,.14.14v3.18a.05.05,0,0,0,0,0s0,0,0,0a2.12,2.12,0,0,1,1.78-.77A2.46,2.46,0,0,1,32,50.37Z"/><path d="M35.61,56.51a2.81,2.81,0,0,1-1.08-1.46,5.39,5.39,0,0,1-.25-1.71,5.15,5.15,0,0,1,.24-1.68,2.69,2.69,0,0,1,1.08-1.45,3.15,3.15,0,0,1,1.83-.52,3,3,0,0,1,1.76.52,2.89,2.89,0,0,1,1.07,1.44,5,5,0,0,1,.25,1.68,5.33,5.33,0,0,1-.25,1.72,2.79,2.79,0,0,1-1.07,1.46,3,3,0,0,1-1.77.53A3.12,3.12,0,0,1,35.61,56.51Zm2.79-.95a1.73,1.73,0,0,0,.6-.89,4.89,4.89,0,0,0,.15-1.32,5.27,5.27,0,0,0-.14-1.3,1.73,1.73,0,0,0-.6-.89,1.65,1.65,0,0,0-1-.31,1.61,1.61,0,0,0-1,.31,1.73,1.73,0,0,0-.6.89,4.59,4.59,0,0,0-.15,1.3,4.74,4.74,0,0,0,.15,1.32,1.62,1.62,0,0,0,.6.89,1.66,1.66,0,0,0,1,.31A1.59,1.59,0,0,0,38.4,55.56Z"/><path d="M43.66,56.81,41.38,50l0-.05c0-.07,0-.1.13-.1h1.18a.15.15,0,0,1,.16.11L44.37,55a.05.05,0,0,0,.05,0,.05.05,0,0,0,0,0L46,49.91a.18.18,0,0,1,.17-.11h1.18c.1,0,.14,0,.11.16l-2.27,6.84a.16.16,0,0,1-.17.11H43.83A.16.16,0,0,1,43.66,56.81Z"/><path d="M48.83,56.78V47.26a.12.12,0,0,1,.14-.14H50a.13.13,0,0,1,.14.14v5.39a.05.05,0,0,0,0,.05s0,0,0,0l2.59-2.81A.19.19,0,0,1,53,49.8h1.24c.06,0,.09,0,.11.05a.13.13,0,0,1,0,.12l-1.8,2.08s0,.07,0,.09l2.15,4.62v.05c0,.08,0,.11-.13.11H53.4a.15.15,0,0,1-.15-.11L51.58,53s0,0-.07,0L50.2,54.45a.17.17,0,0,0,0,.07v2.26a.12.12,0,0,1-.14.14H49C48.87,56.92,48.83,56.88,48.83,56.78Z"/><path d="M55.69,59.57v-.83a.12.12,0,0,1,.14-.14h0a2.59,2.59,0,0,0,.89-.14,1.11,1.11,0,0,0,.53-.46,4.51,4.51,0,0,0,.4-1s0,0,0-.09L55.34,50l0-.05c0-.07,0-.1.13-.1h1.13a.17.17,0,0,1,.17.11l1.58,5.28s0,0,0,0a.05.05,0,0,0,.05,0L60,49.91a.18.18,0,0,1,.17-.11h1.11c.1,0,.14.05.11.15l-2.55,7.46a5.89,5.89,0,0,1-.64,1.44,1.8,1.8,0,0,1-.84.66,4.3,4.3,0,0,1-1.46.2h-.1C55.72,59.71,55.69,59.66,55.69,59.57Z"/><path d="M66.49,56.76a2.25,2.25,0,0,1-1-.7,1.52,1.52,0,0,1-.35-1v-.15a.12.12,0,0,1,.14-.14h1a.12.12,0,0,1,.14.14V55a.82.82,0,0,0,.42.68A1.87,1.87,0,0,0,68,56a1.69,1.69,0,0,0,1-.28.81.81,0,0,0,.39-.69.66.66,0,0,0-.36-.61A6.1,6.1,0,0,0,67.82,54a12,12,0,0,1-1.33-.45,2.33,2.33,0,0,1-.91-.66,1.59,1.59,0,0,1-.37-1.1,1.77,1.77,0,0,1,.73-1.49,3.15,3.15,0,0,1,2-.55,3.63,3.63,0,0,1,1.44.26,2.22,2.22,0,0,1,1,.72,1.73,1.73,0,0,1,.33,1v0a.12.12,0,0,1-.14.14h-1a.13.13,0,0,1-.14-.14v0a.78.78,0,0,0-.4-.67,1.8,1.8,0,0,0-1.08-.28,1.85,1.85,0,0,0-1,.24.72.72,0,0,0-.39.64.68.68,0,0,0,.37.62,6.16,6.16,0,0,0,1.2.45,12,12,0,0,1,1.35.44,2.39,2.39,0,0,1,.92.64,1.65,1.65,0,0,1,.38,1.12A1.79,1.79,0,0,1,70,56.45,3.29,3.29,0,0,1,68,57,4.11,4.11,0,0,1,66.49,56.76Z"/><path d="M76.78,56.81,74.5,50V49.9c0-.07,0-.1.12-.1h1.18a.18.18,0,0,1,.17.11L77.5,55s0,0,0,0,0,0,0,0l1.53-5.07a.17.17,0,0,1,.17-.11h1.17c.1,0,.14,0,.11.16L78.3,56.81a.16.16,0,0,1-.17.11H77A.16.16,0,0,1,76.78,56.81Z"/><path d="M82,56.78V47.26a.13.13,0,0,1,.14-.14h1.07a.13.13,0,0,1,.14.14v9.52a.12.12,0,0,1-.14.14H82.1A.12.12,0,0,1,82,56.78Z"/><path d="M89.35,50a2.31,2.31,0,0,1,1,.84,2.2,2.2,0,0,1,.34,1.22v4.73a.12.12,0,0,1-.14.14H89.47c-.1,0-.14,0-.14-.14v-.5c0-.05,0-.06-.07,0a2.45,2.45,0,0,1-.89.58A3.13,3.13,0,0,1,87.2,57a2.75,2.75,0,0,1-1.72-.53,1.89,1.89,0,0,1-.67-1.59,2.07,2.07,0,0,1,.76-1.71,3.26,3.26,0,0,1,2.13-.63h1.57s.06,0,.06,0v-.38a1.27,1.27,0,0,0-.36-1,1.51,1.51,0,0,0-1.08-.34,1.71,1.71,0,0,0-1,.23,1,1,0,0,0-.46.62c0,.1-.08.14-.17.13l-1.13-.16c-.09,0-.14-.05-.13-.11a1.91,1.91,0,0,1,.89-1.35,3.33,3.33,0,0,1,1.93-.52A3.48,3.48,0,0,1,89.35,50Zm-.57,5.52a1.16,1.16,0,0,0,.55-1v-.83a.05.05,0,0,0-.06-.06H88a2.32,2.32,0,0,0-1.32.33,1,1,0,0,0-.49.89.9.9,0,0,0,.37.79,1.68,1.68,0,0,0,1,.26A2.14,2.14,0,0,0,88.78,55.51Z"/><path d="M93.52,56.76a2.31,2.31,0,0,1-1-.7,1.52,1.52,0,0,1-.35-1v-.15a.12.12,0,0,1,.14-.14h1a.12.12,0,0,1,.14.14V55a.81.81,0,0,0,.43.68A1.81,1.81,0,0,0,95,56a1.69,1.69,0,0,0,1-.28.8.8,0,0,0,.4-.69.66.66,0,0,0-.37-.61A6,6,0,0,0,94.86,54a12.23,12.23,0,0,1-1.34-.45,2.4,2.4,0,0,1-.91-.66,1.59,1.59,0,0,1-.37-1.1A1.77,1.77,0,0,1,93,50.28a3.17,3.17,0,0,1,2-.55,3.54,3.54,0,0,1,1.43.26,2.11,2.11,0,0,1,1,.72,1.74,1.74,0,0,1,.34,1v0a.13.13,0,0,1-.14.14h-1a.12.12,0,0,1-.14-.14v0a.8.8,0,0,0-.4-.67,1.85,1.85,0,0,0-1.09-.28,1.87,1.87,0,0,0-1,.24.73.73,0,0,0-.38.64.66.66,0,0,0,.37.62,5.77,5.77,0,0,0,1.19.45,11.55,11.55,0,0,1,1.36.44,2.43,2.43,0,0,1,.91.64,1.65,1.65,0,0,1,.38,1.12A1.79,1.79,0,0,1,97,56.45,3.26,3.26,0,0,1,95,57,4.17,4.17,0,0,1,93.52,56.76Z"/><path d="M102.67,50.9h-1.51a.05.05,0,0,0-.06.06v3.71a1.16,1.16,0,0,0,.27.85,1.14,1.14,0,0,0,.82.26h.41a.12.12,0,0,1,.14.14v.86a.12.12,0,0,1-.14.14L102,57a2.83,2.83,0,0,1-1.61-.38,1.64,1.64,0,0,1-.54-1.42V51s0-.06,0-.06H98.9a.12.12,0,0,1-.14-.14v-.82a.12.12,0,0,1,.14-.14h.86s0,0,0-.06V48.09A.13.13,0,0,1,100,48h1a.13.13,0,0,1,.14.14v1.65a.05.05,0,0,0,.06.06h1.51a.12.12,0,0,1,.14.14v.82A.12.12,0,0,1,102.67,50.9Z"/><path d="M109.46,50.37a2.39,2.39,0,0,1,.67,1.79v4.62a.12.12,0,0,1-.14.14h-1.06c-.1,0-.14,0-.14-.14V52.43a1.58,1.58,0,0,0-.41-1.13,1.53,1.53,0,0,0-2.15,0,1.54,1.54,0,0,0-.42,1.12v4.36a.12.12,0,0,1-.14.14H104.6a.12.12,0,0,1-.14-.14V49.94a.12.12,0,0,1,.14-.14h1.07a.12.12,0,0,1,.14.14v.5s0,0,0,0,0,0,0,0a2.14,2.14,0,0,1,1.78-.77A2.46,2.46,0,0,1,109.46,50.37Z"/><path d="M111.92,48.85s0-.07,0-.12l.83-1.51a.17.17,0,0,1,.17-.1h.94a.1.1,0,0,1,.1.05.13.13,0,0,1,0,.12l-1,1.51a.21.21,0,0,1-.17.1H112C112,48.9,111.94,48.89,111.92,48.85Zm0,7.93V49.94c0-.1,0-.14.14-.14h1.06a.12.12,0,0,1,.14.14v6.84a.12.12,0,0,1-.14.14h-1.06C112,56.92,111.94,56.88,111.94,56.78Z"/><path d="M124.23,50.34a2.43,2.43,0,0,1,.61,1.77v4.67c0,.1,0,.14-.13.14h-1c-.1,0-.15,0-.15-.14V52.39a1.53,1.53,0,0,0-.38-1.11,1.33,1.33,0,0,0-1-.42,1.42,1.42,0,0,0-1,.41,1.46,1.46,0,0,0-.4,1.09v4.42c0,.1-.05.14-.15.14h-1c-.1,0-.14,0-.14-.14V52.39a1.53,1.53,0,0,0-.39-1.11,1.33,1.33,0,0,0-1-.42,1.36,1.36,0,0,0-1,.41,1.54,1.54,0,0,0-.38,1.09v4.42a.12.12,0,0,1-.14.14h-1.07a.12.12,0,0,1-.14-.14V49.94a.12.12,0,0,1,.14-.14h1.07a.12.12,0,0,1,.14.14v.47s0,0,0,.05,0,0,0,0a2.21,2.21,0,0,1,1.79-.74,2.56,2.56,0,0,1,1.22.27,2,2,0,0,1,.78.81s.06,0,.09,0a2,2,0,0,1,.88-.81,2.77,2.77,0,0,1,1.23-.27A2.21,2.21,0,0,1,124.23,50.34Z"/><path d="M134.07,47.12h1.06a.12.12,0,0,1,.14.14v9.52c0,.1,0,.14-.14.14h-1.06a.12.12,0,0,1-.14-.14v-.46a.05.05,0,0,0,0,0s0,0,0,0a2.07,2.07,0,0,1-.73.55,2.13,2.13,0,0,1-.91.2,2.72,2.72,0,0,1-1.67-.5,2.8,2.8,0,0,1-1-1.41,5.23,5.23,0,0,1-.27-1.79,5.63,5.63,0,0,1,.22-1.69,2.9,2.9,0,0,1,1-1.45,2.77,2.77,0,0,1,1.72-.51,2.11,2.11,0,0,1,.9.19,2,2,0,0,1,.74.53s0,0,0,0a.05.05,0,0,0,0,0V47.26A.13.13,0,0,1,134.07,47.12Zm-.17,6.23a3.62,3.62,0,0,0-.35-1.79,1.3,1.3,0,0,0-1.19-.71,1.34,1.34,0,0,0-1.24.67,3.38,3.38,0,0,0-.45,1.85A3.69,3.69,0,0,0,131,55.1a1.38,1.38,0,0,0,1.33.77,1.34,1.34,0,0,0,1.23-.75A3.85,3.85,0,0,0,133.9,53.35Z"/><path d="M143.06,53.76a.13.13,0,0,1-.14.14h-4.47s0,0,0,.06a2.26,2.26,0,0,0,.08.72,1.48,1.48,0,0,0,.62.88,2.11,2.11,0,0,0,1.19.31,1.78,1.78,0,0,0,1.59-.85c.05-.09.11-.11.18,0l.8.53c.07.06.08.12,0,.18a2.77,2.77,0,0,1-1.11,1,3.59,3.59,0,0,1-1.63.36,3.12,3.12,0,0,1-1.72-.45,2.69,2.69,0,0,1-1.05-1.27,5.39,5.39,0,0,1-.34-2,5.62,5.62,0,0,1,.16-1.56,2.63,2.63,0,0,1,1-1.52,3,3,0,0,1,1.84-.56,2.84,2.84,0,0,1,2.11.7,3.44,3.44,0,0,1,.86,2.08A12.85,12.85,0,0,1,143.06,53.76Zm-4-2.61a1.53,1.53,0,0,0-.53.8,3.77,3.77,0,0,0-.12.79s0,0,0,0h3.21s.05,0,.05,0a3.25,3.25,0,0,0-.08-.69,1.55,1.55,0,0,0-1.58-1.2A1.63,1.63,0,0,0,139.05,51.15Z"/><path d="M145.67,56.76a2.31,2.31,0,0,1-1-.7,1.52,1.52,0,0,1-.35-1v-.15a.12.12,0,0,1,.14-.14h1a.12.12,0,0,1,.14.14V55a.81.81,0,0,0,.43.68,1.81,1.81,0,0,0,1.08.3,1.69,1.69,0,0,0,1-.28.8.8,0,0,0,.4-.69.67.67,0,0,0-.37-.61A6,6,0,0,0,147,54a11.54,11.54,0,0,1-1.34-.45,2.4,2.4,0,0,1-.91-.66,1.59,1.59,0,0,1-.37-1.1,1.77,1.77,0,0,1,.73-1.49,3.17,3.17,0,0,1,2-.55,3.54,3.54,0,0,1,1.43.26,2.11,2.11,0,0,1,1,.72,1.74,1.74,0,0,1,.34,1v0a.13.13,0,0,1-.14.14h-1a.12.12,0,0,1-.14-.14v0a.8.8,0,0,0-.4-.67,1.85,1.85,0,0,0-1.09-.28,1.87,1.87,0,0,0-1,.24.71.71,0,0,0-.38.64.66.66,0,0,0,.37.62,5.77,5.77,0,0,0,1.19.45,10.75,10.75,0,0,1,1.35.44,2.39,2.39,0,0,1,.92.64,1.65,1.65,0,0,1,.38,1.12,1.79,1.79,0,0,1-.75,1.51,3.26,3.26,0,0,1-2,.56A4.17,4.17,0,0,1,145.67,56.76Z"/><path d="M151.63,48.43a.89.89,0,0,1-.26-.65.87.87,0,0,1,.26-.64.94.94,0,0,1,1.28,0,.87.87,0,0,1,.26.64.91.91,0,0,1-1.54.65Zm-.06,8.34V49.94a.12.12,0,0,1,.14-.14h1.06c.1,0,.14,0,.14.14v6.83a.12.12,0,0,1-.14.14h-1.06A.13.13,0,0,1,151.57,56.77Z"/><path d="M159.55,49.8h1.07c.09,0,.13,0,.13.14v6.62A2.86,2.86,0,0,1,159.8,59a4.13,4.13,0,0,1-2.57.73l-.7,0a.13.13,0,0,1-.14-.15l0-1a.13.13,0,0,1,0-.1.14.14,0,0,1,.11,0h.58a2.73,2.73,0,0,0,1.72-.44,1.86,1.86,0,0,0,.53-1.49v-.25a.08.08,0,0,0,0-.05s0,0,0,0a2.13,2.13,0,0,1-1.72.68,2.94,2.94,0,0,1-1.65-.47,2.48,2.48,0,0,1-1-1.4,6.36,6.36,0,0,1-.18-1.71,5.94,5.94,0,0,1,.21-1.79,2.59,2.59,0,0,1,2.55-1.86,2.34,2.34,0,0,1,1.8.7.06.06,0,0,0,0,0,.05.05,0,0,0,0,0v-.43A.12.12,0,0,1,159.55,49.8Zm-.16,4.37c0-.17,0-.45,0-.84s0-.67,0-.84a2.43,2.43,0,0,0-.08-.47,1.55,1.55,0,0,0-2.46-.84,1.81,1.81,0,0,0-.56.84,5.8,5.8,0,0,0,0,2.62,1.6,1.6,0,0,0,.56.85,1.54,1.54,0,0,0,1,.33,1.49,1.49,0,0,0,1-.33,1.51,1.51,0,0,0,.5-.85C159.35,54.49,159.38,54.33,159.39,54.17Z"/><path d="M167.63,50.37a2.39,2.39,0,0,1,.67,1.79v4.62a.12.12,0,0,1-.14.14H167.1c-.1,0-.14,0-.14-.14V52.43a1.58,1.58,0,0,0-.41-1.13,1.41,1.41,0,0,0-1.08-.44,1.44,1.44,0,0,0-1.08.44,1.54,1.54,0,0,0-.42,1.12v4.36c0,.1,0,.14-.14.14h-1.06a.12.12,0,0,1-.14-.14V49.94a.12.12,0,0,1,.14-.14h1.06c.1,0,.14,0,.14.14v.5s0,0,0,0,0,0,0,0a2.12,2.12,0,0,1,1.78-.77A2.46,2.46,0,0,1,167.63,50.37Z"/><path d="M175.94,53.76a.12.12,0,0,1-.14.14h-4.46a.05.05,0,0,0-.06.06,2.21,2.21,0,0,0,.09.72,1.48,1.48,0,0,0,.62.88,2.07,2.07,0,0,0,1.18.31,1.81,1.81,0,0,0,1.6-.85c0-.09.1-.11.18,0l.8.53c.06.06.08.12,0,.18a2.77,2.77,0,0,1-1.11,1,3.62,3.62,0,0,1-1.63.36,3.16,3.16,0,0,1-1.73-.45,2.81,2.81,0,0,1-1-1.27,5.4,5.4,0,0,1-.33-2,6.12,6.12,0,0,1,.15-1.56,2.7,2.7,0,0,1,1-1.52,3,3,0,0,1,1.83-.56,2.87,2.87,0,0,1,2.12.7,3.44,3.44,0,0,1,.85,2.08A10.44,10.44,0,0,1,175.94,53.76Zm-4-2.61a1.48,1.48,0,0,0-.53.8,3.16,3.16,0,0,0-.13.79s0,0,.06,0h3.2s.06,0,.06,0a5.51,5.51,0,0,0-.08-.69,1.61,1.61,0,0,0-.56-.87,1.78,1.78,0,0,0-2,0Z"/><path d="M186.72,50.34a2.43,2.43,0,0,1,.62,1.77v4.67a.12.12,0,0,1-.14.14h-1a.12.12,0,0,1-.14-.14V52.39a1.53,1.53,0,0,0-.39-1.11,1.3,1.3,0,0,0-1-.42,1.42,1.42,0,0,0-1,.41,1.47,1.47,0,0,0-.41,1.09v4.42a.12.12,0,0,1-.14.14H182a.12.12,0,0,1-.14-.14V52.39a1.53,1.53,0,0,0-.39-1.11,1.3,1.3,0,0,0-1-.42,1.35,1.35,0,0,0-1,.41,1.5,1.5,0,0,0-.39,1.09v4.42c0,.1,0,.14-.14.14h-1.06c-.1,0-.14,0-.14-.14V49.94c0-.1,0-.14.14-.14h1.06c.1,0,.14,0,.14.14v.47a.08.08,0,0,0,0,.05s0,0,.05,0a2.21,2.21,0,0,1,1.79-.74,2.53,2.53,0,0,1,1.22.27,1.93,1.93,0,0,1,.79.81s.05,0,.08,0a2,2,0,0,1,.89-.81A2.76,2.76,0,0,1,185,49.7,2.21,2.21,0,0,1,186.72,50.34Z"/></svg>