<svg id="Vrstva_1" data-name="Vrstva 1" xmlns="http://www.w3.org/2000/svg" xmlns:xlink="http://www.w3.org/1999/xlink" viewBox="0 0 187.34 59.71"><defs><style>.cls-1{fill:none;}.cls-2{clip-path:url(#clip-path);}.cls-3{fill:#5f8aa6;}.cls-4{fill:#d3a45a;}.cls-5{clip-path:url(#clip-path-2);}.cls-6{opacity:0.59;}.cls-7{clip-path:url(#clip-path-3);}.cls-8{opacity:0.08;}.cls-9{fill:#fff;}.cls-10{fill:url(#Nepojmenovaný_přechod_30);}.cls-11{fill:url(#Nepojmenovaný_přechod_13);}.cls-12{fill:url(#Nepojmenovaný_přechod_13-2);}.cls-13{fill:url(#Nepojmenovaný_přechod_13-3);}.cls-14{fill:url(#Nepojmenovaný_přechod_13-4);}.cls-15{fill:url(#Nepojmenovaný_přechod_13-5);}.cls-16{fill:url(#Nepojmenovaný_přechod_13-6);}</style><clipPath id="clip-path"><rect class="cls-1" x="-2362.56" y="50.23" width="957" height="977.91"/></clipPath><clipPath id="clip-path-2"><rect class="cls-1" x="-2362.56" y="50.23" width="1920" height="977.91"/></clipPath><clipPath id="clip-path-3"><rect class="cls-1" x="-7044.86" y="-1137.62" width="1920" height="2802"/></clipPath><linearGradient id="Nepojmenovaný_přechod_30" x1="106.71" y1="0.5" x2="106.71" y2="30.47" gradientUnits="userSpaceOnUse"><stop offset="0" stop-color="#f39600"/><stop offset="0.3" stop-color="#de6d0e"/><stop offset="0.59" stop-color="#cd4d1a"/><stop offset="0.83" stop-color="#c33921"/><stop offset="1" stop-color="#bf3223"/></linearGradient><linearGradient id="Nepojmenovaný_přechod_13" x1="11.2" y1="7.62" x2="11.2" y2="30.45" gradientUnits="userSpaceOnUse"><stop offset="0" stop-color="#b17f49"/><stop offset="1" stop-color="#683b11"/></linearGradient><linearGradient id="Nepojmenovaný_přechod_13-2" x1="33.14" y1="7.62" x2="33.14" y2="30.45" xlink:href="#Nepojmenovaný_přechod_13"/><linearGradient id="Nepojmenovaný_přechod_13-3" x1="46.03" y1="7.62" x2="46.03" y2="30.45" xlink:href="#Nepojmenovaný_přechod_13"/><linearGradient id="Nepojmenovaný_přechod_13-4" x1="86.12" y1="7.62" x2="86.12" y2="30.45" xlink:href="#Nepojmenovaný_přechod_13"/><linearGradient id="Nepojmenovaný_přechod_13-5" x1="140.42" y1="6.99" x2="140.42" y2="30.91" xlink:href="#Nepojmenovaný_přechod_13"/><linearGradient id="Nepojmenovaný_přechod_13-6" x1="62.87" y1="7.62" x2="62.87" y2="30.45" xlink:href="#Nepojmenovaný_přechod_13"/></defs><title>logo</title><g class="cls-2"><path class="cls-3" d="M-2485.1,471.82V-232.53c1.71-.91,3.55-.46,5.32-.46q1296.27,0,2592.53,0c1.77,0,3.62-.45,5.33.46V469.85c-15.13-4.13-30.62-2.68-45.89-2.2-20.95.66-41.91,1.71-62.82,3.36-8.81.69-17.62,1.9-26.5,1.33-3.22-2.92-.63-5.53,1-7.49,2.08-2.52,4.09-4.62,3-8.21-.55-1.7.62-2.75,2-3.48a34,34,0,0,1,20-3.82,92.69,92.69,0,0,0,16.23.31c5.74-.3,7.61-2.36,7.42-8-.09-2.55.91-3.8,3.1-4.9,5.62-2.82,6.09-6.22,1.71-10.69-4.17-4.24-9.59-6.22-15-8.18a20.46,20.46,0,0,0-5.21-1.45c-8.64-.63-10.93-7.88-14.39-13.77-1.49-2.55.25-3.56,2.79-3.35,2.85.23,6.63,1.67,7.43-2.36.84-4.19-3.19-5.42-6.25-6.26a72.62,72.62,0,0,1-20-9.18c-1.66-1.06-3.44-2-4.65-3.57-3-4-7.21-6.12-11.79-7.67a153.69,153.69,0,0,0-20.39-5.67,12.56,12.56,0,0,1-8.06-5,51,51,0,0,0-24.85-17.67c-21.72-7.23-43.92-12.38-66.36-16.67-5.48-1-10.93-2.28-16.35-3.62-1.2-.29-2.84-.52-2.9-2.15s1.39-2.07,2.65-2.49a22,22,0,0,0,4.6-1.72c1.89-1.15,3.57-2.54,3.27-5-.26-2.21-1.86-3.46-3.81-4.1a40.13,40.13,0,0,0-13-2.39,16.3,16.3,0,0,1-12.46-4.89c-2.38-2.43-5.22-3.1-8.49-3.07-9.69.08-19.38,0-29.07.06-3.67,0-6.64-.71-8.84-4.08-2.38-3.64-6.55-4.72-10.42-6.13-1.33-.49-3.38-.86-3.18-2.55s2.25-1.56,3.67-1.68c4-.34,7.85.38,11.77.71,3.32.28,7.88,1.09,8.56-3.42s-3.91-5-7.17-5.66c-12.89-2.61-26-3.5-39.07-4.75-3.46-.34-6-.92-6.44-5.08-.37-3.26-3.23-4.26-6.08-4.88a189.58,189.58,0,0,0-29.25-3.88c-4.61-.28-8.42-.92-10.47-6.22-1.66-4.28-7.22-5.52-9.75-9.47a27.8,27.8,0,0,0-2.48-1.83,1.22,1.22,0,0,1-.4-1.41c1.92-2.11,4.5-1.21,6.82-1.52,11.32.5,22.49,2.54,33.76,3.52,3.76.33,7.53.49,11.28,1,2.44.35,4.75-.36,5.52-3,.82-2.87-1.25-4.24-3.49-5.1-7.42-2.84-15.28-3.8-23-5.12-6-1-11.62-2.25-16.93-5.88-7-4.8-15.71-5.61-23.95-7-21.54-3.6-43.27-5.75-65-8.27-16.79-2-33.65-3.08-50.46-4.72-2.29-.22-4.59-.13-6.89-.18-2-.05-4.17.08-5.72-1.16-8.05-6.46-17.94-6.94-27.43-8.39-21.41-3.28-42.92-5.84-64.55-7.29-.65,0-1.3-.14-2-.23-9.24-1.32-9.27-1.39-4.16-9-1,1.11-2,2.13-3.09,3.17-5.94,5.89-12.79,6.06-19,.23-5.61-5.28-11.24-10.56-16.79-15.9-16.54-15.94-33.1-31.85-50.3-47.08a163.41,163.41,0,0,0-17.81-14c-3.29-2.19-6.69-3.51-10.66-2-2.09.78-3.8,0-5.48-1.22a83.19,83.19,0,0,1-9.89-8.86,31.6,31.6,0,0,0-6.52-5.23c-4.77-2.82-6.53-2.46-9.44,2.42-1,1.66-2.08,2.4-3.94,2.11A8.7,8.7,0,0,0-729.83,88c-2.71,1.86-4.65,0-6.68-1.39-6.06-5.75-11.6-12-17.17-18.22A81.38,81.38,0,0,0-763,59c-2.15-1.72-4.75-3.67-7.47-1.16-2.54,2.34-1.54,5.11,0,7.63,4.36,7.14,8.55,14.38,13.63,21A17.6,17.6,0,0,1-755,89.47a22.67,22.67,0,0,0,1.24,2.7c.23.29.44.59.66.88s.47.54.7.82c.13.13.25.27.37.4a5.51,5.51,0,0,1,.68.85,2.93,2.93,0,0,1,.36,1,1.81,1.81,0,0,1-.66,1.44,1.56,1.56,0,0,1-1.06.12,4.34,4.34,0,0,1-.92-.58c-.14-.12-.27-.25-.41-.36s-.52-.5-.77-.75-.26-.26-.39-.38-.54-.5-.81-.76l-.43-.37-.92-.72c-.17-.12-.32-.25-.5-.36a9.82,9.82,0,0,1-1-.81C-771.39,80-783.26,66.89-795,53.67a20.79,20.79,0,0,0-5.46-4.17c-2-1.11-4.09-1.43-6,.12s-1.87,3.65-1.1,5.83c.61,1.7,1.52,3.28,2.05,5,.24.8.41,1.72-.3,2.28-1,.8-1.91,0-2.52-.72-2.94-3.55-6.45-6.54-9.45-10-7.16-8.33-14.8-16.24-21.94-24.59A35,35,0,0,0-844,23.26c-4.26-3.53-6.73-2.6-8,3a8.53,8.53,0,0,0,.13,2.31c.13.34.24.69.36,1,.21.49.42,1,.64,1.49a3.29,3.29,0,0,1,.26,1.08,1.81,1.81,0,0,1-.77,1.44,1.69,1.69,0,0,1-1.13,0,5.9,5.9,0,0,1-1-.64c-.16-.12-.3-.26-.46-.38l-.94-.73c-.18-.1-.34-.22-.52-.33-.38-.2-.74-.42-1.12-.63-2.2-1.16-4.52-2.33-6.68-.22s-.78,4.46.3,6.63c.65,1.29,1.52,2.49,1.38,4.05A1.5,1.5,0,0,1-863,42.61c-5.25-2.79-8.16-8-11.87-12.19C-885.11,18.76-895.29,7.05-905-5a23.34,23.34,0,0,0-4.48-4.51,4,4,0,0,0-5-.18c-1.69,1.29-1.66,3.12-.92,4.89,1.53,3.62,3.83,6.84,5.56,10.35.29.74.47,1.53.73,2.29.15.32.28.67.41,1s.31.63.46.94l.56.88a8.32,8.32,0,0,1,.59.87,2.7,2.7,0,0,1,.29,1,1.72,1.72,0,0,1-.72,1.38,1.61,1.61,0,0,1-1.06.05,4.81,4.81,0,0,1-.9-.59l-.4-.36c-.27-.23-.52-.48-.77-.73s-.25-.25-.39-.37-.54-.46-.82-.69l-.45-.33c-.32-.2-.62-.43-.92-.66-.48-.37-.92-.78-1.37-1.18-1.44-1.27-3.17-1.05-4.86-.94-.36.11-.72.21-1.07.34s-.59.37-.87.59c-.11.13-.24.24-.35.37a7.31,7.31,0,0,0-.73,1.35c-.12.36-.24.71-.35,1.08a5.11,5.11,0,0,0,0,1.7c.11.34.19.69.3,1s.35.94.56,1.4a7,7,0,0,1,.43.87c.2.44.39.88.62,1.3a6,6,0,0,1,.45.87c.22.45.43.9.65,1.36a3,3,0,0,1,.23,1,1.76,1.76,0,0,1-.76,1.39,1.57,1.57,0,0,1-1.09,0,3.56,3.56,0,0,1-.9-.68,6.38,6.38,0,0,1-.67-.88c-.3-.44-.58-.9-.9-1.33-.23-.26-.44-.54-.66-.81s-.46-.51-.69-.77-.24-.26-.36-.39-.49-.52-.72-.79-.47-.56-.7-.85a13,13,0,0,0-1.8-1.52C-933,10.3-936.2,5.14-939.83.31a34,34,0,0,0-4-4.94c-2.56-2.34-5.2-3-7.52.18-2.08,2.85-3.66,1.91-5.32-.32-4.86-6.59-9.37-13.4-13.71-20.34-1.55-2.47-3.2-6.47-7-4.08-3.35,2.1-1.48,5.46,0,8.29,2.91,5.64,7,10.69,8.64,17-.17,2-1.22,2.5-3,1.78-4.83-4.34-7.74-10.08-11.22-15.41A65.3,65.3,0,0,0-987.48-24c-1.36-1.61-3.07-2.68-5.18-1.62-2.35,1.18-2.4,3.35-1.69,5.54s1.79,4.57,2.65,6.87c.27.76.45,1.54.71,2.3.15.35.28.7.41,1.05l.65,1.52a3.74,3.74,0,0,1,.28,1.08,1.83,1.83,0,0,1-.75,1.47,1.66,1.66,0,0,1-1.14,0,4.43,4.43,0,0,1-.94-.72,8.39,8.39,0,0,1-.74-.93,9.22,9.22,0,0,0-2.21-2.06c-3.81-3.88-6.61-8.55-10-12.74-2.38-2.93-5-4.27-8.33-1.41-1.31,1.15-.68,3.62-2.85,4.19-3.8-1.61-4.44-5.68-6.62-8.54-1.82-2.37-3.08-5.48-7-4.73a4,4,0,0,0-2.45,2.66c-.41,1.1-1,2-2.46,1.37a4.13,4.13,0,0,1-1-.86c-.57-.73-1.08-1.5-1.63-2.24A89.35,89.35,0,0,1-1043.3-40c-2.56-4.64-7-5.69-11.57-6.41-3.36-.53-5.87,2.23-5.64,5.8.19,3,1.45,5.68,2.76,8.34,8.84,17.94,19,35.13,29,52.45,2.86,5,5.75,9.91,8.3,15.06,1.55,3.12,3,6.17,2.2,9.82a6.47,6.47,0,0,0,.93,4.26c6.44,12.34,10.34,25.87,17.64,37.82.84,1.37,2.27,3.09.05,4.66-4.19-1.44-7.18-4.68-10.07-7.65-15.71-16.1-34.6-26.91-55.56-34.55-27.47-10-54.85-20.46-83.11-27.92-27-7.12-54.08-14-81.31-20.11q-31-7-61.94-14.27c-14.07-3.29-27.79-8-42.17-10-20.82-2.91-41.54-6.56-62.41-9.11-6.48-.8-13.07-1.08-19.62-1.45-48.74-2.79-97.52-1.62-146.29-1.88-36-.19-71.79,2.94-107.41,8.33-34.8,5.27-69.18,12.47-103.28,21.13a376.45,376.45,0,0,1-63.18,10c-28.36,2.23-56.53,5.74-84.11,13-18.81,5-36.68,12.54-54.6,19.91A747.68,747.68,0,0,0-2054,75.64c-3.3,1.84-6.68,3.53-10.09,5.15a185,185,0,0,0-30.33,18.29c-15.84,11.71-31,24.32-47.59,35a101.24,101.24,0,0,0-18.29,15.7c-5.87,6.21-12.27,11.86-18.6,17.59-19,17.18-33.52,38.21-49.56,57.93a124,124,0,0,0-16,25.91c-2.71,5.82-5.4,11.68-6.88,17.9-3.79,15.85-9,31.22-14.63,46.48-5.2,14.09-8,28.74-10.52,43.49-1.18,6.95-1.5,7.32-8.61,6.68-9.49-.86-18.76-3.3-28.23-4.39-2-.22-3.91-.42-5.88-.54-4-.23-6.37,1.3-8.73,4.84-7.19,10.8-14,21.8-20.86,32.81-7.49,12-11.31,25.44-15.46,38.76-1.9,6.11-3.77,12.24-5.12,18.5-.87,4.05-3.2,5.7-7.32,5.62-9.52-.21-19-.38-28.49-1.44-17.59-2-35.1-.61-52,5.51-7.73,2.81-15.85,4.29-23.66,6.82C-2482.33,472.75-2483.81,472.94-2485.1,471.82Z"/><path d="M-1824.38,638.34q1,21.84,1.9,43.69c.1,2.3.19,4.56-1.37,6.58-2.48,3.19-7.5,4-12.11,1.56s-8.76-5.15-13.16-7.69c-3.83-2.21-7.72-4.34-11.57-6.52-1.63-.93-2.83-.7-4.33.62a81.35,81.35,0,0,1-12.19,9.15c-3.68,2.19-7.6,2.65-11.83,2.42a36.16,36.16,0,0,1-19.13-6.91,1.68,1.68,0,0,0-2.54.15c-1.71,1.68-4,2.29-6.16,2.93-3.84,1.09-7.15,3.26-10.71,4.92A112,112,0,0,1-1940,694c-1.76.58-2.7,1.28-3.09,3.18-1.79,8.84-3.79,17.64-5.6,26.48a80.77,80.77,0,0,1-5,15.88c-.85,2-1.6,4-2.36,5.94a9,9,0,0,1-7.62,6.13c-11,1.55-22.07,3.22-33.11,4.73a18.7,18.7,0,0,1-7.85-.22c-15.75-4.66-31.89-3.65-48-3.39-12,.18-24,.69-35.94,1.18-11.19.45-22.28-1.52-33.47-1.19-8.1.24-16,.79-23.75,3.52a41.31,41.31,0,0,1-15,2.22,73,73,0,0,0-20.5,2.3,28.75,28.75,0,0,1-7.31.89,71.61,71.61,0,0,0-12.21,1.41,84,84,0,0,1-30.86,0,11.45,11.45,0,0,0-2.42-.41c-12.17.32-24.27-1.08-36.41-1.32a10.81,10.81,0,0,0-4.28.9,4.81,4.81,0,0,0-3.48,4.72c-.36,7.21-.93,14.41-1.44,21.61-2.23,31.76-3.59,63.56-4.58,95.39-.4,12.62-.13,25.27-1.41,37.87-.89,8.65-1.19,17.35-2.85,25.92a33.09,33.09,0,0,0-.45,6.37c.1,28.72,1.49,57.42,1.11,86.14h-14.79c-1.69-1.91-1.45-4.27-1.48-6.56-.38-24.94,1-49.86,1.28-74.79a349.81,349.81,0,0,1,3.24-41.17c1.1-8.44,1-17.05,1.16-25.53.24-20,1.59-40,2.45-60,1.32-30.77,1.93-61.59,5.23-92.29,1.49-13.95,2-28.11,2.63-42.21,1.43-33.64.25-67.27.75-100.9.09-6.26,1.05-12.42,1.59-18.63.39-4.43-.23-5.32-4.74-5.32a51.3,51.3,0,0,1-24.94-6.63,83.16,83.16,0,0,0-13.73-5.45c-15.65-5.18-27.38-14.74-35.28-29.49a123,123,0,0,1-13.09-38.43,42.32,42.32,0,0,1,.71-16.13c.66-3,.15-5.52-3.61-5.28-12.86.81-25.52-1.65-38.31-2.11-10.33-.36-20.26,2.07-30.1,4.56-6.33,1.61-12.47,4-18.88,5.49-4.62,1.08-9.23,2.41-12.8,5.95a4.16,4.16,0,0,1-4.5,1.26V471.82c2.56.2,4.74-1.14,7-1.86,8.13-2.54,16.38-4.68,24.54-7.15,16.46-5,33.43-6.88,50.61-4,9.48,1.6,19,.59,28.52,1.16,2.19.13,2.82-1.13,3.21-2.88,2.32-10.6,6.12-20.76,9-31.18,3.55-12.84,9.7-24.36,16.61-35.54,5.08-8.23,9.7-16.78,15.95-24.25a3,3,0,0,0,.8-1.22c.85-5.3,4.51-5.51,8.84-5.37,10.07.33,19.82,2.72,29.7,4.27,2.61.4,5.21.54,7.82.86,3.45.41,3.59.42,4-2.8A273,273,0,0,1-2262,300.2a163.43,163.43,0,0,0,7-23.06c4.58-20,13.63-37.89,26.31-54,8.74-11.09,18-21.79,26.41-33.12a95.18,95.18,0,0,1,9.75-11.09c13.75-13.42,27.43-26.92,41.73-39.77a73,73,0,0,1,9.73-7.53c12.69-8,24.33-17.33,36.13-26.5a283.71,283.71,0,0,1,42-26.54c20.91-11.07,41.93-21.89,63.38-31.82,30.41-14.08,61.18-27.35,94.18-34.34A451.74,451.74,0,0,1-1843,3.67a473.85,473.85,0,0,0,87.74-14.93,754.73,754.73,0,0,1,83.53-16.51c15.92-2.32,31.83-4.67,47.84-6.31,5.72-.58,11.46-.92,17.2-1.19,21.83-1,43.66-1.66,65.53-1.26,22.18.41,44.37.34,66.55.27,25.48-.09,50.91,1.16,76.31,2.85,9.81.66,19.56,2.38,29.27,4,15.88,2.58,31.85,4.56,47.64,7.68,9.52,1.87,18.66,5.18,28.12,7.26,17,3.73,33.71,8.65,50.81,11.93,21.62,4.14,42.69,10.52,64.07,15.66,7.82,1.88,15.64,3.73,23.5,5.43a171.19,171.19,0,0,1,22.77,6.28c23.75,8.68,48.05,15.77,71.55,25.12,18.47,7.34,35.6,16.84,49.66,31.23a98.55,98.55,0,0,0,11.89,10.27c5.36,2.85,9.08,7.5,12.75,12.06,7,8.71,13.29,17.9,17.45,28.43,2.47,6.27,6.35,11.84,10,17.5,8.69,13.47,14.36,27.9,14.5,44.23.06,6.9,2.05,13.61,2.89,20.45,1.22,10,1,20,.92,30,0,4.77,1,8.14,6.41,9.42,4.43,1.06,5.68,5.2,6.19,9.23,3.05,23.91,6,47.83,5.2,72-.48,15.23-2.16,30.41-2,45.66,0,1.32,0,2.63.07,3.94.61,5.75-1.4,11.37-.8,17.12-.25,12.55,4.27,23.78,8.38,35.43,4.57,12.93,9.15,25.47,17.28,36.72,4.05,5.6,9.16,8.67,15.44,9.3,10.34,1,20.34,3.38,30.46,5.53A331.17,331.17,0,0,0-805.18,495c15.4.93,30.68,2.81,46,4.93,15.08,2.08,29.91,5.45,45.28,6.37a432.93,432.93,0,0,1,43.52,4.76,98.44,98.44,0,0,0,16.2.93c8.8,0,17.26,2.39,25.63,4.66,13.58,3.7,27.54,4.44,41.39,5.77,28.56,2.75,57.39,2.33,85.83,6.77,5,.78,9.82-.53,14.73-.77,9.72-.47,19.35.82,29,1.08,26,.67,51.81-1.47,77.61-4.66s52.05-4.82,77.71-9.75c59-11.34,118.68-19.26,177.83-30.12,29.05-5.34,58.3-9.91,87.69-13.22,6.27-.71,12.63-2.59,19-.65,13.78-.31,27.48-2,41.24-2.66,8.69-.44,17.39-.74,26.06-1.35,18.7-1.31,37.41-1,56.12-1,4.52,0,8.85.54,12.37,3.78v3c-2.81,5-7.8,5.1-12.5,5.2-12,.23-24-.13-36,.12q-28.54.58-57,2.76c-18.82,1.43-37.68,2.36-56.39,4.85-20.51,2.74-40.91,6.33-61.39,9.3-41,5.94-81.44,15-122.47,20.6a63.48,63.48,0,0,0-8.13,2c-3.47,1-3.33,2.71-1.12,4.81,17.79,16.87,31.81,37.06,48.5,54.95,10.58,11.34,19.83,24.08,26.16,38.57a15.54,15.54,0,0,1,.78,10.52c-10.58,41.83-27.14,81.53-43.46,121.31-6.3,15.35-11.65,31-17.4,46.59s-12.22,30.46-21.36,44.24a36.63,36.63,0,0,0-4,6.76c-4.25,11-13.3,13.8-23.88,14.92-25.61,2.71-51.4,3.79-76.82,7.92-13.2,2.15-26.39,2.34-39.64,3-14.24.7-28.36,2.83-42.66,3.37-7.69.29-15.43,2.45-23.33,2.79-7.08.3-10.35-1.1-12.55-8.11a160.57,160.57,0,0,1-6.3-26.8c-.67-5-1.12-10.18-2.94-15-4.46-11.69-7.13-23.87-9.9-36a4.11,4.11,0,0,0-3-3.45c-10.43-3-19.83-8.71-30.39-11.49-3.58-.94-4.85-.21-6,3.18a315.11,315.11,0,0,1-31.08,64.07A592.23,592.23,0,0,1-602.72,908a292,292,0,0,1-24,25.36c-10.4,9.85-18.54,21.71-27.35,32.94-10.53,13.42-21.32,26.67-30.83,40.88-5.75,8.59-11.45,17.22-18.27,25a59.15,59.15,0,0,1-8,8H-721c-1.22-1.61-.16-2.87.83-3.9,17.41-18.08,29.86-39.91,45.24-59.53,9.92-12.66,19.14-25.85,29.42-38.24,6.29-7.58,13.18-14.6,20.08-21.61,16.52-16.8,30.6-35.58,43.82-55,15.07-22.13,29.25-44.87,39-69.94,8.2-21.15,14.49-42.85,16.73-65.6.78-7.88.5-15.73,1-23.58.28-4.42-3-3.89-5.51-4.56-3-.8-4.17.84-4.71,3.47-2.7,13.19-6.33,26.15-9.84,39.14a411,411,0,0,1-29.08,77.26c-2.13,4.26-4.8,8.22-7.23,12.32-17.54,29.58-37.93,57.17-59.92,83.52-13.79,16.52-31,29.18-50,39.38-11,5.9-21.69,12.27-33,17.66a107.59,107.59,0,0,0-21.68,14.36c-9,7.39-18.61,14-27.11,22-10.14,9.6-20.49,18.93-29.08,30a31.62,31.62,0,0,1-2.74,2.81H-816.7c-1.44-2.09,0-3.8.89-5.45a64.13,64.13,0,0,1,10.74-15.25c11-11.43,21.61-23.39,35.31-31.92,3-1.89,5.25-4.82,8.46-8-8.2-.52-15.57.32-22.78-1.22-10.46-2.23-20.82-4.59-29.92-10.71-11.81-7.93-16.59-26.79-6.14-39,6.68-7.8,13.93-14.74,23.63-18.81,6.2-2.6,12.15-5.81,18.1-9,12.45-6.61,25.73-10.64,39.53-13.23,4.73-.89,9.56.18,14.23-.9,28.6-6.64,55.48-16.8,78.07-36.48,20.28-17.67,38-37.21,48.84-62.17,2-4.51,4.33-8.84,6.58-13.22a19.64,19.64,0,0,0,1.1-2.37,10.49,10.49,0,0,1,.42-1.14,16.6,16.6,0,0,1,.77-1.59c.16-.35.36-.69.55-1,.26-.52.5-1.05.72-1.6.12-.38.27-.76.41-1.13a44.42,44.42,0,0,1,2.54-5.78c.89-2.07,1.94-4.07,2.65-6.21a5.11,5.11,0,0,1,.42-1.19,13.21,13.21,0,0,0,.65-1.76,8.14,8.14,0,0,1,.49-1.18c.29-.59.54-1.2.81-1.8,3.54-7.11,6.06-14.63,8.89-22a24.29,24.29,0,0,0,2.2-5.17c1.5-4.25,3.56-8.27,4.85-12.6,1.51-3.55,2.13-7.44,3.49-10.31-1.54,2.78-1.95,6.74-3.56,10.24-1.12,4.14-3.21,7.91-4.58,12a23,23,0,0,1-2.2,5.22c-3.28,7.54-5.61,15.47-9.53,22.73-.26.87-.78,1.63-1,2.53a7,7,0,0,1-.59,1.89c-.46,2.38-1.88,4.38-2.58,6.67-.81,1.41-1.54,2.88-2.47,4.22-.18.32-.39.63-.6.94s-.57.89-.82,1.36c-.14.3-.31.6-.48.89s-.47.88-.68,1.34a10.4,10.4,0,0,1-.46,1c-.23.51-.45,1-.67,1.54a12.24,12.24,0,0,1-.52,1.17,20.57,20.57,0,0,1-1.4,2.51c-2,2.69-3,5.86-4.49,8.75-2.81,5.31-6.9,7.89-13.2,8.71-15.91,2.06-31.42-1.18-47.07-2.39-4.65-.36-7-4.79-5.77-10.58,1.08-5.13,3.06-10,4.47-15.09,1.57-5.68,1.4-6.32-4.31-7.16-15.42-2.26-30.8-4.88-46.43-5.39a24.46,24.46,0,0,1-6.3-1c-8-2.43-16.28-1.76-24.45-2.27-2.22-.14-3.26,1.34-4,3.06-8,19.68-23.61,26.1-43.54,24.76a51.2,51.2,0,0,1-28.95-11.19c-3.8-3-5.72-7.13-6.75-11.71-.72-3.21-2.47-4.78-5.85-4.63-9.51.42-19,1.7-28.45,2.17-2.06.1-3.2,1.5-4,3.18a24.45,24.45,0,0,1-11.21,11.36c-3.39,1.68-3.78,4.61-3.77,7.87,0,17.39-.08,34.78,0,52.17a174.34,174.34,0,0,1-1.71,28c-1.88,12-1.28,24.2-2.08,36.3-.63,9.53-2.55,18.83-3.33,28.32-1.23,14.93-.47,29.84-.81,44.75-.54,23.76-1.67,47.49-2,71.26,0,2.5-.43,4.91-2.38,6.76h-142c-2.4-4.52-2.37-9.54-2.39-14.37,0-17.26-1.83-34.38-3.74-51.5a75.27,75.27,0,0,1-.3-8.36c0-49.24.33-98.49-.13-147.73-.27-29.35-2.08-58.68-2-88,0-9.75,1.51-19.3,2.42-28.92,2.08-22,2.92-44.16,4.9-66.17,2.38-26.42,4.48-53,11.39-78.78,5.49-20.48,15.26-39,27-56.6,7.18-10.73,15.25-21,19.78-33.36a146.15,146.15,0,0,0,8.32-42.85c.71-13.23-.07-26.58-.1-39.85,0-10.45-2.64-20.43-3.2-30.73-.46-8.33-1.45-16.64-1.45-25,0-9.34-2.67-18.5-2-27.94.35-4.9,0-9.83,1.35-14.66.55-2,.5-4.18-1.8-5s-3.55,1.12-4.62,2.76a13,13,0,0,0-1.7,7.09c-.29,16.91.6,33.77,1.76,50.63.06,1,.19,2,.16,3-.59,21,1.67,42,1,63-.19,5.91.93,11.71.74,17.67-.5,15.19-8.74,27.27-15,40.19-3.74,7.73-9.39,14.24-13.71,21.6-1.69,2.89-5.07,4.15-7.17,6.69-8.82,10.64-16.82,21.81-22.68,34.42-7.2,15.5-9.14,32-10.25,48.79-1.13,17.21,0,34.49-1.17,51.64-1.38,19.62-2.71,39.24-3.5,58.89-.6,14.93.13,29.88-.25,44.81-.72,28.73,2.43,57.34,2.35,86.08,0,16,2.34,32.08,1.53,48.15-.87,17-1.88,34.09-1.63,51.11.2,13.6.59,27.21.8,40.83a353.41,353.41,0,0,1-3.38,51.5c-1.06,8-.35,16.07-.61,24.1-.08,2.43.31,5-1.49,7H-1075a179.76,179.76,0,0,1,1.36-34.86c1.7-12.36,3.33-24.68,2.84-37.24-.64-16.28,1.11-32.44,3.13-48.58,2.46-19.71,4-39.47,3.59-59.4-.37-16.57.27-33.16,0-49.74-.13-9.66.55-19.34-.85-29a43.13,43.13,0,0,1,.28-11.78,72.66,72.66,0,0,0,.48-8.35c.06-3.5,0-3.6-3.51-3.6-9.86,0-19.73-.17-29.57.19-14.47.52-28.92.37-43.37,0-20.56-.61-41.07.47-61.59,1.22-9.85.36-19.72.17-29.52,1.52-30.5,4.21-61.23,5.41-91.94,5-30.06-.36-60.14-.36-90.2-1.24-19.21-.56-38.42-1.22-57.63-1.84-10.2-.33-20.36.61-30.53,1.11a519.63,519.63,0,0,1-54.69.18c-.65,0-1.31,0-2,0q-52.24-.25-104.51-.54c-13.36-.09-26.56,1.54-39.7,3.67a128.26,128.26,0,0,1-38.28.18c-6.3-.87-12.42-3-18.59-4.73a8.56,8.56,0,0,1-5.53-4.59c-3.8-7.63-9.09-14.44-12.47-22.31a40.68,40.68,0,0,1-2.07-4.46c-2.18-7.67-6.2-14.4-10-21.34-3.28-6-5.6-12.57-8-19s-4.43-13-6.62-19.58c-1.92-5.73-5.72-10.31-9.43-14.87-3.89-4.77-7.26-9.73-8.66-15.81-.5-2.14-2.2-3.86-2.15-5.75A18.41,18.41,0,0,1-1824.38,638.34Z"/><path class="cls-4" d="M-926,384.05a74.47,74.47,0,0,1-.19-16.21c2.09-23.74,2.77-47.47.64-71.25-.84-9.31-1.47-18.63-3.48-27.8-.45-2.06-.22-4.25-.4-6.37-.46-5.37-2-7.11-7.29-8.34-4.51-1.05-4.73-1.2-4.85-5.86-.24-9.68-.08-19.36-.86-29-.37-4.59-1-9.12-1.78-13.65a74.91,74.91,0,0,1-1.63-13.17c0-13.35-4.7-25.34-10.85-36.87a83.43,83.43,0,0,0-5-7.93,117.6,117.6,0,0,1-10.48-19.46c-5.31-12-13.21-22.25-22.23-31.68-1.59-1.66-3.14-3.35-4.71-5-.56-2.46-2.21-4.37-3.33-6.55a219,219,0,0,1-10.75-23.73c-1.42-3.82-3.55-7.38-5.39-11-1-2-1.93-4-1-6.1s.07-3.77-.76-5.56c-3.6-7.76-8.22-14.94-12.41-22.36-8.71-15.41-17.73-30.66-25.67-46.51a34.08,34.08,0,0,1-3.47-9.16c-1-5.8,3-9.13,8.78-8a16.72,16.72,0,0,1,12.35,9.32c1.19,2.33,2.68,4.5,4,6.75.66.44.41,1.41,1.06,1.87h0c2.61,3.27,4.25,7.16,6.66,10.55.59.62.62,1.53,1.13,2.18.7,1,1.26,2,2,3a6.53,6.53,0,0,1,.72,1.57.79.79,0,0,0,.64.61s-.07.41-.07.41a3.39,3.39,0,0,0,0-.44,2.06,2.06,0,0,1-.66-.8,3.82,3.82,0,0,0-.78-1.59c-.63-1.06-1.36-2-2-3.07a6.76,6.76,0,0,0-1.22-2.35c-.82-1.61-2-3-2.84-4.57-2-3.49-2.11-6.79,1.31-9.57,3.11-1.9,5,.22,6.61,2.27a80,80,0,0,1,4.45,7.06l2.84,4.59c3.51,3.14,4.77,7.75,7.51,11.39,1.51,2.65,3.28,5.14,5,8.39-1.76-3.6-3.87-6.24-5.38-9.26-2.52-4.28-6.16-8.09-5.68-13.62.06-.65,0-1.29.66-1.7,4.24-3.15,6.65-2.89,9.88,1.21,3.53,4.49,7,9,10.47,13.57,1,.75,1.35,2,2.14,2.87h0a4.44,4.44,0,0,1,.93,1v0c2.16,1.27,3.34,3.41,4.74,5.35a57,57,0,0,0,3.85,5.87,5.86,5.86,0,0,1,1.05,2c.12.09,0,.6.42.23-.28.12-.45,0-.52-.39a4.62,4.62,0,0,0-1.06-2.06C-984.49,3.1-985.52.65-987-1.52c-1.31-2-2.8-4-3.15-6.48v0c-.69-.47-.5-1.41-1-2v0c-.64-.5-.43-1.45-1-2-1.13-2.54-2.35-5-3.35-7.64-1.3-3.35-.6-5.95,1.79-7.37s5.34-.71,7.55,2.44c5,7.09,9.2,14.71,14.62,21.51C-967.83.1-965.73,4.43-963,8.28a14.61,14.61,0,0,1,2,3c-.46-1.47-1.53-2.31-2.12-3.46-2.54-3.74-5.19-7.43-6.36-11.9-3-5.46-6-10.94-9.06-16.37a11.65,11.65,0,0,1-2-6.47A4.42,4.42,0,0,1-977.59-31a4.47,4.47,0,0,1,5,.82,16.63,16.63,0,0,1,3.44,4.77,224.14,224.14,0,0,0,13.44,20c.54.74.84,1.84,2,1.94,1-.3.8-1.32,1.24-1.95,2-2.91,5.28-3.51,8.08-1.36a24.39,24.39,0,0,1,4.58,5.13c4.06,5.55,7.78,11.36,12.37,16.51.84.32.59,1.37,1.25,1.82l0,0c.3.35.59.7.89,1h0a3,3,0,0,1,1,1.05h0c.93.79,1.33,2,2.07,2.89h0a3.74,3.74,0,0,1,.93,1.05l0,.05a11.84,11.84,0,0,1,3.7,3.82c.24.36.48.73.75,1.08l.39.52c.25.36.51.71.8,1l.45.49c1,.91,1,2.56,2.83,3.4-1.73-1-1.81-2.59-2.79-3.56-.26-.32-.51-.66-.75-1s-.39-.7-.57-1.07-.36-.7-.53-1.06a14,14,0,0,0-1.27-2c-1-1.12-1.08-2.64-1.81-3.87v0c-.73-.45-.54-1.39-1-2l0,0c-.67-.48-.48-1.42-1-2l0,0c-.62-.53-.48-1.43-1-2l0,0a3.35,3.35,0,0,1,0-3.88h0c.55-.54.36-1.47,1-2h0a3,3,0,0,1,1-1l0,0c2.77-1,5.42-1.09,7.79,1l1,.89a13.4,13.4,0,0,1,1,1h0c.33.32.66.64,1,1h0c.33.32.66.64,1,1h0a6.11,6.11,0,0,1,1,1v0c1.94.48,2.75,2.18,3.86,3.55.92,1.5,2.21,2.74,2.53,3.35-.53-.9-1.91-2.51-3-4.3-1.3-1.27-1.64-3-2.39-4.59v0a9.07,9.07,0,0,1-.85-1.11l0,0c-.72-.44-.51-1.4-1.07-1.93h0c-.62-.47-.37-1.45-1.07-1.88q-2.62-4.71-5.26-9.43c-2.29-4.12-2.18-7.06.33-8.77s5.51-1,8.55,2.46C-903.1-4.67-899.64-.3-896,3.92q16.46,19.21,33,38.38c1.65.53,2.12,2.24,3.21,3.33-1.18-1.22-1.55-2.84-2.16-4.33-1-1.82-2.09-3.62-3-5.48a5.18,5.18,0,0,1,.73-6.27c1.52-1.65,4.16-1.91,6.73-.67a20.62,20.62,0,0,1,2.4,1.62,9,9,0,0,0,1,.94l0,0a6.23,6.23,0,0,0,1,.95l0,0a5.13,5.13,0,0,0,1,1h0a15.51,15.51,0,0,1,1.78.87c-.36-.43-.11-1.79-.77-2.84h0c-.65-.49-.45-1.42-1-2h0c-.6-.54-.41-1.45-1-2a18.18,18.18,0,0,1,.07-3.91,4.89,4.89,0,0,1,6.52-3.46,12.14,12.14,0,0,1,5.08,3.78c7.94,8.75,15.83,17.53,23.76,26.28A139.39,139.39,0,0,0-806,62c-.92-2-1.93-4-2.73-6.08-1.29-3.33-.79-5.82,1.34-7.6,2-1.63,5.06-1.71,7.81.14a29.13,29.13,0,0,1,5.67,4.69C-782,66.5-770,79.77-757.46,92.52a4,4,0,0,0,.93,1l0,0a4.7,4.7,0,0,0,.93,1l0,0a6.56,6.56,0,0,0,.94,1l0,0a7.26,7.26,0,0,0,1,1l0,0a10.87,10.87,0,0,0,.95,1h0c3.53,1.46,5.09,5,7.74,7.36,2.9,3.77,6.35,7,9.47,10.61a7.24,7.24,0,0,0,1.18,1.41.75.75,0,0,0,.74.44,1.11,1.11,0,0,1-.76-.46,7.33,7.33,0,0,1-1.16-1.44c-3.36-3.77-7-7.32-10-11.35-2.34-2.63-5.18-4.89-6.31-8.42l0-.06a4.76,4.76,0,0,0-.87-1h0a6.21,6.21,0,0,1-.91-1.07h0c-.89-.81-1.26-2-2.07-2.87-5.57-7.88-10.93-15.88-15.79-24.21-1-1.71-2-3.37-2-5.44,0-4.16,3.44-6.62,7.32-5.16A15.67,15.67,0,0,1-760.11,60q9.86,10.57,19.7,21.18c1.45,1.55,3,3,4.44,4.57,1.72.59,1.88,5.39,5.12,1.89,2.5-3.77,5.92-2.55,9.19-1.62,1-1,.65-2.25,1.12-3.29,1.5-3.29,4.21-4.54,7.66-3.3a25.49,25.49,0,0,1,8.57,5.67q5.76,5.37,11.51,10.75c1.09,1,2,2.13,3.76.82,3.06-2.31,6.2-1.41,9.24.19,5,2.63,9.28,6.2,13.61,9.7,9.33,7.53,18.12,15.67,26.83,23.88,16,15.09,32,30.2,47.72,45.57,3.42,3.34,7.32,3.21,11.29,3.74,1.66.22,2.55-1.3,3.59-2.3a101.48,101.48,0,0,1,8.77-7.85c-.24,4.23-3.72,6.56-5.73,10.27,3.06.39,5.88.93,8.72,1.11,17,1.05,34,3.19,50.87,5.27,10.08,1.24,20.15,2.7,30.07,4.93,3.64.83,7.43,1.56,10,4.76,1.37,1.69,3.41,1.8,5.41,1.86,14.27.48,28.47,1.94,42.68,3.24,13.21,1.21,26.36,3.12,39.56,4.5,13.37,1.4,26.71,3.06,40,5.2,7.12,1.15,14.23,2.43,21.06,4.87,3.39,1.22,6.86,2.39,9.32,5.26,1.19,1.39,2.79,1.48,4.44,1.73,8.9,1.39,17.81,2.82,26.58,4.94A29.89,29.89,0,0,1-278,230a4.92,4.92,0,0,1,2.83,5.24c-.18,2.25-1.56,3.5-3.5,4.33a7.41,7.41,0,0,1-3.86.54q-19.53-2.21-39.08-4.42c-1.95-.21-3.93-.25-5.9-.38a339.74,339.74,0,0,1-36-3.35c-6.63-.64-13.23-1.54-18.29-2,3.74-.27,8.82,1.7,14.14,1.53,9.39,1.28,18.78,2.47,28.23,3.19a9,9,0,0,1,5.08,1.66,4,4,0,0,0,.83.12c.59.54,1.47.37,2.08.84,2.85,2.86,5.57,5.82,9.21,7.8a4.81,4.81,0,0,1,2.6,4.49c-.12,2.25,1.19,2.73,3,2.91,5.05.49,10.1,1.15,15.16,1.55a171.34,171.34,0,0,1,20.41,3.13c4.67,1,6.07,2.64,6.31,7.64.1,2,1.4,1.91,2.66,2,7.51.71,15,1.25,22.53,2.13,7,.82,14,1.94,20.92,3.05a15.49,15.49,0,0,1,4.12,1.55,4.92,4.92,0,0,1,3.09,5.13,5.23,5.23,0,0,1-4.47,4.64,20.93,20.93,0,0,1-7.85,0c-4.25-.71-8.5-.59-13.31-.63,1.79,1.7,3.77,1.81,5.45,2.51,4.08,1.69,8.41,3,10.14,7.78.63,1.75,2.43,1.38,3.88,1.38,5.09,0,10.19-.05,15.28-.06,5.42,0,10.85.14,16.27,0,4-.09,7.19.55,9.94,4a11.29,11.29,0,0,0,9.63,4.08,44.46,44.46,0,0,1,13.59,1.94,12.78,12.78,0,0,1,3.19,1.26c4.4,2.63,4.52,7.55.24,10.35a13.69,13.69,0,0,1-5.94,2.24c-.93.11-2,0-2.77,1.4A106.36,106.36,0,0,0-153.69,323c23.83,4.71,47.51,9.86,70.64,17.5,10.08,3.34,18.47,8.88,24.77,16.94,3.2,4.1,6.69,5.43,11.18,6.51,8,1.91,16,3.88,23.38,7.53a14.49,14.49,0,0,1,6.61,5.7c.4.69.88,1.6,1.53,1.83,6.36,2.21,11,7.82,17.92,9a27.2,27.2,0,0,1,8.78,3.11c3.39,1.9,4.57,4.4,3.48,7.18-.95,2.43-3.53,3.47-7,2.85L3,400.25c.15,2.2,1.52,3.43,2.58,4.73s2.6,2.78,2.7,4.6c.16,3,2.07,3.61,4.46,4.21a102.19,102.19,0,0,1,15.46,4.93,31.85,31.85,0,0,1,10.67,6.93c4.87,5.06,3.82,10.35-2.79,12.47-2.58.82-2.91,1.48-2.1,4,1.29,4-.34,6.59-4.28,8.08a14.07,14.07,0,0,1-5.3.93c-5.58-.11-11.15-.2-16.73-.56-5.12-.33-10.53-.54-15.17,2.64-1.49,1-3.61.49-4.91,2,2.2,5.47,2.12,5.59-2.48,9.84-1.73,1.59-2.16,3.92-2.83,6.07-3.81,1.18-7.8,1.05-11.7,1.36-13.77,1.09-27.37,3.29-41,5.44-20.27,3.2-40.57,6.19-60.81,9.55-17.65,2.93-35.22,6.32-52.84,9.39q-27.66,4.81-55.45,8.73-28.05,3.92-55.77,9.8c-14.79,3.13-29.82,4.76-44.81,6.59-22.49,2.74-45.09,4.58-67.56,7.56a139.76,139.76,0,0,1-18.19,1.07c-15.76,0-31.53.4-47.3-.38a153.89,153.89,0,0,0-21.68.37,45.59,45.59,0,0,1-10.3-.41A567.37,567.37,0,0,0-562,525.67a276.31,276.31,0,0,1-37.21-3.24c-4.85-.82-9.78-.26-14.7-1.18q-10.41-1.95-20.64-4.63c-5.72-1.5-11.64-1.87-17.33-3.48-2.43-.68-4.67.91-7.25.6-5-.59-10.16-.65-15.14-1.67-12.24-2.5-24.89-1.34-37.08-4.49-3.69-1-7.83-.24-11.76-.22a39.3,39.3,0,0,1-8.29-1c-14.78-3.09-29.75-4.94-44.68-7.13-13.67-2-27.48-1.72-41.12-3.66-10.23-1.45-20.49-2.71-30.7-4.26a82.64,82.64,0,0,1-11.5-2.67c-7.74-2.35-15.65-3.16-23.7-3.87-7-.62-13.73-3-17.61-10-2.53-4.56-5.83-8.65-8.45-13.22a82.37,82.37,0,0,1-7.67-19.59c-1.52-5.59-3.18-11.05-6.11-16a23.91,23.91,0,0,1-3.37-12.66c0-3.93-.06-7.86-.09-11.79-.31-2.61,1.55-4.24,2.91-6,4.89-6.38,10.25-12.37,15.42-18.52,3.21-3.83,4.88-3.81,8.35-.07A51.12,51.12,0,0,1-893,386c7.14,12.31,16.37,22.93,26.46,32.86,5.81,5.73,9.32,5.15,13.4-1.87a269.45,269.45,0,0,1,21.89-32.68c1.56-2,3.51-4.73,6-.65-.15,2.09-1.46,3.64-2.56,5.24-3.55,5.21-4.9,11.11-5.23,17.23-.44,8.29,3,14.45,10.49,18.5,17.79,9.56,39.32-3.58,42.46-18.35A26.46,26.46,0,0,1-779,402c4.49-7.05,8.53-14.38,13.14-21.36,1.28-1.94,2.29-4.93,5.32-4.26,2.55.56,2.91,3.33,3.45,5.54,2.7,11.16,6.49,22,9.54,33.06a30.42,30.42,0,0,0,4.34,9.32c4.23,6.13,10.27,6.11,14.27-.18s7.15-12.9,10.92-19.24c4.11-6.9,8.2-13.81,13.4-20,.85-.78,1.71-1.56,2.5-2.42a2.53,2.53,0,0,1,1.24-.63,4.37,4.37,0,0,1,2.62,1.05c3.38,4.39,4.7,9.69,6.47,14.78,2.79,8.06,5.11,16.3,10,23.46,6.07,8.89,12.68,9.2,19.19.53s13.07-17.29,17.84-27.1a11.24,11.24,0,0,1,3.48-4.7c5.69,2.26,7.68,7.42,9.85,12.47-1.87,8.84-3.93,17.68-1.48,26.74,2.55,9.39,7.55,16.31,18,17.84,4,.59,8,1.81,12.12,2,9.5.47,17.33-2.91,24.06-9.35a25.51,25.51,0,0,1,4.05-3.58,3.74,3.74,0,0,1,2.34-.63c9.18,1.58,16.07-3.11,22.89-8.15,4-2.93,7.93-5.82,11.76-8.89,1.15-.92,2.21-2,3.83-2a7,7,0,0,1,2.18,1.09c5.48,3.3,9.15,2.63,13.21-2.39a41.66,41.66,0,0,0,5.61-9.2c2.48-5.52,5.87-10.57,8.18-16.18a2.1,2.1,0,0,1,2.06-.84,36.34,36.34,0,0,0,16.91,1.44c1.62-.27,3.27-.43,4.65.81,1.41,2.24,1.06,4.76,1,7.19a63.6,63.6,0,0,0,1,14.19c-.13,2.52-2.37,3.29-3.92,4.61-1.35,1.15-3,1.95-4.31,3.14s-2.19,2.91-1,4.74,2.83,2,4.71,1.39a22.25,22.25,0,0,0,5.78-3.53,7.42,7.42,0,0,1,4.9-1.86A35.49,35.49,0,0,0-450.6,420c6.29,1.13,11.1-.45,13.61-6.93.92-2.38,2.91-4.25,3.88-6.68a22,22,0,0,1,3.41-4.71c1-1.1,2-2.84,3.95-1.22,1.14,2.32,0,4.44-.62,6.59-2.79,9.69-5.9,19.29-7.57,29.26-.3,1-.66,2-1.89,2.25a12.67,12.67,0,0,0-10.66-3.92,10.92,10.92,0,0,1-6.21-1.27c-4.85-2.7-9.23-1.28-13.37,1.57-10.69,7.34-14.88,18-15.05,30.49-.2,14.08,10.33,26.68,24,29.37,5,1,9.49-.45,14-1.94,11.23-3.72,21-9.56,26.48-20.59,6-12.08,3.85-22.17-8-29.63a8.69,8.69,0,0,1-2-1.39,4.35,4.35,0,0,1-.44-3c4.3-20.2,11-39.7,17.31-59.31.46-1.41.79-3.16,2.37-3.47,1.81-.37,2.28,1.55,2.91,2.74,2.72,5.08,7.59,6.35,12.64,7.37,3.85,3.71,6.05,8.53,8.67,13.05a118.39,118.39,0,0,0,7.77,12,18.82,18.82,0,0,0,13.65,7.8c8.84.92,13.18-4.85,17-11.12,4.82-8,8.36-16.72,12.09-25.29a70.42,70.42,0,0,1,6.32-12.23c2.66-3.84,4.53-3.72,6.83.27a34.17,34.17,0,0,1,2,4.48c6.22,15.49,12.29,16.56,26,17.11,6.38.26,12.73-1.26,18.93-2.89,2.28-.6,4.78-1.57,4.17-4.53s-3.39-2.9-5.64-2.47a124,124,0,0,1-22.53,1.83c-6.08,0-10-2.61-12.32-8-2-4.5-3.56-9.19-6.14-13.42-3.78-6.19-7.85-6.7-13.14-1.75-5,4.73-8.05,10.75-10.68,16.95q-5,11.79-10.83,23.19a39,39,0,0,1-4.1,6.71c-3.39,4.21-7.7,4.8-12.12,1.67a15.94,15.94,0,0,1-3.89-3.75,228.78,228.78,0,0,1-14.62-23.84c0-1.79,1.24-3,2.26-4.22a84.72,84.72,0,0,0,17.89-39.22,7.37,7.37,0,0,1,1.25-3.16c10.42-7.66,18.59-17.82,28.73-25.78,1.7-1.34,3.2-3.44,5.91-2.59,1.07,2.21-.72,4-.83,6.1s-.18,4.35,2,5.62a5.75,5.75,0,0,0,6-.32,10.93,10.93,0,0,0,4.32-4.54c1.2-2.39,2.13-4.86,0-7.27s-4.43-2.39-7.07-1.15c-1.17.54-2.36,1.15-3.73.76-.81-.77-.55-1.81-.74-2.74-.72-3.57-2.8-4.7-6-2.92a46.23,46.23,0,0,0-10.46,8,155.53,155.53,0,0,1-14.36,13.28c-1.27,1-2.31,3-4.5,1.57-1-1.57-1.16-3.41-1.83-5.08-3.47-8.65-10.85-12.31-19.82-9.92a21.64,21.64,0,0,0-8.34,4.1c-3,2.44-5.47,3.47-8.93.24-3.22-3-8.3-1.73-10.68,2-1.85,2.92-2.69,6.18-.86,9.32s4.19,6.48,8.78,6c2.91-.3,5.27.25,4.29,3.86-1.94,7.14-3.2,14.41-4.7,21.64a4,4,0,0,1-1,1.69c-4,2.66-6.56,6.59-9.33,10.35-3.12,2.81-7.23,3.79-10.81,5.74-11,6-21.92,11.9-32.79,18a5.21,5.21,0,0,1-3.74.89c-2.14-.88-2.77-3-3.83-4.76-.73-1.19-1.15-2.59-2.78-2.89a2.32,2.32,0,0,1,.65-3.09,16.34,16.34,0,0,0,5.26-18.45c1.08-6.22,4.25-11.66,6.89-17.23,6.75-14.28,15-27.59,26.53-38.68,2.43-2.34,4.6-4.54,8.52-2.9,2.26.94,4.14-.56,5.2-2.64,1.3-2.59,1.91-5.32.06-7.91-1.41-2-3.5-2.3-5.74-1.76-2.95.71-5.27,2.5-7.54,4.44-14.56,12.49-25.15,27.9-33.19,45.15A19.77,19.77,0,0,1-476.78,352c-5.12-2.5-10.84-2.77-16.26-3.37-5.18-.58-9.6,2.79-13.25,6.54-6.17,6.36-8.3,18.85-4.59,26.57a2.7,2.7,0,0,1-.89,3.09c-6.55,5.87-13,11.83-19.64,17.61a2.17,2.17,0,0,1-2.7.39c-3.73-5.68-6.11-12-8.07-18.39-1.74-5.65-3.33-11.33-5.77-16.72-.27-2.15,1-3.73,2-5.41,5.42-9.17,11.25-18.1,16.6-27.33,2.06-3.55,4.06-7.17,4.21-11.42.18-5.35-2.67-7.75-7.77-6.07a9.42,9.42,0,0,1-8.3-.92,6.66,6.66,0,0,0-10.12,6.32c.33,4.49-1.23,7.38-4.7,10-9.6,7.23-17.57,16.19-25.86,24.8a10.78,10.78,0,0,0-2.93,5c-.45,1.95-.09,3.66,1.81,4.63s3.46.05,4.66-1.53c9-11.85,20.11-21.53,31.64-30.77,1.89-1.52,3.65-3.35,6.2-3.86a2.22,2.22,0,0,1,2.33,1.4,3.86,3.86,0,0,1-.47,2.85c-5.69,9.73-11.2,19.59-17.88,28.71-6.49,5.35-11.71,11.84-16.78,18.48-1.32,1.73-2.28,4.18-5.23,3.7-6.23-3.95-13.36-5-20.42-6.06-4.1-.58-8,.81-11.63,3-1.78,1.11-3.54,2.39-5.84,2.18-2.1-1-2.29-3.06-2.75-4.91-1.2-4.74-2.76-9.38-4.16-14.06-1.92-6.43-5.35-7.19-10.22-2.48a31.47,31.47,0,0,0-4,5c-1.1,1.6-2.13,3.33-4.22,3.86-3.06-.07-4.44-2.48-6.08-4.45a19.06,19.06,0,0,0-4.46-4.5c-1.69-1-3.41-1.28-4.93.25a3.63,3.63,0,0,0-.22,5.29c2,2.57,4.63,4.61,6.75,7.1,1.48,1.74,3,3.49,3.38,5.88-2.2,7.33-7,13.25-10.76,19.75-2.94,5.12-6.81,9.63-10.3,14.39-2.51,3.43-4.69,3.33-7.43-.07a28.81,28.81,0,0,1-3.7-6.92c-2.7-6.34-4.72-12.93-6.88-19.47A46,46,0,0,0-695,374.29c-3.84-4.47-6.56-4.75-10.52-.32-8.13,9.08-14.57,19.37-20.52,30-1.93,3.42-3.88,6.84-5.81,10.27-1.09,1.9-2,4.7-4.71,4.36-2.45-.29-2.78-3-3.38-5-3.27-10.65-6.79-21.24-9.4-32.07a80,80,0,0,0-5-13.87c-2.85-6.36-6.63-6.8-10.88-1.35-5,6.49-9.09,13.63-13.46,20.56-.78,1.24-1.23,2.71-2.65,3.46-3.68-1.81-5.57-5.58-9-7.85-8.74-5.74-18.09-6.36-27.94-4.89-1.43-.62-1.46-2.06-1.9-3.26-2.41-6.61-5.57-7.25-10.76-2.32-4.2,4-7.52,8.71-10.89,13.33-5.31,7.29-10.34,14.8-15,22.57-3.22,5.41-5,5.75-9.09,1.16-7.78-8.68-15.15-17.67-21.14-27.74a66.13,66.13,0,0,0-10.86-14c-4.45-4.28-6.71-4.17-11.3.05s-8.6,9.47-13,14.12C-923.23,382.64-923.88,384.47-926,384.05Z"/></g><g class="cls-5"><path class="cls-3" d="M-2485.1,471.82V-232.53c1.71-.91,3.55-.46,5.32-.46q1296.27,0,2592.53,0c1.77,0,3.62-.45,5.33.46V469.85c-15.13-4.13-30.62-2.68-45.89-2.2-20.95.66-41.91,1.71-62.82,3.36-8.81.69-17.62,1.9-26.5,1.33-3.22-2.92-.63-5.53,1-7.49,2.08-2.52,4.09-4.62,3-8.21-.55-1.7.62-2.75,2-3.48a34,34,0,0,1,20-3.82,92.69,92.69,0,0,0,16.23.31c5.74-.3,7.61-2.36,7.42-8-.09-2.55.91-3.8,3.1-4.9,5.62-2.82,6.09-6.22,1.71-10.69-4.17-4.24-9.59-6.22-15-8.18a20.46,20.46,0,0,0-5.21-1.45c-8.64-.63-10.93-7.88-14.39-13.77-1.49-2.55.25-3.56,2.79-3.35,2.85.23,6.63,1.67,7.43-2.36.84-4.19-3.19-5.42-6.25-6.26a72.62,72.62,0,0,1-20-9.18c-1.66-1.06-3.44-2-4.65-3.57-3-4-7.21-6.12-11.79-7.67a153.69,153.69,0,0,0-20.39-5.67,12.56,12.56,0,0,1-8.06-5,51,51,0,0,0-24.85-17.67c-21.72-7.23-43.92-12.38-66.36-16.67-5.48-1-10.93-2.28-16.35-3.62-1.2-.29-2.84-.52-2.9-2.15s1.39-2.07,2.65-2.49a22,22,0,0,0,4.6-1.72c1.89-1.15,3.57-2.54,3.27-5-.26-2.21-1.86-3.46-3.81-4.1a40.13,40.13,0,0,0-13-2.39,16.3,16.3,0,0,1-12.46-4.89c-2.38-2.43-5.22-3.1-8.49-3.07-9.69.08-19.38,0-29.07.06-3.67,0-6.64-.71-8.84-4.08-2.38-3.64-6.55-4.72-10.42-6.13-1.33-.49-3.38-.86-3.18-2.55s2.25-1.56,3.67-1.68c4-.34,7.85.38,11.77.71,3.32.28,7.88,1.09,8.56-3.42s-3.91-5-7.17-5.66c-12.89-2.61-26-3.5-39.07-4.75-3.46-.34-6-.92-6.44-5.08-.37-3.26-3.23-4.26-6.08-4.88a189.58,189.58,0,0,0-29.25-3.88c-4.61-.28-8.42-.92-10.47-6.22-1.66-4.28-7.22-5.52-9.75-9.47a27.8,27.8,0,0,0-2.48-1.83,1.22,1.22,0,0,1-.4-1.41c1.92-2.11,4.5-1.21,6.82-1.52,11.32.5,22.49,2.54,33.76,3.52,3.76.33,7.53.49,11.28,1,2.44.35,4.75-.36,5.52-3,.82-2.87-1.25-4.24-3.49-5.1-7.42-2.84-15.28-3.8-23-5.12-6-1-11.62-2.25-16.93-5.88-7-4.8-15.71-5.61-23.95-7-21.54-3.6-43.27-5.75-65-8.27-16.79-2-33.65-3.08-50.46-4.72-2.29-.22-4.59-.13-6.89-.18-2-.05-4.17.08-5.72-1.16-8.05-6.46-17.94-6.94-27.43-8.39-21.41-3.28-42.92-5.84-64.55-7.29-.65,0-1.3-.14-2-.23-9.24-1.32-9.27-1.39-4.16-9-1,1.11-2,2.13-3.09,3.17-5.94,5.89-12.79,6.06-19,.23-5.61-5.28-11.24-10.56-16.79-15.9-16.54-15.94-33.1-31.85-50.3-47.08a163.41,163.41,0,0,0-17.81-14c-3.29-2.19-6.69-3.51-10.66-2-2.09.78-3.8,0-5.48-1.22a83.19,83.19,0,0,1-9.89-8.86,31.6,31.6,0,0,0-6.52-5.23c-4.77-2.82-6.53-2.46-9.44,2.42-1,1.66-2.08,2.4-3.94,2.11A8.7,8.7,0,0,0-729.83,88c-2.71,1.86-4.65,0-6.68-1.39-6.06-5.75-11.6-12-17.17-18.22A81.38,81.38,0,0,0-763,59c-2.15-1.72-4.75-3.67-7.47-1.16-2.54,2.34-1.54,5.11,0,7.63,4.36,7.14,8.55,14.38,13.63,21A17.6,17.6,0,0,1-755,89.47a22.67,22.67,0,0,0,1.24,2.7c.23.29.44.59.66.88s.47.54.7.82c.13.13.25.27.37.4a5.51,5.51,0,0,1,.68.85,2.93,2.93,0,0,1,.36,1,1.81,1.81,0,0,1-.66,1.44,1.56,1.56,0,0,1-1.06.12,4.34,4.34,0,0,1-.92-.58c-.14-.12-.27-.25-.41-.36s-.52-.5-.77-.75-.26-.26-.39-.38-.54-.5-.81-.76l-.43-.37-.92-.72c-.17-.12-.32-.25-.5-.36a9.82,9.82,0,0,1-1-.81C-771.39,80-783.26,66.89-795,53.67a20.79,20.79,0,0,0-5.46-4.17c-2-1.11-4.09-1.43-6,.12s-1.87,3.65-1.1,5.83c.61,1.7,1.52,3.28,2.05,5,.24.8.41,1.72-.3,2.28-1,.8-1.91,0-2.52-.72-2.94-3.55-6.45-6.54-9.45-10-7.16-8.33-14.8-16.24-21.94-24.59A35,35,0,0,0-844,23.26c-4.26-3.53-6.73-2.6-8,3a8.53,8.53,0,0,0,.13,2.31c.13.34.24.69.36,1,.21.49.42,1,.64,1.49a3.29,3.29,0,0,1,.26,1.08,1.81,1.81,0,0,1-.77,1.44,1.69,1.69,0,0,1-1.13,0,5.9,5.9,0,0,1-1-.64c-.16-.12-.3-.26-.46-.38l-.94-.73c-.18-.1-.34-.22-.52-.33-.38-.2-.74-.42-1.12-.63-2.2-1.16-4.52-2.33-6.68-.22s-.78,4.46.3,6.63c.65,1.29,1.52,2.49,1.38,4.05A1.5,1.5,0,0,1-863,42.61c-5.25-2.79-8.16-8-11.87-12.19C-885.11,18.76-895.29,7.05-905-5a23.34,23.34,0,0,0-4.48-4.51,4,4,0,0,0-5-.18c-1.69,1.29-1.66,3.12-.92,4.89,1.53,3.62,3.83,6.84,5.56,10.35.29.74.47,1.53.73,2.29.15.32.28.67.41,1s.31.63.46.94l.56.88a8.32,8.32,0,0,1,.59.87,2.7,2.7,0,0,1,.29,1,1.72,1.72,0,0,1-.72,1.38,1.61,1.61,0,0,1-1.06.05,4.81,4.81,0,0,1-.9-.59l-.4-.36c-.27-.23-.52-.48-.77-.73s-.25-.25-.39-.37-.54-.46-.82-.69l-.45-.33c-.32-.2-.62-.43-.92-.66-.48-.37-.92-.78-1.37-1.18-1.44-1.27-3.17-1.05-4.86-.94-.36.11-.72.21-1.07.34s-.59.37-.87.59c-.11.13-.24.24-.35.37a7.31,7.31,0,0,0-.73,1.35c-.12.36-.24.71-.35,1.08a5.11,5.11,0,0,0,0,1.7c.11.34.19.69.3,1s.35.94.56,1.4a7,7,0,0,1,.43.87c.2.44.39.88.62,1.3a6,6,0,0,1,.45.87c.22.45.43.9.65,1.36a3,3,0,0,1,.23,1,1.76,1.76,0,0,1-.76,1.39,1.57,1.57,0,0,1-1.09,0,3.56,3.56,0,0,1-.9-.68,6.38,6.38,0,0,1-.67-.88c-.3-.44-.58-.9-.9-1.33-.23-.26-.44-.54-.66-.81s-.46-.51-.69-.77-.24-.26-.36-.39-.49-.52-.72-.79-.47-.56-.7-.85a13,13,0,0,0-1.8-1.52C-933,10.3-936.2,5.14-939.83.31a34,34,0,0,0-4-4.94c-2.56-2.34-5.2-3-7.52.18-2.08,2.85-3.66,1.91-5.32-.32-4.86-6.59-9.37-13.4-13.71-20.34-1.55-2.47-3.2-6.47-7-4.08-3.35,2.1-1.48,5.46,0,8.29,2.91,5.64,7,10.69,8.64,17-.17,2-1.22,2.5-3,1.78-4.83-4.34-7.74-10.08-11.22-15.41A65.3,65.3,0,0,0-987.48-24c-1.36-1.61-3.07-2.68-5.18-1.62-2.35,1.18-2.4,3.35-1.69,5.54s1.79,4.57,2.65,6.87c.27.76.45,1.54.71,2.3.15.35.28.7.41,1.05l.65,1.52a3.74,3.74,0,0,1,.28,1.08,1.83,1.83,0,0,1-.75,1.47,1.66,1.66,0,0,1-1.14,0,4.43,4.43,0,0,1-.94-.72,8.39,8.39,0,0,1-.74-.93,9.22,9.22,0,0,0-2.21-2.06c-3.81-3.88-6.61-8.55-10-12.74-2.38-2.93-5-4.27-8.33-1.41-1.31,1.15-.68,3.62-2.85,4.19-3.8-1.61-4.44-5.68-6.62-8.54-1.82-2.37-3.08-5.48-7-4.73a4,4,0,0,0-2.45,2.66c-.41,1.1-1,2-2.46,1.37a4.13,4.13,0,0,1-1-.86c-.57-.73-1.08-1.5-1.63-2.24A89.35,89.35,0,0,1-1043.3-40c-2.56-4.64-7-5.69-11.57-6.41-3.36-.53-5.87,2.23-5.64,5.8.19,3,1.45,5.68,2.76,8.34,8.84,17.94,19,35.13,29,52.45,2.86,5,5.75,9.91,8.3,15.06,1.55,3.12,3,6.17,2.2,9.82a6.47,6.47,0,0,0,.93,4.26c6.44,12.34,10.34,25.87,17.64,37.82.84,1.37,2.27,3.09.05,4.66-4.19-1.44-7.18-4.68-10.07-7.65-15.71-16.1-34.6-26.91-55.56-34.55-27.47-10-54.85-20.46-83.11-27.92-27-7.12-54.08-14-81.31-20.11q-31-7-61.94-14.27c-14.07-3.29-27.79-8-42.17-10-20.82-2.91-41.54-6.56-62.41-9.11-6.48-.8-13.07-1.08-19.62-1.45-48.74-2.79-97.52-1.62-146.29-1.88-36-.19-71.79,2.94-107.41,8.33-34.8,5.27-69.18,12.47-103.28,21.13a376.45,376.45,0,0,1-63.18,10c-28.36,2.23-56.53,5.74-84.11,13-18.81,5-36.68,12.54-54.6,19.91A747.68,747.68,0,0,0-2054,75.64c-3.3,1.84-6.68,3.53-10.09,5.15a185,185,0,0,0-30.33,18.29c-15.84,11.71-31,24.32-47.59,35a101.24,101.24,0,0,0-18.29,15.7c-5.87,6.21-12.27,11.86-18.6,17.59-19,17.18-33.52,38.21-49.56,57.93a124,124,0,0,0-16,25.91c-2.71,5.82-5.4,11.68-6.88,17.9-3.79,15.85-9,31.22-14.63,46.48-5.2,14.09-8,28.74-10.52,43.49-1.18,6.95-1.5,7.32-8.61,6.68-9.49-.86-18.76-3.3-28.23-4.39-2-.22-3.91-.42-5.88-.54-4-.23-6.37,1.3-8.73,4.84-7.19,10.8-14,21.8-20.86,32.81-7.49,12-11.31,25.44-15.46,38.76-1.9,6.11-3.77,12.24-5.12,18.5-.87,4.05-3.2,5.7-7.32,5.62-9.52-.21-19-.38-28.49-1.44-17.59-2-35.1-.61-52,5.51-7.73,2.81-15.85,4.29-23.66,6.82C-2482.33,472.75-2483.81,472.94-2485.1,471.82Z"/><path d="M-1824.38,638.34q1,21.84,1.9,43.69c.1,2.3.19,4.56-1.37,6.58-2.48,3.19-7.5,4-12.11,1.56s-8.76-5.15-13.16-7.69c-3.83-2.21-7.72-4.34-11.57-6.52-1.63-.93-2.83-.7-4.33.62a81.35,81.35,0,0,1-12.19,9.15c-3.68,2.19-7.6,2.65-11.83,2.42a36.16,36.16,0,0,1-19.13-6.91,1.68,1.68,0,0,0-2.54.15c-1.71,1.68-4,2.29-6.16,2.93-3.84,1.09-7.15,3.26-10.71,4.92A112,112,0,0,1-1940,694c-1.76.58-2.7,1.28-3.09,3.18-1.79,8.84-3.79,17.64-5.6,26.48a80.77,80.77,0,0,1-5,15.88c-.85,2-1.6,4-2.36,5.94a9,9,0,0,1-7.62,6.13c-11,1.55-22.07,3.22-33.11,4.73a18.7,18.7,0,0,1-7.85-.22c-15.75-4.66-31.89-3.65-48-3.39-12,.18-24,.69-35.94,1.18-11.19.45-22.28-1.52-33.47-1.19-8.1.24-16,.79-23.75,3.52a41.31,41.31,0,0,1-15,2.22,73,73,0,0,0-20.5,2.3,28.75,28.75,0,0,1-7.31.89,71.61,71.61,0,0,0-12.21,1.41,84,84,0,0,1-30.86,0,11.45,11.45,0,0,0-2.42-.41c-12.17.32-24.27-1.08-36.41-1.32a10.81,10.81,0,0,0-4.28.9,4.81,4.81,0,0,0-3.48,4.72c-.36,7.21-.93,14.41-1.44,21.61-2.23,31.76-3.59,63.56-4.58,95.39-.4,12.62-.13,25.27-1.41,37.87-.89,8.65-1.19,17.35-2.85,25.92a33.09,33.09,0,0,0-.45,6.37c.1,28.72,1.49,57.42,1.11,86.14h-14.79c-1.69-1.91-1.45-4.27-1.48-6.56-.38-24.94,1-49.86,1.28-74.79a349.81,349.81,0,0,1,3.24-41.17c1.1-8.44,1-17.05,1.16-25.53.24-20,1.59-40,2.45-60,1.32-30.77,1.93-61.59,5.23-92.29,1.49-13.95,2-28.11,2.63-42.21,1.43-33.64.25-67.27.75-100.9.09-6.26,1.05-12.42,1.59-18.63.39-4.43-.23-5.32-4.74-5.32a51.3,51.3,0,0,1-24.94-6.63,83.16,83.16,0,0,0-13.73-5.45c-15.65-5.18-27.38-14.74-35.28-29.49a123,123,0,0,1-13.09-38.43,42.32,42.32,0,0,1,.71-16.13c.66-3,.15-5.52-3.61-5.28-12.86.81-25.52-1.65-38.31-2.11-10.33-.36-20.26,2.07-30.1,4.56-6.33,1.61-12.47,4-18.88,5.49-4.62,1.08-9.23,2.41-12.8,5.95a4.16,4.16,0,0,1-4.5,1.26V471.82c2.56.2,4.74-1.14,7-1.86,8.13-2.54,16.38-4.68,24.54-7.15,16.46-5,33.43-6.88,50.61-4,9.48,1.6,19,.59,28.52,1.16,2.19.13,2.82-1.13,3.21-2.88,2.32-10.6,6.12-20.76,9-31.18,3.55-12.84,9.7-24.36,16.61-35.54,5.08-8.23,9.7-16.78,15.95-24.25a3,3,0,0,0,.8-1.22c.85-5.3,4.51-5.51,8.84-5.37,10.07.33,19.82,2.72,29.7,4.27,2.61.4,5.21.54,7.82.86,3.45.41,3.59.42,4-2.8A273,273,0,0,1-2262,300.2a163.43,163.43,0,0,0,7-23.06c4.58-20,13.63-37.89,26.31-54,8.74-11.09,18-21.79,26.41-33.12a95.18,95.18,0,0,1,9.75-11.09c13.75-13.42,27.43-26.92,41.73-39.77a73,73,0,0,1,9.73-7.53c12.69-8,24.33-17.33,36.13-26.5a283.71,283.71,0,0,1,42-26.54c20.91-11.07,41.93-21.89,63.38-31.82,30.41-14.08,61.18-27.35,94.18-34.34A451.74,451.74,0,0,1-1843,3.67a473.85,473.85,0,0,0,87.74-14.93,754.73,754.73,0,0,1,83.53-16.51c15.92-2.32,31.83-4.67,47.84-6.31,5.72-.58,11.46-.92,17.2-1.19,21.83-1,43.66-1.66,65.53-1.26,22.18.41,44.37.34,66.55.27,25.48-.09,50.91,1.16,76.31,2.85,9.81.66,19.56,2.38,29.27,4,15.88,2.58,31.85,4.56,47.64,7.68,9.52,1.87,18.66,5.18,28.12,7.26,17,3.73,33.71,8.65,50.81,11.93,21.62,4.14,42.69,10.52,64.07,15.66,7.82,1.88,15.64,3.73,23.5,5.43a171.19,171.19,0,0,1,22.77,6.28c23.75,8.68,48.05,15.77,71.55,25.12,18.47,7.34,35.6,16.84,49.66,31.23a98.55,98.55,0,0,0,11.89,10.27c5.36,2.85,9.08,7.5,12.75,12.06,7,8.71,13.29,17.9,17.45,28.43,2.47,6.27,6.35,11.84,10,17.5,8.69,13.47,14.36,27.9,14.5,44.23.06,6.9,2.05,13.61,2.89,20.45,1.22,10,1,20,.92,30,0,4.77,1,8.14,6.41,9.42,4.43,1.06,5.68,5.2,6.19,9.23,3.05,23.91,6,47.83,5.2,72-.48,15.23-2.16,30.41-2,45.66,0,1.32,0,2.63.07,3.94.61,5.75-1.4,11.37-.8,17.12-.25,12.55,4.27,23.78,8.38,35.43,4.57,12.93,9.15,25.47,17.28,36.72,4.05,5.6,9.16,8.67,15.44,9.3,10.34,1,20.34,3.38,30.46,5.53A331.17,331.17,0,0,0-805.18,495c15.4.93,30.68,2.81,46,4.93,15.08,2.08,29.91,5.45,45.28,6.37a432.93,432.93,0,0,1,43.52,4.76,98.44,98.44,0,0,0,16.2.93c8.8,0,17.26,2.39,25.63,4.66,13.58,3.7,27.54,4.44,41.39,5.77,28.56,2.75,57.39,2.33,85.83,6.77,5,.78,9.82-.53,14.73-.77,9.72-.47,19.35.82,29,1.08,26,.67,51.81-1.47,77.61-4.66s52.05-4.82,77.71-9.75c59-11.34,118.68-19.26,177.83-30.12,29.05-5.34,58.3-9.91,87.69-13.22,6.27-.71,12.63-2.59,19-.65,13.78-.31,27.48-2,41.24-2.66,8.69-.44,17.39-.74,26.06-1.35,18.7-1.31,37.41-1,56.12-1,4.52,0,8.85.54,12.37,3.78v3c-2.81,5-7.8,5.1-12.5,5.2-12,.23-24-.13-36,.12q-28.54.58-57,2.76c-18.82,1.43-37.68,2.36-56.39,4.85-20.51,2.74-40.91,6.33-61.39,9.3-41,5.94-81.44,15-122.47,20.6a63.48,63.48,0,0,0-8.13,2c-3.47,1-3.33,2.71-1.12,4.81,17.79,16.87,31.81,37.06,48.5,54.95,10.58,11.34,19.83,24.08,26.16,38.57a15.54,15.54,0,0,1,.78,10.52c-10.58,41.83-27.14,81.53-43.46,121.31-6.3,15.35-11.65,31-17.4,46.59s-12.22,30.46-21.36,44.24a36.63,36.63,0,0,0-4,6.76c-4.25,11-13.3,13.8-23.88,14.92-25.61,2.71-51.4,3.79-76.82,7.92-13.2,2.15-26.39,2.34-39.64,3-14.24.7-28.36,2.83-42.66,3.37-7.69.29-15.43,2.45-23.33,2.79-7.08.3-10.35-1.1-12.55-8.11a160.57,160.57,0,0,1-6.3-26.8c-.67-5-1.12-10.18-2.94-15-4.46-11.69-7.13-23.87-9.9-36a4.11,4.11,0,0,0-3-3.45c-10.43-3-19.83-8.71-30.39-11.49-3.58-.94-4.85-.21-6,3.18a315.11,315.11,0,0,1-31.08,64.07A592.23,592.23,0,0,1-602.72,908a292,292,0,0,1-24,25.36c-10.4,9.85-18.54,21.71-27.35,32.94-10.53,13.42-21.32,26.67-30.83,40.88-5.75,8.59-11.45,17.22-18.27,25a59.15,59.15,0,0,1-8,8H-721c-1.22-1.61-.16-2.87.83-3.9,17.41-18.08,29.86-39.91,45.24-59.53,9.92-12.66,19.14-25.85,29.42-38.24,6.29-7.58,13.18-14.6,20.08-21.61,16.52-16.8,30.6-35.58,43.82-55,15.07-22.13,29.25-44.87,39-69.94,8.2-21.15,14.49-42.85,16.73-65.6.78-7.88.5-15.73,1-23.58.28-4.42-3-3.89-5.51-4.56-3-.8-4.17.84-4.71,3.47-2.7,13.19-6.33,26.15-9.84,39.14a411,411,0,0,1-29.08,77.26c-2.13,4.26-4.8,8.22-7.23,12.32-17.54,29.58-37.93,57.17-59.92,83.52-13.79,16.52-31,29.18-50,39.38-11,5.9-21.69,12.27-33,17.66a107.59,107.59,0,0,0-21.68,14.36c-9,7.39-18.61,14-27.11,22-10.14,9.6-20.49,18.93-29.08,30a31.62,31.62,0,0,1-2.74,2.81H-816.7c-1.44-2.09,0-3.8.89-5.45a64.13,64.13,0,0,1,10.74-15.25c11-11.43,21.61-23.39,35.31-31.92,3-1.89,5.25-4.82,8.46-8-8.2-.52-15.57.32-22.78-1.22-10.46-2.23-20.82-4.59-29.92-10.71-11.81-7.93-16.59-26.79-6.14-39,6.68-7.8,13.93-14.74,23.63-18.81,6.2-2.6,12.15-5.81,18.1-9,12.45-6.61,25.73-10.64,39.53-13.23,4.73-.89,9.56.18,14.23-.9,28.6-6.64,55.48-16.8,78.07-36.48,20.28-17.67,38-37.21,48.84-62.17,2-4.51,4.33-8.84,6.58-13.22a19.64,19.64,0,0,0,1.1-2.37,10.49,10.49,0,0,1,.42-1.14,16.6,16.6,0,0,1,.77-1.59c.16-.35.36-.69.55-1,.26-.52.5-1.05.72-1.6.12-.38.27-.76.41-1.13a44.42,44.42,0,0,1,2.54-5.78c.89-2.07,1.94-4.07,2.65-6.21a5.11,5.11,0,0,1,.42-1.19,13.21,13.21,0,0,0,.65-1.76,8.14,8.14,0,0,1,.49-1.18c.29-.59.54-1.2.81-1.8,3.54-7.11,6.06-14.63,8.89-22a24.29,24.29,0,0,0,2.2-5.17c1.5-4.25,3.56-8.27,4.85-12.6,1.51-3.55,2.13-7.44,3.49-10.31-1.54,2.78-1.95,6.74-3.56,10.24-1.12,4.14-3.21,7.91-4.58,12a23,23,0,0,1-2.2,5.22c-3.28,7.54-5.61,15.47-9.53,22.73-.26.87-.78,1.63-1,2.53a7,7,0,0,1-.59,1.89c-.46,2.38-1.88,4.38-2.58,6.67-.81,1.41-1.54,2.88-2.47,4.22-.18.32-.39.63-.6.94s-.57.89-.82,1.36c-.14.3-.31.6-.48.89s-.47.88-.68,1.34a10.4,10.4,0,0,1-.46,1c-.23.51-.45,1-.67,1.54a12.24,12.24,0,0,1-.52,1.17,20.57,20.57,0,0,1-1.4,2.51c-2,2.69-3,5.86-4.49,8.75-2.81,5.31-6.9,7.89-13.2,8.71-15.91,2.06-31.42-1.18-47.07-2.39-4.65-.36-7-4.79-5.77-10.58,1.08-5.13,3.06-10,4.47-15.09,1.57-5.68,1.4-6.32-4.31-7.16-15.42-2.26-30.8-4.88-46.43-5.39a24.46,24.46,0,0,1-6.3-1c-8-2.43-16.28-1.76-24.45-2.27-2.22-.14-3.26,1.34-4,3.06-8,19.68-23.61,26.1-43.54,24.76a51.2,51.2,0,0,1-28.95-11.19c-3.8-3-5.72-7.13-6.75-11.71-.72-3.21-2.47-4.78-5.85-4.63-9.51.42-19,1.7-28.45,2.17-2.06.1-3.2,1.5-4,3.18a24.45,24.45,0,0,1-11.21,11.36c-3.39,1.68-3.78,4.61-3.77,7.87,0,17.39-.08,34.78,0,52.17a174.34,174.34,0,0,1-1.71,28c-1.88,12-1.28,24.2-2.08,36.3-.63,9.53-2.55,18.83-3.33,28.32-1.23,14.93-.47,29.84-.81,44.75-.54,23.76-1.67,47.49-2,71.26,0,2.5-.43,4.91-2.38,6.76h-142c-2.4-4.52-2.37-9.54-2.39-14.37,0-17.26-1.83-34.38-3.74-51.5a75.27,75.27,0,0,1-.3-8.36c0-49.24.33-98.49-.13-147.73-.27-29.35-2.08-58.68-2-88,0-9.75,1.51-19.3,2.42-28.92,2.08-22,2.92-44.16,4.9-66.17,2.38-26.42,4.48-53,11.39-78.78,5.49-20.48,15.26-39,27-56.6,7.18-10.73,15.25-21,19.78-33.36a146.15,146.15,0,0,0,8.32-42.85c.71-13.23-.07-26.58-.1-39.85,0-10.45-2.64-20.43-3.2-30.73-.46-8.33-1.45-16.64-1.45-25,0-9.34-2.67-18.5-2-27.94.35-4.9,0-9.83,1.35-14.66.55-2,.5-4.18-1.8-5s-3.55,1.12-4.62,2.76a13,13,0,0,0-1.7,7.09c-.29,16.91.6,33.77,1.76,50.63.06,1,.19,2,.16,3-.59,21,1.67,42,1,63-.19,5.91.93,11.71.74,17.67-.5,15.19-8.74,27.27-15,40.19-3.74,7.73-9.39,14.24-13.71,21.6-1.69,2.89-5.07,4.15-7.17,6.69-8.82,10.64-16.82,21.81-22.68,34.42-7.2,15.5-9.14,32-10.25,48.79-1.13,17.21,0,34.49-1.17,51.64-1.38,19.62-2.71,39.24-3.5,58.89-.6,14.93.13,29.88-.25,44.81-.72,28.73,2.43,57.34,2.35,86.08,0,16,2.34,32.08,1.53,48.15-.87,17-1.88,34.09-1.63,51.11.2,13.6.59,27.21.8,40.83a353.41,353.41,0,0,1-3.38,51.5c-1.06,8-.35,16.07-.61,24.1-.08,2.43.31,5-1.49,7H-1075a179.76,179.76,0,0,1,1.36-34.86c1.7-12.36,3.33-24.68,2.84-37.24-.64-16.28,1.11-32.44,3.13-48.58,2.46-19.71,4-39.47,3.59-59.4-.37-16.57.27-33.16,0-49.74-.13-9.66.55-19.34-.85-29a43.13,43.13,0,0,1,.28-11.78,72.66,72.66,0,0,0,.48-8.35c.06-3.5,0-3.6-3.51-3.6-9.86,0-19.73-.17-29.57.19-14.47.52-28.92.37-43.37,0-20.56-.61-41.07.47-61.59,1.22-9.85.36-19.72.17-29.52,1.52-30.5,4.21-61.23,5.41-91.94,5-30.06-.36-60.14-.36-90.2-1.24-19.21-.56-38.42-1.22-57.63-1.84-10.2-.33-20.36.61-30.53,1.11a519.63,519.63,0,0,1-54.69.18c-.65,0-1.31,0-2,0q-52.24-.25-104.51-.54c-13.36-.09-26.56,1.54-39.7,3.67a128.26,128.26,0,0,1-38.28.18c-6.3-.87-12.42-3-18.59-4.73a8.56,8.56,0,0,1-5.53-4.59c-3.8-7.63-9.09-14.44-12.47-22.31a40.68,40.68,0,0,1-2.07-4.46c-2.18-7.67-6.2-14.4-10-21.34-3.28-6-5.6-12.57-8-19s-4.43-13-6.62-19.58c-1.92-5.73-5.72-10.31-9.43-14.87-3.89-4.77-7.26-9.73-8.66-15.81-.5-2.14-2.2-3.86-2.15-5.75A18.41,18.41,0,0,1-1824.38,638.34Z"/><path class="cls-4" d="M-926,384.05a74.47,74.47,0,0,1-.19-16.21c2.09-23.74,2.77-47.47.64-71.25-.84-9.31-1.47-18.63-3.48-27.8-.45-2.06-.22-4.25-.4-6.37-.46-5.37-2-7.11-7.29-8.34-4.51-1.05-4.73-1.2-4.85-5.86-.24-9.68-.08-19.36-.86-29-.37-4.59-1-9.12-1.78-13.65a74.91,74.91,0,0,1-1.63-13.17c0-13.35-4.7-25.34-10.85-36.87a83.43,83.43,0,0,0-5-7.93,117.6,117.6,0,0,1-10.48-19.46c-5.31-12-13.21-22.25-22.23-31.68-1.59-1.66-3.14-3.35-4.71-5-.56-2.46-2.21-4.37-3.33-6.55a219,219,0,0,1-10.75-23.73c-1.42-3.82-3.55-7.38-5.39-11-1-2-1.93-4-1-6.1s.07-3.77-.76-5.56c-3.6-7.76-8.22-14.94-12.41-22.36-8.71-15.41-17.73-30.66-25.67-46.51a34.08,34.08,0,0,1-3.47-9.16c-1-5.8,3-9.13,8.78-8a16.72,16.72,0,0,1,12.35,9.32c1.19,2.33,2.68,4.5,4,6.75.66.44.41,1.41,1.06,1.87h0c2.61,3.27,4.25,7.16,6.66,10.55.59.62.62,1.53,1.13,2.18.7,1,1.26,2,2,3a6.53,6.53,0,0,1,.72,1.57.79.79,0,0,0,.64.61s-.07.41-.07.41a3.39,3.39,0,0,0,0-.44,2.06,2.06,0,0,1-.66-.8,3.82,3.82,0,0,0-.78-1.59c-.63-1.06-1.36-2-2-3.07a6.76,6.76,0,0,0-1.22-2.35c-.82-1.61-2-3-2.84-4.57-2-3.49-2.11-6.79,1.31-9.57,3.11-1.9,5,.22,6.61,2.27a80,80,0,0,1,4.45,7.06l2.84,4.59c3.51,3.14,4.77,7.75,7.51,11.39,1.51,2.65,3.28,5.14,5,8.39-1.76-3.6-3.87-6.24-5.38-9.26-2.52-4.28-6.16-8.09-5.68-13.62.06-.65,0-1.29.66-1.7,4.24-3.15,6.65-2.89,9.88,1.21,3.53,4.49,7,9,10.47,13.57,1,.75,1.35,2,2.14,2.87h0a4.44,4.44,0,0,1,.93,1v0c2.16,1.27,3.34,3.41,4.74,5.35a57,57,0,0,0,3.85,5.87,5.86,5.86,0,0,1,1.05,2c.12.09,0,.6.42.23-.28.12-.45,0-.52-.39a4.62,4.62,0,0,0-1.06-2.06C-984.49,3.1-985.52.65-987-1.52c-1.31-2-2.8-4-3.15-6.48v0c-.69-.47-.5-1.41-1-2v0c-.64-.5-.43-1.45-1-2-1.13-2.54-2.35-5-3.35-7.64-1.3-3.35-.6-5.95,1.79-7.37s5.34-.71,7.55,2.44c5,7.09,9.2,14.71,14.62,21.51C-967.83.1-965.73,4.43-963,8.28a14.61,14.61,0,0,1,2,3c-.46-1.47-1.53-2.31-2.12-3.46-2.54-3.74-5.19-7.43-6.36-11.9-3-5.46-6-10.94-9.06-16.37a11.65,11.65,0,0,1-2-6.47A4.42,4.42,0,0,1-977.59-31a4.47,4.47,0,0,1,5,.82,16.63,16.63,0,0,1,3.44,4.77,224.14,224.14,0,0,0,13.44,20c.54.74.84,1.84,2,1.94,1-.3.8-1.32,1.24-1.95,2-2.91,5.28-3.51,8.08-1.36a24.39,24.39,0,0,1,4.58,5.13c4.06,5.55,7.78,11.36,12.37,16.51.84.32.59,1.37,1.25,1.82l0,0c.3.35.59.7.89,1h0a3,3,0,0,1,1,1.05h0c.93.79,1.33,2,2.07,2.89h0a3.74,3.74,0,0,1,.93,1.05l0,.05a11.84,11.84,0,0,1,3.7,3.82c.24.36.48.73.75,1.08l.39.52c.25.36.51.71.8,1l.45.49c1,.91,1,2.56,2.83,3.4-1.73-1-1.81-2.59-2.79-3.56-.26-.32-.51-.66-.75-1s-.39-.7-.57-1.07-.36-.7-.53-1.06a14,14,0,0,0-1.27-2c-1-1.12-1.08-2.64-1.81-3.87v0c-.73-.45-.54-1.39-1-2l0,0c-.67-.48-.48-1.42-1-2l0,0c-.62-.53-.48-1.43-1-2l0,0a3.35,3.35,0,0,1,0-3.88h0c.55-.54.36-1.47,1-2h0a3,3,0,0,1,1-1l0,0c2.77-1,5.42-1.09,7.79,1l1,.89a13.4,13.4,0,0,1,1,1h0c.33.32.66.64,1,1h0c.33.32.66.64,1,1h0a6.11,6.11,0,0,1,1,1v0c1.94.48,2.75,2.18,3.86,3.55.92,1.5,2.21,2.74,2.53,3.35-.53-.9-1.91-2.51-3-4.3-1.3-1.27-1.64-3-2.39-4.59v0a9.07,9.07,0,0,1-.85-1.11l0,0c-.72-.44-.51-1.4-1.07-1.93h0c-.62-.47-.37-1.45-1.07-1.88q-2.62-4.71-5.26-9.43c-2.29-4.12-2.18-7.06.33-8.77s5.51-1,8.55,2.46C-903.1-4.67-899.64-.3-896,3.92q16.46,19.21,33,38.38c1.65.53,2.12,2.24,3.21,3.33-1.18-1.22-1.55-2.84-2.16-4.33-1-1.82-2.09-3.62-3-5.48a5.18,5.18,0,0,1,.73-6.27c1.52-1.65,4.16-1.91,6.73-.67a20.62,20.62,0,0,1,2.4,1.62,9,9,0,0,0,1,.94l0,0a6.23,6.23,0,0,0,1,.95l0,0a5.13,5.13,0,0,0,1,1h0a15.51,15.51,0,0,1,1.78.87c-.36-.43-.11-1.79-.77-2.84h0c-.65-.49-.45-1.42-1-2h0c-.6-.54-.41-1.45-1-2a18.18,18.18,0,0,1,.07-3.91,4.89,4.89,0,0,1,6.52-3.46,12.14,12.14,0,0,1,5.08,3.78c7.94,8.75,15.83,17.53,23.76,26.28A139.39,139.39,0,0,0-806,62c-.92-2-1.93-4-2.73-6.08-1.29-3.33-.79-5.82,1.34-7.6,2-1.63,5.06-1.71,7.81.14a29.13,29.13,0,0,1,5.67,4.69C-782,66.5-770,79.77-757.46,92.52a4,4,0,0,0,.93,1l0,0a4.7,4.7,0,0,0,.93,1l0,0a6.56,6.56,0,0,0,.94,1l0,0a7.26,7.26,0,0,0,1,1l0,0a10.87,10.87,0,0,0,.95,1h0c3.53,1.46,5.09,5,7.74,7.36,2.9,3.77,6.35,7,9.47,10.61a7.24,7.24,0,0,0,1.18,1.41.75.75,0,0,0,.74.44,1.11,1.11,0,0,1-.76-.46,7.33,7.33,0,0,1-1.16-1.44c-3.36-3.77-7-7.32-10-11.35-2.34-2.63-5.18-4.89-6.31-8.42l0-.06a4.76,4.76,0,0,0-.87-1h0a6.21,6.21,0,0,1-.91-1.07h0c-.89-.81-1.26-2-2.07-2.87-5.57-7.88-10.93-15.88-15.79-24.21-1-1.71-2-3.37-2-5.44,0-4.16,3.44-6.62,7.32-5.16A15.67,15.67,0,0,1-760.11,60q9.86,10.57,19.7,21.18c1.45,1.55,3,3,4.44,4.57,1.72.59,1.88,5.39,5.12,1.89,2.5-3.77,5.92-2.55,9.19-1.62,1-1,.65-2.25,1.12-3.29,1.5-3.29,4.21-4.54,7.66-3.3a25.49,25.49,0,0,1,8.57,5.67q5.76,5.37,11.51,10.75c1.09,1,2,2.13,3.76.82,3.06-2.31,6.2-1.41,9.24.19,5,2.63,9.28,6.2,13.61,9.7,9.33,7.53,18.12,15.67,26.83,23.88,16,15.09,32,30.2,47.72,45.57,3.42,3.34,7.32,3.21,11.29,3.74,1.66.22,2.55-1.3,3.59-2.3a101.48,101.48,0,0,1,8.77-7.85c-.24,4.23-3.72,6.56-5.73,10.27,3.06.39,5.88.93,8.72,1.11,17,1.05,34,3.19,50.87,5.27,10.08,1.24,20.15,2.7,30.07,4.93,3.64.83,7.43,1.56,10,4.76,1.37,1.69,3.41,1.8,5.41,1.86,14.27.48,28.47,1.94,42.68,3.24,13.21,1.21,26.36,3.12,39.56,4.5,13.37,1.4,26.71,3.06,40,5.2,7.12,1.15,14.23,2.43,21.06,4.87,3.39,1.22,6.86,2.39,9.32,5.26,1.19,1.39,2.79,1.48,4.44,1.73,8.9,1.39,17.81,2.82,26.58,4.94A29.89,29.89,0,0,1-278,230a4.92,4.92,0,0,1,2.83,5.24c-.18,2.25-1.56,3.5-3.5,4.33a7.41,7.41,0,0,1-3.86.54q-19.53-2.21-39.08-4.42c-1.95-.21-3.93-.25-5.9-.38a339.74,339.74,0,0,1-36-3.35c-6.63-.64-13.23-1.54-18.29-2,3.74-.27,8.82,1.7,14.14,1.53,9.39,1.28,18.78,2.47,28.23,3.19a9,9,0,0,1,5.08,1.66,4,4,0,0,0,.83.12c.59.54,1.47.37,2.08.84,2.85,2.86,5.57,5.82,9.21,7.8a4.81,4.81,0,0,1,2.6,4.49c-.12,2.25,1.19,2.73,3,2.91,5.05.49,10.1,1.15,15.16,1.55a171.34,171.34,0,0,1,20.41,3.13c4.67,1,6.07,2.64,6.31,7.64.1,2,1.4,1.91,2.66,2,7.51.71,15,1.25,22.53,2.13,7,.82,14,1.94,20.92,3.05a15.49,15.49,0,0,1,4.12,1.55,4.92,4.92,0,0,1,3.09,5.13,5.23,5.23,0,0,1-4.47,4.64,20.93,20.93,0,0,1-7.85,0c-4.25-.71-8.5-.59-13.31-.63,1.79,1.7,3.77,1.81,5.45,2.51,4.08,1.69,8.41,3,10.14,7.78.63,1.75,2.43,1.38,3.88,1.38,5.09,0,10.19-.05,15.28-.06,5.42,0,10.85.14,16.27,0,4-.09,7.19.55,9.94,4a11.29,11.29,0,0,0,9.63,4.08,44.46,44.46,0,0,1,13.59,1.94,12.78,12.78,0,0,1,3.19,1.26c4.4,2.63,4.52,7.55.24,10.35a13.69,13.69,0,0,1-5.94,2.24c-.93.11-2,0-2.77,1.4A106.36,106.36,0,0,0-153.69,323c23.83,4.71,47.51,9.86,70.64,17.5,10.08,3.34,18.47,8.88,24.77,16.94,3.2,4.1,6.69,5.43,11.18,6.51,8,1.91,16,3.88,23.38,7.53a14.49,14.49,0,0,1,6.61,5.7c.4.69.88,1.6,1.53,1.83,6.36,2.21,11,7.82,17.92,9a27.2,27.2,0,0,1,8.78,3.11c3.39,1.9,4.57,4.4,3.48,7.18-.95,2.43-3.53,3.47-7,2.85L3,400.25c.15,2.2,1.52,3.43,2.58,4.73s2.6,2.78,2.7,4.6c.16,3,2.07,3.61,4.46,4.21a102.19,102.19,0,0,1,15.46,4.93,31.85,31.85,0,0,1,10.67,6.93c4.87,5.06,3.82,10.35-2.79,12.47-2.58.82-2.91,1.48-2.1,4,1.29,4-.34,6.59-4.28,8.08a14.07,14.07,0,0,1-5.3.93c-5.58-.11-11.15-.2-16.73-.56-5.12-.33-10.53-.54-15.17,2.64-1.49,1-3.61.49-4.91,2,2.2,5.47,2.12,5.59-2.48,9.84-1.73,1.59-2.16,3.92-2.83,6.07-3.81,1.18-7.8,1.05-11.7,1.36-13.77,1.09-27.37,3.29-41,5.44-20.27,3.2-40.57,6.19-60.81,9.55-17.65,2.93-35.22,6.32-52.84,9.39q-27.66,4.81-55.45,8.73-28.05,3.92-55.77,9.8c-14.79,3.13-29.82,4.76-44.81,6.59-22.49,2.74-45.09,4.58-67.56,7.56a139.76,139.76,0,0,1-18.19,1.07c-15.76,0-31.53.4-47.3-.38a153.89,153.89,0,0,0-21.68.37,45.59,45.59,0,0,1-10.3-.41A567.37,567.37,0,0,0-562,525.67a276.31,276.31,0,0,1-37.21-3.24c-4.85-.82-9.78-.26-14.7-1.18q-10.41-1.95-20.64-4.63c-5.72-1.5-11.64-1.87-17.33-3.48-2.43-.68-4.67.91-7.25.6-5-.59-10.16-.65-15.14-1.67-12.24-2.5-24.89-1.34-37.08-4.49-3.69-1-7.83-.24-11.76-.22a39.3,39.3,0,0,1-8.29-1c-14.78-3.09-29.75-4.94-44.68-7.13-13.67-2-27.48-1.72-41.12-3.66-10.23-1.45-20.49-2.71-30.7-4.26a82.64,82.64,0,0,1-11.5-2.67c-7.74-2.35-15.65-3.16-23.7-3.87-7-.62-13.73-3-17.61-10-2.53-4.56-5.83-8.65-8.45-13.22a82.37,82.37,0,0,1-7.67-19.59c-1.52-5.59-3.18-11.05-6.11-16a23.91,23.91,0,0,1-3.37-12.66c0-3.93-.06-7.86-.09-11.79-.31-2.61,1.55-4.24,2.91-6,4.89-6.38,10.25-12.37,15.42-18.52,3.21-3.83,4.88-3.81,8.35-.07A51.12,51.12,0,0,1-893,386c7.14,12.31,16.37,22.93,26.46,32.86,5.81,5.73,9.32,5.15,13.4-1.87a269.45,269.45,0,0,1,21.89-32.68c1.56-2,3.51-4.73,6-.65-.15,2.09-1.46,3.64-2.56,5.24-3.55,5.21-4.9,11.11-5.23,17.23-.44,8.29,3,14.45,10.49,18.5,17.79,9.56,39.32-3.58,42.46-18.35A26.46,26.46,0,0,1-779,402c4.49-7.05,8.53-14.38,13.14-21.36,1.28-1.94,2.29-4.93,5.32-4.26,2.55.56,2.91,3.33,3.45,5.54,2.7,11.16,6.49,22,9.54,33.06a30.42,30.42,0,0,0,4.34,9.32c4.23,6.13,10.27,6.11,14.27-.18s7.15-12.9,10.92-19.24c4.11-6.9,8.2-13.81,13.4-20,.85-.78,1.71-1.56,2.5-2.42a2.53,2.53,0,0,1,1.24-.63,4.37,4.37,0,0,1,2.62,1.05c3.38,4.39,4.7,9.69,6.47,14.78,2.79,8.06,5.11,16.3,10,23.46,6.07,8.89,12.68,9.2,19.19.53s13.07-17.29,17.84-27.1a11.24,11.24,0,0,1,3.48-4.7c5.69,2.26,7.68,7.42,9.85,12.47-1.87,8.84-3.93,17.68-1.48,26.74,2.55,9.39,7.55,16.31,18,17.84,4,.59,8,1.81,12.12,2,9.5.47,17.33-2.91,24.06-9.35a25.51,25.51,0,0,1,4.05-3.58,3.74,3.74,0,0,1,2.34-.63c9.18,1.58,16.07-3.11,22.89-8.15,4-2.93,7.93-5.82,11.76-8.89,1.15-.92,2.21-2,3.83-2a7,7,0,0,1,2.18,1.09c5.48,3.3,9.15,2.63,13.21-2.39a41.66,41.66,0,0,0,5.61-9.2c2.48-5.52,5.87-10.57,8.18-16.18a2.1,2.1,0,0,1,2.06-.84,36.34,36.34,0,0,0,16.91,1.44c1.62-.27,3.27-.43,4.65.81,1.41,2.24,1.06,4.76,1,7.19a63.6,63.6,0,0,0,1,14.19c-.13,2.52-2.37,3.29-3.92,4.61-1.35,1.15-3,1.95-4.31,3.14s-2.19,2.91-1,4.74,2.83,2,4.71,1.39a22.25,22.25,0,0,0,5.78-3.53,7.42,7.42,0,0,1,4.9-1.86A35.49,35.49,0,0,0-450.6,420c6.29,1.13,11.1-.45,13.61-6.93.92-2.38,2.91-4.25,3.88-6.68a22,22,0,0,1,3.41-4.71c1-1.1,2-2.84,3.95-1.22,1.14,2.32,0,4.44-.62,6.59-2.79,9.69-5.9,19.29-7.57,29.26-.3,1-.66,2-1.89,2.25a12.67,12.67,0,0,0-10.66-3.92,10.92,10.92,0,0,1-6.21-1.27c-4.85-2.7-9.23-1.28-13.37,1.57-10.69,7.34-14.88,18-15.05,30.49-.2,14.08,10.33,26.68,24,29.37,5,1,9.49-.45,14-1.94,11.23-3.72,21-9.56,26.48-20.59,6-12.08,3.85-22.17-8-29.63a8.69,8.69,0,0,1-2-1.39,4.35,4.35,0,0,1-.44-3c4.3-20.2,11-39.7,17.31-59.31.46-1.41.79-3.16,2.37-3.47,1.81-.37,2.28,1.55,2.91,2.74,2.72,5.08,7.59,6.35,12.64,7.37,3.85,3.71,6.05,8.53,8.67,13.05a118.39,118.39,0,0,0,7.77,12,18.82,18.82,0,0,0,13.65,7.8c8.84.92,13.18-4.85,17-11.12,4.82-8,8.36-16.72,12.09-25.29a70.42,70.42,0,0,1,6.32-12.23c2.66-3.84,4.53-3.72,6.83.27a34.17,34.17,0,0,1,2,4.48c6.22,15.49,12.29,16.56,26,17.11,6.38.26,12.73-1.26,18.93-2.89,2.28-.6,4.78-1.57,4.17-4.53s-3.39-2.9-5.64-2.47a124,124,0,0,1-22.53,1.83c-6.08,0-10-2.61-12.32-8-2-4.5-3.56-9.19-6.14-13.42-3.78-6.19-7.85-6.7-13.14-1.75-5,4.73-8.05,10.75-10.68,16.95q-5,11.79-10.83,23.19a39,39,0,0,1-4.1,6.71c-3.39,4.21-7.7,4.8-12.12,1.67a15.94,15.94,0,0,1-3.89-3.75,228.78,228.78,0,0,1-14.62-23.84c0-1.79,1.24-3,2.26-4.22a84.72,84.72,0,0,0,17.89-39.22,7.37,7.37,0,0,1,1.25-3.16c10.42-7.66,18.59-17.82,28.73-25.78,1.7-1.34,3.2-3.44,5.91-2.59,1.07,2.21-.72,4-.83,6.1s-.18,4.35,2,5.62a5.75,5.75,0,0,0,6-.32,10.93,10.93,0,0,0,4.32-4.54c1.2-2.39,2.13-4.86,0-7.27s-4.43-2.39-7.07-1.15c-1.17.54-2.36,1.15-3.73.76-.81-.77-.55-1.81-.74-2.74-.72-3.57-2.8-4.7-6-2.92a46.23,46.23,0,0,0-10.46,8,155.53,155.53,0,0,1-14.36,13.28c-1.27,1-2.31,3-4.5,1.57-1-1.57-1.16-3.41-1.83-5.08-3.47-8.65-10.85-12.31-19.82-9.92a21.64,21.64,0,0,0-8.34,4.1c-3,2.44-5.47,3.47-8.93.24-3.22-3-8.3-1.73-10.68,2-1.85,2.92-2.69,6.18-.86,9.32s4.19,6.48,8.78,6c2.91-.3,5.27.25,4.29,3.86-1.94,7.14-3.2,14.41-4.7,21.64a4,4,0,0,1-1,1.69c-4,2.66-6.56,6.59-9.33,10.35-3.12,2.81-7.23,3.79-10.81,5.74-11,6-21.92,11.9-32.79,18a5.21,5.21,0,0,1-3.74.89c-2.14-.88-2.77-3-3.83-4.76-.73-1.19-1.15-2.59-2.78-2.89a2.32,2.32,0,0,1,.65-3.09,16.34,16.34,0,0,0,5.26-18.45c1.08-6.22,4.25-11.66,6.89-17.23,6.75-14.28,15-27.59,26.53-38.68,2.43-2.34,4.6-4.54,8.52-2.9,2.26.94,4.14-.56,5.2-2.64,1.3-2.59,1.91-5.32.06-7.91-1.41-2-3.5-2.3-5.74-1.76-2.95.71-5.27,2.5-7.54,4.44-14.56,12.49-25.15,27.9-33.19,45.15A19.77,19.77,0,0,1-476.78,352c-5.12-2.5-10.84-2.77-16.26-3.37-5.18-.58-9.6,2.79-13.25,6.54-6.17,6.36-8.3,18.85-4.59,26.57a2.7,2.7,0,0,1-.89,3.09c-6.55,5.87-13,11.83-19.64,17.61a2.17,2.17,0,0,1-2.7.39c-3.73-5.68-6.11-12-8.07-18.39-1.74-5.65-3.33-11.33-5.77-16.72-.27-2.15,1-3.73,2-5.41,5.42-9.17,11.25-18.1,16.6-27.33,2.06-3.55,4.06-7.17,4.21-11.42.18-5.35-2.67-7.75-7.77-6.07a9.42,9.42,0,0,1-8.3-.92,6.66,6.66,0,0,0-10.12,6.32c.33,4.49-1.23,7.38-4.7,10-9.6,7.23-17.57,16.19-25.86,24.8a10.78,10.78,0,0,0-2.93,5c-.45,1.95-.09,3.66,1.81,4.63s3.46.05,4.66-1.53c9-11.85,20.11-21.53,31.64-30.77,1.89-1.52,3.65-3.35,6.2-3.86a2.22,2.22,0,0,1,2.33,1.4,3.86,3.86,0,0,1-.47,2.85c-5.69,9.73-11.2,19.59-17.88,28.71-6.49,5.35-11.71,11.84-16.78,18.48-1.32,1.73-2.28,4.18-5.23,3.7-6.23-3.95-13.36-5-20.42-6.06-4.1-.58-8,.81-11.63,3-1.78,1.11-3.54,2.39-5.84,2.18-2.1-1-2.29-3.06-2.75-4.91-1.2-4.74-2.76-9.38-4.16-14.06-1.92-6.43-5.35-7.19-10.22-2.48a31.47,31.47,0,0,0-4,5c-1.1,1.6-2.13,3.33-4.22,3.86-3.06-.07-4.44-2.48-6.08-4.45a19.06,19.06,0,0,0-4.46-4.5c-1.69-1-3.41-1.28-4.93.25a3.63,3.63,0,0,0-.22,5.29c2,2.57,4.63,4.61,6.75,7.1,1.48,1.74,3,3.49,3.38,5.88-2.2,7.33-7,13.25-10.76,19.75-2.94,5.12-6.81,9.63-10.3,14.39-2.51,3.43-4.69,3.33-7.43-.07a28.81,28.81,0,0,1-3.7-6.92c-2.7-6.34-4.72-12.93-6.88-19.47A46,46,0,0,0-695,374.29c-3.84-4.47-6.56-4.75-10.52-.32-8.13,9.08-14.57,19.37-20.52,30-1.93,3.42-3.88,6.84-5.81,10.27-1.09,1.9-2,4.7-4.71,4.36-2.45-.29-2.78-3-3.38-5-3.27-10.65-6.79-21.24-9.4-32.07a80,80,0,0,0-5-13.87c-2.85-6.36-6.63-6.8-10.88-1.35-5,6.49-9.09,13.63-13.46,20.56-.78,1.24-1.23,2.71-2.65,3.46-3.68-1.81-5.57-5.58-9-7.85-8.74-5.74-18.09-6.36-27.94-4.89-1.43-.62-1.46-2.06-1.9-3.26-2.41-6.61-5.57-7.25-10.76-2.32-4.2,4-7.52,8.71-10.89,13.33-5.31,7.29-10.34,14.8-15,22.57-3.22,5.41-5,5.75-9.09,1.16-7.78-8.68-15.15-17.67-21.14-27.74a66.13,66.13,0,0,0-10.86-14c-4.45-4.28-6.71-4.17-11.3.05s-8.6,9.47-13,14.12C-923.23,382.64-923.88,384.47-926,384.05Z"/></g><g class="cls-6"><g class="cls-7"><g class="cls-8"><path class="cls-9" d="M-7226.17-2007.78v-659.66H99.14v5491.3H-7226.17V2261.54c7.16-7.91,13.63-16.56,22.89-22.27,6.91-4.27,15.12-9.59,22.1-3.07,24.46,22.87,50.56,10,75.64,3.61,12.62-3.19,23.88-6,36.1-.3,7.59,3.53,15.76,4.35,23.26.24,13.06-7.15,24-7.38,36.37,3.24s25.68,4.38,35.94-5.46c16.11-15.46,34.06-28.69,50.59-43.65,18.92-17.13,25.67-15.33,37.16,7.36,10,19.74,22.35,22.75,40.65,9.49,8.69-6.29,15.58-14.63,23.39-21.93,7.23-6.74,14.84-15,24.86-14.48,22.89,1.08,41.59-7.39,58.94-20.91,9.72-7.57,17.53-5.63,24.52,4.55,8.62,12.57,20.22,15.66,35.1,10.81,22.14-7.23,35.19,3.38,43.53,23.6,10.38,25.2,18.5,28.35,42.86,15.36,17.76-9.46,33.36-18.79,54.1-4.86,11.66,7.84,23.73-1.84,33.49-10.1,9.54-8.07,19.7-15.32,29.53-23a47.61,47.61,0,0,1,13.67-6.83c1.24-.25,2.51-.44,3.76-.67,1.26.09,2.53.22,3.79.3,1.19.38,2.39.79,3.6,1.14,2.33.85,4.63,1.84,6.92,2.8,13.57,3.71,27.59,5.22,40,13.59,14,9.49,27.27,2.76,39.23-6,22.17-16.32,43.47-33.75,64.82-51.12,6.21-5.05,12.55-10.15,20.26-12.58,10.48-3.31,16-.27,12.1,11.59-2.72,8.33-8.75,16.23-5.7,25.42,5.58,16.75,18.83,16.89,32.71,13.05,12.95-3.58,19-1.81,20.31,14,2.19,27.11,17.12,32.37,39.13,15.56,7-5.37,12.47-12.71,20.64-16.71a13.56,13.56,0,0,1,11,.69c4.14,4.21,2.5,9.89,3.79,14.82,5.47,20.89,21.69,27.48,39.93,16,11.16-7,18.85-18.26,29.85-25.51,1.78-1.3,3.68-2.48,5.56-3.6.85-.59,1.79-1.14,2.65-1.73,1.59-1.22,3.27-2.39,4.87-3.6.73-.64,1.53-1.24,2.25-1.88,1.37-1.31,2.82-2.55,4.24-3.81.65-.64,1.37-1.25,2-1.9,1.26-1.31,2.61-2.54,4-3.77.62-.64,1.3-1.24,1.93-1.87,1.2-1.31,2.5-2.53,3.8-3.73-.05,0,1.93-1.81,1.88-1.85,1.18-1.31,2.46-2.52,3.75-3.72-.05-.05,1.91-1.82,1.87-1.87,1.18-1.34,2.46-2.57,3.76-3.8.62-.66,1.27-1.27,1.89-1.93,1.23-1.37,2.54-2.66,3.84-4,.64-.7,1.32-1.34,2-2,1.28-1.48,2.63-2.85,4-4.26.66-.76,1.36-1.45,2-2.22,1.34-1.61,2.75-3.1,4.19-4.64.72-.82,1.48-1.56,2.2-2.38,7.33-7.08,13.78-15.05,22.12-21.07a16.32,16.32,0,0,1,6.82-2c17.38,7.61,4.11,15.56-.73,21.49-12.22,15-28.1,26.65-39.33,42.61a67.63,67.63,0,0,1-4,5.76,68.4,68.4,0,0,0-9.17,14.63c-.86,2.25-1.8,4.44-2.68,6.67-3.93,10.25-2.09,20.53,5.28,27.33,12.05,11.12,20,24.52,28.41,38.19,9.53,15.44,31.46,15.51,49.47.85,16.58-13.5,30.54-29.89,45.93-44.71,35.36-34,81.52-29,107.47,11.55,6.73,10.51,15,20,23.31,29.15,15.38,16.85,40.21,10.86,64.29-14.29,15.63-16.47,33-22.18,55.47-13.2,19.47,7.78,38.92-.47,57.37-6.57,59.81-19.77,121.05-19.19,182.66-14.77,17.27,6.56,15.15,17.08,5.31,28.53-10.95,12.73-23.47,24-35.19,36-7.41,7.57-15.61,14.47-21.83,23.08-8.65,12-15.89,25.68-2.87,38,11.92,11.33,22.76.93,32.74-6.3,6.44-4.66,12.82-9.41,19-14.34,12-8,23.67-16.58,33.27-27.58,14.56-14.5,32.25-25.36,46.58-40.13a48.07,48.07,0,0,1,5.88-4,87,87,0,0,0,8.63-6.19c10-9,19-19.21,31.72-24.69a39.52,39.52,0,0,1,7.5-2.34c13.34-1.87,27.06-.72,40.05-5.32q73.2-4.07,146.2-10.47c6.3-.55,12.93-.59,18.31,2.47,17.77,10.09,34.42,4.38,51.11-2.49,19.12-7.87,38.74-13.16,59.62-12.48,12.21.4,21.59,4,28.33,16,12.66,22.51,20.4,24,42.37,11.75,7.76-4.33,14.85-9.82,23-13.59,29.79-12.28,22.79,15.27,30,27.55,9.23,17.34,23,17.49,38.8,10.42,15.6-7,29.43-16.84,43.53-26.31,5.85-3.93,12.54-8.62,19.4-2.49,5.68,5.07,3.13,11.78.58,17.44-18.51,41.13-12.84,76.33,24.54,104.34,11,8.22,13.34,20.5,14.29,33.37,1.16,15.77,7,28.88,25.28,28.42,16.92-.43,20.84,8.58,22.8,22.86,4.68,34.24,9.91,36.44,40.78,24.76,20.81-7.87,42.58-15.5,59.3,9.35,4.84,7.19,13.77,7.31,22.16,5.48,24.34-5.31,47.77-3.63,69.87,9,14.93,8.53,25.94,2.25,33.82-10.68,8.75-14.37,18-18.8,31.67-5.67,6.49,6.22,15.75,8.34,24.11,11.39,23.9,8.72,38.49,3.94,41.28-21.21,4.74-42.66,42.34-54.53,67.26-76.45,14.08-12.4,26-22.22,30.21-40.39,2-8.71,3.88-17.45,6-26.12,8-32.18,31.88-41.69,58-21.41,12.09,9.39,22.54,19.75,38.61,22.06,7.69,1.11,10.94,8.51,14.41,14.85,4.39,8,9.25,16.16,20,14.95,12.3-1.38,20.37-10.39,21.25-21.19,3-36.43,30.53-41.21,57.54-47.51,12,12.74,6.51,28.63,7.61,43.26,1.26,16.78-1.75,33.75,2.15,50.36,18,25.18,29,24.46,45.39-3.13,6.3-20-2-41.32,6.11-61a9.79,9.79,0,0,1,6.24-4.76c18,7.18,34.32,22.2,56.16,10.46,3.45-1.86,8.46,1.69,12.24,4.11,23,14.71,45.69,24,70,1.3,8.37-7.82,12.3.42,13.86,8,2.27,11.06-3.45,20.77-6,31-3.12,12.78.2,23.56,12.94,28.52,14,5.43,21.17-3.94,27.06-14.86,9.5-17.61,5.22-38.81,14.82-56.39,7.83-10.78-2.79-34.89,14.83-34,12.83.62,7.33,22.42,8.45,35,.83,9.41,4.63,16.75,10.87,23.3,14.61,18.38,31,18.35,49,5.18,8.63-6.31,17.75-12,26.29-18.39,16.46-12.38,31.95-18.81,49.24-.08,10.56,11.45,26.41,9.68,40.55,9,57-2.66,113.63-10.19,170.11-17.59,152.29-19.94,305-30.15,458.53-25.11,10.49.76,21.06.3,31.56,1.26,8.13.74,18.52,2.56,20.14,10.14,6.11,28.61,32.49,42.43,45.42,65.73,17.53,17.47,44.08,24.1,54.66,51,4.77,12.15,24.34,6.61,31.31-7.71,5.82-12,4.45-26.18,11.54-37.81a12.48,12.48,0,0,1,10.78-2.73c11.54,4.9,15.86,16.15,22.14,25.58,16.23,24.37,27.45,25,46.67,2.2,4-4.74,7.94-9.51,12.07-14.08,5-5.12,6.11-12,8.23-18.41a13.41,13.41,0,0,1,4.53-5.29,15.74,15.74,0,0,1,7.07-.88,19.19,19.19,0,0,1,6.53,3.23,26.86,26.86,0,0,0,13.65,6c26.51-4.46,49.8-14.71,64.5-38.25,8.76-14,16.85-13.41,30.66-5.93,20.32,11,40.73,18.95,51.75,42.71,7.37,15.88,24.66,15.55,34.28-.48,13.53-22.55,31-37.23,55.19-47.52,19.62-8.36,18.26-28.87,16.36-47.06-5.52-53-2.25-59,50.78-69.18,22.81-4.39,30.86-15.18,26.88-36.85-2.32-12.67-2.84-25.11,5.84-35.78,12-14.75,12.58-30.89,6.75-48-5.08-14.91-6.11-29.28,1.84-44,8.86-16.37,4.87-33.94-1.37-49.5-18.33-45.7,1.52-84.58,19.62-124,1.84-4,6.53-7.7,6-11.74-6.34-46.65,24.76-83.48,32.64-126.32,1.31-7.15,1.52-14.38-.33-21.3-19.55-73.19-3.49-147.6-7.64-221.31-.46-8-.14-17,4.86-23.29,18.4-23.08,16-50,16.33-76.76,1.69-127.75-1.43-255.68-7.61-383-7.43-152.93,9.91-303,26.47-453.72,3.52-31.95,3-64.16,7.09-96.12,2.1-16.3-3.75-30.59-22-34.93-16.79-4-20.39-16.29-19.79-30.49,2.53-59.93-5.87-119.48-5.68-179.31a125.58,125.58,0,0,0-12.75-56.73c-16.72-34.59-9.48-72.2-7.26-108.24,3.36-54.31,6-108.65,9.14-163a210.4,210.4,0,0,1,7.08-44.86c6.16-18.73,10.77-37.69,9.82-57.73-.55-11.79,1.85-22.76,9-32.89,25.72-36.33,23.36-75.29,8.69-114.64-4-10.66-2.31-19.66-.91-30.54,4.66-36.29,19.5-69.82,8.71-110.25-12-44.82-7.87-94.09-.35-141,3.25-20.34,4.91-37-17.56-47-12.77-5.65-13.21-18.35-12.89-30.07,1.05-38.32,1-76.69,2.22-115,1.16-37.06-2.18-74.72-2.49-112.16-.12-14.4,1.12-28.55,5.15-42.4,5.72-19.7,11-21.41,27.47-8.31,8.41,6.69,15.47,14.82,22.51,22.92,4.76,5.47,9.82,11.47,18.06,7.88,7.47-3.25,8.79-10.69,9.47-18,.58-6.28-.78-12.46-1.15-18.69-2.55-43.17-4.53-86.62-8.47-129.39-3.14-34-11.94-65.15,6.14-97.92,6.37-11.56-.48-28-4.78-41.78-9.36-30-13.32-61-15.3-92.3-1.32-20.92,3-39.86,13.92-58.76,18.29-31.73,14.25-67.65,11.18-102.25-1.82-20.47-4.33-40.84-3.72-61.4.61-20.93-1.12-41-14.5-58.56-5-6.56-8.85-15.72-5.81-22.69,9.72-22.35,2.39-47.25,12.36-69.52,5.5-12.29,6.44-25.85,1.18-39.2-3.38-8.56-4.54-18.11.05-26.1,11.55-20.08,2.7-32.4-12.59-45.67-13.47-11.68-25.37-25.15-41.55-33.34s-31.75-12.84-51-6.45c-25.87,8.61-46.57-.51-62.22-22.86-7.35-10.5-14.91-19.72-29-21.33-10.23-1.17-17.28-8.44-24.53-15.3-28.83-27.28-51.87-26.09-81.52.3-22.87,20.36-49.24,34.75-81.92,29.71-7.56-1.16-13.74,2.59-20.54,4.6-16.76,5-28.6-6.66-22.55-23.05,7.9-21.38-1.86-41.42-4.22-61.5-1.94-16.51-39.35-17.95-49-.68-17.59,31.46-42.15,44.57-77.34,39.62-8-1.13-13.63,2.93-16.91,10.33-1.45,3.25-2.54,8.15-5.46,9-33.94,9.42-21.34,34.46-17.52,54.91,4.86,26-10.94,45.93-17.24,68.48-2.93,10.49-16,13.81-27.06,14.24-14.3.55-28.42,3.61-42.75,2.82-10.26-.57-17.68,3.5-20.85,13.13-7.6,23.1-25.76,27.89-46.73,27.42-19.56-.43-34.64,3.79-41.06,25.7-4.86,16.56-18.39,20.31-34.56,15.78-9.7-2.72-20.28-6.1-25.27-14.2-15.15-24.57-35-33.09-63.09-25.59-10.25,2.73-18.11-5.1-25-12.71-11.77-13-26.32-17.89-43.51-12.5-5.16,1.61-12.25,5.21-15.35,1.71-25.55-28.8-60.49-14.5-90.13-17.19-36.5-3.32-73.44-10.5-111.65-2.73-23.27,4.74-49.59.44-74.49-.86-16.29-.84-32.18-.44-47.33,6.2-12.17,5.33-23.64,4-36.29-.06-35.88-11.61-51.18-6.24-74.87,23.45-10.45,13.1-23.77,19.4-40.14,14.37-15.6-4.78-17-19.23-18.77-32.58-1.06-8,1-16.07.73-24.07-.28-10,7.74-24-5.27-28.92a64.46,64.46,0,0,0-49.7,1.57c-13.11,6-10.45,18.54-9.4,30.5,3.36,38.41-4.69,76.35-5.93,114.64-.55,17-11.18,28.4-30.68,24.88-14.46-2.61-28.25,2.8-42.58,2.49-19.87-.41-29-8.68-29.79-29.06-1.37-34.8,7.79-69,4.08-104.05-1.54-14.6-5.72-26.17-16.16-35.11-13-11.11-26.14-4-35.81,9.07-28.54,38.73-11,81-12.82,121.68-1.48,32.59-9.34,40.47-40.26,36.87-22.62-2.64-29.78-12.33-30-35.65-.21-22.3,1.59-44.34,3.6-66.47,1.39-15.25-.8-29.54-20.68-30.82-18.28-1.17-36.65-2-43.53,21-3.39,11.32-2.78,23-3.55,34.55-1.81,27-10.34,34-37.82,31.74-3.56-.3.84.3-2.64-.42-17.38-3.61-36.82,3.3-52.41-7.27-16.38-11.11-8.07-31.56-13.66-47.24-6-16.79-11.65-29.38-32.87-27.23-20.85,2.12-31.69,10.07-32.81,33.22-1.54,31.92-24.82,53-56.84,51.09-40.16-2.34-80.23,3.08-120.27-.74-12.87-1.23-24.48,2-28.4,14.73-6.18,20.1-18.94,26.46-38.48,24-21.94-2.71-25.3-19.43-28.64-36.59-6.21-31.82-32.43-52.2-62.63-47.25-14.87,2.44-30.32,6.63-42.24,15.91-12.92,10.07-27.87,9.06-41.59,13.46-48.48,15.54-103.76,8.65-146.18,44.32-19,16-42.21,11.38-64.34,9-11.7-1.25-14.47-11.73-18.81-20.57-7.45-15.16-22.33-20.24-32.75-9-20.67,22.19-50.57,17.35-74.06,30.73s-49.6,17.36-76.71,5.46c-14-6.13-22.12.81-26.16,16.81-9.12,36.12-29.23,42.57-61.71,24-15.62-8.92-31.21-15.59-38.54-34.49-4.7-12.12-18.9-8-29-8.11-16.07-.18-32.2,2.83-44.38-12-4.55-5.55-11-4.21-17.22-1.43-37.33,16.66-72.35,16.49-108.09-7.61-30.56-20.61-67.77-20.37-103.49-21.78-13.36-.53-26.76.35-40.16.29-21.33-.09-39.23-3.39-45.25-27.93-1.49-6.07-5.91-11.59-12.91-12.16-9.21-.75-12,7-14.13,13.59-6,18.77-19.8,23.6-37.52,23.18-13.4-.32-26.81-.16-40.21-.07-16.89.11-30.19-4-32.2-23.93-1-9.83-6.2-16.52-16.24-18.86-2.6-.61-6.16-.8-7.48-2.63-17-23.68-29.16-17.84-48.32,1.15-17.72,17.56-80.84-2.25-93-25-4.08-7.66-9.45-12.72-17.1-16-9.44-4-15.76-10.5-20.17-20.18-11.37-25-20.81-27.17-37.38-5.64-16.84,21.88-37.31,31.39-64.11,32.44-20.62.81-31.85-8.45-37-27.24-5.68-20.78-8.66-41.61-6.88-63.48,2.07-25.4-15.12-41.64-40.58-41.19-34.12.59-42.56,6.69-49.22,45-3.93,22.62-13.87,36.4-36.36,39.67-11.2,1.63-17.95,6.4-20.33,17.65-2.93,13.92-11,21.83-26.08,21.84-13.06,0-21.92-4.59-26.45-17.78-6.35-18.5-24.06-24.85-39.05-21.21-46.14,11.19-91.77-6.94-137.85.86-14.94,2.53-23.17,5.14-25.4,20.14-2.69,18-13.62,21.68-30.81,20.78a780,780,0,0,0-106.89,1.67c-33,2.79-36.4-.24-47.55-31.53-9.95-28-33.22-44-60.23-52.32-15.23-4.69-29.38,3.51-40.24,15.88-23.87,27.18-52.22,32.9-83,15.87-14.19-7.84-26.37-15-39.61,1.87-7.84,10-20.15,3.56-30.5,4-14.56.7-28.63.29-29.07,21.79-.31,14.87-13.48,19.78-26.12,22.91-14.69,3.64-28.07-.75-35.07-13.33-10.24-18.41-26-24.88-44.91-29.61-30.15-7.55-42.07-24.73-41.86-56.12.21-30.1-1.07-31.42-31.26-32-16-.3-32.29,1.23-47.11-7.15-13.3-7.52-23.29,7.12-35.71,5.53a30.25,30.25,0,0,1-7.73-1.21c-13.09-6.2-22.59-16.84-30.52-28.23-13.08-18.81-27.09-20-43.76-5.57C-7216.54-2007.87-7220.78-2004.72-7226.17-2007.78Z"/></g></g></g><path d="M5.93,46.63H7a.12.12,0,0,1,.14.14v9.52a.13.13,0,0,1-.14.14H6a.22.22,0,0,1-.17-.1L1.42,49.17s0,0,0,0,0,0,0,0v7.1a.12.12,0,0,1-.14.14H.16A.13.13,0,0,1,0,56.29V46.77a.12.12,0,0,1,.14-.14h1a.19.19,0,0,1,.16.09l4.37,7.16s0,0,0,0,0,0,0,0V46.77C5.79,46.67,5.83,46.63,5.93,46.63Z"/><path d="M13.37,49.49a2.31,2.31,0,0,1,1,.84,2.22,2.22,0,0,1,.34,1.22v4.74a.12.12,0,0,1-.14.14H13.49a.12.12,0,0,1-.14-.14v-.51s0-.05-.07,0a2.48,2.48,0,0,1-.89.59,3.34,3.34,0,0,1-1.17.2A2.75,2.75,0,0,1,9.5,56a1.89,1.89,0,0,1-.67-1.59,2.08,2.08,0,0,1,.76-1.71,3.26,3.26,0,0,1,2.13-.62h1.57a.05.05,0,0,0,.06-.06v-.38a1.27,1.27,0,0,0-.36-1,1.51,1.51,0,0,0-1.08-.34,1.79,1.79,0,0,0-1,.23,1,1,0,0,0-.46.62c0,.1-.08.14-.17.13l-1.13-.15c-.09,0-.14-.06-.13-.12A1.91,1.91,0,0,1,10,49.71a3.33,3.33,0,0,1,1.93-.52A3.48,3.48,0,0,1,13.37,49.49ZM12.8,55a1.16,1.16,0,0,0,.55-1v-.83s0,0-.06,0H12a2.33,2.33,0,0,0-1.32.32,1,1,0,0,0-.49.89.9.9,0,0,0,.37.79,1.61,1.61,0,0,0,1,.26A2.14,2.14,0,0,0,12.8,55Z"/><path d="M17.54,56.26a2.44,2.44,0,0,1-1-.69,1.57,1.57,0,0,1-.35-1v-.15a.12.12,0,0,1,.14-.14h1a.12.12,0,0,1,.14.14v.07a.81.81,0,0,0,.43.68,1.84,1.84,0,0,0,1.08.3,1.81,1.81,0,0,0,1-.27.84.84,0,0,0,.39-.7.66.66,0,0,0-.37-.61,6.07,6.07,0,0,0-1.17-.42A12,12,0,0,1,17.54,53a2.4,2.4,0,0,1-.91-.66,1.59,1.59,0,0,1-.37-1.1A1.77,1.77,0,0,1,17,49.78a3.21,3.21,0,0,1,2-.55,3.72,3.72,0,0,1,1.43.26,2.11,2.11,0,0,1,1,.72,1.68,1.68,0,0,1,.34,1v0a.13.13,0,0,1-.14.14h-1a.12.12,0,0,1-.14-.14v0a.82.82,0,0,0-.4-.68,1.93,1.93,0,0,0-1.09-.28,1.87,1.87,0,0,0-1,.24.75.75,0,0,0-.38.65.66.66,0,0,0,.37.61,6.16,6.16,0,0,0,1.2.45c.54.15,1,.3,1.35.44a2.38,2.38,0,0,1,.91.65,1.56,1.56,0,0,1,.38,1.11A1.79,1.79,0,0,1,21,56a3.26,3.26,0,0,1-2,.56A4,4,0,0,1,17.54,56.26Zm-.43-9.55a.09.09,0,0,1,0-.06l.09,0h.84a.16.16,0,0,1,.16.08L19,47.77l.05,0,0,0,.74-1.06a.18.18,0,0,1,.17-.08h.82c.06,0,.1,0,.12,0a.13.13,0,0,1,0,.11L19.8,48.32a.19.19,0,0,1-.18.08H18.43a.19.19,0,0,1-.18-.08l-1.11-1.53S17.11,46.75,17.11,46.71Z"/><path d="M29.2,53.26a.13.13,0,0,1-.14.14H24.59a.05.05,0,0,0-.06.06,2.28,2.28,0,0,0,.09.73,1.49,1.49,0,0,0,.62.87,2.08,2.08,0,0,0,1.18.32,1.81,1.81,0,0,0,1.6-.86c.05-.09.11-.1.18,0L29,55c.07.06.08.12,0,.18a2.7,2.7,0,0,1-1.11,1,3.62,3.62,0,0,1-1.63.36,3.1,3.1,0,0,1-1.72-.45,2.65,2.65,0,0,1-1-1.27,5.2,5.2,0,0,1-.34-2,6.18,6.18,0,0,1,.15-1.56,2.7,2.7,0,0,1,1-1.52,3,3,0,0,1,1.84-.56,2.82,2.82,0,0,1,2.11.71A3.35,3.35,0,0,1,29.15,52,12.88,12.88,0,0,1,29.2,53.26Zm-4-2.61a1.47,1.47,0,0,0-.53.81,3,3,0,0,0-.13.78.05.05,0,0,0,.06.06H27.8s.05,0,.05-.06a4.09,4.09,0,0,0-.08-.69,1.61,1.61,0,0,0-.56-.87,1.56,1.56,0,0,0-1-.33A1.59,1.59,0,0,0,25.19,50.65Z"/><path d="M33.13,56.29v-1a.24.24,0,0,1,.06-.17L36.9,50.6s0,0,0-.05l0,0H33.34a.12.12,0,0,1-.14-.14v-1a.13.13,0,0,1,.14-.14h5a.12.12,0,0,1,.14.14v1a.23.23,0,0,1-.05.17l-3.77,4.54s0,0,0,0a.05.05,0,0,0,0,0h3.67a.13.13,0,0,1,.14.14v.94a.13.13,0,0,1-.14.14H33.27A.13.13,0,0,1,33.13,56.29Z"/><path d="M45,49.87a2.4,2.4,0,0,1,.67,1.8v4.62a.12.12,0,0,1-.14.14H44.47a.13.13,0,0,1-.14-.14V51.93a1.6,1.6,0,0,0-.41-1.13,1.4,1.4,0,0,0-1.07-.44,1.44,1.44,0,0,0-1.08.44,1.54,1.54,0,0,0-.42,1.12v4.37a.13.13,0,0,1-.14.14H40.14a.13.13,0,0,1-.14-.14V49.44a.13.13,0,0,1,.14-.14h1.07a.13.13,0,0,1,.14.14v.5s0,0,0,.05,0,0,0,0a2.14,2.14,0,0,1,1.78-.77A2.45,2.45,0,0,1,45,49.87Z"/><path d="M51.69,49.49A2.2,2.2,0,0,1,53,51.55v4.74a.13.13,0,0,1-.14.14H51.81c-.1,0-.15,0-.15-.14v-.51s0-.05-.06,0a2.48,2.48,0,0,1-.89.59,3.34,3.34,0,0,1-1.17.2A2.75,2.75,0,0,1,47.82,56a1.89,1.89,0,0,1-.68-1.59,2.09,2.09,0,0,1,.77-1.71A3.24,3.24,0,0,1,50,52.09h1.57s0,0,0-.06v-.38a1.26,1.26,0,0,0-.35-1,1.52,1.52,0,0,0-1.09-.34,1.84,1.84,0,0,0-1,.23,1,1,0,0,0-.45.62c0,.1-.08.14-.17.13l-1.13-.15c-.1,0-.14-.06-.13-.12a1.93,1.93,0,0,1,.88-1.35,3.37,3.37,0,0,1,1.93-.52A3.52,3.52,0,0,1,51.69,49.49ZM51.12,55a1.18,1.18,0,0,0,.54-1v-.83s0,0,0,0H50.29a2.29,2.29,0,0,0-1.31.32,1,1,0,0,0-.49.89.9.9,0,0,0,.37.79,1.61,1.61,0,0,0,1,.26A2.17,2.17,0,0,0,51.12,55Z"/><path d="M55.86,56a2.75,2.75,0,0,1-1-1.46,5.65,5.65,0,0,1-.21-1.7,6.1,6.1,0,0,1,.21-1.69,2.68,2.68,0,0,1,1-1.43,3.15,3.15,0,0,1,1.82-.53,3.2,3.2,0,0,1,1.83.53,2.46,2.46,0,0,1,1,1.34,1.89,1.89,0,0,1,.11.47.14.14,0,0,1-.12.14l-1.05.15h0c-.07,0-.11,0-.14-.13l0-.22a1.41,1.41,0,0,0-.55-.8,1.74,1.74,0,0,0-1-.32,1.65,1.65,0,0,0-1,.32,1.52,1.52,0,0,0-.55.86A5.91,5.91,0,0,0,56,52.86a5.78,5.78,0,0,0,.12,1.31,1.54,1.54,0,0,0,.56.88,1.55,1.55,0,0,0,1,.33,1.74,1.74,0,0,0,1.06-.33,1.34,1.34,0,0,0,.55-.84,0,0,0,0,0,0,0s0,0,0,0v0c0-.08.07-.1.15-.09l1,.17c.07,0,.11.06.11.11v.06a.84.84,0,0,1-.07.31,2.36,2.36,0,0,1-1,1.37,3.2,3.2,0,0,1-1.83.52A3.09,3.09,0,0,1,55.86,56Zm-.06-9.29a.07.07,0,0,1,0-.06l.09,0h.84a.19.19,0,0,1,.17.08l.77,1.06,0,0,0,0,.74-1.06a.18.18,0,0,1,.17-.08h.83c.05,0,.09,0,.11,0s0,.07,0,.11l-1.11,1.53c0,.06-.09.08-.18.08H57.11a.19.19,0,0,1-.18-.08l-1.11-1.53S55.8,46.75,55.8,46.71Z"/><path d="M62.19,56.29V46.77a.12.12,0,0,1,.14-.14H63.4a.12.12,0,0,1,.14.14v5.39a.05.05,0,0,0,0,0,0,0,0,0,0,0,0l2.59-2.81a.18.18,0,0,1,.16-.07h1.25a.12.12,0,0,1,.11.05.13.13,0,0,1,0,.12l-1.81,2.08s0,.07,0,.09L68,56.26l0,.05c0,.08,0,.12-.13.12H66.77a.15.15,0,0,1-.15-.12L65,52.51s0-.06-.07,0L63.56,54s0,.06,0,.07v2.27a.13.13,0,0,1-.14.14H62.33A.13.13,0,0,1,62.19,56.29Z"/><path d="M70.06,56A2.77,2.77,0,0,1,69,54.55a5.59,5.59,0,0,1-.25-1.71A5.15,5.15,0,0,1,69,51.16a2.72,2.72,0,0,1,1.08-1.45,3.15,3.15,0,0,1,1.83-.52,3,3,0,0,1,1.76.52,2.89,2.89,0,0,1,1.07,1.44A5,5,0,0,1,75,52.83a5.28,5.28,0,0,1-.25,1.72A2.79,2.79,0,0,1,73.65,56a3.06,3.06,0,0,1-1.78.53A3.14,3.14,0,0,1,70.06,56Zm2.79-.95a1.73,1.73,0,0,0,.6-.89,6,6,0,0,0,0-2.62,1.7,1.7,0,0,0-.6-.88,1.59,1.59,0,0,0-1-.32,1.55,1.55,0,0,0-1,.32,1.71,1.71,0,0,0-.61.88,4.62,4.62,0,0,0-.15,1.31,4.67,4.67,0,0,0,.15,1.31,1.62,1.62,0,0,0,1.63,1.21A1.6,1.6,0,0,0,72.85,55.06Z"/><path d="M78.11,56.31l-2.28-6.86,0-.05c0-.07,0-.1.13-.1h1.18a.15.15,0,0,1,.16.11l1.54,5.07a.05.05,0,0,0,.05,0s0,0,0,0l1.52-5.07a.18.18,0,0,1,.17-.11h1.18c.1,0,.14.06.11.16l-2.27,6.84a.16.16,0,0,1-.17.12H78.28A.16.16,0,0,1,78.11,56.31Z"/><path d="M88.78,53.26a.13.13,0,0,1-.14.14H84.17s0,0,0,.06a2.68,2.68,0,0,0,.08.73,1.49,1.49,0,0,0,.62.87,2.11,2.11,0,0,0,1.19.32,1.79,1.79,0,0,0,1.59-.86c.05-.09.11-.1.18,0l.8.53c.07.06.08.12,0,.18a2.7,2.7,0,0,1-1.11,1,3.59,3.59,0,0,1-1.63.36,3.12,3.12,0,0,1-1.72-.45,2.65,2.65,0,0,1-1-1.27,5.39,5.39,0,0,1-.34-2,5.67,5.67,0,0,1,.16-1.56,2.65,2.65,0,0,1,1-1.52,2.93,2.93,0,0,1,1.83-.56,2.81,2.81,0,0,1,2.11.71A3.41,3.41,0,0,1,88.74,52C88.77,52.36,88.79,52.79,88.78,53.26Zm-4-2.61a1.48,1.48,0,0,0-.54.81,3.56,3.56,0,0,0-.12.78s0,.06,0,.06h3.21a.05.05,0,0,0,.06-.06,3.88,3.88,0,0,0-.09-.69,1.55,1.55,0,0,0-1.58-1.2A1.58,1.58,0,0,0,84.78,50.65Zm.25-2.3a.09.09,0,0,1,0-.11l.83-1.52a.16.16,0,0,1,.16-.09H87c.06,0,.09,0,.11,0a.15.15,0,0,1,0,.11l-1,1.52a.19.19,0,0,1-.16.09h-.75A.13.13,0,0,1,85,48.35Z"/><path d="M97.85,46.63h1.07a.12.12,0,0,1,.14.14v9.52a.13.13,0,0,1-.14.14H97.85a.13.13,0,0,1-.14-.14v-.47a.08.08,0,0,0,0,0s0,0,0,0a2.17,2.17,0,0,1-.73.54,2.13,2.13,0,0,1-.91.2,2.72,2.72,0,0,1-1.67-.5,2.8,2.8,0,0,1-1-1.41,5.23,5.23,0,0,1-.27-1.79,5.61,5.61,0,0,1,.23-1.69,2.75,2.75,0,0,1,1-1.44A2.71,2.71,0,0,1,96,49.19a2.18,2.18,0,0,1,.91.19,1.93,1.93,0,0,1,.73.54s0,0,0,0a.05.05,0,0,0,0,0V46.77A.12.12,0,0,1,97.85,46.63Zm-.17,6.23a3.63,3.63,0,0,0-.35-1.8,1.29,1.29,0,0,0-1.19-.71A1.34,1.34,0,0,0,94.9,51a3.38,3.38,0,0,0-.45,1.85,3.76,3.76,0,0,0,.35,1.74,1.39,1.39,0,0,0,1.33.77,1.34,1.34,0,0,0,1.23-.76A3.71,3.71,0,0,0,97.68,52.86Z"/><path d="M105,49.41a.13.13,0,0,1,.07.17l-.22,1.05c0,.08-.07.11-.17.08a1.57,1.57,0,0,0-.56-.09h-.2a1.55,1.55,0,0,0-1.08.46,1.47,1.47,0,0,0-.43,1.11v4.09a.12.12,0,0,1-.14.14h-1.06a.12.12,0,0,1-.14-.14V49.44a.12.12,0,0,1,.14-.14h1.06a.12.12,0,0,1,.14.14v.74s0,0,0,0,0,0,0,0a2,2,0,0,1,1.72-1A1.79,1.79,0,0,1,105,49.41Z"/><path d="M106.39,47.93a1,1,0,1,1,.64.25A.87.87,0,0,1,106.39,47.93Zm-.06,8.34V49.44c0-.09,0-.14.15-.14h1.06a.13.13,0,0,1,.14.14v6.83a.12.12,0,0,1-.14.14h-1.06C106.38,56.41,106.33,56.37,106.33,56.27Z"/><path d="M114.79,49.87a2.4,2.4,0,0,1,.67,1.8v4.62a.12.12,0,0,1-.14.14h-1.06a.12.12,0,0,1-.14-.14V51.93a1.6,1.6,0,0,0-.41-1.13,1.53,1.53,0,0,0-2.15,0,1.54,1.54,0,0,0-.42,1.12v4.37a.13.13,0,0,1-.14.14h-1.07a.13.13,0,0,1-.14-.14V49.44a.13.13,0,0,1,.14-.14H111a.13.13,0,0,1,.14.14v.5s0,0,0,.05,0,0,0,0A2.14,2.14,0,0,1,113,49.2,2.45,2.45,0,0,1,114.79,49.87Z"/><path d="M117.37,56.29V46.77c0-.1,0-.14.14-.14h1.06a.12.12,0,0,1,.14.14v5.39s0,0,0,0,0,0,0,0l2.59-2.81a.19.19,0,0,1,.17-.07h1.24c.06,0,.1,0,.11.05a.13.13,0,0,1,0,.12l-1.8,2.08a.18.18,0,0,0,0,.09l2.15,4.62v.05c0,.08,0,.12-.13.12h-1.12a.16.16,0,0,1-.15-.12l-1.67-3.8s0-.06-.07,0L118.74,54a.26.26,0,0,0,0,.07v2.27a.13.13,0,0,1-.14.14h-1.06A.12.12,0,0,1,117.37,56.29Z"/><path d="M124.23,59.07v-.82c0-.1,0-.14.14-.14h0a2.85,2.85,0,0,0,.89-.14,1.13,1.13,0,0,0,.53-.47,4.32,4.32,0,0,0,.4-1s0,0,0-.09l-2.33-6.93,0-.05c0-.07,0-.1.13-.1h1.13a.17.17,0,0,1,.17.11l1.58,5.28a.05.05,0,0,0,0,0,.05.05,0,0,0,0,0l1.56-5.28a.18.18,0,0,1,.17-.11h1.11c.1,0,.14.05.11.15l-2.55,7.47a6,6,0,0,1-.64,1.43,1.83,1.83,0,0,1-.84.67,4.33,4.33,0,0,1-1.46.19h-.1C124.26,59.21,124.23,59.17,124.23,59.07Z"/><path class="cls-10" d="M95.37,30.47V24.7L108,14.4c1.6-1.36,2.65-2.73,2.65-4.5,0-2.06-1.6-3.5-4-3.5s-4.24,1.81-4.56,4.41L94.68,9.9C95.41,4,100.71.5,107,.5c5.93,0,11.69,2.85,11.69,9,0,4.16-2.7,6.6-5.66,9l-7.49,6h13.19v6Z"/><path class="cls-11" d="M10.15,9.24H1.71L.91,18.9V8.19H9a11.71,11.71,0,0,1,8.51,3.5,12,12,0,0,0-7.35-2.45m-2,16.18H6.69V12.65H8.23c4.22,0,7.2,2.3,7.2,6.39,0,4.45-3.35,6.38-7.27,6.38M9.44,7.62H.12V30.45H9.44c7,0,12.83-5,12.83-11.41S16.47,7.62,9.44,7.62"/><path class="cls-12" d="M32,9.28H23.94l-.6,9.66V8.22l8.59,0c3.18,0,5,1.31,7,3.46A10.75,10.75,0,0,0,32,9.28m-2.16,8.57h-.63V12.16h.63c2.15,0,4.56.37,4.56,2.85S32,17.85,29.84,17.85m5.87,3.24a6.29,6.29,0,0,0,5.53-6.44c0-4.88-3.79-7-8.78-7H22.64V30.45h6.57V21.67h.07l6.19,8.78h8.18Z"/><path class="cls-13" d="M48.15,8.13l-3.7,1-1,8v-9Zm-5.41-.51V30.45h6.57V7.62Z"/><path class="cls-14" d="M78,9.13l-1,8v-9h4.67Zm17.85,2.08-1.3-.16a1.19,1.19,0,0,1-1.1-1.28q.06-.46.15-.9h0l-1.63.27-6,5.51,5.49-6.52h2.31c0-.17.1-.35.16-.52H91L83.06,17H83V7.62H76.42V30.45H83v-9.9h.07l8.48,9.9h2.55V24.7a1.13,1.13,0,0,1,.18-.59l-5.18-5.68Z"/><path class="cls-15" d="M152.64,25.26a6.77,6.77,0,0,1-7-6.7c0-3.09,3.17-5.92,7-5.92s7,2.83,7,5.92a6.77,6.77,0,0,1-7,6.7m-12.06-4.38a12.61,12.61,0,0,0,.51,3.59,11.36,11.36,0,0,1-1.19-5.18c0-7,5.29-11.68,13-11.68a13.07,13.07,0,0,1,6.73,1.67,15.25,15.25,0,0,0-5.18-.85c-8.25,0-13.89,4.94-13.89,12.45m-19.45-12a14.18,14.18,0,0,1,9.75.07,14.38,14.38,0,0,0-2.09-.15,15,15,0,0,0-5.11.89,20.08,20.08,0,0,1-1.8,1.6l-1.16.93a10.32,10.32,0,0,0,.41-3.34M152.64,7C145.81,7,139.5,11.34,139,17.64H127.67v4.58h5.27c-.26,2.59-2.4,3.9-5.2,3.9-4.25,0-6.55-3.54-6.55-7s2.2-7.08,6.45-7.08A5.59,5.59,0,0,1,133,15.59l6.13-2.32C137,9.07,133,7,127.94,7a15.36,15.36,0,0,0-8,2c0,.14,0,.28,0,.43,0,4.28-2.53,6.92-5.49,9.36v.26a12.08,12.08,0,0,0,.73,4.23h3.53A1.22,1.22,0,0,1,120,24.45V29a15.11,15.11,0,0,0,7.7,1.93c4.15,0,7.8-1.34,10.24-4.4a10.74,10.74,0,0,0,1.82-3.37c1.89,4.72,6.72,7.77,12.87,7.77,8,0,13.73-5.12,13.73-12.38,0-6.78-6.58-11.54-13.73-11.54"/><path class="cls-16" d="M55.64,8.13l-3.7,1-1,8v-9Zm18.59,0-3.7,1-1,8v-9Zm1.26-.51H68.92v14h-.07l-12-14H50.25V30.45h6.57v-14h.07l12,14h6.57Z"/></svg>