<?xml version="1.0" encoding="utf-8"?>
<!-- Generator: Adobe Illustrator 24.0.3, SVG Export Plug-In . SVG Version: 6.00 Build 0)  -->
<svg version="1.1" id="Layer_1" xmlns="http://www.w3.org/2000/svg" xmlns:xlink="http://www.w3.org/1999/xlink" x="0px" y="0px"
     viewBox="0 0 106.84 116.3" style="enable-background:new 0 0 106.84 116.3;" xml:space="preserve">
<style type="text/css">
	.st0{fill:#333333;}
	.st1{opacity:0.39;}
</style>
    <g>
	<path class="st0" d="M77.75,87.96c-0.63-3.32-1.23-6.65-1.84-9.98c-0.02-0.1-0.03-0.2-0.1-0.28c-0.68-0.77-0.88-1.66-0.78-2.67
		c0.05-0.43,0.17-0.86,0.09-1.3c-0.35-1.89-0.7-3.79-1.04-5.68c-0.68-3.71-1.36-7.42-2.04-11.12c-0.94-5.11-1.88-10.22-2.83-15.33
		c-0.7-3.8-1.42-7.59-2.09-11.39c-0.34-1.91-1.14-3.55-2.45-4.96c-1.1-1.18-2.37-2.19-3.39-3.46c-0.07-0.08-1.2-1.31-1.28-1.86
		c-0.03-0.19,0-0.25,0.17-0.32c0.13-0.05,0.36-0.06,0.32-0.29c-0.09-0.54-0.16-1.09-0.34-1.61c-0.07-0.2-0.2-0.25-0.4-0.23
		c-0.28,0.04-0.55,0.07-0.83,0.11c-5,0.85-9.99,1.78-14.98,2.72c-5.63,1.06-11.26,2.14-16.89,3.22c-1.73,0.33-3.47,0.66-5.19,1.07
		c-0.37,0.09-0.43,0.15-0.39,0.53c0.04,0.48,0.16,0.94,0.25,1.41c0.04,0.21,0.16,0.33,0.38,0.26c0.28-0.08,0.3,0.07,0.29,0.28
		c-0.04,0.69-0.22,1.35-0.44,1.99c-0.36,1.15-0.86,2.25-1.35,3.34c-0.28,0.49-0.47,1.03-0.65,1.57c-0.37,1.12-0.62,2.26-0.53,3.44
		c0.12,1.51,0.49,2.98,0.78,4.47c0.05,0.25,0.1,0.5,0.15,0.76c0.05,0.28,0.1,0.55,0.15,0.83c0.04,0.23,0.09,0.47,0.13,0.7
		c0.05,0.26,0.1,0.51,0.15,0.77c0.05,0.23,0.09,0.47,0.14,0.7c0.02,0.24,0.06,0.48,0.14,0.71c0.02,0.26,0.06,0.52,0.15,0.77
		c0.02,0.28,0.07,0.56,0.16,0.83c0.01,0.26,0.06,0.51,0.15,0.76c0.06,0.5,0.17,0.98,0.28,1.47c0.11,0.57,0.22,1.14,0.33,1.71
		c0.05,0.26,0.1,0.51,0.15,0.77c0.05,0.27,0.1,0.55,0.15,0.82c0.05,0.27,0.1,0.55,0.16,0.82c0.05,0.26,0.1,0.51,0.15,0.77
		c0.09,0.45,0.18,0.9,0.27,1.35c0.1,0.53,0.2,1.06,0.31,1.59c0.16,0.93,0.32,1.85,0.54,2.77c0.03,0.28,0.07,0.55,0.16,0.82
		c0.01,0.1,0.02,0.2,0.03,0.3c0.03,0.26,0.05,0.52,0.17,0.76c0.05,0.38,0.12,0.75,0.22,1.11c0.11,0.59,0.22,1.18,0.34,1.77
		c0.06,0.33,0.13,0.67,0.19,1c0.05,0.25,0.1,0.51,0.15,0.76c0.05,0.28,0.1,0.55,0.16,0.83c0.05,0.23,0.1,0.47,0.14,0.7
		c0.04,0.22,0.08,0.43,0.12,0.65c0.05,0.25,0.1,0.51,0.15,0.76c0.04,0.2,0.08,0.39,0.11,0.59c0.05,0.25,0.1,0.51,0.15,0.76
		c0.03,0.28,0.08,0.56,0.16,0.83c0.03,0.26,0.07,0.51,0.15,0.76c0.02,0.26,0.07,0.52,0.15,0.77c0.02,0.26,0.07,0.51,0.15,0.76
		c0.03,0.32,0.09,0.64,0.18,0.94c0.06,0.47,0.15,0.94,0.27,1.41c0.18,0.92,0.35,1.84,0.53,2.76c0.12,0.61,0.23,1.22,0.35,1.82
		c0.07,0.35,0.14,0.7,0.21,1.06c0.05,0.23,0.09,0.47,0.14,0.7c0.05,0.24,0.09,0.47,0.14,0.71c0.03,0.26,0.07,0.51,0.15,0.76
		c0.02,0.28,0.08,0.56,0.16,0.83c0.02,0.26,0.07,0.51,0.15,0.76c0.01,0.24,0.06,0.48,0.14,0.71c0.01,0.06,0.01,0.12,0.02,0.18
		c0.36,1.85,0.71,3.69,1.07,5.54c0.27,1.37,0.54,2.73,0.81,4.1c0,0.12,0.03,0.24,0.1,0.35c0.11,0.41,0.38,0.72,0.7,0.98
		c0.78,0.63,1.71,0.9,2.66,1.13c0.61,0.15,1.25,0.2,1.83,0.48c0.71,0.34,1.3,0.84,1.81,1.42c0.82,0.93,1.83,1.34,3.05,1.43
		c1.86,0.14,3.72,0.04,5.57-0.12c2.65-0.22,5.28-0.62,7.91-1.07c1.77-0.31,3.52-0.67,5.27-1.07c2.67-0.6,5.31-1.28,7.89-2.2
		c1.18-0.42,2.35-0.85,3.4-1.54c0.58-0.37,1.05-0.84,1.31-1.48c0.23-0.57,0.48-1.12,0.82-1.64c0.33-0.52,0.71-0.98,1.24-1.32
		c0.79-0.5,1.59-0.99,2.27-1.64C77.43,89.96,77.97,89.13,77.75,87.96z M58.5,47.12c-0.46-2.02-0.81-4.06-1.2-6.1
		c-0.3-1.58-0.59-3.16-0.9-4.73c0.31,1.58,0.6,3.15,0.9,4.73C57.69,43.06,58.04,45.1,58.5,47.12z M30.6,63.1
		c-0.22,0.04-0.43,0.08-0.65,0.12C30.17,63.18,30.39,63.14,30.6,63.1c0.22-0.04,0.43-0.08,0.65-0.12
		C31.04,63.02,30.82,63.06,30.6,63.1z M55.67,83.31c0.05,0.41,0.19,0.8,0.29,1.19C55.86,84.11,55.72,83.72,55.67,83.31
		c-0.13-0.59-0.21-1.18-0.21-1.77C55.46,82.13,55.54,82.72,55.67,83.31z"/>
</g>
    <g class="st1">
	<path class="st0" d="M78.51,75.74c0.01-2.87,0.05-5.73,0.08-8.6c0-0.08,0.01-0.17-0.04-0.25c-0.44-0.75-0.47-1.52-0.22-2.34
		c0.11-0.35,0.28-0.68,0.29-1.07c0.01-1.63,0.03-3.26,0.05-4.89c0.03-3.19,0.07-6.39,0.1-9.58c0.04-4.4,0.08-8.81,0.12-13.21
		c0.03-3.27,0.04-6.54,0.1-9.81c0.03-1.64-0.38-3.14-1.24-4.52c-0.72-1.16-1.62-2.21-2.26-3.42c-0.04-0.08-0.79-1.28-0.76-1.76
		c0.01-0.17,0.04-0.21,0.19-0.24c0.12-0.02,0.31,0.01,0.31-0.19c0.01-0.46,0.04-0.93-0.02-1.39c-0.03-0.18-0.13-0.24-0.29-0.25
		c-0.24-0.01-0.47-0.03-0.71-0.04c-4.3-0.1-8.6-0.13-12.9-0.15c-4.86-0.03-9.72-0.04-14.58-0.05c-1.5,0-2.99-0.01-4.49,0.05
		c-0.32,0.01-0.38,0.06-0.41,0.38c-0.04,0.4-0.02,0.81-0.02,1.22c0,0.18,0.08,0.3,0.27,0.28c0.24-0.02,0.24,0.11,0.19,0.28
		c-0.15,0.57-0.4,1.09-0.69,1.59c-0.49,0.9-1.08,1.73-1.66,2.57c-0.31,0.37-0.56,0.78-0.79,1.2c-0.49,0.87-0.88,1.78-1,2.78
		c-0.14,1.28-0.07,2.56-0.07,3.84c0,0.22,0,0.44,0.01,0.66c0,0.24,0,0.48-0.01,0.71c0,0.2,0,0.41,0,0.61c0,0.22,0,0.44,0,0.66
		c0,0.2,0,0.4,0,0.6c-0.02,0.2-0.03,0.41,0,0.61c-0.02,0.22-0.03,0.44,0,0.66c-0.03,0.24-0.03,0.48,0,0.71
		c-0.03,0.22-0.03,0.44,0,0.66c-0.03,0.42-0.02,0.85,0,1.27c0,0.49,0,0.98,0,1.47c0,0.22,0,0.44,0,0.66c0,0.24,0,0.47,0,0.71
		c0,0.24,0,0.47,0,0.71c0,0.22,0,0.44,0,0.66c0,0.39,0,0.78,0,1.17c0,0.46,0,0.91,0,1.37c-0.02,0.8-0.03,1.59,0,2.39
		c-0.02,0.23-0.03,0.47,0,0.7c-0.01,0.09-0.02,0.17-0.02,0.26c-0.02,0.22-0.04,0.44,0.02,0.66c-0.02,0.32-0.02,0.64,0,0.96
		c0,0.51,0,1.02-0.01,1.52c0,0.29,0,0.57,0,0.86c0,0.22,0,0.44,0,0.66c0,0.24,0,0.47,0,0.71c0,0.2,0,0.41,0.01,0.61
		c0,0.19,0,0.37,0,0.56c0,0.22,0,0.44,0,0.66c0,0.17,0,0.34,0,0.51c0,0.22,0,0.44,0,0.66c-0.02,0.24-0.02,0.48,0,0.71
		c-0.02,0.22-0.03,0.44,0,0.65c-0.03,0.22-0.02,0.44,0,0.67c-0.02,0.22-0.03,0.44,0.01,0.66c-0.03,0.27-0.03,0.54,0,0.82
		c-0.03,0.4-0.03,0.81,0,1.21c0,0.79-0.01,1.59-0.01,2.38c0,0.52,0,1.05-0.01,1.57c0,0.3,0,0.61,0,0.91c0,0.2,0,0.41,0,0.61
		c0,0.2,0,0.41,0,0.61C38,64.79,38,65,38.02,65.22c-0.03,0.24-0.02,0.48,0,0.72c-0.02,0.22-0.02,0.44,0,0.65
		c-0.03,0.2-0.02,0.41,0,0.61c0,0.05-0.01,0.1-0.01,0.15c0,1.59,0,3.19,0,4.78c0,1.18,0,2.36,0.01,3.54
		c-0.02,0.1-0.01,0.21,0.02,0.31c0.03,0.36,0.2,0.66,0.42,0.93c0.54,0.65,1.28,1.02,2.03,1.37c0.48,0.23,1.01,0.37,1.45,0.69
		c0.54,0.4,0.94,0.91,1.28,1.47c0.53,0.9,1.31,1.41,2.31,1.69c1.53,0.42,3.09,0.63,4.66,0.8c2.24,0.24,4.5,0.34,6.75,0.39
		c1.52,0.03,3.04,0.01,4.56-0.04c2.32-0.07,4.63-0.21,6.92-0.55c1.05-0.16,2.09-0.33,3.08-0.73c0.54-0.21,1.01-0.53,1.33-1.02
		c0.28-0.44,0.58-0.86,0.95-1.23c0.36-0.38,0.75-0.7,1.25-0.9c0.74-0.29,1.48-0.57,2.16-1C77.92,77.36,78.51,76.75,78.51,75.74z
		 M69.09,38.66c-0.06-1.76-0.02-3.51-0.02-5.27c0.01-1.36,0.02-2.72,0.02-4.08c0,1.36-0.01,2.72-0.02,4.08
		C69.07,35.15,69.03,36.9,69.09,38.66z M43.3,47.45c-0.19,0-0.37,0-0.56,0C42.93,47.45,43.12,47.45,43.3,47.45c0.19,0,0.37,0,0.56,0
		C43.67,47.45,43.49,47.45,43.3,47.45z M60.89,68.31c-0.02,0.35,0.03,0.69,0.05,1.04C60.92,69,60.87,68.66,60.89,68.31
		c-0.02-0.51,0.01-1.02,0.11-1.51C60.9,67.29,60.88,67.8,60.89,68.31z"/>
</g>
</svg>
