<svg xmlns="http://www.w3.org/2000/svg" xmlns:xlink="http://www.w3.org/1999/xlink" viewBox="0 0 46 46"><defs><style>.cls-1,.cls-8{fill:none;}.cls-2{clip-path:url(#clip-path);}.cls-3{opacity:0.08;}.cls-4{fill:#fff;}.cls-5{fill:#4a1801;}.cls-6{fill:#b79474;}.cls-7{fill:#d6b36f;}.cls-8{stroke:#000;stroke-miterlimit:10;stroke-width:3px;}</style><clipPath id="clip-path"><rect class="cls-1" x="1417" y="-1884" width="1938" height="4780"/></clipPath></defs><title>DRINK2GO_WEB_plechovka_ikona</title><g id="Vrstva_1" data-name="Vrstva 1"><g class="cls-2"><g class="cls-3"><path class="cls-4" d="M-1530.31-1993.15v-659.67H5795v5491.3H-1530.31V2276.16c7.16-7.9,13.62-16.55,22.89-22.27,6.91-4.26,15.11-9.59,22.09-3.06,24.46,22.86,50.57,9.94,75.65,3.6,12.62-3.18,23.88-6,36.1-.3,7.58,3.53,15.76,4.35,23.26.25,13.06-7.15,24-7.39,36.37,3.24s25.68,4.37,35.94-5.47c16.11-15.46,34.06-28.69,50.58-43.65,18.93-17.13,25.67-15.32,37.16,7.36,10,19.75,22.35,22.75,40.66,9.49,8.69-6.29,15.57-14.63,23.39-21.92,7.23-6.75,14.84-14.95,24.85-14.48,22.89,1.07,41.59-7.4,58.95-20.91,9.72-7.57,17.53-5.63,24.51,4.54,8.63,12.57,20.23,15.66,35.11,10.81,22.14-7.23,35.19,3.38,43.52,23.6,10.39,25.2,18.51,28.35,42.87,15.37,17.75-9.47,33.35-18.8,54.1-4.86,11.66,7.83,23.72-1.84,33.49-10.11,9.53-8.07,19.69-15.32,29.53-23a47.45,47.45,0,0,1,13.66-6.84c1.25-.24,2.52-.43,3.77-.67,1.25.09,2.52.22,3.79.31,1.19.37,2.39.79,3.59,1.14,2.34.85,4.64,1.83,6.93,2.79,13.57,3.71,27.59,5.22,39.95,13.6,14,9.48,27.27,2.75,39.23-6,22.18-16.31,43.47-33.75,64.83-51.12,6.2-5,12.55-10.14,20.26-12.58,10.47-3.3,16-.26,12.1,11.59-2.72,8.34-8.75,16.24-5.7,25.42,5.57,16.76,18.83,16.89,32.71,13.06,12.95-3.59,19-1.81,20.31,14,2.19,27.11,17.12,32.37,39.13,15.55,7-5.37,12.47-12.71,20.64-16.7a13.52,13.52,0,0,1,11,.68c4.14,4.21,2.5,9.89,3.79,14.82,5.47,20.9,21.69,27.48,39.93,16,11.15-7,18.85-18.26,29.85-25.51,1.78-1.3,3.68-2.47,5.55-3.6.86-.59,1.8-1.13,2.66-1.72,1.59-1.23,3.26-2.4,4.87-3.61.72-.64,1.52-1.24,2.25-1.87,1.36-1.31,2.82-2.56,4.24-3.81.65-.65,1.37-1.26,2-1.91,1.26-1.3,2.61-2.54,3.94-3.77.63-.64,1.31-1.23,1.94-1.87,1.19-1.31,2.49-2.52,3.8-3.72,0,0,1.93-1.82,1.88-1.86,1.18-1.31,2.46-2.52,3.74-3.72,0,0,1.92-1.82,1.88-1.87,1.18-1.33,2.46-2.57,3.75-3.79.62-.66,1.28-1.27,1.9-1.93,1.23-1.38,2.53-2.67,3.84-4,.64-.7,1.31-1.34,2-2,1.28-1.48,2.63-2.85,4-4.26.67-.76,1.37-1.45,2-2.21,1.34-1.61,2.75-3.11,4.18-4.64.73-.83,1.48-1.57,2.21-2.39,7.33-7.08,13.78-15,22.11-21.07a16.25,16.25,0,0,1,6.83-2c17.38,7.61,4.11,15.55-.73,21.48-12.22,15-28.1,26.66-39.33,42.61a67.63,67.63,0,0,1-4,5.76,69.09,69.09,0,0,0-9.18,14.63c-.85,2.26-1.8,4.44-2.68,6.67-3.93,10.25-2.08,20.53,5.29,27.33,12.05,11.12,20,24.52,28.41,38.19,9.52,15.44,31.46,15.52,49.47.85,16.58-13.5,30.53-29.88,45.93-44.71,35.35-34,81.52-29,107.47,11.55,6.73,10.52,15,20,23.31,29.16,15.38,16.84,40.2,10.85,64.29-14.3,15.63-16.47,33-22.18,55.46-13.2,19.47,7.78,38.93-.47,57.38-6.57,59.81-19.77,121-19.19,182.66-14.77,17.27,6.56,15.15,17.09,5.31,28.53-10.95,12.74-23.47,24-35.19,36-7.41,7.58-15.62,14.47-21.83,23.08-8.66,12-15.89,25.68-2.88,38.05,11.92,11.33,22.77.94,32.75-6.29,6.44-4.67,12.81-9.42,19-14.35,12-8,23.67-16.58,33.27-27.58,14.56-14.5,32.25-25.36,46.57-40.13a50.16,50.16,0,0,1,5.89-4,85.43,85.43,0,0,0,8.63-6.19c10-9,19-19.21,31.72-24.69a40.38,40.38,0,0,1,7.49-2.34c13.35-1.87,27.07-.72,40.06-5.31q73.2-4.08,146.2-10.48c6.29-.54,12.93-.59,18.31,2.47,17.76,10.1,34.42,4.39,51.11-2.49,19.12-7.87,38.73-13.16,59.62-12.48,12.2.4,21.59,4,28.32,16,12.67,22.52,20.41,24,42.38,11.76,7.76-4.34,14.84-9.83,23-13.6,29.8-12.28,22.8,15.27,30,27.55,9.22,17.35,23,17.49,38.8,10.42,15.6-7,29.43-16.83,43.53-26.31,5.85-3.93,12.54-8.62,19.4-2.49,5.68,5.08,3.13,11.78.58,17.44-18.52,41.13-12.84,76.33,24.54,104.34,11,8.22,13.34,20.5,14.29,33.37,1.16,15.77,7,28.89,25.28,28.42,16.92-.43,20.84,8.58,22.8,22.86,4.68,34.25,9.91,36.44,40.78,24.76,20.81-7.87,42.58-15.49,59.3,9.36,4.84,7.19,13.77,7.31,22.16,5.47,24.34-5.31,47.76-3.63,69.87,9,14.92,8.53,25.94,2.26,33.82-10.68,8.75-14.37,18-18.8,31.67-5.66,6.49,6.21,15.75,8.33,24.11,11.38,23.89,8.72,38.49,3.94,41.28-21.2,4.73-42.67,42.34-54.53,67.26-76.46,14.08-12.4,26-22.22,30.21-40.39,2-8.71,3.88-17.45,6-26.12,8-32.17,31.88-41.68,58-21.4,12.09,9.38,22.54,19.74,38.6,22.06,7.7,1.1,11,8.51,14.42,14.84,4.39,8,9.25,16.16,20,15,12.3-1.38,20.38-10.39,21.26-21.18,3-36.43,30.53-41.22,57.54-47.52,12,12.74,6.5,28.64,7.6,43.26,1.27,16.78-1.74,33.75,2.15,50.36,18,25.18,29,24.46,45.4-3.12,6.29-20-2-41.33,6.11-61a9.8,9.8,0,0,1,6.24-4.77c18,7.18,34.32,22.2,56.16,10.46,3.45-1.86,8.46,1.69,12.23,4.11,23,14.71,45.69,24,70,1.3,8.37-7.82,12.3.42,13.86,8,2.27,11.06-3.46,20.77-6,31-3.11,12.78.21,23.57,13,28.52,14,5.43,21.17-3.93,27.06-14.86,9.5-17.6,5.22-38.8,14.82-56.39,7.83-10.78-2.79-34.89,14.82-34,12.84.63,7.34,22.43,8.45,35,.84,9.4,4.64,16.74,10.88,23.29,14.61,18.38,31,18.35,49,5.18,8.64-6.3,17.76-12,26.3-18.39,16.46-12.38,31.95-18.8,49.23-.08,10.57,11.45,26.41,9.68,40.56,9,57-2.67,113.63-10.2,170.11-17.6,152.29-19.94,305-30.15,458.53-25.11,10.49.76,21.06.31,31.56,1.26,8.12.74,18.52,2.57,20.13,10.14,6.12,28.62,32.5,42.43,45.42,65.73,17.54,17.47,44.09,24.1,54.66,51,4.77,12.15,24.35,6.61,31.32-7.71,5.82-12,4.45-26.17,11.54-37.8a12.51,12.51,0,0,1,10.78-2.74c11.54,4.9,15.86,16.16,22.14,25.58,16.23,24.37,27.45,25,46.67,2.2,4-4.74,7.93-9.51,12.06-14.08,5-5.11,6.12-12,8.24-18.41a13.48,13.48,0,0,1,4.53-5.29,15.74,15.74,0,0,1,7.07-.88,19.06,19.06,0,0,1,6.52,3.23,26.93,26.93,0,0,0,13.66,6c26.51-4.46,49.8-14.71,64.49-38.25,8.77-14.05,16.86-13.4,30.66-5.93,20.33,11,40.74,19,51.76,42.71,7.36,15.88,24.65,15.56,34.28-.48,13.53-22.55,31-37.23,55.19-47.52,19.62-8.36,18.26-28.86,16.36-47.06-5.52-53-2.25-59,50.78-69.18,22.81-4.39,30.86-15.18,26.88-36.85-2.32-12.67-2.84-25.1,5.84-35.78,12-14.75,12.58-30.89,6.75-48-5.08-14.91-6.11-29.27,1.84-44,8.86-16.37,4.87-33.93-1.37-49.5-18.33-45.7,1.52-84.58,19.62-124,1.84-4,6.53-7.7,6-11.75-6.35-46.64,24.76-83.47,32.64-126.32,1.31-7.14,1.52-14.38-.33-21.3-19.55-73.19-3.49-147.6-7.65-221.3-.45-8-.13-17,4.87-23.3,18.4-23.08,16-50,16.33-76.76,1.69-127.74-1.43-255.68-7.61-383-7.43-152.92,9.91-303,26.47-453.72,3.51-31.95,3-64.16,7.09-96.12,2.1-16.29-3.75-30.59-22-34.93-16.78-4-20.38-16.29-19.78-30.48,2.53-59.94-5.87-119.49-5.68-179.31a125.75,125.75,0,0,0-12.75-56.74c-16.73-34.58-9.48-72.2-7.26-108.24,3.36-54.3,6-108.65,9.14-163a210.5,210.5,0,0,1,7.08-44.86c6.16-18.73,10.77-37.69,9.82-57.72-.56-11.79,1.85-22.77,9-32.89,25.73-36.33,23.37-75.3,8.7-114.65-4-10.66-2.31-19.66-.92-30.54,4.67-36.29,19.51-69.82,8.72-110.25-12-44.81-7.87-94.09-.36-141,3.26-20.34,4.92-37-17.56-47-12.76-5.65-13.2-18.36-12.88-30.07,1.05-38.33,1-76.7,2.22-115,1.16-37.06-2.19-74.72-2.49-112.16-.12-14.4,1.12-28.55,5.15-42.4,5.72-19.7,11-21.4,27.47-8.31,8.4,6.69,15.46,14.83,22.51,22.93,4.76,5.46,9.81,11.46,18,7.87,7.48-3.25,8.79-10.69,9.48-18,.58-6.28-.78-12.46-1.15-18.69-2.55-43.17-4.53-86.61-8.47-129.39-3.14-34-11.94-65.15,6.13-97.92,6.38-11.56-.48-28-4.77-41.78-9.36-30-13.32-61-15.3-92.3-1.32-20.92,3-39.85,13.92-58.75,18.29-31.74,14.25-67.66,11.18-102.25-1.82-20.48-4.33-40.84-3.73-61.41.62-20.93-1.11-41-14.49-58.55-5-6.57-8.85-15.72-5.82-22.69,9.73-22.35,2.4-47.25,12.37-69.52,5.5-12.29,6.44-25.86,1.17-39.2-3.38-8.57-4.54-18.12.06-26.11,11.55-20.07,2.7-32.39-12.6-45.67-13.47-11.68-25.36-25.15-41.54-33.34s-31.75-12.84-51-6.45c-25.87,8.61-46.57-.5-62.22-22.86-7.35-10.5-14.91-19.72-29-21.33-10.22-1.17-17.27-8.43-24.52-15.3-28.83-27.28-51.87-26.08-81.52.31-22.87,20.35-49.25,34.75-81.93,29.71-7.55-1.17-13.73,2.58-20.53,4.59-16.76,5-28.6-6.65-22.55-23,7.89-21.39-1.87-41.43-4.22-61.5-1.94-16.52-39.35-18-49-.68-17.59,31.45-42.15,44.57-77.34,39.61-8-1.13-13.63,2.94-16.92,10.33-1.44,3.26-2.53,8.15-5.45,9-34,9.41-21.34,34.45-17.52,54.9,4.86,26-10.94,45.93-17.24,68.49-2.93,10.48-16,13.8-27.07,14.23-14.29.55-28.41,3.62-42.75,2.82-10.25-.56-17.67,3.5-20.84,13.14-7.6,23.09-25.76,27.88-46.74,27.42-19.55-.44-34.64,3.78-41.06,25.69-4.85,16.56-18.38,20.32-34.56,15.78-9.69-2.72-20.27-6.1-25.26-14.2-15.15-24.57-35-33.09-63.09-25.59-10.25,2.73-18.11-5.1-25-12.71-11.77-13-26.33-17.88-43.51-12.5-5.16,1.61-12.25,5.21-15.35,1.72-25.55-28.81-60.49-14.5-90.13-17.2-36.5-3.32-73.45-10.5-111.65-2.73-23.27,4.74-49.59.44-74.49-.85-16.29-.85-32.18-.44-47.34,6.19-12.17,5.33-23.63,4-36.28-.06-35.88-11.6-51.19-6.24-74.88,23.46-10.44,13.09-23.76,19.39-40.13,14.37-15.6-4.79-17-19.23-18.77-32.59-1.07-8,.95-16.07.73-24.07-.28-10,7.74-24-5.27-28.91a64.41,64.41,0,0,0-49.7,1.56c-13.11,6-10.45,18.54-9.41,30.51,3.37,38.4-4.68,76.35-5.92,114.63-.55,17-11.18,28.41-30.69,24.88-14.46-2.61-28.24,2.8-42.58,2.5-19.86-.42-29-8.69-29.78-29.06-1.37-34.81,7.79-69,4.08-104.06-1.54-14.59-5.73-26.17-16.16-35.11-13-11.11-26.14-4-35.81,9.08-28.54,38.72-11,81-12.83,121.68-1.47,32.58-9.33,40.46-40.25,36.86-22.62-2.63-29.78-12.33-30-35.65-.21-22.3,1.58-44.34,3.6-66.47,1.38-15.25-.8-29.54-20.68-30.82-18.28-1.17-36.65-2-43.53,21-3.4,11.33-2.78,23-3.55,34.55-1.81,27-10.34,34-37.82,31.74-3.56-.3.83.31-2.64-.41-17.39-3.61-36.83,3.29-52.41-7.27-16.38-11.11-8.07-31.57-13.67-47.25-6-16.79-11.65-29.38-32.86-27.22-20.85,2.11-31.69,10.06-32.81,33.21-1.54,31.92-24.82,53-56.84,51.09-40.16-2.34-80.23,3.08-120.27-.74-12.88-1.23-24.48,2-28.4,14.73-6.18,20.11-18.94,26.46-38.48,24-22-2.7-25.3-19.42-28.65-36.58-6.2-31.83-32.42-52.21-62.63-47.25-14.87,2.43-30.31,6.62-42.23,15.91-12.92,10.06-27.87,9-41.59,13.45-48.48,15.54-103.76,8.65-146.18,44.32-19,16-42.22,11.39-64.34,9-11.71-1.25-14.47-11.73-18.81-20.57-7.45-15.16-22.33-20.24-32.76-9-20.66,22.19-50.56,17.35-74,30.73s-49.6,17.36-76.71,5.47c-14-6.14-22.12.81-26.16,16.81-9.13,36.11-29.23,42.56-61.71,24-15.62-8.91-31.21-15.58-38.54-34.49-4.7-12.11-18.9-8-29-8.11-16.07-.17-32.21,2.84-44.39-12-4.54-5.54-11-4.2-17.21-1.43-37.34,16.66-72.35,16.5-108.09-7.61-30.56-20.61-67.77-20.36-103.5-21.78-13.35-.53-26.75.35-40.15.29-21.33-.08-39.23-3.39-45.25-27.93-1.49-6.07-5.91-11.58-12.91-12.16-9.21-.75-12,7-14.13,13.59-6,18.78-19.8,23.6-37.53,23.18-13.39-.32-26.8-.15-40.2-.07-16.89.12-30.19-4-32.2-23.93-1-9.83-6.2-16.52-16.24-18.86-2.61-.61-6.16-.8-7.48-2.63-17-23.67-29.16-17.83-48.32,1.15-17.72,17.56-80.84-2.24-93-25-4.09-7.66-9.45-12.72-17.11-16-9.43-4-15.76-10.5-20.16-20.18-11.38-25-20.82-27.17-37.39-5.63-16.83,21.87-37.3,31.38-64.1,32.44-20.62.81-31.85-8.46-37-27.25-5.68-20.78-8.66-41.61-6.88-63.48,2.07-25.4-15.12-41.64-40.58-41.19-34.12.6-42.56,6.69-49.22,45-3.93,22.61-13.87,36.39-36.36,39.66-11.2,1.63-18,6.4-20.33,17.65-2.93,13.92-11,21.83-26.09,21.84-13.06,0-21.91-4.59-26.44-17.78-6.36-18.5-24.06-24.84-39.05-21.21-46.14,11.19-91.77-6.94-137.86.87-14.93,2.52-23.16,5.14-25.4,20.14-2.68,18-13.61,21.67-30.8,20.77a781.75,781.75,0,0,0-106.9,1.67c-33,2.8-36.39-.23-47.54-31.53-10-28-33.22-44-60.23-52.31-15.23-4.7-29.38,3.51-40.24,15.88-23.87,27.17-52.22,32.9-83,15.86-14.19-7.84-26.37-15-39.61,1.88-7.85,10-20.15,3.55-30.51,4.05-14.55.7-28.62.29-29.06,21.78-.31,14.87-13.48,19.79-26.12,22.92-14.69,3.63-28.08-.76-35.07-13.33-10.24-18.42-26-24.89-44.91-29.62-30.16-7.54-42.07-24.72-41.86-56.11.2-30.1-1.08-31.43-31.26-32-16-.31-32.3,1.22-47.11-7.16-13.31-7.52-23.29,7.13-35.72,5.54a30.19,30.19,0,0,1-7.72-1.22c-13.09-6.2-22.6-16.83-30.52-28.23-13.09-18.81-27.09-20-43.76-5.57C-1520.68-1993.24-1524.92-1990.09-1530.31-1993.15Z"/><path class="cls-5" d="M972.06,1609.85c-29,.68-58.06,1.15-87.08,2.23-6,.22-11.88,2.73-17.82,4.18-11.07-8.19-22,.62-33.12.56-142.5-.7-285,1.59-427.47-1.7-44.11-1-88.7-1.51-132.88-5.84-5.16-.51-10.48.81-15.73,1.28-37.5.18-75,.28-112.51.61a72.71,72.71,0,0,1-30.84-6.15c-20.68-9-43.71-7.35-65.78-9.38-48.08-4.4-96.33-4.54-144.58-4.51-29.44,0-58.89-1-88.33-1.5-26.85-1.65-53.66,2.85-80.52.41q-128.05.7-256.11,1.37c-8.85,0-17.71-.72-26.56-1.12-8.55,3.47-17.57,2.28-26.27,1.8-63.64-3.55-126.91,7.43-190.37,4.71-14.8-.63-16.08,14.12-27.19,14.79-7.08-3.2-7.09-13.47-15.42-15.41-28.53,1.79-57.07,3.42-85.54-.89-6.19-.19-12.6-1.52-18.53-.36-21.42,4.18-41.92,6.7-60.82-8.87-6.07-5-15.58-2.06-23.54-2.2-10.57-.2-21.34,1.27-31.16-4.33-14.37,3-28.72,3.67-43-.48-55.71.68-111.42,1.63-167.13,1.92-28.29.15-56.59-.91-84.89-1.42-13.33,3.66-25.59.86-37.13-6.2-7.56-7.47-18.3-5.85-27.3-9.44-22.74-9.06-25.69-19.1-9.18-37.07,3.57-3.88,8-6.92,11.68-10-8.32-9.18-16.57-18-24.56-27.14-12.7-14.45-11.54-26.7,3.92-37.88,5-3.62,10.9-6.09,16.49-8.88,9.55-4.76,19.76-7.64,14.74-23.22-3-9.16,5.33-15.91,13.69-20.63,10.41-5.89,21.69-7.66,33.25-9.21,29.75-4,59.24-9.72,89.64-4.79,22.3,3.61,23.21.46,28.56-22.08,4.1-17.29.15-33.29-.54-50-1.93-46.34-2.29-92.87,1.51-139.14.92-11.24-3.06-14.44-11.33-16.9a30.3,30.3,0,0,0-10.54-1.41c-21.8,1.48-42-6-63-9.73-48.75-8.55-80.42-40-109.63-75.45-28.2-34.2-45.44-73.37-54.91-117.1-6-27.61-13.49-55.18-21.29-82.51-10.72-28.11-11.28-58.06-15.69-87.31,0-30.32-.08-60.64,0-90.93,2.23-25.87,15.1-49.28,17.44-75.16,11-25,27.5-30.6,56.39-29.93,53.65,1.23,107.73,7.53,161.46-.38,7.11-.61,14.36.2,21.33-2a31.32,31.32,0,0,1,8.29-.95c8.47.58,16.42-3.57,24.93-2.74,8.87.84,17.29-2.7,26.09-2.62,51.21,9.34,103.19,2.41,154.59,7.54,12.75,4.69,26.19,3.32,39.36,4.37,34.21,2.76,68.87-.36,102.67,8.75,8.08,2.18,17.64,2.74,25.61-3,2.85-18.53,16.63-20.7,31.59-21.1,2,1.75,4.86,3.55,4.72,6.07-2,36.52,17.37,66.87,28.5,99.61,2.84,36.29,4.55,72.58-.83,108.77-9.35,15.93-10.46,2.14-12.82-2.11-2.74,39.19-25.33,73.5-37.16,111.27-24.15,43.85-51.38,85.54-80.7,126.26-42.6,59.17-94,105-165.21,124.81-25.21,7-31.36,19.44-31,46,.6,49.76-2.77,99.7-4,149.59-.55,23,5,35,30.79,34.55,15.76-.26,31.79,4,47.82,5.18,8.93,2.16,18.19,3.7,25-4.08,20.13-22.94,47.7-26.1,75.37-29.41,33.17-1.67,66.37,1.07,99.46-1.1a116,116,0,0,0,10.55-4.9,51.48,51.48,0,0,1,6.5-3.59c1.14-.37,2.32-.71,3.48-1.06,3.87.07,6.54,2,8.28,5.38.86,2,1.63,4.14,2.42,6.18,7.63,9.22,19.48,4.64,28.69,8.72,62.48,2,124.92.4,187.35.77,6.22,0,12.6.37,17.49-4.4,2.23-4.31,1.23-8.66.12-13-1-4.56-1.27-9,2.25-12.73a8.63,8.63,0,0,1,6.32-1.25,19,19,0,0,1,5.34,3.75,31.71,31.71,0,0,1,3.57,5.37c1.11,1.8,2.14,3.66,3.24,5.5a63.38,63.38,0,0,0,4.3,4.94c4,3.22,8.7,4.15,13.58,4.9,49.3,4.25,98.35-2.62,147.08-5.81,87.57-5.72,175-3.91,262.4-3.39,116,.69,231.93,3.73,347.54,14.69,82.55,7.82,82.6,7.35,141.43-68.72a66.06,66.06,0,0,1,5.57-6.56c.89-1,1.9-2,2.8-3,18-21,38.05-40.36,51-65.31,29.78-46.81,65.72-88.89,102.19-130.43,13.83-15.77,13.15-26.88-3.3-39.07-7.92-5.86-15.47-12.16-24.49-16.16-34.85-15.46-63.9-38.63-90.12-66-20.17-21-20.59-20.63-33.9,4.17-11.5,21.42-26,40.77-44.32,56.56-18.58,16.05-42.5,17.1-65.79,18.72-15.87,4.78-32.16,4.77-48.46,4.67a59.66,59.66,0,0,0-19.62,2.9c-13,2.84-25.76,6.6-39,8.35-22.76,7.25-43.35,21.16-68.09,22.42-21.75-5.44-42.55,3.72-63.93,4.2-34.58-8.74-70.29-10.89-105.4-15.53-46.94-6.22-82.73-26.17-98.65-70.34-13.7-38-35.2-59.17-74.15-74.25-44.79-17.32-88.21-40.94-125.61-74.85-23.87-21.65-52.31-40-80.09-57.29-28.25-17.57-35.69-48-53.3-72-7.68-10.45,2.5-19.61,13.33-24.55,49.67-22.63,94-54.41,141-81.64,19.45-11.27,29-24.87,22.57-48.06-13-46.86-10.79-95.61-16.1-143.44-2.16-19.54-10.29-30.86-27.67-38.35-34.39-14.82-64.38-38.08-99-52.5-17.24-12.42-34.21-25.3-53.79-34.07-6.27-2.82-7.36-9.92-11.79-14.28v0c-2.56-3.55-7.74-2.4-10.37-5.81-45.32-29.84-47-36.93-21.45-86.25,14.85-28.66,35.26-53.55,53.88-79.59,24.42-34.16,45-70.51,65.49-107,17.07-30.4,39.59-57,59.18-85.66,4-5.89,8.18-11.72,11.71-17.9,3.71-6.48,2.9-11.9-5.16-14.61-35.39-11.88-64-34.27-91.18-58.89-9.32-8.44-22.07-11.37-31.33-20.27-19.58-18.85-33.41-41.58-45.65-65.37-2.82-5.47-4.69-10.84-9.23-15.66-8.42-8.9-5.75-15.75,6.45-16.92,22.17-2.13,42.79,1.09,57.61,20.53,29.89,39.17,71.51,63.34,113,87.64,9.21,5.4,19.05,9.73,28.59,14.55,33-3.89,41.93-33.37,58.32-55,40.19-53.57,75-110.88,116.19-163.72,7.65-9.81,11.7-16.71-4.13-24.06-32.05-14.89-39.64-35-20.85-66.71,22.87-38.53,40.88-79.16,60.38-119.21,7.42-15.24,16.17-29.89,22.29-45.72,23.79-61.55,48-72.4,123.21-65.31,39.24,3.7,77.18,8,116.48,2.89,33.06-4.27,65.58,5.86,98.25,10,33.86,4.33,67.24,2.28,101.17,1.11,83.7-2.9,167.54-5,250.88,10.74,35.12,6.65,72.46,13,106.45-9.22,9.41-6.14,23.92-3.48,25,6.21,3.1,28.76,30.74,40.63,39.88,64.46,4.74,23.17,18.74,42.36,27.7,63.74,11.74,65,51,119.46,69.5,182.21,24.6,83.7,62.29,163,77.77,250.14,9.29,52.33,29.63,102.78,50.57,152.16,24.09,43.6,31.61,92.84,46.61,139.5,19.66,61.12,36.56,123,62.7,182,32.26,72.84,48,150.9,68.36,229.41,15.44-10.18,28.59-23,40.5-37.3,55.35-66.6,110.89-132.93,173.06-193.55,35.81-34.92,64-76.82,96.79-114.6,24-27.64,49.19-54.22,72-83,10.67-13.47,11.39-24.41-1.55-37.2-78.77-77.86-126.11-172-143.72-281.22-5.4-75.45-17.86-150.56-8-226.7,2.83-22,1.43-44.6-3.18-66.71-5.43-26,3.27-51.5,3.73-77.32.26-14.82-.8-26.23-20.39-15-11.38,6.52-23.71,10.28-30.77-7-2.34-5.73-8.25-6.54-13.72-6.17-50.66,3.36-68.65-33.16-86-70.38-1.5-3.2-1.8-6.93-3.24-10.2-18.14-41.18-18.22-44.09,18.42-74.09,55-45,99-100.31,146.89-152,9.25-10,16.43-20.09,14.22-35.63s7.25-19.18,20-12.3c11.77,6.34,23.89,12.54,34.54,20.49,35,26.17,69.61,52.6,109,72.42,12.82,6.45,27.81,16.69,14.34,35.85-27.86,15.19-55.3,31.29-86.47,42.58,7.59,5.6,15.16,2.9,21.59,5.32,20,7.49,31.74,3.43,35-20.45,2.14-15.93,13-24.85,30.78-17.71a24.61,24.61,0,0,1,6.62,11.38c9.26,33.58,12.18,35.75,46.88,34.36,18.65-.75,36.81-6.08,55.58-6,27.51-6.57,55.32-5.41,83.16-3.65,25,4.33,50.13-4.37,75.1.75,27.43,16.91,52.93-.07,79.14-4.66a98.75,98.75,0,0,1,34.67-.68c16.21,6.21,32,7.88,48.34-.81,13.62-7.23,29.19-5.61,44.15-6.49,88.36-3.14,176.78-4.93,264.35-18.72,8-1.25,16-2.38,24-1,106.33,17.71,213.61,13.33,320.68,14,16,.1,32.19-1.42,48,2.34a22,22,0,0,1,7.46,4c-12,16.84,7.39,22.06,12.26,32.73A170.77,170.77,0,0,1,2730.07-643c-1.24,39.18,8.17,78,5.27,117.38-1.11,15.08-.49,30.17-3.76,45.23-2.59,11.94-4.72,24.75,5.9,35.18,7.51,7.36,3.49,16.84,3.59,25.5,1.25,15.17,2.65,29.77-10.79,41.94-7.59,6.87-6.6,18.21-5.38,28.06,6.88,55.36-4.15,108.16-22.18,160.06-11.13,32-18.75,65-31.52,96.71-34.31,85.18-89.8,156.08-147.6,225.51-17.54,21.06-32.47,45-56.68,59.83a13.59,13.59,0,0,1-7-1.14c-3.19-1.95,1.5-5.46-1.36-7.54-.84,1.88-1.57,3.82-3.23,5.25-45.35,36-97,61.35-147.53,88.63-7.86,4.25-15.88,7.6-20.73,15.62-59.48,22.28-116.39,53.18-182.09,54.17-6.47.89-8.78,5.09-8.65,11.21-.21,8.46,2.2,16.71,1.74,25.17-1.16,7.92-2.28,15.84-4.15,23.63-3.34,47.62-3,95.38-6.61,143-18.46,10.34-32-5.25-47.16-10.07-10.38-3.3-19.79-11.53-25.44-22.23-12.13-31-6.55-63.43-7.78-95.31-.34-8.9,0-17.82-.05-26.73-.09-43.47-.37-43.78-44.15-48.4-4.5-.12-9-.14-13.49-.12-17.45-1.11-35.73,4.13-51.9-6.66-.1-20.38,17.24-7.24,22.56-11.18-29.72-8.54-59.69-21.34-90-33-10-3.82-20.29-10.51-26.09,5.39-56.67,56.27-102.37,122.51-160.76,177.23-24.76,17-41.88,40.16-54.81,66.84-10.23,1.43-18,6.82-23.87,15.08-17.42,24.7-40.53,44.09-61.08,65.86-17.93,16.33-34.24,34.12-48,54.16-5.18,7.13-10.56,14.07-18.37,18.59-24.47,20.58-41.14,44.88-37.83,78.82-3.58,59.28-10.23,118.56,7.31,177,20.09,66.94,12.47,126.58-47.22,171.68-9.12,11.09-17.57,22.8-27.3,33.35-1.78,1.86-3.85,3.56-4.85,6a4.61,4.61,0,0,0,1.94,3.87c2.39,1.22,4.91,2,7.33,3.08,3.07,1.79,4.47,4.25,3.3,7.81-4.81,6.4-12,6.17-18.86,7.11-4.59.64-9,1.89-12.75,4.73-18,15.76-34.3,33.09-48.06,52.75-15.92,22.75-15.62,26.91,6.38,42.51q20.52,14.55,41.06,29.06c13.94,13.13,29.9,23.86,44.15,36.63,3.77,2.93,7.82,5.48,11.74,8.21,22.69,22.35,49.19,40.46,70.92,63.89,14.71,15.27,31.19,29.09,40.16,49.09,5.6,12.35,7.45,25.38,3.86,38.3-2.33,8.32-3.17,20.13-17.41,17.33-27.76,21.71-60.39,29.13-94.49,31.51-11.58.81-22.76,1.91-34.09,5.13-47.12,13.36-95.3,21.67-144.27,21.41-26-.14-51.2,5.57-76.94,6.5-5.33.19-10.32,2.57-15.07,6.79,1.61,9.81,11.41,14.9,14.86,24,7.44,19.65-1.8,33.7-22.82,33.22-21.86-.51-39.13-13.75-47.86-30C1022.71,1597.48,998.33,1603.67,972.06,1609.85Z"/><path class="cls-6" d="M-307.44-212.6c2.33-50.55-4-100.82-6.94-151.07-2.27-38.91-2.85-77.78-4.24-116.66-.86-24-.68-24-25.36-26.4-6.1-.6-12.59.13-17.13-5.38,6.2.1,12.4,0,18.58.32A100.54,100.54,0,0,0-238.41-591.9c2.17-10.42,4.73-21,4.8-31.55.15-26.4-9.53-48.61-31.79-64.16-6.56-4.57-14.28-7.78-20-13.14-15.54-14.47-33.54-18.88-54-15.79,28.67-13.24,37.53-36.7,37.38-66.86-.47-96.23-3.36-192.64,1.46-288.65,4.16-82.83,3.43-165.48,3.32-248.21-.06-43.51-8.22-86.79-5.18-130.49,9.58-19.15,19.48-38.21,26.05-58.66,2.89-9,7.85-13,17.43-12.82,52.42,1.18,42.32-5.47,52.35,42.06,2.94,13.93,3.49,28.41,7,42.16,4.25,16.73,18,26,31,23.24,13.33-2.88,22.92-16.13,21.29-32.83-1.89-19.48-5.88-38.74-8.56-58.15-.91-6.58-5-15.15,4.48-18.5,9.68-3.42,17.19-.25,20.78,10.59,5.7,17.18,16.72,31.41,26.86,46.09a61.72,61.72,0,0,0,31.61,23.66c14.41,4.94,27.55.12,34.49-12.3s2-22.29-7.32-30.86c-13-12-27.24-23-30.68-41.79C-64-1538.93-49.4-1536-36.9-1540.28c6.88-2.35,11.52,3,16.11,7.36,14.37,13.5,30.32,24.91,46.92,35.46,10.06,6.39,21,9.73,33,9,11.8-.73,20.82-5.8,24.46-17.35,4-12.73-.56-23.24-11.88-29.71-13.84-7.91-28.72-14.08-41-26.62,8.33-12,22.08-15.68,31.74-24.43,6.18-5.59,11.33-.34,16.25,3.73,18.35,15.14,39.68,24,62.9,27.93,15,2.57,30.24,3.73,44.65-3.31,10.29-5,18.35-12.8,18-24.54-.42-12.36-10.11-17.59-21.14-21.08-9.58-3-19.37-2.78-29.07-4s-19.29-3.85-27.87-8.87c-4.58-2.68-10.39-6.57-6.87-12.44,13.63-22.76,5.78-38.66-22.84-51.78,29-3.8,36.44-17.8,36.87-37.91.13-6,3-12.15,5.71-17.73,5.63-11.65,15.29-17,28.32-15.84,13.3,1.21,20.93,8.9,24,21.48,2.08,8.46.57,18,8.42,26.37,14.45-5.18,30-10.32,44.28,1.86,3.56,1.73,5.28,8.67,11.14,4l0,.07a10.21,10.21,0,0,0,5.12-5.31c17.79-10.41,38.66-9,57.72-14.81,8.9-2.7,16.72,4.42,22.86,11.15,4.44,4.86,8.26,7,15.89,5,26.84-7.3,35.22-2.38,45.91,24,1,2.47,2,4.94,2.95,7.41,5.42,5,5.36,11.65,5.4,18.23,0,2.55,0,5.12.09,7.68.1-2.55,0-5.1.07-7.78,0-6.66,0-13.19,5.47-18.07,7.56-20.07,18-35.32,43.51-28.09,3.68,1,8.52-1.5,12.69-2.83,15.66-5,28.57-1.69,36.32,13.39,4.32,8.4,8.32,12.15,18.48,8.38,11.18-4.14,21.62.23,28.19,9.89,5.92,8.71,13.18,9.6,22.8,9.82,18,.4,28.13,9.47,30.74,27.16,2.87,19.38,4,39,5.86,58.55,2.85,14,5.11,28.17,5,42.52,0,5.31,0,10.66,0,16a23.82,23.82,0,0,0,0-3.87c0-1.78,0-3.57,0-5.39.75-9.52-2.25-19.69,5.1-28,2.12-15,3.68-30.09,6.51-45,2.91-15.33,8.33-29.93,25.65-34.25,8.51-2.12,10.57-8.11,13.6-14.66,5.65-12.2,14.64-19.87,29.14-19.57,4.27.08,9.25-.66,12.78-2.85,17.8-11.06,33.79-9.75,47.22,8.07,25.21-54.72,45.47-52.5,71.84-29.05,3.29-4.09,6.21-8.5,9.89-12.16,17.14-17,37.51-12.54,46.47,9.58,4.13,10.18-1,26.29,13.07,29.73,12.44,3,20.76-12.12,33.53-13.67,5.65-.68,7.4-7.25,10.79-11.28,18.77-22.27,23.58-23.37,51.43-10.78,8.69-11.67,12.25-30.87,32.24-30,12.93.57,21.18,8.33,25.08,20.64,5.19,19.28,7,38.78,3.44,53.11.62,9.06,6.21,5.79,2.74,6.62-1.35.32-2.07-.24-2-1.66.19-12.84-.8-25.88,6.1-37.63a94.31,94.31,0,0,1,11-40.8c11.52-21.84,33.81-26.13,49.85-7.66,9.54,11,17.6,10.75,29.57,7.72,8.66-2.18,12-6.18,12.15-14.32a38.31,38.31,0,0,1,6.23-20.13c11.39-17.65,32.66-18.65,43.7-.81,6.68,10.81,12,20.78,25.58,24.7,9,2.61,13,12,14.81,20.86,2.78,13.88,4.36,28,6.45,42,3.18,7.29,4.47,15,4.88,22.84.24,4.16-.51,8.28-.78,12.86,1.35-5.31.7-10.34,1.23-15.29a15.93,15.93,0,0,1,4.65-9.94c11.39-31.09,13-32.63,42.28-32.83,6.4,0,9.12-2.72,12.6-7.34,20.44-27.06,35.44-26.51,54.64,1.37,1,1.41,2.51,2.41,5.37,5.09,9-5.12,18.93-12.2,31-8.06,10.78,3.7,16.55,13,22.66,22.52,26-59.42,33.64-63.5,72-38.06,2.37-11.72,4.49-22.92,6.92-34,2.28-10.44,4.12-21.15,10.15-30.26,6.54-9.89,16.19-13.82,27.77-12.06,10.78,1.63,17.73,8.39,20.46,18.7a91.13,91.13,0,0,1,3,21.09c.49,23.18,11.84,33.39,35.13,33.17,14.93-.14,29.89.77,43.33,9.85,18.08,12.23,33.73,4.74,37-16.85.92-6.08-.14-12.63,4.5-17.76,9.84,9.25,8.05,21.09,7,32.62-8.47,95.16-10.14,190.65-14.21,286-1.34,31.37,5.86,62.13,5.65,93.53-.74,115.19-10.39,229.94-15.38,344.91-3.17,73.18-.35,146.5-1.14,219.75-.16,14.78,2.65,31.07-13.14,41.1-25.42,1.43-50.39,7.64-76.17,5.75-28.25-2.07-28.92-2-30.88-29.64-.57-8-1.55-15.73-6.41-22.44-3-4.15-3-8.33-.13-12.54,5.69-7.07,8.65-14.33-1.44-19.86-14-7.66-25.36-19.39-41.22-24.23-14.64-4.47-27.64-12.86-38.48-23.62-23.08-22.9-52.64-36.5-78.26-55.72-2.88-2.16-6.16-4.13-9.3-.64-2.79,3.08-2.28,7,.11,9.76,9.92,11.57,5,19.71-4.19,29.3-46.22,48.29-87.16,101.58-137.42,146-16,14.2-32.7,27.73-46.74,44-11.22,13-11,15.41,2.81,26.11,4.83,3.73,7.77,8.2,7.89,13.1.8,33.18,27.43,50,45.31,72.2,5.41,6.72,14.94,5.06,22.77,5.45,12.28.62,24.62.17,36.37.17,3.85,6.91-7.12,12.4-.1,18,6.27,5,11.7.49,17-2.55,9-5.13,16.35-13.76,29.7-14.37,0,20.63,1,40.74-.29,60.68-1.38,20.55-1.71,40.75,1,61.29a282.27,282.27,0,0,1-.77,80c-3.73,23.94-4,47.92.69,71.85a87.61,87.61,0,0,1,2,18.58c-.9,38.45,5,76.45,7.29,114.69,3.48,14.82-5.34,21.47-17.38,25.51-122.2,41-237.4,98.72-355.79,148.83-17.22,7.3-33,17.79-51.38,22.46C937.79,24.89,935.08,11.42,930.82-1c-21.33-62.36-43.14-124.59-52.53-190.29-3-21.32-12.49-40.76-19.89-60.82-16.63-45.12-32.92-90.39-48.54-135.87-9.58-27.88-19.82-55.32-34.12-81.2-14.83-26.81-23.06-55.88-27.81-86-1.54-22.91,2-48-26.1-59.28-6-8.53-8.33-20.48-19.9-24-14.72-4.52-19.12-14.58-17.51-28.81.81-7.21,1.19-14.5-7.12-18.35-8.15-3.77-14.37.2-18.51,6.21-7.29,10.59-17.66,9.85-28.5,10.75-48.69,4-95.83-7.85-143.67-12.67-66.72-6.73-133.8-8.09-200.52.31-36.17,4.55-71.37-1.57-106.44-6.88-46.36-7-92.22-9-138.12,1.17-8.83,2-16-1.43-23.15-4.38-33.19-13.73-67-8-100.29-2.5-20.3,3.33-32.07,20.78-38.32,38.28-14.19,39.71-39.59,73.92-53.18,113.89-6,17.57-15.95,33.84-26.47,49.5a169.7,169.7,0,0,0-16.63,30.48c-10.95,27-1.65,43.39,26.38,48.77,6.77,1.3,14.38-1.52,20.22,3.92,1.41,5.18-1.57,8.72-4.31,12.15-45.15,56.58-82.35,118.84-126,176.45C-302.36-217.47-305-215.14-307.44-212.6Z"/><path class="cls-7" d="M507.2-216.67c5.29,17.47,16.35,31.63,27.32,45.59,16.74,21.3,30.54,43.88,37.57,70.36,2.27,8.55,4.84,17.89,10.11,24.65,24.89,31.93,38.1,70.62,61,103.55,12.84,18.42,22,38.79,33.1,58.17,4.56,8,7.23,16.1.69,24.9-5.06,6.81-6.69,15.89-3.54,23.06,7.56,17.23-.81,30.23-7.4,45C642.52,231.56,611.26,281,594.41,337a110.6,110.6,0,0,1-12.33,26.7c-49.67,78.89-84,165.58-126.23,248.23C424.11,674,386.93,733,354.34,794.59c-30.86,58.31-62.9,116-94,174.16-5.55,10.39-14.74,12.75-24.44,13.45-38.24,2.77-75.39,15-114.18,12.93a43.45,43.45,0,0,0-13.28,1.44c-60.71,16.08-122.6,6.15-183.92,8.25-29.26,1-44-19.59-56.08-42.53a28.07,28.07,0,0,1-2.79-7.52c-9.37-47.61-21-36.92,27.86-59.44,72-33.19,145.59-63.6,211.13-109.44,10.21-7.14,21.73-12.36,32.34-19,19.94-12.41,40.94-21.46,64.72-23.3,7.05-.54,14.45-1.46,20.87-4.15C240.3,732,245,712.36,232.8,697.42c-3.28-4-7.67-8-12.39-9.88-55-22.23-94-66.41-139.46-101.72C70.32,577.56,59.25,570.2,48,562.93,37.54,556.12,26.56,550,16.6,542.49c-31.23-23.55-59-22.42-87.54,3.6-17.3,15.75-30.35,35.1-45.89,52.33-4.75,5.27-9.39,10.71-14.68,15.4-7,6.19-13.47,6.49-20.64-1.31a349.3,349.3,0,0,1-36.41-46.16c-21.85-33.64-29.16-34.9-64.61-14.41-4.57,2.64-8.39,6.8-15,6.78-10.13-20-15.07-42-16.75-64-1.88-24.61-6.42-49-1.67-74.4,5.93-31.68-8.51-55.78-37.15-70.18-38-19.12-74.13-41.73-112.46-60.48-30.2-14.77-57.09-36.19-87.28-51.66-10.8-5.54-12.77-14-5.67-24.31,8.59-12.51,16.38-25.6,25.39-37.79,28.72-38.8,54-79.93,81.44-119.56,31-44.75,63.89-88.2,95.71-132.39,5.37-7.46,12-9.48,20.7-9.22,17.85.52,35.73,0,53.59.45,27.22.65,53.29-4.79,78.53-14.43A831,831,0,0,0-28-172.13a45.81,45.81,0,0,0,6.5-4.71C-10-187.32-5.72-205-12-215.68c-5-8.48-23.28-13-36.65-6.66-16.08,7.61-31,17.59-46.62,26.25-36.68,20.34-74,39.19-115.31,48.64-.23-17.48,14.82-25.84,22.88-38.3,0-2.26,3.71-2.49,3-5-.26-1-.71.1-1.32,2.32-.93,3.41.2-1.16-1.42,2.09-7.69,12.91-25,20.08-22.84,38.76-20,8-29.34,8.59-66.87,4.16,4.84-17.71,16.88-30.52,27.41-44q45.16-58,84.9-119.85c20.65-32.25,43.41-63.15,65-94.81,6.65-9.75,15.28-13.26,27.08-13.77,65.9-2.84,131.77-9,197.65-8.95,49.55.05,100-2.62,148.67,12.13,7.56,2.29,15.86,2.19,23.84,3,13.29,1.38,26.72,1.91,39.89,4.06,28.12,4.61,53.8,10.36,70.53,39.67,14.32,25.09,37,45.43,55.91,67.87,4.5,5.47,9.73,10.26,13.34,16.58,16,28,16.13,28.27-13.16,40.23-8.7,3.55-14.49,9.91-20.36,16.73-40.8,47.35-90.85,67.19-152.88,50.89-2.59-.68-5.25-1.87-7.82-1.72-54.28,3.18-93.94-28.1-134.65-56.93-11.51-8.16-24.35-15.6-35.41-1.8C102-220.57,107.68-206,119.31-196c29.17,25.21,64.77,40.45,97.35,60.42,50.7,31.06,106.66,23,161.59,22.77,7.23,0,15-1.6,19.55-7.39,27.05-34.18,70.09-52.81,90.44-93.63C491.87-221.07,498.59-231.21,507.2-216.67Z"/></g></g><circle class="cls-8" cx="23" cy="23" r="21.5"/></g></svg>