<?xml version="1.0" encoding="utf-8"?>
<!-- Generator: Adobe Illustrator 24.0.3, SVG Export Plug-In . SVG Version: 6.00 Build 0)  -->
<svg version="1.1" id="Layer_1" xmlns="http://www.w3.org/2000/svg" xmlns:xlink="http://www.w3.org/1999/xlink" x="0px" y="0px"
     viewBox="0 0 106.84 116.3" style="enable-background:new 0 0 106.84 116.3;" xml:space="preserve">
<style type="text/css">
	.st0{fill:#333333;}
</style>
    <g>
	<path class="st0" d="M77.75,87.96c-0.63-3.32-1.23-6.65-1.84-9.98c-0.02-0.1-0.03-0.2-0.1-0.28c-0.68-0.77-0.88-1.66-0.78-2.67
		c0.05-0.43,0.17-0.86,0.09-1.3c-0.35-1.89-0.7-3.79-1.04-5.68c-0.68-3.71-1.36-7.42-2.04-11.12c-0.94-5.11-1.88-10.22-2.83-15.33
		c-0.7-3.8-1.42-7.59-2.09-11.39c-0.34-1.91-1.14-3.55-2.45-4.96c-1.1-1.18-2.37-2.19-3.39-3.46c-0.07-0.08-1.2-1.31-1.28-1.86
		c-0.03-0.19,0-0.25,0.17-0.32c0.13-0.05,0.36-0.06,0.32-0.29c-0.09-0.54-0.16-1.09-0.34-1.61c-0.07-0.2-0.2-0.25-0.4-0.23
		c-0.28,0.04-0.55,0.07-0.83,0.11c-5,0.85-9.99,1.78-14.98,2.72c-5.63,1.06-11.26,2.14-16.89,3.22c-1.73,0.33-3.47,0.66-5.19,1.07
		c-0.37,0.09-0.43,0.15-0.39,0.53c0.04,0.48,0.16,0.94,0.25,1.41c0.04,0.21,0.16,0.33,0.38,0.26c0.28-0.08,0.3,0.07,0.29,0.28
		c-0.04,0.69-0.22,1.35-0.44,1.99c-0.36,1.15-0.86,2.25-1.35,3.34c-0.28,0.49-0.47,1.03-0.65,1.57c-0.37,1.12-0.62,2.26-0.53,3.44
		c0.12,1.51,0.49,2.98,0.78,4.47c0.05,0.25,0.1,0.5,0.15,0.76c0.05,0.28,0.1,0.55,0.15,0.83c0.04,0.23,0.09,0.47,0.13,0.7
		c0.05,0.26,0.1,0.51,0.15,0.77c0.05,0.23,0.09,0.47,0.14,0.7c0.02,0.24,0.06,0.48,0.14,0.71c0.02,0.26,0.06,0.52,0.15,0.77
		c0.02,0.28,0.07,0.56,0.16,0.83c0.01,0.26,0.06,0.51,0.15,0.76c0.06,0.5,0.17,0.98,0.28,1.47c0.11,0.57,0.22,1.14,0.33,1.71
		c0.05,0.26,0.1,0.51,0.15,0.77c0.05,0.27,0.1,0.55,0.15,0.82c0.05,0.27,0.1,0.55,0.16,0.82c0.05,0.26,0.1,0.51,0.15,0.77
		c0.09,0.45,0.18,0.9,0.27,1.35c0.1,0.53,0.2,1.06,0.31,1.59c0.16,0.93,0.32,1.85,0.54,2.77c0.03,0.28,0.07,0.55,0.16,0.82
		c0.01,0.1,0.02,0.2,0.03,0.3c0.03,0.26,0.05,0.52,0.17,0.76c0.05,0.38,0.12,0.75,0.22,1.11c0.11,0.59,0.22,1.18,0.34,1.77
		c0.06,0.33,0.13,0.67,0.19,1c0.05,0.25,0.1,0.51,0.15,0.76c0.05,0.28,0.1,0.55,0.16,0.83c0.05,0.23,0.1,0.47,0.14,0.7
		c0.04,0.22,0.08,0.43,0.12,0.65c0.05,0.25,0.1,0.51,0.15,0.76c0.04,0.2,0.08,0.39,0.11,0.59c0.05,0.25,0.1,0.51,0.15,0.76
		c0.03,0.28,0.08,0.56,0.16,0.83c0.03,0.26,0.07,0.51,0.15,0.76c0.02,0.26,0.07,0.52,0.15,0.77c0.02,0.26,0.07,0.51,0.15,0.76
		c0.03,0.32,0.09,0.64,0.18,0.94c0.06,0.47,0.15,0.94,0.27,1.41c0.18,0.92,0.35,1.84,0.53,2.76c0.12,0.61,0.23,1.22,0.35,1.82
		c0.07,0.35,0.14,0.7,0.21,1.06c0.05,0.23,0.09,0.47,0.14,0.7c0.05,0.24,0.09,0.47,0.14,0.71c0.03,0.26,0.07,0.51,0.15,0.76
		c0.02,0.28,0.08,0.56,0.16,0.83c0.02,0.26,0.07,0.51,0.15,0.76c0.01,0.24,0.06,0.48,0.14,0.71c0.01,0.06,0.01,0.12,0.02,0.18
		c0.36,1.85,0.71,3.69,1.07,5.54c0.27,1.37,0.54,2.73,0.81,4.1c0,0.12,0.03,0.24,0.1,0.35c0.11,0.41,0.38,0.72,0.7,0.98
		c0.78,0.63,1.71,0.9,2.66,1.13c0.61,0.15,1.25,0.2,1.83,0.48c0.71,0.34,1.3,0.84,1.81,1.42c0.82,0.93,1.83,1.34,3.05,1.43
		c1.86,0.14,3.72,0.04,5.57-0.12c2.65-0.22,5.28-0.62,7.91-1.07c1.77-0.31,3.52-0.67,5.27-1.07c2.67-0.6,5.31-1.28,7.89-2.2
		c1.18-0.42,2.35-0.85,3.4-1.54c0.58-0.37,1.05-0.84,1.31-1.48c0.23-0.57,0.48-1.12,0.82-1.64c0.33-0.52,0.71-0.98,1.24-1.32
		c0.79-0.5,1.59-0.99,2.27-1.64C77.43,89.96,77.97,89.13,77.75,87.96z M58.5,47.12c-0.46-2.02-0.81-4.06-1.2-6.1
		c-0.3-1.58-0.59-3.16-0.9-4.73c0.31,1.58,0.6,3.15,0.9,4.73C57.69,43.06,58.04,45.1,58.5,47.12z M30.6,63.1
		c-0.22,0.04-0.43,0.08-0.65,0.12C30.17,63.18,30.39,63.14,30.6,63.1c0.22-0.04,0.43-0.08,0.65-0.12
		C31.04,63.02,30.82,63.06,30.6,63.1z M55.67,83.31c0.05,0.41,0.19,0.8,0.29,1.19C55.86,84.11,55.72,83.72,55.67,83.31
		c-0.13-0.59-0.21-1.18-0.21-1.77C55.46,82.13,55.54,82.72,55.67,83.31z"/>
</g>
</svg>
