<svg xmlns="http://www.w3.org/2000/svg" xmlns:xlink="http://www.w3.org/1999/xlink" viewBox="0 0 58.4 85.38"><defs><style>.cls-1{fill:none;}.cls-2{clip-path:url(#clip-path);}.cls-3{opacity:0.08;}.cls-4{fill:#fff;}.cls-5{fill:#fefffe;}.cls-6{fill:#4a1801;}.cls-7{fill:#b79474;}.cls-8{fill:#d6b36f;}.cls-9{fill:#fbc600;}</style><clipPath id="clip-path"><rect class="cls-1" x="1075.23" y="-1534.59" width="1938" height="4780"/></clipPath></defs><title>plech_icon</title><g id="Vrstva_1" data-name="Vrstva 1"><g class="cls-2"><g class="cls-3"><path class="cls-4" d="M-1872.08-1643.74v-659.67H5453.23V3187.9H-1872.08V2625.58c7.16-7.91,13.63-16.56,22.89-22.28,6.91-4.26,15.12-9.59,22.1-3.06,24.46,22.86,50.56,9.94,75.64,3.61,12.62-3.19,23.88-6,36.1-.3,7.59,3.52,15.76,4.35,23.26.24,13.06-7.15,24-7.38,36.37,3.24s25.68,4.37,35.94-5.47c16.11-15.46,34.06-28.69,50.59-43.64,18.92-17.14,25.67-15.33,37.15,7.35,10,19.75,22.36,22.76,40.66,9.5,8.69-6.3,15.58-14.64,23.39-21.93,7.23-6.74,14.84-15,24.85-14.48,22.9,1.07,41.6-7.4,59-20.91,9.72-7.57,17.53-5.63,24.51,4.54,8.63,12.58,20.23,15.67,35.11,10.81,22.14-7.23,35.19,3.38,43.53,23.6,10.38,25.21,18.5,28.35,42.86,15.37,17.76-9.47,33.36-18.8,54.1-4.86,11.66,7.84,23.73-1.84,33.49-10.11,9.54-8.07,19.7-15.32,29.53-23a47.89,47.89,0,0,1,13.67-6.84c1.24-.24,2.51-.43,3.76-.66,1.26.09,2.53.22,3.79.3,1.19.37,2.39.79,3.6,1.14,2.33.85,4.63,1.84,6.92,2.79,13.57,3.71,27.59,5.22,40,13.6,14,9.48,27.27,2.76,39.22-6,22.18-16.31,43.48-33.75,64.83-51.11,6.2-5.05,12.55-10.15,20.26-12.59,10.48-3.3,16-.26,12.1,11.59-2.72,8.34-8.75,16.24-5.7,25.42,5.57,16.76,18.83,16.9,32.71,13.06,13-3.59,19-1.81,20.31,14,2.19,27.11,17.12,32.37,39.13,15.55,7-5.37,12.47-12.71,20.64-16.7a13.52,13.52,0,0,1,11,.68c4.14,4.21,2.5,9.89,3.79,14.83,5.47,20.89,21.69,27.47,39.93,16,11.16-7,18.85-18.26,29.85-25.51,1.78-1.3,3.68-2.47,5.56-3.6.85-.59,1.79-1.13,2.65-1.72,1.59-1.22,3.27-2.4,4.87-3.6.73-.64,1.53-1.24,2.25-1.88,1.37-1.31,2.82-2.56,4.24-3.81.65-.65,1.37-1.26,2-1.9,1.26-1.31,2.61-2.55,3.95-3.78.62-.63,1.3-1.23,1.93-1.87,1.19-1.31,2.5-2.52,3.8-3.72,0,0,1.93-1.81,1.88-1.86,1.18-1.31,2.46-2.52,3.75-3.72,0,0,1.91-1.82,1.87-1.87,1.18-1.33,2.46-2.56,3.76-3.79.62-.66,1.27-1.27,1.89-1.93,1.23-1.38,2.54-2.67,3.84-4,.64-.7,1.32-1.35,2-2,1.28-1.48,2.63-2.85,4-4.25.66-.77,1.36-1.46,2-2.22,1.34-1.61,2.75-3.11,4.19-4.64.72-.83,1.48-1.57,2.2-2.38,7.33-7.09,13.78-15.05,22.12-21.07a16.17,16.17,0,0,1,6.82-2c17.38,7.61,4.11,15.56-.73,21.48-12.22,15-28.1,26.66-39.33,42.61a64.6,64.6,0,0,1-4,5.76,68.65,68.65,0,0,0-9.17,14.63c-.86,2.26-1.8,4.44-2.69,6.67-3.92,10.26-2.08,20.54,5.29,27.33,12,11.12,20,24.52,28.41,38.2,9.53,15.44,31.46,15.51,49.47.84,16.58-13.5,30.54-29.88,45.93-44.7,35.36-34,81.52-29,107.47,11.54,6.73,10.52,15,20,23.31,29.16,15.38,16.84,40.2,10.85,64.29-14.3,15.63-16.47,33-22.18,55.47-13.2,19.46,7.78,38.92-.47,57.37-6.56,59.81-19.78,121.05-19.19,182.66-14.77,17.27,6.56,15.15,17.08,5.31,28.53-10.95,12.73-23.47,24-35.19,36-7.41,7.58-15.61,14.47-21.83,23.08-8.65,12-15.89,25.68-2.87,38.05,11.91,11.33,22.76.94,32.74-6.29,6.44-4.67,12.82-9.41,19-14.35,12-8.05,23.67-16.58,33.27-27.57,14.56-14.51,32.25-25.36,46.58-40.13a48.15,48.15,0,0,1,5.88-4,86.93,86.93,0,0,0,8.63-6.18c10-9,19-19.22,31.72-24.7a40.25,40.25,0,0,1,7.5-2.34c13.34-1.87,27.06-.72,40.05-5.31Q178,2557,251,2550.62c6.3-.54,12.93-.59,18.31,2.47,17.77,10.1,34.42,4.39,51.11-2.49,19.12-7.87,38.74-13.16,59.62-12.47,12.2.39,21.59,4,28.32,16,12.67,22.52,20.41,24,42.38,11.76,7.76-4.34,14.85-9.83,23-13.59,29.79-12.29,22.79,15.26,30,27.55,9.23,17.34,23,17.48,38.8,10.41,15.6-7,29.43-16.83,43.53-26.31,5.85-3.92,12.54-8.61,19.4-2.49,5.68,5.08,3.13,11.78.58,17.45-18.51,41.12-12.84,76.32,24.54,104.33,11,8.22,13.34,20.51,14.29,33.37,1.16,15.77,7,28.89,25.28,28.42,16.92-.43,20.84,8.59,22.8,22.86,4.68,34.25,9.91,36.44,40.78,24.77,20.81-7.88,42.58-15.5,59.3,9.35,4.84,7.19,13.77,7.31,22.16,5.47,24.34-5.31,47.76-3.62,69.87,9,14.93,8.52,25.94,2.25,33.82-10.69,8.75-14.37,18-18.79,31.67-5.66,6.49,6.21,15.75,8.33,24.11,11.38,23.9,8.72,38.49,3.94,41.28-21.2,4.73-42.67,42.34-54.53,67.26-76.46,14.08-12.39,26-22.21,30.21-40.38,2-8.71,3.88-17.46,6-26.13,8-32.17,31.88-41.68,58-21.4,12.09,9.38,22.54,19.74,38.61,22.06,7.69,1.11,10.94,8.51,14.41,14.84,4.39,8,9.25,16.16,20,14.95,12.29-1.38,20.37-10.39,21.25-21.18,3-36.43,30.53-41.22,57.54-47.52,12,12.74,6.5,28.64,7.61,43.26,1.26,16.78-1.75,33.75,2.15,50.36,18,25.18,29,24.46,45.39-3.12,6.3-20-2-41.33,6.11-61a9.8,9.8,0,0,1,6.24-4.77c18,7.18,34.32,22.2,56.16,10.46,3.45-1.85,8.46,1.7,12.24,4.11,23,14.71,45.69,24,70,1.3,8.37-7.82,12.3.42,13.86,8,2.27,11.06-3.45,20.76-6,31-3.12,12.79.2,23.57,12.94,28.52,14,5.43,21.17-3.93,27.06-14.85,9.5-17.61,5.22-38.81,14.82-56.4,7.83-10.78-2.79-34.89,14.83-34,12.83.62,7.33,22.42,8.45,35,.83,9.41,4.63,16.75,10.87,23.29,14.61,18.38,31,18.36,49,5.18,8.64-6.3,17.76-11.95,26.3-18.38,16.46-12.39,32-18.81,49.23-.08,10.57,11.44,26.41,9.67,40.56,9,57-2.67,113.63-10.2,170.11-17.59,152.29-19.95,305-30.16,458.53-25.12,10.49.76,21.06.31,31.56,1.26,8.12.74,18.52,2.57,20.14,10.14,6.11,28.62,32.49,42.43,45.42,65.73,17.53,17.47,44.08,24.1,54.66,51,4.77,12.15,24.34,6.62,31.31-7.71,5.82-12,4.45-26.17,11.54-37.8a12.48,12.48,0,0,1,10.78-2.73c11.54,4.89,15.86,16.15,22.14,25.57,16.23,24.37,27.45,25,46.67,2.2,4-4.74,7.93-9.51,12.07-14.08,5-5.11,6.11-12,8.23-18.41a13.48,13.48,0,0,1,4.53-5.29,15.74,15.74,0,0,1,7.07-.87,19,19,0,0,1,6.53,3.22,26.86,26.86,0,0,0,13.65,6c26.51-4.46,49.8-14.71,64.49-38.25,8.77-14,16.86-13.4,30.67-5.93,20.32,11,40.73,19,51.75,42.71,7.37,15.88,24.66,15.56,34.28-.48,13.53-22.55,31-37.23,55.19-47.52,19.62-8.36,18.26-28.86,16.36-47.06-5.52-53-2.25-59,50.78-69.18,22.81-4.39,30.86-15.17,26.88-36.85-2.32-12.67-2.84-25.1,5.84-35.78,12-14.75,12.58-30.89,6.75-48-5.08-14.9-6.11-29.27,1.84-44,8.86-16.38,4.87-33.94-1.37-49.51-18.33-45.7,1.52-84.58,19.62-124,1.84-4,6.53-7.7,6-11.75-6.34-46.64,24.76-83.47,32.64-126.31,1.31-7.15,1.52-14.39-.33-21.3-19.55-73.2-3.49-147.6-7.64-221.31-.46-8-.14-17,4.86-23.3,18.4-23.08,16-50,16.33-76.76,1.69-127.74-1.43-255.67-7.61-383-7.43-152.92,9.91-303,26.47-453.71,3.51-32,3-64.17,7.09-96.13,2.1-16.29-3.75-30.59-22-34.92-16.79-4-20.39-16.3-19.79-30.49,2.53-59.93-5.87-119.49-5.68-179.31a125.55,125.55,0,0,0-12.75-56.73c-16.72-34.59-9.48-72.2-7.26-108.25,3.36-54.3,6-108.65,9.14-163a210.3,210.3,0,0,1,7.08-44.85c6.16-18.74,10.77-37.7,9.82-57.73-.55-11.79,1.85-22.77,9-32.89,25.72-36.33,23.36-75.3,8.69-114.65-4-10.66-2.31-19.66-.91-30.53,4.66-36.3,19.5-69.83,8.71-110.26-12-44.81-7.87-94.09-.35-141,3.25-20.34,4.91-37-17.57-47-12.76-5.65-13.2-18.36-12.88-30.07,1-38.33,1-76.7,2.22-115,1.16-37.06-2.18-74.73-2.49-112.17-.12-14.39,1.12-28.55,5.15-42.4,5.72-19.69,11-21.4,27.47-8.31,8.41,6.69,15.47,14.83,22.51,22.93,4.76,5.46,9.82,11.46,18,7.88,7.48-3.26,8.8-10.7,9.48-18,.58-6.29-.78-12.47-1.15-18.7-2.55-43.17-4.53-86.61-8.47-129.39-3.14-34-11.94-65.15,6.14-97.92,6.37-11.56-.48-28-4.78-41.78-9.36-30-13.32-61-15.3-92.3-1.32-20.91,3-39.85,13.92-58.75,18.29-31.74,14.25-67.66,11.18-102.25-1.82-20.48-4.33-40.84-3.72-61.41.61-20.93-1.12-41-14.5-58.55-5-6.57-8.85-15.72-5.81-22.69,9.72-22.35,2.39-47.25,12.36-69.52,5.5-12.29,6.44-25.85,1.18-39.2-3.38-8.57-4.54-18.12,0-26.11,11.55-20.07,2.7-32.39-12.6-45.66-13.46-11.69-25.36-25.16-41.54-33.34s-31.75-12.85-51-6.46c-25.87,8.61-46.57-.5-62.22-22.86-7.35-10.5-14.91-19.72-29-21.33-10.23-1.16-17.28-8.43-24.53-15.3-28.83-27.28-51.87-26.08-81.52.31-22.87,20.35-49.24,34.75-81.92,29.71-7.56-1.17-13.74,2.58-20.54,4.6-16.76,5-28.6-6.66-22.55-23,7.9-21.39-1.86-41.43-4.22-61.5-1.94-16.52-39.35-18-49-.68-17.59,31.45-42.15,44.57-77.34,39.61-8-1.13-13.63,2.94-16.91,10.33-1.45,3.26-2.54,8.16-5.46,9-34,9.41-21.34,34.45-17.52,54.9,4.86,26-10.94,45.93-17.24,68.49-2.93,10.48-16,13.81-27.06,14.23-14.3.55-28.42,3.62-42.76,2.83-10.25-.57-17.67,3.5-20.84,13.13-7.6,23.1-25.76,27.88-46.73,27.42-19.56-.43-34.65,3.78-41.07,25.69-4.85,16.57-18.38,20.32-34.55,15.78-9.7-2.72-20.28-6.1-25.27-14.2-15.15-24.57-35-33.09-63.09-25.59-10.25,2.74-18.11-5.09-25-12.71-11.77-12.95-26.32-17.88-43.51-12.5-5.16,1.62-12.25,5.21-15.35,1.72-25.55-28.81-60.49-14.5-90.13-17.2-36.5-3.32-73.44-10.5-111.65-2.72-23.27,4.73-49.59.43-74.49-.86-16.29-.85-32.18-.44-47.34,6.19-12.17,5.33-23.63,4-36.28,0-35.88-11.61-51.18-6.25-74.88,23.45-10.44,13.09-23.76,19.39-40.13,14.37-15.6-4.79-17-19.23-18.77-32.59-1.06-8,.95-16.07.73-24.07-.28-10,7.74-23.95-5.27-28.91a64.41,64.41,0,0,0-49.7,1.56c-13.11,6-10.45,18.54-9.4,30.51,3.36,38.4-4.69,76.35-5.93,114.63-.55,17-11.18,28.41-30.68,24.89-14.47-2.62-28.25,2.79-42.58,2.49-19.87-.42-29-8.69-29.79-29.06-1.37-34.8,7.79-69,4.08-104.06-1.54-14.59-5.72-26.17-16.16-35.11-13-11.11-26.14-4-35.81,9.08-28.54,38.72-11,81-12.82,121.68-1.48,32.58-9.34,40.47-40.26,36.86-22.62-2.63-29.78-12.33-30-35.65-.21-22.29,1.59-44.33,3.6-66.46,1.39-15.26-.8-29.55-20.68-30.82-18.28-1.18-36.65-2-43.53,21-3.4,11.33-2.78,23-3.55,34.56-1.81,27-10.34,34-37.82,31.73-3.56-.29.84.31-2.64-.41-17.38-3.61-36.83,3.29-52.41-7.27-16.38-11.11-8.07-31.57-13.67-47.25-6-16.79-11.64-29.37-32.86-27.22-20.85,2.11-31.69,10.06-32.81,33.21-1.54,31.92-24.82,53-56.84,51.09-40.16-2.34-80.23,3.08-120.27-.74-12.88-1.23-24.48,2-28.4,14.73-6.18,20.11-18.94,26.47-38.48,24.06-22-2.71-25.3-19.43-28.64-36.59-6.21-31.83-32.43-52.2-62.63-47.25-14.87,2.43-30.32,6.62-42.24,15.91-12.92,10.06-27.87,9-41.59,13.45-48.48,15.54-103.76,8.66-146.18,44.33-19,16-42.22,11.38-64.34,9-11.7-1.24-14.47-11.73-18.81-20.56-7.45-15.16-22.33-20.24-32.75-9-20.67,22.19-50.57,17.35-74.06,30.73s-49.6,17.37-76.71,5.47c-14-6.14-22.12.81-26.16,16.81-9.13,36.11-29.23,42.57-61.71,24-15.62-8.91-31.21-15.58-38.54-34.48-4.7-12.12-18.9-8-29-8.12-16.07-.17-32.2,2.84-44.38-12-4.55-5.54-11-4.2-17.22-1.42-37.33,16.65-72.35,16.49-108.09-7.62-30.56-20.61-67.77-20.36-103.49-21.78-13.36-.53-26.76.35-40.16.3-21.33-.09-39.23-3.4-45.25-27.93-1.49-6.08-5.91-11.59-12.91-12.16-9.21-.76-12,7-14.13,13.58-6,18.78-19.8,23.6-37.52,23.18-13.4-.32-26.81-.15-40.21-.06-16.89.11-30.19-4-32.2-23.94-1-9.82-6.2-16.52-16.24-18.86-2.6-.6-6.16-.8-7.48-2.63-17-23.67-29.16-17.83-48.32,1.15-17.72,17.56-80.84-2.24-93-25-4.08-7.66-9.45-12.72-17.1-16-9.44-4-15.76-10.5-20.17-20.18-11.37-25-20.81-27.17-37.38-5.63C-553.69-1484.54-574.16-1475-601-1474c-20.62.81-31.85-8.46-37-27.24-5.68-20.79-8.66-41.62-6.88-63.49,2.07-25.4-15.12-41.63-40.58-41.19-34.12.6-42.56,6.69-49.22,45-3.93,22.61-13.87,36.39-36.36,39.66-11.2,1.63-18,6.41-20.33,17.65-2.93,13.92-11,21.84-26.08,21.84-13.06,0-21.92-4.58-26.45-17.78-6.35-18.5-24.06-24.84-39-21.21-46.14,11.19-91.77-6.94-137.85.87-14.94,2.53-23.17,5.14-25.4,20.14-2.69,18-13.62,21.67-30.81,20.77a781.58,781.58,0,0,0-106.89,1.67c-33,2.8-36.4-.23-47.55-31.53-9.95-27.94-33.22-44-60.23-52.31-15.23-4.7-29.38,3.51-40.24,15.88-23.87,27.18-52.22,32.9-83,15.87-14.19-7.84-26.37-15-39.61,1.87-7.84,10-20.15,3.55-30.5,4-14.56.7-28.63.29-29.07,21.78-.31,14.87-13.48,19.79-26.12,22.92-14.69,3.63-28.07-.76-35.07-13.33-10.24-18.41-26-24.89-44.91-29.62-30.15-7.54-42.07-24.72-41.86-56.11.21-30.1-1.07-31.43-31.26-32-16-.3-32.29,1.22-47.11-7.16-13.3-7.52-23.29,7.13-35.71,5.54a30.26,30.26,0,0,1-7.73-1.22c-13.09-6.2-22.59-16.83-30.52-28.23-13.08-18.81-27.09-20-43.76-5.56C-1862.45-1643.83-1866.69-1640.68-1872.08-1643.74Z"/><path class="cls-5" d="M3163.27-758.57c4,17.37,7.18,35,12.31,52s13.21,32.66,30.48,43.25c16.94-22.58,18.07-47.44,14.94-72.31-8.49-67.26-18.08-134.37-22.68-202.07-3.58-52.63-2.12-105.32-2.15-158,0-11.29,5.71-20.47,11.28-29.64s12.07-17.81,16.8-27.36c10.38-20.95,6.25-32.84-15.2-41.63-8.11-3.33-10.76-7.1-10.47-15.62,3.07-89.21,7.5-178.33,16.05-267.2.26-2.67.94-5.29,1.14-8,2.83-37.4-14.67-51-50-38.74-5.21-6.77-3.15-15.44-5.91-22.94-7.08-19.27-21-25.81-39.87-17.37-5.55,2.48-10,7.7-17.06,5.08-24.12-8.91-36.42,5.7-47.15,23.68-3.14,5.27-4,11.94-9.64,15.84-8.39-1.79-4.23-8.47-4.46-12.73-.61-11.57.11-23.21-.21-34.81-1-35.79-16.59-46-50.12-32.73-6.22-2.06-4.79-8.69-7.39-12.94-12.15-19.92-33.29-22.88-48.5-4.77-9,10.69-16.22,18.59-32.26,18.21-16.22-.37-21,17.07-28,27.37-6.14,2.11-7.55-2.14-10.13-4.13-19.53-15-36-12.42-48.86,8.61-8.41,13.75-13.53,29-17.94,44.55-5.26,18.5-10.83,36.91-20.18,54.54,2.28-53.19,4.35-106.39,7.08-159.56.47-9,.45-17.78-1.63-26.52-3-12.61-10.6-20.58-23.86-21.66-13-1.07-23,4.9-27.82,16.7-5,12.23-7.95,25.26-12.51,40.29-23.84-15.78-44.59,1-66.45,4.76-12,2-17.44,13.73-20.89,25.64-6.8,23.47-4.86,47.89-9,71.63-2.89,16.68-4.44,33.59-6.59,50.39-7.42,8,4.23,21.77-8.48,28.19-7.58-2.2-9.93-9.58-14.48-14.76-5.55-6.32-12.58-12-20.64-8.62-26.41,11.21-60.63,14.1-62.2,54.15-.14,3.45-2,6.74-3.7,9.87a17.91,17.91,0,0,1-5.84,5,36.36,36.36,0,0,1-15.07,3.64c-21.58-9.32-40.32-10.45-55.25,13-6.31,9.89-21.15,14.94-31.22,10.76-23.26-9.67-52.64-8.11-66.71-36.61-8.63-17.49-23.8-17.75-37.17-4-15.09,15.5-21.48,8.12-27.53-7.88-11.23-29.74-22.75-32.15-44.41-8.06-11,12.25-15.56,9-23.28-2.76-16.94-25.71-21.58-26-45.73-7.91a37.08,37.08,0,0,1-6.41,4.49c-1.23.49-2.46.93-3.7,1.41-1.32.12-2.64.2-4,.33-1.31-.19-2.61-.43-3.92-.61a65,65,0,0,1-7.47-2.29c-23.71-6.35-41.79-23-62.48-34.83-23.56-13.45-34-11.62-45.47,13.48-11.21,24.52-16.16,50.82-20.3,77.26-1.11,7.1-2.39,14.12-8.46,19a9.35,9.35,0,0,1-7.62,1.11c-12-13.82-11.37-31.24-13.09-47.82-1.11-10.65-1.42-21.22-6.32-31.16-15.68-31.79-38.44-35.39-62.48-9.49-5.44,5.87-10.21,12.37-16.71,17.23-17.29,12.9-23.53,11.43-34.06-8.1-12.35-22.89-29.58-26.6-42.41-5.62-15.12,24.72-44.24,31.91-60.13,55.62-8.82,13.17-29.71,4.13-34-13.43-3.17-13.06-1.23-26.64-2-40-.28-13.26,1.07-26.61-1.21-39.76-1.88-10.87-5.61-21.86-18.55-22.6-14.25-.81-19.32,10.3-22.35,22-2.69,10.39-2.61,21.1-2.19,31.7,1.12,28.49-2.24,56.52-8,84.37-3.73,12.91-9.89,23-25.74,20-16.92-3.12-30.09,3.74-43.87,12.88-13,8.63-26.61,22.22-45,10-9.18-26.12-5.57-52.78-2.52-79.2,2.27-19.57,3.94-39,1.46-58.59-1.29-10.24-5.65-19.76-17-21.24-12-1.55-16.83,8-20.47,17.47-5.25,13.61-5.13,28-4.81,42.24.84,36.62-3.82,72.76-8.95,108.88-20,18.06-32.83,18.11-43.87-3-8.14-15.56-20.28-23.82-35.2-30.07-10.5-13.22-6.51-28.46-5.85-43.21.16-3.52,1.18-7,1.67-10.45,3.78-27.07-3.06-46-18.24-46-24-.12-22.06,20.78-26.34,36.19-2.51,7.68-2.82,15.81-4.68,23.59-5.19,21.76-22.47,31-42.44,21.07-14.89-7.44-29.87-10.48-46.19-11.42-26.63-1.53-37.46-13.19-39.79-40.12-1.18-13.57-1.57-28.73-19.43-30.23-17.24-1.44-21.61,12.76-25.52,25.94-2.29,7.71-3.52,15.69-5.09,23.56-3.62,18.06-9.76,27.5-30.47,15.93-17.41-9.73-28.08,2.08-35.42,17.41-12.38,25.85-12.53,25.89-35.89,12.16-5.62-3.31-11.79-6.19-17.74-3.82-15.13,6-24.93-.8-35.43-10.74-10.8-10.22-23.08-9.44-32.33,3-6.93,9.37-14.91,14.66-26.95,14-20.05-1.06-24.23,18.82-36.28,28.4-8.54.9-11.42-5.45-14.68-11.34.57-39-28.17-60.75-51.1-85.59-11.35-12.29-24.41-7.56-32.62,10.3-16,34.66-24.12,37.32-57.3,18.66-18.65-10.5-31-6.17-40.43,13.87-4.87,10.4-4.79,22.72-12.53,32-13.7,1.29-11-12.21-16.64-18.26-18-20.75-22-21.11-39.05-2.25-5.39,6-10.16,14.82-19.2,11.38-19.91-7.56-32.19,2-43.61,16.06-6.4,7.87-15.94,11.27-24.7,15.58-22.85,11.25-27.77,9.27-38-14.71-13.18-31-16.87-32.42-43-13.16-7.65,5.64-14,7.16-21.63,1.86-21.82-15.12-35.35-3.19-45,15.18-7.16,13.56-14.21,18.85-29,10.22-16.21-9.44-33.54-.8-45.72,6.67-27.79,17-58.83,33.25-63.78,71.85-1.55,12.07-2,25.12-12.06,34.49-12.21-2.46-10.56-13.91-14.3-21.88-2.51-9.48-2.47-19.3-3.57-29-3-26.71-10.13-44.68-41.44-56-23.5-8.48-52-11-72.46-32.66-13.06-13.81-53.33,1.14-74.87,22.19A15.94,15.94,0,0,1,65.07-1319c-7.23-3-10.06-9.75-13.64-15.87-2.75-4.68-6.85-12-10.65-11.2-30,6-55.06-23-85.57-11.7-10.85,4-23.21,2.14-33.58,8.31a40.27,40.27,0,0,1-7.24,2.87c-1.31.15-2.61.25-3.93.39a47.3,47.3,0,0,1-11.54-2.33c-5.16-1.39-10.49-4-15.65-3-23.4,4.64-37.92-2.59-41.95-27.72-1.57-9.75-9.1-15.16-19.48-14.79s-16.15,6.82-19.68,15.65c-6.44,16.18-5.48,35.63-22.44,47.17-4.56,3.1-.33,8,2.47,11.4,6,7.24,10,15.62,7.43,24.73-6.52,23.37,7.92,28,25.62,30.11,10.63,1.26,21.38,1.84,31.41,6.08,24.66,10.43,27.79,33.1,6.9,50.17-13.43,11-29.27,12.45-45.63,10.87-23.55-2.26-45-10.74-65.07-23-7.66-4.67-15.2-10.12-24.74-5-5.42,2.94-12.29,5.35-13,12.34-.57,6.07,5.5,8.58,9.87,11.5,5.94,4,12.37,7.16,18.09,11.45,12.81,9.62,18.25,22.2,12.55,37.56-5.34,14.35-17.48,19.18-32,19.69-16.06.57-29.39-6.07-42.1-14.86-14-9.64-26.63-21.1-41.05-30-10.74-6.62-24.18-7-32.07,2.42-8.68,10.4,4.66,16.8,10.15,24,3.76,4.93,8.67,9,12.55,13.88,8.61,10.87,11.05,22.54,3.07,34.58-8.6,13-20.48,20-36.54,15.69-20-5.39-33.74-18.62-45.06-35.65-9.16-13.79-15.84-29.43-29.21-44.71-5.84,18.62.55,33.1,1.33,47.62.42,8,3.15,15.76,2.79,23.87-.79,18-9.38,31.47-26.83,35.73-19,4.63-30-7.81-37.1-23.52-7.45-16.55-7.12-34.85-10.23-52.37-2.61-14.66-5.66-27.92-25.3-28.44-17-.44-29.36,3-35,21.26-4.73,15.34-12.59,29.52-21.54,43-10.75,16.82-24.76,27.14-44.58,16-18.87-10.66-19.14-28.39-13.42-47,1.84-6,5-11.47,7.11-17.31,4.38-11.95,18.42-24.23,7.37-36.6-11.89-13.3-28.34-22-48-13.79l-.83.55a139.79,139.79,0,0,0-20.62,20.51c-9.15,10.9-18.11,22-27.54,32.64a94.27,94.27,0,0,1-15.53,14.57c-14.42,10.22-29.17,9.26-38.51-1.69-8.42-9.87-8.29-24.19,2.19-36.57,17.25-20.37,35.41-40,53.22-59.86,3.49-3.9,7.13-7.66,12.14-13-13-10.77-25.53-20.21-36.91-30.91-11.66-11-22.39-22.92-33.09-34.84-5.91-6.58-12-13.4-16.15-21.1-8.43-15.5-4.56-32.1,8.1-40.28,13.22-8.55,26.85-4.9,38.64,11.28,19.56,26.86,42.18,50.48,70.13,68.72,21.25.33,36.66,13.56,53.27,24.13,9.63,6.12,20.16,10.25,31,13.73,32.56,13.75,65.37,18.3,101.54,15.46,51.47-4,103.09-3,154.18-14.21,49.35-10.79,87.06-40.14,124.23-70.78,16.17-13.32,13.28-32.35,5.42-49.37-6.68-14.47-18.95-17.82-33.68-11.41-11.34,4.93-16.37-1.39-19.73-11-2.94-8.45-3.9-17.47-7.19-25.77-6-15-15.68-19.57-31.82-13.79-31.18,11.18-56.26,26.57-58.51,64.12-.44,7.44-1.37,17.89-10.74,19.74-9.73,1.92-15.91-6.48-21.69-13.23-10.88-12.71-9.66-28.35-9.35-43.42.48-23.24-1.82-43.52-32-45.41-10.26-.64-14-9.89-17.74-18.16-3.91-8.6-9.51-15.59-20.15-14.46-10.25,1.1-14.64,9-18.33,17.47-15.8,36.46-15.81,36.27-54.41,27.13-9.79-2.32-18.39-6.65-26.77-11.84-19.29-6.13-25.1-20.2-24.28-39.17.92-21.34-.18-42.61-4.81-63.66-2.59-11.81-7.3-21.86-17.37-28.89-8.93-6.23-18.44-12.11-29.63-7.56-11.78,4.8-12.55,16.22-13.32,27-.9,12.41.77,25-1.37,37.27-1.54,8.81-1.26,21.26-16.85,16.24-18.68-3.81-30.38,3.73-38.11,21-6,13.38-16,16.94-30.16,13.73-3.44-.78-7.15-3.91-10-3.17-21.44,5.49-39,3.56-53.33-16.87-5.62-8-18.52-4.07-27,2.28-17.22,12.9-34.45,18.91-55.33,6.85-14.14-8.16-25.46,1-36.65,12-7.91-16.54-11.29-39-36-35.5-25.62,3.58-23.69,27.69-28.42,42.76-3.26,4.09-4.56,3.82-6.41,2.38-27.88-21.77-46.63-15.3-55.83,19.27-1.37,5.17-2.4,10.44-3.59,15.66-14.24,1.62-4.16-12.92-10.85-16.32-1.39-4.16-2.47-8.45-4.25-12.43-5.27-11.81-14.62-17.3-27.42-16-13,1.32-21.32,9.32-23.35,21.59-2.35,14.22-8.31,26.64-14.8,39.06-7.1,11.94,1.14,25.91-5,38a7.59,7.59,0,0,1-.46,4.88c-3.58,3.21-7.19,3.2-10.83.13a7.18,7.18,0,0,1-.38-4.81c-5.85-15.92,2.12-33.14-4.57-49-2.38-15.9-11.23-29.17-17-43.41-7.67-19-20.23-34.35-28.54-52.38-7.45-16.16-16.75-23.06-29.68-21.63-15.25,1.68-23.67,11.77-27.15,25.52-4.12,16.25-6.73,32.89-10,49.36-9.29,2.81-9.67-5.9-11.8-10.35-9.12-19-23.11-24.13-42.36-16.84l0,0c-7.33,5.38-14.65,10.56-22.13.21-4.2-9.67-5.69-20.77-15.4-27.47-6.2-4.29-15.24-8.69-19.79-4.64-18.38,16.34-44.8-6.31-61.47,14-7.81,9.51-9.41,21-9.73,32.71-.42,15.23-.08,30.1-16.47,39.27-7,3.9-8.44,13.28-10.58,21.06-7.39,5.31,4.25,20.09-10.75,21.62-1.16-9.76-2.3-19.53-3.48-29.28-2-16.56-8.77-29.26-27.12-31.54-7-.87-10.16-4-13.53-10.43-15.35-29.24-27.44-30.82-53.12-8.49-1,.89-3,.69-7.68,1.63,0-16.31-1.17-32.21.26-47.88,2.5-27.62-17.62-45.43-27.55-67.6-2.13-4.75-9.4-9.29-13.32-7.54-24.56,11-42.76-30.47-68.1-7.75-11.65,8.13-6.85,21.78-10.86,32.47l-.66,20.7c-11.68-.44-7.83-9.63-7.66-15.32.49-16.3-2.81-32.79,2-48.89,6.27-.14,12.57-.08,17.77-4.48,9.6-8.13,18.77-7.45,29.21-.53,14.51,9.62,31.33,4.27,47.09,4.67,33,.85,39,6.21,31.75,37.62-3.13,13.56,5.84,21.8,7.87,32.75,2.58,13.87,12.22,15.25,23.78,16.18,10.09.81,18.28,8.25,30.19,6.55,8.7-1.25,13,9.52,17,18,10.91,23.32,21.89,26.85,44.76,18,9.9-3.82,13.59-8.57,12.09-19.94-2.53-19.13-.49-20.31,18.49-21,8.82-.34,17.82-4.63,26.36-1.13,12,4.91,18.37,1.94,21.62-10.63,3.15-12.23,11.26-12,20.65-6.63,4.66,2.64,10.61,3.89,14.1,7.55,19.78,20.76,42.88,11.36,65.31,7.93,7-1.07,9.17-6.9,12.24-12.69,14.85-28.08,48.7-34,73.06-13.56,4.72,4,11.15,6,15.55,10.21,14.15,13.55,33.76,23.31,29.81,49-1.9,12.34,8.51,16.53,19.69,16,20.91-1,41.8-3.17,62.72-3.44,22.67-.3,45.41-2.93,68,1.18,15.31,2.78,19.74,0,18.71-15.82-.67-10.31,2.95-17.07,9.1-23.74,7.71-8.36,15.54-6.68,23.62-.32,3.24,2.56,6.42.88,9.76-.92,17.11-9.18,34.35-5.83,51.64-.21,11.69,3.81,22.9,2.41,35.3,1.41,22.4-1.8,45.94-11.64,69.62,2.17,10.06,5.87,18.52,7.85,17.54,21.33-.79,10.87,6.61,13.59,15.76,13,8.31-.56,18.59,3.17,21.34-10,2-9.49,4.88-18.79,7.39-28.25,9.21-.93,17.69,1.22,26.57-2.12,19-7.14,22.48-9.74,21.75-30.2-.25-7,1.36-12.81,5-17.3,7.53-9.23,12.86-17.81,10-30.88-1.71-7.92,5.7-10.59,12.69-8,12.3,4.58,24.1,4.5,36.55.24,14.74-5.05,25.86,6.24,31.38,15.09,6.61,10.59,16.83,21.77,10.75,38.84-7.72,21.63,4.22,43.31,6.89,65,1.27,10.27,15.3,16.17,27,14.76,7.05-.86,14.17-1.23,21.26-1.72,12.14-.84,22.22-5,29.45-15.61,5-7.32,11.93-13.29,16.95-20.58,6.16-8.94,12.59-14.24,24.35-10.22,10.94,3.73,19.67,7.74,17.95,21.88-1.93,15.87,10.54,18.73,21.75,22,10.43,3.09,19.84,4.37,17.07,20.73-2,11.66,8.93,18.58,21.09,19.18,16.84.84,33.67-.72,50.35,4.71,9.66,3.15,16.9-4.13,21.5-12.37,2.57-4.61,3.31-10.23,5.82-14.88,6.27-11.59,16.32-12.48,21.61-.31,6.61,15.19,13.49,25.12,32.41,24.42,11.1-.42,12.64,11.14,11.9,20.42-1.5,18.83,4.11,21.63,21.69,21.17,17-.44,34-.68,50.93.09,12.86.59,21.11-4.36,23.08-16.82s5.45-23.17,19.29-25.4c9.34-1.51,21.74,12,24.25,27.71,2.38,15,9.08,17.14,23.67,16.89,43.59-.75,87.51-1.08,130.32,9,15.48,3.66,31.1,10.31,42,22.31,7.13,7.83,14.38,9.21,23.52,9.06,11.61-.18,23.23-.09,34.85,0,10.68.06,19.86-.24,28.66-9.84,10.34-11.27,19.59-8.88,29,5.31,6.11,9.16,13.33,11.14,22.8,8.39,5.12-1.49,10.8-5.46,15.35-2.4,10.7,7.19,21.59-3.49,30.84.77,10.34,4.78,3.25,18.14,9,26.55,4,5.8,9.07,7.76,14.78,10.34,7.25,3.27,15.28,4.12,22.1,9.18,5.83,4.33,8,19.18,17,12.42,11.09-8.34,29.5-12.22,28.38-32a40,40,0,0,1,0-5.36c1.79-22.79,5.12-25.24,28.68-19.87,11.05,2.52,23.44.86,32.53,10.23,1.48,1.53,6,2.39,7.44,1.31,17.77-13.67,43-9.7,59.59-25,6.23-5.74,12.76-7.51,19.37-5.41,11,3.48,18.69,3.12,23.09-9.22,5.62-15.81,19.42-12.67,31.73-12.89s19.07,8.19,20.18,17.82c2.13,18.35,13.19,18,27.58,20.35,28.53,4.63,49.51-10.55,69.71-24.33,19.7-13.44,40.19-18.16,62.55-19.14,16.74-.74,33.74,2.33,47.18-12.65,5.83-6.51,14.94-3.28,22.72-.24,7,2.71,16.54,4.19,19.64-2.59,10.09-22,33.53-17.38,50-25.89,17.19-8.89,35.81,2.22,53,9.83,19.77,8.74,22.11,25.23,23.42,43.72,1.8,25.61,11.22,32.57,35.88,30.74,10-.75,13-4.89,15-14.5,4.4-21.41,17.64-29.42,38.26-25.47,17.7,3.4,35.11,1.91,53,0,18.75-2,38.15-.82,57,1.34,37.26,4.27,59.69-14.2,60.52-51.73.56-25.24.71-24.47,27.41-29.72,8.35-1.64,15.52-5.8,25-3.85,13.78,2.82,22.63,7.15,23.29,23.54.63,15.45,13,29.16,7,46.37-2,5.55,4.61,9.65,10.06,10.26,20.26,2.27,40.72-.4,61.11,4.61,10.45,2.56,17-7.23,17.69-21.36.83-15.93-1.4-31.87,4.56-47.64,5.06-13.42,12.5-21.16,27.25-20.72,6.25.19,12.52,0,18.77,0,26.13.24,37.2,8.41,32.62,32.63-4.94,26.13-1.93,52.4-6.8,78.16-2.05,10.86,4,17.75,12.53,21.07,11.82,4.59,24.68,2.69,37,1.17,6.54-.8,8.14-6.49,7.89-12.12-1-23.08,2.29-46.13-2.73-69.33-4.5-20.77-8.15-42.74,12.64-58.92,5.24-4.09,6.06-9.93,5.07-16.9-2.27-15.93-1.75-16,15.89-14.52.89.07,2,.65,2.62.32,24.7-13.07,30.47,11,42.86,21.92,4.4,3.87,5.16,9.76,4.08,15-5.44,26,5.5,52.9-4.57,78.94-2.71,7-.52,15.93-.51,24,0,34,2.35,35.85,36.75,32.79,8.73-.78,16.25-5.77,26-3.72,20.09,4.22,24.2.61,27.67-19.53.91-5.24.53-10.69.68-16,.58-20.42-.6-40.69,4.39-61.15,3.26-13.33,1.57-28-2.5-42.26-5.22-18.35,4.94-32,24-33.82,15.06-1.43,30.36-.16,45.54-.5,12.5-.28,16.68,7.55,13.72,17.21-3.21,10.51-1.3,21.12-3.79,31.49-1.42,5.91-1.75,12.82-.09,18.56,2.54,8.79,1.73,20.85,14.08,23.37,12.08,2.46,23.21-.12,31.06-10.73,2.61-3.53,6.73-7.45,6.69-11.16-.19-21.12,17.22-23.31,29.67-22.81,18.48.74,39-5.88,55.65,8.55,6,5.24,11.5,1.85,17.28-.7,16.37-7.21,32.38-12.44,51.47-9,23.92,4.31,48.93-6.3,73.11,3.09,3,1.16,7.47.6,10.5-.8,24.3-11.23,48.3-3.77,72.74-.52,16.23,2.15,32.81-2.26,49.58,1.28,15.07,3.17,30.64,8.24,46.08-2.8,7.9-5.64,14.12,1.78,19,9.22,11,16.73,11.4,16.48,26.21,5.67,2-1.49,5.67-4.38,6.12-4,11.65,10.76,32.39,4.73,40.45,21.05,6.33,12.82,15.15,17,28.19,11.63,9.51-3.94,19.35-2.55,29.11-2.77,10-.23,16.45,3.24,19.64,14,6.44,21.63,24.74,28.45,44.54,31.88,14,2.43,14.7-10.28,18.66-18.49,3-6.21-1.66-16.63,5.72-19.49,9.68-3.74,19.8-8.62,30.81-7.39a158,158,0,0,0,18.32.57c16.81-.06,25.71-6.39,30.25-23.28,5.34-19.91,6.72-18,27.31-17,17.3.83,35-1.16,52.12-4.16,10.67-1.87,20.65-8,15.64-22.46-2.32-6.67-1.81-13,4.06-16.79,13.54-8.82,12.19-21.72,7.62-33.23-5.23-13.18,3.27-29.19-11.79-41.14-5.7-4.52,4.57-14.75,13.48-14.17,15.67,1,23-4.09,23.23-20.69.09-8.08,6.61-11.72,15.59-9.19,5.91,1.67,12.27,1.72,18.41,2.57,26.74,3.71,44-8.54,56.06-31.61,11.65-22.22,18.89-24.81,43.08-19.29,28.31,6.46,29.57,6.63,25.64,34-2.56,17.89,5.57,30.83,13.5,44.72-4.09,7.41-11.92-4.29-15.88,3.07-3.08,5.75-.23,10.21,3.44,14.39,5,5.69,10.08,7.52,15-.07,6.89-10.74,17.72-10.29,25.79-5,9.47,6.25,16.16,3.72,24.5-.4,11.12-5.48,21.54-12.88,34.61-13.7,2.46-.16,6.7-1.71,7-3.15,4.66-27.5,35.41-19,48.25-35.14,3-3.81,8.17-3,12.32-.56,13.49,8.05,30.57,10.57,38.71,26.88,3.65,7.3,10.42,13.46,19.31,12.24,19.35-2.66,26.08,12.44,34.89,24,4.58,6,3.79,17.79,13.47,18,12.43.28,23.38,7.36,36.62,4.77,10.68-2.09,18-13.94,31.53-8.14,23.69,10.15,48,18.9,64.43,40.24,3.26,4.22,5.92,8.5,10.59,11.66,19.42,13.19,23,24.37,11.85,43.52-5.12,8.77-7.88,17.75-2.5,24.83,13.53,17.84,2.24,33.47-2,49.82-.61,2.37-3.56,4-4.56,6.4-5.31,12.47,12,24.85,5.74,32.1-8.12,9.32-14,16.47-12.71,29.11.69,6.81,4,11.18,7.9,16.23,7.11,9.18,14.16,19.35,13.41,31.43-3,48.27,8.7,96,5.41,144.11-1.44,21-3.69,41.24-18.2,59.67-16.1,20.46-9.2,46.52-6.42,70.08,3.33,28.13,10,55.7,17.44,83.26,5.5,20.42,8.6,44.47-13,61.62-7.89,6.27-9.83,17.19-2.85,24,18.52,18,13.38,39.81,10.72,60.38-1.33,10.21-2.57,18.84,2.49,28,2.08,3.77,4.7,9,3.62,12.48-8.29,26.91,1.81,52.59,4.9,78.6,1.26,10.59-2.6,19.47-5.23,28.46-3.23,11-25.35,12.3-31.11,2.54-9.7-16.39-24.47-27.55-39.47-41.87-6.67,22.56-9.7,43-8.49,64.21,1.89,32.83-3.89,65.92,4.59,98.62,2.64,10.2-5.08,20.32-4.81,31.4.73,31.27.43,62.57.15,93.85-.1,11.55,1,18.93,15.56,22.78,18.18,4.82,26.13,20.23,18.4,39.92-10,25.61-5.65,51.08-6.9,76.63-.83,16.94-.22,34-.13,50.94.07,12.38.77,23.83,7,35.95,8.65,17,3.23,36.78,2.9,55.38-.09,5.11-5.17,6.53-9.1,8.69-5.8,3.21-6.87,8.4-2.58,13.26,8.77,9.93,11,17.43-3.35,25.06-8.84,4.69-5.77,13.41-1.32,20.93,21.64,36.55,17.69,92.21-9.48,125.69-6.52,8-5.43,16.66-5.41,25.38,0,19.58.23,39.1-10.11,56.8-2-41.17,4.62-81.9,6.81-122.84,3.3-61.45,9-122.78,14-184.13A1391,1391,0,0,0,3173.76-296c-.65-23,1.32-47-22.13-62.38-6.66-4.38-4.14-13.2-4-20.12,2-133.89-3.49-267.89,5.47-401.69C3168-778.42,3156.4-764.13,3163.27-758.57Z"/><path class="cls-6" d="M630.29,1959.26c-29,.68-58.06,1.15-87.08,2.23-6,.22-11.88,2.73-17.82,4.18-11.07-8.19-22.05.62-33.12.56-142.5-.7-285,1.59-427.47-1.7-44.11-1-88.7-1.51-132.88-5.84-5.15-.51-10.48.81-15.73,1.28-37.5.18-75,.28-112.5.61a72.86,72.86,0,0,1-30.85-6.14c-20.68-9-43.7-7.36-65.78-9.38-48.07-4.41-96.33-4.54-144.58-4.52-29.44,0-58.88-1-88.33-1.5-26.84-1.65-53.66,2.85-80.52.41q-128.05.72-256.11,1.38c-8.85,0-17.71-.73-26.56-1.12-8.55,3.46-17.57,2.28-26.27,1.79-63.63-3.55-126.91,7.44-190.37,4.71-14.8-.63-16.08,14.13-27.19,14.79-7.08-3.2-7.08-13.47-15.41-15.41-28.54,1.79-57.08,3.42-85.55-.88-6.19-.19-12.6-1.53-18.53-.37-21.41,4.18-41.92,6.7-60.82-8.87-6.06-5-15.57-2-23.53-2.2-10.58-.2-21.35,1.28-31.16-4.33-14.38,3-28.72,3.68-43-.48-55.71.68-111.42,1.63-167.13,1.92-28.29.15-56.59-.91-84.89-1.42-13.33,3.66-25.59.86-37.13-6.2-7.56-7.46-18.3-5.85-27.3-9.44-22.74-9.06-25.69-19.1-9.18-37.07,3.57-3.88,8-6.92,11.68-10-8.32-9.18-16.57-18-24.55-27.14-12.7-14.45-11.55-26.7,3.91-37.87,5-3.63,10.9-6.1,16.49-8.89,9.55-4.76,19.76-7.63,14.74-23.22-3-9.15,5.34-15.9,13.69-20.63,10.41-5.88,21.69-7.65,33.25-9.21,29.76-4,59.24-9.72,89.64-4.79,22.3,3.61,23.21.46,28.56-22.08,4.11-17.29.15-33.29-.54-50-1.92-46.34-2.29-92.86,1.51-139.13.92-11.25-3.06-14.45-11.33-16.91A30.27,30.27,0,0,0-1570,1505c-21.8,1.48-42-6-63-9.72-48.75-8.56-80.42-40-109.62-75.46-28.21-34.2-45.44-73.37-54.92-117.1-6-27.61-13.48-55.18-21.29-82.51-10.72-28.11-11.28-58.06-15.69-87.31,0-30.32-.08-60.63,0-90.93,2.23-25.87,15.1-49.28,17.44-75.15,11-25,27.5-30.61,56.39-29.94,53.65,1.24,107.73,7.54,161.46-.38,7.11-.6,14.37.21,21.33-2a31.77,31.77,0,0,1,8.3-1c8.46.58,16.41-3.57,24.92-2.74,8.87.84,17.29-2.7,26.1-2.62,51.2,9.34,103.18,2.41,154.58,7.54,12.75,4.69,26.2,3.32,39.36,4.38,34.22,2.75,68.87-.36,102.67,8.74,8.08,2.18,17.64,2.74,25.61-3,2.85-18.53,16.63-20.7,31.59-21.1,2,1.75,4.86,3.55,4.72,6.07-2,36.52,17.37,66.87,28.5,99.61,2.85,36.29,4.55,72.58-.83,108.77-9.35,15.93-10.45,2.14-12.81-2.11-2.75,39.2-25.34,73.5-37.16,111.28-24.16,43.84-51.39,85.53-80.71,126.25-42.6,59.17-94,105-165.21,124.81-25.21,7-31.36,19.44-31,46,.59,49.75-2.78,99.69-4,149.58-.54,23,5,35,30.8,34.55,15.75-.26,31.78,4,47.81,5.19,8.93,2.16,18.19,3.69,25-4.09,20.13-22.94,47.7-26.1,75.36-29.41,33.17-1.67,66.37,1.07,99.47-1.1,3.56-1.52,7.15-3,10.55-4.9a51.93,51.93,0,0,1,6.49-3.59c1.14-.37,2.32-.71,3.49-1.06,3.86.07,6.53,2,8.28,5.38.85,2,1.62,4.14,2.42,6.18,7.63,9.22,19.47,4.65,28.68,8.73,62.49,2,124.92.39,187.36.77,6.21,0,12.59.37,17.48-4.41,2.23-4.31,1.23-8.65.13-13-1-4.56-1.27-9,2.24-12.73a8.64,8.64,0,0,1,6.32-1.25,18.78,18.78,0,0,1,5.34,3.76,31.24,31.24,0,0,1,3.57,5.36c1.11,1.8,2.14,3.67,3.24,5.5a63.38,63.38,0,0,0,4.31,4.95c3.94,3.21,8.69,4.14,13.57,4.89,49.3,4.26,98.36-2.62,147.08-5.81,87.57-5.72,175-3.91,262.41-3.39,116,.69,231.92,3.73,347.53,14.69,82.56,7.82,82.6,7.35,141.43-68.71a66.38,66.38,0,0,1,5.57-6.57c.89-1,1.9-2,2.8-3,18-21,38.05-40.36,51-65.3,29.78-46.82,65.72-88.9,102.19-130.44,13.84-15.76,13.15-26.88-3.3-39.07C167.53,1391.34,160,1385,151,1381c-34.85-15.46-63.89-38.63-90.12-66-20.17-21-20.58-20.62-33.9,4.17-11.49,21.42-26,40.77-44.32,56.56-18.57,16-42.5,17.1-65.79,18.72-15.87,4.78-32.16,4.77-48.46,4.67a59.74,59.74,0,0,0-19.62,2.9c-13,2.84-25.75,6.6-39,8.36-22.76,7.24-43.35,21.15-68.09,22.41-21.75-5.43-42.55,3.72-63.93,4.2-34.58-8.74-70.29-10.89-105.4-15.53-46.94-6.21-82.73-26.17-98.65-70.34-13.7-38-35.2-59.17-74.15-74.24-44.79-17.33-88.21-41-125.61-74.86-23.87-21.65-52.31-40-80.09-57.28-28.25-17.58-35.69-48-53.29-72-7.69-10.45,2.49-19.61,13.32-24.55,49.67-22.63,94-54.41,141-81.64,19.45-11.26,29-24.86,22.57-48.06-13-46.86-10.79-95.61-16.09-143.43-2.17-19.55-10.3-30.87-27.68-38.36-34.39-14.82-64.37-38.08-99-52.5-17.24-12.42-34.21-25.3-53.79-34.07-6.27-2.82-7.36-9.92-11.79-14.27v0c-2.55-3.55-7.74-2.4-10.37-5.81-45.32-29.84-47-36.93-21.44-86.25,14.84-28.66,35.25-53.55,53.87-79.59,24.42-34.16,45-70.51,65.49-107,17.07-30.4,39.59-57,59.18-85.66,4-5.88,8.18-11.72,11.71-17.9,3.71-6.48,2.9-11.9-5.16-14.61-35.39-11.88-64-34.26-91.18-58.89-9.32-8.44-22.07-11.36-31.33-20.27-19.58-18.84-33.41-41.58-45.65-65.37-2.82-5.47-4.69-10.84-9.23-15.65C-923.37,70-920.7,63.15-908.5,62c22.17-2.13,42.79,1.1,57.62,20.53,29.88,39.17,71.51,63.35,113,87.64,9.2,5.4,19,9.73,28.58,14.55,33-3.88,41.94-33.37,58.32-55C-610.84,76.17-576,18.86-534.83-34c7.64-9.81,11.69-16.7-4.13-24.06-32-14.89-39.65-35-20.85-66.7,22.86-38.54,40.87-79.17,60.37-119.22,7.42-15.24,16.18-29.89,22.29-45.71,23.79-61.56,48-72.41,123.21-65.32,39.24,3.7,77.18,8,116.48,2.89,33.07-4.27,65.58,5.86,98.25,10C-105.35-337.74-72-339.79-38-341c83.69-2.89,167.53-5.05,250.88,10.74,35.11,6.65,72.45,13,106.44-9.21,9.41-6.15,23.92-3.48,25,6.2,3.1,28.76,30.74,40.63,39.88,64.46,4.74,23.18,18.74,42.37,27.7,63.74,11.75,65,51.06,119.47,69.5,182.21,24.6,83.7,62.29,163,77.77,250.14,9.3,52.33,29.63,102.78,50.57,152.16,24.09,43.61,31.61,92.84,46.62,139.5C675.94,580.1,692.84,642,719,701c32.26,72.83,48,150.89,68.36,229.4,15.44-10.18,28.59-23,40.5-37.3,55.35-66.59,110.89-132.93,173.06-193.55,35.81-34.91,64-76.82,96.79-114.6,24-27.64,49.19-54.22,72-82.95,10.67-13.46,11.39-24.41-1.55-37.2-78.77-77.86-126.1-172-143.72-281.22-5.4-75.45-17.86-150.56-8-226.7,2.84-22,1.43-44.6-3.18-66.71-5.42-26,3.28-51.5,3.73-77.32.26-14.82-.8-26.23-20.39-15-11.38,6.53-23.71,10.28-30.77-7-2.34-5.74-8.25-6.54-13.72-6.18-50.65,3.36-68.65-33.16-86-70.38-1.49-3.2-1.8-6.93-3.24-10.2C844.62-337.09,844.54-340,881.18-370c55-45,99-100.31,146.89-152,9.25-10,16.43-20.09,14.22-35.63s7.25-19.18,20-12.3c11.78,6.35,23.9,12.54,34.54,20.49,35,26.17,69.61,52.6,109,72.42,12.82,6.46,27.81,16.69,14.34,35.85-27.86,15.19-55.3,31.29-86.46,42.59,7.58,5.59,15.15,2.89,21.59,5.31,20,7.5,31.73,3.43,35-20.45,2.14-15.92,13-24.85,30.78-17.71a24.61,24.61,0,0,1,6.62,11.38c9.26,33.58,12.18,35.75,46.88,34.36,18.65-.75,36.81-6.07,55.58-6,27.51-6.57,55.33-5.41,83.16-3.65,25,4.33,50.13-4.37,75.1.75,27.43,16.91,52.93-.06,79.14-4.65a98.28,98.28,0,0,1,34.67-.68c16.21,6.2,32,7.87,48.34-.82,13.62-7.23,29.2-5.6,44.15-6.49C1783-410.38,1871.44-412.18,1959-426c8-1.25,16-2.38,24-1,106.33,17.71,213.61,13.33,320.68,14,16,.11,32.2-1.42,48,2.35a21.93,21.93,0,0,1,7.46,4c-12,16.84,7.39,22.06,12.26,32.73a170.77,170.77,0,0,1,16.88,80.34c-1.24,39.19,8.18,78,5.27,117.38-1.11,15.09-.48,30.17-3.75,45.23-2.6,11.94-4.73,24.76,5.9,35.18,7.51,7.37,3.48,16.85,3.59,25.51,1.24,15.16,2.64,29.76-10.79,41.93-7.6,6.87-6.61,18.22-5.39,28.06C2390,55.06,2379,107.87,2361,159.76c-11.13,32-18.75,65-31.51,96.72-34.32,85.17-89.81,156.07-147.61,225.5-17.53,21.06-32.46,45-56.68,59.83a13.6,13.6,0,0,1-7-1.14c-3.19-1.94,1.5-5.46-1.36-7.53-.84,1.87-1.57,3.81-3.22,5.25-45.36,36-97,61.34-147.54,88.63-7.86,4.24-15.88,7.6-20.73,15.61-59.48,22.28-116.38,53.18-182.09,54.17-6.47.89-8.78,5.09-8.65,11.22-.2,8.46,2.2,16.7,1.74,25.16-1.16,7.92-2.28,15.84-4.15,23.63-3.34,47.62-3,95.38-6.61,143-18.46,10.34-32-5.25-47.16-10.07-10.38-3.3-19.79-11.53-25.44-22.23-12.13-31-6.55-63.43-7.77-95.3-.35-8.9,0-17.83-.06-26.74-.09-43.47-.37-43.78-44.15-48.4-4.5-.12-9-.14-13.48-.12-17.46-1.11-35.74,4.13-51.91-6.66-.1-20.38,17.24-7.24,22.56-11.18-29.72-8.54-59.69-21.33-90-33-10-3.82-20.29-10.51-26.08,5.39-56.68,56.27-102.38,122.51-160.77,177.23-24.75,17-41.88,40.17-54.81,66.84-10.22,1.43-18.05,6.82-23.87,15.08-17.42,24.7-40.53,44.09-61.08,65.86-17.93,16.34-34.23,34.12-48,54.16-5.19,7.13-10.56,14.07-18.37,18.59-24.48,20.58-41.15,44.89-37.84,78.83-3.58,59.27-10.23,118.55,7.31,177,20.09,66.94,12.47,126.58-47.22,171.69-9.12,11.09-17.56,22.79-27.3,33.34-1.78,1.86-3.85,3.56-4.85,6a4.63,4.63,0,0,0,1.94,3.87c2.39,1.23,4.91,2,7.33,3.08,3.07,1.79,4.48,4.25,3.3,7.81-4.81,6.4-12,6.17-18.86,7.11-4.59.64-8.95,1.89-12.75,4.73-18,15.77-34.3,33.09-48.06,52.75-15.92,22.75-15.62,26.91,6.38,42.51Q945,1652.5,965.55,1667c13.94,13.13,29.89,23.86,44.14,36.63,3.78,2.93,7.82,5.48,11.75,8.21,22.68,22.35,49.18,40.46,70.91,63.89,14.71,15.27,31.19,29.09,40.16,49.09,5.6,12.36,7.46,25.38,3.86,38.3-2.32,8.33-3.17,20.13-17.41,17.33-27.75,21.71-60.39,29.13-94.49,31.52-11.58.81-22.76,1.9-34.09,5.12-47.12,13.37-95.3,21.67-144.27,21.41-26-.14-51.2,5.57-76.94,6.5-5.33.2-10.32,2.57-15.07,6.79,1.62,9.81,11.41,14.91,14.86,24,7.44,19.66-1.8,33.7-22.82,33.22-21.86-.5-39.13-13.75-47.86-30C680.94,1946.89,656.56,1953.09,630.29,1959.26Z"/><path class="cls-7" d="M-649.21,136.81c2.33-50.54-4-100.82-6.94-151.07C-658.42-53.17-659-92-660.39-130.92c-.86-24-.67-24-25.36-26.4-6.1-.6-12.59.13-17.13-5.38,6.2.1,12.4,0,18.59.32a100.53,100.53,0,0,0,104.11-80.11c2.17-10.42,4.74-21,4.8-31.55.15-26.4-9.52-48.61-31.79-64.15-6.56-4.58-14.28-7.79-20-13.15-15.54-14.46-33.54-18.88-54-15.79,28.67-13.24,37.54-36.7,37.39-66.86-.48-96.23-3.37-192.64,1.45-288.64,4.17-82.84,3.43-165.49,3.32-248.22-.05-43.51-8.22-86.79-5.18-130.48,9.58-19.16,19.49-38.22,26.06-58.67,2.88-9,7.84-13,17.42-12.82,52.43,1.18,42.32-5.46,52.35,42.06,2.94,13.93,3.49,28.41,7,42.16,4.25,16.73,18,26.06,31,23.24,13.33-2.88,22.92-16.12,21.29-32.83-1.89-19.48-5.88-38.74-8.56-58.15-.91-6.58-5-15.14,4.48-18.5,9.68-3.42,17.2-.25,20.79,10.59,5.69,17.19,16.71,31.41,26.85,46.09a61.72,61.72,0,0,0,31.61,23.66c14.41,4.94,27.56.12,34.5-12.3s2-22.29-7.33-30.86c-13-11.95-27.23-23-30.68-41.79,11.69-10.07,26.26-7.14,38.77-11.42,6.87-2.35,11.51,3,16.11,7.37,14.36,13.49,30.32,24.9,46.91,35.45,10.06,6.39,21,9.74,33,9,11.79-.74,20.82-5.8,24.45-17.36,4-12.73-.56-23.24-11.88-29.71-13.83-7.91-28.72-14.08-41.05-26.62,8.33-12,22.08-15.68,31.74-24.42,6.18-5.6,11.33-.35,16.25,3.72,18.35,15.15,39.69,24,62.9,27.93,15,2.57,30.24,3.73,44.66-3.31,10.28-5,18.34-12.8,18-24.54-.42-12.36-10.11-17.59-21.13-21.08-9.59-3-19.38-2.78-29.08-4s-19.29-3.85-27.86-8.87c-4.59-2.68-10.4-6.57-6.88-12.44,13.63-22.76,5.78-38.65-22.83-51.78,28.95-3.8,36.44-17.8,36.86-37.9.13-6,3-12.16,5.71-17.74,5.63-11.65,15.3-17,28.33-15.84,13.29,1.21,20.92,8.9,24,21.48,2.08,8.46.57,18,8.41,26.37,14.45-5.18,30-10.32,44.28,1.86,3.56,1.74,5.28,8.67,11.14,4l0,.07a10.28,10.28,0,0,0,5.12-5.31c17.78-10.41,38.65-9,57.71-14.81,8.9-2.7,16.72,4.42,22.87,11.15,4.43,4.87,8.25,7,15.89,5,26.83-7.29,35.21-2.38,45.9,24,1,2.47,2,5,3,7.42,5.41,5,5.35,11.64,5.4,18.23,0,2.54,0,5.11.08,7.67.1-2.55,0-5.1.07-7.78,0-6.66,0-13.19,5.47-18.07,7.56-20.07,18-35.32,43.51-28.09,3.68,1,8.53-1.49,12.69-2.82,15.66-5,28.57-1.7,36.32,13.38,4.32,8.4,8.32,12.15,18.48,8.39,11.18-4.15,21.63.22,28.19,9.88,5.92,8.71,13.18,9.61,22.81,9.82,18,.4,28.12,9.47,30.74,27.16,2.86,19.38,4,39,5.85,58.55,2.85,14,5.11,28.17,5,42.53,0,5.3,0,10.66,0,16a22.73,22.73,0,0,0,.05-3.87c.05-1.78,0-3.57,0-5.39.75-9.52-2.25-19.68,5.1-28,2.12-15,3.68-30.09,6.51-45,2.91-15.34,8.33-29.94,25.65-34.25,8.52-2.13,10.57-8.12,13.6-14.67C335-1310.3,344-1318,358.5-1317.67c4.28.09,9.25-.66,12.78-2.85,17.8-11,33.8-9.75,47.22,8.07,25.21-54.72,45.47-52.5,71.84-29,3.29-4.09,6.21-8.5,9.89-12.16,17.14-17,37.52-12.54,46.47,9.58,4.13,10.18-1,26.29,13.07,29.73,12.44,3,20.77-12.12,33.54-13.67,5.65-.68,7.39-7.25,10.78-11.28,18.77-22.27,23.58-23.37,51.43-10.78,8.69-11.67,12.25-30.87,32.24-30,12.94.56,21.18,8.32,25.08,20.63,5.19,19.28,7,38.78,3.44,53.11.62,9.06,6.22,5.79,2.74,6.62-1.35.32-2.07-.23-2-1.66.19-12.84-.8-25.87,6.11-37.63a94.2,94.2,0,0,1,11-40.8c11.52-21.84,33.81-26.13,49.86-7.66,9.53,11,17.59,10.75,29.57,7.73,8.66-2.19,12-6.19,12.14-14.33a38.34,38.34,0,0,1,6.23-20.13c11.39-17.65,32.66-18.65,43.7-.81,6.69,10.81,12,20.78,25.58,24.71,9,2.6,13,12,14.81,20.85,2.79,13.88,4.36,28,6.45,42,3.18,7.29,4.47,15,4.88,22.84.24,4.16-.51,8.28-.78,12.86,1.36-5.31.7-10.34,1.23-15.29a15.93,15.93,0,0,1,4.65-9.94c11.39-31.09,13-32.63,42.29-32.82,6.4,0,9.11-2.73,12.6-7.35,20.43-27.06,35.43-26.51,54.63,1.37,1,1.41,2.51,2.42,5.37,5.09,9-5.11,18.94-12.2,31-8,10.78,3.69,16.55,13,22.66,22.51,26-59.42,33.65-63.5,72-38.06,2.37-11.72,4.49-22.92,6.92-34,2.28-10.44,4.12-21.14,10.15-30.26,6.54-9.89,16.19-13.82,27.78-12.06,10.77,1.63,17.73,8.4,20.45,18.71a90.6,90.6,0,0,1,3,21.09c.49,23.17,11.84,33.39,35.14,33.16,14.92-.14,29.88.77,43.32,9.85,18.09,12.23,33.73,4.74,37-16.85.93-6.08-.14-12.63,4.5-17.76,9.84,9.26,8,21.1,7,32.62-8.47,95.16-10.14,190.65-14.21,286-1.34,31.37,5.86,62.13,5.65,93.53-.74,115.19-10.39,229.94-15.38,344.91-3.17,73.18-.35,146.5-1.14,219.75-.16,14.78,2.65,31.07-13.14,41.1-25.41,1.43-50.39,7.65-76.17,5.75-28.25-2.07-28.92-1.94-30.88-29.63-.57-8.05-1.54-15.74-6.41-22.44-3.05-4.15-3-8.33-.13-12.54,5.69-7.08,8.65-14.34-1.43-19.86-14-7.67-25.37-19.4-41.23-24.24-14.63-4.47-27.64-12.86-38.48-23.61-23.08-22.91-52.64-36.51-78.25-55.73-2.88-2.16-6.16-4.13-9.31-.64-2.78,3.09-2.28,7,.11,9.76,9.92,11.57,5,19.71-4.19,29.3C997.53-480.09,956.6-426.8,906.33-382.33c-16,14.19-32.7,27.73-46.74,43.95-11.22,13-11,15.41,2.82,26.11,4.82,3.73,7.76,8.2,7.88,13.1.8,33.18,27.44,50,45.32,72.2,5.4,6.72,14.93,5.06,22.76,5.45,12.28.62,24.62.17,36.37.17,3.86,6.91-7.12,12.4-.09,18,6.26,5,11.69.49,17-2.55,9-5.13,16.35-13.76,29.7-14.37,0,20.64,1.05,40.74-.29,60.68-1.38,20.55-1.7,40.75,1,61.29a282.35,282.35,0,0,1-.78,80c-3.73,23.93-4,47.91.69,71.84a87.67,87.67,0,0,1,2,18.58c-.9,38.46,5,76.45,7.29,114.69,3.48,14.82-5.34,21.47-17.38,25.51-122.2,41-237.4,98.72-355.79,148.84-17.22,7.29-33,17.78-51.38,22.45-10.65-9.36-13.37-22.83-17.63-35.27C567.72,286,545.91,223.8,536.52,158.09c-3-21.32-12.49-40.76-19.88-60.82C500,52.15,483.71,6.88,468.09-38.6c-9.58-27.87-19.82-55.32-34.12-81.19-14.83-26.82-23.06-55.89-27.81-86-1.54-22.91,2-48.05-26.1-59.28-6-8.53-8.32-20.48-19.9-24-14.72-4.52-19.12-14.57-17.51-28.81.82-7.21,1.19-14.5-7.11-18.35s-14.38.2-18.52,6.21c-7.29,10.59-17.66,9.85-28.5,10.75-48.69,4-95.82-7.85-143.67-12.67-66.72-6.73-133.8-8.09-200.52.31-36.17,4.55-71.36-1.57-106.44-6.88-46.36-7-92.22-9-138.12,1.17-8.83,2-16-1.43-23.14-4.38-33.2-13.73-67-8-100.29-2.49C-444-340.94-455.74-323.49-462-306c-14.19,39.72-39.58,73.92-53.18,113.89-6,17.57-16,33.84-26.47,49.5a170.33,170.33,0,0,0-16.63,30.48c-11,27-1.65,43.4,26.38,48.77,6.77,1.3,14.38-1.51,20.22,3.93,1.41,5.17-1.57,8.71-4.31,12.15C-561.13,9.3-598.33,71.56-642,129.17-644.13,131.94-646.8,134.27-649.21,136.81Z"/><path class="cls-8" d="M165.43,132.74c5.29,17.47,16.35,31.63,27.32,45.59,16.74,21.31,30.54,43.88,37.57,70.36,2.27,8.56,4.84,17.89,10.12,24.65,24.89,31.93,38.09,70.63,61,103.55,12.85,18.42,22,38.8,33.1,58.17,4.56,8,7.24,16.1.69,24.9-5.06,6.81-6.69,15.89-3.54,23.07,7.57,17.22-.81,30.22-7.39,45-23.59,52.93-54.85,102.38-71.7,158.39a110.6,110.6,0,0,1-12.33,26.7c-49.67,78.89-84,165.58-126.23,248.23C82.34,1023.45,45.17,1082.43,12.57,1144c-30.86,58.31-62.9,116-94,174.16-5.55,10.39-14.74,12.75-24.43,13.45-38.24,2.78-75.4,15-114.19,12.93a43.52,43.52,0,0,0-13.28,1.44c-60.71,16.08-122.59,6.15-183.91,8.25-29.27,1-44-19.59-56.09-42.53a28.07,28.07,0,0,1-2.79-7.52c-9.37-47.61-21-36.91,27.86-59.44,72-33.19,145.59-63.6,211.13-109.44,10.21-7.14,21.73-12.36,32.34-19,20-12.42,41-21.47,64.73-23.3,7-.55,14.44-1.47,20.86-4.16,17.74-7.43,22.41-27.11,10.24-42.05-3.28-4-7.67-8-12.39-9.87-55-22.23-94-66.42-139.46-101.72-10.63-8.26-21.7-15.63-32.92-22.9-10.48-6.8-21.47-12.94-31.43-20.44-31.23-23.55-59-22.42-87.54,3.6-17.3,15.75-30.35,35.11-45.88,52.33-4.76,5.27-9.4,10.71-14.69,15.4-7,6.19-13.46,6.49-20.63-1.31a349.37,349.37,0,0,1-36.42-46.16c-21.85-33.64-29.16-34.89-64.61-14.41-4.57,2.64-8.39,6.8-15,6.78-10.13-19.94-15.07-42-16.75-64-1.88-24.61-6.41-49-1.67-74.4,5.93-31.68-8.51-55.78-37.15-70.18-38-19.12-74.13-41.73-112.46-60.48-30.2-14.77-57.08-36.19-87.28-51.66-10.8-5.54-12.77-14-5.66-24.31,8.58-12.51,16.37-25.6,25.38-37.78,28.72-38.81,54-79.94,81.44-119.57,31-44.75,63.89-88.2,95.71-132.39,5.37-7.46,12-9.48,20.7-9.22,17.85.52,35.73,0,53.59.46,27.22.64,53.29-4.8,78.53-14.44a831,831,0,0,0,145.79-72.91,45.81,45.81,0,0,0,6.5-4.71c11.5-10.48,15.75-28.13,9.47-38.84-5-8.48-23.28-13-36.65-6.65-16.07,7.61-31,17.59-46.62,26.24-36.68,20.34-74,39.19-115.31,48.64-.23-17.48,14.82-25.84,22.88-38.3,0-2.26,3.71-2.49,3.05-5-.27-1-.71.1-1.32,2.32-.94,3.42.19-1.16-1.43,2.09-7.69,12.91-25,20.08-22.84,38.76-20,8-29.34,8.59-66.86,4.16,4.84-17.71,16.87-30.52,27.4-44q45.16-58,84.9-119.85c20.65-32.25,43.41-63.15,65-94.81,6.65-9.75,15.28-13.25,27.08-13.76,65.9-2.85,131.78-9,197.65-9,49.55.05,100-2.62,148.68,12.13,7.56,2.29,15.85,2.19,23.83,3,13.3,1.38,26.72,1.91,39.89,4.07,28.12,4.6,53.8,10.35,70.53,39.66,14.33,25.09,37,45.43,55.91,67.87,4.51,5.48,9.73,10.26,13.34,16.58,16,28,16.13,28.28-13.15,40.23-8.7,3.55-14.5,9.91-20.37,16.73C61,172.24,11,192.08-51.06,175.78c-2.59-.68-5.25-1.87-7.82-1.72-54.28,3.18-93.94-28.1-134.65-56.93-11.51-8.16-24.34-15.6-35.41-1.79-10.82,13.5-5.15,28,6.48,38.11,29.17,25.21,64.77,40.46,97.36,60.42,50.69,31.06,106.65,23,161.59,22.77,7.22,0,15-1.59,19.54-7.39,27.05-34.18,70.09-52.81,90.44-93.63C150.1,128.35,156.82,118.2,165.43,132.74Z"/><path class="cls-6" d="M165.43,132.74c-3.67-1.28-7.6-6-10.69.78C138.45,169.13,110,193.07,78,213.59c-3.68,2.36-9,4.09-9.38,8.85-1.44,20.78-16.84,20.31-31.17,20.66-27.69.68-55.43-.14-83.07,1.18-40.95,1.95-73.48-19.81-107.13-37.44-15.66-8.2-30.19-18.86-46.33-26.64a96,96,0,0,1-38.33-32.72c-9.41-13.88-7.58-32.27,2.94-41.78,11.36-10.25,26-8.83,41,2.49,21.21,16,44.84,28.44,65.3,45.64,8.26,6.95,19.41,8.88,30.33,9.24,21.52.73,42.37,5.37,63.49,9.12,54.19,9.64,98.41-9.7,131.14-53,12.16-16.09,25.71-23.7,45.66-20.42-.71-19.7-15.31-31.5-20.46-47.42,5.89,2.14,13.43,3.81,15.32,9.82C145,85.71,162.13,106.53,165.43,132.74Z"/></g></g><path class="cls-9" d="M58.05,68.2q-.77-4.1-1.51-8.2a.42.42,0,0,0-.08-.22,2.69,2.69,0,0,1-.64-2.19,3.91,3.91,0,0,0,.07-1.08C55.6,55,55.32,53.4,55,51.85q-.83-4.58-1.67-9.14-1.17-6.3-2.33-12.6c-.57-3.12-1.17-6.24-1.72-9.36a7.84,7.84,0,0,0-2-4.08c-.9-1-1.95-1.8-2.79-2.84,0-.06-1-1.07-1-1.53,0-.15,0-.2.14-.26s.3,0,.26-.24a7.57,7.57,0,0,0-.28-1.32.26.26,0,0,0-.32-.19l-.68.1c-4.11.7-8.22,1.46-12.31,2.23L16.38,15.27c-1.42.27-2.85.54-4.26.88-.3.07-.35.12-.32.43a11.43,11.43,0,0,0,.2,1.17c0,.17.13.26.31.21s.25.06.24.23a6.09,6.09,0,0,1-.36,1.64,26.33,26.33,0,0,1-1.11,2.75,7.61,7.61,0,0,0-.53,1.29,7.2,7.2,0,0,0-.43,2.83,32.75,32.75,0,0,0,.64,3.67l.13.62.12.68.11.58c0,.21.08.42.13.63s.07.38.11.57a2.29,2.29,0,0,0,.11.58,2.6,2.6,0,0,0,.12.63,2.65,2.65,0,0,0,.14.68,2.27,2.27,0,0,0,.12.63,10.14,10.14,0,0,0,.23,1.2l.27,1.4.12.64.12.67.13.68.12.62c.08.37.15.74.22,1.11l.25,1.31c.13.76.27,1.52.44,2.27a2.58,2.58,0,0,0,.14.67,2.11,2.11,0,0,0,0,.25,2,2,0,0,0,.14.63,7,7,0,0,0,.18.91l.27,1.45c.06.28.11.55.16.82l.12.63.13.68.12.58c0,.17.07.35.1.53l.12.63.09.48.12.63a5.43,5.43,0,0,0,.13.68,3.25,3.25,0,0,0,.13.62,2.7,2.7,0,0,0,.12.63,2.8,2.8,0,0,0,.12.63,5,5,0,0,0,.15.77,11.3,11.3,0,0,0,.22,1.16c.15.76.29,1.51.44,2.27.09.5.19,1,.28,1.5.06.29.11.58.17.87s.08.38.11.58l.12.58a2.62,2.62,0,0,0,.12.62,3.89,3.89,0,0,0,.13.68,3.5,3.5,0,0,0,.12.63,2.29,2.29,0,0,0,.11.58s0,.1,0,.14c.29,1.52.58,3,.88,4.56l.66,3.37a.46.46,0,0,0,.08.28,1.57,1.57,0,0,0,.57.81,5.29,5.29,0,0,0,2.18.93,8,8,0,0,1,1.51.4,4.65,4.65,0,0,1,1.48,1.16,3.5,3.5,0,0,0,2.51,1.18,29.17,29.17,0,0,0,4.58-.09c2.18-.19,4.34-.51,6.5-.88,1.45-.25,2.89-.56,4.33-.88a56.21,56.21,0,0,0,6.49-1.8,13,13,0,0,0,2.79-1.27,2.56,2.56,0,0,0,1.08-1.22,7.07,7.07,0,0,1,.67-1.35,3.39,3.39,0,0,1,1-1.08,12.53,12.53,0,0,0,1.87-1.35A2.38,2.38,0,0,0,58.05,68.2ZM41.71,32.15c-.16-.84-.31-1.68-.47-2.51-.24-1.3-.48-2.6-.74-3.89.26,1.29.5,2.59.74,3.89C41.4,30.47,41.55,31.31,41.71,32.15ZM19.31,47.78l-.53.1.53-.1.53-.1ZM39.77,62.43a5.56,5.56,0,0,0,.14,1.95,6.37,6.37,0,0,0,.24,1,6.37,6.37,0,0,1-.24-1A5.56,5.56,0,0,1,39.77,62.43Z"/></g></svg>