<svg xmlns="http://www.w3.org/2000/svg" xmlns:xlink="http://www.w3.org/1999/xlink" viewBox="0 0 54.63 48.53"><defs><style>.cls-1{fill:none;}.cls-2{clip-path:url(#clip-path);}.cls-3{fill:#fff;}.cls-4{fill:#fefffe;}.cls-5{fill:#b79474;}.cls-6{clip-path:url(#clip-path-2);}.cls-7{opacity:0.08;}.cls-8{clip-path:url(#clip-path-3);}.cls-9{fill:#d6a405;stroke:#8c6239;stroke-miterlimit:10;stroke-width:4px;}</style><clipPath id="clip-path"><rect class="cls-1" x="-1170.18" y="326" width="1921" height="1177"/></clipPath><clipPath id="clip-path-2"><rect class="cls-1" x="-1173.18" y="257" width="1938" height="4780"/></clipPath><clipPath id="clip-path-3"><rect class="cls-1" x="-3375.18" y="207" width="1938" height="4780"/></clipPath></defs><title>icons_DC</title><g id="Vrstva_2" data-name="Vrstva 2"><g class="cls-2"><path class="cls-3" d="M-1172.92-227.94V-491.23H1750.82V1700.5H-1172.92V1476.06c2.86-3.15,5.44-6.61,9.14-8.88,2.76-1.71,6-3.83,8.82-1.23,9.76,9.12,20.18,4,30.19,1.44,5-1.27,9.53-2.39,14.41-.12,3,1.41,6.29,1.74,9.28.1,5.21-2.86,9.59-2.95,14.52,1.29s10.25,1.75,14.34-2.18c6.43-6.17,13.6-11.45,20.19-17.42,7.56-6.84,10.25-6.12,14.83,2.93,4,7.89,8.92,9.09,16.23,3.79,3.47-2.51,6.22-5.84,9.34-8.74,2.88-2.7,5.92-6,9.91-5.79,9.14.43,16.61-3,23.53-8.34,3.88-3,7-2.25,9.79,1.81,3.44,5,8.07,6.25,14,4.31,8.84-2.88,14,1.35,17.37,9.43,4.15,10.06,7.39,11.31,17.11,6.13,7.09-3.78,13.31-7.5,21.59-1.94,4.66,3.13,9.47-.74,13.37-4s7.86-6.12,11.78-9.19a19.28,19.28,0,0,1,5.46-2.73l1.5-.26,1.51.12,1.44.45c.93.34,1.85.74,2.76,1.12,5.42,1.48,11,2.08,16,5.43,5.59,3.78,10.88,1.1,15.66-2.41,8.85-6.51,17.35-13.47,25.87-20.41,2.48-2,5-4,8.09-5,4.18-1.32,6.37-.1,4.83,4.63-1.09,3.33-3.49,6.48-2.28,10.14,2.22,6.69,7.52,6.75,13.06,5.21,5.17-1.42,7.59-.72,8.1,5.6.88,10.82,6.84,12.92,15.62,6.21,2.81-2.14,5-5.07,8.24-6.67a5.45,5.45,0,0,1,4.4.27c1.65,1.68,1,4,1.51,5.92,2.18,8.34,8.66,11,15.93,6.39,4.46-2.8,7.53-7.29,11.92-10.18.71-.52,1.47-1,2.21-1.44.34-.23.72-.45,1.06-.69.64-.48,1.31-.95,2-1.44.29-.25.61-.49.9-.74.54-.53,1.12-1,1.69-1.52.26-.26.55-.51.81-.76.5-.52,1-1,1.57-1.51.25-.25.52-.49.77-.75.48-.52,1-1,1.52-1.48,0,0,.77-.73.76-.74a19,19,0,0,1,1.49-1.49s.76-.73.74-.74c.48-.53,1-1,1.5-1.52l.76-.77c.49-.55,1-1.06,1.54-1.58.25-.28.52-.54.78-.82.51-.59,1-1.14,1.59-1.7.26-.3.54-.58.81-.89.53-.64,1.1-1.24,1.67-1.85.29-.33.59-.62.88-1,2.92-2.82,5.5-6,8.82-8.41a6.54,6.54,0,0,1,2.73-.8c6.94,3,1.64,6.2-.29,8.57-4.88,6-11.22,10.64-15.7,17a28.07,28.07,0,0,1-1.61,2.31,27.1,27.1,0,0,0-3.66,5.83c-.34.9-.72,1.78-1.07,2.67-1.57,4.09-.83,8.19,2.1,10.91,4.81,4.43,8,9.78,11.34,15.24,3.81,6.16,12.56,6.19,19.75.33,6.61-5.38,12.19-11.92,18.33-17.83,14.11-13.6,32.53-11.59,42.9,4.6a87.25,87.25,0,0,0,9.3,11.64c6.14,6.72,16,4.33,25.66-5.71,6.24-6.57,13.17-8.85,22.14-5.27,7.77,3.11,15.53-.19,22.9-2.62,23.87-7.89,48.31-7.66,72.9-5.89,6.89,2.62,6.05,6.82,2.12,11.39-4.37,5.08-9.36,9.56-14.05,14.36-2.95,3-6.23,5.78-8.71,9.21-3.45,4.78-6.34,10.25-1.14,15.19,4.75,4.52,9.08.37,13.07-2.51,2.57-1.87,5.11-3.76,7.6-5.73a65.17,65.17,0,0,0,13.27-11c5.81-5.78,12.87-10.12,18.59-16a20.78,20.78,0,0,1,2.35-1.61,34.45,34.45,0,0,0,3.45-2.47c4-3.6,7.57-7.67,12.66-9.86a16.44,16.44,0,0,1,3-.93c5.32-.75,10.8-.29,16-2.12q29.21-1.62,58.35-4.18c2.51-.22,5.16-.24,7.31,1,7.09,4,13.73,1.75,20.4-1,7.63-3.14,15.45-5.25,23.79-5,4.87.16,8.62,1.59,11.31,6.37,5,9,8.14,9.59,16.91,4.7,3.09-1.73,5.92-3.93,9.16-5.43,11.89-4.9,9.1,6.09,12,11,3.68,6.92,9.18,7,15.48,4.16s11.75-6.73,17.38-10.51c2.33-1.57,5-3.44,7.74-1,2.27,2,1.25,4.7.24,7-7.39,16.41-5.13,30.47,9.79,41.64,4.38,3.28,5.32,8.19,5.7,13.33.47,6.29,2.79,11.52,10.09,11.34,6.76-.17,8.32,3.43,9.1,9.12,1.87,13.67,4,14.54,16.28,9.89,8.3-3.15,17-6.19,23.67,3.73,1.93,2.87,5.49,2.91,8.84,2.18,9.72-2.12,19.07-1.45,27.89,3.59,6,3.4,10.35.9,13.5-4.26,3.49-5.74,7.17-7.51,12.64-2.26,2.59,2.48,6.29,3.32,9.62,4.54,9.54,3.48,15.36,1.57,16.48-8.46,1.89-17,16.9-21.77,26.84-30.52,5.62-4.94,10.39-8.87,12.06-16.12.8-3.47,1.55-7,2.41-10.42,3.18-12.84,12.72-16.64,23.15-8.55,4.82,3.75,9,7.88,15.4,8.8,3.08.45,4.37,3.41,5.76,5.93,1.75,3.2,3.69,6.45,8,6a9.24,9.24,0,0,0,8.49-8.46c1.18-14.54,12.18-16.45,23-19,4.81,5.09,2.6,11.43,3,17.26.51,6.7-.69,13.48.86,20.1,7.19,10.05,11.59,9.77,18.12-1.24,2.51-8-.79-16.5,2.44-24.36a3.92,3.92,0,0,1,2.49-1.9c7.17,2.86,13.7,8.86,22.42,4.17,1.37-.74,3.37.68,4.88,1.64,9.19,5.87,18.24,9.58,27.93.52,3.34-3.12,4.91.17,5.53,3.19.91,4.42-1.38,8.29-2.37,12.38-1.25,5.11.08,9.41,5.17,11.39,5.57,2.17,8.44-1.57,10.79-5.93,3.79-7,2.09-15.49,5.92-22.51,3.12-4.3-1.11-13.92,5.92-13.58,5.12.25,2.93,8.94,3.37,14a14.85,14.85,0,0,0,4.34,9.3c5.83,7.33,12.35,7.32,19.56,2.07,3.44-2.52,7.08-4.78,10.49-7.34,6.57-4.95,12.75-7.51,19.65,0,4.22,4.57,10.54,3.86,16.19,3.59,22.76-1.06,45.35-4.07,67.89-7,60.79-8,121.72-12,183-10,4.19.3,8.41.12,12.6.5,3.25.29,7.39,1,8,4.05,2.44,11.42,13,16.93,18.13,26.23,7,7,17.6,9.62,21.81,20.37,1.91,4.85,9.72,2.64,12.5-3.07,2.33-4.78,1.78-10.45,4.61-15.09a5,5,0,0,1,4.3-1.09c4.61,2,6.33,6.44,8.84,10.2,6.48,9.73,11,10,18.62.88,1.59-1.89,3.17-3.79,4.82-5.62,2-2,2.44-4.78,3.28-7.34a5.48,5.48,0,0,1,1.82-2.12,6.42,6.42,0,0,1,2.82-.35,7.82,7.82,0,0,1,2.6,1.29,10.77,10.77,0,0,0,5.45,2.4c10.58-1.78,19.88-5.87,25.74-15.27,3.5-5.61,6.73-5.35,12.24-2.37,8.11,4.39,16.26,7.57,20.66,17,2.94,6.33,9.84,6.21,13.68-.19a44.74,44.74,0,0,1,22-19c7.83-3.33,7.28-11.52,6.53-18.78-2.21-21.15-.9-23.54,20.26-27.61,9.11-1.75,12.32-6.06,10.73-14.71-.92-5.06-1.13-10,2.33-14.28,4.79-5.89,5-12.33,2.7-19.16-2-6-2.44-11.69.73-17.56,3.54-6.53,1.95-13.54-.54-19.75-7.32-18.24.6-33.76,7.83-49.5.73-1.6,2.6-3.08,2.38-4.69-2.53-18.62,9.88-33.32,13-50.42a19.34,19.34,0,0,0-.13-8.5c-7.8-29.22-1.39-58.91-3-88.33-.18-3.2-.05-6.79,1.94-9.3,7.34-9.21,6.38-19.94,6.52-30.63.67-51-.58-102-3-152.86-3-61,4-120.92,10.57-181.09,1.4-12.75,1.19-25.61,2.83-38.36.83-6.51-1.5-12.21-8.78-13.95-6.7-1.58-8.14-6.5-7.9-12.16,1-23.92-2.34-47.69-2.27-71.57a50.18,50.18,0,0,0-5.08-22.64c-6.68-13.8-3.79-28.82-2.9-43.2,1.34-21.68,2.41-43.37,3.65-65a83.61,83.61,0,0,1,2.83-17.9c2.45-7.48,4.29-15,3.91-23a20.22,20.22,0,0,1,3.6-13.13c10.27-14.5,9.33-30.06,3.47-45.76-1.58-4.25-.92-7.84-.36-12.19,1.86-14.48,7.78-27.86,3.47-44-4.77-17.88-3.14-37.55-.14-56.28,1.3-8.12,2-14.77-7-18.74-5.1-2.26-5.28-7.33-5.15-12,.42-15.29.41-30.61.89-45.9.46-14.79-.88-29.83-1-44.77A58.19,58.19,0,0,1,832,161.84c2.28-7.86,4.39-8.54,11-3.32a70.67,70.67,0,0,1,9,9.15c1.9,2.18,3.91,4.58,7.21,3.15,3-1.3,3.5-4.27,3.78-7.18.23-2.51-.32-5-.47-7.46-1-17.23-1.8-34.58-3.37-51.65-1.25-13.58-4.77-26,2.44-39.08,2.55-4.61-.18-11.16-1.9-16.67-3.74-12-5.32-24.37-6.11-36.84a40.15,40.15,0,0,1,5.56-23.45c7.3-12.67,5.68-27,4.46-40.82-.73-8.17-1.73-16.3-1.49-24.5.25-8.36-.44-16.38-5.78-23.37-2-2.63-3.53-6.28-2.32-9.06,3.88-8.92,1-18.86,4.93-27.75a19.8,19.8,0,0,0,.47-15.65c-1.35-3.41-1.81-7.23,0-10.41,4.61-8,1.08-12.93-5-18.23-5.38-4.67-10.13-10-16.59-13.31s-12.67-5.12-20.34-2.57c-10.32,3.43-18.59-.21-24.83-9.13-2.94-4.19-5.95-7.87-11.57-8.51-4.09-.47-6.9-3.37-9.79-6.11-11.51-10.89-20.71-10.41-32.54.13-9.13,8.12-19.66,13.87-32.7,11.85-3-.46-5.48,1-8.2,1.84-6.68,2-11.41-2.66-9-9.2,3.15-8.54-.74-16.53-1.68-24.55-.78-6.59-15.7-7.16-19.56-.27-7,12.56-16.82,17.79-30.87,15.81-3.2-.45-5.44,1.17-6.75,4.13-.58,1.29-1,3.25-2.18,3.57-13.55,3.76-8.52,13.76-7,21.92,1.94,10.36-4.37,18.33-6.88,27.33-1.17,4.19-6.39,5.51-10.8,5.68-5.71.22-11.35,1.45-17.07,1.13-4.09-.23-7.05,1.4-8.32,5.24-3,9.22-10.28,11.13-18.65,10.95-7.8-.18-13.83,1.51-16.39,10.25-1.94,6.61-7.34,8.11-13.79,6.3-3.87-1.09-8.1-2.43-10.09-5.67-6-9.81-14-13.21-25.18-10.22-4.09,1.1-7.22-2-10-5.06-4.7-5.18-10.5-7.14-17.36-5-2.06.65-4.89,2.08-6.13.69-10.2-11.5-24.14-5.79-36-6.86-14.57-1.33-29.32-4.2-44.56-1.09-9.29,1.89-19.8.17-29.74-.34-6.5-.34-12.84-.18-18.89,2.47-4.86,2.13-9.43,1.61-14.48,0-14.32-4.64-20.43-2.5-29.89,9.36-4.16,5.22-9.48,7.74-16,5.73-6.22-1.91-6.78-7.68-7.49-13-.42-3.2.38-6.42.29-9.61-.11-4,3.09-9.56-2.1-11.54a25.74,25.74,0,0,0-19.84.62c-5.23,2.4-4.17,7.4-3.75,12.18,1.35,15.33-1.87,30.47-2.37,45.75-.21,6.77-4.46,11.34-12.24,9.93-5.78-1-11.27,1.12-17,1-7.92-.17-11.56-3.47-11.89-11.6-.54-13.89,3.12-27.53,1.63-41.53-.61-5.83-2.28-10.45-6.45-14-5.17-4.44-10.43-1.62-14.29,3.62-11.39,15.45-4.38,32.33-5.12,48.56-.59,13-3.72,16.16-16.07,14.72-9-1.05-11.88-4.92-12-14.23-.08-8.9.64-17.7,1.44-26.53.56-6.09-.32-11.79-8.25-12.3-7.3-.47-14.63-.8-17.38,8.37-1.35,4.52-1.1,9.17-1.41,13.79-.73,10.76-4.13,13.57-15.1,12.67-1.42-.13.34.12-1-.17-6.94-1.44-14.7,1.31-20.92-2.9-6.54-4.44-3.22-12.6-5.45-18.86-2.4-6.7-4.65-11.72-13.12-10.87s-12.65,4-13.1,13.26c-.61,12.74-9.9,21.14-22.68,20.39-16-.93-32,1.23-48-.29-5.14-.49-9.77.78-11.33,5.88-2.47,8-7.56,10.56-15.36,9.6-8.76-1.08-10.1-7.76-11.43-14.6-2.48-12.71-12.94-20.84-25-18.87-5.93,1-12.1,2.65-16.86,6.36-5.15,4-11.12,3.61-16.6,5.36-19.34,6.21-41.41,3.46-58.34,17.7-7.6,6.38-16.85,4.54-25.68,3.6-4.67-.5-5.78-4.68-7.51-8.21-3-6-8.91-8.08-13.07-3.61-8.25,8.86-20.18,6.92-29.56,12.27s-19.8,6.93-30.62,2.17c-5.57-2.44-8.82.33-10.44,6.72-3.64,14.41-11.66,17-24.63,9.58C-325.82-97-332-99.68-335-107.22c-1.88-4.84-7.54-3.19-11.57-3.24-6.42-.07-12.85,1.14-17.72-4.79-1.81-2.21-4.38-1.68-6.87-.57-14.9,6.65-28.87,6.58-43.14-3-12.2-8.22-27.05-8.13-41.31-8.69-5.33-.21-10.68.14-16,.12-8.51,0-15.65-1.36-18.05-11.15a6,6,0,0,0-5.16-4.86c-3.67-.3-4.79,2.78-5.64,5.43-2.38,7.49-7.9,9.42-15,9.25-5.35-.13-10.7-.06-16.05,0-6.74,0-12-1.58-12.85-9.55-.4-3.92-2.48-6.6-6.48-7.53-1-.24-2.46-.32-3-1-6.79-9.45-11.64-7.12-19.28.46-7.08,7-32.27-.89-37.12-10a13.31,13.31,0,0,0-6.82-6.38,14.92,14.92,0,0,1-8.06-8c-4.53-10-8.3-10.84-14.91-2.25s-14.89,12.53-25.59,12.95c-8.23.32-12.71-3.38-14.76-10.87a72.53,72.53,0,0,1-2.75-25.34c.83-10.14-6-16.62-16.2-16.44-13.61.24-17,2.67-19.64,18-1.57,9-5.54,14.53-14.51,15.83-4.47.65-7.17,2.56-8.11,7.05-1.18,5.55-4.41,8.71-10.42,8.72-5.21,0-8.75-1.84-10.55-7.1a12.89,12.89,0,0,0-15.59-8.47c-18.42,4.47-36.63-2.77-55,.35-6,1-9.25,2-10.14,8-1.07,7.2-5.43,8.66-12.29,8.3a311.69,311.69,0,0,0-42.67.66c-13.17,1.12-14.53-.09-19-12.58-4-11.16-13.25-17.56-24-20.88-6.09-1.87-11.73,1.4-16.07,6.34-9.52,10.84-20.84,13.13-33.14,6.33-5.66-3.13-10.52-6-15.8.75-3.14,4-8,1.42-12.18,1.62-5.81.27-11.43.11-11.6,8.69-.12,5.93-5.38,7.9-10.43,9.15-5.86,1.45-11.2-.31-14-5.32-4.09-7.35-10.38-9.94-17.93-11.82-12-3-16.79-9.87-16.7-22.4.08-12-.43-12.55-12.48-12.77-6.4-.12-12.89.48-18.81-2.86-5.31-3-9.29,2.84-14.25,2.21a12.44,12.44,0,0,1-3.09-.48c-5.22-2.48-9-6.73-12.17-11.27-5.23-7.51-10.82-8-17.47-2.22-1.72,1-3.42,2.28-5.57,1.06"/><path class="cls-4" d="M836.83,125.36c1.6,6.93,2.86,14,4.91,20.77s5.28,13,12.17,17.26c6.76-9,7.21-18.94,6-28.86-3.39-26.85-7.22-53.64-9-80.65-1.43-21-.85-42-.86-63.07,0-4.5,2.28-8.16,4.5-11.82s4.82-7.11,6.71-10.92c4.14-8.37,2.49-13.11-6.07-16.62-3.24-1.33-4.3-2.83-4.18-6.23,1.23-35.61,3-71.18,6.41-106.65.1-1.06.37-2.11.45-3.18,1.13-14.92-5.85-20.36-19.95-15.45-2.08-2.71-1.26-6.17-2.36-9.16-2.82-7.7-8.39-10.3-15.91-6.94-2.21,1-4,3.08-6.81,2-9.63-3.56-14.54,2.28-18.82,9.46-1.26,2.1-1.6,4.76-3.85,6.31-3.35-.71-1.68-3.37-1.78-5.07-.24-4.62.05-9.27-.08-13.9-.4-14.28-6.62-18.34-20-13.06-2.49-.82-1.92-3.47-3-5.16-4.84-8-13.28-9.14-19.36-1.91-3.58,4.27-6.46,7.42-12.87,7.27s-8.37,6.81-11.18,10.92c-2.45.84-3-.85-4-1.64-7.79-6-14.37-5-19.5,3.43-3.35,5.49-5.4,11.6-7.16,17.78-2.1,7.38-4.32,14.73-8.06,21.77.92-21.23,1.74-42.47,2.83-63.69a36.72,36.72,0,0,0-.65-10.58c-1.2-5-4.23-8.21-9.52-8.65s-9.2,2-11.11,6.67c-2,4.88-3.16,10.08-5,16.08-9.51-6.3-17.8.41-26.52,1.9-4.78.82-7,5.48-8.34,10.24-2.71,9.36-1.94,19.11-3.58,28.59-1.15,6.65-1.77,13.4-2.63,20.11-3,3.19,1.68,8.68-3.38,11.25-3-.88-4-3.82-5.79-5.9-2.21-2.52-5-4.8-8.23-3.43-10.55,4.47-24.2,5.62-24.83,21.61a9.27,9.27,0,0,1-1.48,3.94,7,7,0,0,1-2.33,2,14.44,14.44,0,0,1-6,1.45c-8.62-3.72-16.1-4.17-22,5.17-2.52,4-8.45,6-12.47,4.3-9.28-3.86-21-3.24-26.62-14.61-3.45-7-9.5-7.09-14.84-1.61-6,6.19-8.57,3.25-11-3.14-4.49-11.87-9.09-12.84-17.73-3.22-4.39,4.89-6.21,3.58-9.29-1.1-6.76-10.26-8.62-10.38-18.25-3.16a14.53,14.53,0,0,1-2.56,1.79c-.49.2-1,.38-1.48.57l-1.58.13-1.56-.25a24.34,24.34,0,0,1-3-.91c-9.47-2.53-16.68-9.18-24.94-13.9-9.4-5.37-13.57-4.64-18.15,5.38-4.47,9.79-6.45,20.28-8.1,30.84-.44,2.83-.95,5.63-3.38,7.6a3.74,3.74,0,0,1-3,.44c-4.8-5.52-4.54-12.47-5.22-19.09-.44-4.25-.57-8.47-2.52-12.43-6.27-12.69-15.35-14.13-24.94-3.79-2.18,2.34-4.08,4.93-6.67,6.87-6.9,5.15-9.39,4.57-13.6-3.23-4.93-9.13-11.8-10.62-16.93-2.24-6,9.87-17.65,12.74-24,22.2-3.52,5.25-11.86,1.65-13.57-5.36-1.26-5.21-.48-10.64-.79-16-.11-5.29.43-10.62-.48-15.87-.75-4.34-2.24-8.72-7.41-9-5.68-.32-7.71,4.11-8.92,8.8a43.36,43.36,0,0,0-.87,12.65,140.17,140.17,0,0,1-3.17,33.68c-1.49,5.15-3.95,9.16-10.27,8-6.76-1.24-12,1.49-17.52,5.14-5.19,3.45-10.62,8.87-17.94,4-3.66-10.42-2.23-21.06-1-31.61.91-7.81,1.58-15.58.59-23.38-.52-4.09-2.26-7.89-6.8-8.48-4.81-.62-6.72,3.21-8.17,7-2.1,5.44-2.06,11.17-1.92,16.86.33,14.62-1.53,29-3.58,43.46-8,7.21-13.1,7.23-17.51-1.2-3.24-6.21-8.09-9.5-14-12-4.19-5.28-2.6-11.36-2.33-17.25.06-1.4.47-2.77.66-4.17,1.51-10.8-1.22-18.34-7.28-18.37-9.57,0-8.8,8.3-10.51,14.45-1,3.06-1.12,6.31-1.86,9.41-2.08,8.69-9,12.39-17,8.41a45.64,45.64,0,0,0-18.43-4.55c-10.63-.62-14.95-5.27-15.88-16-.47-5.42-.63-11.47-7.76-12.07-6.88-.58-8.62,5.09-10.19,10.35-.91,3.08-1.4,6.26-2,9.4-1.44,7.21-3.89,11-12.15,6.36-7-3.88-11.22.83-14.15,7-4.93,10.32-5,10.33-14.31,4.85-2.25-1.32-4.71-2.47-7.09-1.52-6,2.41-9.95-.32-14.14-4.29s-9.21-3.77-12.9,1.21c-2.77,3.74-5.95,5.85-10.76,5.6-8-.43-9.67,7.51-14.48,11.33-3.41.37-4.56-2.17-5.86-4.52.23-15.56-11.24-24.25-20.4-34.16-4.52-4.91-9.74-3-13,4.11-6.36,13.83-9.62,14.89-22.86,7.45-7.45-4.19-12.39-2.47-16.14,5.53-1.94,4.15-1.91,9.07-5,12.77-5.47.51-4.41-4.87-6.64-7.29-7.17-8.28-8.79-8.42-15.59-.9-2.15,2.39-4.06,5.92-7.66,4.55-7.95-3-12.85.79-17.41,6.4-2.55,3.15-6.36,4.5-9.86,6.22-9.12,4.49-11.08,3.7-15.15-5.87-5.26-12.36-6.73-12.94-17.16-5.25-3.06,2.25-5.58,2.86-8.64.74-8.71-6-14.11-1.27-18,6.06-2.85,5.42-5.67,7.52-11.58,4.08-6.48-3.77-13.39-.32-18.25,2.66-11.09,6.81-23.48,13.27-25.46,28.68-.62,4.82-.79,10-4.81,13.77-4.88-1-4.22-5.56-5.71-8.74-1-3.78-1-7.7-1.42-11.56-1.22-10.66-4.05-17.84-16.54-22.35-9.38-3.39-20.75-4.38-28.93-13-5.21-5.51-21.28.46-29.88,8.86a6.35,6.35,0,0,1-4.53.43c-2.88-1.18-4-3.89-5.44-6.33-1.1-1.87-2.74-4.77-4.25-4.47-12,2.38-22-9.17-34.16-4.67-4.32,1.61-9.26.85-13.4,3.32a15,15,0,0,1-2.89,1.14l-1.57.16a19,19,0,0,1-4.6-.93c-2.06-.56-4.19-1.61-6.25-1.21-9.34,1.86-15.13-1-16.74-11.06-.63-3.89-3.64-6.05-7.78-5.9s-6.45,2.72-7.85,6.25c-2.57,6.45-2.19,14.21-9,18.82-1.82,1.24-.13,3.2,1,4.55,2.38,2.89,4,6.24,3,9.87-2.6,9.33,3.16,11.18,10.23,12,4.24.5,8.53.73,12.53,2.43,9.85,4.16,11.1,13.2,2.76,20-5.36,4.38-11.69,5-18.22,4.34-9.39-.91-18-4.29-26-9.18-3-1.86-6.06-4-9.87-2-2.16,1.18-4.9,2.14-5.17,4.93-.23,2.42,2.19,3.43,3.94,4.59,2.36,1.58,4.93,2.86,7.22,4.57,5.11,3.84,7.28,8.87,5,15-2.12,5.73-7,7.66-12.77,7.86-6.41.23-11.73-2.42-16.8-5.93-5.58-3.85-10.63-8.42-16.39-12-4.28-2.64-9.65-2.8-12.79,1-3.47,4.15,1.85,6.7,4,9.57,1.5,2,3.46,3.59,5,5.54,3.44,4.34,4.41,9,1.23,13.81-3.43,5.18-8.18,8-14.59,6.26-8-2.15-13.46-7.43-18-14.23-3.65-5.5-6.32-11.75-11.66-17.85-2.33,7.43.22,13.22.53,19,.17,3.18,1.26,6.29,1.11,9.53C-618.61-2.3-622,3.07-629,4.77c-7.59,1.85-12-3.12-14.81-9.39-3-6.6-2.84-13.91-4.09-20.9-1-5.85-2.25-11.15-10.09-11.35-6.78-.18-11.72,1.19-14,8.48a66.78,66.78,0,0,1-8.6,17.15c-4.29,6.72-9.88,10.83-17.79,6.37-7.53-4.26-7.64-11.33-5.36-18.76.74-2.39,2-4.58,2.84-6.91,1.75-4.77,7.35-9.67,2.94-14.61-4.74-5.3-11.31-8.77-19.15-5.5l-.33.22a56.39,56.39,0,0,0-8.23,8.19c-3.65,4.35-7.23,8.77-11,13a37.12,37.12,0,0,1-6.2,5.82c-5.75,4.08-11.64,3.7-15.37-.68-3.36-3.93-3.3-9.65.88-14.59,6.88-8.13,14.13-15.95,21.24-23.89,1.39-1.56,2.84-3.06,4.85-5.2-5.18-4.3-10.2-8.07-14.74-12.34S-754.9-89.25-759.18-94a45.75,45.75,0,0,1-6.44-8.42c-3.36-6.18-1.82-12.81,3.23-16.07,5.28-3.42,10.72-2,15.42,4.5,7.81,10.72,16.84,20.15,28,27.43,8.48.13,14.63,5.41,21.26,9.63a53.42,53.42,0,0,0,12.36,5.48c13,5.48,26.09,7.3,40.52,6.17,20.55-1.62,41.15-1.21,61.54-5.67,19.7-4.31,34.75-16,49.59-28.25,6.45-5.32,5.3-12.91,2.16-19.71-2.67-5.77-7.57-7.11-13.44-4.55-4.53,2-6.54-.56-7.88-4.4-1.17-3.37-1.56-7-2.87-10.29-2.38-6-6.25-7.8-12.7-5.49-12.44,4.45-22.45,10.6-23.35,25.58-.18,3-.55,7.15-4.29,7.88s-6.35-2.58-8.65-5.28c-4.35-5.07-3.86-11.31-3.74-17.33.19-9.27-.72-17.37-12.75-18.12-4.09-.26-5.57-4-7.08-7.25s-3.8-6.22-8-5.77c-4.09.44-5.85,3.57-7.32,7-6.31,14.55-6.31,14.48-21.72,10.83A35.68,35.68,0,0,1-676-150.87c-7.7-2.44-10-8.06-9.69-15.63a97.8,97.8,0,0,0-1.92-25.41c-1-4.71-2.91-8.72-6.93-11.53-3.57-2.49-7.36-4.83-11.83-3-4.7,1.91-5,6.47-5.32,10.76-.35,5,.31,10-.54,14.88-.62,3.51-.51,8.48-6.72,6.48-7.46-1.52-12.13,1.49-15.22,8.4-2.38,5.34-6.37,6.76-12,5.48-1.37-.31-2.85-1.56-4-1.27-8.56,2.19-15.57,1.42-21.29-6.73-2.24-3.2-7.39-1.63-10.77.91-6.87,5.15-13.75,7.54-22.09,2.73-5.64-3.25-10.16.41-14.62,4.79-3.16-6.6-4.51-15.54-14.37-14.17-10.22,1.44-9.45,11.06-11.34,17.07-1.3,1.63-1.82,1.53-2.56,1-11.13-8.69-18.61-6.11-22.28,7.69-.55,2.07-1,4.17-1.44,6.25-5.68.65-1.66-5.16-4.32-6.52-.56-1.65-1-3.37-1.71-4.95-2.1-4.72-5.83-6.91-10.94-6.39s-8.51,3.72-9.32,8.62c-.94,5.67-3.31,10.63-5.9,15.59-2.84,4.76.45,10.34-2,15.15a3,3,0,0,1-.19,2,3,3,0,0,1-4.32.06,2.89,2.89,0,0,1-.15-1.92c-2.34-6.36.84-13.23-1.83-19.55-.94-6.35-4.48-11.65-6.77-17.33-3.06-7.57-8.08-13.71-11.39-20.9-3-6.45-6.69-9.21-11.85-8.64-6.09.67-9.45,4.7-10.84,10.19-1.64,6.48-2.68,13.12-4,19.7-3.71,1.12-3.86-2.35-4.71-4.13-3.65-7.6-9.23-9.63-16.91-6.72h0c-2.92,2.15-5.85,4.22-8.83.09-1.68-3.86-2.27-8.29-6.14-11-2.48-1.71-6.09-3.47-7.91-1.85-7.33,6.52-17.88-2.52-24.53,5.58-3.11,3.79-3.76,8.37-3.89,13-.16,6.08,0,12-6.57,15.67-2.78,1.56-3.36,5.3-4.22,8.41-3,2.12,1.7,8-4.29,8.63q-.69-5.85-1.39-11.69c-.8-6.61-3.5-11.68-10.82-12.59-2.78-.34-4.06-1.6-5.4-4.16-6.13-11.67-10.95-12.3-21.2-3.39-.41.36-1.2.28-3.07.65,0-6.51-.46-12.86.1-19.11,1-11-7-18.13-11-27-.85-1.89-3.75-3.71-5.32-3-9.8,4.37-17.06-12.16-27.18-3.09-4.65,3.25-2.73,8.69-4.33,13l-.27,8.26c-4.66-.17-3.12-3.84-3-6.12.19-6.5-1.13-13.08.81-19.51,2.5-.05,5,0,7.1-1.79,3.82-3.24,7.49-3,11.65-.21,5.79,3.84,12.51,1.7,18.8,1.87,13.18.34,15.55,2.47,12.67,15-1.25,5.41,2.33,8.7,3.14,13.07,1,5.54,4.88,6.09,9.49,6.46,4,.32,7.3,3.29,12,2.61,3.47-.49,5.2,3.8,6.79,7.21,4.36,9.31,8.74,10.71,17.87,7.19,3.95-1.52,5.42-3.42,4.82-7.95-1-7.64-.19-8.11,7.38-8.4,3.52-.13,7.12-1.84,10.53-.45,4.77,2,7.33.78,8.62-4.24s4.5-4.77,8.25-2.65c1.86,1.06,4.23,1.56,5.62,3,7.9,8.28,17.12,4.54,26.07,3.16,2.79-.42,3.66-2.75,4.88-5.06,5.93-11.21,19.45-13.56,29.17-5.41,1.88,1.58,4.45,2.39,6.2,4.07,5.65,5.41,13.48,9.31,11.9,19.55-.76,4.92,3.4,6.6,7.86,6.38,8.35-.42,16.68-1.27,25-1.38,9-.12,18.12-1.17,27.15.47,6.11,1.11,7.88,0,7.47-6.31-.27-4.11,1.18-6.81,3.63-9.48,3.08-3.33,6.2-2.66,9.43-.12,1.29,1,2.56.35,3.89-.37,6.83-3.66,13.71-2.33,20.61-.08,4.67,1.52,9.14,1,14.09.56,8.94-.72,18.34-4.65,27.79.87,4,2.34,7.39,3.13,7,8.51-.31,4.33,2.64,5.42,6.29,5.18,3.32-.23,7.42,1.26,8.52-4,.79-3.79,1.94-7.5,2.94-11.28,3.68-.37,7.07.49,10.61-.85,7.57-2.85,9-3.89,8.68-12.05a10,10,0,0,1,2-6.91c3-3.68,5.13-7.1,4-12.32-.68-3.16,2.27-4.23,5.07-3.19a20.68,20.68,0,0,0,14.58.09c5.89-2,10.32,2.5,12.53,6,2.64,4.23,6.72,8.69,4.29,15.5-3.08,8.64,1.68,17.29,2.75,25.95.51,4.1,6.11,6.46,10.78,5.89,2.82-.34,5.66-.49,8.49-.68,4.85-.34,8.87-2,11.76-6.24,2-2.92,4.76-5.29,6.76-8.21,2.46-3.57,5-5.68,9.72-4.08,4.37,1.49,7.85,3.09,7.17,8.73-.77,6.34,4.2,7.48,8.68,8.81,4.16,1.22,7.91,1.73,6.81,8.26-.79,4.66,3.56,7.42,8.41,7.66,6.73.33,13.45-.29,20.1,1.88,3.86,1.26,6.75-1.64,8.58-4.94,1-1.84,1.32-4.08,2.32-5.93,2.51-4.63,6.52-5,8.63-.13,2.64,6.06,5.39,10,12.94,9.75,4.43-.17,5,4.44,4.75,8.15-.6,7.51,1.64,8.63,8.65,8.45,6.78-.18,13.57-.27,20.33,0,5.13.23,8.43-1.75,9.21-6.72s2.18-9.25,7.7-10.14c3.73-.6,8.68,4.77,9.68,11.06,1,6,3.63,6.84,9.45,6.74,17.4-.29,34.93-.43,52,3.61,6.18,1.45,12.42,4.11,16.77,8.9,2.84,3.12,5.74,3.68,9.39,3.62,4.63-.08,9.27,0,13.91,0,4.26,0,7.93-.09,11.44-3.92,4.12-4.5,7.81-3.55,11.59,2.11,2.44,3.66,5.32,4.45,9.1,3.35,2-.59,4.31-2.17,6.12-1,4.28,2.86,8.62-1.4,12.31.3,4.13,1.91,1.3,7.24,3.59,10.6,1.58,2.31,3.62,3.1,5.9,4.13,2.89,1.3,6.1,1.64,8.82,3.66,2.32,1.73,3.18,7.66,6.76,5,4.43-3.33,11.78-4.88,11.33-12.78a15.29,15.29,0,0,1,0-2.14c.71-9.09,2-10.07,11.45-7.93,4.41,1,9.35.35,13,4.09.59.6,2.41,1,3,.52,7.09-5.46,17.16-3.88,23.79-10,2.48-2.28,5.09-3,7.72-2.15,4.38,1.38,7.46,1.24,9.22-3.68,2.24-6.31,7.75-5.06,12.67-5.15a7.61,7.61,0,0,1,8,7.11c.85,7.33,5.26,7.2,11,8.13,11.39,1.85,19.76-4.21,27.82-9.71,7.86-5.37,16-7.25,25-7.64,6.68-.29,13.46.93,18.82-5,2.33-2.6,6-1.31,9.07-.1,2.78,1.09,6.61,1.68,7.85-1,4-8.79,13.37-6.94,19.94-10.34,6.86-3.54,14.3.89,21.17,3.93,7.89,3.49,8.83,10.07,9.35,17.45.71,10.22,4.47,13,14.32,12.27,4-.3,5.18-2,6-5.79,1.76-8.54,7-11.74,15.28-10.16,7.06,1.35,14,.76,21.15,0a103.76,103.76,0,0,1,22.75.53c14.87,1.7,23.82-5.66,24.15-20.65.22-10.07.29-9.76,10.94-11.85,3.33-.66,6.2-2.32,10-1.54,5.5,1.12,9,2.85,9.3,9.39.25,6.17,5.2,11.64,2.78,18.51-.78,2.22,1.84,3.85,4,4.1,8.09.9,16.26-.17,24.39,1.83,4.18,1,6.77-2.88,7.06-8.52.34-6.36-.55-12.72,1.82-19,2-5.35,5-8.44,10.88-8.27,2.5.08,5,0,7.49,0,10.43.09,14.85,3.35,13,13-2,10.43-.76,20.91-2.71,31.2-.82,4.33,1.59,7.08,5,8.41,4.72,1.82,9.85,1.07,14.79.46,2.6-.32,3.25-2.59,3.15-4.83-.4-9.22.91-18.42-1.09-27.67-1.8-8.29-3.25-17.06,5-23.52,2.1-1.64,2.42-4,2-6.75-.9-6.36-.7-6.39,6.35-5.8.35,0,.79.27,1,.13,9.86-5.21,12.17,4.41,17.11,8.75a6.1,6.1,0,0,1,1.63,6c-2.17,10.4,2.19,21.12-1.83,31.51-1.08,2.79-.2,6.36-.2,9.56,0,13.59.94,14.31,14.67,13.09,3.49-.31,6.48-2.3,10.39-1.48,8,1.68,9.67.24,11.05-7.8a45.51,45.51,0,0,0,.27-6.41c.23-8.14-.24-16.23,1.76-24.4,1.3-5.32.62-11.16-1-16.86-2.08-7.33,2-12.78,9.57-13.5,6-.58,12.12-.07,18.18-.2,5-.12,6.66,3,5.47,6.86-1.28,4.2-.51,8.43-1.51,12.57a15.11,15.11,0,0,0,0,7.41c1,3.51.69,8.32,5.62,9.33s9.26,0,12.39-4.28c1-1.41,2.69-3,2.68-4.46-.08-8.43,6.87-9.31,11.84-9.1,7.37.29,15.58-2.35,22.21,3.41,2.4,2.09,4.58.74,6.89-.28,6.53-2.88,12.93-5,20.55-3.59,9.55,1.72,19.52-2.51,29.18,1.23a5.93,5.93,0,0,0,4.19-.31c9.7-4.49,19.28-1.51,29-.21,6.48.86,13.1-.9,19.79.5,6,1.27,12.23,3.3,18.39-1.11,3.16-2.25,5.64.71,7.59,3.68,4.41,6.68,4.55,6.58,10.47,2.26.81-.59,2.26-1.75,2.44-1.58,4.65,4.29,12.93,1.89,16.14,8.4,2.53,5.12,6,6.8,11.26,4.64,3.79-1.57,7.72-1,11.62-1.1s6.56,1.29,7.83,5.57c2.57,8.64,9.88,11.36,17.78,12.73,5.59,1,5.87-4.11,7.45-7.38,1.19-2.48-.66-6.64,2.28-7.78,3.87-1.5,7.91-3.44,12.3-2.95a66.12,66.12,0,0,0,7.31.23c6.71,0,10.26-2.56,12.07-9.3,2.14-7.94,2.69-7.19,10.91-6.79a95.15,95.15,0,0,0,20.8-1.66c4.26-.75,8.24-3.21,6.24-9-.92-2.66-.72-5.17,1.62-6.7,5.4-3.52,4.87-8.67,3-13.26-2.08-5.26,1.31-11.65-4.71-16.42-2.27-1.8,1.83-5.89,5.38-5.66,6.26.4,9.2-1.63,9.28-8.25,0-3.23,2.63-4.68,6.22-3.67a54.17,54.17,0,0,0,7.35,1c10.67,1.48,17.55-3.4,22.37-12.61,4.65-8.87,7.54-9.91,17.2-7.7,11.3,2.58,11.8,2.64,10.24,13.58-1,7.14,2.21,12.3,5.38,17.85-1.64,2.95-4.76-1.71-6.34,1.22-1.23,2.3-.09,4.08,1.37,5.75,2,2.27,4,3,6,0,2.76-4.29,7.07-4.11,10.3-2,3.78,2.5,6.45,1.49,9.78-.15,4.44-2.19,8.6-5.15,13.81-5.48,1-.06,2.68-.68,2.77-1.25,1.87-11,14.14-7.57,19.26-14,1.21-1.52,3.26-1.21,4.92-.22,5.39,3.21,12.2,4.22,15.45,10.73,1.45,2.91,4.16,5.37,7.71,4.88,7.72-1.06,10.41,5,13.92,9.58,1.83,2.4,1.52,7.1,5.38,7.18,5,.11,9.33,2.93,14.61,1.91,4.27-.84,7.2-5.57,12.59-3.26,9.45,4.06,19.15,7.55,25.72,16.06,1.3,1.69,2.36,3.4,4.22,4.66,7.75,5.26,9.2,9.72,4.73,17.37-2.05,3.5-3.14,7.08-1,9.91,5.4,7.12.89,13.36-.79,19.88-.25,1-1.42,1.62-1.82,2.56-2.12,5,4.81,9.92,2.29,12.81-3.24,3.72-5.59,6.57-5.07,11.62.27,2.71,1.59,4.46,3.15,6.48,2.84,3.66,5.65,7.72,5.35,12.54-1.2,19.27,3.48,38.3,2.16,57.52-.57,8.36-1.48,16.46-7.27,23.81-6.42,8.17-3.66,18.57-2.56,28,1.33,11.23,4,22.24,7,33.24,2.2,8.15,3.44,17.75-5.18,24.59-3.15,2.5-3.93,6.86-1.14,9.57,7.4,7.19,5.35,15.89,4.28,24.1-.53,4.08-1,7.52,1,11.18.82,1.51,1.87,3.59,1.44,5-3.31,10.74.72,21,2,31.37.51,4.23-1,7.77-2.08,11.36-1.29,4.39-10.12,4.91-12.42,1-3.87-6.54-9.76-11-15.75-16.72-2.67,9-3.88,17.19-3.39,25.63.75,13.11-1.55,26.31,1.83,39.37,1.06,4.07-2,8.11-1.92,12.53.29,12.48.17,25,.06,37.45,0,4.62.42,7.56,6.21,9.1,7.26,1.92,10.43,8.07,7.34,15.93-4,10.22-2.25,20.39-2.74,30.59-.34,6.76-.1,13.55-.06,20.33,0,4.94.31,9.51,2.78,14.35,3.45,6.77,1.28,14.68,1.16,22.1,0,2-2.07,2.61-3.64,3.47-2.31,1.28-2.74,3.35-1,5.29,3.49,4,4.39,7-1.35,10-3.52,1.88-2.3,5.35-.52,8.36,8.64,14.59,7.06,36.8-3.79,50.16-2.59,3.21-2.16,6.65-2.15,10.13,0,7.82.09,15.61-4,22.67-.81-16.43,1.84-32.68,2.72-49,1.32-24.52,3.59-49,5.59-73.48A552.15,552.15,0,0,0,841,310c-.26-9.17.53-18.74-8.83-24.9-2.66-1.75-1.65-5.26-1.61-8,.8-53.44-1.39-106.92,2.18-160.32,6,.7,1.33,6.4,4.08,8.62"/><path class="cls-5" d="M-684.84,482.73c.93-20.17-1.6-40.24-2.77-60.3-.9-15.53-1.14-31-1.69-46.56-.34-9.57-.27-9.57-10.12-10.53-2.44-.24-5,.05-6.84-2.15,2.47,0,5,0,7.42.12a40.13,40.13,0,0,0,41.56-32c.86-4.16,1.89-8.39,1.91-12.59.06-10.54-3.8-19.4-12.69-25.61-2.61-1.82-5.7-3.11-8-5.24-6.2-5.78-13.38-7.54-21.54-6.31,11.45-5.28,15-14.65,14.92-26.68-.19-38.41-1.34-76.89.59-115.21,1.66-33.06,1.36-66,1.32-99.07,0-17.37-3.28-34.64-2.07-52.08,3.83-7.64,7.78-15.25,10.4-23.41,1.15-3.59,3.13-5.2,7-5.12,20.92.47,16.89-2.18,20.89,16.79,1.17,5.56,1.4,11.33,2.79,16.82,1.69,6.68,7.17,10.4,12.38,9.28s9.14-6.44,8.49-13.1c-.75-7.78-2.34-15.46-3.41-23.21-.37-2.63-2-6,1.78-7.39s6.87-.09,8.3,4.23c2.27,6.86,6.67,12.54,10.72,18.4a24.64,24.64,0,0,0,12.62,9.44c5.74,2,11,.05,13.76-4.91s.8-8.9-2.92-12.32c-5.2-4.77-10.87-9.17-12.25-16.68,4.67-4,10.48-2.85,15.48-4.55,2.74-.94,4.59,1.21,6.42,2.94A125.16,125.16,0,0,0-551.7-30.1a21.52,21.52,0,0,0,13.18,3.59c4.7-.29,8.31-2.31,9.76-6.92,1.59-5.09-.22-9.28-4.74-11.86C-539-48.45-545-50.91-549.89-55.92c3.33-4.79,8.81-6.26,12.67-9.75,2.47-2.23,4.52-.13,6.49,1.49A52.52,52.52,0,0,0-505.63-53c6,1,12.07,1.49,17.83-1.32,4.1-2,7.32-5.11,7.16-9.8-.17-4.93-4-7-8.43-8.41-3.83-1.21-7.74-1.11-11.61-1.59a28.56,28.56,0,0,1-11.12-3.54c-1.83-1.07-4.15-2.62-2.74-5,5.44-9.08,2.3-15.42-9.12-20.66,11.56-1.52,14.54-7.11,14.71-15.13.06-2.38,1.21-4.85,2.28-7.08,2.25-4.65,6.11-6.79,11.31-6.32s8.35,3.55,9.58,8.57c.84,3.38.23,7.17,3.36,10.53,5.77-2.07,12-4.12,17.68.74,1.42.69,2.1,3.46,4.44,1.58v0a4.12,4.12,0,0,0,2.05-2.12c7.09-4.16,15.43-3.61,23-5.91,3.56-1.08,6.68,1.76,9.13,4.45,1.77,1.94,3.29,2.8,6.34,2,10.71-2.91,14.06-.94,18.32,9.58.4,1,.79,2,1.18,3,2.16,2,2.14,4.64,2.16,7.27,0,1,0,2,0,3.07,0-1,0-2,0-3.11,0-2.66,0-5.26,2.19-7.21,3-8,7.17-14.09,17.36-11.21,1.47.41,3.4-.6,5.06-1.13,6.26-2,11.41-.68,14.5,5.34,1.72,3.36,3.32,4.85,7.38,3.35,4.46-1.65,8.63.09,11.25,3.95,2.36,3.47,5.26,3.83,9.1,3.91,7.18.16,11.23,3.78,12.27,10.84,1.14,7.74,1.59,15.58,2.34,23.38a81.51,81.51,0,0,1,2,17c0,2.11,0,4.25,0,6.39a7.93,7.93,0,0,0,0-1.54c0-.72,0-1.43,0-2.16.3-3.8-.9-7.85,2-11.15.85-6,1.47-12,2.6-17.95,1.17-6.12,3.33-12,10.24-13.67,3.4-.85,4.22-3.24,5.43-5.85,2.25-4.87,5.84-7.93,11.63-7.81a9.84,9.84,0,0,0,5.1-1.14c7.11-4.41,13.49-3.89,18.85,3.22,10.06-21.84,18.14-21,28.67-11.59a55,55,0,0,1,3.95-4.86c6.84-6.79,15-5,18.54,3.82,1.65,4.07-.39,10.5,5.22,11.87,5,1.22,8.29-4.83,13.39-5.45,2.25-.28,2.95-2.9,4.3-4.51,7.49-8.89,9.41-9.32,20.53-4.3,3.46-4.66,4.89-12.32,12.86-12,5.17.23,8.46,3.32,10,8.23,2.08,7.7,2.78,15.48,1.38,21.2.24,3.62,2.48,2.31,1.09,2.64-.54.13-.83-.09-.81-.66.07-5.12-.33-10.33,2.43-15a37.59,37.59,0,0,1,4.38-16.28c4.6-8.72,13.49-10.43,19.89-3.06,3.81,4.38,7,4.29,11.81,3.08,3.45-.87,4.77-2.46,4.84-5.71a15.32,15.32,0,0,1,2.49-8c4.55-7,13-7.44,17.44-.32,2.67,4.31,4.79,8.29,10.21,9.86,3.6,1,5.2,4.81,5.91,8.32,1.12,5.54,1.74,11.18,2.58,16.78a25.72,25.72,0,0,1,1.94,9.11,44,44,0,0,1-.31,5.13c.55-2.11.28-4.12.5-6.1a6.33,6.33,0,0,1,1.85-4c4.55-12.41,5.19-13,16.88-13.1,2.55,0,3.64-1.09,5-2.93,8.15-10.8,14.14-10.58,21.8.55a18.33,18.33,0,0,0,2.15,2c3.6-2,7.56-4.87,12.39-3.22,4.3,1.48,6.6,5.18,9,9,10.39-23.72,13.43-25.35,28.76-15.19.94-4.68,1.79-9.15,2.76-13.59.91-4.17,1.64-8.44,4.05-12.08a10.57,10.57,0,0,1,11.09-4.81,9.52,9.52,0,0,1,8.16,7.46A36.34,36.34,0,0,1,69.73-135c.19,9.25,4.72,13.33,14,13.24,6-.05,11.93.3,17.29,3.93,7.22,4.88,13.46,1.89,14.78-6.72.37-2.43-.06-5.05,1.8-7.09,3.92,3.69,3.21,8.42,2.8,13-3.38,38-4,76.09-5.67,114.15-.53,12.52,2.34,24.8,2.26,37.34-.3,46-4.15,91.77-6.14,137.66-1.27,29.21-.14,58.47-.46,87.71-.06,5.9,1.06,12.39-5.24,16.4-10.15.57-20.11,3-30.4,2.29-11.28-.82-11.55-.77-12.33-11.82-.23-3.21-.61-6.28-2.56-9a4,4,0,0,1-.05-5c2.27-2.83,3.45-5.73-.57-7.93-5.58-3.06-10.13-7.74-16.46-9.67a37.42,37.42,0,0,1-15.35-9.43c-9.22-9.14-21-14.57-31.24-22.24-1.15-.86-2.46-1.65-3.71-.26a2.85,2.85,0,0,0,0,3.9c4,4.62,2,7.86-1.67,11.7C-27.58,236.51-43.92,257.78-64,275.53c-6.4,5.66-13.05,11.06-18.65,17.54-4.48,5.17-4.4,6.15,1.12,10.42,1.92,1.49,3.1,3.27,3.15,5.23.32,13.24,11,19.95,18.08,28.82,2.16,2.68,6,2,9.09,2.17,4.9.25,9.83.07,14.52.07,1.54,2.76-2.84,5,0,7.19,2.5,2,4.67.2,6.8-1,3.61-2,6.53-5.5,11.85-5.74,0,8.24.42,16.26-.11,24.22a124.2,124.2,0,0,0,.38,24.46,112.83,112.83,0,0,1-.31,31.94,82.19,82.19,0,0,0,.28,28.67,35.09,35.09,0,0,1,.78,7.42c-.36,15.35,2,30.52,2.91,45.78,1.39,5.91-2.13,8.56-6.93,10.18-48.77,16.37-94.76,39.4-142,59.4-6.87,2.91-13.19,7.1-20.5,9-4.26-3.73-5.34-9.11-7-14.07-8.52-24.89-17.22-49.73-21-76-1.22-8.51-5-16.27-7.94-24.27-6.63-18-13.13-36.08-19.37-54.23-3.83-11.13-7.91-22.08-13.62-32.41-5.92-10.7-9.2-22.3-11.1-34.33-.62-9.14.79-19.18-10.42-23.66-2.4-3.4-3.32-8.17-7.94-9.59-5.88-1.8-7.63-5.82-7-11.5.33-2.88.47-5.79-2.84-7.32s-5.74.07-7.39,2.48c-2.91,4.22-7.05,3.93-11.37,4.28-19.44,1.61-38.25-3.13-57.35-5.05-26.63-2.69-53.4-3.23-80,.12-14.44,1.82-28.48-.63-42.48-2.75-18.51-2.79-36.81-3.58-55.13.47-3.52.78-6.39-.57-9.24-1.74-13.25-5.49-26.74-3.18-40-1-8.1,1.33-12.8,8.29-15.3,15.27-5.66,15.86-15.79,29.51-21.22,45.46-2.38,7-6.36,13.51-10.56,19.76a67.66,67.66,0,0,0-6.64,12.16c-4.37,10.79-.66,17.32,10.53,19.47,2.7.52,5.74-.6,8.07,1.56.56,2.07-.63,3.49-1.72,4.86-18,22.58-32.87,47.43-50.31,70.42a39.25,39.25,0,0,1-2.87,3.05"/></g></g><g id="Vrstva_1" data-name="Vrstva 1"><g class="cls-6"><g class="cls-7"><path class="cls-3" d="M-4120.49,147.85V-511.82H3204.82v5491.3H-4120.49V4417.16c7.15-7.9,13.62-16.55,22.88-22.27,6.92-4.26,15.12-9.59,22.1-3.06,24.46,22.86,50.56,9.94,75.64,3.6,12.62-3.18,23.88-6,36.1-.3,7.59,3.53,15.76,4.35,23.27.25,13.05-7.15,24-7.39,36.37,3.24s25.68,4.37,35.93-5.47c16.11-15.46,34.06-28.69,50.59-43.65,18.93-17.13,25.67-15.32,37.16,7.36,10,19.75,22.35,22.75,40.66,9.49,8.68-6.29,15.57-14.63,23.39-21.92,7.23-6.75,14.83-15,24.85-14.48,22.89,1.07,41.59-7.4,58.94-20.91,9.72-7.57,17.54-5.63,24.52,4.54,8.63,12.57,20.22,15.66,35.1,10.81,22.15-7.23,35.19,3.38,43.53,23.6,10.38,25.2,18.5,28.35,42.86,15.37,17.76-9.47,33.36-18.8,54.1-4.86,11.67,7.83,23.73-1.84,33.49-10.11,9.54-8.07,19.7-15.32,29.54-23a47.32,47.32,0,0,1,13.66-6.84c1.25-.24,2.51-.43,3.76-.67,1.26.09,2.53.22,3.79.31,1.19.37,2.39.79,3.6,1.14,2.33.85,4.63,1.83,6.93,2.79,13.57,3.71,27.58,5.22,39.95,13.6,14,9.48,27.27,2.75,39.23-6,22.17-16.31,43.47-33.75,64.82-51.12,6.21-5,12.55-10.14,20.26-12.58,10.48-3.3,16-.26,12.1,11.59-2.72,8.34-8.75,16.24-5.69,25.42,5.57,16.76,18.83,16.89,32.7,13.06,13-3.59,19-1.81,20.31,14,2.19,27.11,17.12,32.37,39.13,15.55,7-5.37,12.47-12.71,20.64-16.7a13.52,13.52,0,0,1,11,.68c4.15,4.21,2.5,9.89,3.8,14.82,5.47,20.9,21.69,27.48,39.92,16,11.16-7,18.86-18.26,29.86-25.51,1.77-1.3,3.68-2.47,5.55-3.6.86-.59,1.8-1.13,2.65-1.72,1.59-1.23,3.27-2.4,4.88-3.61.72-.64,1.52-1.24,2.25-1.87,1.36-1.31,2.81-2.56,4.23-3.81.66-.65,1.38-1.26,2-1.91,1.26-1.3,2.62-2.54,3.95-3.77.63-.64,1.3-1.23,1.93-1.87,1.2-1.31,2.5-2.52,3.8-3.72,0,0,1.93-1.82,1.89-1.86,1.17-1.31,2.45-2.52,3.74-3.72,0,0,1.91-1.82,1.87-1.87,1.19-1.33,2.46-2.57,3.76-3.79.62-.66,1.27-1.27,1.9-1.93,1.23-1.38,2.53-2.67,3.84-4,.64-.7,1.31-1.34,2-2,1.28-1.48,2.63-2.85,4-4.26.67-.76,1.37-1.45,2-2.21,1.34-1.61,2.76-3.11,4.19-4.64.73-.83,1.48-1.57,2.2-2.39,7.33-7.08,13.78-15.05,22.12-21.07a16.2,16.2,0,0,1,6.82-2c17.39,7.61,4.11,15.55-.73,21.48-12.21,15-28.1,26.66-39.33,42.61a67.52,67.52,0,0,1-4,5.76,68.69,68.69,0,0,0-9.18,14.63c-.85,2.26-1.8,4.44-2.68,6.67-3.93,10.25-2.08,20.53,5.28,27.33,12.05,11.12,20,24.52,28.41,38.19,9.53,15.44,31.46,15.52,49.48.85,16.57-13.5,30.53-29.88,45.92-44.71,35.36-34,81.52-29,107.47,11.55,6.73,10.52,15,20,23.31,29.16,15.38,16.84,40.21,10.85,64.29-14.3,15.63-16.47,33-22.18,55.47-13.2,19.47,7.78,38.93-.47,57.37-6.57,59.81-19.77,121.05-19.19,182.66-14.77,17.27,6.56,15.16,17.09,5.31,28.53-10.94,12.74-23.46,24-35.19,36-7.4,7.58-15.61,14.47-21.83,23.08-8.65,12-15.89,25.68-2.87,38.05,11.92,11.33,22.77.94,32.75-6.29,6.43-4.67,12.81-9.42,19-14.35,12-8.05,23.66-16.58,33.27-27.58,14.55-14.5,32.24-25.36,46.57-40.13a50,50,0,0,1,5.88-4,85.56,85.56,0,0,0,8.64-6.19c9.94-9,19-19.21,31.71-24.69a40.25,40.25,0,0,1,7.5-2.34c13.35-1.87,27.06-.72,40.06-5.31q73.18-4.08,146.19-10.48c6.3-.54,12.93-.59,18.32,2.47,17.76,10.1,34.42,4.39,51.11-2.49,19.11-7.87,38.73-13.16,59.61-12.48,12.21.4,21.59,4,28.33,16,12.66,22.52,20.41,24,42.37,11.76,7.76-4.34,14.85-9.83,23-13.6,29.8-12.28,22.79,15.27,30,27.55,9.23,17.35,23,17.49,38.8,10.42,15.6-7,29.43-16.83,43.53-26.31,5.85-3.93,12.54-8.62,19.4-2.49,5.69,5.08,3.13,11.78.58,17.44-18.51,41.13-12.84,76.33,24.55,104.34,11,8.22,13.33,20.5,14.28,33.37,1.17,15.77,7,28.89,25.28,28.42,16.93-.43,20.85,8.58,22.8,22.86,4.69,34.25,9.92,36.44,40.78,24.76,20.81-7.87,42.59-15.49,59.31,9.36,4.84,7.19,13.76,7.31,22.16,5.47,24.33-5.31,47.76-3.63,69.86,9,14.93,8.53,26,2.26,33.82-10.68,8.76-14.37,18-18.8,31.68-5.66,6.49,6.21,15.74,8.33,24.11,11.38,23.89,8.72,38.48,3.94,41.27-21.2,4.74-42.67,42.35-54.53,67.26-76.46,14.08-12.4,26-22.22,30.21-40.39,2-8.71,3.88-17.45,6-26.12,8-32.17,31.88-41.68,58-21.4,12.09,9.38,22.54,19.74,38.6,22.06,7.69,1.1,10.94,8.51,14.41,14.84,4.39,8,9.25,16.16,20,14.95,12.3-1.38,20.37-10.39,21.26-21.18,3-36.43,30.53-41.22,57.53-47.52,12,12.74,6.51,28.64,7.61,43.26,1.26,16.78-1.74,33.75,2.15,50.36,18,25.18,29,24.46,45.39-3.12,6.3-20-2-41.33,6.11-61a9.82,9.82,0,0,1,6.25-4.77c17.95,7.18,34.31,22.2,56.15,10.46,3.45-1.86,8.46,1.69,12.24,4.11,23,14.71,45.69,24,70,1.3,8.37-7.82,12.31.42,13.86,8,2.27,11.06-3.45,20.77-6,31-3.12,12.78.2,23.57,12.94,28.52,14,5.43,21.17-3.93,27.06-14.86,9.5-17.6,5.23-38.8,14.83-56.39,7.82-10.78-2.8-34.89,14.82-34,12.83.63,7.34,22.43,8.45,35,.83,9.4,4.63,16.74,10.87,23.29,14.61,18.38,31,18.35,49,5.18,8.63-6.3,17.75-12,26.3-18.39,16.45-12.38,31.95-18.8,49.23-.08,10.56,11.45,26.41,9.68,40.56,9,57-2.67,113.63-10.2,170.1-17.6,152.29-19.94,305-30.15,458.53-25.11,10.49.76,21.06.31,31.56,1.26,8.13.74,18.52,2.57,20.14,10.14,6.11,28.62,32.5,42.43,45.42,65.73,17.54,17.47,44.08,24.1,54.66,51,4.77,12.15,24.34,6.61,31.31-7.71,5.82-12,4.45-26.17,11.54-37.8a12.52,12.52,0,0,1,10.78-2.74c11.54,4.9,15.86,16.16,22.14,25.58,16.23,24.37,27.45,25,46.67,2.2,4-4.74,7.94-9.51,12.07-14.08,5-5.11,6.11-12,8.23-18.41a13.42,13.42,0,0,1,4.54-5.29,15.68,15.68,0,0,1,7.06-.88A19.1,19.1,0,0,1,490,4487a26.93,26.93,0,0,0,13.66,6c26.51-4.46,49.79-14.71,64.49-38.25,8.76-14.05,16.85-13.4,30.66-5.93,20.33,11,40.74,18.95,51.76,42.71,7.36,15.88,24.65,15.56,34.27-.48,13.53-22.55,31-37.23,55.2-47.52,19.61-8.36,18.25-28.86,16.35-47.06-5.52-53-2.24-59,50.78-69.18,22.82-4.39,30.87-15.18,26.89-36.85-2.33-12.67-2.85-25.1,5.83-35.78,12-14.75,12.58-30.89,6.75-48-5.08-14.91-6.11-29.27,1.84-44,8.86-16.37,4.87-33.93-1.37-49.5-18.33-45.7,1.52-84.58,19.63-124,1.83-4,6.52-7.7,6-11.75-6.34-46.64,24.76-83.47,32.64-126.32,1.31-7.14,1.52-14.38-.32-21.3-19.56-73.19-3.5-147.6-7.65-221.3-.45-8-.13-17,4.87-23.3,18.4-23.08,16-50,16.32-76.76,1.7-127.74-1.43-255.68-7.61-383-7.42-152.92,9.91-303,26.48-453.72,3.51-31.95,3-64.16,7.09-96.12,2.09-16.29-3.76-30.59-22-34.93-16.79-4-20.38-16.29-19.79-30.48,2.53-59.94-5.87-119.49-5.67-179.31a125.77,125.77,0,0,0-12.76-56.74c-16.72-34.58-9.48-72.2-7.25-108.24,3.35-54.3,6-108.65,9.13-163a211.14,211.14,0,0,1,7.09-44.86c6.16-18.73,10.76-37.69,9.82-57.72-.56-11.79,1.84-22.77,9-32.89,25.72-36.33,23.37-75.3,8.69-114.65-4-10.66-2.31-19.66-.91-30.54,4.66-36.29,19.51-69.82,8.72-110.25-12-44.81-7.88-94.09-.36-141,3.26-20.34,4.92-37-17.56-47-12.76-5.65-13.21-18.36-12.89-30.07,1.06-38.33,1-76.7,2.23-115,1.15-37.06-2.19-74.72-2.5-112.16-.11-14.4,1.13-28.55,5.15-42.4,5.73-19.7,11-21.4,27.47-8.31,8.41,6.69,15.47,14.83,22.52,22.93,4.75,5.46,9.81,11.46,18.05,7.87,7.47-3.25,8.79-10.69,9.47-18,.59-6.28-.78-12.46-1.15-18.69-2.55-43.17-4.52-86.61-8.47-129.39-3.13-34-11.93-65.15,6.14-97.92,6.37-11.56-.48-28-4.78-41.78-9.35-30-13.32-61-15.3-92.3-1.32-20.92,3-39.85,13.92-58.75,18.3-31.74,14.25-67.66,11.18-102.25-1.81-20.48-4.32-40.84-3.72-61.41.61-20.93-1.11-41-14.5-58.55-5-6.57-8.84-15.72-5.81-22.69,9.73-22.35,2.39-47.25,12.36-69.52,5.5-12.29,6.45-25.86,1.18-39.2-3.38-8.57-4.54-18.12.06-26.11,11.55-20.07,2.7-32.39-12.6-45.67-13.47-11.68-25.36-25.15-41.55-33.34s-31.74-12.84-51-6.45c-25.88,8.61-46.57-.5-62.23-22.86-7.35-10.5-14.9-19.72-29-21.33-10.22-1.17-17.27-8.43-24.53-15.3-28.82-27.28-51.86-26.08-81.52.31C646,186.07,619.65,200.47,587,195.43c-7.55-1.17-13.73,2.58-20.54,4.59-16.76,5-28.6-6.65-22.55-23,7.9-21.39-1.86-41.43-4.22-61.5-1.94-16.52-39.34-18-49-.68-17.59,31.45-42.14,44.57-77.33,39.61-8-1.13-13.64,2.94-16.92,10.33-1.45,3.26-2.53,8.15-5.46,9-33.94,9.41-21.34,34.45-17.51,54.9,4.86,26-10.94,45.93-17.25,68.49-2.93,10.48-16,13.8-27.06,14.23-14.29.55-28.42,3.62-42.75,2.82-10.26-.56-17.68,3.5-20.85,13.14-7.59,23.09-25.76,27.88-46.73,27.42-19.55-.44-34.64,3.78-41.06,25.69-4.86,16.56-18.39,20.32-34.56,15.78-9.69-2.72-20.28-6.1-25.27-14.2-15.15-24.57-35-33.09-63.09-25.59-10.24,2.73-18.1-5.1-25-12.71C18,330.73,3.46,325.8-13.73,331.18c-5.15,1.61-12.25,5.21-15.34,1.72-25.55-28.81-60.5-14.5-90.14-17.2-36.5-3.32-73.44-10.5-111.64-2.73-23.28,4.74-49.6.44-74.5-.85-16.29-.85-32.18-.44-47.33,6.19-12.17,5.33-23.64,4-36.29-.06-35.88-11.6-51.18-6.24-74.87,23.46-10.45,13.09-23.77,19.39-40.13,14.37-15.61-4.79-17-19.23-18.78-32.59-1.06-8,1-16.07.73-24.07-.28-10,7.74-23.95-5.26-28.91A64.43,64.43,0,0,0-577,272.07c-13.11,6-10.45,18.54-9.4,30.51,3.37,38.4-4.69,76.35-5.93,114.63-.55,17-11.18,28.41-30.68,24.88-14.46-2.61-28.24,2.8-42.58,2.5-19.87-.42-29-8.69-29.78-29.06-1.38-34.81,7.78-69,4.07-104.06-1.54-14.59-5.72-26.17-16.16-35.11-13-11.11-26.13-4-35.8,9.08-28.55,38.72-11,81-12.83,121.68-1.47,32.58-9.34,40.46-40.26,36.86-22.62-2.63-29.77-12.33-30-35.65-.2-22.3,1.59-44.34,3.6-66.47,1.39-15.25-.8-29.54-20.68-30.82-18.27-1.17-36.65-2-43.53,21-3.39,11.33-2.77,23-3.55,34.55-1.81,27-10.33,34-37.81,31.74-3.57-.3.83.31-2.65-.41-17.38-3.61-36.82,3.29-52.4-7.27-16.39-11.11-8.08-31.57-13.67-47.25-6-16.79-11.65-29.38-32.87-27.22-20.84,2.11-31.69,10.06-32.81,33.21-1.54,31.92-24.82,52.95-56.84,51.09-40.16-2.34-80.23,3.08-120.26-.74-12.88-1.23-24.48,2-28.41,14.73-6.17,20.11-18.93,26.46-38.47,24.05-22-2.7-25.3-19.42-28.65-36.58-6.21-31.83-32.42-52.21-62.63-47.25-14.87,2.43-30.32,6.62-42.24,15.91-12.92,10.06-27.86,9.05-41.58,13.45-48.48,15.54-103.76,8.65-146.19,44.32-19,16-42.21,11.39-64.33,9-11.71-1.25-14.47-11.73-18.82-20.57-7.45-15.16-22.33-20.24-32.75-9-20.66,22.19-50.57,17.35-74.06,30.73s-49.6,17.36-76.71,5.47c-14-6.14-22.12.81-26.16,16.81-9.12,36.11-29.22,42.56-61.71,24-15.62-8.91-31.2-15.58-38.54-34.49-4.7-12.11-18.9-8-29-8.11-16.08-.17-32.21,2.84-44.39-12-4.55-5.54-11-4.2-17.22-1.43-37.33,16.66-72.35,16.5-108.09-7.61-30.55-20.61-67.76-20.36-103.49-21.78-13.35-.53-26.76.35-40.16.29-21.33-.08-39.23-3.39-45.24-27.93-1.49-6.07-5.92-11.58-12.92-12.16-9.21-.75-12,7-14.12,13.59-6,18.78-19.81,23.6-37.53,23.18-13.39-.32-26.81-.15-40.21-.07-16.89.12-30.19-4-32.19-23.93-1-9.83-6.2-16.52-16.25-18.86-2.6-.61-6.15-.8-7.47-2.63-17-23.67-29.17-17.83-48.33,1.15-17.71,17.56-80.83-2.24-93-25-4.08-7.66-9.45-12.72-17.1-16-9.44-4-15.76-10.5-20.17-20.18-11.37-25-20.81-27.17-37.38-5.63-16.84,21.87-37.31,31.38-64.1,32.44-20.63.81-31.86-8.46-37-27.25-5.68-20.78-8.66-41.61-6.88-63.48,2.06-25.4-15.13-41.64-40.59-41.19-34.11.6-42.55,6.69-49.22,45-3.93,22.61-13.86,36.39-36.35,39.66-11.2,1.63-18,6.4-20.33,17.65-2.94,13.92-11,21.83-26.09,21.84-13.06,0-21.91-4.59-26.45-17.78-6.35-18.5-24.05-24.84-39-21.21-46.15,11.19-91.77-6.94-137.86.87-14.94,2.52-23.16,5.14-25.4,20.14-2.69,18-13.62,21.67-30.81,20.77a781.58,781.58,0,0,0-106.89,1.67c-33,2.8-36.4-.23-47.54-31.53-10-27.95-33.22-44-60.24-52.31-15.23-4.7-29.37,3.51-40.23,15.88-23.87,27.17-52.22,32.9-83,15.86-14.19-7.84-26.37-15-39.6,1.88-7.85,10-20.16,3.55-30.51,4.05-14.56.7-28.62.29-29.07,21.78-.3,14.87-13.48,19.79-26.11,22.92-14.7,3.63-28.08-.76-35.07-13.33-10.25-18.42-26-24.89-44.91-29.62-30.16-7.54-42.08-24.72-41.87-56.11.21-30.1-1.07-31.43-31.26-32-16-.31-32.29,1.22-47.11-7.16-13.3-7.52-23.29,7.13-35.71,5.54a30.26,30.26,0,0,1-7.73-1.22c-13.09-6.2-22.59-16.83-30.52-28.23-13.08-18.81-27.09-20-43.75-5.57C-4110.87,147.76-4115.1,150.91-4120.49,147.85Z"/></g></g><g class="cls-8"><g class="cls-7"><path class="cls-3" d="M-6322.49,97.85V-561.82H1002.82v5491.3H-6322.49V4367.16c7.15-7.9,13.62-16.55,22.88-22.27,6.92-4.26,15.12-9.59,22.1-3.06,24.46,22.86,50.56,9.94,75.64,3.6,12.62-3.18,23.88-6,36.1-.3,7.59,3.53,15.76,4.35,23.27.25,13.05-7.15,24-7.39,36.37,3.24s25.68,4.37,35.93-5.47c16.11-15.46,34.06-28.69,50.59-43.65,18.93-17.13,25.67-15.32,37.16,7.36,10,19.75,22.35,22.75,40.66,9.49,8.68-6.29,15.57-14.63,23.39-21.92,7.23-6.75,14.83-15,24.85-14.48,22.89,1.07,41.59-7.4,58.94-20.91,9.72-7.57,17.54-5.63,24.52,4.54,8.63,12.57,20.22,15.66,35.1,10.81,22.15-7.23,35.19,3.38,43.53,23.6,10.38,25.2,18.5,28.35,42.86,15.37,17.76-9.47,33.36-18.8,54.1-4.86,11.67,7.83,23.73-1.84,33.49-10.11,9.54-8.07,19.7-15.32,29.54-23a47.32,47.32,0,0,1,13.66-6.84c1.25-.24,2.51-.43,3.76-.67,1.26.09,2.53.22,3.79.31,1.19.37,2.39.79,3.6,1.14,2.33.85,4.63,1.83,6.93,2.79,13.57,3.71,27.58,5.22,39.95,13.6,14,9.48,27.27,2.75,39.23-6,22.17-16.31,43.47-33.75,64.82-51.12,6.21-5,12.55-10.14,20.26-12.58,10.48-3.3,16-.26,12.1,11.59-2.72,8.34-8.75,16.24-5.69,25.42,5.57,16.76,18.83,16.89,32.7,13.06,13-3.59,19-1.81,20.31,14,2.19,27.11,17.12,32.37,39.13,15.55,7-5.37,12.47-12.71,20.64-16.7a13.52,13.52,0,0,1,11,.68c4.15,4.21,2.5,9.89,3.8,14.82,5.47,20.9,21.69,27.48,39.92,16,11.16-7,18.86-18.26,29.86-25.51,1.77-1.3,3.68-2.47,5.55-3.6.86-.59,1.8-1.13,2.65-1.72,1.59-1.23,3.27-2.4,4.88-3.61.72-.64,1.52-1.24,2.25-1.87,1.36-1.31,2.81-2.56,4.23-3.81.66-.65,1.38-1.26,2-1.91,1.26-1.3,2.62-2.54,4-3.77.63-.64,1.3-1.23,1.93-1.87,1.2-1.31,2.5-2.52,3.8-3.72,0,0,1.93-1.82,1.89-1.86,1.17-1.31,2.45-2.52,3.74-3.72,0,0,1.91-1.82,1.87-1.87,1.19-1.33,2.46-2.57,3.76-3.79.62-.66,1.27-1.27,1.9-1.93,1.23-1.38,2.53-2.67,3.84-4,.64-.7,1.31-1.34,1.95-2,1.28-1.48,2.63-2.85,4-4.26.67-.76,1.37-1.45,2-2.21,1.34-1.61,2.76-3.11,4.19-4.64.73-.83,1.48-1.57,2.2-2.39,7.33-7.08,13.78-15.05,22.12-21.07a16.2,16.2,0,0,1,6.82-2c17.39,7.61,4.11,15.55-.73,21.48-12.21,15-28.1,26.66-39.33,42.61a67.52,67.52,0,0,1-4,5.76,68.69,68.69,0,0,0-9.18,14.63c-.85,2.26-1.8,4.44-2.68,6.67-3.93,10.25-2.08,20.53,5.28,27.33,12.05,11.12,20,24.52,28.41,38.19,9.53,15.44,31.46,15.52,49.48.85,16.57-13.5,30.53-29.88,45.92-44.71,35.36-34,81.52-29,107.47,11.55,6.73,10.52,15,20,23.31,29.16,15.38,16.84,40.21,10.85,64.29-14.3,15.63-16.47,33-22.18,55.47-13.2,19.47,7.78,38.93-.47,57.37-6.57,59.81-19.77,121-19.19,182.66-14.77,17.27,6.56,15.16,17.09,5.31,28.53-10.94,12.74-23.46,24-35.19,36-7.4,7.58-15.61,14.47-21.83,23.08-8.65,12-15.89,25.68-2.87,38.05,11.92,11.33,22.77.94,32.75-6.29,6.43-4.67,12.81-9.42,19-14.35,12-8.05,23.66-16.58,33.27-27.58,14.55-14.5,32.24-25.36,46.57-40.13a50,50,0,0,1,5.88-4,85.56,85.56,0,0,0,8.64-6.19c9.94-9,19-19.21,31.71-24.69a40.25,40.25,0,0,1,7.5-2.34c13.35-1.87,27.06-.72,40.06-5.31q73.18-4.08,146.19-10.48c6.3-.54,12.93-.59,18.32,2.47,17.76,10.1,34.42,4.39,51.11-2.49,19.11-7.87,38.73-13.16,59.61-12.48,12.21.4,21.59,4,28.33,16,12.66,22.52,20.41,24,42.37,11.76,7.76-4.34,14.85-9.83,23-13.6,29.8-12.28,22.79,15.27,30,27.55,9.23,17.35,23,17.49,38.8,10.42,15.6-7,29.43-16.83,43.53-26.31,5.85-3.93,12.54-8.62,19.4-2.49,5.69,5.08,3.13,11.78.58,17.44-18.51,41.13-12.84,76.33,24.55,104.34,11,8.22,13.33,20.5,14.28,33.37,1.17,15.77,7,28.89,25.28,28.42,16.93-.43,20.85,8.58,22.8,22.86,4.69,34.25,9.92,36.44,40.78,24.76,20.81-7.87,42.59-15.49,59.31,9.36,4.84,7.19,13.76,7.31,22.16,5.47,24.33-5.31,47.76-3.63,69.86,9,14.93,8.53,25.95,2.26,33.82-10.68,8.76-14.37,18-18.8,31.68-5.66,6.49,6.21,15.74,8.33,24.11,11.38,23.89,8.72,38.48,3.94,41.27-21.2,4.74-42.67,42.35-54.53,67.26-76.46,14.08-12.4,26-22.22,30.21-40.39,2-8.71,3.88-17.45,6-26.12,8-32.17,31.88-41.68,58-21.4,12.09,9.38,22.54,19.74,38.6,22.06,7.69,1.1,10.94,8.51,14.41,14.84,4.39,8,9.25,16.16,20,14.95,12.3-1.38,20.37-10.39,21.26-21.18,3-36.43,30.53-41.22,57.53-47.52,12,12.74,6.51,28.64,7.61,43.26,1.26,16.78-1.74,33.75,2.15,50.36,18,25.18,29,24.46,45.39-3.12,6.3-20-2-41.33,6.11-61a9.82,9.82,0,0,1,6.25-4.77c17.95,7.18,34.31,22.2,56.15,10.46,3.45-1.86,8.46,1.69,12.24,4.11,23,14.71,45.69,24,70,1.3,8.37-7.82,12.31.42,13.86,8,2.27,11.06-3.45,20.77-6,31-3.12,12.78.2,23.57,12.94,28.52,14,5.43,21.17-3.93,27.06-14.86,9.5-17.6,5.23-38.8,14.83-56.39,7.82-10.78-2.8-34.89,14.82-34,12.83.63,7.34,22.43,8.45,35,.83,9.4,4.63,16.74,10.87,23.29,14.61,18.38,31,18.35,49,5.18,8.63-6.3,17.75-12,26.3-18.39,16.45-12.38,32-18.8,49.23-.08,10.56,11.45,26.41,9.68,40.56,9,57-2.67,113.63-10.2,170.1-17.6,152.29-19.94,305-30.15,458.53-25.11,10.49.76,21.06.31,31.56,1.26,8.13.74,18.52,2.57,20.14,10.14,6.11,28.62,32.5,42.43,45.42,65.73,17.54,17.47,44.08,24.1,54.66,51,4.77,12.15,24.34,6.61,31.31-7.71,5.82-12,4.45-26.17,11.54-37.8a12.52,12.52,0,0,1,10.78-2.74c11.54,4.9,15.86,16.16,22.14,25.58,16.23,24.37,27.45,25,46.67,2.2,4-4.74,7.94-9.51,12.07-14.08,5-5.11,6.11-12,8.23-18.41a13.42,13.42,0,0,1,4.54-5.29,15.68,15.68,0,0,1,7.06-.88A19.1,19.1,0,0,1-1712,4437a26.93,26.93,0,0,0,13.66,6c26.51-4.46,49.79-14.71,64.49-38.25,8.76-14.05,16.85-13.4,30.66-5.93,20.33,11,40.74,18.95,51.76,42.71,7.36,15.88,24.65,15.56,34.27-.48,13.53-22.55,31-37.23,55.2-47.52,19.61-8.36,18.25-28.86,16.35-47.06-5.52-53-2.24-59,50.78-69.18,22.82-4.39,30.87-15.18,26.89-36.85-2.33-12.67-2.85-25.1,5.83-35.78,12-14.75,12.58-30.89,6.75-48-5.08-14.91-6.11-29.27,1.84-44,8.86-16.37,4.87-33.93-1.37-49.5-18.33-45.7,1.52-84.58,19.63-124,1.83-4,6.52-7.7,6-11.75-6.34-46.64,24.76-83.47,32.64-126.32,1.31-7.14,1.52-14.38-.32-21.3-19.56-73.19-3.5-147.6-7.65-221.3-.45-8-.13-17,4.87-23.3,18.4-23.08,16-50,16.32-76.76,1.7-127.74-1.43-255.68-7.61-383-7.42-152.92,9.91-303,26.48-453.72,3.51-31.95,3-64.16,7.09-96.12,2.09-16.29-3.76-30.59-22-34.93-16.79-4-20.38-16.29-19.79-30.48,2.53-59.94-5.87-119.49-5.67-179.31a125.77,125.77,0,0,0-12.76-56.74c-16.72-34.58-9.48-72.2-7.25-108.24,3.35-54.3,6-108.65,9.13-163a211.14,211.14,0,0,1,7.09-44.86c6.16-18.73,10.76-37.69,9.82-57.72-.56-11.79,1.84-22.77,9-32.89,25.72-36.33,23.37-75.3,8.69-114.65-4-10.66-2.31-19.66-.91-30.54,4.66-36.29,19.51-69.82,8.72-110.25-12-44.81-7.88-94.09-.36-141,3.26-20.34,4.92-37-17.56-47-12.76-5.65-13.21-18.36-12.89-30.07,1.06-38.33,1-76.7,2.23-115,1.15-37.06-2.19-74.72-2.5-112.16-.11-14.4,1.13-28.55,5.15-42.4,5.73-19.7,11-21.4,27.47-8.31,8.41,6.69,15.47,14.83,22.52,22.93,4.75,5.46,9.81,11.46,18,7.87,7.47-3.25,8.79-10.69,9.47-18,.59-6.28-.78-12.46-1.15-18.69-2.55-43.17-4.52-86.61-8.47-129.39-3.13-34-11.93-65.15,6.14-97.92,6.37-11.56-.48-28-4.78-41.78-9.35-30-13.32-61-15.3-92.3-1.32-20.92,3-39.85,13.92-58.75,18.3-31.74,14.25-67.66,11.18-102.25-1.81-20.48-4.32-40.84-3.72-61.41.61-20.93-1.11-41-14.5-58.55-5-6.57-8.84-15.72-5.81-22.69,9.73-22.35,2.39-47.25,12.36-69.52,5.5-12.29,6.45-25.86,1.18-39.2-3.38-8.57-4.54-18.12.06-26.11,11.55-20.07,2.7-32.39-12.6-45.67-13.47-11.68-25.36-25.15-41.55-33.34s-31.74-12.84-51-6.45c-25.88,8.61-46.57-.5-62.23-22.86-7.35-10.5-14.9-19.72-29-21.33-10.22-1.17-17.27-8.43-24.53-15.3-28.82-27.28-51.86-26.08-81.52.31-22.86,20.35-49.24,34.75-81.92,29.71-7.55-1.17-13.73,2.58-20.54,4.59-16.76,5-28.6-6.65-22.55-23,7.9-21.39-1.86-41.43-4.22-61.5-1.94-16.52-39.34-18-49-.68-17.59,31.45-42.14,44.57-77.33,39.61-8-1.13-13.64,2.94-16.92,10.33-1.45,3.26-2.53,8.15-5.46,9-33.94,9.41-21.34,34.45-17.51,54.9,4.86,26-10.94,45.93-17.25,68.49-2.93,10.48-16,13.8-27.06,14.23-14.29.55-28.42,3.62-42.75,2.82-10.26-.56-17.68,3.5-20.85,13.14-7.59,23.09-25.76,27.88-46.73,27.42-19.55-.44-34.64,3.78-41.06,25.69-4.86,16.56-18.39,20.32-34.56,15.78-9.69-2.72-20.28-6.1-25.27-14.2-15.15-24.57-35-33.09-63.09-25.59-10.24,2.73-18.1-5.1-25-12.71-11.78-12.95-26.33-17.88-43.52-12.5-5.15,1.61-12.25,5.21-15.34,1.72-25.55-28.81-60.5-14.5-90.14-17.2-36.5-3.32-73.44-10.5-111.64-2.73-23.28,4.74-49.6.44-74.5-.85-16.29-.85-32.18-.44-47.33,6.19-12.17,5.33-23.64,4-36.29-.06-35.88-11.6-51.18-6.24-74.87,23.46-10.45,13.09-23.77,19.39-40.13,14.37-15.61-4.79-17-19.23-18.78-32.59-1.06-8,.95-16.07.73-24.07-.28-10,7.74-23.95-5.26-28.91a64.43,64.43,0,0,0-49.71,1.56c-13.11,6-10.45,18.54-9.4,30.51,3.37,38.4-4.69,76.35-5.93,114.63-.55,17-11.18,28.41-30.68,24.88-14.46-2.61-28.24,2.8-42.58,2.5-19.87-.42-29-8.69-29.78-29.06-1.38-34.81,7.78-69,4.07-104.06-1.54-14.59-5.72-26.17-16.16-35.11-13-11.11-26.13-4-35.8,9.08-28.55,38.72-11,81-12.83,121.68-1.47,32.58-9.34,40.46-40.26,36.86-22.62-2.63-29.77-12.33-30-35.65-.2-22.3,1.59-44.34,3.6-66.47,1.39-15.25-.8-29.54-20.68-30.82-18.27-1.17-36.65-2-43.53,21-3.39,11.33-2.77,23-3.55,34.55-1.81,27-10.33,34-37.81,31.74-3.57-.3.83.31-2.65-.41-17.38-3.61-36.82,3.29-52.4-7.27-16.39-11.11-8.08-31.57-13.67-47.25-6-16.79-11.65-29.38-32.87-27.22-20.84,2.11-31.69,10.06-32.81,33.21-1.54,31.92-24.82,52.95-56.84,51.09-40.16-2.34-80.23,3.08-120.26-.74-12.88-1.23-24.48,2-28.41,14.73-6.17,20.11-18.93,26.46-38.47,24.05-22-2.7-25.3-19.42-28.65-36.58-6.21-31.83-32.42-52.21-62.63-47.25-14.87,2.43-30.32,6.62-42.24,15.91-12.92,10.06-27.86,9.05-41.58,13.45-48.48,15.54-103.76,8.65-146.19,44.32-19,16-42.21,11.39-64.33,9-11.71-1.25-14.47-11.73-18.82-20.57-7.45-15.16-22.33-20.24-32.75-9-20.66,22.19-50.57,17.35-74.06,30.73-23.64,13.47-49.6,17.36-76.71,5.47-14-6.14-22.12.81-26.16,16.81-9.12,36.11-29.22,42.56-61.71,24-15.62-8.91-31.2-15.58-38.54-34.49-4.7-12.11-18.9-8-29-8.11-16.08-.17-32.21,2.84-44.39-12-4.55-5.54-11-4.2-17.22-1.43-37.33,16.66-72.35,16.5-108.09-7.61-30.55-20.61-67.76-20.36-103.49-21.78-13.35-.53-26.76.35-40.16.29-21.33-.08-39.23-3.39-45.24-27.93-1.49-6.07-5.92-11.58-12.92-12.16-9.21-.75-12,7-14.12,13.59-6,18.78-19.81,23.6-37.53,23.18-13.39-.32-26.81-.15-40.21-.07-16.89.12-30.19-4-32.19-23.93-1-9.83-6.2-16.52-16.25-18.86-2.6-.61-6.15-.8-7.47-2.63-17-23.67-29.17-17.83-48.33,1.15-17.71,17.56-80.83-2.24-93-25-4.08-7.66-9.45-12.72-17.1-16-9.44-4-15.76-10.5-20.17-20.18-11.37-25-20.81-27.17-37.38-5.63-16.84,21.87-37.31,31.38-64.1,32.44-20.63.81-31.86-8.46-37-27.25-5.68-20.78-8.66-41.61-6.88-63.48,2.06-25.4-15.13-41.64-40.59-41.19-34.11.6-42.55,6.69-49.22,45-3.93,22.61-13.86,36.39-36.35,39.66-11.2,1.63-18,6.4-20.33,17.65-2.94,13.92-11,21.83-26.09,21.84-13.06,0-21.91-4.59-26.45-17.78-6.35-18.5-24-24.84-39-21.21-46.15,11.19-91.77-6.94-137.86.87-14.94,2.52-23.16,5.14-25.4,20.14-2.69,18-13.62,21.67-30.81,20.77a781.58,781.58,0,0,0-106.89,1.67c-33,2.8-36.4-.23-47.54-31.53-10-27.95-33.22-44-60.24-52.31-15.23-4.7-29.37,3.51-40.23,15.88-23.87,27.17-52.22,32.9-83,15.86-14.19-7.84-26.37-15-39.6,1.88-7.85,10-20.16,3.55-30.51,4-14.56.7-28.62.29-29.07,21.78-.3,14.87-13.48,19.79-26.11,22.92-14.7,3.63-28.08-.76-35.07-13.33-10.25-18.42-26-24.89-44.91-29.62-30.16-7.54-42.08-24.72-41.87-56.11.21-30.1-1.07-31.43-31.26-32-16-.31-32.29,1.22-47.11-7.16-13.3-7.52-23.29,7.13-35.71,5.54a30.26,30.26,0,0,1-7.73-1.22c-13.09-6.2-22.59-16.83-30.52-28.23-13.08-18.81-27.09-20-43.75-5.57C-6312.87,97.76-6317.1,100.91-6322.49,97.85Z"/></g></g><path class="cls-9" d="M2,27.54V27a4,4,0,0,1,.33-.47C2.87,26,3.42,25.48,4,24.94L15.25,13.65Q20.88,8,26.48,2.41a1.06,1.06,0,0,1,1.67,0q5.72,5.75,11.46,11.48c.28.27.54.57.82.85a.58.58,0,0,0,.08-.3c0-.58,0-1.15,0-1.73a1,1,0,0,1,1.08-1.1c1.23,0,2.47,0,3.7,0a1,1,0,0,1,1.13,1.12c0,2.57,0,5.13,0,7.69a.58.58,0,0,0,.19.46c1.77,1.77,3.54,3.53,5.31,5.31.26.27.48.57.72.86v.5a1.19,1.19,0,0,1-1.27.72c-1.49,0-3,0-4.48,0h-.34V45.42a1,1,0,0,1-1.08,1.11H9.12a1.08,1.08,0,0,1-.36-.05,1,1,0,0,1-.67-1.06V28.25H7.72c-1.48,0-3,0-4.45,0A1.19,1.19,0,0,1,2,27.54Z"/></g></svg>