<svg id="Vrstva_1" data-name="Vrstva 1" xmlns="http://www.w3.org/2000/svg" viewBox="0 0 318.87 98.45"><defs><style>.cls-1{fill:#c51618;}.cls-2{fill:#575756;}</style></defs><path class="cls-1" d="M182.34,67.29V55.22l23.8-21.56c3-2.85,5-5.69,5-9.4,0-4.31-3-7.33-7.59-7.33-4.82,0-8,3.79-8.62,9.23l-13.88-1.9C182.43,11.93,192.43,4.6,204.33,4.6c11.21,0,22.08,6,22.08,18.71,0,8.71-5.09,13.8-10.69,18.8L201.57,54.7h24.92V67.29Z"/><path class="cls-2" d="M17.54,56.73H14.75V30h2.91c8,0,13.62,4.82,13.62,13.37,0,9.31-6.33,13.36-13.74,13.36m2.4-37.24H2.34V67.24h17.6a23.88,23.88,0,1,0,0-47.75"/><path class="cls-2" d="M58.51,40.9h-1.2V29h1.2c4.06,0,8.62.76,8.62,5.95s-4.56,6-8.62,6M69.6,47.67c6.77-1.2,10.45-6.9,10.45-13.49,0-10.19-7.16-14.69-16.6-14.69H44.9V67.24H57.31V48.88h.13L69.15,67.24H84.61Z"/><path class="cls-2" d="M82.89,19.49V67.24H95.31V19.49Z"/><path class="cls-2" d="M179.26,20.56h0c.09-.36.18-.72.29-1.08h-5.46l-15,19.7H159V19.49H146.54V67.24H159V46.53h.13l16,20.71h4.81v-12a2.42,2.42,0,0,1,.36-1.23l-9.8-11.89L183.18,27l-2.46-.34A2.4,2.4,0,0,1,178.65,24c.07-.65.17-1.28.28-1.9v0"/><path class="cls-2" d="M290.58,56.38c-7.28,0-13.26-5.91-13.26-14,0-6.47,6-12.39,13.26-12.39s13.26,5.92,13.26,12.39c0,8.09-6,14-13.26,14m0-38.21c-12.91,0-24.84,9.09-25.88,22.28H243.4V50h10c-.5,5.42-4.55,8.16-9.84,8.16-8,0-12.38-7.41-12.38-14.69s4.17-14.81,12.19-14.81c4.92,0,8.47,3,10.15,7.46l11.58-4.85c-4.05-8.78-11.52-13.13-21.17-13.13A27,27,0,0,0,228.8,22.4c0,.31,0,.6,0,.91,0,9-4.78,14.48-10.37,19.59,0,.18,0,.35,0,.54a27.88,27.88,0,0,0,1.38,8.85h6.68a2.41,2.41,0,0,1,2.41,2.41v9.46a26.4,26.4,0,0,0,14.55,4c7.84,0,14.75-2.8,19.36-9.21a23.17,23.17,0,0,0,3.43-7c3.57,9.88,12.71,16.26,24.33,16.26,15.06,0,25.95-10.71,25.95-25.9,0-14.19-12.44-24.14-25.95-24.14"/><path class="cls-2" d="M144.77,19.49H132.36V48.68h-.13L109.49,19.49H97.08V67.24h12.41V38h.13l22.74,29.26h12.41Z"/><path d="M251.4,77.59h-8.23a.08.08,0,0,0-.09.09V83.2a.08.08,0,0,0,.09.09h5.77c.15,0,.22.08.22.23v.94a.2.2,0,0,1-.22.22h-5.77a.08.08,0,0,0-.09.09v5.61a.08.08,0,0,0,.09.09h8.23a.19.19,0,0,1,.22.22v.94a.19.19,0,0,1-.22.22h-9.68a.19.19,0,0,1-.22-.22V76.43a.19.19,0,0,1,.22-.22h9.68a.19.19,0,0,1,.22.22v.94A.19.19,0,0,1,251.4,77.59Z"/><path d="M253.79,85.37v-.94a.19.19,0,0,1,.22-.22h6.62a.19.19,0,0,1,.22.22v.94c0,.15-.07.23-.22.23H254C253.86,85.6,253.79,85.52,253.79,85.37Z"/><path d="M264.35,90.89a3.67,3.67,0,0,1-1.46-3v-.69a.19.19,0,0,1,.22-.22h1.1a.2.2,0,0,1,.22.22v.6a2.47,2.47,0,0,0,1.07,2.09,4.93,4.93,0,0,0,3,.8,4,4,0,0,0,2.61-.73A2.34,2.34,0,0,0,272,88a2.16,2.16,0,0,0-.41-1.34,3.83,3.83,0,0,0-1.27-1.05,22.55,22.55,0,0,0-2.43-1.14,25.1,25.1,0,0,1-2.6-1.18,4.4,4.4,0,0,1-1.5-1.29,3.35,3.35,0,0,1-.57-2,3.51,3.51,0,0,1,1.31-2.92,5.64,5.64,0,0,1,3.59-1A6.07,6.07,0,0,1,272,77.19a3.79,3.79,0,0,1,1.43,3.09v.49c0,.15-.08.22-.23.22H272.1c-.15,0-.23-.07-.23-.22v-.4a2.63,2.63,0,0,0-1-2.13,4.38,4.38,0,0,0-2.83-.82,4,4,0,0,0-2.44.64,2.25,2.25,0,0,0-.85,1.88,2.06,2.06,0,0,0,.42,1.33,3.44,3.44,0,0,0,1.18.92c.51.26,1.31.6,2.38,1a22,22,0,0,1,2.63,1.26A5.17,5.17,0,0,1,273,85.88a3.34,3.34,0,0,1,.61,2,3.67,3.67,0,0,1-1.38,3A6,6,0,0,1,268.34,92,6.35,6.35,0,0,1,264.35,90.89Z"/><path d="M286,76.21h1.14a.19.19,0,0,1,.22.22v15.2a.19.19,0,0,1-.22.22H286a.19.19,0,0,1-.22-.22V84.77a.08.08,0,0,0-.09-.09h-7.13a.08.08,0,0,0-.09.09v6.86c0,.15-.08.22-.23.22H277.1a.19.19,0,0,1-.22-.22V76.43a.19.19,0,0,1,.22-.22h1.14c.15,0,.23.07.23.22V83.2a.08.08,0,0,0,.09.09h7.13a.08.08,0,0,0,.09-.09V76.43A.19.19,0,0,1,286,76.21Z"/><path d="M293.53,91.38a4.53,4.53,0,0,1-1.86-1.82,5.41,5.41,0,0,1-.66-2.71V81.21a5.44,5.44,0,0,1,.66-2.71,4.59,4.59,0,0,1,1.86-1.82,6.36,6.36,0,0,1,5.6,0A4.58,4.58,0,0,1,301,78.5a5.44,5.44,0,0,1,.66,2.71v5.64a5.41,5.41,0,0,1-.66,2.71,4.52,4.52,0,0,1-1.88,1.82,6.36,6.36,0,0,1-5.6,0Zm5.52-1.74a3.65,3.65,0,0,0,1-2.72V81.19a3.73,3.73,0,0,0-1-2.74,4.09,4.09,0,0,0-5.43,0,3.77,3.77,0,0,0-1,2.74v5.73a3.54,3.54,0,0,0,3.74,3.75A3.65,3.65,0,0,0,299.05,89.64Z"/><path d="M314.51,77.39a4.31,4.31,0,0,1,1.2,3.18,4.19,4.19,0,0,1-1.22,3.13,4.4,4.4,0,0,1-3.21,1.18h-4.36a.08.08,0,0,0-.09.09v6.66a.19.19,0,0,1-.22.22h-1.14c-.15,0-.23-.07-.23-.22V76.41c0-.15.08-.22.23-.22h5.88A4.27,4.27,0,0,1,314.51,77.39Zm-1.2,5.36a2.89,2.89,0,0,0,.83-2.16,2.92,2.92,0,0,0-.83-2.19,2.89,2.89,0,0,0-2.14-.83h-4.25a.08.08,0,0,0-.09.09v5.81a.08.08,0,0,0,.09.09h4.25A2.92,2.92,0,0,0,313.31,82.75Z"/></svg>