<svg id="Vrstva_1" data-name="Vrstva 1" xmlns="http://www.w3.org/2000/svg" xmlns:xlink="http://www.w3.org/1999/xlink" viewBox="0 0 318.87 98.45"><defs><style>.cls-1{fill:url(#Nepojmenovaný_přechod);}.cls-2{fill:url(#Nepojmenovaný_přechod_2);}.cls-3{fill:url(#Nepojmenovaný_přechod_3);}.cls-4{fill:url(#Nepojmenovaný_přechod_4);}.cls-5{fill:url(#Nepojmenovaný_přechod_5);}.cls-6{fill:url(#Nepojmenovaný_přechod_6);}.cls-7{fill:url(#Nepojmenovaný_přechod_7);}.cls-8{fill:#683b11;}.cls-9{fill:#f15a24;}</style><linearGradient id="Nepojmenovaný_přechod" x1="203.07" y1="92.29" x2="203.07" y2="33.54" gradientTransform="matrix(1, 0, 0, -1, 0, 97.89)" gradientUnits="userSpaceOnUse"><stop offset="0" stop-color="#f39600"/><stop offset="0.3" stop-color="#de6d0e"/><stop offset="0.59" stop-color="#cd4d1a"/><stop offset="0.83" stop-color="#c33921"/><stop offset="1" stop-color="#bf3223"/></linearGradient><linearGradient id="Nepojmenovaný_přechod_2" x1="33.73" y1="78.33" x2="33.73" y2="33.59" gradientTransform="matrix(1, 0, 0, -1, 0, 97.89)" gradientUnits="userSpaceOnUse"><stop offset="0" stop-color="#b17f49"/><stop offset="1" stop-color="#683b11"/></linearGradient><linearGradient id="Nepojmenovaný_přechod_3" x1="72.77" y1="78.29" x2="72.77" y2="33.59" xlink:href="#Nepojmenovaný_přechod_2"/><linearGradient id="Nepojmenovaný_přechod_4" x1="95.58" y1="78.33" x2="95.58" y2="33.59" xlink:href="#Nepojmenovaný_přechod_2"/><linearGradient id="Nepojmenovaný_přechod_5" x1="166.58" y1="78.33" x2="166.58" y2="33.59" xlink:href="#Nepojmenovaný_přechod_2"/><linearGradient id="Nepojmenovaný_přechod_6" x1="262.73" y1="79.58" x2="262.73" y2="32.69" xlink:href="#Nepojmenovaný_přechod_2"/><linearGradient id="Nepojmenovaný_přechod_7" x1="125.41" y1="78.33" x2="125.41" y2="33.59" xlink:href="#Nepojmenovaný_přechod_2"/></defs><path class="cls-1" d="M183,64.35V53l22.3-20.21c2.83-2.66,4.68-5.33,4.68-8.8,0-4-2.82-6.87-7.11-6.87-4.52,0-7.51,3.55-8.08,8.64l-13-1.77C183,12.47,192.41,5.6,203.56,5.6c10.51,0,20.69,5.58,20.69,17.54,0,8.16-4.77,12.93-10,17.61L201,52.55h23.36v11.8Z"/><path class="cls-2" d="M32.06,22.73h-15L15.7,41.67v-21H30a19.81,19.81,0,0,1,15.07,6.86,19.87,19.87,0,0,0-13-4.8M28.53,54.45H25.92v-25h2.73C36.13,29.45,41.41,34,41.41,42c0,8.72-5.93,12.52-12.88,12.52M30.79,19.6H14.29V64.3h16.5a22.37,22.37,0,0,0,0-44.74"/><path class="cls-3" d="M70.75,22.8H56.47l-1,18.94v-21l15.2.08c5.64,0,8.92,2.56,12.32,6.78a18,18,0,0,0-12.24-4.8M66.93,39.61H65.8V28.46h1.13c3.8,0,8.07.71,8.07,5.58s-4.27,5.57-8.07,5.57M77.31,46c6.35-1.12,9.8-6.47,9.8-12.64,0-9.55-6.71-13.76-15.55-13.76H54.17V64.3H65.8V47.09h.12l11,17.21H91.38Z"/><path class="cls-4" d="M99.34,20.56,92.79,22.5,91.08,38.19V20.56Zm-9.57-1V64.3H101.4V19.56Z"/><path class="cls-5" d="M152.13,22.5l-1.71,15.69V20.56h8.26Zm31.61,4.08-2.3-.31a2.28,2.28,0,0,1-1.95-2.5c.07-.6.16-1.19.27-1.78h0l-2.89.51L166.24,33.3,176,20.56h4.1c.08-.34.17-.68.27-1h-5.11L161.16,38H161V19.56H149.41V64.3H161V44.9h.12l15,19.4h4.51V53a2.36,2.36,0,0,1,.33-1.16L171.78,40.7Z"/><path class="cls-6" d="M284.38,54.13C277.55,54.13,272,48.59,272,41c0-6.06,5.6-11.6,12.43-11.6S296.8,34.94,296.8,41c0,7.59-5.6,13.13-12.42,13.13M263,45.54a27.47,27.47,0,0,0,.89,7.05,24.4,24.4,0,0,1-2.1-10.17c0-13.81,9.36-22.88,23.06-22.88a21.49,21.49,0,0,1,11.91,3.26,24.63,24.63,0,0,0-9.18-1.66C273,21.14,263,30.81,263,45.54M228.58,22a22.94,22.94,0,0,1,17.27.12,24.07,24.07,0,0,0-12.71,1.45A36.36,36.36,0,0,1,230,26.71l-2.06,1.83a22.2,22.2,0,0,0,.73-6.54m55.8-3.69c-12.1,0-23.28,8.52-24.25,20.88h-20v9h9.33c-.47,5.07-4.26,7.64-9.22,7.64-7.52,0-11.6-6.94-11.6-13.77s3.9-13.88,11.43-13.88c4.61,0,7.93,2.8,9.51,7l10.84-4.55c-3.79-8.22-10.79-12.3-19.83-12.3a25.18,25.18,0,0,0-14.14,4v.85c0,8.39-4.48,13.56-9.72,18.35V42a25.9,25.9,0,0,0,1.3,8.29h6.25a2.26,2.26,0,0,1,2.26,2.26v8.86a24.69,24.69,0,0,0,13.63,3.8c7.35,0,13.83-2.63,18.14-8.63A21.9,21.9,0,0,0,261.58,50c3.35,9.26,11.9,15.24,22.8,15.24,14.11,0,24.32-10,24.32-24.27,0-13.29-11.67-22.62-24.32-22.62"/><path class="cls-7" d="M112.61,20.56l-6.56,1.94-1.7,15.69V20.56Zm32.92,0L139,22.5l-1.71,15.69V20.56Zm2.22-1H136.12V46.91H136L114.7,19.56H103.07V64.3H114.7V36.88h.12l21.3,27.42h11.63Z"/><path class="cls-8" d="M207.8,77.18a2.65,2.65,0,0,0-.43,1.73v.28a.1.1,0,0,0,0,.09h2.52a.21.21,0,0,1,.24.17v1.7a.21.21,0,0,1-.18.24h-2.58a.07.07,0,0,0-.09.06,0,0,0,0,0,0,0v9.79c0,.16-.07.23-.24.23h-1.82a.21.21,0,0,1-.24-.17V81.49a.1.1,0,0,0-.1-.1h-1.61a.21.21,0,0,1-.23-.18.06.06,0,0,1,0-.06V79.53a.21.21,0,0,1,.17-.24h1.67c.07,0,.1,0,.1-.1v-.43a6.61,6.61,0,0,1,.37-2.45,2.32,2.32,0,0,1,1.25-1.23,6.71,6.71,0,0,1,2.51-.36H210a.21.21,0,0,1,.24.17v1.59a.22.22,0,0,1-.24.25h-.57A2.22,2.22,0,0,0,207.8,77.18Z"/><path class="cls-8" d="M219.61,79.49c.11,0,.14.13.11.27l-.38,1.81c0,.14-.11.19-.29.14a2.39,2.39,0,0,0-1-.17h-.34a2.71,2.71,0,0,0-1.86.78,2.56,2.56,0,0,0-.72,1.91v7c0,.17-.09.24-.26.24h-1.81a.21.21,0,0,1-.24-.18V79.53a.21.21,0,0,1,.18-.24h1.87c.17,0,.26.08.26.24v1.35h0a3.33,3.33,0,0,1,2.95-1.67A2.91,2.91,0,0,1,219.61,79.49Z"/><path class="cls-8" d="M231.53,86.07a.22.22,0,0,1-.25.24h-7.64a.08.08,0,0,0-.1.07v0a4,4,0,0,0,.14,1.24,2.58,2.58,0,0,0,1.06,1.5,3.65,3.65,0,0,0,2,.55,3.1,3.1,0,0,0,2.8-1.4c0-.16.18-.18.31-.07l1.4.91a.26.26,0,0,1,.07.32,4.68,4.68,0,0,1-1.92,1.69,6,6,0,0,1-2.8.63,5.28,5.28,0,0,1-2.95-.77,4.73,4.73,0,0,1-1.8-2.18,9.14,9.14,0,0,1-.58-3.43,9.94,9.94,0,0,1,.27-2.66,4.63,4.63,0,0,1,1.72-2.61,5.14,5.14,0,0,1,3.15-1,4.9,4.9,0,0,1,3.62,1.22,5.8,5.8,0,0,1,1.4,3.55A19.13,19.13,0,0,1,231.53,86.07Zm-6.87-4.47a2.55,2.55,0,0,0-.91,1.4,5.44,5.44,0,0,0-.21,1.39.1.1,0,0,0,.1.1h5.48a.1.1,0,0,0,.1-.1,7.78,7.78,0,0,0-.14-1.17,2.66,2.66,0,0,0-2.71-2.06A2.8,2.8,0,0,0,224.66,81.6Z"/><path class="cls-8" d="M243,80.25a4.24,4.24,0,0,1,1.15,3.1v7.9a.21.21,0,0,1-.18.24h-1.88c-.16,0-.23,0-.23-.24V83.79a2.81,2.81,0,0,0-.7-1.94,2.68,2.68,0,0,0-3.7,0,2.69,2.69,0,0,0-.71,1.93v7.47c0,.17-.08.24-.25.24h-1.82a.23.23,0,0,1-.24-.18V79.53a.21.21,0,0,1,.18-.24h1.88c.17,0,.25.08.25.24v.86h0a3.64,3.64,0,0,1,3.05-1.31A4.2,4.2,0,0,1,243,80.25Z"/><path class="cls-8" d="M249.18,91.21A4.14,4.14,0,0,1,247.49,90a2.68,2.68,0,0,1-.61-1.67v-.26a.22.22,0,0,1,.18-.24h1.8a.2.2,0,0,1,.23.18.06.06,0,0,1,0,.06v.12a1.41,1.41,0,0,0,.73,1.18,3.24,3.24,0,0,0,1.86.5,3,3,0,0,0,1.75-.47,1.4,1.4,0,0,0,.67-1.19,1.11,1.11,0,0,0-.61-1,9.76,9.76,0,0,0-2-.73,18.72,18.72,0,0,1-2.29-.78,4.14,4.14,0,0,1-1.55-1.13,2.8,2.8,0,0,1-.65-1.88,3.05,3.05,0,0,1,1.26-2.56,5.52,5.52,0,0,1,3.34-1,6.51,6.51,0,0,1,2.47.45,3.75,3.75,0,0,1,1.63,1.23,2.87,2.87,0,0,1,.59,1.78h0a.22.22,0,0,1-.19.25h-1.74a.22.22,0,0,1-.24-.25h0a1.38,1.38,0,0,0-.68-1.16,3.18,3.18,0,0,0-1.85-.46,3,3,0,0,0-1.72.4,1.25,1.25,0,0,0-.66,1.11,1.16,1.16,0,0,0,.63,1,10.2,10.2,0,0,0,2.06.76,21.5,21.5,0,0,1,2.31.76,4.34,4.34,0,0,1,1.58,1.1,2.85,2.85,0,0,1,.6,1.91,3.06,3.06,0,0,1-1.29,2.58,5.53,5.53,0,0,1-3.41,1A7.06,7.06,0,0,1,249.18,91.21Zm-.73-16.35a.09.09,0,1,1,.14-.1H250a.3.3,0,0,1,.29.14l1.32,1.82h.07a.09.09,0,0,0,.07,0L253,74.9a.32.32,0,0,1,.29-.14h1.4a.22.22,0,0,1,.2.08V75L253,77.65a.34.34,0,0,1-.31.14h-1.93a.33.33,0,0,1-.3-.14L248.56,75A.23.23,0,0,1,248.45,74.86Z"/><path class="cls-8" d="M259,77.67a.18.18,0,0,1,0-.2l1.39-2.59a.29.29,0,0,1,.3-.16h1.61c.09,0,.15,0,.18.08a.23.23,0,0,1,0,.2l-1.71,2.58a.3.3,0,0,1-.28.17h-1.28A.24.24,0,0,1,259,77.67Zm0,13.58V79.53a.21.21,0,0,1,.17-.24H261c.17,0,.25.08.25.24V91.25c0,.17-.08.24-.25.24h-1.82a.21.21,0,0,1-.19-.23h0Z"/><path class="cls-8" d="M263.53,91.25V89.57a.42.42,0,0,1,.1-.28L270,81.51v-.08h-6.12a.2.2,0,0,1-.23-.18.06.06,0,0,1,0-.06V79.53a.21.21,0,0,1,.17-.24h8.71c.17,0,.25.08.25.24v1.7a.4.4,0,0,1-.1.28l-6.45,7.78v.08h6.28a.22.22,0,0,1,.24.18.06.06,0,0,1,0,.06v1.61c0,.17-.07.24-.24.24H263.7A.21.21,0,0,1,263.53,91.25Z"/><path class="cls-8" d="M275.59,76.94a1.54,1.54,0,1,1,2.21-2.14,1.55,1.55,0,0,1,0,2.14A1.62,1.62,0,0,1,275.59,76.94Zm-.1,14.29V79.53a.21.21,0,0,1,.18-.24h1.89a.21.21,0,0,1,.24.18V91.23a.22.22,0,0,1-.18.24h-1.89a.2.2,0,0,1-.24-.18v-.06Z"/><path class="cls-8" d="M289.94,80.25a4.23,4.23,0,0,1,1.14,3.1v7.9a.21.21,0,0,1-.17.24H289a.21.21,0,0,1-.23-.18.06.06,0,0,1,0-.06V83.79a2.82,2.82,0,0,0-.69-1.94,2.66,2.66,0,0,0-3.69,0,2.61,2.61,0,0,0-.73,1.93v7.47a.21.21,0,0,1-.18.24h-1.88c-.16,0-.23,0-.23-.24V79.53a.21.21,0,0,1,.17-.24h1.88a.21.21,0,0,1,.24.18v.92h0a3.63,3.63,0,0,1,3.05-1.31A4.31,4.31,0,0,1,289.94,80.25Z"/><path class="cls-8" d="M302.15,79.28h1.77a.2.2,0,0,1,.24.17V90.86a4.81,4.81,0,0,1-1.65,4.19,7,7,0,0,1-4.39,1.26h-1.2a.23.23,0,0,1-.24-.23v0l.07-1.65a.25.25,0,0,1,0-.17.17.17,0,0,1,.19,0h1a4.6,4.6,0,0,0,2.95-.76,3.05,3.05,0,0,0,.91-2.54v-.44a.08.08,0,0,0,0-.07m-.08,0a3.7,3.7,0,0,1-2.95,1.18,5.13,5.13,0,0,1-2.8-.81,4.18,4.18,0,0,1-1.73-2.4,10.59,10.59,0,0,1-.31-2.92,10,10,0,0,1,.36-3.08,4.48,4.48,0,0,1,1.61-2.3,4.35,4.35,0,0,1,2.8-.88,4.06,4.06,0,0,1,3.09,1.2.11.11,0,0,0,.08,0,.09.09,0,0,0,0-.07V79.6a.23.23,0,0,1,0-.31.21.21,0,0,1,.31,0Zm.18-3.66V84a4.58,4.58,0,0,0-.14-.81,2.53,2.53,0,0,0-.85-1.4,2.8,2.8,0,0,0-3.36,0,3.1,3.1,0,0,0-1,1.4,10,10,0,0,0,0,4.49,2.82,2.82,0,0,0,.95,1.4,2.67,2.67,0,0,0,1.72.56,2.48,2.48,0,0,0,2.56-2c0-.31.08-.59.11-.87Z"/><rect class="cls-9" x="12.91" y="69.98" width="292.54" height="1.54"/></svg>