<svg id="Vrstva_1" data-name="Vrstva 1" xmlns="http://www.w3.org/2000/svg" xmlns:xlink="http://www.w3.org/1999/xlink" viewBox="0 0 318.87 98.45"><defs><style>.cls-1{fill:url(#Nepojmenovaný_přechod);}.cls-2{fill:url(#Nepojmenovaný_přechod_2);}.cls-3{fill:url(#Nepojmenovaný_přechod_3);}.cls-4{fill:url(#Nepojmenovaný_přechod_4);}.cls-5{fill:url(#Nepojmenovaný_přechod_5);}.cls-6{fill:url(#Nepojmenovaný_přechod_6);}.cls-7{fill:url(#Nepojmenovaný_přechod_7);}.cls-8{fill:#683b11;}.cls-9{fill:#f15a24;}</style><linearGradient id="Nepojmenovaný_přechod" x1="201.52" y1="92.19" x2="201.52" y2="33.44" gradientTransform="matrix(1, 0, 0, -1, 0, 97.89)" gradientUnits="userSpaceOnUse"><stop offset="0" stop-color="#f39600"/><stop offset="0.3" stop-color="#de6d0e"/><stop offset="0.59" stop-color="#cd4d1a"/><stop offset="0.83" stop-color="#c33921"/><stop offset="1" stop-color="#bf3223"/></linearGradient><linearGradient id="Nepojmenovaný_přechod_2" x1="32.2" y1="78.23" x2="32.2" y2="33.49" gradientTransform="matrix(1, 0, 0, -1, 0, 97.89)" gradientUnits="userSpaceOnUse"><stop offset="0" stop-color="#b17f49"/><stop offset="1" stop-color="#683b11"/></linearGradient><linearGradient id="Nepojmenovaný_přechod_3" x1="71.25" y1="78.23" x2="71.25" y2="33.49" xlink:href="#Nepojmenovaný_přechod_2"/><linearGradient id="Nepojmenovaný_přechod_4" x1="94.06" y1="78.23" x2="94.06" y2="33.49" xlink:href="#Nepojmenovaný_přechod_2"/><linearGradient id="Nepojmenovaný_přechod_5" x1="165.06" y1="78.23" x2="165.06" y2="33.49" xlink:href="#Nepojmenovaný_přechod_2"/><linearGradient id="Nepojmenovaný_přechod_6" x1="261.22" y1="79.47" x2="261.22" y2="32.58" xlink:href="#Nepojmenovaný_přechod_2"/><linearGradient id="Nepojmenovaný_přechod_7" x1="123.89" y1="78.24" x2="123.89" y2="33.49" xlink:href="#Nepojmenovaný_přechod_2"/></defs><path class="cls-1" d="M181.43,64.45V53.14l22.3-20.21c2.83-2.66,4.69-5.33,4.69-8.8,0-4-2.83-6.87-7.11-6.87-4.52,0-7.51,3.55-8.08,8.65l-13-1.78C181.51,12.57,190.89,5.7,202,5.7c10.5,0,20.69,5.58,20.69,17.54,0,8.16-4.77,12.93-10,17.62L199.45,52.65h23.36v11.8Z"/><path class="cls-2" d="M30.54,22.84h-15l-1.4,18.93v-21H28.47a19.81,19.81,0,0,1,15.07,6.86,19.81,19.81,0,0,0-13-4.79M27,54.55H24.4v-25h2.73C34.61,29.51,39.89,34,39.89,42,39.89,50.75,34,54.55,27,54.55m2.26-34.89H12.77V64.4h16.5a22.37,22.37,0,0,0,0-44.74"/><path class="cls-3" d="M69.23,22.9H55L53.9,41.84v-21l15.19.08c5.64,0,8.93,2.56,12.33,6.78a18,18,0,0,0-12.19-4.8M65.41,39.71H64.28V28.56h1.13c3.79,0,8.07.71,8.07,5.58s-4.28,5.57-8.07,5.57m10.38,6.35c6.35-1.12,9.79-6.46,9.79-12.64,0-9.55-6.7-13.76-15.55-13.76H52.65V64.4H64.28V47.19h.12l11,17.21H89.85Z"/><path class="cls-4" d="M97.82,20.66,91.27,22.6,89.56,38.29V20.66Zm-9.57-1V64.4H99.88V19.66Z"/><path class="cls-5" d="M150.6,22.6l-1.7,15.69V20.66h8.25Zm31.62,4.08-2.3-.31a2.27,2.27,0,0,1-1.95-2.5c.07-.6.16-1.19.27-1.78h0l-2.89.51L164.72,33.43l9.73-12.77h4.1c.09-.34.18-.68.28-1H173.7L159.64,38.11h-.12V19.66H147.89V64.4h11.63V45h.12l15,19.4h4.52V53.14A2.3,2.3,0,0,1,179.5,52l-9.18-11.14Z"/><path class="cls-6" d="M282.85,54.23c-6.82,0-12.42-5.54-12.42-13.13,0-6.06,5.6-11.6,12.42-11.6s12.43,5.5,12.43,11.6c0,7.59-5.6,13.13-12.43,13.13m-21.34-8.59a27.15,27.15,0,0,0,.89,7,24.4,24.4,0,0,1-2.1-10.17c0-13.81,9.36-22.88,23.05-22.88a21.44,21.44,0,0,1,11.92,3.26,24.63,24.63,0,0,0-9.18-1.66c-14.61,0-24.58,9.68-24.58,24.4M227.06,22.11a22.94,22.94,0,0,1,17.27.12,24.25,24.25,0,0,0-12.76,1.45,34.91,34.91,0,0,1-3.18,3.14l-2.06,1.83a22.54,22.54,0,0,0,.73-6.54m55.79-3.69c-12.09,0-23.27,8.52-24.24,20.88h-20v9H248c-.47,5.07-4.26,7.64-9.22,7.64-7.52,0-11.6-6.94-11.6-13.77s3.9-13.88,11.43-13.88c4.6,0,7.93,2.8,9.5,7L259,30.74c-3.79-8.22-10.79-12.3-19.83-12.3a25.18,25.18,0,0,0-14.14,4v.85c0,8.39-4.48,13.56-9.72,18.35v.51a26.26,26.26,0,0,0,1.29,8.29h6.26a2.26,2.26,0,0,1,2.26,2.26v8.87a24.76,24.76,0,0,0,13.63,3.79c7.35,0,13.82-2.63,18.14-8.63a21.82,21.82,0,0,0,3.22-6.61c3.35,9.26,11.9,15.24,22.79,15.24,14.12,0,24.32-10,24.32-24.27,0-13.29-11.66-22.62-24.32-22.62"/><path class="cls-7" d="M111.08,20.66l-6.55,1.94-1.71,15.69V20.66Zm32.93,0-6.55,1.94-1.71,15.69V20.66Zm2.22-1H134.6V47h-.12l-21.3-27.35H101.54V64.4h11.64V37h.12l21.3,27.4h11.63Z"/><path class="cls-8" d="M239.81,86.09a.23.23,0,0,1-.19.26h-8.21a.08.08,0,0,0-.1.07,0,0,0,0,0,0,0,4.19,4.19,0,0,0,.16,1.32,2.64,2.64,0,0,0,1.13,1.6,3.76,3.76,0,0,0,2.16.58,3.26,3.26,0,0,0,2.9-1.49c.09-.16.2-.19.33-.07l1.49,1a.26.26,0,0,1,0,.35,4.88,4.88,0,0,1-2,1.8,6.69,6.69,0,0,1-3,.67,5.66,5.66,0,0,1-3.14-.82,4.84,4.84,0,0,1-2-2.4,9.44,9.44,0,0,1-.61-3.65,11.7,11.7,0,0,1,.26-2.83,4.93,4.93,0,0,1,1.84-2.78,5.44,5.44,0,0,1,3.33-1,5.2,5.2,0,0,1,3.86,1.3,6.24,6.24,0,0,1,1.56,3.78A23.23,23.23,0,0,1,239.81,86.09Zm-7.3-4.76a2.66,2.66,0,0,0-1,1.49,5.34,5.34,0,0,0-.24,1.49.1.1,0,0,0,.1.1h5.85a.09.09,0,0,0,.09-.1,6.67,6.67,0,0,0-.15-1.26,2.8,2.8,0,0,0-1-1.59,2.87,2.87,0,0,0-1.88-.59,2.93,2.93,0,0,0-1.86.46Z"/><path class="cls-8" d="M241.94,84.81V83.32c0-.18.09-.25.27-.25h7.87c.18,0,.26,0,.26.25v1.49a.23.23,0,0,1-.19.25h-7.94C242,85.12,241.94,85,241.94,84.81Z"/><path class="cls-8" d="M254.92,91.56a4.33,4.33,0,0,1-1.8-1.27,2.84,2.84,0,0,1-.64-1.77v-.28a.24.24,0,0,1,.27-.26h1.83a.23.23,0,0,1,.25.19.09.09,0,0,1,0,.07v.13a1.5,1.5,0,0,0,.78,1.25,3.39,3.39,0,0,0,2,.54,3.14,3.14,0,0,0,1.86-.51,1.49,1.49,0,0,0,.71-1.26,1.19,1.19,0,0,0-.65-1.11,10.21,10.21,0,0,0-2.15-.77,23.36,23.36,0,0,1-2.44-.83,4.5,4.5,0,0,1-1.65-1.21,2.91,2.91,0,0,1-.69-2,3.25,3.25,0,0,1,1.34-2.72,5.8,5.8,0,0,1,3.56-1,6.69,6.69,0,0,1,2.62.47,4.06,4.06,0,0,1,1.75,1.31,3.08,3.08,0,0,1,.62,1.89h0a.24.24,0,0,1-.2.27h-1.85a.24.24,0,0,1-.26-.27h0a1.46,1.46,0,0,0-.73-1.23,3.38,3.38,0,0,0-2-.49,3.24,3.24,0,0,0-1.83.43,1.33,1.33,0,0,0-.7,1.18,1.18,1.18,0,0,0,.67,1.11,10.49,10.49,0,0,0,2.19.82,21.29,21.29,0,0,1,2.45.81,4.29,4.29,0,0,1,1.68,1.17,3,3,0,0,1,.69,2A3.25,3.25,0,0,1,261.25,91a5.94,5.94,0,0,1-3.63,1A7.52,7.52,0,0,1,254.92,91.56Z"/><path class="cls-8" d="M274.59,79.9a4.45,4.45,0,0,1,1.22,3.29V91.6a.22.22,0,0,1-.19.25.06.06,0,0,1-.06,0h-1.94c-.18,0-.25,0-.25-.25V83.67a3,3,0,0,0-.75-2.07,2.54,2.54,0,0,0-2-.79,2.61,2.61,0,0,0-2,.79,2.91,2.91,0,0,0-.77,2.05V91.6c0,.18-.07.25-.25.25h-1.94a.22.22,0,0,1-.25-.18.08.08,0,0,1,0-.07V74.26a.22.22,0,0,1,.19-.26h2c.18,0,.25.08.25.26v5.79h0a3.83,3.83,0,0,1,3.25-1.4A4.44,4.44,0,0,1,274.59,79.9Z"/><path class="cls-8" d="M281.17,91.11a5,5,0,0,1-2-2.67,10.8,10.8,0,0,1,0-6.17,5,5,0,0,1,2-2.64,5.78,5.78,0,0,1,3.35-1,5.46,5.46,0,0,1,3.2,1,5.13,5.13,0,0,1,1.95,2.61,8.81,8.81,0,0,1,.46,3.06,9.27,9.27,0,0,1-.46,3.14,5.09,5.09,0,0,1-1.93,2.67,5.52,5.52,0,0,1-3.25,1A5.67,5.67,0,0,1,281.17,91.11Zm5.08-1.74a3.16,3.16,0,0,0,1.1-1.61,8.93,8.93,0,0,0,.28-2.41,9.46,9.46,0,0,0-.25-2.37,3.19,3.19,0,0,0-1.1-1.62,3,3,0,0,0-1.8-.57,3,3,0,0,0-1.82.57,3.19,3.19,0,0,0-1.1,1.62,8.23,8.23,0,0,0-.28,2.37,8.71,8.71,0,0,0,.22,2.44,2.94,2.94,0,0,0,1.09,1.61,3.05,3.05,0,0,0,1.87.58A2.89,2.89,0,0,0,286.25,89.37Z"/><path class="cls-8" d="M304.34,85.41a10.68,10.68,0,0,1-.4,3.08,4.72,4.72,0,0,1-4.9,3.57,4.06,4.06,0,0,1-1.65-.34,3.64,3.64,0,0,1-1.34-1H296a.14.14,0,0,0,0,.09v5.68a.24.24,0,0,1-.19.26h-2a.22.22,0,0,1-.25-.19V79.12a.22.22,0,0,1,.19-.25h2a.23.23,0,0,1,.26.19V80h.09a3.87,3.87,0,0,1,1.34-1,3.61,3.61,0,0,1,1.65-.36,5,5,0,0,1,3,.91,5.15,5.15,0,0,1,1.74,2.6A9.62,9.62,0,0,1,304.34,85.41Zm-2.47,0a6.62,6.62,0,0,0-.64-3.16,2.52,2.52,0,0,0-2.41-1.4,2.41,2.41,0,0,0-2.25,1.37,6.62,6.62,0,0,0-.61,3.22,6.45,6.45,0,0,0,.65,3.26A2.38,2.38,0,0,0,298.79,90a2.47,2.47,0,0,0,2.26-1.22,6,6,0,0,0,.82-3.44Z"/><rect class="cls-9" x="12.91" y="69.98" width="292.54" height="1.54"/></svg>