<svg id="Vrstva_1" data-name="Vrstva 1" xmlns="http://www.w3.org/2000/svg" xmlns:xlink="http://www.w3.org/1999/xlink" viewBox="0 0 318.87 98.45"><defs><style>.cls-1{fill:url(#Nepojmenovaný_přechod_30);}.cls-2{fill:url(#Nepojmenovaný_přechod_13);}.cls-3{fill:url(#Nepojmenovaný_přechod_13-2);}.cls-4{fill:url(#Nepojmenovaný_přechod_13-3);}.cls-5{fill:url(#Nepojmenovaný_přechod_13-4);}.cls-6{fill:url(#Nepojmenovaný_přechod_13-5);}.cls-7{fill:url(#Nepojmenovaný_přechod_13-6);}.cls-8{fill:#683b11;}</style><linearGradient id="Nepojmenovaný_přechod_30" x1="201.51" y1="0.7" x2="201.51" y2="59.45" gradientUnits="userSpaceOnUse"><stop offset="0" stop-color="#f39600"/><stop offset="0.3" stop-color="#de6d0e"/><stop offset="0.59" stop-color="#cd4d1a"/><stop offset="0.83" stop-color="#c33921"/><stop offset="1" stop-color="#bf3223"/></linearGradient><linearGradient id="Nepojmenovaný_přechod_13" x1="32.38" y1="14.66" x2="32.38" y2="59.4" gradientUnits="userSpaceOnUse"><stop offset="0" stop-color="#b17f49"/><stop offset="1" stop-color="#683b11"/></linearGradient><linearGradient id="Nepojmenovaný_přechod_13-2" x1="71.25" y1="14.66" x2="71.25" y2="59.4" xlink:href="#Nepojmenovaný_přechod_13"/><linearGradient id="Nepojmenovaný_přechod_13-3" x1="94.07" y1="14.66" x2="94.07" y2="59.4" xlink:href="#Nepojmenovaný_přechod_13"/><linearGradient id="Nepojmenovaný_přechod_13-4" x1="165.06" y1="14.66" x2="165.06" y2="59.4" xlink:href="#Nepojmenovaný_přechod_13"/><linearGradient id="Nepojmenovaný_přechod_13-5" x1="261.22" y1="13.42" x2="261.22" y2="60.31" xlink:href="#Nepojmenovaný_přechod_13"/><linearGradient id="Nepojmenovaný_přechod_13-6" x1="123.89" y1="14.66" x2="123.89" y2="59.4" xlink:href="#Nepojmenovaný_přechod_13"/></defs><path class="cls-1" d="M181.43,59.45V48.14l22.3-20.21c2.83-2.66,4.69-5.33,4.69-8.8,0-4-2.83-6.87-7.11-6.87-4.52,0-7.51,3.55-8.08,8.65l-13-1.78C181.51,7.57,190.89.7,202,.7c10.5,0,20.69,5.58,20.69,17.54,0,8.16-4.77,12.93-10,17.62L199.45,47.65h23.36v11.8Z"/><path class="cls-2" d="M30.54,17.84h-15l-1.4,18.93v-21H28.47a19.8,19.8,0,0,1,15.07,6.86,19.85,19.85,0,0,0-13-4.79M27,49.55H24.4v-25h2.73C34.61,24.51,39.89,29,39.89,37,39.89,45.75,34,49.55,27,49.55m2.26-34.89H12.77V59.4h16.5a22.37,22.37,0,1,0,0-44.74"/><path class="cls-3" d="M69.23,17.9H55L53.9,36.84v-21l15.19.08c5.64,0,8.93,2.56,12.33,6.78A18,18,0,0,0,69.23,17.9M65.41,34.71H64.28V23.56h1.13c3.79,0,8.07.71,8.07,5.58s-4.28,5.57-8.07,5.57m10.38,6.35c6.35-1.12,9.79-6.46,9.79-12.64,0-9.55-6.7-13.76-15.55-13.76H52.65V59.4H64.28V42.19h.12l11,17.21H89.85Z"/><path class="cls-4" d="M97.82,15.66,91.27,17.6,89.56,33.29V15.66Zm-9.57-1V59.4H99.88V14.66Z"/><path class="cls-5" d="M150.6,17.6l-1.7,15.69V15.66h8.25Zm31.62,4.08-2.3-.31a2.27,2.27,0,0,1-1.95-2.5c.07-.6.16-1.19.27-1.78v0l-2.89.51L164.72,28.43l9.73-12.77h4.09c.09-.34.18-.68.28-1H173.7L159.64,33.11h-.12V14.66H147.89V59.4h11.63V40h.12l15,19.4h4.52V48.14A2.23,2.23,0,0,1,179.5,47l-9.18-11.14Z"/><path class="cls-6" d="M282.85,49.23c-6.82,0-12.42-5.54-12.42-13.13,0-6.06,5.6-11.6,12.42-11.6S295.28,30,295.28,36.1c0,7.59-5.6,13.13-12.43,13.13m-21.34-8.59a27.5,27.5,0,0,0,.89,7,24.35,24.35,0,0,1-2.1-10.17c0-13.81,9.36-22.88,23.05-22.88a21.46,21.46,0,0,1,11.92,3.26,24.59,24.59,0,0,0-9.18-1.66c-14.61,0-24.58,9.68-24.58,24.4M227.06,17.11a22.91,22.91,0,0,1,17.27.12,24.11,24.11,0,0,0-3.71-.29,24.45,24.45,0,0,0-9.05,1.74,35,35,0,0,1-3.18,3.14l-2.06,1.83a22.57,22.57,0,0,0,.73-6.54m55.79-3.69c-12.09,0-23.27,8.52-24.24,20.88h-20v9H248c-.47,5.07-4.26,7.64-9.22,7.64-7.52,0-11.6-6.94-11.6-13.77s3.9-13.88,11.43-13.88c4.6,0,7.93,2.8,9.5,7l10.85-4.55c-3.79-8.22-10.79-12.3-19.83-12.3a25.2,25.2,0,0,0-14.14,4c0,.28,0,.56,0,.85,0,8.39-4.48,13.56-9.72,18.35,0,.17,0,.33,0,.51a26.24,26.24,0,0,0,1.29,8.29h6.26a2.26,2.26,0,0,1,2.26,2.26v8.87a24.77,24.77,0,0,0,13.63,3.79c7.35,0,13.82-2.63,18.14-8.63a21.81,21.81,0,0,0,3.22-6.61c3.35,9.26,11.9,15.24,22.79,15.24,14.12,0,24.32-10,24.32-24.27,0-13.29-11.66-22.62-24.32-22.62"/><path class="cls-7" d="M111.08,15.66l-6.55,1.94-1.71,15.69V15.66Zm32.93,0-6.55,1.94-1.71,15.69V15.66Zm2.22-1H134.6V42h-.12l-21.3-27.35H101.54V59.4h11.64V32h.12L134.6,59.4h11.63Z"/><path class="cls-8" d="M124.77,78.74a.33.33,0,0,1-.26.11h-9.84a.13.13,0,0,0-.15.15v4.65a.13.13,0,0,0,.15.15h6.45a.35.35,0,0,1,.26.1.37.37,0,0,1,.1.26v2.91a.33.33,0,0,1-.1.25.33.33,0,0,1-.26.11h-6.45a.13.13,0,0,0-.15.15v4.86a.13.13,0,0,0,.15.15h9.84a.4.4,0,0,1,.26.1.35.35,0,0,1,.1.26v2.91a.32.32,0,0,1-.1.25.36.36,0,0,1-.26.11H110.65a.34.34,0,0,1-.25-.11.33.33,0,0,1-.11-.25V75.58a.38.38,0,0,1,.11-.26.33.33,0,0,1,.25-.1h13.86a.35.35,0,0,1,.26.1.37.37,0,0,1,.1.26v2.91A.33.33,0,0,1,124.77,78.74Z"/><path class="cls-8" d="M127,89.07a.38.38,0,0,1-.11-.26V85.9a.34.34,0,0,1,.11-.25.31.31,0,0,1,.25-.11H137a.33.33,0,0,1,.26.11.33.33,0,0,1,.1.25v2.91a.37.37,0,0,1-.1.26.35.35,0,0,1-.26.1h-9.81A.33.33,0,0,1,127,89.07Z"/><path class="cls-8" d="M143.08,95.69a6.11,6.11,0,0,1-2.77-2.19,5.69,5.69,0,0,1-1-3.31v-.66a.36.36,0,0,1,.11-.26.37.37,0,0,1,.25-.1h3.42a.4.4,0,0,1,.26.1.35.35,0,0,1,.1.26V90a2.43,2.43,0,0,0,1.11,2,4.86,4.86,0,0,0,3,.83,3.55,3.55,0,0,0,2.37-.68,2.09,2.09,0,0,0,.78-1.66,1.69,1.69,0,0,0-.48-1.22,4.21,4.21,0,0,0-1.3-.87c-.55-.25-1.43-.59-2.63-1a25.61,25.61,0,0,1-3.4-1.41,6.85,6.85,0,0,1-2.34-2,4.93,4.93,0,0,1-1-3.07,5.42,5.42,0,0,1,.93-3.15,5.92,5.92,0,0,1,2.58-2.07A9.45,9.45,0,0,1,147,75a9.76,9.76,0,0,1,4.07.81,6.56,6.56,0,0,1,2.79,2.27,5.77,5.77,0,0,1,1,3.37v.45a.34.34,0,0,1-.36.36H151a.33.33,0,0,1-.25-.1.36.36,0,0,1-.11-.26v-.24a2.73,2.73,0,0,0-1-2.15,4.23,4.23,0,0,0-2.84-.88,3.57,3.57,0,0,0-2.2.6,2,2,0,0,0-.8,1.65,1.8,1.8,0,0,0,.47,1.26,4.24,4.24,0,0,0,1.38.92c.61.27,1.55.63,2.83,1.09a35.5,35.5,0,0,1,3.35,1.38A6.56,6.56,0,0,1,154,87.3a4.65,4.65,0,0,1,1,3.07,5.36,5.36,0,0,1-2.07,4.45,8.81,8.81,0,0,1-5.61,1.64A10.5,10.5,0,0,1,143.08,95.69Z"/><path class="cls-8" d="M169.2,75.32a.33.33,0,0,1,.25-.1H173a.35.35,0,0,1,.26.1.37.37,0,0,1,.1.26V95.86a.32.32,0,0,1-.1.25.36.36,0,0,1-.26.11h-3.51a.34.34,0,0,1-.25-.11.33.33,0,0,1-.11-.25V87.58a.13.13,0,0,0-.15-.15h-6.63a.13.13,0,0,0-.15.15v8.28a.32.32,0,0,1-.1.25.36.36,0,0,1-.26.11h-3.51a.34.34,0,0,1-.25-.11.33.33,0,0,1-.11-.25V75.58a.38.38,0,0,1,.11-.26.33.33,0,0,1,.25-.1h3.51a.35.35,0,0,1,.26.1.37.37,0,0,1,.1.26v8.07a.13.13,0,0,0,.15.15h6.63a.13.13,0,0,0,.15-.15V75.58A.38.38,0,0,1,169.2,75.32Z"/><path class="cls-8" d="M180.12,95.59a6.86,6.86,0,0,1-2.78-2.69,7.82,7.82,0,0,1-1-4V82.51a7.7,7.7,0,0,1,1-3.93,6.92,6.92,0,0,1,2.78-2.66,8.78,8.78,0,0,1,4.12-.94,8.89,8.89,0,0,1,4.16.94,6.89,6.89,0,0,1,2.77,2.66,7.7,7.7,0,0,1,1,3.93v6.42a7.93,7.93,0,0,1-1,4,6.69,6.69,0,0,1-2.77,2.68,8.77,8.77,0,0,1-4.16,1A8.56,8.56,0,0,1,180.12,95.59Zm6.79-3.72a3.83,3.83,0,0,0,1-2.79v-6.6a4,4,0,0,0-1-2.81,3.56,3.56,0,0,0-2.69-1.06,3.5,3.5,0,0,0-2.65,1.06,4,4,0,0,0-1,2.81v6.6a3.87,3.87,0,0,0,1,2.79,3.49,3.49,0,0,0,2.65,1A3.55,3.55,0,0,0,186.91,91.87Z"/><path class="cls-8" d="M207.55,76a5.73,5.73,0,0,1,2.33,2.3,6.87,6.87,0,0,1,.82,3.4,6.4,6.4,0,0,1-.85,3.33,5.81,5.81,0,0,1-2.4,2.23,7.56,7.56,0,0,1-3.56.8h-4.26a.13.13,0,0,0-.15.15v7.65a.32.32,0,0,1-.1.25.36.36,0,0,1-.26.11h-3.51a.34.34,0,0,1-.25-.11.33.33,0,0,1-.11-.25V75.55a.38.38,0,0,1,.36-.36h8.46A7.21,7.21,0,0,1,207.55,76Zm-1.89,7.88a2.76,2.76,0,0,0,.84-2.09,2.82,2.82,0,0,0-.84-2.13,3.06,3.06,0,0,0-2.22-.81h-3.81a.13.13,0,0,0-.15.15v5.52a.13.13,0,0,0,.15.15h3.81A3.14,3.14,0,0,0,205.66,83.88Z"/></svg>