<svg id="Vrstva_1" data-name="Vrstva 1" xmlns="http://www.w3.org/2000/svg" viewBox="0 0 318.87 98.45">
    <defs>
        <style>.cls-1{fill:#fff;}.cls-2{fill:#fff;}</style>
    </defs>
    <path class="cls-1"
          d="M224.36,52.24V64.72h-7.57V76.45H201.65V64.72H171.21V54.32L195.42,15h21.37V52.24ZM201.65,28.12h-.16L186.85,52.24h14.8Z"/>
    <path class="cls-2"
          d="M39.5,40.37a13.15,13.15,0,0,1,10.62,5.1V31.05a28.41,28.41,0,0,0-11-2.34A25.33,25.33,0,0,0,21.35,36.2,24.12,24.12,0,0,0,14.5,53.14C14.5,60,16.84,66,22,70.63a26,26,0,0,0,17.47,6.81c3.77,0,6.67-.92,10.68-2.15V60.87a13.93,13.93,0,0,1-10.43,4.91c-7.54,0-12.6-5.28-12.6-12.58S32.09,40.37,39.5,40.37Z"/>
    <path class="cls-2"
          d="M169.36,66.57V53.8l2.77-4.5a27.93,27.93,0,0,0-4.54-1.7l-3.09-.9c-2.1-.66-5.37-1.68-5.37-4.33s3-3.79,5.19-3.79a12.88,12.88,0,0,1,8,3l4.82-9.15a32.59,32.59,0,0,0-14.57-3.73c-9.33,0-16.06,6-16.06,15.22,0,8.78,5,10.71,12.6,12.81,2.59.73,7.35,1.87,7.35,5.18s-3,4.57-5.87,4.57c-4.14,0-7.72-2.11-10.74-4.69l-5.19,9.5A29.25,29.25,0,0,0,161,76.47a20.78,20.78,0,0,0,13.22-4.27,12.47,12.47,0,0,0,3.82-5.63Z"/>
    <path class="cls-2"
          d="M81.74,30H68.53L50.62,76.51H63.46l3.22-8.09H83.35l3,8.09H99.28ZM70,59.16l5-14.82h.13l4.93,14.82Z"/>
    <path class="cls-2"
          d="M240,30H226.8L218.94,50.4h7.27V66.57h-7.57v9.94h3.1L225,68.42h16.67l3,8.09h12.9ZM228.29,59.16l5-14.82h.12l4.94,14.82Z"/>
    <path class="cls-2" d="M131.75,30V58.41h-.12L109.46,30H97.36V76.51h12.1V48h.12l22.17,28.53h12.11V30Z"/>
    <path class="cls-2" d="M267.92,66.14V29.84h-12.1V76.39h26.61V66.14Z"/>
    <path class="cls-2" d="M295.71,66.14V29.84h-12.1V76.39h26.61V66.14Z"/>
</svg>