<svg id="Vrstva_1" data-name="Vrstva 1" xmlns="http://www.w3.org/2000/svg" xmlns:xlink="http://www.w3.org/1999/xlink" viewBox="0 0 318.87 98.45"><defs><style>.cls-1{fill:url(#Nepojmenovaný_přechod);}.cls-2{fill:url(#Nepojmenovaný_přechod_2);}.cls-3{fill:url(#Nepojmenovaný_přechod_3);}.cls-4{fill:url(#Nepojmenovaný_přechod_4);}.cls-5{fill:url(#Nepojmenovaný_přechod_5);}.cls-6{fill:url(#Nepojmenovaný_přechod_6);}.cls-7{fill:url(#Nepojmenovaný_přechod_7);}.cls-8{fill:url(#Nepojmenovaný_přechod_8);}.cls-9{fill:#683b11;}.cls-10{fill:#f15a24;}</style><linearGradient id="Nepojmenovaný_přechod" x1="191.5" y1="91.73" x2="191.5" y2="35.07" gradientTransform="matrix(1, 0, 0, -1, 0, 97.89)" gradientUnits="userSpaceOnUse"><stop offset="0" stop-color="#f39600"/><stop offset="0.3" stop-color="#de6d0e"/><stop offset="0.59" stop-color="#cd4d1a"/><stop offset="0.83" stop-color="#c33921"/><stop offset="1" stop-color="#bf3223"/></linearGradient><linearGradient id="Nepojmenovaný_přechod_2" x1="39" y1="79.04" x2="39" y2="34.13" gradientTransform="matrix(1, 0, 0, -1, 0, 97.89)" gradientUnits="userSpaceOnUse"><stop offset="0" stop-color="#b17f49"/><stop offset="1" stop-color="#683b11"/></linearGradient><linearGradient id="Nepojmenovaný_přechod_3" x1="157.93" y1="79.07" x2="157.93" y2="35.07" xlink:href="#Nepojmenovaný_přechod_2"/><linearGradient id="Nepojmenovaný_přechod_4" x1="78.31" y1="77.89" x2="78.31" y2="35.02" xlink:href="#Nepojmenovaný_přechod_2"/><linearGradient id="Nepojmenovaný_přechod_5" x1="228.65" y1="77.89" x2="228.65" y2="35.02" xlink:href="#Nepojmenovaný_přechod_2"/><linearGradient id="Nepojmenovaný_přechod_6" x1="120.43" y1="77.89" x2="120.43" y2="35.02" xlink:href="#Nepojmenovaný_přechod_2"/><linearGradient id="Nepojmenovaný_přechod_7" x1="257.26" y1="78.03" x2="257.26" y2="35.12" xlink:href="#Nepojmenovaný_přechod_2"/><linearGradient id="Nepojmenovaný_přechod_8" x1="282.88" y1="78.03" x2="282.88" y2="35.12" xlink:href="#Nepojmenovaný_přechod_2"/></defs><path class="cls-1" d="M216,40.51V52h-7V62.82H195.09V52H167V42.42L189.34,6.16H209V40.51ZM195.09,18.27h-.15l-13.5,22.24h13.65Z"/><path class="cls-2" d="M45.64,29.57a12.14,12.14,0,0,1,9.79,4.69V21a26.26,26.26,0,0,0-10.19-2.15,23.31,23.31,0,0,0-16.33,6.9,22.25,22.25,0,0,0-6.32,15.61,20.79,20.79,0,0,0,6.89,16.12,23.89,23.89,0,0,0,16.1,6.28c3.47,0,6.15-.85,9.85-2V48.46A12.88,12.88,0,0,1,45.81,53c-7,0-11.61-4.86-11.61-11.59S38.81,29.57,45.64,29.57ZM24.82,46.27a21.63,21.63,0,0,1,6.41-20.46C37.47,19.94,44,20,51.62,21.34,51.62,21.34,27.56,17.4,24.82,46.27Z"/><path class="cls-3" d="M165.32,53.71V41.94l2.56-4.15a26,26,0,0,0-4.19-1.56l-2.84-.83c-1.94-.61-5-1.56-5-4s2.74-3.49,4.79-3.49A11.91,11.91,0,0,1,168,30.68l4.44-8.42A30,30,0,0,0,159,18.82c-8.59,0-14.8,5.54-14.8,14,0,8.09,4.61,9.86,11.61,11.8,2.39.67,6.78,1.72,6.78,4.77s-2.79,4.21-5.41,4.21c-3.81,0-7.11-1.94-9.9-4.32L142.54,58a27,27,0,0,0,15.08,4.77,19.18,19.18,0,0,0,12.18-3.94,11.6,11.6,0,0,0,3.52-5.19ZM146.84,36.54s-3.16-9,3.42-13.74c4.74-3.38,10.32-2.75,16.92-1.08l.48.12-.48-.12C164,21,146.3,17.64,146.84,36.54Z"/><path class="cls-4" d="M84.57,20H72.39L55.88,62.87H67.72l3-7.46H86.05l2.79,7.46h11.89ZM73.76,46.88l4.6-13.66h.12L83,46.88Zm.54-22.16L67.84,35,73,21.4H83.15Z"/><path class="cls-5" d="M230.45,20H218.27L211,38.8h6.7V53.71h-7v9.16h2.85l3-7.46h15.37l2.79,7.46H246.6ZM219.63,46.88l4.61-13.66h.12l4.55,13.66Zm1.12-22.16L214.3,35l5.16-13.64H229.6Z"/><path class="cls-6" d="M130.66,20V46.19h-.11L110.12,20H99V62.87h11.16V36.58h.11L130.7,62.87h11.16V20ZM102,23.14l-1.68,15.41V21.22h8.12Zm31.73,0L132,38.55V21.22h8.11Z"/><path class="cls-7" d="M256.16,53.32V19.86H245V62.77h24.53V53.32Zm-8.13-30-1.68,15.42V21.4h8.12Z"/><path class="cls-8" d="M281.78,53.32V19.86H270.62V62.77h24.53V53.32Zm-8-30L272.1,38.74V21.4h8.12Z"/><path class="cls-9" d="M124.49,80.11c.1,0,.12.12.1.25l-.34,1.6c0,.13-.1.18-.26.13a2,2,0,0,0-.84-.15h-.3a2.31,2.31,0,0,0-1.65.69,2.23,2.23,0,0,0-.65,1.69v6.21c0,.15-.08.21-.22.21h-1.62a.18.18,0,0,1-.21-.15V80.15a.18.18,0,0,1,.14-.22h1.69a.2.2,0,0,1,.22.21v1.21h0a3,3,0,0,1,2.62-1.49A2.74,2.74,0,0,1,124.49,80.11Z"/><path class="cls-9" d="M135.07,86c0,.14-.07.21-.22.21h-6.78c-.07,0-.09,0-.09.09a3.47,3.47,0,0,0,.12,1.11,2.27,2.27,0,0,0,1,1.32,3.15,3.15,0,0,0,1.8.49,2.74,2.74,0,0,0,2.48-1.24c.06-.14.16-.16.28-.07l1.24.81a.26.26,0,0,1,0,.29,4.17,4.17,0,0,1-1.7,1.5,5.25,5.25,0,0,1-2.49.56,4.74,4.74,0,0,1-2.62-.68,4.21,4.21,0,0,1-1.6-1.94,8.1,8.1,0,0,1-.51-3,9,9,0,0,1,.23-2.37,4.17,4.17,0,0,1,1.53-2.32,4.66,4.66,0,0,1,2.8-.86,4.35,4.35,0,0,1,3.22,1.09A5.15,5.15,0,0,1,135,84.06,15.15,15.15,0,0,1,135.07,86ZM129,82a2.37,2.37,0,0,0-.81,1.24,5.16,5.16,0,0,0-.18,1.24.09.09,0,0,0,.09.09h4.87c.06,0,.08,0,.08-.09a6,6,0,0,0-.12-1,2.37,2.37,0,0,0-2.41-1.83A2.46,2.46,0,0,0,129,82Z"/><path class="cls-9" d="M137.64,90.56V76.08a.2.2,0,0,1,.16-.21h1.67c.15,0,.22.07.22.21v8.2h0m.07,0L143.69,80a.34.34,0,0,1,.26-.11h1.89c.09,0,.14,0,.16.07s0,.12,0,.19l-2.74,3.17v.12l3.25,7v.09c0,.11-.06.16-.18.16h-1.72a.21.21,0,0,1-.22-.16l-2.49-5.8c0-.06-.07-.08-.11,0l-2,2.21v3.55c0,.15-.07.21-.22.21H138a.18.18,0,0,1-.26,0,.2.2,0,0,1-.05-.19Z"/><path class="cls-9" d="M148.53,90.56V76.08c0-.14,0-.21.21-.21h1.61a.19.19,0,0,1,.21.16,0,0,0,0,1,0,0V90.56a.18.18,0,0,1-.15.21h-1.67A.19.19,0,0,1,148.53,90.56Z"/><path class="cls-9" d="M159.78,80.22a3.54,3.54,0,0,1,1.49,1.24,3.35,3.35,0,0,1,.52,1.87v7.19a.18.18,0,0,1-.15.21H160a.19.19,0,0,1-.22-.16v-.71c0-.07,0-.08-.09,0a3.47,3.47,0,0,1-1.36.88,4.92,4.92,0,0,1-1.78.32,4.18,4.18,0,0,1-2.6-.8,2.86,2.86,0,0,1-1-2.48A3.22,3.22,0,0,1,154,85.17a5,5,0,0,1,3.24-1h2.44a.08.08,0,0,0,.08-.08v-.58a1.86,1.86,0,0,0-.54-1.45,2.24,2.24,0,0,0-1.64-.52,2.63,2.63,0,0,0-1.47.35,1.4,1.4,0,0,0-.68.94.22.22,0,0,1-.26.2l-1.73-.24c-.14,0-.21-.08-.19-.17a2.94,2.94,0,0,1,1.35-2.06,5,5,0,0,1,2.93-.8A5.44,5.44,0,0,1,159.78,80.22Zm-.87,8.4a1.76,1.76,0,0,0,.83-1.5V85.87a.07.07,0,0,0-.08-.07h-2a3.66,3.66,0,0,0-2,.48,1.56,1.56,0,0,0-.75,1.37,1.39,1.39,0,0,0,.56,1.24,2.47,2.47,0,0,0,1.49.4A3.2,3.2,0,0,0,158.91,88.62Z"/><path class="cls-9" d="M178.34,80.76a3.7,3.7,0,0,1,.93,2.69v7.11c0,.15-.06.21-.21.21h-1.59c-.15,0-.21,0-.21-.21V83.87a2.38,2.38,0,0,0-.59-1.69,2,2,0,0,0-1.57-.63,2.19,2.19,0,0,0-1.59.62,2.25,2.25,0,0,0-.62,1.67v6.72c0,.15,0,.21-.21.21h-1.59c-.15,0-.23,0-.23-.21V83.87a2.35,2.35,0,0,0-.58-1.69,2,2,0,0,0-1.57-.63,2.08,2.08,0,0,0-1.56.62,2.37,2.37,0,0,0-.58,1.67v6.72a.2.2,0,0,1-.16.21h-1.67c-.15,0-.21,0-.21-.21V80.15a.18.18,0,0,1,.16-.21h1.66a.19.19,0,0,1,.22.15v.78a0,0,0,0,0,0,.07h.07a3.32,3.32,0,0,1,2.72-1.13,3.83,3.83,0,0,1,1.85.41,3,3,0,0,1,1.24,1.24c0,.07.09.07.13,0a3.17,3.17,0,0,1,1.35-1.24,4.15,4.15,0,0,1,1.87-.41A3.38,3.38,0,0,1,178.34,80.76Z"/><path class="cls-9" d="M189.75,80.79a3.78,3.78,0,0,1,1,2.75v7a.2.2,0,0,1-.16.21h-1.68a.19.19,0,0,1-.21-.16V83.94a2.43,2.43,0,0,0-.62-1.73,2.37,2.37,0,0,0-3.28,0,2.42,2.42,0,0,0-.64,1.71v6.64a.18.18,0,0,1-.15.21h-1.67c-.15,0-.23,0-.23-.21V80.15c0-.14.08-.21.23-.21H184a.18.18,0,0,1,.21.15.06.06,0,0,1,0,.06v.77h0a3.21,3.21,0,0,1,2.71-1.17A3.75,3.75,0,0,1,189.75,80.79Z"/><path class="cls-9" d="M193.49,78.5a.15.15,0,0,1,0-.18l1.24-2.3a.26.26,0,0,1,.26-.15h1.43c.07,0,.13,0,.15.08a1,1,0,0,1,0,.17l-1.52,2.3a.28.28,0,0,1-.25.15h-1.13A.2.2,0,0,1,193.49,78.5Zm0,12.06V80.15a.18.18,0,0,1,.15-.21h1.67a.18.18,0,0,1,.21.15.06.06,0,0,1,0,.06V90.56c0,.15-.06.21-.21.21H193.7c-.11,0-.18-.06-.18-.21Z"/><path class="cls-9" d="M211.89,85.39a8.91,8.91,0,0,1-.35,2.57,3.92,3.92,0,0,1-4.09,3,3.39,3.39,0,0,1-1.37-.28,3.12,3.12,0,0,1-1.11-.82h-.08a.06.06,0,0,0,0,.06v4.76a.18.18,0,0,1-.16.21h-1.67a.2.2,0,0,1-.22-.21V80.15a.19.19,0,0,1,.22-.21h1.62a.18.18,0,0,1,.21.15v.77H205a3.23,3.23,0,0,1,1.1-.84,3.26,3.26,0,0,1,1.38-.3,4.23,4.23,0,0,1,2.55.76,4.4,4.4,0,0,1,1.48,2.14A8.38,8.38,0,0,1,211.89,85.39Zm-2.08,0a5.66,5.66,0,0,0-.52-2.63,2.13,2.13,0,0,0-2-1.17,2,2,0,0,0-1.87,1.14,7.14,7.14,0,0,0,0,5.41,2,2,0,0,0,1.81,1.09,2.07,2.07,0,0,0,1.9-1,5.16,5.16,0,0,0,.69-2.87Z"/><path class="cls-9" d="M214.54,90.56V76.08a.19.19,0,0,1,.21-.21h1.62a.19.19,0,0,1,.21.16V90.56a.18.18,0,0,1-.16.21h-1.67C214.61,90.77,214.54,90.71,214.54,90.56Z"/><path class="cls-9" d="M228.38,86a.18.18,0,0,1-.15.21.06.06,0,0,1-.06,0h-6.79a.09.09,0,0,0-.09.09,3.78,3.78,0,0,0,.12,1.11,2.21,2.21,0,0,0,1,1.32,3.07,3.07,0,0,0,1.79.49,2.74,2.74,0,0,0,2.48-1.24c.08-.14.17-.16.28-.07l1.24.81a.23.23,0,0,1,.06.29,4.08,4.08,0,0,1-1.69,1.5,5.46,5.46,0,0,1-2.48.56,4.72,4.72,0,0,1-2.62-.68,4.08,4.08,0,0,1-1.59-1.94,7.93,7.93,0,0,1-.53-3,9.45,9.45,0,0,1,.24-2.37,4.06,4.06,0,0,1,1.54-2.32,4.56,4.56,0,0,1,2.78-.86,4.32,4.32,0,0,1,3.22,1.09,5.15,5.15,0,0,1,1.24,3.15A17.22,17.22,0,0,1,228.38,86Zm-6.08-4a2.33,2.33,0,0,0-.82,1.24,4.71,4.71,0,0,0-.19,1.24.09.09,0,0,0,.09.09h4.87c.06,0,.08,0,.08-.09a5.18,5.18,0,0,0-.12-1,2.32,2.32,0,0,0-.85-1.33,2.37,2.37,0,0,0-1.56-.5A2.47,2.47,0,0,0,222.3,82Z"/><path class="cls-9" d="M232.53,90.12A4.1,4.1,0,0,1,231,87.9a8.93,8.93,0,0,1-.32-2.57,9.88,9.88,0,0,1,.32-2.59,4.19,4.19,0,0,1,1.6-2.17,4.72,4.72,0,0,1,2.75-.81,4.86,4.86,0,0,1,2.79.81,3.81,3.81,0,0,1,1.56,2.05,3.38,3.38,0,0,1,.16.7c0,.12,0,.18-.18.22l-1.66.23h0c-.1,0-.17-.07-.21-.19l-.06-.34a2.13,2.13,0,0,0-.83-1.24,2.7,2.7,0,0,0-1.6-.49,2.56,2.56,0,0,0-1.56.49,2.22,2.22,0,0,0-.83,1.24,9.25,9.25,0,0,0-.19,2,9,9,0,0,0,.19,2,2.34,2.34,0,0,0,2.39,1.83,2.6,2.6,0,0,0,1.61-.49,2,2,0,0,0,.83-1.24h0v-.09a.19.19,0,0,1,.23-.13h0l1.59.25a.16.16,0,0,1,.17.18v.08a1.65,1.65,0,0,1-.1.48,3.71,3.71,0,0,1-1.56,2.08,5,5,0,0,1-2.78.79A4.65,4.65,0,0,1,232.53,90.12Z"/><path class="cls-9" d="M249.76,80.79a3.73,3.73,0,0,1,1,2.75v7a.18.18,0,0,1-.16.21H249c-.15,0-.23,0-.23-.21V83.94a2.44,2.44,0,0,0-.61-1.73,2.17,2.17,0,0,0-1.64-.66,2.2,2.2,0,0,0-1.64.66,2.4,2.4,0,0,0-.64,1.71v6.64c0,.15,0,.21-.21.21h-1.62c-.15,0-.21,0-.21-.21V76.08c0-.14,0-.21.21-.21H244c.15,0,.21.07.21.21v4.84h0a3.21,3.21,0,0,1,2.71-1.17A3.73,3.73,0,0,1,249.76,80.79Z"/><path class="cls-9" d="M255.25,90.15a4.21,4.21,0,0,1-1.63-2.23,9,9,0,0,1,0-5.15,4.21,4.21,0,0,1,1.63-2.21,5,5,0,0,1,2.8-.8,4.63,4.63,0,0,1,2.67.8,4.38,4.38,0,0,1,1.63,2.18,7.68,7.68,0,0,1,.38,2.56,8,8,0,0,1-.38,2.62,4.28,4.28,0,0,1-1.62,2.23,4.55,4.55,0,0,1-2.7.79A4.79,4.79,0,0,1,255.25,90.15Zm4.24-1.46a2.59,2.59,0,0,0,.92-1.35,7.5,7.5,0,0,0,.24-2,8.28,8.28,0,0,0-.21-2,2.69,2.69,0,0,0-.92-1.35,2.74,2.74,0,0,0-3.07,0,2.69,2.69,0,0,0-.92,1.35,7.36,7.36,0,0,0-.24,2,7.5,7.5,0,0,0,.24,2,2.43,2.43,0,0,0,.91,1.35,2.56,2.56,0,0,0,1.56.49A2.36,2.36,0,0,0,259.49,88.69Z"/><path class="cls-9" d="M267.5,90.61l-3.44-10.44v-.08c0-.1.07-.15.19-.15H266a.24.24,0,0,1,.25.17l2.34,7.7s0,.06.07.06a.06.06,0,0,0,.06-.06l2.32-7.7a.26.26,0,0,1,.26-.17h1.79c.15,0,.21.07.16.23l-3.44,10.41a.25.25,0,0,1-.26.16h-1.8A.23.23,0,0,1,267.5,90.61Z"/><path class="cls-9" d="M275.36,90.56V76.08a.18.18,0,0,1,.15-.21h1.68a.2.2,0,0,1,.22.16v8.25h0m.06,0,4-4.23a.29.29,0,0,1,.26-.11h1.9c.07,0,.13,0,.15.07a1.21,1.21,0,0,1,0,.19L281,83.36v.13l3.27,7v.09c0,.11-.06.16-.19.16h-1.77a.23.23,0,0,1-.24-.16l-2.49-5.8c0-.07-.06-.08-.11,0l-2,2.21v3.55a.18.18,0,0,1-.15.21h-1.69a.19.19,0,0,1-.26,0,.18.18,0,0,1,0-.26Z"/><path class="cls-9" d="M285.79,94.83V93.59a.19.19,0,0,1,.16-.21H286a4.32,4.32,0,0,0,1.34-.21,1.61,1.61,0,0,0,.81-.71,6.82,6.82,0,0,0,.61-1.57v-.13l-3.55-10.54v-.09c0-.09.07-.14.2-.14h1.72a.23.23,0,0,1,.25.17l2.41,8a.09.09,0,0,0,.11,0l0,0,2.38-8a.25.25,0,0,1,.25-.25h1.76c.17,0,.21.08.18.24L290.61,91.5a9.17,9.17,0,0,1-1,2.19,2.69,2.69,0,0,1-1.24,1,6.63,6.63,0,0,1-2.21.3H286C285.87,95,285.79,95,285.79,94.83Z"/><rect class="cls-10" x="23.14" y="69.98" width="272.07" height="1.54"/></svg>