<svg xmlns="http://www.w3.org/2000/svg" xmlns:xlink="http://www.w3.org/1999/xlink" viewBox="0 0 219.99 46.47"><defs><style>.cls-1{fill:none;}.cls-2{clip-path:url(#clip-path);}.cls-3{fill:#fff;}.cls-4{fill:#8c7299;}.cls-5{fill:#fefffe;}.cls-6{fill:#b79474;}.cls-7{fill:#d0af72;}.cls-8{fill:#4a1904;}.cls-9{fill:#4a1801;}.cls-10{clip-path:url(#clip-path-2);}.cls-11{opacity:0.08;}.cls-12{clip-path:url(#clip-path-3);}.cls-13{clip-path:url(#clip-path-4);}.cls-14{font-size:223.2px;font-family:FuturaCE-Bold, Futura CE;font-weight:700;}.cls-15{fill:url(#Nepojmenovaný_přechod_30);}.cls-16{fill:url(#Nepojmenovaný_přechod_13);}.cls-17{fill:url(#Nepojmenovaný_přechod_13-2);}.cls-18{fill:url(#Nepojmenovaný_přechod_13-3);}.cls-19{fill:url(#Nepojmenovaný_přechod_13-4);}.cls-20{fill:url(#Nepojmenovaný_přechod_13-5);}.cls-21{fill:url(#Nepojmenovaný_přechod_13-6);}.cls-22{fill:url(#Nepojmenovaný_přechod_13-7);}</style><clipPath id="clip-path"><rect class="cls-1" x="-1549.01" y="318.12" width="1921" height="1177"/></clipPath><clipPath id="clip-path-2"><rect class="cls-1" x="-1552.01" y="249.12" width="1938" height="4780"/></clipPath><clipPath id="clip-path-3"><rect class="cls-1" x="-3754.01" y="199.12" width="1938" height="4780"/></clipPath><clipPath id="clip-path-4"><rect class="cls-1" x="-372.01" y="-1162.75" width="957" height="977.91"/></clipPath><linearGradient id="Nepojmenovaný_přechod_30" x1="136.35" x2="136.35" y2="45.73" gradientUnits="userSpaceOnUse"><stop offset="0" stop-color="#f39600"/><stop offset="0.3" stop-color="#de6d0e"/><stop offset="0.59" stop-color="#cd4d1a"/><stop offset="0.83" stop-color="#c33921"/><stop offset="1" stop-color="#bf3223"/></linearGradient><linearGradient id="Nepojmenovaný_přechod_13" x1="13.25" y1="10.22" x2="13.25" y2="46.47" gradientUnits="userSpaceOnUse"><stop offset="0" stop-color="#b17f49"/><stop offset="1" stop-color="#683b11"/></linearGradient><linearGradient id="Nepojmenovaný_přechod_13-2" x1="109.27" y1="10.22" x2="109.27" y2="45.75" xlink:href="#Nepojmenovaný_přechod_13"/><linearGradient id="Nepojmenovaný_přechod_13-3" x1="44.97" y1="11.14" x2="44.97" y2="45.77" xlink:href="#Nepojmenovaný_přechod_13"/><linearGradient id="Nepojmenovaný_přechod_13-4" x1="166.34" y1="11.14" x2="166.34" y2="45.77" xlink:href="#Nepojmenovaný_přechod_13"/><linearGradient id="Nepojmenovaný_přechod_13-5" x1="78.94" y1="11.14" x2="78.94" y2="45.77" xlink:href="#Nepojmenovaný_přechod_13"/><linearGradient id="Nepojmenovaný_přechod_13-6" x1="189.42" y1="11.06" x2="189.42" y2="45.69" xlink:href="#Nepojmenovaný_přechod_13"/><linearGradient id="Nepojmenovaný_přechod_13-7" x1="210.09" y1="11.06" x2="210.09" y2="45.69" xlink:href="#Nepojmenovaný_přechod_13"/></defs><title>icons_DC</title><g id="Vrstva_2" data-name="Vrstva 2"><g class="cls-2"><path class="cls-3" d="M-1551.74-235.82V-499.11H1372V1692.62H-1551.74V1468.18c2.86-3.15,5.44-6.61,9.13-8.89,2.76-1.7,6-3.82,8.83-1.22,9.76,9.12,20.18,4,30.19,1.44,5-1.27,9.53-2.39,14.4-.12,3,1.41,6.3,1.74,9.29.1,5.21-2.86,9.59-3,14.52,1.29s10.24,1.75,14.34-2.18c6.43-6.17,13.6-11.45,20.19-17.42,7.55-6.84,10.25-6.12,14.83,2.93,4,7.89,8.92,9.08,16.23,3.79,3.47-2.51,6.21-5.84,9.34-8.75,2.88-2.69,5.91-6,9.91-5.78,9.14.43,16.6-2.95,23.53-8.35,3.88-3,7-2.24,9.79,1.82,3.44,5,8.06,6.25,14,4.31,8.84-2.88,14,1.35,17.37,9.43,4.14,10.06,7.38,11.31,17.11,6.13,7.08-3.78,13.31-7.51,21.59-1.94,4.65,3.13,9.47-.74,13.37-4s7.86-6.11,11.78-9.18a19,19,0,0,1,5.46-2.73l1.5-.26,1.51.12c.48.15,1,.31,1.44.45.93.34,1.85.74,2.76,1.12,5.42,1.48,11,2.08,16,5.43,5.58,3.78,10.88,1.1,15.66-2.41,8.85-6.51,17.35-13.48,25.87-20.41,2.47-2,5-4,8.09-5,4.18-1.32,6.37-.11,4.83,4.63-1.09,3.33-3.5,6.48-2.28,10.14,2.22,6.69,7.52,6.75,13,5.21,5.17-1.42,7.6-.72,8.11,5.6.87,10.82,6.83,12.92,15.62,6.21,2.8-2.15,5-5.07,8.24-6.67a5.42,5.42,0,0,1,4.39.27c1.66,1.68,1,4,1.52,5.92,2.18,8.34,8.65,11,15.93,6.39,4.45-2.8,7.53-7.29,11.92-10.18.71-.52,1.46-1,2.21-1.44.34-.23.72-.45,1.06-.69.64-.48,1.31-1,2-1.44.28-.25.61-.49.9-.75.54-.52,1.12-1,1.69-1.51.26-.27.54-.51.81-.76.5-.53,1-1,1.57-1.51.25-.26.52-.49.77-.75.48-.52,1-1,1.52-1.49,0,0,.77-.72.75-.73a21.09,21.09,0,0,1,1.5-1.49s.76-.73.74-.75c.48-.53,1-1,1.5-1.51.25-.27.51-.51.76-.77.49-.55,1-1.06,1.53-1.59.26-.28.53-.53.78-.81.51-.59,1.05-1.14,1.59-1.7.27-.3.55-.58.82-.89.53-.64,1.1-1.24,1.67-1.85.29-.33.59-.62.87-1,2.93-2.82,5.51-6,8.83-8.41a6.7,6.7,0,0,1,2.73-.81c6.94,3,1.64,6.21-.29,8.58-4.88,6-11.22,10.64-15.7,17a26.31,26.31,0,0,1-1.61,2.3,27.42,27.42,0,0,0-3.66,5.84c-.34.9-.72,1.78-1.07,2.67-1.57,4.09-.84,8.19,2.1,10.9,4.81,4.44,8,9.79,11.34,15.25,3.8,6.16,12.56,6.19,19.75.33,6.61-5.38,12.19-11.92,18.33-17.84,14.11-13.59,32.53-11.58,42.9,4.61a86.46,86.46,0,0,0,9.3,11.64c6.14,6.72,16,4.33,25.66-5.71,6.24-6.57,13.17-8.85,22.14-5.27,7.77,3.11,15.53-.19,22.89-2.62,23.88-7.89,48.32-7.66,72.91-5.9,6.89,2.63,6,6.83,2.12,11.39-4.37,5.09-9.37,9.57-14,14.37-3,3-6.23,5.77-8.71,9.21-3.45,4.78-6.34,10.25-1.14,15.18,4.75,4.53,9.08.38,13.06-2.51,2.57-1.86,5.12-3.75,7.6-5.72a65.22,65.22,0,0,0,13.28-11c5.81-5.79,12.87-10.12,18.59-16a21.12,21.12,0,0,1,2.35-1.6,34.78,34.78,0,0,0,3.44-2.47c4-3.6,7.58-7.67,12.66-9.86a16.79,16.79,0,0,1,3-.93c5.32-.75,10.8-.29,16-2.12,19.48-1.08,38.93-2.51,58.35-4.18,2.52-.22,5.16-.24,7.31,1,7.09,4,13.74,1.75,20.4-1,7.63-3.15,15.46-5.25,23.8-5,4.87.16,8.61,1.59,11.31,6.37,5,9,8.14,9.59,16.91,4.7,3.09-1.73,5.92-3.93,9.16-5.43,11.89-4.91,9.09,6.09,12,11,3.68,6.93,9.18,7,15.48,4.17s11.75-6.73,17.38-10.51c2.33-1.57,5-3.44,7.74-1,2.27,2,1.25,4.7.23,7-7.38,16.41-5.12,30.46,9.8,41.64,4.38,3.28,5.32,8.19,5.7,13.32.46,6.3,2.79,11.53,10.09,11.35,6.76-.17,8.32,3.42,9.1,9.12,1.87,13.67,4,14.54,16.28,9.89,8.3-3.15,17-6.19,23.67,3.73,1.93,2.87,5.49,2.91,8.84,2.18,9.72-2.12,19.07-1.45,27.89,3.59,6,3.4,10.35.9,13.5-4.26,3.49-5.74,7.16-7.51,12.64-2.26,2.59,2.48,6.29,3.32,9.62,4.54,9.54,3.48,15.36,1.57,16.48-8.46,1.89-17,16.9-21.77,26.84-30.52,5.62-5,10.39-8.87,12.06-16.12.8-3.47,1.55-7,2.41-10.42,3.18-12.85,12.72-16.64,23.15-8.55,4.82,3.75,9,7.88,15.4,8.8,3.07.45,4.37,3.4,5.76,5.93,1.75,3.2,3.69,6.45,8,6a9.25,9.25,0,0,0,8.49-8.46c1.18-14.54,12.18-16.45,23-19,4.8,5.09,2.59,11.43,3,17.26.51,6.7-.69,13.47.86,20.1,7.19,10,11.58,9.77,18.12-1.24,2.51-8-.79-16.5,2.44-24.36a4,4,0,0,1,2.49-1.91c7.17,2.87,13.7,8.87,22.41,4.18,1.38-.74,3.38.68,4.89,1.64,9.19,5.87,18.24,9.58,27.93.52,3.34-3.12,4.91.17,5.53,3.19.91,4.42-1.38,8.29-2.38,12.38-1.24,5.11.09,9.41,5.17,11.39,5.58,2.16,8.45-1.57,10.8-5.93,3.79-7,2.09-15.49,5.92-22.51,3.12-4.3-1.11-13.93,5.91-13.59,5.13.25,2.93,9,3.38,14a14.87,14.87,0,0,0,4.34,9.3c5.83,7.33,12.35,7.32,19.56,2.07,3.44-2.52,7.08-4.78,10.49-7.34,6.57-5,12.75-7.51,19.65,0,4.22,4.56,10.54,3.85,16.19,3.59,22.75-1.06,45.35-4.07,67.89-7,60.79-8,121.72-12,183-10,4.19.3,8.41.12,12.6.5,3.24.29,7.39,1,8,4,2.44,11.42,13,16.93,18.12,26.23,7,7,17.6,9.62,21.82,20.37,1.91,4.85,9.72,2.64,12.5-3.08,2.32-4.77,1.78-10.44,4.61-15.08a4.94,4.94,0,0,1,4.3-1.09c4.61,2,6.33,6.44,8.84,10.2,6.47,9.73,11,10,18.62.88,1.59-1.89,3.17-3.79,4.82-5.62,2-2,2.44-4.78,3.28-7.35a5.51,5.51,0,0,1,1.81-2.11,6.49,6.49,0,0,1,2.83-.35,7.73,7.73,0,0,1,2.6,1.29,10.64,10.64,0,0,0,5.45,2.39c10.58-1.78,19.88-5.86,25.74-15.26,3.5-5.61,6.73-5.35,12.24-2.37,8.11,4.39,16.26,7.57,20.65,17,2.94,6.33,9.85,6.21,13.69-.19a44.72,44.72,0,0,1,22-19c7.84-3.34,7.29-11.52,6.53-18.78-2.2-21.15-.89-23.54,20.27-27.61,9.11-1.76,12.32-6.06,10.73-14.71-.92-5.06-1.13-10,2.33-14.28,4.78-5.89,5-12.33,2.69-19.16-2-6-2.43-11.69.74-17.56,3.54-6.53,1.94-13.54-.55-19.76-7.31-18.23.61-33.75,7.83-49.5.74-1.59,2.61-3.07,2.39-4.69-2.53-18.61,9.88-33.31,13-50.41a19.49,19.49,0,0,0-.13-8.5c-7.81-29.22-1.39-58.91-3.06-88.33-.17-3.21-.05-6.8,1.95-9.3,7.34-9.22,6.38-19.94,6.52-30.64.67-51-.58-102-3-152.85-3-61,3.95-120.92,10.56-181.09,1.41-12.75,1.19-25.61,2.83-38.36.84-6.51-1.5-12.22-8.77-13.95-6.7-1.58-8.14-6.5-7.9-12.16,1-23.92-2.34-47.69-2.27-71.57a50.18,50.18,0,0,0-5.08-22.64c-6.68-13.81-3.79-28.82-2.9-43.2,1.34-21.68,2.41-43.37,3.65-65a84.23,84.23,0,0,1,2.82-17.9c2.46-7.48,4.3-15,3.92-23a20.25,20.25,0,0,1,3.6-13.13c10.27-14.5,9.33-30,3.47-45.75-1.59-4.26-.92-7.85-.37-12.19,1.87-14.48,7.79-27.87,3.48-44-4.77-17.88-3.14-37.55-.14-56.28,1.3-8.12,2-14.77-7-18.75-5.09-2.25-5.27-7.32-5.14-12,.42-15.29.41-30.61.89-45.9.46-14.79-.88-29.83-1-44.77A58.19,58.19,0,0,1,453.14,154c2.28-7.86,4.39-8.54,11-3.32a70,70,0,0,1,9,9.15c1.91,2.18,3.92,4.58,7.22,3.15,3-1.3,3.5-4.27,3.77-7.18.23-2.51-.31-5-.46-7.46-1-17.23-1.8-34.58-3.38-51.65-1.25-13.58-4.76-26,2.45-39.08,2.55-4.62-.19-11.17-1.9-16.68-3.74-12-5.32-24.36-6.11-36.84a40.19,40.19,0,0,1,5.56-23.45c7.3-12.66,5.68-27,4.46-40.81-.73-8.17-1.73-16.3-1.49-24.51s-.44-16.37-5.78-23.37c-2-2.62-3.53-6.27-2.32-9,3.88-8.92.95-18.86,4.93-27.75a19.8,19.8,0,0,0,.47-15.65c-1.35-3.41-1.81-7.23,0-10.41,4.61-8,1.08-12.94-5-18.23-5.38-4.67-10.13-10-16.59-13.31s-12.67-5.13-20.34-2.57c-10.33,3.43-18.59-.21-24.83-9.13-2.94-4.19-6-7.87-11.58-8.51-4.08-.47-6.89-3.37-9.78-6.11-11.51-10.89-20.71-10.41-32.54.13-9.13,8.12-19.66,13.87-32.7,11.85-3-.46-5.48,1-8.2,1.84-6.68,2-11.41-2.66-9-9.2,3.15-8.54-.74-16.54-1.68-24.55-.78-6.59-15.7-7.16-19.56-.27-7,12.56-16.82,17.79-30.87,15.81-3.2-.45-5.44,1.17-6.75,4.13-.58,1.29-1,3.25-2.18,3.57-13.55,3.76-8.52,13.75-7,21.92,1.94,10.36-4.37,18.33-6.89,27.33-1.16,4.19-6.38,5.51-10.79,5.68-5.71.22-11.35,1.45-17.07,1.13-4.09-.23-7,1.4-8.32,5.24-3,9.22-10.28,11.13-18.65,10.94-7.81-.17-13.83,1.52-16.39,10.26-1.94,6.61-7.34,8.11-13.79,6.3-3.87-1.09-8.1-2.44-10.09-5.67-6-9.81-14-13.21-25.18-10.22-4.09,1.1-7.23-2-10-5.06-4.7-5.18-10.51-7.14-17.36-5-2.06.65-4.9,2.08-6.13.69-10.2-11.5-24.15-5.79-36-6.86C30.72-170.15,16-173,.72-169.91c-9.29,1.89-19.79.17-29.73-.34-6.5-.34-12.84-.18-18.89,2.47-4.86,2.13-9.44,1.61-14.48,0-14.32-4.63-20.43-2.49-29.89,9.37-4.17,5.22-9.48,7.74-16,5.73-6.23-1.91-6.78-7.68-7.49-13-.42-3.19.38-6.41.29-9.6-.11-4,3.09-9.56-2.1-11.54a25.74,25.74,0,0,0-19.84.62c-5.23,2.4-4.17,7.4-3.75,12.18,1.34,15.32-1.87,30.47-2.37,45.75-.22,6.77-4.46,11.34-12.24,9.93-5.78-1-11.28,1.12-17,1-7.93-.17-11.57-3.47-11.89-11.6-.54-13.89,3.11-27.53,1.63-41.53-.61-5.83-2.28-10.45-6.45-14-5.18-4.44-10.43-1.62-14.29,3.62-11.39,15.45-4.39,32.33-5.12,48.56-.59,13-3.73,16.15-16.07,14.72-9-1.06-11.88-4.93-12-14.23-.08-8.9.64-17.7,1.44-26.53.55-6.09-.32-11.79-8.25-12.3-7.3-.47-14.63-.8-17.38,8.37-1.35,4.52-1.11,9.17-1.41,13.79-.73,10.76-4.13,13.57-15.1,12.66-1.42-.12.33.13-1.05-.16-6.94-1.44-14.7,1.31-20.92-2.9-6.54-4.44-3.22-12.6-5.45-18.86-2.4-6.7-4.65-11.73-13.12-10.87s-12.65,4-13.1,13.26c-.61,12.74-9.91,21.14-22.68,20.39-16-.93-32,1.23-48-.29-5.14-.49-9.77.78-11.33,5.87-2.47,8-7.56,10.57-15.36,9.61-8.76-1.08-10.1-7.76-11.43-14.61-2.48-12.7-12.95-20.83-25-18.86-5.94,1-12.1,2.65-16.86,6.35-5.16,4-11.12,3.62-16.6,5.37-19.35,6.21-41.41,3.46-58.34,17.7-7.6,6.38-16.85,4.54-25.68,3.6-4.67-.5-5.78-4.69-7.51-8.21-3-6.05-8.91-8.08-13.07-3.61-8.25,8.86-20.19,6.92-29.56,12.27s-19.8,6.92-30.62,2.17c-5.58-2.44-8.83.33-10.44,6.72-3.64,14.41-11.67,17-24.63,9.58-6.23-3.55-12.45-6.22-15.38-13.76-1.88-4.84-7.55-3.19-11.57-3.24-6.42-.07-12.85,1.13-17.72-4.79-1.81-2.22-4.39-1.68-6.87-.57-14.9,6.65-28.88,6.58-43.14-3-12.2-8.22-27-8.13-41.31-8.69-5.33-.21-10.68.14-16,.11-8.51,0-15.65-1.35-18.05-11.14a6,6,0,0,0-5.16-4.86c-3.67-.3-4.79,2.78-5.64,5.43-2.38,7.49-7.9,9.41-15,9.25-5.35-.13-10.7-.06-16,0-6.74,0-12.05-1.59-12.85-9.55-.4-3.93-2.48-6.6-6.49-7.53-1-.24-2.46-.32-3-1.05-6.8-9.45-11.64-7.12-19.29.46-7.07,7-32.26-.9-37.11-10a13.31,13.31,0,0,0-6.82-6.38,14.89,14.89,0,0,1-8.06-8c-4.53-10-8.3-10.84-14.91-2.25s-14.89,12.52-25.59,12.95c-8.23.32-12.72-3.38-14.76-10.88a72.45,72.45,0,0,1-2.75-25.33c.83-10.14-6-16.62-16.2-16.44-13.62.23-17,2.66-19.64,18-1.57,9-5.54,14.53-14.51,15.83-4.47.65-7.17,2.56-8.12,7-1.17,5.55-4.4,8.71-10.41,8.71-5.21,0-8.75-1.83-10.55-7.09a12.89,12.89,0,0,0-15.59-8.47c-18.42,4.47-36.63-2.77-55,.34-6,1-9.25,2.06-10.14,8-1.07,7.2-5.43,8.66-12.29,8.3a311.66,311.66,0,0,0-42.67.66c-13.17,1.12-14.53-.09-19-12.58-4-11.16-13.25-17.56-24-20.88-6.08-1.88-11.72,1.4-16.06,6.34-9.52,10.84-20.84,13.13-33.14,6.33-5.66-3.13-10.52-6-15.81.75-3.13,4-8,1.42-12.17,1.62-5.81.27-11.43.11-11.6,8.69-.13,5.93-5.38,7.9-10.43,9.14-5.86,1.46-11.2-.3-14-5.31-4.09-7.35-10.38-9.94-17.93-11.82-12-3-16.79-9.88-16.71-22.4.08-12-.43-12.55-12.47-12.77-6.4-.12-12.9.48-18.81-2.86-5.31-3-9.29,2.84-14.25,2.21a12.44,12.44,0,0,1-3.09-.48c-5.22-2.48-9-6.73-12.18-11.27-5.22-7.51-10.81-8-17.46-2.23-1.73,1-3.42,2.29-5.57,1.07"/><path class="cls-4" d="M280.5,1504.57c-2.69,3.71-5.14,7.61-8.11,11.08-5.71,6.67-13.85,5.88-18.29-1.62-2.68-4.54-5.19-9.18-7.78-13.77-3.38-3.89-1.74-8.61-2.16-13,0-2,0-3.94,0-5.91,0,2,0,3.93,0,5.91-.36,4.44,1.05,9.12-2,13.13-.72,4.87-1.08,9.83-2.23,14.6-1.58,6.51-5.31,9.41-11,9.36s-9.45-3-10.43-8.56c-.91-5.14-2.89-8.45-8.6-8.84-4.24-.29-6.89-3.2-8.86-6.74a91.56,91.56,0,0,1-8.25-51.8c2.48-19.38,2.54-39.11,2.58-58.54.11-52.69,6.56-105,7.39-157.63.22-13.43,1.71-26.94,1.88-40.44a151.22,151.22,0,0,0-.51-18.31c1.33-4.76-.67-10.66,4.73-14,4.66,2.12,3.25,6.57,3.84,10.2,1.26,7.85,7.1,12.17,15.08,10.66,8.67-1.64,7.49-8.63,6.56-14.3-1.73-10.6-10.21-15-20-11.14-1.92.75-3.82,2.21-5.63-.2-2.25-4.65-1.31-9.12.66-13.55,2.65-4.62,1.84-9.71,1.92-14.65.12-6.76-.25-13.48,3.14-19.83,1.89-3.53,1.41-7.71.37-11.54-1.69-6.32-1.31-12.73-1.25-19.14.06-6,1.37-12,7-14.66,5.87-2.79,9.71,2.48,13.8,5.73,10.34,17.89,17.82,37.1,25.09,56.35,9.93,26.29,18.78,53,28.1,79.48a97.67,97.67,0,0,0,7.11,15.53c-12.79-28.17-21.39-58.63-32.24-88.25-11.15-30.42-25.35-59.6-36.24-90.12-5.58-15.65-13.18-30.75-13.69-47.88,2-22.2.49-44.44.77-66.66.09-6.48-3.47-7.75-9.08-5.94s-9.69,5.7-14.23,9c-7.48,1.3-7.6-5.57-10.17-9.48-2.08-3.16-3.77-6.7-3.79-10.7a8.14,8.14,0,0,1,.85-3.2c1.94-2.64,4.77-4.25,7.34-6.18,6.09-4.39,13.08-6.33,20.35-7.83,11.71-2.43,12.65-4.55,7.77-15.46-.65-1.44-.74-2.59.44-3.73,21.53-4.67,40.14-18,62.43-20.69,7.14-.84,12.34.36,14.12,7.48,7,27.87,21.21,53.41,25.72,82.09,2,12.69,4.69,25.18,0,37.79-9.16,17.58-15.86,36.62-31.43,50.35-7.8,6.88-17.17,11.42-24.94,18.19a9.1,9.1,0,0,0-1.29,5,17.47,17.47,0,0,0,1.13,5c.36.86.64,1.73.93,2.61.63,1.85,1.36,3.64,2.05,5.47,11.71,37,27.75,72.39,41.23,108.74,7.48,20.15,14.77,28.45,45.38,23.56,5.28-.84,10.49-1.86,16.73-6.4-8.13-1.08-14.95-1.84-21.07-.38-21,5-31.22-8.73-39.54-23.24-10.62-18.51-17.66-38.86-25.26-58.8-4.18-11-8.71-21.84-11.72-33.25a49.05,49.05,0,0,1-1.48-19c.09-.54.2-1.08.28-1.62a7.41,7.41,0,0,1,1.54-2.92,22.9,22.9,0,0,1,5.53-3.71c27-16.28,42.91-39.62,45.24-71.42,2.16-29.49-3.68-58-10.71-86.41-3.28-13.26-11-24.63-15.54-37.37-1.83-5.16-7-5.5-11.8-5.3-9.42.42-18.17,3.55-26.45,7.72s-17.29,6.55-26.13,9.16c-3.4,1-7.59,3.45-10.25-1.66,3.09-41.27,1.62-82.6,2.25-123.9.07-4.63-.07-9.26,0-13.87,2.6-6.12,7.5-4,11.74-2.93,8.68,2.12,16.67,6.08,24.58,10.17,5.7,2.93,11.51,5.64,17.83,7,10.76,2.26,14.91-1.44,13.31-12.28-2.65-17.93-5.83-35.78-9.65-53.5-1.5-7-2.56-14-3.82-21s2.05-9.17,8.54-7.16c3.9,1.2,7.37,4.91,11.9,1.81.9-.51,1.83-1,2.75-1.41s1.81-.93,2.73-1.35c1.8-.86,3.63-1.69,5.5-2.43,8.51-1.79,15.36-6.57,22.37-11.52,15.54-11,33.45-18.48,46.82-32.65,2.4-2.54,5.57-4.35,6.95-7.8,1.78-3.05,4.61-5,7.38-7,2.17-1.79,6-2.41,4.62-6.67a22.51,22.51,0,0,1-1.84-5.87c-1.86-19.84-6.35-39.23-9.93-58.76-2.88-15.68-7.15-31.13-7.61-47.2a14.11,14.11,0,0,0-2.27-8.09c-5-7-6.11-14.82-6.61-23.17-.85-14-4.75-17.18-18.55-17.53a90.24,90.24,0,0,0-30.47,4.5c-19.83,6.48-40.1,9.84-60.91,8.18-8.39-.67-16.52,3.44-24.85.54-3.79-10.89-.46-21.93.49-32.6,2.47-27.32,1-54.6,1.66-81.87-.56-5.29,3.6-7.18,6.94-9.78,24.18-18.81,51.33-33.4,75.34-52.36,20.8-16.44,38.26-36,50.48-59.95,9.77-19.13,10.49-38.55,4.34-58.94-5.52-18.32-11.79-36.51-10.52-56.31.57-9,3-16.44,10.44-21,26.41-16.21,40.36-20.6,61.58,1a20.59,20.59,0,0,1,2.82,4.18,12.3,12.3,0,0,1,1,3.25,14.86,14.86,0,0,1-.55,6.59c-7.37,9.19-9.59,9.19-14.1-1.45-3.46-8.18-9.57-9.3-16.55-7.3-7.35,2.1-9.23,8.34-8.5,15.36.8,7.62,5,11.48,12.85,11,1.41-.1-.36-.06,1.07,0,20.58.83,22.71,3.8,16.84,23.61a55.65,55.65,0,0,1-3.14,9.08c-4.62,9.29-5.62,18.32.37,25.49-4.79-7-4.57-15.71-.38-25,4.3-9.48,6.8-19.56,5.41-30.15-1.1-8.28,4-14.16,7.69-20.56,2.68-4.71,5.78-9.16,3-14.89-8.33-23.72-31.13-33-53.63-21.59C375.62,39.71,366.5,45.1,361.25,55c-9.76,16.34-14.08,33.6-9.5,52.57.73,3,1.72,6.14,1,9.37a5,5,0,0,1-3.08,3.59c-8.81-.11-15.91-5.67-24.3-7.46-23.78-5.08-54.48,18.77-54.8,43.14-.13,9.07,9.2,21.7,20.4,24.94,15.13,4.37,29.68,2,42.18-8.29,5.33-4.38,8.43-10.56,5.92-17.1-2.42-6.3-9.35-5.18-14.86-5.59-5.07-.37-9.86,1.17-14.58,2.8-1.28.5-2.58,1-3.85,1.49-.75.38-1.54.71-2.31,1.06s-1.43.79-2.13,1.21c-.33.24-.67.46-1,.7a22.8,22.8,0,0,1-2,1.4,19.22,19.22,0,0,1-2.13,1.18c-.71.42-1.44.8-2.16,1.2-.35.23-.71.43-1.07.67-.71.54-1.42,1.05-2.12,1.59-2.52,2.16-4.57,5.45-8.73,3.53-9.57-13.72-3-37.16,12.47-44.53,6.95-3.32,14.3-4.11,21.86-3.36,17.44,1.71,32.78,8,45.47,20.41,6.85,6.67,11,33.19,5.66,44.51-10.08,21.49-23.25,40.7-44,53.57-11.76,6.37-21.62,15.37-32.11,23.5-.7.71-1.44,1.37-2.18,2.05s-1.44,1.43-2.19,2.12c-14.33,12-27.51,25.47-43.62,35.2-3.74,2.26-8,7.34-12.48.57-6.28-29.79-6.69-59.72-2.23-89.77.36-2.46.7-4.91,1-7.38,1.05-8-2.55-11.22-10.34-10.36-8.44.94-16.85,2.56-25.42,1.86-13.14.35-26.28.52-39.4,0-10.46-.4-15.82-5.18-15.95-13.32-.13-7.65,4.61-12.56,14.6-13.79,12.36-1.52,24.81-.65,37.23-.56,7.43.06,14.89.9,22.23-1,19.67-2.67,19.69-2.67,19.66-23.28,0-7.06.13-14.12-.13-21.18-.18-5-2.64-7.85-7.77-8.13a71.91,71.91,0,0,1-17.68-3.15c-11.62-3-23.42-.44-35.1-1.14-5.32-.32-10.74.36-15.93-1.14-7.16-2.06-12.24-6.42-11.91-14.36.33-7.76,6.06-10.53,12.87-12,13.5-2.83,27,.29,40.46-.19,7.93-.1,15.43,2.57,23.21,3.54,7.46.94,11.75-1.75,11.65-9.73-.21-17.78,1.62-35.64-2.33-53.27a104.28,104.28,0,0,1-1.39-35.12c2.31-19.57,1.81-39.14,1.59-58.71-.19-17.52,2.17-34.81,3.1-52.22,2.23-6.59,1.52-13.43,1.65-20.2-.05-7.23,3-14.16,2.14-21.48.83-14.14,5.07-27.79,5.1-42.15,0-13.66,6.37-20.13,23.41-22.8,9.8-1.54,15.51-4.82,19.64-14a12.26,12.26,0,0,1,21.65-1.35,21.32,21.32,0,0,1,3.08,13.3c-2.48,19.26,1.81,38.92-3.07,54a96,96,0,0,1,8.47-25.41c5-9.75,10.23-12.25,20.76-10.17,2.45.48,5.27,2.07,7-.11,6.4-7.87,17.17-8.09,24.46-14.76,6.21-5.69,13.82-5.3,19.78,1.74a9.89,9.89,0,0,0,7.22,3.69c14.07,1.42,16.9,4.66,17.39,18.73a77.54,77.54,0,0,0,.6,9.89c7.31-14.89,22.09-8.69,33.21-12.82,5-1.86,10.86,2.57,13.09,8.68,1.33,3.65,3.17,5.47,7.56,6,11.9,1.45,15.93,9.26,14.76,21-3.48,35.19-6.4,70.46-5.11,105.9A9.19,9.19,0,0,0,479-59c8.21,8.29,10.07,14.07,4,23.22C474.48-23,474.2-9.34,473.79,5.07c-.7,24.28,1.14,48.51,3.21,72.51,1.64,19,4.49,38,6.24,57.07.94,10.29-2.83,21.23-8.24,21.09-9.79-.26-11.93-9-14.57-16.14a64.83,64.83,0,0,1-4.35-21.91c.7-6.62-1.71-13.1-.85-20,0-1.15-1.28.15-1.2.33,1.66,4,.8,8.5,2,12.68,1,27.43-4.54,54.54-3.33,82,1,23.41,0,46.88.18,70.33,0,3.83-1,8.16,2.44,11,8.12,6.7,8.5,15.49,8.41,25.12-.2,20.25-1.31,40.54.19,60.73.7,9.46-2.51,18.12-3.35,27.23-1.69,18,.53,36.2-3,54.09-2.88,14.61-3.28,29.56-5.49,44.27-3.21,15.45-2.63,31.23-3.89,46.84-1.79,22.37-2.09,44.86-3,67.3-.19,4.64-.27,8.91,3.72,12.74,4.64,4.47,4.68,11,4.87,17Q455,666.83,456,704.25c.1,3.53,0,7.07,0,11,5.32,1,10.74,0,14.13,4.63,3.22,4.38,2.9,9.37,2.66,14.38-1.52,31.35-5.53,62.44-9.21,93.57A697.94,697.94,0,0,0,459.45,943c.25,5.34.26,10.69.37,16q1.56,79.14,3.14,158.28c.15,7,0,13.6-6.83,17.89-3.29,2.07-2.46,5.63-2.41,8.78.19,12.84.53,25.67.59,38.51,0,7.08,1,14.26-1.88,21.14-1,2.37-.1,4.9.42,7.36,1.53,7.32,2.84,14.69,4.42,22,1.24,5.78,1.45,11.32-2.37,16.33-1.09,1.43-2.16,2.91-1.82,4.84,1.28,7.17-1.06,12.46-7.63,16-2.69,1.46-2,4.34-1.26,6.76a49.53,49.53,0,0,1,1.61,12.7c.09,4.15-.91,8.09-4.63,10.21-4.05,2.31-5.18,5.33-4.58,9.7.66,4.81-.19,9.47-4.23,12.59-3.65,2.82-2.85,6.09-1.92,9.59,1.82,6.89,3.7,13.76,5.42,20.67,1.59,6.37,2.6,12.73-2.92,18-2.13,2-2,4.25-1.12,6.84,1.16,3.36,1.91,6.86,3,10.25,2.29,7.1,1.78,13.42-4.9,18-2.45,1.68-2.91,3.7-2.15,6.46a56.37,56.37,0,0,1,2,9.4c.89,8.8-4.38,14.46-13.26,13.58-3.23-.32-5.28-.19-7.34,2.39-3.49,4.38-8.31,5-14.46,3.45.83,5.17,1.6,9.63,2.25,14.09a85.43,85.43,0,0,1,1.15,9.53c.41,12-3,17.57-14.58,20.17-5.69,1.28-8.62,3.73-10.64,8.65a37.41,37.41,0,0,1-4.25,7.41c-5.79,8.14-14.78,7.75-19.83-.94a49.1,49.1,0,0,1-3.2-7.9c-1-2.64-2.59-3.6-5.53-3.92-8.34-.91-8.32-1.14-13.76-8.06-3.47.19-3.07,3.48-4.12,5.45-2.07,3.86-4.31,7.52-8.54,9.18-4,1.56-7.75,3.14-11.14,6-4.08,3.46-8.7,2.11-12.95-.39-1.77-.68-1.21-3-2.74-3.86l0-.06A10.31,10.31,0,0,1,284,1489c-.53,2.69,1,5.29-1.44,7h0c-2.27,2.49.22,6.14-2.1,8.62"/><path class="cls-5" d="M458,117.48c1.6,6.93,2.86,14,4.91,20.77s5.27,13,12.17,17.26c6.76-9,7.21-18.94,6-28.87C477.66,99.8,473.83,73,472,46c-1.44-21-.85-42-.86-63.07,0-4.5,2.28-8.16,4.5-11.82s4.82-7.11,6.7-10.93c4.15-8.36,2.5-13.1-6.06-16.61-3.24-1.33-4.3-2.83-4.18-6.23,1.23-35.61,3-71.18,6.41-106.65.1-1.07.37-2.11.45-3.18,1.13-14.92-5.86-20.36-19.95-15.46-2.08-2.7-1.26-6.16-2.36-9.15-2.82-7.7-8.39-10.3-15.91-6.94-2.22,1-4,3.08-6.81,2-9.63-3.56-14.54,2.28-18.82,9.45-1.26,2.11-1.6,4.77-3.85,6.32-3.35-.71-1.69-3.38-1.78-5.08-.24-4.61,0-9.26-.08-13.89-.4-14.28-6.62-18.34-20-13.06-2.48-.82-1.91-3.47-2.95-5.17-4.85-7.95-13.28-9.13-19.36-1.9-3.58,4.27-6.46,7.41-12.87,7.27s-8.37,6.81-11.18,10.92c-2.45.84-3-.86-4-1.65-7.8-6-14.37-5-19.5,3.44-3.36,5.48-5.4,11.59-7.16,17.78-2.1,7.38-4.32,14.73-8.06,21.77.92-21.23,1.74-42.47,2.83-63.69a36.72,36.72,0,0,0-.65-10.58c-1.2-5-4.23-8.22-9.52-8.65s-9.2,2-11.11,6.67c-2,4.88-3.17,10.08-5,16.08-9.51-6.3-17.8.41-26.52,1.9-4.78.82-7,5.48-8.34,10.24-2.71,9.36-1.94,19.11-3.58,28.59-1.16,6.65-1.77,13.4-2.63,20.1-3,3.2,1.68,8.69-3.39,11.26-3-.88-4-3.83-5.78-5.9-2.21-2.52-5-4.8-8.23-3.44-10.55,4.48-24.21,5.63-24.83,21.62a9.41,9.41,0,0,1-1.48,3.94,7,7,0,0,1-2.33,2,14.45,14.45,0,0,1-6,1.45c-8.61-3.72-16.09-4.17-22,5.17-2.52,3.95-8.45,6-12.47,4.3-9.28-3.86-21-3.24-26.62-14.61-3.45-7-9.5-7.09-14.84-1.61-6,6.19-8.57,3.24-11-3.14C96.26-156,91.66-156.94,83-147.32c-4.39,4.89-6.21,3.58-9.3-1.1-6.75-10.26-8.61-10.38-18.25-3.16a14.1,14.1,0,0,1-2.55,1.79c-.49.2-1,.37-1.48.57l-1.58.13-1.56-.25a25,25,0,0,1-3-.91c-9.47-2.53-16.68-9.18-24.94-13.9-9.4-5.37-13.57-4.64-18.15,5.38-4.47,9.78-6.45,20.28-8.1,30.83-.45,2.84-1,5.64-3.38,7.6a3.74,3.74,0,0,1-3,.45c-4.8-5.52-4.54-12.47-5.22-19.09-.45-4.25-.57-8.47-2.52-12.43C-26.3-164.1-35.38-165.54-45-155.2c-2.18,2.34-4.08,4.93-6.67,6.87-6.91,5.15-9.4,4.57-13.6-3.23-4.93-9.13-11.8-10.62-16.93-2.24-6,9.86-17.65,12.74-24,22.2-3.53,5.25-11.86,1.65-13.57-5.36-1.26-5.22-.48-10.64-.79-16-.11-5.29.43-10.62-.48-15.87-.76-4.34-2.24-8.72-7.41-9-5.69-.32-7.71,4.11-8.92,8.8a43.34,43.34,0,0,0-.87,12.65,140.55,140.55,0,0,1-3.17,33.67c-1.49,5.16-3.95,9.17-10.28,8-6.75-1.25-12,1.49-17.51,5.14-5.19,3.44-10.62,8.87-17.94,4-3.66-10.42-2.23-21.07-1-31.61.91-7.81,1.57-15.58.58-23.38-.51-4.09-2.25-7.89-6.79-8.48-4.82-.62-6.72,3.21-8.18,7-2.09,5.43-2.05,11.17-1.92,16.86.34,14.62-1.52,29-3.57,43.46-8,7.21-13.1,7.23-17.51-1.2-3.25-6.21-8.09-9.5-14.05-12-4.19-5.28-2.6-11.36-2.33-17.25.06-1.4.47-2.77.66-4.17,1.51-10.8-1.22-18.34-7.28-18.37-9.57,0-8.8,8.3-10.51,14.45-1,3.06-1.13,6.31-1.87,9.41-2.07,8.69-9,12.39-16.94,8.41A45.64,45.64,0,0,0-296.25-127c-10.63-.62-14.95-5.27-15.88-16-.47-5.42-.63-11.47-7.76-12.07-6.88-.58-8.62,5.09-10.19,10.35-.91,3.08-1.4,6.26-2,9.4-1.44,7.21-3.89,11-12.16,6.36-7-3.88-11.21.83-14.14,7-4.94,10.32-5,10.33-14.32,4.85-2.25-1.32-4.71-2.47-7.08-1.52-6,2.41-9.95-.32-14.14-4.29s-9.21-3.77-12.9,1.21c-2.77,3.74-5.95,5.85-10.76,5.6-8-.43-9.67,7.51-14.48,11.33-3.41.37-4.56-2.17-5.86-4.52.23-15.56-11.24-24.25-20.4-34.16-4.53-4.91-9.74-3-13,4.1-6.37,13.84-9.62,14.9-22.87,7.46-7.44-4.19-12.38-2.47-16.13,5.53-2,4.15-1.92,9.07-5,12.77-5.46.51-4.4-4.88-6.63-7.29-7.18-8.28-8.79-8.42-15.59-.9-2.15,2.39-4.06,5.92-7.67,4.55-7.94-3-12.84.79-17.4,6.4-2.55,3.15-6.36,4.5-9.86,6.22-9.12,4.49-11.08,3.7-15.15-5.87-5.27-12.37-6.74-12.94-17.17-5.25-3,2.25-5.57,2.86-8.63.74-8.71-6-14.11-1.27-18,6.06-2.86,5.41-5.67,7.52-11.59,4.08-6.47-3.77-13.38-.32-18.24,2.66-11.09,6.81-23.49,13.27-25.46,28.68-.62,4.82-.79,10-4.81,13.77-4.88-1-4.22-5.56-5.71-8.74-1-3.78-1-7.7-1.42-11.56-1.22-10.66-4-17.84-16.55-22.35-9.38-3.39-20.74-4.38-28.92-13-5.21-5.51-21.28.46-29.88,8.86a6.35,6.35,0,0,1-4.53.43c-2.89-1.18-4-3.89-5.44-6.33-1.1-1.87-2.74-4.77-4.26-4.47-12,2.38-22-9.18-34.15-4.67-4.33,1.61-9.26.85-13.4,3.32a15.93,15.93,0,0,1-2.89,1.14l-1.57.16a19,19,0,0,1-4.6-.93c-2.07-.56-4.19-1.62-6.25-1.21-9.34,1.86-15.14-1-16.75-11.06-.62-3.89-3.63-6.05-7.77-5.91s-6.45,2.72-7.85,6.25c-2.58,6.46-2.19,14.22-9,18.83-1.82,1.24-.13,3.2,1,4.55,2.38,2.89,4,6.23,3,9.87-2.6,9.33,3.16,11.18,10.23,12,4.24.5,8.53.73,12.53,2.42,9.84,4.17,11.09,13.21,2.75,20-5.36,4.38-11.68,5-18.21,4.34-9.39-.91-18-4.29-26-9.18-3.06-1.86-6.06-4-9.87-2-2.17,1.17-4.91,2.14-5.17,4.93-.23,2.42,2.19,3.42,3.94,4.59,2.36,1.58,4.93,2.86,7.22,4.57,5.11,3.84,7.28,8.86,5,15-2.12,5.73-7,7.66-12.77,7.86-6.41.23-11.73-2.42-16.81-5.93-5.57-3.85-10.62-8.43-16.38-12-4.29-2.64-9.65-2.8-12.8,1-3.47,4.15,1.86,6.7,4.05,9.57,1.5,2,3.46,3.59,5,5.54,3.43,4.34,4.41,9,1.23,13.81-3.43,5.18-8.18,8-14.59,6.26-8-2.15-13.47-7.43-18-14.23-3.66-5.5-6.32-11.75-11.66-17.85-2.33,7.43.22,13.22.53,19,.17,3.18,1.26,6.29,1.11,9.53-.31,7.19-3.74,12.56-10.7,14.26-7.59,1.85-12-3.12-14.81-9.39-3-6.6-2.84-13.91-4.09-20.9-1-5.85-2.25-11.15-10.09-11.35-6.78-.18-11.72,1.19-14,8.48a66.78,66.78,0,0,1-8.6,17.15c-4.29,6.72-9.88,10.83-17.79,6.36-7.53-4.25-7.64-11.33-5.36-18.75.74-2.39,2-4.58,2.84-6.91,1.75-4.77,7.35-9.67,2.94-14.61-4.75-5.3-11.31-8.77-19.15-5.5l-.33.22a55.89,55.89,0,0,0-8.23,8.19c-3.65,4.35-7.23,8.77-11,13a37.91,37.91,0,0,1-6.2,5.82c-5.75,4.08-11.64,3.69-15.37-.68-3.36-3.94-3.31-9.65.88-14.59,6.88-8.13,14.13-16,21.24-23.9,1.39-1.55,2.84-3,4.85-5.2-5.19-4.29-10.2-8.06-14.74-12.33s-8.93-9.15-13.21-13.91a45.65,45.65,0,0,1-6.44-8.42c-3.37-6.19-1.82-12.81,3.23-16.08,5.28-3.41,10.72-2,15.42,4.51,7.81,10.72,16.84,20.15,28,27.43,8.49.13,14.63,5.41,21.27,9.62a52.7,52.7,0,0,0,12.35,5.48c13,5.49,26.1,7.31,40.53,6.18,20.55-1.62,41.15-1.21,61.54-5.67,19.7-4.31,34.75-16,49.59-28.25,6.45-5.32,5.3-12.92,2.16-19.71-2.67-5.78-7.57-7.11-13.44-4.56-4.53,2-6.54-.55-7.88-4.39-1.18-3.37-1.56-7-2.87-10.29-2.38-6-6.26-7.81-12.7-5.5-12.45,4.46-22.46,10.61-23.35,25.59-.18,3-.55,7.15-4.29,7.88s-6.35-2.58-8.66-5.28c-4.34-5.07-3.85-11.31-3.73-17.33.19-9.27-.73-17.37-12.75-18.12-4.09-.26-5.58-3.95-7.08-7.25s-3.8-6.22-8-5.77-5.85,3.57-7.32,7c-6.31,14.55-6.31,14.47-21.72,10.83a36.07,36.07,0,0,1-10.68-4.73c-7.7-2.44-10-8.06-9.69-15.63a97.8,97.8,0,0,0-1.92-25.41c-1-4.71-2.91-8.73-6.94-11.53-3.56-2.49-7.35-4.83-11.82-3-4.7,1.92-5,6.48-5.32,10.77-.35,5,.31,10-.55,14.88-.61,3.51-.5,8.48-6.72,6.48-7.46-1.52-12.12,1.49-15.21,8.4-2.38,5.34-6.37,6.76-12,5.48-1.37-.31-2.85-1.57-4-1.27-8.55,2.19-15.56,1.42-21.28-6.73-2.25-3.2-7.39-1.63-10.77.91-6.88,5.15-13.75,7.54-22.09,2.73-5.64-3.26-10.16.41-14.62,4.79-3.16-6.6-4.51-15.54-14.37-14.17-10.22,1.43-9.45,11.06-11.34,17.07-1.31,1.63-1.82,1.53-2.56.95-11.13-8.69-18.61-6.11-22.28,7.69-.55,2.06-1,4.17-1.44,6.25-5.68.64-1.66-5.16-4.33-6.52-.56-1.65-1-3.37-1.7-5-2.1-4.71-5.83-6.9-10.94-6.38s-8.51,3.72-9.32,8.61c-.94,5.68-3.32,10.64-5.9,15.6-2.84,4.76.45,10.34-2,15.15a3,3,0,0,1-.19,2,3,3,0,0,1-4.33.06,3,3,0,0,1-.14-1.92c-2.34-6.36.84-13.23-1.83-19.55-.94-6.35-4.48-11.65-6.77-17.33-3.07-7.58-8.08-13.71-11.4-20.91-3-6.45-6.68-9.2-11.84-8.63-6.09.67-9.45,4.7-10.84,10.18-1.65,6.49-2.69,13.13-4,19.71-3.7,1.12-3.85-2.36-4.7-4.13-3.65-7.6-9.23-9.63-16.91-6.72h0c-2.92,2.15-5.85,4.22-8.83.09-1.68-3.86-2.27-8.29-6.14-11-2.48-1.71-6.09-3.47-7.91-1.85-7.33,6.52-17.88-2.52-24.53,5.58-3.12,3.79-3.76,8.37-3.89,13.05-.16,6.08,0,12-6.57,15.67-2.78,1.56-3.37,5.3-4.22,8.41-3,2.12,1.7,8-4.29,8.62q-.69-5.83-1.39-11.68c-.81-6.61-3.5-11.68-10.82-12.59-2.78-.34-4.06-1.61-5.4-4.16-6.13-11.67-11-12.3-21.21-3.39-.4.35-1.19.27-3.06.65,0-6.51-.47-12.86.1-19.11,1-11-7-18.14-11-27-.85-1.9-3.76-3.71-5.32-3-9.8,4.37-17.07-12.16-27.18-3.1-4.65,3.25-2.73,8.7-4.33,13-.1,2.75-.18,5.51-.27,8.26-4.66-.18-3.12-3.85-3.06-6.12.2-6.5-1.12-13.08.82-19.51,2.5-.06,5,0,7.09-1.79,3.83-3.24,7.49-3,11.66-.21,5.79,3.84,12.51,1.7,18.8,1.87,13.18.34,15.55,2.47,12.66,15-1.24,5.41,2.34,8.7,3.15,13.07,1,5.54,4.87,6.09,9.49,6.46,4,.32,7.3,3.29,12,2.61,3.47-.5,5.2,3.8,6.79,7.21,4.35,9.3,8.74,10.71,17.87,7.19,4-1.52,5.42-3.42,4.82-7.95-1-7.64-.19-8.11,7.38-8.4,3.52-.13,7.11-1.85,10.52-.45,4.78,2,7.34.78,8.63-4.24s4.5-4.77,8.24-2.65c1.87,1.06,4.24,1.56,5.63,3,7.9,8.28,17.12,4.53,26.07,3.16,2.79-.42,3.66-2.75,4.88-5.06,5.93-11.21,19.44-13.56,29.16-5.41,1.89,1.58,4.46,2.39,6.21,4.07,5.65,5.41,13.48,9.3,11.9,19.55-.76,4.92,3.39,6.6,7.86,6.38,8.35-.42,16.68-1.27,25-1.38,9-.12,18.13-1.17,27.16.47,6.11,1.11,7.88,0,7.47-6.31-.27-4.11,1.17-6.81,3.63-9.48,3.07-3.33,6.2-2.66,9.43-.12,1.29,1,2.56.35,3.89-.37,6.83-3.66,13.71-2.33,20.61-.09,4.67,1.52,9.14,1,14.09.57,8.94-.72,18.34-4.65,27.79.87,4,2.34,7.39,3.13,7,8.51-.32,4.33,2.64,5.42,6.29,5.18,3.31-.23,7.42,1.26,8.51-4,.79-3.79,2-7.51,3-11.28,3.68-.37,7.07.49,10.61-.85,7.57-2.85,9-3.89,8.68-12.05a10,10,0,0,1,2-6.91c3-3.68,5.14-7.1,4-12.33-.68-3.15,2.27-4.22,5.06-3.18a20.71,20.71,0,0,0,14.59.09c5.89-2,10.32,2.5,12.53,6,2.63,4.23,6.72,8.68,4.29,15.5-3.08,8.63,1.68,17.29,2.75,26,.5,4.1,6.1,6.46,10.78,5.89,2.82-.34,5.66-.49,8.49-.69,4.85-.33,8.87-2,11.75-6.23,2-2.92,4.77-5.3,6.77-8.21,2.46-3.57,5-5.68,9.72-4.08,4.36,1.49,7.85,3.09,7.16,8.73-.77,6.34,4.21,7.48,8.69,8.8,4.16,1.23,7.91,1.74,6.81,8.27-.79,4.66,3.56,7.42,8.41,7.66,6.73.33,13.44-.29,20.1,1.88,3.86,1.26,6.75-1.65,8.58-4.94,1-1.84,1.32-4.08,2.32-5.93,2.51-4.63,6.52-5,8.63-.13,2.64,6.06,5.39,10,12.93,9.75,4.44-.17,5.05,4.44,4.76,8.15-.6,7.51,1.63,8.63,8.65,8.45,6.77-.18,13.57-.28,20.33,0,5.13.24,8.42-1.74,9.21-6.71s2.18-9.25,7.7-10.14c3.73-.6,8.68,4.77,9.68,11.06.95,6,3.63,6.84,9.45,6.74,17.39-.3,34.93-.43,52,3.6,6.18,1.46,12.41,4.12,16.77,8.9,2.84,3.13,5.74,3.68,9.38,3.62,4.64-.07,9.28,0,13.92,0,4.26,0,7.92-.1,11.44-3.92,4.12-4.5,7.81-3.55,11.59,2.11,2.43,3.66,5.31,4.45,9.1,3.35,2-.59,4.31-2.18,6.12-1,4.27,2.86,8.62-1.4,12.31.3,4.13,1.91,1.3,7.24,3.59,10.6,1.57,2.31,3.62,3.1,5.89,4.12,2.9,1.31,6.1,1.65,8.82,3.67,2.33,1.73,3.19,7.65,6.77,5,4.43-3.33,11.78-4.88,11.33-12.78a15.29,15.29,0,0,1,0-2.14c.71-9.09,2-10.07,11.45-7.93,4.41,1,9.35.34,13,4.09.59.6,2.41.95,3,.52,7.09-5.46,17.16-3.88,23.78-10,2.49-2.28,5.09-3,7.73-2.15,4.38,1.38,7.46,1.24,9.22-3.69,2.24-6.3,7.75-5,12.66-5.14a7.61,7.61,0,0,1,8.06,7.11c.85,7.33,5.26,7.2,11,8.13,11.38,1.85,19.76-4.21,27.82-9.71,7.86-5.37,16-7.25,25-7.64,6.69-.3,13.47.93,18.83-5,2.33-2.6,6-1.31,9.07-.1,2.78,1.09,6.61,1.68,7.84-1,4-8.79,13.38-6.94,19.95-10.34,6.86-3.54,14.29.89,21.17,3.93,7.89,3.48,8.83,10.07,9.34,17.45.72,10.22,4.48,13,14.33,12.27,4-.3,5.18-2,6-5.79,1.76-8.54,7-11.74,15.27-10.17,7.07,1.36,14,.77,21.16,0a103.67,103.67,0,0,1,22.74.53c14.88,1.7,23.83-5.67,24.16-20.65.22-10.07.28-9.77,10.94-11.86,3.33-.65,6.2-2.31,10-1.53,5.5,1.12,9,2.85,9.3,9.39.25,6.17,5.2,11.64,2.78,18.51-.78,2.22,1.84,3.85,4,4.09,8.09.91,16.26-.16,24.39,1.84,4.18,1,6.77-2.89,7.06-8.52.34-6.36-.55-12.72,1.82-19,2-5.35,5-8.44,10.88-8.27,2.5.08,5,0,7.49,0,10.43.1,14.85,3.36,13,13-2,10.43-.77,20.91-2.71,31.2-.82,4.33,1.59,7.08,5,8.4,4.72,1.83,9.85,1.08,14.79.47,2.6-.32,3.25-2.59,3.15-4.83-.4-9.22.91-18.42-1.1-27.68-1.79-8.28-3.25-17.06,5-23.51,2.09-1.64,2.42-4,2-6.75-.9-6.36-.7-6.39,6.34-5.8.36,0,.8.27,1,.13,9.86-5.21,12.17,4.41,17.11,8.75a6.09,6.09,0,0,1,1.62,6c-2.16,10.4,2.2,21.12-1.82,31.5-1.08,2.8-.21,6.36-.2,9.57,0,13.59.94,14.31,14.67,13.09,3.48-.31,6.48-2.3,10.39-1.48,8,1.68,9.67.24,11.05-7.8a45.51,45.51,0,0,0,.27-6.41c.23-8.14-.24-16.24,1.75-24.4,1.3-5.32.63-11.16-1-16.87-2.08-7.32,2-12.77,9.57-13.49,6-.58,12.12-.07,18.18-.21,5-.11,6.66,3,5.47,6.87-1.28,4.2-.52,8.43-1.51,12.57a15.11,15.11,0,0,0,0,7.41c1,3.51.68,8.32,5.62,9.33s9.26,0,12.39-4.29c1-1.41,2.69-3,2.67-4.45-.08-8.43,6.87-9.31,11.84-9.11,7.38.3,15.59-2.34,22.21,3.42,2.4,2.09,4.59.74,6.9-.28,6.53-2.88,12.93-5,20.55-3.59,9.55,1.72,19.52-2.51,29.18,1.23a6,6,0,0,0,4.19-.31c9.69-4.49,19.27-1.51,29-.21,6.48.86,13.1-.91,19.79.5,6,1.27,12.23,3.3,18.39-1.11,3.15-2.25,5.63.71,7.59,3.68,4.41,6.68,4.55,6.58,10.47,2.26.81-.59,2.26-1.75,2.43-1.58,4.66,4.29,12.94,1.89,16.15,8.4,2.53,5.11,6,6.8,11.25,4.64,3.8-1.57,7.72-1,11.62-1.11s6.57,1.3,7.84,5.58c2.57,8.63,9.87,11.36,17.78,12.73,5.59,1,5.87-4.11,7.45-7.38,1.19-2.48-.67-6.64,2.28-7.78,3.86-1.5,7.9-3.44,12.3-2.95a63.75,63.75,0,0,0,7.31.22c6.71,0,10.26-2.55,12.07-9.29,2.13-7.94,2.69-7.19,10.91-6.79a95.15,95.15,0,0,0,20.8-1.66c4.26-.75,8.24-3.22,6.24-9-.93-2.66-.73-5.17,1.62-6.7,5.4-3.52,4.86-8.67,3-13.26-2.09-5.26,1.31-11.65-4.71-16.42-2.27-1.81,1.83-5.89,5.38-5.66,6.26.4,9.2-1.63,9.28-8.25,0-3.23,2.63-4.68,6.22-3.67a55.56,55.56,0,0,0,7.35,1c10.67,1.48,17.55-3.41,22.37-12.62,4.65-8.86,7.54-9.9,17.2-7.69,11.3,2.57,11.8,2.64,10.23,13.58-1,7.14,2.22,12.3,5.39,17.85-1.64,2.95-4.76-1.71-6.34,1.22-1.23,2.3-.09,4.08,1.37,5.75,2,2.26,4,3,6,0,2.76-4.29,7.07-4.11,10.3-2,3.77,2.5,6.45,1.49,9.78-.15,4.44-2.19,8.59-5.15,13.81-5.48,1-.06,2.67-.68,2.77-1.25,1.87-11,14.14-7.57,19.26-14,1.21-1.52,3.26-1.21,4.92-.22,5.38,3.21,12.2,4.21,15.45,10.73,1.45,2.91,4.16,5.37,7.7,4.88,7.73-1.06,10.42,5,13.93,9.58,1.83,2.4,1.52,7.1,5.38,7.18,5,.11,9.33,2.93,14.61,1.9,4.26-.83,7.19-5.56,12.59-3.25,9.45,4.06,19.15,7.55,25.71,16.06,1.31,1.69,2.37,3.4,4.23,4.66,7.75,5.26,9.19,9.72,4.73,17.37-2.05,3.5-3.14,7.08-1,9.91,5.4,7.12.9,13.36-.78,19.88-.25.95-1.42,1.62-1.82,2.56-2.12,5,4.81,9.91,2.29,12.81-3.24,3.72-5.59,6.57-5.08,11.62.28,2.71,1.6,4.46,3.16,6.48,2.83,3.66,5.65,7.72,5.35,12.54-1.2,19.27,3.47,38.3,2.16,57.52-.58,8.36-1.48,16.46-7.27,23.81-6.42,8.17-3.66,18.57-2.56,28,1.33,11.23,4,22.24,7,33.24,2.2,8.15,3.44,17.74-5.18,24.59-3.15,2.5-3.93,6.86-1.14,9.57,7.39,7.19,5.35,15.89,4.28,24.1-.53,4.08-1,7.52,1,11.18.83,1.51,1.88,3.59,1.45,5-3.31,10.74.72,21,1.95,31.37.5,4.23-1,7.77-2.08,11.36-1.29,4.39-10.12,4.91-12.42,1-3.87-6.55-9.76-11-15.75-16.72-2.67,9-3.88,17.19-3.39,25.63.75,13.1-1.55,26.31,1.83,39.37,1.06,4.07-2,8.11-1.92,12.53.29,12.48.17,25,.06,37.45,0,4.61.42,7.56,6.21,9.1,7.25,1.92,10.43,8.07,7.34,15.93-4,10.22-2.25,20.39-2.75,30.58-.33,6.77-.09,13.56-.05,20.34,0,4.94.31,9.51,2.77,14.35,3.46,6.77,1.29,14.67,1.16,22.1,0,2-2.06,2.6-3.63,3.47-2.31,1.28-2.74,3.35-1,5.29,3.49,4,4.39,6.95-1.35,10-3.53,1.88-2.3,5.35-.53,8.36,8.64,14.58,7.07,36.8-3.78,50.16-2.6,3.21-2.16,6.65-2.16,10.13,0,7.82.1,15.61-4,22.67-.82-16.43,1.84-32.68,2.72-49,1.31-24.52,3.59-49,5.59-73.49a554.37,554.37,0,0,0,1.82-60.86c-.26-9.17.53-18.74-8.83-24.9-2.66-1.75-1.65-5.27-1.61-8,.79-53.44-1.39-106.92,2.18-160.32,6,.69,1.33,6.4,4.08,8.62"/><path class="cls-6" d="M137,259c-29.24-.25-58.49-.37-87.72-.79-13.9-.2-27.79-.94-41.68-1.52-2.84-.12-5.86-.09-8.46-1-11.61-4.25-23.15-2.24-34.81-.38-6.67,1.07-13.44,2.33-20.15,2.2-25-.47-49.62,5.61-74.64,3.34-3.62-4.16-3.52-9.29-3.15-14.18,2-26.5,3-53.07,5.3-79.55a7.53,7.53,0,0,1,2.18-3.13,9.19,9.19,0,0,1,5.47-.1c18.25,7,37.12,9.14,56.63,8.67,12.71-.3,25.3,2,38.23.05,30.85-4.71,58-17,80.63-38.25,14.51-13.62,14.77-33.26,1.28-47.63-8.33-8.87-13.34-20.15-22.5-28.42C3.41,31-31.79,27.63-69.46,36.33a282.87,282.87,0,0,0-38.79,12c-4.26,1.66-9.45,4.73-13.37-1.27-2.93-15.77-5-31.56-2.28-47.59A36.9,36.9,0,0,0-123.21-8c-.92-35.5,3.55-70.88,2.37-106.4-.27-8.19-1.77-16.25-1.93-24.39-.09-4.93-1.68-10.87,4.93-13.56,1.46,4.9.55,9.91.61,14.86,0,4.28,2.88,5.23,6,6.18,3.35,1,4.4-1.25,5.3-3.7,2.29-6.15,6.07-10.4,13.16-10.64,2.46-.08,3.72-1.79,4.58-3.86a29.62,29.62,0,0,1,2-4.91c3-4.57,6.4-8.93,12.66-8.2,6,.7,9.33,4.71,10.9,10.31.48,1.7.79,3.44,1.37,6,5.37-2.5,10.13-4.74,13.28-9.77a26.64,26.64,0,0,1,6.46-7,13.71,13.71,0,0,1,19.06,2.52c4.86,6.21,8.57,12.75,8.3,21.35-.21,6.45-1,13.49,3.65,19.22.08,1.08.17,2.37-.66,3C-22.66-108.06-19.85-97.58-15-86.4-6.29-66.44.54-45.78,6.64-24.89c3.63,12.37,8.92,16.44,21.94,14.76a219.5,219.5,0,0,1,29.86-1.71c7.72.06,14.68-2.59,21.46-5.93,6.09-3,12.29-5.57,19.1-6.68,11.66-1.9,14.81-5.1,13.55-17.24-1.87-18.07-6.19-35.8-10-53.54-2-9-3.93-18.14-6.64-27-3-9.74-8-12.87-17.81-10-11.47,3.42-23,4.48-34.84,4.25-11.67-.23-22.28,4.45-33.19,7.76-6.72,2.05-13.57,5-20.4.13,3-11.23,3.72-23,7.71-34,1.45-4,2.75-8.09,5.14-11.59,4.5-6.55,11.44-7.62,17.29-2.84A96.66,96.66,0,0,0,47.2-152.3a6.94,6.94,0,0,0,2.35,1.89l0,0c.57.87,1.16.89,1.77.05v0a4.06,4.06,0,0,0,2-2.26c9.56-11,17.25-10,22.83,3,.55,1.28,1,2.61,1.83,5,4.18-7,7.49-14.3,16.89-12.1,9.23,2.17,7.65,10.79,9.69,17.18,3.31.53,3.36-2.35,4.57-3.62,7.69-8.06,17.1-6.88,20.78,3.5,1.73,4.88,3.33,7.22,8.65,6.51,3.44-.46,5.71,2.2,8.32,4.07,5.72,4.09,14.55,2.41,18.82-3.2,7.82-10.25,9.83-10.63,20.71-4a16.14,16.14,0,0,0,1.94.87c1.2-1.13,3.1-.61,4.25-1.83l2.11-.64c3.31,2.92,3.37,6.94,3.43,10.83,1,57.91,6.2,115.73,4.27,173.69C202,59.7,202.67,73,197,85.31c-8.49-.39-16.94.26-25.51-1.3-5.64-1-11.92.79-17.81,1.89A9,9,0,0,0,146.18,94c-.5,4.17,1.62,7.58,5,10s7.18,2.77,11.21,2.73q17.64-.15,35.29.07c3.42,0,7.22-1.12,10.05,2.06-11.23,2.89-12.78,11-12,21a184.51,184.51,0,0,1,.05,23.28c-.35,7.82,1.34,13.26,10.74,12.81,2.79-.13,5.65.52,7.64,2.94-2.87,3.06-6.65,2-10.08,2-14.59.14-29.19.07-43.78.1-3.9,0-7.73,0-11.55,1.44-6.52,2.47-8.06,4.4-7.43,10.83.55,5.66,3.54,8.91,9.78,9,14.59.3,29.18.12,43.78.14-1.7,20.77-2.36,41.69-8.74,61.8a14.62,14.62,0,0,1-5.77,3.77c-4.65,1.38-9.48,1.55-14.28,2-4.15-1.14-7.79.76-11.57,2-5.93-.51-12.16.74-17.56-2.92"/><path class="cls-7" d="M197,85.31c2.72-29,1.8-58.1,2.28-87.16.44-26.62-1.92-53.14-2.91-79.68-.69-18.74-.57-37.53-1.62-56.27.6-3.5,1.25-7,1.8-10.5,1.19-7.59,5-12.44,13.22-12.57,2.28,0,3.92-1.25,5.77-2.36,10.21-6.09,14.75-4.5,19.56,6.67a11.91,11.91,0,0,1,.5,2.08c2.09,3.58.54,7.5,1,11.23-.51,6.35,1.08,12.81-1,19.08-2.85,32.61-2,65.31-2.53,98-.14,7.4-2,14.72-1.94,22.22.09,10.31.39,20.51,2.49,30.69,3.86,18.63,1.06,37.56,1.64,56.34.13,4.35-2.53,6.11-6.77,6.47-7.61.63-14.77-1.7-22.06-3A74.2,74.2,0,0,0,197,85.31"/><path class="cls-8" d="M430,59.76c-5.28-7.23-13.15-10.49-21-13.8-2-.84-4.17-1.72-6.19-1.1C389.27,49,375.18,52.11,365,63.29c-2,2.19-3.47,4.52-3.47,7.54,0,9.94-1.2,19.93,1.62,29.72,3.51,12.28,6.83,24.62,10.3,36.9,5.85,20.66,2.85,40.68-7.66,59.74-15.68,28.42-37.69,50.77-64.54,68.4-22.89,15-45.48,30.44-67.61,46.53-12,12.4-26.19,22.2-39.32,33.25-1.88-.12-3.86.6-5.6-.68a3.64,3.64,0,0,1-.86-2.59,11.45,11.45,0,0,1,1.19-2.53c.23-.4.49-.79.72-1.2.44-.82.93-1.62,1.42-2.43a17.3,17.3,0,0,1,1.62-2.36c12.51-11.52,24.41-23.86,40.79-30.14,12.93-7.54,25.19-16,36.13-26.3C275.19,272,280.64,266.92,287,263a8.77,8.77,0,0,1,2.14-1.84l.21-.16c2.75-2.6,6.86,2.06,9.37-1.79,4.67-3.61,9.41-7.1,14.14-10.58a22.52,22.52,0,0,0,6.78-6c1.21-1.77,0-4.06,1.23-5.84,15.66-10,26.76-24.26,36.9-39.39,4-5.94,7.34-12.23,9-19.27,1.37-5.91,2.7-11.81-1-17.51-2.07-3.17-1.26-6.94-1.39-10.46-.19-4.7-1.82-8.13-6.45-10-2.59-1.06-5.41-2.42-7.16-4.47-12.46-14.54-29.64-13.89-45.93-13.08-14.31.71-23,11.54-24.35,26.58-.55,6.12-2.53,13,4.2,17.57,7.29,2.52,13.82,7.08,21.81,7.73,10.85.89,18.25-5.25,18.78-15.79-1.33-2.17-3.51-2.29-5.7-2.39-1.31,0-2.62-.05-3.92-.09a21.73,21.73,0,0,0-4.9.4c-.73.25-1.47.47-2.2.7s-1.36.58-2,.88-1.25.72-1.85,1.1-1.13.87-1.7,1.29a8.64,8.64,0,0,1-1.8,1.13,11.69,11.69,0,0,0-2.58,1.9c-.48.62-1,1.2-1.47,1.8-1.82,2.09-3.82,3.37-6.5,1.4a4.27,4.27,0,0,1-.39-3.85,6.72,6.72,0,0,1,3.23-2.4l.2-.2a4.11,4.11,0,0,1,1.81-1.74,2.13,2.13,0,0,1,1.53-.75,4.37,4.37,0,0,0,2.73-2l-.07.06c.72-.59,1.47-1.16,2.24-1.7a2.14,2.14,0,0,1,1.59-.6,6.69,6.69,0,0,0,2.7-1.69c7.41-4.13,15.44-5.29,23.72-4.42,12.15,1.27,15.82,7.77,11.34,19.27a24.27,24.27,0,0,1-14.74,14.57c-9,3.22-18.23,5.8-28,4.8-12.31-1.25-26.83-12.3-29.9-22.81-3.4-11.64,3.58-31,13.84-38.23,2.32-1.63,5.06-2.73,7.22-4.53,17.41-14.5,35.65-13.78,54.52-3.27,1.55.86,3.13,1.68,4.69,2.52.86.29,1.83,1.22,2.56.67,1.1-.84.5-2.14.09-3.25-7.12-22.6-5.82-44.15,8-64.13,1.44-1,2.33-.16,3.16.91a6,6,0,0,1,.16,1.93c0,.65.09.47.39-.57a6.88,6.88,0,0,1,1.74-2c1.85-1.34,3.61-2.79,5.37-4.26a35.09,35.09,0,0,1,7.8-4.52c18.17-8.6,35.81-10.34,52.23,4a12.53,12.53,0,0,1,3.79,7,8.62,8.62,0,0,1-.4,3.11c-.28.44-.57.88-.87,1.31a2.72,2.72,0,0,1-2.89-.18"/><path class="cls-9" d="M-157.19,158l-28.65-8.12c-1.82-3.55-5.06-5.84-7.67-8.68-5.59-6.1-7.23-12.7-3-20.27,4.12-7.37,8.12-14.8,12.17-22.2s10.92-11.68,17.1-16.82c4.59-3.81,9-7.81,13.51-11.73,11.47-7.23,21.37-16.95,34.41-21.66,16.44-4.66,32.37-10.94,49-15,27.44-6.68,54.44-7,80.41,5.36,14.6,7,27.27,16.73,36.42,30.43A144.13,144.13,0,0,0,61.76,88.54c6.55,6.91,8.09,15.17,6.69,24.75-3,20.45-17.72,31-33.44,40.22A236.58,236.58,0,0,1-.79,170.25c-16.19,6.17-33.37,7.05-50.52,5.82-7.47-.53-14.93-1.58-22.41-1-17.18,1.31-33.22-2.85-48.82-9.49l-1.35-.64-1,0-1-.07c-9.91-4.7-20.29-7.33-31.34-7"/></g></g><g id="Vrstva_1" data-name="Vrstva 1"><g class="cls-10"><g class="cls-11"><path class="cls-3" d="M-4499.32,140V-519.7H2826V4971.6H-4499.32V4409.28c7.16-7.91,13.63-16.55,22.89-22.27,6.91-4.27,15.12-9.59,22.1-3.06,24.46,22.86,50.56,9.94,75.64,3.6,12.62-3.19,23.88-6,36.1-.3,7.59,3.53,15.76,4.35,23.26.25,13.06-7.15,24-7.39,36.37,3.23s25.69,4.38,35.94-5.46c16.11-15.46,34.06-28.69,50.59-43.65,18.92-17.13,25.67-15.33,37.16,7.36,10,19.75,22.35,22.75,40.65,9.49,8.69-6.29,15.58-14.63,23.4-21.92,7.22-6.75,14.83-14.95,24.85-14.48,22.89,1.07,41.59-7.4,58.94-20.91,9.72-7.57,17.54-5.63,24.52,4.54,8.63,12.57,20.22,15.66,35.1,10.81,22.15-7.23,35.19,3.38,43.53,23.6,10.38,25.2,18.5,28.35,42.86,15.36,17.76-9.46,33.36-18.79,54.1-4.85,11.67,7.83,23.73-1.84,33.49-10.11,9.54-8.07,19.7-15.32,29.53-23a47.51,47.51,0,0,1,13.67-6.84c1.24-.24,2.51-.44,3.76-.67,1.26.09,2.53.22,3.79.31,1.19.37,2.39.79,3.6,1.14,2.33.85,4.63,1.83,6.92,2.79,13.58,3.71,27.59,5.22,40,13.6,14,9.48,27.27,2.75,39.23-6,22.17-16.31,43.47-33.75,64.82-51.12,6.21-5.05,12.55-10.14,20.26-12.58,10.48-3.31,16-.27,12.1,11.59-2.72,8.34-8.75,16.23-5.7,25.42,5.58,16.75,18.84,16.89,32.71,13.05,12.95-3.58,19-1.8,20.31,14,2.19,27.11,17.12,32.37,39.13,15.56,7-5.37,12.47-12.71,20.64-16.7a13.52,13.52,0,0,1,11,.68c4.15,4.21,2.5,9.89,3.79,14.82,5.47,20.89,21.7,27.48,39.93,16,11.16-7,18.85-18.26,29.85-25.51,1.78-1.3,3.68-2.48,5.56-3.6.85-.59,1.79-1.13,2.65-1.72,1.59-1.23,3.27-2.4,4.87-3.61.73-.64,1.53-1.24,2.26-1.87,1.36-1.32,2.81-2.56,4.23-3.82.66-.64,1.37-1.25,2-1.9,1.26-1.3,2.62-2.54,4-3.77.62-.64,1.3-1.24,1.93-1.87,1.2-1.31,2.5-2.53,3.8-3.73-.05,0,1.93-1.81,1.88-1.85,1.18-1.31,2.46-2.52,3.75-3.72,0-.05,1.91-1.82,1.87-1.87,1.18-1.33,2.46-2.57,3.76-3.8.62-.66,1.27-1.26,1.89-1.93,1.24-1.37,2.54-2.66,3.85-4,.64-.7,1.31-1.34,1.95-2,1.28-1.48,2.63-2.85,4-4.26.67-.76,1.36-1.45,2-2.21,1.34-1.61,2.75-3.11,4.19-4.65.73-.82,1.48-1.56,2.2-2.38,7.33-7.08,13.78-15.05,22.12-21.07a16.36,16.36,0,0,1,6.82-2c17.38,7.62,4.11,15.56-.73,21.49-12.22,15-28.1,26.66-39.33,42.61a65.44,65.44,0,0,1-4,5.76,68.4,68.4,0,0,0-9.17,14.63c-.86,2.26-1.8,4.44-2.68,6.67-3.93,10.25-2.09,20.53,5.28,27.33,12.05,11.12,20,24.52,28.41,38.19,9.53,15.44,31.46,15.52,49.47.85,16.58-13.5,30.54-29.88,45.93-44.71,35.36-34,81.52-29,107.47,11.55,6.73,10.52,15,20,23.31,29.16,15.38,16.84,40.21,10.85,64.29-14.3,15.63-16.47,33-22.18,55.47-13.2,19.47,7.78,38.93-.47,57.37-6.57,59.81-19.77,121-19.19,182.66-14.77,17.27,6.56,15.16,17.09,5.31,28.53-10.95,12.74-23.47,24-35.19,36-7.41,7.58-15.61,14.47-21.83,23.08-8.65,12-15.89,25.68-2.87,38.05,11.92,11.33,22.76.94,32.74-6.3,6.44-4.66,12.82-9.41,19.05-14.34,12-8,23.66-16.58,33.26-27.58,14.56-14.5,32.25-25.36,46.58-40.13a50,50,0,0,1,5.88-4,84.31,84.31,0,0,0,8.63-6.19c10-9,19-19.21,31.72-24.69a39.52,39.52,0,0,1,7.5-2.34c13.34-1.87,27.06-.72,40-5.32q73.2-4.06,146.2-10.47c6.3-.54,12.93-.59,18.31,2.47,17.77,10.09,34.43,4.38,51.11-2.49,19.12-7.87,38.74-13.16,59.62-12.48,12.21.4,21.59,4,28.33,16,12.66,22.52,20.4,24,42.37,11.76,7.76-4.34,14.85-9.83,23-13.6,29.79-12.28,22.79,15.27,30,27.55,9.23,17.35,23,17.49,38.8,10.42,15.6-7,29.43-16.84,43.53-26.31,5.85-3.93,12.54-8.62,19.4-2.49,5.68,5.08,3.13,11.78.58,17.44-18.51,41.13-12.84,76.33,24.55,104.34,11,8.22,13.33,20.5,14.28,33.37,1.16,15.77,7,28.89,25.28,28.42,16.93-.43,20.85,8.58,22.8,22.86,4.69,34.24,9.92,36.44,40.78,24.76,20.81-7.87,42.59-15.49,59.31,9.35,4.83,7.2,13.76,7.31,22.16,5.48,24.33-5.31,47.76-3.63,69.86,9,14.93,8.53,25.94,2.26,33.82-10.68,8.75-14.37,18-18.8,31.68-5.66,6.49,6.21,15.74,8.33,24.11,11.38,23.89,8.72,38.48,3.94,41.27-21.2,4.74-42.67,42.35-54.53,67.26-76.46,14.08-12.4,26-22.22,30.21-40.39,2-8.71,3.88-17.45,6-26.12,8-32.18,31.88-41.69,58-21.41,12.09,9.39,22.54,19.75,38.61,22.06,7.69,1.11,10.94,8.52,14.41,14.85,4.39,8,9.25,16.16,20,14.95,12.3-1.38,20.37-10.39,21.25-21.19,3-36.42,30.53-41.21,57.54-47.51,12,12.74,6.51,28.64,7.61,43.26,1.26,16.78-1.74,33.75,2.15,50.36,18,25.18,29,24.46,45.39-3.13,6.3-19.95-2-41.32,6.11-61a9.82,9.82,0,0,1,6.25-4.77c18,7.18,34.31,22.2,56.15,10.46,3.45-1.86,8.46,1.69,12.24,4.11,23,14.71,45.69,24,70,1.3,8.37-7.82,12.3.42,13.86,8,2.27,11.06-3.45,20.77-6,31-3.12,12.78.2,23.56,12.94,28.52,14,5.43,21.17-3.94,27.06-14.86,9.5-17.61,5.23-38.81,14.82-56.39,7.83-10.78-2.79-34.89,14.83-34,12.83.63,7.34,22.42,8.45,35,.83,9.41,4.63,16.75,10.87,23.3,14.61,18.38,31,18.35,49,5.18,8.63-6.3,17.75-12,26.3-18.39,16.45-12.38,31.95-18.8,49.23-.08,10.56,11.45,26.41,9.68,40.55,9,57-2.67,113.64-10.2,170.11-17.6,152.29-19.94,305-30.15,458.53-25.11,10.49.76,21.06.31,31.56,1.26,8.13.74,18.52,2.56,20.14,10.14,6.11,28.61,32.49,42.43,45.42,65.73,17.54,17.47,44.08,24.1,54.66,51,4.77,12.15,24.34,6.61,31.31-7.71,5.82-12,4.45-26.17,11.54-37.8a12.45,12.45,0,0,1,10.78-2.74c11.54,4.9,15.86,16.15,22.14,25.58,16.23,24.37,27.45,25,46.67,2.2,4-4.74,7.94-9.51,12.07-14.08,5-5.12,6.11-12,8.23-18.41a13.41,13.41,0,0,1,4.53-5.29,15.74,15.74,0,0,1,7.07-.88,19.19,19.19,0,0,1,6.53,3.23,26.9,26.9,0,0,0,13.65,6c26.52-4.46,49.8-14.71,64.5-38.25,8.76-14.05,16.85-13.4,30.66-5.93,20.32,11,40.74,18.95,51.75,42.71,7.37,15.88,24.66,15.56,34.28-.48,13.53-22.55,31-37.23,55.2-47.52,19.61-8.36,18.25-28.86,16.35-47.06-5.52-53-2.25-59,50.78-69.18,22.81-4.39,30.87-15.18,26.89-36.85-2.33-12.67-2.85-25.1,5.83-35.78,12-14.75,12.58-30.89,6.75-48-5.08-14.91-6.11-29.28,1.84-44,8.86-16.37,4.87-33.94-1.37-49.5-18.33-45.7,1.52-84.58,19.63-124,1.83-4,6.52-7.71,6-11.75-6.34-46.64,24.76-83.47,32.64-126.32,1.31-7.14,1.52-14.38-.33-21.3-19.55-73.19-3.49-147.6-7.64-221.31-.45-8-.14-17,4.86-23.29,18.41-23.08,16-50,16.33-76.76,1.69-127.74-1.43-255.68-7.61-383-7.43-152.92,9.91-303,26.48-453.72,3.51-31.95,3-64.16,7.08-96.12,2.1-16.29-3.75-30.59-22-34.93-16.79-4-20.39-16.29-19.79-30.49,2.53-59.93-5.87-119.48-5.68-179.3a125.62,125.62,0,0,0-12.75-56.74c-16.72-34.58-9.48-72.2-7.25-108.24,3.35-54.31,6-108.65,9.13-163a211,211,0,0,1,7.09-44.86c6.15-18.73,10.76-37.69,9.81-57.72-.55-11.8,1.85-22.77,9-32.9C559,1823.28,556.63,1784.31,542,1745c-4-10.66-2.31-19.66-.91-30.54,4.66-36.29,19.51-69.82,8.71-110.25-12-44.81-7.87-94.09-.35-141,3.25-20.35,4.91-37-17.56-47-12.77-5.65-13.21-18.36-12.89-30.07,1-38.33,1-76.7,2.22-115,1.16-37.06-2.18-74.72-2.49-112.16-.12-14.4,1.12-28.55,5.15-42.4,5.72-19.7,11-21.41,27.47-8.31,8.41,6.69,15.47,14.83,22.52,22.92,4.75,5.47,9.81,11.47,18,7.88,7.47-3.25,8.79-10.69,9.47-18,.59-6.28-.78-12.46-1.15-18.69-2.55-43.17-4.52-86.61-8.47-129.39-3.13-34-11.94-65.15,6.14-97.92,6.37-11.56-.48-28-4.78-41.78-9.36-30-13.32-61-15.3-92.3-1.32-20.92,3-39.85,13.92-58.75C610,650.47,606,614.55,602.88,580c-1.81-20.48-4.32-40.85-3.72-61.41.61-20.93-1.12-41-14.5-58.55-5-6.57-8.85-15.72-5.81-22.7,9.72-22.34,2.39-47.24,12.36-69.51,5.5-12.29,6.44-25.86,1.18-39.2-3.38-8.57-4.54-18.12.05-26.11,11.55-20.07,2.7-32.4-12.59-45.67-13.47-11.68-25.37-25.15-41.55-33.34s-31.75-12.84-51-6.45c-25.87,8.61-46.57-.51-62.22-22.86-7.35-10.5-14.91-19.72-29-21.33-10.23-1.17-17.28-8.43-24.53-15.3-28.83-27.28-51.86-26.09-81.52.31-22.86,20.35-49.24,34.75-81.92,29.71-7.56-1.17-13.74,2.58-20.54,4.59-16.76,5-28.6-6.65-22.55-23,7.9-21.39-1.86-41.43-4.22-61.5-1.94-16.52-39.35-18-49-.68-17.59,31.45-42.15,44.57-77.33,39.61-8-1.13-13.64,2.93-16.92,10.33-1.45,3.25-2.54,8.15-5.46,9-33.94,9.42-21.34,34.46-17.51,54.91,4.86,26-10.95,45.93-17.25,68.49-2.93,10.48-16,13.8-27.06,14.23-14.3.55-28.42,3.61-42.75,2.82-10.26-.57-17.68,3.5-20.85,13.14-7.59,23.09-25.76,27.88-46.73,27.41-19.55-.43-34.64,3.79-41.06,25.7-4.86,16.56-18.39,20.31-34.56,15.78-9.69-2.72-20.28-6.1-25.27-14.2-15.15-24.57-35-33.09-63.09-25.59-10.25,2.73-18.11-5.1-25-12.71-11.77-13-26.32-17.88-43.51-12.5-5.15,1.61-12.25,5.21-15.34,1.72-25.56-28.81-60.5-14.51-90.14-17.2-36.5-3.32-73.44-10.5-111.65-2.73-23.27,4.74-49.59.44-74.49-.85-16.29-.85-32.18-.44-47.33,6.19-12.17,5.33-23.64,4-36.29-.06-35.88-11.61-51.18-6.24-74.87,23.46-10.45,13.09-23.77,19.39-40.14,14.37-15.6-4.79-17-19.24-18.77-32.59-1.06-8,1-16.07.73-24.07-.28-10,7.74-24-5.27-28.92a64.46,64.46,0,0,0-49.7,1.57c-13.11,6-10.45,18.54-9.4,30.51,3.36,38.4-4.69,76.35-5.93,114.63-.55,17-11.18,28.41-30.68,24.88-14.46-2.61-28.24,2.8-42.58,2.5-19.87-.42-29-8.69-29.79-29.06-1.37-34.81,7.79-69,4.08-104.06-1.54-14.6-5.72-26.17-16.16-35.11-13-11.11-26.14-4-35.8,9.08-28.55,38.72-11,81-12.83,121.67-1.48,32.59-9.34,40.47-40.26,36.87-22.62-2.63-29.77-12.33-30-35.65-.21-22.3,1.59-44.34,3.6-66.47,1.39-15.25-.8-29.54-20.68-30.82-18.28-1.17-36.65-2-43.53,21-3.39,11.33-2.77,23-3.55,34.55-1.81,27-10.34,34-37.82,31.74-3.56-.3.84.31-2.64-.42-17.38-3.6-36.82,3.3-52.4-7.26-16.39-11.12-8.08-31.57-13.67-47.25-6-16.79-11.65-29.38-32.87-27.23-20.85,2.12-31.69,10.07-32.81,33.22-1.54,31.92-24.82,52.95-56.84,51.09-40.16-2.34-80.23,3.08-120.27-.74-12.87-1.23-24.47,2-28.4,14.73-6.18,20.11-18.94,26.46-38.48,24.05-21.94-2.7-25.3-19.43-28.64-36.58-6.21-31.83-32.43-52.21-62.63-47.26-14.87,2.44-30.32,6.63-42.24,15.92-12.92,10.06-27.87,9.05-41.59,13.45-48.47,15.54-103.76,8.65-146.18,44.32-19,16-42.21,11.39-64.33,9-11.71-1.25-14.48-11.73-18.82-20.57-7.45-15.16-22.33-20.24-32.75-9-20.67,22.19-50.57,17.35-74.06,30.73-23.64,13.47-49.6,17.36-76.71,5.46-14-6.13-22.12.82-26.16,16.81-9.12,36.12-29.23,42.57-61.71,24-15.62-8.91-31.21-15.59-38.54-34.49-4.7-12.12-18.9-8-29-8.11-16.07-.17-32.2,2.83-44.38-12-4.55-5.54-11-4.2-17.22-1.43-37.33,16.66-72.35,16.5-108.09-7.61-30.56-20.61-67.76-20.36-103.49-21.78-13.35-.53-26.76.35-40.16.29-21.33-.09-39.23-3.39-45.24-27.93-1.49-6.07-5.92-11.59-12.92-12.16-9.21-.75-12,7-14.12,13.59-6,18.77-19.81,23.6-37.53,23.18-13.39-.32-26.81-.16-40.21-.07-16.89.12-30.19-4-32.19-23.93-1-9.83-6.21-16.52-16.25-18.86-2.6-.61-6.16-.8-7.47-2.63-17-23.68-29.17-17.84-48.33,1.15-17.72,17.56-80.84-2.25-93-25-4.08-7.66-9.45-12.72-17.1-16-9.44-4-15.76-10.5-20.17-20.18-11.37-25-20.81-27.17-37.38-5.64-16.84,21.88-37.31,31.39-64.1,32.45-20.63.81-31.86-8.46-37-27.25-5.68-20.78-8.66-41.61-6.89-63.48,2.07-25.4-15.12-41.64-40.58-41.19-34.12.6-42.56,6.69-49.22,45-3.93,22.61-13.86,36.39-36.36,39.66-11.19,1.63-17.95,6.4-20.32,17.65-2.94,13.92-11,21.83-26.09,21.84-13.06,0-21.92-4.59-26.45-17.78-6.35-18.5-24-24.84-39-21.21-46.15,11.19-91.77-6.94-137.86.86-14.94,2.53-23.17,5.15-25.4,20.15-2.69,18-13.62,21.67-30.81,20.77a781.58,781.58,0,0,0-106.89,1.67c-33,2.8-36.4-.23-47.55-31.53-10-28-33.21-44-60.23-52.32-15.23-4.69-29.37,3.52-40.24,15.88-23.86,27.18-52.22,32.91-83,15.87-14.19-7.84-26.37-15-39.6,1.87-7.85,10-20.16,3.56-30.51,4.06-14.56.7-28.62.29-29.07,21.78-.3,14.87-13.48,19.79-26.11,22.91-14.7,3.64-28.08-.75-35.08-13.32-10.24-18.42-26-24.89-44.91-29.62-30.15-7.54-42.07-24.73-41.86-56.11.21-30.11-1.07-31.43-31.26-32-16-.31-32.29,1.22-47.11-7.16-13.3-7.52-23.29,7.12-35.71,5.54a30.71,30.71,0,0,1-7.73-1.22c-13.09-6.2-22.59-16.84-30.52-28.23-13.08-18.81-27.09-20.05-43.75-5.57C-4489.69,139.88-4493.92,143-4499.32,140Z"/></g></g><g class="cls-12"><g class="cls-11"><path class="cls-3" d="M-6701.32,90V-569.7H624V4921.6H-6701.32V4359.28c7.16-7.91,13.63-16.55,22.89-22.27,6.91-4.27,15.12-9.59,22.1-3.06,24.46,22.86,50.56,9.94,75.64,3.6,12.62-3.19,23.88-6,36.1-.3,7.59,3.53,15.76,4.35,23.26.25,13.06-7.15,24-7.39,36.37,3.23s25.69,4.38,35.94-5.46c16.11-15.46,34.06-28.69,50.59-43.65,18.92-17.13,25.67-15.33,37.16,7.36,10,19.75,22.35,22.75,40.65,9.49,8.69-6.29,15.58-14.63,23.4-21.92,7.22-6.75,14.83-14.95,24.85-14.48,22.89,1.07,41.59-7.4,58.94-20.91,9.72-7.57,17.54-5.63,24.52,4.54,8.63,12.57,20.22,15.66,35.1,10.81,22.15-7.23,35.19,3.38,43.53,23.6,10.38,25.2,18.5,28.35,42.86,15.36,17.76-9.46,33.36-18.79,54.1-4.85,11.67,7.83,23.73-1.84,33.49-10.11,9.54-8.07,19.7-15.32,29.53-23a47.51,47.51,0,0,1,13.67-6.84c1.24-.24,2.51-.44,3.76-.67,1.26.09,2.53.22,3.79.31,1.19.37,2.39.79,3.6,1.14,2.33.85,4.63,1.83,6.92,2.79,13.58,3.71,27.59,5.22,40,13.6,14,9.48,27.27,2.75,39.23-6,22.17-16.31,43.47-33.75,64.82-51.12,6.21-5.05,12.55-10.14,20.26-12.58,10.48-3.31,16-.27,12.1,11.59-2.72,8.34-8.75,16.23-5.7,25.42,5.58,16.75,18.84,16.89,32.71,13.05,13-3.58,19-1.8,20.31,14,2.19,27.11,17.12,32.37,39.13,15.56,7-5.37,12.47-12.71,20.64-16.7a13.52,13.52,0,0,1,11,.68c4.15,4.21,2.5,9.89,3.79,14.82,5.47,20.89,21.7,27.48,39.93,16,11.16-7,18.85-18.26,29.85-25.51,1.78-1.3,3.68-2.48,5.56-3.6.85-.59,1.79-1.13,2.65-1.72,1.59-1.23,3.27-2.4,4.87-3.61.73-.64,1.53-1.24,2.26-1.87,1.36-1.32,2.81-2.56,4.23-3.82.66-.64,1.37-1.25,2-1.9,1.26-1.3,2.62-2.54,3.95-3.77.62-.64,1.3-1.24,1.93-1.87,1.2-1.31,2.5-2.53,3.8-3.73-.05,0,1.93-1.81,1.88-1.85,1.18-1.31,2.46-2.52,3.75-3.72,0-.05,1.91-1.82,1.87-1.87,1.18-1.33,2.46-2.57,3.76-3.8.62-.66,1.27-1.26,1.89-1.93,1.24-1.37,2.54-2.66,3.85-4,.64-.7,1.31-1.34,1.95-2,1.28-1.48,2.63-2.85,4-4.26.67-.76,1.36-1.45,2-2.21,1.34-1.61,2.75-3.11,4.19-4.65.73-.82,1.48-1.56,2.2-2.38,7.33-7.08,13.78-15.05,22.12-21.07a16.36,16.36,0,0,1,6.82-2c17.38,7.62,4.11,15.56-.73,21.49-12.22,15-28.1,26.66-39.33,42.61a65.44,65.44,0,0,1-4,5.76,68.4,68.4,0,0,0-9.17,14.63c-.86,2.26-1.8,4.44-2.68,6.67-3.93,10.25-2.09,20.53,5.28,27.33,12,11.12,20,24.52,28.41,38.19,9.53,15.44,31.46,15.52,49.47.85,16.58-13.5,30.54-29.88,45.93-44.71,35.36-34,81.52-29,107.47,11.55,6.73,10.52,15,20,23.31,29.16,15.38,16.84,40.21,10.85,64.29-14.3,15.63-16.47,33-22.18,55.47-13.2,19.47,7.78,38.93-.47,57.37-6.57,59.81-19.77,121.05-19.19,182.66-14.77,17.27,6.56,15.16,17.09,5.31,28.53-10.95,12.74-23.47,24-35.19,36-7.41,7.58-15.61,14.47-21.83,23.08-8.65,12-15.89,25.68-2.87,38.05,11.92,11.33,22.76.94,32.74-6.3,6.44-4.66,12.82-9.41,19-14.34,12-8,23.66-16.58,33.26-27.58,14.56-14.5,32.25-25.36,46.58-40.13a50,50,0,0,1,5.88-4,84.31,84.31,0,0,0,8.63-6.19c9.95-9,19-19.21,31.72-24.69a39.52,39.52,0,0,1,7.5-2.34c13.34-1.87,27.06-.72,40.05-5.32q73.2-4.06,146.2-10.47c6.3-.54,12.93-.59,18.31,2.47,17.77,10.09,34.43,4.38,51.11-2.49,19.12-7.87,38.74-13.16,59.62-12.48,12.21.4,21.59,4,28.33,16,12.66,22.52,20.4,24,42.37,11.76,7.76-4.34,14.85-9.83,23-13.6,29.79-12.28,22.79,15.27,30,27.55,9.23,17.35,23,17.49,38.8,10.42,15.6-7,29.43-16.84,43.53-26.31,5.85-3.93,12.54-8.62,19.4-2.49,5.68,5.08,3.13,11.78.58,17.44-18.51,41.13-12.84,76.33,24.55,104.34,11,8.22,13.33,20.5,14.28,33.37,1.16,15.77,7,28.89,25.28,28.42,16.93-.43,20.85,8.58,22.8,22.86,4.69,34.24,9.92,36.44,40.78,24.76,20.81-7.87,42.59-15.49,59.31,9.35,4.83,7.2,13.76,7.31,22.16,5.48,24.33-5.31,47.76-3.63,69.86,9,14.93,8.53,25.94,2.26,33.82-10.68,8.75-14.37,18-18.8,31.68-5.66,6.49,6.21,15.74,8.33,24.11,11.38,23.89,8.72,38.48,3.94,41.27-21.2,4.74-42.67,42.35-54.53,67.26-76.46,14.08-12.4,26-22.22,30.21-40.39,2-8.71,3.88-17.45,6-26.12,8-32.18,31.88-41.69,58-21.41,12.09,9.39,22.54,19.75,38.61,22.06,7.69,1.11,10.94,8.52,14.41,14.85,4.39,8,9.25,16.16,20,14.95,12.3-1.38,20.37-10.39,21.25-21.19,3-36.42,30.53-41.21,57.54-47.51,12,12.74,6.51,28.64,7.61,43.26,1.26,16.78-1.74,33.75,2.15,50.36,18,25.18,29,24.46,45.39-3.13,6.3-19.95-2-41.32,6.11-61a9.82,9.82,0,0,1,6.25-4.77c17.95,7.18,34.31,22.2,56.15,10.46,3.45-1.86,8.46,1.69,12.24,4.11,23,14.71,45.69,24,70,1.3,8.37-7.82,12.3.42,13.86,8,2.27,11.06-3.45,20.77-5.95,31-3.12,12.78.2,23.56,12.94,28.52,14,5.43,21.17-3.94,27.06-14.86,9.5-17.61,5.23-38.81,14.82-56.39,7.83-10.78-2.79-34.89,14.83-34,12.83.63,7.34,22.42,8.45,35,.83,9.41,4.63,16.75,10.87,23.3,14.61,18.38,31,18.35,49,5.18,8.63-6.3,17.75-12,26.3-18.39,16.45-12.38,31.95-18.8,49.23-.08,10.56,11.45,26.41,9.68,40.55,9,57-2.67,113.64-10.2,170.11-17.6,152.29-19.94,305-30.15,458.53-25.11,10.49.76,21.06.31,31.56,1.26,8.13.74,18.52,2.56,20.14,10.14,6.11,28.61,32.49,42.43,45.42,65.73,17.54,17.47,44.08,24.1,54.66,51,4.77,12.15,24.34,6.61,31.31-7.71,5.82-12,4.45-26.17,11.54-37.8a12.45,12.45,0,0,1,10.78-2.74c11.54,4.9,15.86,16.15,22.14,25.58,16.23,24.37,27.45,25,46.67,2.2,4-4.74,7.94-9.51,12.07-14.08,5-5.12,6.11-12,8.23-18.41a13.41,13.41,0,0,1,4.53-5.29,15.74,15.74,0,0,1,7.07-.88,19.19,19.19,0,0,1,6.53,3.23,26.9,26.9,0,0,0,13.65,6c26.52-4.46,49.8-14.71,64.5-38.25,8.76-14.05,16.85-13.4,30.66-5.93,20.32,11,40.74,18.95,51.75,42.71,7.37,15.88,24.66,15.56,34.28-.48,13.53-22.55,31-37.23,55.2-47.52,19.61-8.36,18.25-28.86,16.35-47.06-5.52-53-2.25-59,50.78-69.18,22.81-4.39,30.87-15.18,26.89-36.85-2.33-12.67-2.85-25.1,5.83-35.78,12-14.75,12.58-30.89,6.75-48-5.08-14.91-6.11-29.28,1.84-44,8.86-16.37,4.87-33.94-1.37-49.5-18.33-45.7,1.52-84.58,19.63-124,1.83-4,6.52-7.71,6-11.75-6.34-46.64,24.76-83.47,32.64-126.32,1.31-7.14,1.52-14.38-.33-21.3-19.55-73.19-3.49-147.6-7.64-221.31-.45-8-.14-17,4.86-23.29,18.41-23.08,16-50,16.33-76.76,1.69-127.74-1.43-255.68-7.61-383-7.43-152.92,9.91-303,26.48-453.72,3.51-31.95,3-64.16,7.08-96.12,2.1-16.29-3.75-30.59-22-34.93-16.79-4-20.39-16.29-19.79-30.49,2.53-59.93-5.87-119.48-5.68-179.3a125.62,125.62,0,0,0-12.75-56.74c-16.72-34.58-9.48-72.2-7.25-108.24,3.35-54.31,6-108.65,9.13-163a211,211,0,0,1,7.09-44.86c6.15-18.73,10.76-37.69,9.81-57.72-.55-11.8,1.85-22.77,9-32.9,25.72-36.32,23.37-75.29,8.69-114.64-4-10.66-2.31-19.66-.91-30.54,4.66-36.29,19.51-69.82,8.71-110.25-12-44.81-7.87-94.09-.35-141,3.25-20.35,4.91-37-17.56-47-12.77-5.65-13.21-18.36-12.89-30.07,1-38.33,1-76.7,2.22-115,1.16-37.06-2.18-74.72-2.49-112.16-.12-14.4,1.12-28.55,5.15-42.4,5.72-19.7,11-21.41,27.47-8.31,8.41,6.69,15.47,14.83,22.52,22.92,4.75,5.47,9.81,11.47,18,7.88,7.47-3.25,8.79-10.69,9.47-18,.59-6.28-.78-12.46-1.15-18.69-2.55-43.17-4.52-86.61-8.47-129.39-3.13-34-11.94-65.15,6.14-97.92,6.37-11.56-.48-28-4.78-41.78-9.36-30-13.32-61-15.3-92.3-1.32-20.92,3-39.85,13.92-58.75,18.3-31.74,14.25-67.66,11.18-102.25-1.81-20.48-4.32-40.85-3.72-61.41.61-20.93-1.12-41-14.5-58.55-5-6.57-8.85-15.72-5.81-22.7,9.72-22.34,2.39-47.24,12.36-69.51,5.5-12.29,6.44-25.86,1.18-39.2-3.38-8.57-4.54-18.12,0-26.11,11.55-20.07,2.7-32.4-12.59-45.67-13.47-11.68-25.37-25.15-41.55-33.34s-31.75-12.84-51-6.45c-25.87,8.61-46.57-.51-62.22-22.86-7.35-10.5-14.91-19.72-29-21.33-10.23-1.17-17.28-8.43-24.53-15.3-28.83-27.28-51.86-26.09-81.52.31-22.86,20.35-49.24,34.75-81.92,29.71-7.56-1.17-13.74,2.58-20.54,4.59-16.76,5-28.6-6.65-22.55-23,7.9-21.39-1.86-41.43-4.22-61.5-1.94-16.52-39.35-18-49-.68-17.59,31.45-42.15,44.57-77.33,39.61-8-1.13-13.64,2.93-16.92,10.33-1.45,3.25-2.54,8.15-5.46,9-33.94,9.42-21.34,34.46-17.51,54.91,4.86,26-11,45.93-17.25,68.49-2.93,10.48-16,13.8-27.06,14.23-14.3.55-28.42,3.61-42.75,2.82-10.26-.57-17.68,3.5-20.85,13.14-7.59,23.09-25.76,27.88-46.73,27.41-19.55-.43-34.64,3.79-41.06,25.7-4.86,16.56-18.39,20.31-34.56,15.78-9.69-2.72-20.28-6.1-25.27-14.2-15.15-24.57-35-33.09-63.09-25.59-10.25,2.73-18.11-5.1-25-12.71-11.77-13-26.32-17.88-43.51-12.5-5.15,1.61-12.25,5.21-15.34,1.72-25.56-28.81-60.5-14.51-90.14-17.2-36.5-3.32-73.44-10.5-111.65-2.73-23.27,4.74-49.59.44-74.49-.85-16.29-.85-32.18-.44-47.33,6.19-12.17,5.33-23.64,4-36.29-.06-35.88-11.61-51.18-6.24-74.87,23.46-10.45,13.09-23.77,19.39-40.14,14.37-15.6-4.79-17-19.24-18.77-32.59-1.06-8,1-16.07.73-24.07-.28-10,7.74-23.95-5.27-28.92a64.46,64.46,0,0,0-49.7,1.57c-13.11,6-10.45,18.54-9.4,30.51,3.36,38.4-4.69,76.35-5.93,114.63-.55,17-11.18,28.41-30.68,24.88-14.46-2.61-28.24,2.8-42.58,2.5-19.87-.42-29-8.69-29.79-29.06-1.37-34.81,7.79-69,4.08-104.06-1.54-14.6-5.72-26.17-16.16-35.11-13-11.11-26.14-4-35.8,9.08-28.55,38.72-11,81-12.83,121.67-1.48,32.59-9.34,40.47-40.26,36.87-22.62-2.63-29.77-12.33-30-35.65-.21-22.3,1.59-44.34,3.6-66.47,1.39-15.25-.8-29.54-20.68-30.82-18.28-1.17-36.65-2-43.53,21-3.39,11.33-2.77,23-3.55,34.55-1.81,27-10.34,34-37.82,31.74-3.56-.3.84.31-2.64-.42-17.38-3.6-36.82,3.3-52.4-7.26-16.39-11.12-8.08-31.57-13.67-47.25-6-16.79-11.65-29.38-32.87-27.23-20.85,2.12-31.69,10.07-32.81,33.22-1.54,31.92-24.82,52.95-56.84,51.09-40.16-2.34-80.23,3.08-120.27-.74-12.87-1.23-24.47,2-28.4,14.73-6.18,20.11-18.94,26.46-38.48,24.05-21.94-2.7-25.3-19.43-28.64-36.58-6.21-31.83-32.43-52.21-62.63-47.26-14.87,2.44-30.32,6.63-42.24,15.92-12.92,10.06-27.87,9.05-41.59,13.45-48.47,15.54-103.76,8.65-146.18,44.32-19,16-42.21,11.39-64.33,9-11.71-1.25-14.48-11.73-18.82-20.57-7.45-15.16-22.33-20.24-32.75-9-20.67,22.19-50.57,17.35-74.06,30.73-23.64,13.47-49.6,17.36-76.71,5.46-14-6.13-22.12.82-26.16,16.81-9.12,36.12-29.23,42.57-61.71,24-15.62-8.91-31.21-15.59-38.54-34.49-4.7-12.12-18.9-8-29-8.11-16.07-.17-32.2,2.83-44.38-12-4.55-5.54-11-4.2-17.22-1.43-37.33,16.66-72.35,16.5-108.09-7.61-30.56-20.61-67.76-20.36-103.49-21.78-13.35-.53-26.76.35-40.16.29-21.33-.09-39.23-3.39-45.24-27.93-1.49-6.07-5.92-11.59-12.92-12.16-9.21-.75-12,7-14.12,13.59-6,18.77-19.81,23.6-37.53,23.18-13.39-.32-26.81-.16-40.21-.07-16.89.12-30.19-4-32.19-23.93-1-9.83-6.21-16.52-16.25-18.86-2.6-.61-6.16-.8-7.47-2.63-17-23.68-29.17-17.84-48.33,1.15-17.72,17.56-80.84-2.25-93-25-4.08-7.66-9.45-12.72-17.1-16-9.44-4-15.76-10.5-20.17-20.18-11.37-25-20.81-27.17-37.38-5.64-16.84,21.88-37.31,31.39-64.1,32.45-20.63.81-31.86-8.46-37-27.25-5.68-20.78-8.66-41.61-6.89-63.48,2.07-25.4-15.12-41.64-40.58-41.19-34.12.6-42.56,6.69-49.22,45-3.93,22.61-13.86,36.39-36.36,39.66-11.19,1.63-18,6.4-20.32,17.65-2.94,13.92-11,21.83-26.09,21.84-13.06,0-21.92-4.59-26.45-17.78-6.35-18.5-24.05-24.84-39-21.21-46.15,11.19-91.77-6.94-137.86.86-14.94,2.53-23.17,5.15-25.4,20.15-2.69,18-13.62,21.67-30.81,20.77a781.58,781.58,0,0,0-106.89,1.67c-33,2.8-36.4-.23-47.55-31.53-9.95-28-33.21-44-60.23-52.32-15.23-4.69-29.37,3.52-40.24,15.88-23.86,27.18-52.22,32.91-83,15.87-14.19-7.84-26.37-15-39.6,1.87-7.85,10-20.16,3.56-30.51,4.06-14.56.7-28.62.29-29.07,21.78-.3,14.87-13.48,19.79-26.11,22.91-14.7,3.64-28.08-.75-35.08-13.32-10.24-18.42-26-24.89-44.91-29.62-30.15-7.54-42.07-24.73-41.86-56.11.21-30.11-1.07-31.43-31.26-32-16-.31-32.29,1.22-47.11-7.16-13.3-7.52-23.29,7.12-35.71,5.54a30.71,30.71,0,0,1-7.73-1.22c-13.09-6.2-22.59-16.84-30.52-28.23-13.08-18.81-27.09-20-43.75-5.57C-6691.69,89.88-6695.92,93-6701.32,90Z"/></g></g><g class="cls-13"><text class="cls-14" transform="translate(346.18 -11.84) rotate(-45)">CAN</text><text class="cls-14" transform="translate(79.76 -18.95) rotate(-45)">DESIGN</text></g><path class="cls-15" d="M156.12,27.72V37h-5.63v8.72H139.23V37H116.58V29.27L134.59,0h15.9V27.72ZM139.23,9.78h-.12L128.22,27.72h11Z"/><path class="cls-16" d="M18.6,18.89a9.79,9.79,0,0,1,7.9,3.79V12a21.11,21.11,0,0,0-8.22-1.74A18.82,18.82,0,0,0,5.1,15.79,18,18,0,0,0,0,28.39a16.79,16.79,0,0,0,5.56,13,19.34,19.34,0,0,0,13,5.07c2.8,0,5-.69,7.94-1.6V34.14a10.36,10.36,0,0,1-7.76,3.65,9,9,0,0,1-9.37-9.35C9.37,23.09,13.09,18.89,18.6,18.89ZM1.8,32.38A17.45,17.45,0,0,1,7,15.86c5-4.74,10.32-4.68,16.45-3.61C23.43,12.25,4,9.07,1.8,32.38Z"/><path class="cls-17" d="M115.21,38.38v-9.5l2.06-3.35a21.35,21.35,0,0,0-3.38-1.26l-2.3-.67c-1.56-.49-4-1.25-4-3.22s2.2-2.82,3.85-2.82a9.6,9.6,0,0,1,6,2.24L121,13a24.19,24.19,0,0,0-10.84-2.77c-6.94,0-12,4.47-12,11.32,0,6.53,3.73,8,9.38,9.53,1.92.54,5.46,1.39,5.46,3.85s-2.25,3.4-4.36,3.4c-3.08,0-5.74-1.57-8-3.49L96.85,41.9A21.71,21.71,0,0,0,109,45.75a15.45,15.45,0,0,0,9.83-3.18,9.24,9.24,0,0,0,2.84-4.19ZM100.29,24.53s-2.55-7.31,2.76-11.1c3.82-2.73,8.33-2.22,13.65-.87l.39.1-.39-.1C114.17,12,99.86,9.27,100.29,24.53Z"/><path class="cls-18" d="M50,11.14H40.2L26.87,45.77h9.56l2.39-6h12.4l2.25,6h9.6ZM41.3,32.87l3.72-11h.09l3.68,11ZM41.73,15l-5.21,8.33,4.17-11h8.19Z"/><path class="cls-19" d="M167.77,11.14h-9.83l-5.85,15.21h5.41v12h-5.63v7.39h2.3l2.39-6H169l2.26,6h9.6ZM159,32.87l3.72-11h.1l3.67,11Zm.9-17.89-5.2,8.33,4.16-11h8.19Z"/><path class="cls-20" d="M87.23,11.14V32.31h-.09L70.65,11.14h-9V45.77h9V24.55h.09L87.23,45.77h9V11.14ZM64.06,13.7,62.7,26.15v-14h6.55Zm25.6,0L88.31,26.15v-14h6.55Z"/><path class="cls-21" d="M188.53,38.06v-27h-9V45.69h19.8V38.06ZM182,13.85l-1.35,12.44v-14h6.55Z"/><path class="cls-22" d="M209.2,38.06v-27h-9V45.69H220V38.06Zm-6.42-24.21-1.36,12.44v-14H208Z"/></g></svg>