<svg id="Vrstva_1" data-name="Vrstva 1" xmlns="http://www.w3.org/2000/svg" xmlns:xlink="http://www.w3.org/1999/xlink" viewBox="0 0 318.87 98.45"><defs><style>.cls-1{fill:#683b11;}.cls-2{fill:url(#Nepojmenovaný_přechod_30);}.cls-3{fill:url(#Nepojmenovaný_přechod_13);}.cls-4{fill:url(#Nepojmenovaný_přechod_13-2);}.cls-5{fill:url(#Nepojmenovaný_přechod_13-3);}.cls-6{fill:url(#Nepojmenovaný_přechod_13-4);}.cls-7{fill:url(#Nepojmenovaný_přechod_13-5);}.cls-8{fill:url(#Nepojmenovaný_přechod_13-6);}.cls-9{fill:url(#Nepojmenovaný_přechod_13-7);}</style><linearGradient id="Nepojmenovaný_přechod_30" x1="191.52" y1="1.16" x2="191.52" y2="57.82" gradientUnits="userSpaceOnUse"><stop offset="0" stop-color="#f39600"/><stop offset="0.3" stop-color="#de6d0e"/><stop offset="0.59" stop-color="#cd4d1a"/><stop offset="0.83" stop-color="#c33921"/><stop offset="1" stop-color="#bf3223"/></linearGradient><linearGradient id="Nepojmenovaný_přechod_13" x1="39.01" y1="13.82" x2="39.01" y2="58.73" gradientUnits="userSpaceOnUse"><stop offset="0" stop-color="#b17f49"/><stop offset="1" stop-color="#683b11"/></linearGradient><linearGradient id="Nepojmenovaný_přechod_13-2" x1="157.97" y1="13.82" x2="157.97" y2="57.84" xlink:href="#Nepojmenovaný_přechod_13"/><linearGradient id="Nepojmenovaný_přechod_13-3" x1="78.31" y1="14.96" x2="78.31" y2="57.87" xlink:href="#Nepojmenovaný_přechod_13"/><linearGradient id="Nepojmenovaný_přechod_13-4" x1="228.68" y1="14.96" x2="228.68" y2="57.87" xlink:href="#Nepojmenovaný_přechod_13"/><linearGradient id="Nepojmenovaný_přechod_13-5" x1="120.39" y1="14.96" x2="120.39" y2="57.87" xlink:href="#Nepojmenovaný_přechod_13"/><linearGradient id="Nepojmenovaný_přechod_13-6" x1="257.27" y1="14.86" x2="257.27" y2="57.77" xlink:href="#Nepojmenovaný_přechod_13"/><linearGradient id="Nepojmenovaný_přechod_13-7" x1="282.89" y1="14.86" x2="282.89" y2="57.77" xlink:href="#Nepojmenovaný_přechod_13"/></defs><path class="cls-1" d="M16.16,95.5l-3.75-8.31a.19.19,0,0,0-.18-.12H9.44a.13.13,0,0,0-.15.15v8.19a.33.33,0,0,1-.1.25.36.36,0,0,1-.26.11H5.42a.38.38,0,0,1-.36-.36V75.13a.36.36,0,0,1,.11-.26.33.33,0,0,1,.25-.1H14a7.06,7.06,0,0,1,3.38.78,5.47,5.47,0,0,1,2.25,2.22,6.78,6.78,0,0,1,.79,3.33,5.92,5.92,0,0,1-1,3.49,5.44,5.44,0,0,1-2.85,2.06.14.14,0,0,0-.09.21l4.08,8.49a.46.46,0,0,1,.06.18q0,.24-.33.24H16.58A.42.42,0,0,1,16.16,95.5Zm-6.87-17v5.13a.13.13,0,0,0,.15.15h3.93a2.89,2.89,0,0,0,2.06-.75,2.55,2.55,0,0,0,.79-2,2.61,2.61,0,0,0-.79-2,2.85,2.85,0,0,0-2.06-.76H9.44A.13.13,0,0,0,9.29,78.55Z"/><path class="cls-1" d="M38,78.29a.36.36,0,0,1-.26.11H27.86a.13.13,0,0,0-.15.15V83.2a.13.13,0,0,0,.15.15h6.45a.34.34,0,0,1,.36.36v2.91a.33.33,0,0,1-.1.25.36.36,0,0,1-.26.11H27.86a.13.13,0,0,0-.15.15V92a.13.13,0,0,0,.15.15H37.7a.34.34,0,0,1,.36.36v2.91a.33.33,0,0,1-.1.25.36.36,0,0,1-.26.11H23.84a.38.38,0,0,1-.36-.36V75.13a.36.36,0,0,1,.11-.26.33.33,0,0,1,.25-.1H37.7a.34.34,0,0,1,.36.36V78A.33.33,0,0,1,38,78.29Z"/><path class="cls-1" d="M41.11,95.66a.34.34,0,0,1-.11-.25V75.13a.36.36,0,0,1,.11-.26.33.33,0,0,1,.25-.1h3.51a.34.34,0,0,1,.36.36v8.4c0,.06,0,.09.06.1a.12.12,0,0,0,.12,0L52.34,75a.57.57,0,0,1,.45-.21h4c.16,0,.26,0,.3.13a.33.33,0,0,1-.06.32L50.3,83.77a.17.17,0,0,0,0,.21l7.08,11.37a1.25,1.25,0,0,1,.06.21q0,.21-.3.21h-4a.43.43,0,0,1-.42-.24l-5.34-8.64a.1.1,0,0,0-.09-.06.17.17,0,0,0-.12.06l-1.89,2.37a.46.46,0,0,0-.06.18v6a.33.33,0,0,1-.1.25.36.36,0,0,1-.26.11H41.36A.34.34,0,0,1,41.11,95.66Z"/><path class="cls-1" d="M59.89,95.66a.34.34,0,0,1-.11-.25V75.13a.36.36,0,0,1,.11-.26.33.33,0,0,1,.25-.1h3.51a.34.34,0,0,1,.36.36V92a.13.13,0,0,0,.15.15H74a.34.34,0,0,1,.36.36v2.91a.33.33,0,0,1-.1.25.36.36,0,0,1-.26.11H60.14A.34.34,0,0,1,59.89,95.66Z"/><path class="cls-1" d="M90.41,95.47l-.9-2.94q-.06-.12-.15-.12H82q-.09,0-.15.12L81,95.47a.38.38,0,0,1-.39.3H76.76a.34.34,0,0,1-.27-.11.32.32,0,0,1,0-.31l6.48-20.28a.38.38,0,0,1,.39-.3H88a.38.38,0,0,1,.39.3l6.48,20.28a.33.33,0,0,1,0,.15q0,.27-.33.27H90.8A.38.38,0,0,1,90.41,95.47ZM83,89.14h5.28q.18,0,.12-.18l-2.7-8.91c0-.08,0-.12-.09-.11s-.07,0-.09.11L82.91,89Q82.88,89.14,83,89.14Z"/><path class="cls-1" d="M111.5,74.77H115a.34.34,0,0,1,.36.36V95.41a.33.33,0,0,1-.1.25.36.36,0,0,1-.26.11H111.5a.38.38,0,0,1-.36-.36V82.18q0-.12-.06-.12s-.08,0-.12.09l-3.18,5a.47.47,0,0,1-.42.24h-1.77a.47.47,0,0,1-.42-.24l-3.18-5c0-.06-.08-.09-.12-.08s-.06.06-.06.14v13.2a.33.33,0,0,1-.1.25.36.36,0,0,1-.26.11H97.94a.38.38,0,0,1-.36-.36V75.13a.36.36,0,0,1,.11-.26.33.33,0,0,1,.25-.1h3.51a.47.47,0,0,1,.42.24l4.5,7q.09.18.18,0l4.53-7A.47.47,0,0,1,111.5,74.77Z"/><path class="cls-1" d="M131.2,74.87a.32.32,0,0,1,.25-.1H135a.33.33,0,0,1,.25.1.33.33,0,0,1,.11.26V95.41a.31.31,0,0,1-.11.25.34.34,0,0,1-.25.11h-3.39a.43.43,0,0,1-.42-.24l-7.77-12.84c0-.06-.08-.09-.12-.08s-.06.06-.06.14l.06,12.66a.37.37,0,0,1-.1.25.36.36,0,0,1-.26.11h-3.51a.38.38,0,0,1-.26-.11.33.33,0,0,1-.1-.25V75.13a.35.35,0,0,1,.1-.26.37.37,0,0,1,.26-.1h3.39a.43.43,0,0,1,.42.24l7.74,12.78c0,.06.08.08.12.07s.06,0,.06-.13l0-12.6A.36.36,0,0,1,131.2,74.87Z"/><path class="cls-1" d="M139.09,95.66a.31.31,0,0,1-.11-.25V75.13a.33.33,0,0,1,.11-.26.33.33,0,0,1,.25-.1h3.51a.35.35,0,0,1,.26.1.4.4,0,0,1,.1.26V95.41a.37.37,0,0,1-.1.25.36.36,0,0,1-.26.11h-3.51A.34.34,0,0,1,139.09,95.66Zm.07-22.87a.33.33,0,0,1,0-.3l1.59-3a.45.45,0,0,1,.45-.27h3c.14,0,.24,0,.28.13a.3.3,0,0,1,0,.32l-2.13,3a.47.47,0,0,1-.42.24h-2.52Q139.22,72.91,139.16,72.79Z"/><path class="cls-1" d="M165,75.55a5.69,5.69,0,0,1,2.32,2.29,6.92,6.92,0,0,1,.83,3.41,6.49,6.49,0,0,1-.85,3.33,5.81,5.81,0,0,1-2.4,2.23,7.71,7.71,0,0,1-3.56.8H157.1a.13.13,0,0,0-.15.15v7.65a.31.31,0,0,1-.11.25.34.34,0,0,1-.25.11h-3.51a.33.33,0,0,1-.25-.11.31.31,0,0,1-.11-.25V75.1a.33.33,0,0,1,.11-.26.32.32,0,0,1,.25-.1h8.46A7.21,7.21,0,0,1,165,75.55Zm-1.89,7.87a2.73,2.73,0,0,0,.84-2.08,2.82,2.82,0,0,0-.84-2.13,3.06,3.06,0,0,0-2.22-.81H157.1a.13.13,0,0,0-.15.15v5.52a.13.13,0,0,0,.15.15h3.81A3.1,3.1,0,0,0,163.13,83.42Z"/><path class="cls-1" d="M170.88,95.66a.33.33,0,0,1-.1-.25V75.13a.34.34,0,0,1,.36-.36h3.51a.33.33,0,0,1,.25.1.36.36,0,0,1,.11.26V92a.13.13,0,0,0,.15.15H185a.33.33,0,0,1,.25.1.36.36,0,0,1,.11.26v2.91a.38.38,0,0,1-.36.36H171.14A.36.36,0,0,1,170.88,95.66Z"/><path class="cls-1" d="M202.41,78.29a.34.34,0,0,1-.25.11h-9.84a.13.13,0,0,0-.15.15V83.2a.13.13,0,0,0,.15.15h6.45a.33.33,0,0,1,.25.1.36.36,0,0,1,.11.26v2.91a.38.38,0,0,1-.36.36h-6.45a.13.13,0,0,0-.15.15V92a.13.13,0,0,0,.15.15h9.84a.33.33,0,0,1,.25.1.36.36,0,0,1,.11.26v2.91a.38.38,0,0,1-.36.36H188.3a.36.36,0,0,1-.26-.11.33.33,0,0,1-.1-.25V75.13a.34.34,0,0,1,.36-.36h13.86a.33.33,0,0,1,.25.1.36.36,0,0,1,.11.26V78A.34.34,0,0,1,202.41,78.29Z"/><path class="cls-1" d="M208.73,95.09A6.56,6.56,0,0,1,206,92.53a7.44,7.44,0,0,1-1-3.81V81.79A7.44,7.44,0,0,1,206,78a6.47,6.47,0,0,1,2.73-2.55,9,9,0,0,1,4.11-.9,9.15,9.15,0,0,1,4.06.85,6.45,6.45,0,0,1,2.73,2.43,6.8,6.8,0,0,1,1,3.65q0,.27-.36.33l-3.51.21h-.06q-.3,0-.3-.33a3.42,3.42,0,0,0-1-2.55,3.49,3.49,0,0,0-2.56-1,3.55,3.55,0,0,0-2.6,1,3.41,3.41,0,0,0-1,2.55V88.9a3.38,3.38,0,0,0,1,2.52,3.55,3.55,0,0,0,2.6,1,3.49,3.49,0,0,0,2.56-1,3.38,3.38,0,0,0,1-2.52q0-.33.36-.33l3.51.15a.37.37,0,0,1,.25.09.28.28,0,0,1,.11.21,6.86,6.86,0,0,1-1,3.66,6.52,6.52,0,0,1-2.73,2.46,9,9,0,0,1-4.06.87A8.83,8.83,0,0,1,208.73,95.09Z"/><path class="cls-1" d="M235,74.87a.35.35,0,0,1,.26-.1h3.51a.33.33,0,0,1,.25.1.36.36,0,0,1,.11.26V95.41a.38.38,0,0,1-.36.36h-3.51a.36.36,0,0,1-.26-.11.33.33,0,0,1-.1-.25V87.13a.13.13,0,0,0-.15-.15h-6.63a.13.13,0,0,0-.15.15v8.28a.38.38,0,0,1-.36.36h-3.51a.36.36,0,0,1-.26-.11.33.33,0,0,1-.1-.25V75.13a.34.34,0,0,1,.36-.36h3.51a.33.33,0,0,1,.25.1.36.36,0,0,1,.11.26V83.2a.13.13,0,0,0,.15.15h6.63a.13.13,0,0,0,.15-.15V75.13A.35.35,0,0,1,235,74.87Z"/><path class="cls-1" d="M245.88,95.14a6.9,6.9,0,0,1-2.77-2.69,7.82,7.82,0,0,1-1-4V82.06a7.7,7.7,0,0,1,1-3.93,6.83,6.83,0,0,1,2.77-2.66,9.59,9.59,0,0,1,8.28,0,6.85,6.85,0,0,1,2.78,2.66,7.7,7.7,0,0,1,1,3.93v6.42a7.93,7.93,0,0,1-1,4,6.77,6.77,0,0,1-2.78,2.68,8.73,8.73,0,0,1-4.15.95A8.6,8.6,0,0,1,245.88,95.14Zm6.8-3.72a3.83,3.83,0,0,0,1-2.79V82a3.94,3.94,0,0,0-1-2.81,3.89,3.89,0,0,0-5.34,0,3.93,3.93,0,0,0-1,2.81v6.6a3.86,3.86,0,0,0,1,2.79,3.52,3.52,0,0,0,2.66,1A3.55,3.55,0,0,0,252.68,91.42Z"/><path class="cls-1" d="M265.91,95.47l-6.18-20.28,0-.12q0-.3.33-.3h3.78a.4.4,0,0,1,.42.3l4,14.64q0,.09.09.09s.07,0,.09-.09l3.93-14.64a.4.4,0,0,1,.42-.3h3.69a.32.32,0,0,1,.27.12.31.31,0,0,1,0,.3l-6.27,20.28a.38.38,0,0,1-.39.3H266.3A.38.38,0,0,1,265.91,95.47Z"/><path class="cls-1" d="M279.15,95.66a.33.33,0,0,1-.1-.25V75.13a.34.34,0,0,1,.36-.36h3.51a.33.33,0,0,1,.25.1.36.36,0,0,1,.11.26v8.4c0,.06,0,.09.06.1a.12.12,0,0,0,.12,0L290.39,75a.57.57,0,0,1,.45-.21h4c.16,0,.26,0,.3.13a.33.33,0,0,1-.06.32l-6.69,8.55a.17.17,0,0,0,0,.21l7.08,11.37a1.25,1.25,0,0,1,.06.21q0,.21-.3.21h-4a.43.43,0,0,1-.42-.24l-5.34-8.64a.1.1,0,0,0-.09-.06.17.17,0,0,0-.12.06l-1.89,2.37a.46.46,0,0,0-.06.18v6a.38.38,0,0,1-.36.36h-3.51A.36.36,0,0,1,279.15,95.66Z"/><path class="cls-1" d="M303.24,95.63a.33.33,0,0,1-.1-.25V87.79a.42.42,0,0,0,0-.18l-6.18-12.42a.46.46,0,0,1-.06-.18q0-.24.33-.24H301a.42.42,0,0,1,.42.27l3.75,8q.09.18.18,0l3.75-8a.42.42,0,0,1,.42-.27h3.84a.32.32,0,0,1,.28.1.33.33,0,0,1,0,.32l-6.24,12.42a.42.42,0,0,0,0,.18v7.59a.38.38,0,0,1-.36.36H303.5A.36.36,0,0,1,303.24,95.63Z"/><path class="cls-2" d="M216,35.51V47h-7V57.82H195.09V47H167V37.42L189.34,1.16H209V35.51ZM195.09,13.27h-.15l-13.5,22.24h13.65Z"/><path class="cls-3" d="M45.64,24.57a12.15,12.15,0,0,1,9.79,4.69V16a26.3,26.3,0,0,0-10.19-2.15,23.31,23.31,0,0,0-16.33,6.9,22.25,22.25,0,0,0-6.32,15.61,20.77,20.77,0,0,0,6.89,16.12,23.93,23.93,0,0,0,16.1,6.28c3.47,0,6.15-.85,9.85-2V43.46A12.88,12.88,0,0,1,45.81,48c-7,0-11.61-4.86-11.61-11.59S38.81,24.57,45.64,24.57ZM24.82,41.27a21.62,21.62,0,0,1,6.41-20.46C37.47,14.94,44,15,51.62,16.34,51.62,16.34,27.56,12.4,24.82,41.27Z"/><path class="cls-4" d="M165.32,48.71V36.94l2.56-4.15a26.18,26.18,0,0,0-4.19-1.56l-2.84-.83c-1.94-.61-5-1.56-5-4s2.74-3.49,4.79-3.49a11.91,11.91,0,0,1,7.39,2.77l4.44-8.42a29.89,29.89,0,0,0-13.43-3.44c-8.59,0-14.8,5.54-14.8,14,0,8.09,4.61,9.86,11.61,11.8,2.39.67,6.78,1.72,6.78,4.77s-2.79,4.21-5.41,4.21c-3.81,0-7.11-1.94-9.9-4.32l-4.78,8.76a27,27,0,0,0,15.08,4.77,19.19,19.19,0,0,0,12.18-3.94,11.61,11.61,0,0,0,3.52-5.19ZM146.84,31.54s-3.16-9,3.42-13.74c4.74-3.38,10.32-2.75,16.92-1.08l.48.12-.48-.12C164,16,146.3,12.64,146.84,31.54Z"/><path class="cls-5" d="M84.57,15H72.39L55.88,57.87H67.72l3-7.46H86.05l2.79,7.46h11.89ZM73.76,41.88l4.6-13.66h.12L83,41.88Zm.54-22.16L67.84,30,73,16.4H83.15Z"/><path class="cls-6" d="M230.45,15H218.27L211,33.8h6.7V48.71h-7v9.16h2.85l3-7.46h15.37l2.79,7.46h11.89ZM219.63,41.88l4.61-13.66h.12l4.55,13.66Zm1.12-22.16L214.3,30l5.16-13.64H229.6Z"/><path class="cls-7" d="M130.66,15V41.19h-.11L110.12,15H99V57.87h11.16V31.58h.11l20.43,26.29h11.16V15ZM102,18.14l-1.68,15.41V16.22h8.12Zm31.73,0L132,33.55V16.22h8.11Z"/><path class="cls-8" d="M256.16,48.32V14.86H245V57.77h24.53V48.32Zm-8.13-30-1.68,15.42V16.4h8.12Z"/><path class="cls-9" d="M281.78,48.32V14.86H270.62V57.77h24.53V48.32Zm-8-30-1.68,15.42V16.4h8.12Z"/></svg>