<svg id="Vrstva_1" data-name="Vrstva 1" xmlns="http://www.w3.org/2000/svg" viewBox="0 0 318.87 98.45"><defs><style>.cls-1{fill:#c51618;}.cls-2{fill:#575756;}</style></defs><path class="cls-1" d="M182,67.13V55.06L205.8,33.5c3-2.85,5-5.7,5-9.41,0-4.31-3-7.33-7.59-7.33-4.83,0-8,3.8-8.63,9.23l-13.88-1.9C182.09,11.76,192.09,4.43,204,4.43c11.21,0,22.07,6,22.07,18.72,0,8.71-5.08,13.8-10.69,18.8L201.23,54.54h24.93V67.13Z"/><path class="cls-2" d="M17.2,56.57H14.41V29.84h2.92c8,0,13.61,4.81,13.61,13.36,0,9.31-6.33,13.37-13.74,13.37m2.41-37.25H2V67.08H19.61a23.88,23.88,0,1,0,0-47.76"/><path class="cls-2" d="M58.18,40.73H57V28.82h1.21c4,0,8.61.76,8.61,6s-4.56,5.95-8.61,5.95m11.08,6.78C76,46.3,79.71,40.6,79.71,34c0-10.2-7.16-14.69-16.59-14.69H44.56V67.08H57V48.71h.13L68.82,67.08H84.27Z"/><path class="cls-2" d="M82.56,19.32V67.08H95V19.32Z"/><path class="cls-2" d="M178.92,20.39v0c.09-.37.19-.73.29-1.08h-5.46L158.75,39h-.13V19.33H146.21V67.08h12.41V46.37h.13l16,20.71h4.82v-12a2.47,2.47,0,0,1,.35-1.24l-9.8-11.88,12.7-15.12-2.46-.33a2.41,2.41,0,0,1-2.07-2.66c.07-.65.17-1.28.29-1.9h0"/><path class="cls-2" d="M290.24,56.22c-7.28,0-13.26-5.91-13.26-14,0-6.47,6-12.38,13.26-12.38s13.26,5.91,13.26,12.38c0,8.1-6,14-13.26,14m0-38.22c-12.9,0-24.83,9.09-25.87,22.29H243.06v9.58h10c-.5,5.42-4.54,8.15-9.83,8.15-8,0-12.39-7.4-12.39-14.69S235,28.52,243,28.52c4.92,0,8.47,3,10.15,7.47l11.57-4.86c-4-8.77-11.51-13.13-21.16-13.13a26.91,26.91,0,0,0-15.09,4.24c0,.3,0,.6,0,.91,0,9-4.78,14.47-10.38,19.58,0,.18,0,.36,0,.54a27.83,27.83,0,0,0,1.38,8.85h6.68a2.42,2.42,0,0,1,2.42,2.42V64a26.36,26.36,0,0,0,14.54,4c7.85,0,14.75-2.81,19.36-9.22a23.33,23.33,0,0,0,3.44-7c3.57,9.89,12.7,16.27,24.32,16.27,15.07,0,26-10.71,26-25.9C316.2,28,303.75,18,290.24,18"/><path class="cls-2" d="M144.43,19.33H132V48.52h-.13L109.16,19.33H96.74V67.08h12.42V37.82h.12L132,67.08h12.41Z"/><path d="M97.48,91.53,94.19,84.6a.08.08,0,0,0-.09-.06H90.3a.08.08,0,0,0-.09.09v6.84a.19.19,0,0,1-.22.22H88.85a.19.19,0,0,1-.22-.22V76.27c0-.15.07-.23.22-.23h5.79a4.18,4.18,0,0,1,3.11,1.2,4.25,4.25,0,0,1,1.18,3.12A4.19,4.19,0,0,1,98.08,83a3.81,3.81,0,0,1-2.3,1.41c-.06,0-.07.06,0,.11l3.35,6.88a.36.36,0,0,1,0,.11c0,.11-.06.16-.18.16H97.75A.25.25,0,0,1,97.48,91.53Zm-7.27-14v5.65a.08.08,0,0,0,.09.09h4.16a2.8,2.8,0,0,0,2.1-.8,3.14,3.14,0,0,0,0-4.21,2.78,2.78,0,0,0-2.1-.82H90.3A.08.08,0,0,0,90.21,77.52Z"/><path d="M112.21,77.43H104a.08.08,0,0,0-.09.09V83a.08.08,0,0,0,.09.09h5.77a.19.19,0,0,1,.22.22v.94c0,.15-.07.23-.22.23H104c-.06,0-.09,0-.09.08v5.61a.08.08,0,0,0,.09.09h8.23c.15,0,.22.08.22.23v.94a.19.19,0,0,1-.22.22h-9.68a.19.19,0,0,1-.22-.22V76.27c0-.15.07-.23.22-.23h9.68c.15,0,.22.08.22.23v.94A.19.19,0,0,1,112.21,77.43Z"/><path d="M115.83,91.47V76.27a.2.2,0,0,1,.22-.23h1.14a.21.21,0,0,1,.23.23v7.57s0,.06,0,.07.05,0,.07,0l7.06-7.73a.32.32,0,0,1,.27-.12h1.3a.17.17,0,0,1,.17.09.17.17,0,0,1-.06.18l-5.48,6.19s0,.08,0,.14l5.95,8.78,0,.11c0,.11-.06.16-.2.16h-1.29a.3.3,0,0,1-.27-.13l-5.3-7.78a.08.08,0,0,0-.07,0,.08.08,0,0,0-.06,0L117.46,86a.15.15,0,0,0,0,.11v5.35c0,.15-.08.22-.23.22h-1.14A.2.2,0,0,1,115.83,91.47Z"/><path d="M129.49,91.47V76.27c0-.15.07-.23.22-.23h1.14c.15,0,.22.08.22.23V90.21a.08.08,0,0,0,.09.09h7.89a.21.21,0,0,1,.23.23v.94c0,.15-.08.22-.23.22h-9.34A.19.19,0,0,1,129.49,91.47Z"/><path d="M152.13,91.51l-.89-2.81a.09.09,0,0,0-.09-.07h-6.69a.09.09,0,0,0-.09.07l-.89,2.81a.25.25,0,0,1-.27.18H142c-.16,0-.22-.08-.17-.25l4.94-15.22A.25.25,0,0,1,147,76h1.52a.25.25,0,0,1,.27.18l5,15.22,0,.09c0,.11-.07.16-.2.16H152.4A.26.26,0,0,1,152.13,91.51Zm-7.3-4.21a.11.11,0,0,0,.08,0h5.77a.13.13,0,0,0,.08,0,.08.08,0,0,0,0-.08l-2.91-9.12a.07.07,0,0,0-.07,0,.05.05,0,0,0-.06,0l-2.91,9.12A.08.08,0,0,0,144.83,87.3Z"/><path d="M167.11,76h1.16c.15,0,.22.08.22.23v15.2a.19.19,0,0,1-.22.22h-1.14a.19.19,0,0,1-.22-.22V79c0-.05,0-.08,0-.09s-.05,0-.07,0l-3.64,5.59a.31.31,0,0,1-.27.16h-.58a.36.36,0,0,1-.27-.14l-3.64-5.54s0-.06-.07,0,0,0,0,.09V91.47c0,.15-.08.22-.23.22h-1.14a.2.2,0,0,1-.22-.22V76.27a.2.2,0,0,1,.22-.23h1.17a.29.29,0,0,1,.26.14l4.21,6.37.06,0,.07,0,4.16-6.35A.33.33,0,0,1,167.11,76Z"/><path d="M182.22,76h1.14c.15,0,.22.08.22.23v15.2a.19.19,0,0,1-.22.22h-1.12a.32.32,0,0,1-.27-.16l-7.62-12.4s0-.06-.07-.06,0,0,0,.08l0,12.32a.2.2,0,0,1-.22.22H172.9c-.15,0-.23-.07-.23-.22V76.27a.21.21,0,0,1,.23-.23H174a.33.33,0,0,1,.27.16l7.62,12.41s0,.06.07,0,.05,0,.05-.08l0-12.31A.21.21,0,0,1,182.22,76Z"/><path d="M187.65,74.49a.19.19,0,0,1,0-.19L189,71.86a.27.27,0,0,1,.27-.15h1c.09,0,.14,0,.16.08s0,.11,0,.19l-1.52,2.43a.31.31,0,0,1-.27.16h-.8A.19.19,0,0,1,187.65,74.49Zm.13,17V76.27A.21.21,0,0,1,188,76h1.14a.2.2,0,0,1,.22.23v15.2a.2.2,0,0,1-.22.22H188C187.86,91.69,187.78,91.62,187.78,91.47Z"/><path d="M207.15,77.23a4.29,4.29,0,0,1,1.2,3.17,4.17,4.17,0,0,1-1.22,3.13,4.4,4.4,0,0,1-3.21,1.19h-4.36a.08.08,0,0,0-.09.09v6.66a.19.19,0,0,1-.22.22h-1.14a.19.19,0,0,1-.22-.22V76.25c0-.15.07-.23.22-.23H204A4.23,4.23,0,0,1,207.15,77.23ZM206,82.58a2.89,2.89,0,0,0,.82-2.16,3,3,0,0,0-.82-2.19,2.93,2.93,0,0,0-2.15-.82h-4.25a.08.08,0,0,0-.09.09v5.81a.08.08,0,0,0,.09.09h4.25A2.93,2.93,0,0,0,206,82.58Z"/><path d="M211.28,91.47V76.27c0-.15.07-.23.22-.23h1.14c.15,0,.22.08.22.23V90.21a.08.08,0,0,0,.09.09h7.89a.21.21,0,0,1,.23.23v.94c0,.15-.08.22-.23.22H211.5A.19.19,0,0,1,211.28,91.47Z"/><path d="M233.87,77.43h-8.22a.08.08,0,0,0-.09.09V83a.08.08,0,0,0,.09.09h5.77a.2.2,0,0,1,.22.22v.94a.2.2,0,0,1-.22.23h-5.77c-.06,0-.09,0-.09.08v5.61a.08.08,0,0,0,.09.09h8.22a.21.21,0,0,1,.23.23v.94c0,.15-.08.22-.23.22h-9.68a.2.2,0,0,1-.22-.22V76.27a.2.2,0,0,1,.22-.23h9.68a.21.21,0,0,1,.23.23v.94C234.1,77.36,234,77.43,233.87,77.43Z"/><path d="M239.51,91.28a4.46,4.46,0,0,1-1.85-1.75,5.05,5.05,0,0,1-.66-2.6V80.78a5,5,0,0,1,.66-2.57,4.54,4.54,0,0,1,1.85-1.73,5.87,5.87,0,0,1,2.75-.61,6,6,0,0,1,2.74.6,4.47,4.47,0,0,1,1.85,1.7,4.79,4.79,0,0,1,.66,2.52.21.21,0,0,1-.07.18.19.19,0,0,1-.15.07l-1.14.07c-.15,0-.23-.07-.23-.21v-.06a3.32,3.32,0,0,0-1-2.54,3.73,3.73,0,0,0-2.66-1,3.68,3.68,0,0,0-2.66,1,3.3,3.3,0,0,0-1,2.53V87a3.29,3.29,0,0,0,1,2.52,4.18,4.18,0,0,0,5.32,0,3.31,3.31,0,0,0,1-2.53v0c0-.13.08-.2.23-.2l1.14.07c.14,0,.22.06.22.2a4.9,4.9,0,0,1-.66,2.56A4.43,4.43,0,0,1,245,91.29a6,6,0,0,1-2.74.6A5.87,5.87,0,0,1,239.51,91.28Z"/><path d="M260.18,76h1.14a.21.21,0,0,1,.23.23v15.2c0,.15-.08.22-.23.22h-1.14a.19.19,0,0,1-.22-.22V84.6c0-.06,0-.08-.09-.08h-7.13c-.06,0-.09,0-.09.08v6.87a.2.2,0,0,1-.22.22h-1.14c-.15,0-.23-.07-.23-.22V76.27a.21.21,0,0,1,.23-.23h1.14a.2.2,0,0,1,.22.23V83a.08.08,0,0,0,.09.09h7.13A.08.08,0,0,0,260,83V76.27C260,76.12,260,76,260.18,76Z"/><path d="M267.71,91.22a4.59,4.59,0,0,1-1.86-1.82,5.45,5.45,0,0,1-.66-2.72V81.05a5.48,5.48,0,0,1,.66-2.72,4.65,4.65,0,0,1,1.86-1.82,6.45,6.45,0,0,1,5.6,0,4.58,4.58,0,0,1,1.88,1.82,5.48,5.48,0,0,1,.66,2.72v5.63a5.45,5.45,0,0,1-.66,2.72,4.52,4.52,0,0,1-1.88,1.82,6.36,6.36,0,0,1-5.6,0Zm5.53-1.74a3.72,3.72,0,0,0,1-2.73V81a3.74,3.74,0,0,0-1-2.74,4.08,4.08,0,0,0-5.44,0,3.74,3.74,0,0,0-1,2.74v5.72a3.84,3.84,0,0,0,6.46,2.73Z"/><path d="M283,91.51l-4.87-15.22,0-.09c0-.1.07-.16.2-.16h1.21a.27.27,0,0,1,.27.18l4.06,13.1s0,.05.07.05.05,0,.07-.05l4.07-13.1a.25.25,0,0,1,.26-.18h1.19c.16,0,.22.09.18.25l-4.92,15.22a.26.26,0,0,1-.27.18h-1.23A.27.27,0,0,1,283,91.51Z"/><path d="M292,91.47V76.27c0-.15.07-.23.22-.23h1.14c.15,0,.22.08.22.23v7.57a.07.07,0,0,0,.05.07s0,0,.07,0l7.06-7.73A.32.32,0,0,1,301,76h1.29c.09,0,.15,0,.17.09a.16.16,0,0,1,0,.18l-5.48,6.19s0,.08,0,.14l5.95,8.78,0,.11c0,.11-.07.16-.2.16h-1.3a.3.3,0,0,1-.27-.13l-5.29-7.78s0,0-.07,0l-.07,0L293.6,86a.16.16,0,0,0-.05.11v5.35a.19.19,0,0,1-.22.22h-1.14A.19.19,0,0,1,292,91.47Z"/><path d="M309.07,91.44V84.83c0-.06,0-.1,0-.11l-4.64-8.41a.36.36,0,0,1,0-.13c0-.09.07-.14.2-.14h1.21a.28.28,0,0,1,.27.16L309.78,83l.07,0,.07,0,3.77-6.82A.3.3,0,0,1,314,76h1.21a.19.19,0,0,1,.18.08.19.19,0,0,1,0,.19l-4.65,8.41s0,0,0,.11v6.61c0,.15-.07.23-.22.23h-1.14C309.14,91.67,309.07,91.59,309.07,91.44Z"/></svg>