<svg id="Vrstva_1" data-name="Vrstva 1" xmlns="http://www.w3.org/2000/svg" xmlns:xlink="http://www.w3.org/1999/xlink" viewBox="0 0 318.87 98.45"><defs><style>.cls-1{fill:url(#Nepojmenovaný_přechod_30);}.cls-2{fill:url(#Nepojmenovaný_přechod_13);}.cls-3{fill:url(#Nepojmenovaný_přechod_13-2);}.cls-4{fill:url(#Nepojmenovaný_přechod_13-3);}.cls-5{fill:url(#Nepojmenovaný_přechod_13-4);}.cls-6{fill:url(#Nepojmenovaný_přechod_13-5);}.cls-7{fill:url(#Nepojmenovaný_přechod_13-6);}.cls-8{fill:#683b11;}</style><linearGradient id="Nepojmenovaný_přechod_30" x1="203.04" y1="0.6" x2="203.04" y2="59.35" gradientUnits="userSpaceOnUse"><stop offset="0" stop-color="#f39600"/><stop offset="0.3" stop-color="#de6d0e"/><stop offset="0.59" stop-color="#cd4d1a"/><stop offset="0.83" stop-color="#c33921"/><stop offset="1" stop-color="#bf3223"/></linearGradient><linearGradient id="Nepojmenovaný_přechod_13" x1="33.9" y1="14.56" x2="33.9" y2="59.3" gradientUnits="userSpaceOnUse"><stop offset="0" stop-color="#b17f49"/><stop offset="1" stop-color="#683b11"/></linearGradient><linearGradient id="Nepojmenovaný_přechod_13-2" x1="72.77" y1="14.56" x2="72.77" y2="59.3" xlink:href="#Nepojmenovaný_přechod_13"/><linearGradient id="Nepojmenovaný_přechod_13-3" x1="95.59" y1="14.56" x2="95.59" y2="59.3" xlink:href="#Nepojmenovaný_přechod_13"/><linearGradient id="Nepojmenovaný_přechod_13-4" x1="166.58" y1="14.56" x2="166.58" y2="59.3" xlink:href="#Nepojmenovaný_přechod_13"/><linearGradient id="Nepojmenovaný_přechod_13-5" x1="262.74" y1="13.32" x2="262.74" y2="60.21" xlink:href="#Nepojmenovaný_přechod_13"/><linearGradient id="Nepojmenovaný_přechod_13-6" x1="125.41" y1="14.56" x2="125.41" y2="59.3" xlink:href="#Nepojmenovaný_přechod_13"/></defs><path class="cls-1" d="M183,59.35V48l22.3-20.21c2.83-2.66,4.68-5.33,4.68-8.8,0-4.05-2.82-6.87-7.11-6.87-4.52,0-7.51,3.55-8.08,8.64l-13-1.77C183,7.47,192.41.6,203.56.6c10.51,0,20.69,5.58,20.69,17.54,0,8.16-4.77,12.93-10,17.61L201,47.55h23.36v11.8Z"/><path class="cls-2" d="M32.06,17.73h-15L15.7,36.67v-21H30a19.8,19.8,0,0,1,15.07,6.86,19.86,19.86,0,0,0-13-4.8M28.53,49.45H25.92v-25h2.73c7.48,0,12.76,4.51,12.76,12.52,0,8.72-5.93,12.52-12.88,12.52m2.26-34.89H14.29V59.3h16.5a22.37,22.37,0,1,0,0-44.74"/><path class="cls-3" d="M70.75,17.8H56.47l-1,18.94v-21l15.2.08c5.64,0,8.92,2.56,12.32,6.78A18,18,0,0,0,70.75,17.8M66.93,34.61H65.8V23.46h1.13c3.8,0,8.07.71,8.07,5.58s-4.27,5.57-8.07,5.57M77.31,41c6.35-1.12,9.8-6.47,9.8-12.64,0-9.55-6.71-13.76-15.55-13.76H54.17V59.3H65.8V42.09h.12l11,17.21H91.38Z"/><path class="cls-4" d="M99.34,15.56,92.79,17.5,91.08,33.19V15.56Zm-9.57-1V59.3H101.4V14.56Z"/><path class="cls-5" d="M152.13,17.5l-1.71,15.69V15.56h8.26Zm31.61,4.08-2.3-.31a2.28,2.28,0,0,1-1.95-2.5c.07-.6.16-1.19.27-1.78v0l-2.89.51-10.63,10.8L176,15.56h4.1c.08-.34.17-.68.27-1h-5.11L161.16,33H161V14.56H149.41V59.3H161V39.9h.12l15,19.4h4.51V48a2.33,2.33,0,0,1,.33-1.16l-9.18-11.14Z"/><path class="cls-6" d="M284.38,49.13C277.55,49.13,272,43.59,272,36c0-6.06,5.6-11.6,12.43-11.6S296.8,29.94,296.8,36c0,7.59-5.6,13.13-12.42,13.13M263,40.54a27.5,27.5,0,0,0,.89,7.05,24.35,24.35,0,0,1-2.1-10.17c0-13.81,9.36-22.88,23.06-22.88a21.45,21.45,0,0,1,11.91,3.26,24.56,24.56,0,0,0-9.18-1.66C273,16.14,263,25.81,263,40.54M228.58,17a22.91,22.91,0,0,1,17.27.12,24.11,24.11,0,0,0-3.71-.29,24.36,24.36,0,0,0-9,1.74,36.43,36.43,0,0,1-3.19,3.14l-2.06,1.83a22.2,22.2,0,0,0,.73-6.54m55.8-3.69c-12.1,0-23.28,8.52-24.25,20.88h-20v9h9.33c-.47,5.07-4.26,7.64-9.22,7.64-7.52,0-11.6-6.94-11.6-13.77s3.9-13.88,11.43-13.88c4.61,0,7.93,2.8,9.51,7l10.84-4.55c-3.79-8.22-10.79-12.3-19.83-12.3a25.2,25.2,0,0,0-14.14,4c0,.28,0,.56,0,.85,0,8.39-4.48,13.56-9.72,18.35,0,.17,0,.33,0,.51a26,26,0,0,0,1.3,8.29h6.25a2.26,2.26,0,0,1,2.26,2.26v8.86a24.72,24.72,0,0,0,13.63,3.8c7.35,0,13.83-2.63,18.14-8.63A21.81,21.81,0,0,0,261.58,45c3.35,9.26,11.9,15.24,22.8,15.24,14.11,0,24.32-10,24.32-24.27,0-13.29-11.67-22.62-24.32-22.62"/><path class="cls-7" d="M112.61,15.56l-6.56,1.94-1.7,15.69V15.56Zm32.92,0L139,17.5l-1.71,15.69V15.56Zm2.22-1H136.12V41.91H136L114.7,14.56H103.07V59.3H114.7V31.88h.12l21.3,27.42h11.63Z"/><path class="cls-8" d="M97.1,78.64a.35.35,0,0,1-.26.11H87c-.11,0-.16,0-.16.15v4.65c0,.1.05.15.16.15h6.45a.33.33,0,0,1,.25.1.35.35,0,0,1,.1.26V87a.33.33,0,0,1-.1.25.34.34,0,0,1-.25.11H87c-.11,0-.16,0-.16.15v8.28a.33.33,0,0,1-.1.25.34.34,0,0,1-.25.11H83a.36.36,0,0,1-.26-.11.33.33,0,0,1-.1-.25V75.48a.34.34,0,0,1,.36-.36H96.84a.34.34,0,0,1,.26.1.36.36,0,0,1,.11.26v2.91A.34.34,0,0,1,97.1,78.64Z"/><path class="cls-8" d="M110.55,95.85l-3.75-8.31a.18.18,0,0,0-.17-.12h-2.79c-.11,0-.16,0-.16.15v8.19a.33.33,0,0,1-.1.25.36.36,0,0,1-.25.11H99.82a.35.35,0,0,1-.26-.11.33.33,0,0,1-.1-.25V75.48a.35.35,0,0,1,.1-.26.34.34,0,0,1,.26-.1h8.57a7.06,7.06,0,0,1,3.38.78A5.47,5.47,0,0,1,114,78.12a6.78,6.78,0,0,1,.8,3.33,5.92,5.92,0,0,1-1,3.49A5.38,5.38,0,0,1,111,87q-.17.06-.09.21l4.07,8.49a.53.53,0,0,1,.07.18c0,.16-.12.24-.33.24H111A.42.42,0,0,1,110.55,95.85ZM103.68,78.9V84c0,.1,0,.15.16.15h3.92a2.87,2.87,0,0,0,2.06-.75,2.56,2.56,0,0,0,.8-2,2.62,2.62,0,0,0-.8-2,2.83,2.83,0,0,0-2.06-.76h-3.92C103.73,78.75,103.68,78.8,103.68,78.9Z"/><path class="cls-8" d="M132.35,78.64a.36.36,0,0,1-.26.11h-9.84a.13.13,0,0,0-.15.15v4.65a.13.13,0,0,0,.15.15h6.46a.35.35,0,0,1,.25.1.35.35,0,0,1,.1.26V87a.33.33,0,0,1-.1.25.36.36,0,0,1-.25.11h-6.46a.13.13,0,0,0-.15.15v4.86a.13.13,0,0,0,.15.15h9.84a.35.35,0,0,1,.26.1.36.36,0,0,1,.11.26v2.91a.34.34,0,0,1-.11.25.36.36,0,0,1-.26.11H118.24A.35.35,0,0,1,118,96a.33.33,0,0,1-.1-.25V75.48a.35.35,0,0,1,.1-.26.34.34,0,0,1,.26-.1h13.85a.35.35,0,0,1,.26.1.36.36,0,0,1,.11.26v2.91A.34.34,0,0,1,132.35,78.64Z"/><path class="cls-8" d="M147.56,75.22a.34.34,0,0,1,.26-.1h3.51a.35.35,0,0,1,.25.1.36.36,0,0,1,.11.26V95.76a.34.34,0,0,1-.11.25.36.36,0,0,1-.25.11h-3.39a.42.42,0,0,1-.42-.24L139.75,83c0-.06-.08-.09-.12-.08s-.06.06-.06.14l.06,12.66a.38.38,0,0,1-.36.36h-3.51a.36.36,0,0,1-.26-.11.33.33,0,0,1-.1-.25V75.48a.34.34,0,0,1,.36-.36h3.39a.44.44,0,0,1,.42.24l7.74,12.78c0,.06.07.08.12.07s.06,0,.06-.13l0-12.6A.35.35,0,0,1,147.56,75.22Z"/><path class="cls-8" d="M158.34,95.59a6.18,6.18,0,0,1-2.77-2.19,5.71,5.71,0,0,1-1-3.31v-.66a.36.36,0,0,1,.11-.26.34.34,0,0,1,.26-.1h3.42a.35.35,0,0,1,.25.1.35.35,0,0,1,.1.26v.45a2.44,2.44,0,0,0,1.11,2,4.94,4.94,0,0,0,3,.83,3.55,3.55,0,0,0,2.37-.68,2.12,2.12,0,0,0,.79-1.66,1.7,1.7,0,0,0-.49-1.22,4.21,4.21,0,0,0-1.3-.87c-.55-.25-1.43-.59-2.62-1a25.24,25.24,0,0,1-3.41-1.41,6.85,6.85,0,0,1-2.34-2,4.93,4.93,0,0,1-1-3.07,5.42,5.42,0,0,1,.93-3.15,5.92,5.92,0,0,1,2.58-2.07,9.45,9.45,0,0,1,3.81-.72,9.76,9.76,0,0,1,4.07.81A6.62,6.62,0,0,1,169.07,78a5.83,5.83,0,0,1,1,3.38v.45a.33.33,0,0,1-.1.25.36.36,0,0,1-.26.11h-3.45a.38.38,0,0,1-.36-.36v-.24a2.73,2.73,0,0,0-1-2.15,4.23,4.23,0,0,0-2.84-.88,3.57,3.57,0,0,0-2.2.6,2,2,0,0,0-.8,1.65A1.8,1.8,0,0,0,159.5,82a4.08,4.08,0,0,0,1.38.91c.61.27,1.55.64,2.83,1.1a35.5,35.5,0,0,1,3.35,1.38,6.65,6.65,0,0,1,2.19,1.78,4.69,4.69,0,0,1,1,3.08,5.36,5.36,0,0,1-2.07,4.45,8.81,8.81,0,0,1-5.61,1.64A10.67,10.67,0,0,1,158.34,95.59Zm-.5-25.81c0-.16.09-.24.29-.24h2.71a.47.47,0,0,1,.41.24l1.21,1.83c0,.12.11.12.17,0l1.21-1.83a.44.44,0,0,1,.41-.24H167c.15,0,.25,0,.29.13a.33.33,0,0,1-.06.32l-2.27,3.18a.51.51,0,0,1-.42.21h-4a.44.44,0,0,1-.41-.24L157.89,70A.36.36,0,0,1,157.84,69.78Z"/><path class="cls-8" d="M173.3,96a.34.34,0,0,1-.11-.25V75.48a.36.36,0,0,1,.11-.26.33.33,0,0,1,.25-.1h3.51a.34.34,0,0,1,.36.36V95.76a.33.33,0,0,1-.1.25.36.36,0,0,1-.26.11h-3.51A.34.34,0,0,1,173.3,96Zm.07-22.87a.33.33,0,0,1,0-.3l1.59-3a.45.45,0,0,1,.45-.27h3a.26.26,0,0,1,.24.45l-2.13,3a.47.47,0,0,1-.42.24h-2.52Q173.43,73.26,173.37,73.14Z"/><path class="cls-8" d="M180.32,96a.34.34,0,0,1-.11-.25V92.52a.76.76,0,0,1,.15-.45l9.69-13.14s0-.08,0-.12a.17.17,0,0,0-.14-.06h-9.36a.38.38,0,0,1-.36-.36V75.48a.36.36,0,0,1,.11-.26.33.33,0,0,1,.25-.1h13.89a.34.34,0,0,1,.36.36v3.24a.76.76,0,0,1-.15.45L185,92.31a.13.13,0,0,0,0,.12.12.12,0,0,0,.12.06h9.36a.34.34,0,0,1,.36.36v2.91a.33.33,0,0,1-.1.25.36.36,0,0,1-.26.11H180.57A.34.34,0,0,1,180.32,96Z"/><path class="cls-8" d="M197.9,96a.34.34,0,0,1-.11-.25V75.48a.36.36,0,0,1,.11-.26.33.33,0,0,1,.25-.1h3.51a.34.34,0,0,1,.36.36V95.76a.33.33,0,0,1-.1.25.36.36,0,0,1-.26.11h-3.51A.34.34,0,0,1,197.9,96Z"/><path class="cls-8" d="M217.85,75.22a.33.33,0,0,1,.25-.1h3.51a.34.34,0,0,1,.36.36V95.76a.33.33,0,0,1-.1.25.36.36,0,0,1-.26.11h-3.39a.43.43,0,0,1-.42-.24L210,83c0-.06-.08-.09-.12-.08s-.06.06-.06.14l.06,12.66a.33.33,0,0,1-.1.25.36.36,0,0,1-.26.11H206a.38.38,0,0,1-.36-.36V75.48a.36.36,0,0,1,.11-.26.33.33,0,0,1,.25-.1h3.39a.43.43,0,0,1,.42.24l7.74,12.78c0,.06.08.08.12.07s.06,0,.06-.13l0-12.6A.36.36,0,0,1,217.85,75.22Z"/><path class="cls-8" d="M228.93,95.43a6.74,6.74,0,0,1-2.74-2.6,7.47,7.47,0,0,1-1-3.85V82.26a7.57,7.57,0,0,1,1-3.87,6.61,6.61,0,0,1,2.74-2.6,9.56,9.56,0,0,1,8.12,0,6.82,6.82,0,0,1,2.73,2.44,6.34,6.34,0,0,1,1,3.44v.21a.33.33,0,0,1-.1.25.36.36,0,0,1-.26.11h-3.51a.38.38,0,0,1-.36-.36v-.09a3.15,3.15,0,0,0-1-2.33,3.89,3.89,0,0,0-5.14.06,3.63,3.63,0,0,0-1,2.63v7a3.46,3.46,0,0,0,1.05,2.62,3.71,3.71,0,0,0,2.67,1,3.62,3.62,0,0,0,2.49-.83,2.9,2.9,0,0,0,.93-2.29V88.26a.13.13,0,0,0-.15-.15h-3.36a.38.38,0,0,1-.36-.36V85a.36.36,0,0,1,.11-.26.33.33,0,0,1,.25-.1h7.32a.34.34,0,0,1,.36.36v4a7.85,7.85,0,0,1-1,4,6.32,6.32,0,0,1-2.71,2.56,8.93,8.93,0,0,1-4.07.89A8.64,8.64,0,0,1,228.93,95.43Z"/></svg>