<svg id="Vrstva_1" data-name="Vrstva 1" xmlns="http://www.w3.org/2000/svg" viewBox="0 0 318.87 98.45">
    <defs>
        <style>.cls-1{fill:#fff;}.cls-2{fill:#fff;}</style>
    </defs>
    <path class="cls-1"
          d="M182.79,75.21V63.36l23.37-21.17c3-2.8,4.91-5.59,4.91-9.24,0-4.23-3-7.19-7.45-7.19-4.74,0-7.87,3.72-8.47,9.06L181.52,33c1.35-12.11,11.18-19.3,22.86-19.3,11,0,21.68,5.84,21.68,18.37,0,8.56-5,13.55-10.5,18.47L201.67,62.85h24.48V75.21Z"/>
    <path class="cls-2"
          d="M21,64.84H18.22V38.6h2.87c7.83,0,13.37,4.72,13.37,13.12,0,9.14-6.22,13.12-13.5,13.12m2.36-36.57H6V75.16H23.32a23.45,23.45,0,1,0,0-46.89"/>
    <path class="cls-2"
          d="M61.2,49.29H60V37.6H61.2c4,0,8.45.75,8.45,5.84s-4.47,5.85-8.45,5.85M72.08,56c6.66-1.19,10.26-6.78,10.26-13.25,0-10-7-14.43-16.29-14.43H47.83V75.16H60v-18h.12l11.5,18H86.82Z"/>
    <path class="cls-2" d="M85.14,28.27V75.16H97.33V28.27Z"/>
    <path class="cls-2"
          d="M179.76,29.32v0c.09-.36.19-.72.29-1.07h-5.36L160,47.61h-.12V28.27H147.64V75.16h12.19V54.83H160l15.74,20.33h4.73V63.36a2.39,2.39,0,0,1,.34-1.21l-9.62-11.68,12.47-14.84-2.41-.33a2.37,2.37,0,0,1-2-2.61c.07-.63.17-1.25.28-1.86h0"/>
    <path class="cls-2"
          d="M289.07,64.5c-7.15,0-13-5.81-13-13.75,0-6.36,5.86-12.17,13-12.17s13,5.81,13,12.17c0,7.94-5.86,13.75-13,13.75m0-37.53c-12.67,0-24.38,8.93-25.4,21.88H242.75v9.41h9.77c-.49,5.32-4.46,8-9.65,8C235,66.27,230.7,59,230.7,51.85s4.1-14.55,12-14.55c4.83,0,8.32,2.93,10,7.33L264,39.87C260,31.25,252.71,27,243.23,27a26.46,26.46,0,0,0-14.82,4.16c0,.3,0,.59,0,.89,0,8.79-4.7,14.22-10.19,19.24,0,.17,0,.35,0,.53a27.48,27.48,0,0,0,1.35,8.69h6.56a2.37,2.37,0,0,1,2.37,2.37v9.29a26,26,0,0,0,14.29,4c7.7,0,14.48-2.75,19-9a23.08,23.08,0,0,0,3.37-6.93c3.51,9.71,12.47,16,23.88,16,14.8,0,25.49-10.51,25.49-25.43,0-13.93-12.22-23.71-25.49-23.71"/>
    <path class="cls-2" d="M145.9,28.27H133.71V56.94h-.13L111.26,28.27H99.07V75.16h12.19V46.43h.12l22.33,28.73H145.9Z"/>
</svg>