<svg id="Vrstva_1" data-name="Vrstva 1" xmlns="http://www.w3.org/2000/svg" viewBox="0 0 318.87 98.45"><defs><style>.cls-1{fill:#c51618;}.cls-2{fill:#575756;}</style></defs><path class="cls-1" d="M182.34,67.29V55.22l23.8-21.56c3-2.84,5-5.69,5-9.4,0-4.31-3-7.33-7.59-7.33-4.82,0-8,3.79-8.62,9.23l-13.88-1.9C182.43,11.93,192.43,4.6,204.33,4.6c11.21,0,22.08,6,22.08,18.71,0,8.71-5.09,13.8-10.69,18.8L201.57,54.7h24.92V67.29Z"/><path class="cls-2" d="M17.54,56.73H14.75V30h2.91c8,0,13.62,4.82,13.62,13.37,0,9.31-6.33,13.36-13.74,13.36m2.4-37.24H2.34V67.24h17.6a23.88,23.88,0,1,0,0-47.75"/><path class="cls-2" d="M58.51,40.9h-1.2V29h1.2c4.06,0,8.62.76,8.62,5.95s-4.56,6-8.62,6M69.6,47.67c6.77-1.2,10.45-6.9,10.45-13.49,0-10.19-7.16-14.69-16.6-14.69H44.9V67.24H57.31V48.88h.13L69.15,67.24H84.61Z"/><path class="cls-2" d="M82.89,19.49V67.24H95.31V19.49Z"/><path class="cls-2" d="M179.26,20.56h0c.09-.36.18-.72.29-1.08h-5.46l-15,19.7H159V19.49H146.54V67.24H159V46.53h.13l16,20.71h4.81v-12a2.42,2.42,0,0,1,.36-1.23l-9.8-11.89L183.18,27l-2.46-.34A2.4,2.4,0,0,1,178.65,24c.07-.65.17-1.28.28-1.9v0"/><path class="cls-2" d="M290.58,56.38c-7.28,0-13.26-5.91-13.26-14,0-6.47,6-12.39,13.26-12.39s13.26,5.92,13.26,12.39c0,8.09-6,14-13.26,14m0-38.21c-12.91,0-24.84,9.09-25.88,22.28H243.4V50h10c-.5,5.42-4.55,8.16-9.84,8.16-8,0-12.38-7.41-12.38-14.69s4.17-14.81,12.19-14.81c4.92,0,8.47,3,10.15,7.46l11.58-4.85c-4.05-8.78-11.52-13.13-21.17-13.13A27,27,0,0,0,228.8,22.4c0,.31,0,.61,0,.91,0,9-4.78,14.48-10.37,19.59,0,.18,0,.35,0,.54a27.88,27.88,0,0,0,1.38,8.85h6.68a2.41,2.41,0,0,1,2.41,2.41v9.46a26.4,26.4,0,0,0,14.55,4c7.84,0,14.75-2.8,19.36-9.21a23.17,23.17,0,0,0,3.43-7c3.57,9.88,12.71,16.26,24.33,16.26,15.06,0,25.95-10.71,25.95-25.9,0-14.19-12.44-24.14-25.95-24.14"/><path class="cls-2" d="M144.77,19.49H132.36V48.68h-.13L109.49,19.49H97.08V67.24h12.41V38h.13l22.74,29.26h12.41Z"/><path d="M207.79,77.59h-8.21c-.05,0-.08,0-.08.09V83.2c0,.06,0,.09.08.09h5.75c.15,0,.22.08.22.23v.94a.2.2,0,0,1-.22.22h-5.75c-.05,0-.08,0-.08.09v6.86c0,.15-.08.22-.23.22h-1.14a.19.19,0,0,1-.22-.22V76.43a.19.19,0,0,1,.22-.22h9.66a.19.19,0,0,1,.22.22v.94A.19.19,0,0,1,207.79,77.59Z"/><path d="M219.46,91.7l-3.29-6.93a.08.08,0,0,0-.09-.07h-3.8a.08.08,0,0,0-.09.09v6.84a.19.19,0,0,1-.22.22h-1.14a.19.19,0,0,1-.22-.22V76.43a.19.19,0,0,1,.22-.22h5.79a4.19,4.19,0,0,1,3.1,1.19,4.25,4.25,0,0,1,1.19,3.12,4.17,4.17,0,0,1-.85,2.66,3.84,3.84,0,0,1-2.3,1.41c-.06,0-.08.07,0,.11l3.36,6.89a.31.31,0,0,1,0,.11q0,.15-.18.15h-1.19A.25.25,0,0,1,219.46,91.7Zm-7.27-14v5.66a.08.08,0,0,0,.09.09h4.16a2.84,2.84,0,0,0,2.1-.81,2.8,2.8,0,0,0,.8-2.1,2.78,2.78,0,0,0-2.9-2.93h-4.16A.08.08,0,0,0,212.19,77.68Z"/><path d="M234.19,77.59H226a.08.08,0,0,0-.09.09V83.2a.08.08,0,0,0,.09.09h5.77c.15,0,.22.08.22.23v.94a.2.2,0,0,1-.22.22H226a.08.08,0,0,0-.09.09v5.61a.08.08,0,0,0,.09.09h8.23a.19.19,0,0,1,.22.22v.94a.19.19,0,0,1-.22.22h-9.68a.19.19,0,0,1-.22-.22V76.43a.19.19,0,0,1,.22-.22h9.68a.19.19,0,0,1,.22.22v.94A.19.19,0,0,1,234.19,77.59Z"/><path d="M247.35,76.21h1.14c.15,0,.23.07.23.22v15.2c0,.15-.08.22-.23.22h-1.11a.32.32,0,0,1-.27-.15l-7.63-12.41s0-.06-.06-.05,0,0,0,.07l0,12.32c0,.15-.08.22-.23.22H238a.19.19,0,0,1-.22-.22V76.43a.19.19,0,0,1,.22-.22h1.12a.34.34,0,0,1,.27.15L247,88.77a.07.07,0,0,0,.07.06s0,0,0-.08l0-12.32A.19.19,0,0,1,247.35,76.21Z"/><path d="M253.44,90.89a3.67,3.67,0,0,1-1.46-3v-.69a.19.19,0,0,1,.22-.22h1.1a.19.19,0,0,1,.22.22v.6a2.47,2.47,0,0,0,1.07,2.09,4.93,4.93,0,0,0,3,.8,4,4,0,0,0,2.61-.73,2.35,2.35,0,0,0,.9-1.93,2.16,2.16,0,0,0-.42-1.34,3.83,3.83,0,0,0-1.27-1.05A20.84,20.84,0,0,0,257,84.46a26.13,26.13,0,0,1-2.6-1.18,4.4,4.4,0,0,1-1.5-1.29,3.35,3.35,0,0,1-.57-2,3.51,3.51,0,0,1,1.31-2.92,5.64,5.64,0,0,1,3.59-1,6.05,6.05,0,0,1,3.91,1.16,3.79,3.79,0,0,1,1.43,3.09v.49a.19.19,0,0,1-.22.22h-1.12a.19.19,0,0,1-.22-.22v-.4a2.61,2.61,0,0,0-1-2.13,4.38,4.38,0,0,0-2.83-.82,4,4,0,0,0-2.44.64,2.25,2.25,0,0,0-.85,1.88,2.06,2.06,0,0,0,.42,1.33,3.44,3.44,0,0,0,1.18.92c.52.26,1.31.6,2.38,1a21.31,21.31,0,0,1,2.63,1.26,5.17,5.17,0,0,1,1.61,1.42,3.34,3.34,0,0,1,.61,2,3.67,3.67,0,0,1-1.38,3A6,6,0,0,1,257.43,92,6.35,6.35,0,0,1,253.44,90.89Zm1-18.89a.15.15,0,0,1,.05-.08.17.17,0,0,1,.13,0h.9a.35.35,0,0,1,.29.13l1.36,1.84.07,0a.08.08,0,0,0,.06,0L258.69,72a.34.34,0,0,1,.29-.13h.89a.19.19,0,0,1,.18.08s0,.12-.05.19l-1.81,2.41a.32.32,0,0,1-.29.14h-1.29a.32.32,0,0,1-.29-.14l-1.79-2.41A.18.18,0,0,1,254.48,72Z"/><path d="M265.84,74.65a.19.19,0,0,1,0-.19L267.2,72a.27.27,0,0,1,.27-.16h1c.09,0,.14,0,.16.08a.2.2,0,0,1,0,.19l-1.52,2.44a.33.33,0,0,1-.27.15H266C265.93,74.73,265.87,74.71,265.84,74.65Zm.13,17V76.43c0-.15.08-.22.23-.22h1.14a.2.2,0,0,1,.22.22v15.2a.2.2,0,0,1-.22.22H266.2C266.05,91.85,266,91.78,266,91.63Z"/><path d="M270.67,91.63V90.56a.67.67,0,0,1,.09-.29l8.18-12.56a.08.08,0,0,0,0-.07s0,0-.07,0h-8a.19.19,0,0,1-.22-.22v-.94a.19.19,0,0,1,.22-.22h9.63c.15,0,.23.07.23.22V77.5a.64.64,0,0,1-.09.29L272.5,90.36s0,0,0,.06a.08.08,0,0,0,.07,0h7.95c.15,0,.23.07.23.22v.94c0,.15-.08.22-.23.22h-9.63A.19.19,0,0,1,270.67,91.63Z"/><path d="M284,91.63V76.43c0-.15.08-.22.23-.22h1.14a.2.2,0,0,1,.22.22v15.2a.2.2,0,0,1-.22.22h-1.14C284.11,91.85,284,91.78,284,91.63Z"/><path d="M299.37,76.21h1.14a.19.19,0,0,1,.22.22v15.2a.19.19,0,0,1-.22.22h-1.12a.33.33,0,0,1-.27-.15L291.5,79.29s0-.06-.07-.05,0,0,0,.07l0,12.32a.2.2,0,0,1-.22.22H290a.2.2,0,0,1-.22-.22V76.43a.2.2,0,0,1,.22-.22h1.12a.32.32,0,0,1,.27.15l7.62,12.41s0,.06.07.06a.08.08,0,0,0,.05-.08l0-12.32C299.14,76.28,299.22,76.21,299.37,76.21Z"/><path d="M306.94,91.42a4.52,4.52,0,0,1-1.84-1.73,5,5,0,0,1-.66-2.57V81a4.94,4.94,0,0,1,.66-2.57,4.48,4.48,0,0,1,1.84-1.74,5.9,5.9,0,0,1,2.75-.61,6,6,0,0,1,2.74.6,4.52,4.52,0,0,1,1.85,1.69,4.69,4.69,0,0,1,.64,2.45v.29a.19.19,0,0,1-.22.22h-1.14a.19.19,0,0,1-.22-.22v-.27a3.23,3.23,0,0,0-1-2.44,4.2,4.2,0,0,0-5.31,0,3.32,3.32,0,0,0-1,2.52v6.26a3.29,3.29,0,0,0,1,2.53,3.78,3.78,0,0,0,2.7,1,3.65,3.65,0,0,0,2.6-.9,3.08,3.08,0,0,0,1-2.39v-2a.08.08,0,0,0-.09-.09H310c-.15,0-.22-.08-.22-.23v-.93c0-.15.07-.23.22-.23h4.74c.15,0,.22.08.22.23V87a4.87,4.87,0,0,1-1.42,3.73A5.27,5.27,0,0,1,309.69,92,5.9,5.9,0,0,1,306.94,91.42Z"/></svg>