<svg xmlns="http://www.w3.org/2000/svg" xmlns:xlink="http://www.w3.org/1999/xlink" viewBox="0 0 228.42 46.25"><defs><style>.cls-1{fill:none;}.cls-2{clip-path:url(#clip-path);}.cls-3{fill:#fff;}.cls-4{fill:#fefffe;}.cls-5{fill:#b79474;}.cls-6{fill:#bf9e81;}.cls-7{clip-path:url(#clip-path-2);}.cls-8{opacity:0.08;}.cls-9{clip-path:url(#clip-path-3);}.cls-10{fill:url(#Nepojmenovaný_přechod_30);}.cls-11{fill:url(#Nepojmenovaný_přechod_13);}.cls-12{fill:url(#Nepojmenovaný_přechod_13-2);}.cls-13{fill:url(#Nepojmenovaný_přechod_13-3);}.cls-14{fill:url(#Nepojmenovaný_přechod_13-4);}.cls-15{fill:url(#Nepojmenovaný_přechod_13-5);}.cls-16{fill:url(#Nepojmenovaný_přechod_13-6);}</style><clipPath id="clip-path"><rect class="cls-1" x="-822.11" y="316.84" width="1921" height="1177"/></clipPath><clipPath id="clip-path-2"><rect class="cls-1" x="-825.11" y="247.84" width="1938" height="4780"/></clipPath><clipPath id="clip-path-3"><rect class="cls-1" x="-3027.11" y="197.84" width="1938" height="4780"/></clipPath><linearGradient id="Nepojmenovaný_přechod_30" x1="146.44" x2="146.44" y2="45.58" gradientUnits="userSpaceOnUse"><stop offset="0" stop-color="#f39600"/><stop offset="0.3" stop-color="#de6d0e"/><stop offset="0.59" stop-color="#cd4d1a"/><stop offset="0.83" stop-color="#c33921"/><stop offset="1" stop-color="#bf3223"/></linearGradient><linearGradient id="Nepojmenovaný_přechod_13" x1="15.22" y1="10.83" x2="15.22" y2="45.54" gradientUnits="userSpaceOnUse"><stop offset="0" stop-color="#b17f49"/><stop offset="1" stop-color="#683b11"/></linearGradient><linearGradient id="Nepojmenovaný_přechod_13-2" x1="45.37" y1="10.83" x2="45.37" y2="45.54" xlink:href="#Nepojmenovaný_přechod_13"/><linearGradient id="Nepojmenovaný_přechod_13-3" x1="63.08" y1="10.83" x2="63.08" y2="45.54" xlink:href="#Nepojmenovaný_přechod_13"/><linearGradient id="Nepojmenovaný_přechod_13-4" x1="118.15" y1="10.83" x2="118.15" y2="45.54" xlink:href="#Nepojmenovaný_přechod_13"/><linearGradient id="Nepojmenovaný_přechod_13-5" x1="192.76" y1="9.87" x2="192.76" y2="46.25" xlink:href="#Nepojmenovaný_přechod_13"/><linearGradient id="Nepojmenovaný_přechod_13-6" x1="86.21" y1="10.83" x2="86.21" y2="45.54" xlink:href="#Nepojmenovaný_přechod_13"/></defs><title>icons_DC</title><g id="Vrstva_2" data-name="Vrstva 2"><g class="cls-2"><path class="cls-3" d="M-824.84-237.1V-500.39H2098.89V1691.34H-824.84V1466.9c2.85-3.15,5.43-6.61,9.13-8.89,2.76-1.7,6-3.82,8.82-1.22,9.76,9.12,20.18,4,30.19,1.44,5-1.27,9.53-2.39,14.41-.12,3,1.41,6.29,1.74,9.28.1,5.22-2.86,9.6-3,14.52,1.29s10.25,1.75,14.35-2.18c6.43-6.17,13.59-11.45,20.19-17.42,7.55-6.84,10.24-6.12,14.82,2.93,4,7.89,8.93,9.08,16.23,3.79,3.47-2.51,6.22-5.84,9.34-8.75,2.88-2.69,5.92-6,9.92-5.78,9.14.43,16.6-2.95,23.52-8.35,3.88-3,7-2.24,9.79,1.82,3.44,5,8.07,6.25,14,4.31,8.84-2.88,14.05,1.35,17.37,9.43,4.15,10.06,7.39,11.31,17.11,6.13,7.09-3.78,13.32-7.51,21.59-1.94,4.66,3.13,9.47-.74,13.37-4s7.86-6.11,11.79-9.18a19,19,0,0,1,5.45-2.73l1.51-.26,1.51.12c.47.15,1,.31,1.43.45.94.34,1.85.74,2.77,1.12,5.42,1.48,11,2.08,15.94,5.43,5.59,3.78,10.89,1.1,15.66-2.41,8.85-6.52,17.35-13.48,25.87-20.41,2.48-2,5-4,8.09-5,4.18-1.32,6.38-.11,4.83,4.63-1.09,3.33-3.49,6.48-2.27,10.14,2.22,6.69,7.51,6.74,13.05,5.21,5.17-1.42,7.6-.72,8.11,5.6.87,10.82,6.83,12.92,15.62,6.21,2.8-2.15,5-5.07,8.23-6.67a5.45,5.45,0,0,1,4.4.27c1.65,1.68,1,4,1.51,5.92,2.19,8.34,8.66,11,15.94,6.39,4.45-2.8,7.52-7.29,11.91-10.18.71-.52,1.47-1,2.22-1.44.34-.23.71-.45,1.06-.69.63-.49,1.3-1,1.94-1.44.29-.25.61-.49.9-.75.54-.52,1.13-1,1.69-1.52.26-.26.55-.5.81-.75.51-.53,1-1,1.58-1.51.25-.26.52-.49.77-.75.47-.52,1-1,1.52-1.49,0,0,.76-.72.75-.73.47-.53,1-1,1.49-1.49,0,0,.77-.73.75-.75.47-.53,1-1,1.5-1.51.25-.27.51-.51.76-.77.49-.55,1-1.06,1.53-1.59.25-.28.52-.53.78-.81.51-.59,1.05-1.14,1.59-1.7.26-.3.54-.58.81-.89.54-.64,1.1-1.24,1.67-1.85.29-.33.59-.62.88-1,2.93-2.82,5.5-6,8.83-8.41a6.7,6.7,0,0,1,2.72-.81c6.94,3,1.64,6.21-.29,8.58-4.87,6-11.21,10.64-15.7,17a24.32,24.32,0,0,1-1.61,2.3,27.82,27.82,0,0,0-3.66,5.84c-.34.9-.72,1.77-1.07,2.67-1.57,4.09-.83,8.19,2.11,10.9,4.81,4.44,8,9.79,11.34,15.25,3.8,6.16,12.56,6.19,19.74.33,6.62-5.38,12.19-11.92,18.34-17.84,14.11-13.59,32.53-11.58,42.89,4.61a86.53,86.53,0,0,0,9.31,11.64c6.13,6.72,16,4.33,25.65-5.71,6.24-6.57,13.17-8.85,22.14-5.27,7.77,3.1,15.54-.19,22.9-2.62,23.87-7.89,48.31-7.66,72.9-5.9,6.9,2.63,6.06,6.83,2.12,11.39-4.36,5.09-9.36,9.57-14,14.37-3,3-6.23,5.77-8.71,9.21-3.46,4.78-6.35,10.25-1.15,15.18,4.76,4.53,9.09.38,13.07-2.51,2.57-1.86,5.11-3.75,7.6-5.72a65.5,65.5,0,0,0,13.28-11c5.81-5.79,12.87-10.12,18.59-16a21,21,0,0,1,2.34-1.6,34.91,34.91,0,0,0,3.45-2.47c4-3.6,7.58-7.67,12.66-9.86a16.44,16.44,0,0,1,3-.93c5.33-.75,10.8-.29,16-2.12,19.47-1.08,38.92-2.51,58.35-4.18,2.51-.22,5.16-.24,7.31,1,7.09,4,13.74,1.75,20.4-1,7.63-3.15,15.46-5.25,23.8-5,4.86.16,8.61,1.59,11.3,6.37,5,9,8.15,9.59,16.91,4.7,3.1-1.73,5.93-3.93,9.16-5.43,11.9-4.91,9.1,6.09,12,11,3.69,6.93,9.18,7,15.49,4.16s11.75-6.72,17.38-10.5c2.33-1.57,5-3.44,7.74-1,2.27,2,1.25,4.7.23,7-7.39,16.41-5.13,30.46,9.8,41.64,4.37,3.28,5.32,8.18,5.7,13.32.46,6.3,2.78,11.53,10.08,11.35,6.76-.17,8.33,3.42,9.11,9.12,1.87,13.67,4,14.54,16.27,9.89,8.31-3.15,17-6.19,23.67,3.73,1.94,2.87,5.5,2.91,8.85,2.18,9.71-2.12,19.06-1.45,27.88,3.59,6,3.4,10.36.9,13.5-4.26,3.5-5.74,7.17-7.51,12.65-2.26,2.58,2.48,6.28,3.32,9.62,4.54,9.53,3.48,15.36,1.57,16.47-8.46,1.89-17,16.9-21.77,26.85-30.52,5.61-4.95,10.39-8.87,12.05-16.12.8-3.47,1.55-7,2.41-10.42,3.18-12.85,12.73-16.64,23.15-8.55,4.83,3.75,9,7.88,15.41,8.8,3.07.45,4.37,3.4,5.75,5.93,1.75,3.2,3.69,6.45,8,6a9.23,9.23,0,0,0,8.48-8.46c1.19-14.54,12.18-16.45,23-19,4.81,5.08,2.6,11.43,3,17.26.5,6.7-.7,13.47.86,20.1,7.18,10,11.58,9.76,18.12-1.24,2.51-8-.79-16.5,2.43-24.36a4,4,0,0,1,2.5-1.91c7.16,2.87,13.7,8.87,22.41,4.18,1.38-.74,3.37.68,4.88,1.64,9.2,5.87,18.24,9.58,27.93.52,3.35-3.12,4.92.17,5.54,3.19.9,4.42-1.38,8.29-2.38,12.38-1.24,5.11.08,9.41,5.17,11.39,5.57,2.16,8.45-1.57,10.8-5.93,3.79-7,2.08-15.49,5.92-22.51,3.12-4.3-1.12-13.93,5.91-13.59,5.12.25,2.93,9,3.37,14a14.92,14.92,0,0,0,4.34,9.3c5.84,7.33,12.36,7.32,19.56,2.06,3.44-2.51,7.09-4.77,10.5-7.33,6.56-5,12.75-7.51,19.64,0,4.22,4.56,10.54,3.85,16.19,3.59,22.76-1.06,45.35-4.07,67.9-7,60.78-8,121.72-12,183-10,4.19.3,8.41.12,12.6.5,3.24.29,7.39,1,8,4,2.44,11.42,13,16.93,18.13,26.23,7,7,17.6,9.62,21.82,20.37,1.9,4.85,9.71,2.64,12.5-3.08,2.32-4.77,1.77-10.45,4.6-15.08a4.94,4.94,0,0,1,4.3-1.09c4.61,2,6.34,6.44,8.84,10.2,6.48,9.73,11,10,18.63.88,1.59-1.89,3.16-3.79,4.81-5.62,2-2,2.44-4.78,3.29-7.35a5.35,5.35,0,0,1,1.81-2.11,6.28,6.28,0,0,1,2.82-.35,7.59,7.59,0,0,1,2.61,1.29,10.64,10.64,0,0,0,5.45,2.39c10.58-1.78,19.87-5.87,25.74-15.26,3.5-5.61,6.72-5.35,12.23-2.37,8.12,4.39,16.26,7.57,20.66,17,2.94,6.33,9.84,6.21,13.68-.19a44.74,44.74,0,0,1,22-19c7.83-3.34,7.29-11.52,6.53-18.78-2.2-21.15-.9-23.54,20.27-27.61,9.1-1.76,12.31-6.06,10.73-14.71-.93-5.06-1.14-10,2.33-14.28,4.78-5.89,5-12.33,2.69-19.16-2-6-2.44-11.69.73-17.56,3.54-6.53,1.95-13.54-.54-19.76-7.32-18.23.6-33.76,7.83-49.5.73-1.59,2.61-3.07,2.38-4.69-2.52-18.61,9.89-33.31,13-50.41a19.19,19.19,0,0,0-.13-8.5c-7.8-29.22-1.39-58.91-3-88.33-.18-3.21-.05-6.8,1.94-9.3,7.35-9.22,6.38-19.94,6.52-30.64.67-51-.57-102-3-152.85-3-61,4-120.92,10.57-181.09,1.4-12.75,1.19-25.61,2.83-38.36.84-6.51-1.5-12.22-8.78-13.95-6.7-1.58-8.13-6.5-7.89-12.16,1-23.92-2.34-47.69-2.27-71.57a50.19,50.19,0,0,0-5.09-22.64c-6.67-13.81-3.78-28.82-2.89-43.2,1.33-21.68,2.4-43.37,3.64-65.05a83.61,83.61,0,0,1,2.83-17.9c2.46-7.48,4.3-15.05,3.92-23.05a20.18,20.18,0,0,1,3.59-13.13c10.27-14.5,9.33-30.05,3.48-45.75-1.59-4.26-.93-7.85-.37-12.19,1.86-14.48,7.79-27.87,3.48-44-4.77-17.88-3.14-37.55-.14-56.28,1.3-8.12,2-14.77-7-18.75-5.1-2.25-5.28-7.32-5.15-12,.43-15.29.42-30.61.89-45.9.47-14.79-.87-29.83-1-44.77a58.18,58.18,0,0,1,2-16.92c2.29-7.86,4.4-8.54,11-3.32a70.6,70.6,0,0,1,9,9.15c1.9,2.18,3.92,4.58,7.21,3.15,3-1.3,3.5-4.27,3.78-7.18.23-2.51-.31-5-.46-7.46-1-17.23-1.81-34.58-3.38-51.65-1.25-13.58-4.77-26,2.45-39.08,2.54-4.62-.19-11.17-1.91-16.68-3.73-12-5.32-24.36-6.11-36.84a40.34,40.34,0,0,1,5.56-23.45c7.3-12.66,5.69-27,4.47-40.81-.73-8.17-1.73-16.3-1.49-24.51s-.45-16.37-5.79-23.37c-2-2.62-3.53-6.27-2.32-9.06,3.89-8.91,1-18.85,4.93-27.74a19.72,19.72,0,0,0,.47-15.65c-1.34-3.41-1.81-7.23,0-10.41,4.61-8,1.07-12.94-5-18.23-5.38-4.67-10.12-10-16.58-13.31s-12.67-5.13-20.35-2.58c-10.32,3.44-18.58-.2-24.83-9.12-2.93-4.19-6-7.87-11.57-8.51-4.08-.47-6.9-3.37-9.79-6.11-11.51-10.89-20.7-10.41-32.54.12-9.12,8.13-19.65,13.87-32.7,11.86-3-.46-5.48,1-8.19,1.84-6.69,2-11.42-2.66-9-9.2,3.16-8.54-.74-16.54-1.68-24.55-.77-6.59-15.7-7.16-19.56-.27-7,12.55-16.82,17.79-30.87,15.81-3.19-.45-5.43,1.17-6.75,4.13-.57,1.29-1,3.25-2.18,3.57-13.55,3.76-8.51,13.75-7,21.92,1.94,10.36-4.36,18.33-6.88,27.33-1.16,4.19-6.38,5.51-10.8,5.68-5.7.22-11.34,1.45-17.06,1.13-4.1-.23-7.06,1.4-8.32,5.24-3,9.22-10.29,11.13-18.66,10.94-7.8-.17-13.82,1.52-16.39,10.26-1.93,6.61-7.33,8.11-13.79,6.3-3.86-1.09-8.09-2.44-10.08-5.67-6.05-9.81-14-13.21-25.19-10.22-4.08,1.1-7.22-2-10-5.06-4.7-5.18-10.51-7.14-17.37-5-2.06.65-4.89,2.08-6.13.69-10.2-11.5-24.14-5.79-36-6.86-14.57-1.33-29.32-4.2-44.56-1.09-9.29,1.89-19.8.17-29.73-.34-6.51-.34-12.85-.18-18.9,2.47-4.85,2.12-9.43,1.61-14.48,0-14.32-4.63-20.43-2.49-29.88,9.37-4.17,5.22-9.49,7.74-16,5.73-6.23-1.91-6.79-7.68-7.49-13-.43-3.19.38-6.41.29-9.6-.11-4,3.09-9.56-2.11-11.54a25.72,25.72,0,0,0-19.83.62c-5.23,2.4-4.18,7.4-3.76,12.18,1.35,15.32-1.87,30.47-2.36,45.75-.22,6.77-4.46,11.34-12.25,9.93-5.77-1-11.27,1.12-17,1-7.92-.17-11.56-3.47-11.88-11.6-.55-13.89,3.11-27.53,1.63-41.53-.62-5.83-2.29-10.45-6.45-14-5.18-4.44-10.43-1.62-14.29,3.62-11.4,15.45-4.39,32.33-5.12,48.56-.59,13-3.73,16.15-16.07,14.71-9-1-11.88-4.92-12-14.22-.08-8.9.63-17.7,1.43-26.53.56-6.09-.31-11.79-8.25-12.3-7.29-.47-14.63-.8-17.37,8.37-1.36,4.52-1.11,9.17-1.42,13.79-.72,10.76-4.13,13.57-15.09,12.66-1.42-.12.33.12-1.06-.16-6.94-1.44-14.7,1.31-20.92-2.9-6.53-4.44-3.22-12.6-5.45-18.86-2.39-6.7-4.65-11.73-13.12-10.87-8.32.85-12.65,4-13.09,13.26-.62,12.74-9.91,21.14-22.69,20.39-16-.93-32,1.23-48-.29-5.14-.49-9.77.78-11.34,5.87-2.46,8-7.56,10.57-15.35,9.61-8.77-1.08-10.1-7.76-11.44-14.61-2.48-12.7-12.94-20.83-25-18.86-5.93,1-12.09,2.65-16.86,6.35-5.15,4-11.12,3.62-16.59,5.37-19.35,6.21-41.42,3.46-58.35,17.7-7.59,6.38-16.85,4.54-25.68,3.6-4.67-.5-5.77-4.69-7.5-8.21-3-6.05-8.92-8.08-13.08-3.61-8.24,8.86-20.18,6.92-29.56,12.27s-19.8,6.92-30.61,2.17c-5.58-2.44-8.83.33-10.45,6.72-3.64,14.41-11.66,17-24.63,9.58-6.23-3.55-12.45-6.22-15.38-13.76-1.87-4.84-7.54-3.19-11.57-3.24-6.41-.07-12.85,1.13-17.71-4.79-1.82-2.22-4.39-1.68-6.87-.57-14.9,6.65-28.88,6.58-43.15-3-12.19-8.22-27-8.13-41.3-8.69-5.33-.21-10.68.14-16,.11-8.52,0-15.66-1.35-18.06-11.14a6,6,0,0,0-5.15-4.86c-3.68-.3-4.8,2.78-5.64,5.43-2.38,7.49-7.9,9.41-15,9.25-5.34-.13-10.7-.06-16,0-6.74,0-12.05-1.59-12.85-9.55-.39-3.93-2.47-6.6-6.48-7.53-1-.24-2.46-.32-3-1.05-6.79-9.45-11.64-7.12-19.28.46-7.07,7-32.27-.9-37.12-10a13.24,13.24,0,0,0-6.82-6.38,14.87,14.87,0,0,1-8.05-8c-4.54-10-8.3-10.84-14.92-2.25s-14.89,12.52-25.58,12.95c-8.24.32-12.72-3.38-14.77-10.88A72.51,72.51,0,0,1-335-205.56c.83-10.13-6-16.61-16.19-16.43-13.62.23-17,2.66-19.65,18-1.57,9-5.53,14.53-14.51,15.83-4.47.65-7.17,2.56-8.11,7-1.17,5.56-4.4,8.72-10.42,8.72-5.21,0-8.74-1.83-10.55-7.09A12.88,12.88,0,0,0-430-188c-18.42,4.47-36.63-2.77-55,.34-6,1-9.25,2.06-10.14,8-1.08,7.2-5.44,8.66-12.3,8.3a311.71,311.71,0,0,0-42.67.66c-13.16,1.12-14.52-.09-19-12.58-4-11.16-13.26-17.56-24-20.88-6.08-1.88-11.73,1.4-16.06,6.34-9.53,10.84-20.84,13.13-33.14,6.33-5.66-3.13-10.52-6-15.81.74-3.13,4-8,1.43-12.18,1.63-5.81.27-11.42.11-11.6,8.69-.12,5.93-5.38,7.9-10.42,9.14-5.86,1.46-11.21-.3-14-5.31-4.09-7.35-10.37-9.94-17.92-11.82-12-3-16.8-9.88-16.71-22.4.08-12-.43-12.55-12.48-12.77-6.39-.12-12.89.48-18.8-2.86-5.31-3-9.3,2.84-14.26,2.21a12.36,12.36,0,0,1-3.08-.48c-5.23-2.48-9-6.73-12.18-11.27-5.22-7.51-10.82-8-17.46-2.23-1.73,1-3.42,2.29-5.57,1.07"/><path class="cls-4" d="M1184.91,116.2c1.6,6.93,2.86,14,4.91,20.77s5.27,13,12.16,17.26c6.76-9,7.21-18.94,6-28.87-3.39-26.84-7.21-53.63-9-80.64-1.43-21-.84-42-.86-63.07,0-4.5,2.28-8.17,4.51-11.82s4.81-7.11,6.7-10.93c4.15-8.36,2.5-13.1-6.07-16.61-3.23-1.33-4.29-2.83-4.17-6.23,1.22-35.61,3-71.18,6.4-106.65.11-1.07.37-2.11.46-3.18,1.13-14.92-5.86-20.36-20-15.46-2.08-2.7-1.25-6.16-2.36-9.15-2.82-7.7-8.38-10.3-15.91-6.94-2.21,1-4,3.08-6.81,2-9.63-3.56-14.53,2.28-18.82,9.45-1.25,2.11-1.6,4.77-3.84,6.32-3.36-.71-1.69-3.38-1.78-5.08-.25-4.61,0-9.26-.09-13.89-.4-14.28-6.62-18.34-20-13.06-2.48-.82-1.91-3.47-3-5.17-4.85-7.95-13.29-9.13-19.36-1.9-3.58,4.27-6.47,7.41-12.88,7.27s-8.36,6.81-11.17,10.92c-2.45.84-3-.86-4-1.65-7.8-6-14.37-5-19.5,3.44-3.36,5.48-5.41,11.59-7.17,17.78-2.1,7.38-4.32,14.73-8,21.77.91-21.23,1.73-42.47,2.82-63.69a36.69,36.69,0,0,0-.65-10.58c-1.19-5-4.23-8.22-9.52-8.65s-9.2,2-11.1,6.67c-2,4.88-3.17,10.08-5,16.08-9.51-6.3-17.79.41-26.51,1.9-4.79.82-7,5.48-8.34,10.24-2.72,9.36-1.94,19.11-3.59,28.59-1.15,6.65-1.77,13.4-2.63,20.1-3,3.2,1.69,8.69-3.38,11.26-3-.88-4-3.83-5.78-5.9-2.22-2.52-5-4.8-8.24-3.44-10.54,4.48-24.2,5.63-24.83,21.62a9.26,9.26,0,0,1-1.47,3.94,7.08,7.08,0,0,1-2.34,2,14.4,14.4,0,0,1-6,1.45c-8.61-3.72-16.09-4.17-22.05,5.17-2.52,3.95-8.44,6-12.46,4.3-9.28-3.86-21-3.24-26.63-14.61-3.44-7-9.5-7.09-14.83-1.61-6,6.19-8.58,3.24-11-3.14-4.49-11.87-9.08-12.84-17.73-3.22-4.39,4.89-6.21,3.58-9.29-1.1-6.76-10.26-8.61-10.38-18.25-3.16a14.17,14.17,0,0,1-2.56,1.79c-.49.2-1,.37-1.48.57l-1.57.13c-.52-.08-1-.18-1.56-.25a27.88,27.88,0,0,1-3-.91c-9.46-2.53-16.68-9.18-24.94-13.9-9.4-5.37-13.57-4.64-18.15,5.38-4.47,9.78-6.44,20.28-8.09,30.83-.45,2.84-1,5.64-3.39,7.6a3.72,3.72,0,0,1-3,.45c-4.81-5.52-4.54-12.47-5.23-19.09-.44-4.25-.57-8.47-2.52-12.43-6.26-12.69-15.35-14.13-24.94-3.79-2.17,2.34-4.08,4.93-6.66,6.87-6.91,5.15-9.4,4.57-13.6-3.23-4.93-9.13-11.81-10.62-16.93-2.24-6,9.86-17.66,12.74-24,22.19-3.52,5.26-11.86,1.66-13.56-5.35-1.27-5.22-.49-10.64-.79-16-.11-5.29.42-10.62-.49-15.87-.75-4.34-2.24-8.72-7.4-9-5.69-.32-7.71,4.11-8.92,8.8a43.69,43.69,0,0,0-.88,12.65A139.53,139.53,0,0,1,585.52-124c-1.49,5.15-3.95,9.16-10.27,8-6.76-1.25-12,1.49-17.51,5.14-5.2,3.44-10.62,8.87-18,4-3.66-10.42-2.22-21.07-1-31.61.9-7.81,1.57-15.58.58-23.38-.52-4.09-2.25-7.89-6.8-8.48-4.81-.62-6.72,3.21-8.17,7-2.1,5.43-2,11.17-1.92,16.86.33,14.62-1.53,29-3.57,43.46-8,7.21-13.11,7.23-17.51-1.2-3.25-6.21-8.1-9.5-14-12-4.2-5.28-2.6-11.36-2.34-17.25.07-1.4.48-2.77.67-4.17,1.51-10.8-1.23-18.34-7.28-18.37-9.58,0-8.81,8.3-10.52,14.45-1,3.06-1.12,6.31-1.86,9.41-2.08,8.69-9,12.39-16.94,8.41a45.65,45.65,0,0,0-18.44-4.55c-10.63-.62-14.95-5.27-15.88-16-.47-5.42-.63-11.47-7.75-12.07-6.88-.58-8.63,5.09-10.19,10.35-.91,3.08-1.4,6.26-2,9.4-1.45,7.21-3.89,11-12.16,6.36-6.95-3.88-11.21.83-14.14,7-4.94,10.32-5,10.33-14.32,4.85-2.25-1.32-4.71-2.47-7.08-1.52-6,2.41-9.95-.32-14.15-4.29S323.73-128,320-123c-2.77,3.74-6,5.85-10.76,5.6-8-.43-9.66,7.51-14.47,11.33-3.41.37-4.57-2.17-5.87-4.52.23-15.56-11.24-24.25-20.39-34.16-4.53-4.91-9.74-3-13,4.1-6.37,13.84-9.63,14.9-22.87,7.46-7.45-4.2-12.39-2.47-16.14,5.53-1.94,4.15-1.91,9.07-5,12.77-5.47.51-4.4-4.88-6.64-7.29-7.17-8.28-8.79-8.43-15.58-.9-2.16,2.39-4.06,5.92-7.67,4.55-7.94-3-12.85.79-17.41,6.4-2.55,3.15-6.36,4.5-9.85,6.22-9.12,4.49-11.09,3.7-15.16-5.87-5.26-12.37-6.73-12.94-17.16-5.25-3,2.25-5.58,2.86-8.63.74-8.71-6-14.11-1.27-18,6.06-2.86,5.41-5.67,7.52-11.59,4.08-6.47-3.77-13.39-.32-18.25,2.66C54.51-96.73,42.12-90.27,40.14-74.86c-.62,4.82-.79,10-4.81,13.76-4.87-1-4.21-5.55-5.7-8.73-1-3.78-1-7.7-1.43-11.56C27-92,24.15-99.23,11.66-103.74c-9.38-3.39-20.75-4.38-28.92-13-5.21-5.51-21.29.46-29.89,8.86a6.34,6.34,0,0,1-4.53.43c-2.88-1.18-4-3.89-5.44-6.33-1.09-1.87-2.73-4.77-4.25-4.47-12,2.38-22-9.18-34.15-4.67-4.33,1.61-9.27.85-13.4,3.32a16.48,16.48,0,0,1-2.9,1.14l-1.56.16a19,19,0,0,1-4.61-.93c-2.06-.56-4.18-1.62-6.25-1.21-9.34,1.86-15.13-1-16.74-11.06-.62-3.89-3.63-6.05-7.78-5.91s-6.44,2.72-7.85,6.25c-2.57,6.46-2.18,14.22-9,18.83-1.82,1.24-.13,3.2,1,4.55,2.38,2.89,4,6.23,3,9.87-2.61,9.33,3.16,11.18,10.22,12,4.25.5,8.53.73,12.54,2.42,9.84,4.17,11.09,13.21,2.75,20-5.36,4.38-11.68,5-18.21,4.34-9.4-.91-18-4.29-26-9.18-3.06-1.86-6.07-4-9.87-2-2.17,1.17-4.91,2.14-5.18,4.93-.23,2.42,2.19,3.42,3.94,4.59,2.37,1.58,4.94,2.86,7.22,4.57,5.11,3.84,7.29,8.86,5,15-2.13,5.73-7,7.66-12.77,7.86-6.42.23-11.74-2.42-16.81-5.93-5.57-3.85-10.63-8.43-16.38-12-4.29-2.64-9.66-2.8-12.8,1-3.47,4.15,1.86,6.7,4,9.57,1.5,2,3.46,3.59,5,5.54,3.43,4.34,4.4,9,1.22,13.81-3.43,5.18-8.17,8-14.58,6.26-8-2.15-13.47-7.43-18-14.23-3.65-5.5-6.32-11.75-11.66-17.85-2.33,7.43.22,13.22.53,19,.17,3.18,1.26,6.29,1.12,9.53-.32,7.19-3.74,12.56-10.71,14.26-7.58,1.85-12-3.12-14.81-9.39-3-6.61-2.84-13.91-4.08-20.9-1-5.85-2.26-11.15-10.1-11.35-6.77-.18-11.72,1.19-14,8.48a66.75,66.75,0,0,1-8.59,17.15c-4.3,6.72-9.89,10.83-17.8,6.36-7.53-4.25-7.63-11.33-5.36-18.75.74-2.39,2-4.58,2.84-6.91,1.75-4.77,7.36-9.67,2.94-14.61-4.74-5.3-11.31-8.77-19.14-5.5l-.33.22a55.35,55.35,0,0,0-8.23,8.18c-3.65,4.36-7.23,8.78-11,13a37.45,37.45,0,0,1-6.19,5.82c-5.76,4.08-11.64,3.69-15.37-.68-3.36-3.94-3.31-9.65.87-14.59,6.89-8.13,14.13-16,21.24-23.9,1.39-1.55,2.85-3,4.85-5.2-5.18-4.29-10.19-8.06-14.73-12.33s-8.94-9.15-13.21-13.91a46.15,46.15,0,0,1-6.45-8.42c-3.36-6.19-1.82-12.81,3.23-16.08,5.28-3.41,10.72-2,15.42,4.51,7.82,10.72,16.84,20.15,28,27.42,8.48.14,14.63,5.42,21.26,9.63a52.77,52.77,0,0,0,12.36,5.48c13,5.49,26.09,7.31,40.53,6.18,20.54-1.62,41.14-1.21,61.54-5.67,19.69-4.31,34.75-16,49.58-28.25,6.46-5.32,5.3-12.92,2.16-19.71-2.66-5.78-7.56-7.11-13.44-4.56-4.53,2-6.53-.55-7.87-4.39-1.18-3.37-1.56-7-2.88-10.29-2.37-6-6.25-7.81-12.69-5.5-12.45,4.46-22.46,10.61-23.36,25.59-.17,3-.54,7.15-4.28,7.88s-6.35-2.58-8.66-5.28c-4.34-5.07-3.86-11.31-3.73-17.33.19-9.27-.73-17.37-12.76-18.12-4.09-.26-5.57-3.95-7.07-7.25s-3.8-6.22-8.05-5.77c-4.09.43-5.84,3.57-7.32,7-6.3,14.55-6.31,14.47-21.71,10.83A36.13,36.13,0,0,1-328-160c-7.69-2.44-10-8.06-9.69-15.63a97.8,97.8,0,0,0-1.92-25.41c-1-4.71-2.91-8.73-6.93-11.53-3.56-2.49-7.36-4.83-11.83-3-4.7,1.92-5,6.48-5.31,10.77-.36,5,.31,10-.55,14.88-.61,3.51-.5,8.48-6.72,6.48-7.46-1.52-12.13,1.49-15.21,8.39-2.39,5.34-6.37,6.77-12,5.48-1.38-.31-2.85-1.56-4-1.26-8.56,2.19-15.56,1.42-21.28-6.73-2.25-3.2-7.4-1.63-10.78.91-6.87,5.15-13.75,7.54-22.08,2.73-5.65-3.26-10.16.41-14.63,4.79-3.16-6.6-4.51-15.54-14.37-14.17-10.22,1.43-9.45,11.06-11.34,17.07-1.3,1.63-1.82,1.52-2.56.95-11.13-8.69-18.61-6.11-22.28,7.69-.55,2.06-1,4.17-1.43,6.25-5.69.64-1.66-5.16-4.33-6.52-.56-1.65-1-3.37-1.7-5-2.1-4.71-5.84-6.9-10.95-6.38s-8.5,3.72-9.31,8.61c-.94,5.68-3.32,10.64-5.91,15.6-2.83,4.76.45,10.34-2,15.15a3.11,3.11,0,0,1-.18,1.95,3,3,0,0,1-4.33,0,2.86,2.86,0,0,1-.15-1.91c-2.33-6.36.85-13.23-1.82-19.55-.95-6.35-4.49-11.65-6.78-17.33-3.06-7.58-8.07-13.71-11.39-20.91-3-6.45-6.69-9.2-11.84-8.63-6.09.67-9.45,4.7-10.85,10.18-1.64,6.49-2.68,13.13-4,19.71-3.71,1.12-3.86-2.36-4.71-4.13-3.64-7.6-9.22-9.63-16.91-6.72h0c-2.93,2.15-5.85,4.22-8.83.09-1.68-3.86-2.28-8.29-6.15-11-2.47-1.71-6.08-3.47-7.9-1.85-7.34,6.52-17.88-2.52-24.53,5.57-3.12,3.8-3.76,8.38-3.89,13.06-.16,6.08,0,12-6.57,15.67-2.79,1.56-3.37,5.3-4.23,8.41-3,2.12,1.7,8-4.29,8.62-.46-3.89-.91-7.79-1.38-11.68-.81-6.61-3.51-11.68-10.83-12.59-2.77-.34-4.05-1.61-5.4-4.16-6.13-11.68-10.95-12.3-21.2-3.39-.41.35-1.19.27-3.07.65,0-6.51-.46-12.86.11-19.11,1-11-7-18.14-11-27-.85-1.9-3.75-3.71-5.31-3-9.8,4.37-17.07-12.16-27.18-3.1-4.66,3.25-2.74,8.7-4.34,13-.09,2.75-.18,5.51-.26,8.26-4.67-.18-3.13-3.85-3.06-6.12.2-6.5-1.12-13.08.82-19.51,2.49-.06,5,0,7.09-1.79,3.83-3.24,7.49-3,11.65-.21,5.79,3.84,12.51,1.7,18.8,1.87,13.19.34,15.56,2.47,12.67,15-1.24,5.41,2.34,8.7,3.14,13.07,1,5.54,4.88,6.09,9.49,6.46,4,.32,7.3,3.29,12.05,2.61,3.47-.5,5.21,3.8,6.8,7.21,4.35,9.3,8.73,10.71,17.86,7.19,3.95-1.52,5.43-3.42,4.83-7.95-1-7.64-.2-8.11,7.37-8.4,3.53-.13,7.12-1.85,10.53-.45,4.77,2,7.33.78,8.63-4.24s4.49-4.77,8.24-2.65c1.86,1.06,4.24,1.56,5.63,3,7.89,8.28,17.11,4.53,26.07,3.16,2.79-.42,3.65-2.75,4.88-5.06,5.93-11.21,19.44-13.56,29.16-5.41,1.89,1.58,4.45,2.39,6.21,4.07,5.64,5.41,13.47,9.3,11.89,19.55-.75,4.92,3.4,6.59,7.86,6.38,8.35-.42,16.69-1.27,25-1.38,9-.12,18.12-1.17,27.15.47,6.11,1.11,7.88,0,7.47-6.31-.27-4.11,1.18-6.81,3.63-9.48,3.08-3.33,6.21-2.66,9.43-.12,1.29,1,2.56.35,3.9-.37,6.83-3.66,13.71-2.33,20.61-.09,4.66,1.52,9.14,1,14.09.57,8.93-.72,18.33-4.65,27.78.87,4,2.34,7.4,3.13,7,8.51-.31,4.33,2.64,5.42,6.3,5.18,3.31-.23,7.41,1.26,8.51-4,.79-3.8,1.95-7.51,2.95-11.28,3.68-.37,7.06.49,10.61-.85,7.57-2.85,9-3.89,8.68-12.05a10,10,0,0,1,2-6.91c3-3.68,5.13-7.1,4-12.33-.68-3.15,2.28-4.22,5.07-3.18a20.68,20.68,0,0,0,14.58.09c5.89-2,10.33,2.5,12.53,6,2.64,4.23,6.72,8.68,4.29,15.5-3.08,8.63,1.69,17.28,2.75,26,.51,4.1,6.11,6.46,10.79,5.89,2.81-.34,5.65-.49,8.48-.69,4.85-.33,8.87-2,11.76-6.23,2-2.92,4.77-5.3,6.77-8.21,2.45-3.57,5-5.68,9.72-4.08,4.36,1.49,7.84,3.09,7.16,8.73-.77,6.34,4.21,7.48,8.68,8.8,4.17,1.23,7.92,1.74,6.81,8.27-.79,4.66,3.57,7.42,8.42,7.66,6.72.33,13.44-.29,20.1,1.88,3.85,1.26,6.74-1.65,8.58-4.94,1-1.84,1.32-4.08,2.32-5.93,2.5-4.63,6.51-5,8.63-.13,2.63,6.06,5.38,10,12.93,9.75,4.43-.17,5,4.44,4.75,8.15-.6,7.51,1.64,8.63,8.66,8.45,6.77-.18,13.56-.28,20.33,0,5.13.24,8.42-1.74,9.21-6.71s2.17-9.25,7.7-10.14c3.72-.6,8.68,4.77,9.68,11.06,1,6,3.62,6.84,9.44,6.74,17.4-.3,34.93-.43,52,3.6,6.18,1.46,12.41,4.12,16.76,8.9,2.85,3.13,5.75,3.68,9.39,3.62,4.64-.07,9.27,0,13.91,0,4.27,0,7.93-.1,11.44-3.92,4.13-4.5,7.82-3.55,11.59,2.11,2.44,3.66,5.32,4.45,9.1,3.35,2.05-.59,4.31-2.18,6.13-1,4.27,2.87,8.62-1.39,12.31.31,4.12,1.91,1.3,7.24,3.58,10.6,1.58,2.31,3.62,3.1,5.9,4.12,2.89,1.31,6.1,1.65,8.82,3.67,2.32,1.73,3.18,7.65,6.77,5,4.42-3.33,11.77-4.88,11.33-12.78a17,17,0,0,1,0-2.14c.72-9.09,2-10.07,11.45-7.93,4.41,1,9.35.34,13,4.08.59.61,2.4,1,3,.53,7.08-5.46,17.15-3.88,23.78-10,2.48-2.28,5.09-3,7.73-2.15,4.38,1.38,7.46,1.24,9.21-3.69,2.25-6.3,7.75-5,12.67-5.14a7.6,7.6,0,0,1,8,7.11c.85,7.33,5.27,7.2,11,8.13,11.39,1.85,19.76-4.22,27.82-9.71,7.87-5.37,16-7.25,25-7.64,6.68-.3,13.47.93,18.83-5,2.33-2.6,6-1.31,9.07-.1,2.78,1.09,6.6,1.68,7.84-1,4-8.79,13.38-6.94,20-10.34,6.86-3.54,14.29.89,21.17,3.93,7.89,3.48,8.82,10.07,9.34,17.45.72,10.22,4.48,13,14.32,12.27,4-.3,5.19-2,6-5.79,1.76-8.55,7-11.74,15.27-10.17,7.07,1.36,14,.77,21.15,0A103.75,103.75,0,0,1,369-139c14.87,1.7,23.82-5.67,24.15-20.65.23-10.07.29-9.77,10.94-11.86,3.34-.65,6.2-2.31,10-1.53,5.49,1.12,9,2.85,9.29,9.39.25,6.17,5.21,11.64,2.78,18.51-.78,2.22,1.84,3.85,4,4.09,8.09.91,16.25-.16,24.38,1.84,4.18,1,6.78-2.89,7.07-8.52.33-6.36-.56-12.72,1.82-19,2-5.35,5-8.44,10.88-8.27,2.49.08,5,0,7.49,0,10.43.1,14.85,3.36,13,13-2,10.43-.77,20.91-2.72,31.19-.82,4.34,1.59,7.09,5,8.41,4.72,1.83,9.86,1.08,14.79.47,2.61-.32,3.25-2.59,3.15-4.84-.4-9.21.91-18.41-1.09-27.67-1.79-8.28-3.25-17.06,5.05-23.51,2.09-1.64,2.41-4,2-6.75-.91-6.36-.7-6.39,6.34-5.8.35,0,.79.27,1,.13,9.86-5.21,12.16,4.41,17.1,8.75a6.1,6.1,0,0,1,1.63,6c-2.17,10.4,2.2,21.12-1.82,31.5-1.08,2.8-.21,6.36-.21,9.57,0,13.59.94,14.31,14.67,13.09,3.49-.31,6.49-2.3,10.4-1.48,8,1.68,9.66.24,11-7.8a44.05,44.05,0,0,0,.28-6.41c.23-8.14-.25-16.24,1.75-24.4,1.3-5.32.62-11.16-1-16.87-2.08-7.32,2-12.77,9.57-13.5,6-.57,12.11-.06,18.18-.2,5-.11,6.65,3,5.47,6.87-1.28,4.2-.52,8.43-1.51,12.57a15.11,15.11,0,0,0,0,7.41c1,3.51.69,8.32,5.62,9.33s9.26,0,12.4-4.29c1-1.41,2.68-3,2.67-4.45-.08-8.43,6.87-9.31,11.84-9.11,7.38.3,15.58-2.34,22.21,3.42,2.4,2.09,4.59.74,6.9-.28,6.53-2.88,12.92-5,20.54-3.59,9.55,1.72,19.53-2.51,29.18,1.23a5.93,5.93,0,0,0,4.19-.32c9.7-4.48,19.28-1.5,29-.2,6.48.85,13.1-.91,19.79.5,6,1.27,12.23,3.29,18.39-1.11,3.16-2.25,5.64.71,7.6,3.68,4.41,6.68,4.55,6.58,10.46,2.26.82-.59,2.27-1.75,2.44-1.58,4.66,4.29,12.93,1.89,16.15,8.4,2.53,5.11,6,6.8,11.25,4.64,3.8-1.57,7.72-1,11.62-1.11s6.56,1.3,7.84,5.58c2.57,8.63,9.87,11.36,17.78,12.73,5.59,1,5.86-4.11,7.44-7.38,1.19-2.48-.66-6.64,2.28-7.78,3.87-1.5,7.91-3.44,12.3-2.95a63.82,63.82,0,0,0,7.31.22c6.72,0,10.26-2.55,12.08-9.29,2.13-7.94,2.68-7.19,10.9-6.79a95.72,95.72,0,0,0,20.8-1.66c4.26-.75,8.24-3.22,6.25-9-.93-2.66-.73-5.17,1.61-6.7,5.41-3.52,4.87-8.67,3-13.26-2.09-5.26,1.3-11.65-4.71-16.42-2.28-1.81,1.83-5.89,5.38-5.66,6.25.4,9.2-1.63,9.27-8.26,0-3.22,2.64-4.67,6.23-3.66a55.41,55.41,0,0,0,7.34,1c10.67,1.48,17.55-3.41,22.38-12.62,4.64-8.86,7.54-9.9,17.2-7.69,11.29,2.57,11.79,2.64,10.23,13.58-1,7.14,2.22,12.3,5.38,17.85-1.63,2.95-4.75-1.71-6.33,1.22-1.24,2.3-.1,4.08,1.37,5.75,2,2.26,4,3,6,0,2.75-4.29,7.07-4.11,10.29-2,3.78,2.5,6.45,1.49,9.79-.15,4.43-2.19,8.59-5.15,13.8-5.48,1-.06,2.68-.68,2.78-1.25,1.86-11,14.14-7.57,19.26-14,1.2-1.52,3.25-1.21,4.91-.22,5.39,3.21,12.2,4.21,15.46,10.73,1.45,2.91,4.15,5.37,7.7,4.88,7.72-1.06,10.41,5,13.93,9.58,1.82,2.39,1.51,7.1,5.37,7.18,5,.11,9.34,2.93,14.62,1.9,4.26-.83,7.19-5.56,12.58-3.25,9.46,4.06,19.15,7.55,25.72,16.06,1.3,1.69,2.36,3.4,4.23,4.66,7.75,5.26,9.19,9.72,4.72,17.37-2,3.5-3.14,7.08-1,9.91,5.4,7.12.89,13.36-.79,19.88-.24.95-1.42,1.62-1.82,2.56-2.11,5,4.81,9.91,2.3,12.81-3.25,3.72-5.6,6.57-5.08,11.62.28,2.71,1.59,4.46,3.16,6.48,2.83,3.66,5.65,7.72,5.35,12.54-1.21,19.27,3.47,38.3,2.15,57.52-.57,8.36-1.47,16.46-7.26,23.81-6.43,8.17-3.67,18.57-2.56,28,1.33,11.23,4,22.24,7,33.24,2.19,8.15,3.43,17.74-5.18,24.59-3.16,2.5-3.93,6.86-1.15,9.57,7.4,7.19,5.35,15.89,4.28,24.1-.52,4.08-1,7.52,1,11.18.83,1.51,1.87,3.59,1.44,5-3.3,10.74.73,21,2,31.37.5,4.23-1,7.77-2.09,11.36-1.28,4.39-10.11,4.91-12.42,1-3.87-6.55-9.76-11-15.75-16.72-2.66,9-3.87,17.19-3.39,25.63.76,13.1-1.55,26.31,1.83,39.37,1.06,4.07-2,8.11-1.92,12.53.3,12.48.18,25,.06,37.45,0,4.61.42,7.56,6.22,9.1,7.25,1.92,10.42,8.07,7.34,15.93-4,10.22-2.26,20.39-2.75,30.58-.33,6.77-.1,13.56-.06,20.34,0,4.94.31,9.5,2.78,14.35,3.45,6.77,1.29,14.67,1.16,22.1,0,2-2.07,2.6-3.63,3.47-2.32,1.28-2.75,3.35-1,5.29,3.5,4,4.4,6.95-1.34,10-3.53,1.88-2.3,5.35-.53,8.36,8.64,14.58,7.06,36.8-3.78,50.16-2.6,3.21-2.17,6.65-2.16,10.13,0,7.82.1,15.61-4,22.67-.81-16.43,1.85-32.68,2.73-49,1.31-24.52,3.58-49,5.59-73.49a551.89,551.89,0,0,0,1.81-60.86c-.25-9.17.53-18.74-8.82-24.9-2.66-1.75-1.66-5.27-1.62-8,.8-53.44-1.39-106.92,2.19-160.32,6,.69,1.33,6.4,4.08,8.62"/><path class="cls-5" d="M-336.76,473.57c.93-20.18-1.6-40.24-2.77-60.3-.91-15.53-1.14-31-1.7-46.56-.34-9.57-.27-9.58-10.12-10.54-2.43-.23-5,.06-6.83-2.14,2.47,0,4.95,0,7.41.12a40.12,40.12,0,0,0,41.56-32c.87-4.16,1.89-8.39,1.91-12.6.06-10.53-3.8-19.4-12.68-25.6-2.62-1.83-5.7-3.11-8-5.25-6.2-5.77-13.38-7.53-21.53-6.3,11.44-5.28,15-14.65,14.92-26.68-.19-38.41-1.35-76.89.58-115.21,1.66-33.06,1.37-66,1.33-99.07,0-17.37-3.29-34.64-2.07-52.08,3.82-7.65,7.77-15.25,10.4-23.42,1.15-3.58,3.12-5.2,6.95-5.11,20.92.47,16.89-2.18,20.89,16.78,1.18,5.57,1.4,11.34,2.79,16.83,1.7,6.68,7.17,10.4,12.38,9.28s9.15-6.44,8.5-13.11c-.76-7.77-2.35-15.46-3.42-23.2-.36-2.63-2-6,1.78-7.39s6.87-.1,8.3,4.23c2.27,6.86,6.67,12.54,10.72,18.39a24.61,24.61,0,0,0,12.62,9.45c5.75,2,11,.05,13.77-4.91s.8-8.9-2.93-12.32c-5.19-4.77-10.87-9.17-12.24-16.68,4.66-4,10.48-2.85,15.47-4.56,2.74-.93,4.59,1.22,6.43,2.94a124.47,124.47,0,0,0,18.72,14.15,21.59,21.59,0,0,0,13.18,3.59c4.71-.29,8.31-2.31,9.76-6.92,1.6-5.09-.22-9.28-4.74-11.86-5.52-3.16-11.46-5.62-16.39-10.63,3.33-4.79,8.82-6.26,12.68-9.75,2.46-2.23,4.52-.13,6.48,1.49a52.65,52.65,0,0,0,25.1,11.15c6,1,12.07,1.49,17.83-1.33,4.1-2,7.32-5.1,7.16-9.79-.16-4.93-4-7-8.43-8.41-3.83-1.21-7.73-1.11-11.61-1.59a28.78,28.78,0,0,1-11.12-3.54c-1.83-1.07-4.14-2.62-2.74-5,5.44-9.08,2.3-15.42-9.11-20.66C-164-114-161-119.59-160.87-127.61c.05-2.39,1.2-4.85,2.28-7.08,2.25-4.65,6.1-6.79,11.3-6.32s8.36,3.55,9.59,8.57c.83,3.38.23,7.17,3.36,10.52,5.77-2.06,12-4.12,17.67.75,1.42.69,2.11,3.46,4.45,1.58v0a4.08,4.08,0,0,0,2-2.11c7.1-4.16,15.43-3.61,23-5.92,3.55-1.07,6.67,1.77,9.12,4.46,1.77,1.94,3.3,2.8,6.34,2,10.71-2.91,14.06-1,18.33,9.58.39,1,.78,2,1.18,3,2.16,2,2.14,4.64,2.15,7.27,0,1,0,2,0,3.07,0-1,0-2,0-3.11,0-2.66,0-5.26,2.18-7.21,3-8,7.17-14.1,17.36-11.22,1.47.42,3.41-.59,5.07-1.12,6.25-2,11.4-.68,14.49,5.34,1.73,3.35,3.32,4.85,7.38,3.35,4.46-1.66,8.63.09,11.25,4,2.36,3.47,5.26,3.83,9.1,3.91,7.18.16,11.23,3.78,12.27,10.84C30.3-85.82,30.75-78,31.5-70.19a81.69,81.69,0,0,1,2,17v6.39a9.9,9.9,0,0,0,0-1.54c0-.72,0-1.43,0-2.16.3-3.8-.9-7.86,2-11.16.84-6,1.47-12,2.6-17.94,1.16-6.12,3.32-11.95,10.23-13.67,3.4-.85,4.22-3.24,5.43-5.85,2.26-4.87,5.85-7.93,11.63-7.81a9.82,9.82,0,0,0,5.1-1.14c7.11-4.42,13.49-3.89,18.85,3.22,10.06-21.84,18.15-20.95,28.67-11.59a56.9,56.9,0,0,1,4-4.86c6.84-6.79,15-5,18.55,3.82,1.65,4.07-.39,10.5,5.22,11.87,5,1.22,8.28-4.83,13.38-5.45,2.26-.28,3-2.9,4.3-4.51,7.49-8.89,9.42-9.33,20.53-4.3,3.47-4.66,4.89-12.32,12.87-12,5.16.22,8.45,3.32,10,8.23,2.07,7.7,2.78,15.48,1.37,21.2.25,3.62,2.48,2.31,1.09,2.64-.53.13-.82-.09-.81-.66.07-5.12-.32-10.33,2.43-15a37.73,37.73,0,0,1,4.38-16.28c4.6-8.72,13.49-10.43,19.9-3.06,3.8,4.38,7,4.29,11.8,3.08,3.46-.87,4.78-2.46,4.85-5.71a15.23,15.23,0,0,1,2.49-8c4.54-7,13-7.44,17.44-.32,2.66,4.31,4.79,8.29,10.2,9.86,3.6,1,5.21,4.81,5.91,8.32,1.12,5.54,1.75,11.18,2.58,16.77a25.79,25.79,0,0,1,1.95,9.12,48.92,48.92,0,0,1-.31,5.13c.54-2.12.28-4.13.49-6.1a6.43,6.43,0,0,1,1.85-4c4.55-12.41,5.19-13,16.88-13.1,2.55,0,3.64-1.09,5-2.93,8.16-10.8,14.14-10.58,21.81.55a18,18,0,0,0,2.14,2c3.6-2,7.56-4.87,12.39-3.22,4.31,1.48,6.61,5.18,9,9,10.39-23.72,13.43-25.35,28.75-15.19,1-4.68,1.79-9.15,2.76-13.59.91-4.17,1.65-8.44,4-12.08A10.59,10.59,0,0,1,408.43-160a9.53,9.53,0,0,1,8.16,7.47,36.34,36.34,0,0,1,1.21,8.42c.19,9.25,4.73,13.33,14,13.24,6-.06,11.93.3,17.29,3.93,7.22,4.88,13.47,1.89,14.78-6.73.37-2.43-.05-5,1.8-7.09,3.93,3.7,3.21,8.42,2.81,13-3.38,38-4.05,76.1-5.68,114.16-.53,12.52,2.34,24.8,2.26,37.33-.3,46-4.15,91.78-6.14,137.67-1.26,29.21-.14,58.47-.46,87.7-.06,5.91,1.07,12.4-5.24,16.41-10.14.57-20.11,3.05-30.4,2.29C411.57,267,411.3,267,410.52,256c-.23-3.2-.62-6.27-2.56-9a4,4,0,0,1-.06-5c2.28-2.82,3.46-5.72-.57-7.93-5.58-3-10.12-7.73-16.45-9.67A37.5,37.5,0,0,1,375.52,215c-9.21-9.14-21-14.57-31.24-22.24-1.14-.86-2.45-1.65-3.71-.26a2.85,2.85,0,0,0,0,3.9c4,4.62,2,7.86-1.67,11.69-18.44,19.28-34.78,40.54-54.84,58.29-6.41,5.67-13.05,11.07-18.66,17.54-4.48,5.18-4.4,6.16,1.12,10.43,1.93,1.49,3.1,3.27,3.15,5.23.32,13.24,11,19.95,18.09,28.81,2.15,2.69,6,2,9.09,2.18,4.9.25,9.82.06,14.51.06,1.54,2.76-2.84,5,0,7.2,2.51,2,4.67.2,6.81-1,3.6-2.05,6.52-5.5,11.85-5.74,0,8.24.41,16.26-.12,24.22a124.22,124.22,0,0,0,.38,24.46,112.46,112.46,0,0,1-.3,31.94,82.19,82.19,0,0,0,.27,28.67,34.45,34.45,0,0,1,.78,7.42c-.35,15.35,2,30.51,2.92,45.77,1.39,5.92-2.13,8.57-6.94,10.19-48.77,16.37-94.75,39.4-142,59.4-6.88,2.91-13.19,7.1-20.51,9-4.26-3.73-5.34-9.11-7-14.08-8.51-24.89-17.22-49.72-21-75.95-1.22-8.51-5-16.27-7.94-24.27q-10-27-19.38-54.23c-3.82-11.13-7.91-22.08-13.62-32.41-5.91-10.7-9.2-22.3-11.1-34.33-.61-9.15.79-19.18-10.41-23.66-2.41-3.41-3.32-8.18-8-9.59-5.87-1.81-7.63-5.82-7-11.5.33-2.88.48-5.79-2.84-7.32s-5.73.07-7.38,2.48c-2.91,4.22-7,3.93-11.38,4.28-19.43,1.6-38.25-3.13-57.34-5.06-26.63-2.68-53.41-3.22-80,.13-14.44,1.82-28.49-.63-42.49-2.75-18.5-2.79-36.8-3.58-55.13.47-3.52.78-6.38-.57-9.23-1.75-13.25-5.48-26.74-3.17-40-1-8.11,1.32-12.8,8.29-15.3,15.27-5.66,15.86-15.8,29.51-21.23,45.46-2.38,7-6.36,13.51-10.56,19.76a67.62,67.62,0,0,0-6.63,12.16c-4.38,10.78-.67,17.32,10.52,19.47,2.7.52,5.74-.61,8.07,1.56.57,2.07-.62,3.48-1.72,4.86-18,22.58-32.86,47.42-50.31,70.42a39,39,0,0,1-2.86,3.05"/><path class="cls-6" d="M215.36,5C217-7,218.54-19.11,220.29-32.43,223.12-19.28,222-6.37,215.36,5"/></g></g><g id="Vrstva_1" data-name="Vrstva 1"><g class="cls-7"><g class="cls-8"><path class="cls-3" d="M-3772.42,138.69V-521H3552.89v5491.3H-3772.42V4408c7.16-7.91,13.62-16.55,22.88-22.27,6.92-4.27,15.12-9.59,22.1-3.06,24.46,22.86,50.57,9.94,75.65,3.6,12.62-3.19,23.88-6,36.1-.3,7.58,3.53,15.76,4.35,23.26.25,13.06-7.15,24-7.39,36.37,3.23s25.68,4.38,35.94-5.46c16.11-15.46,34.06-28.69,50.58-43.65,18.93-17.13,25.67-15.33,37.16,7.36,10,19.75,22.35,22.75,40.66,9.49,8.69-6.29,15.57-14.63,23.39-21.92,7.23-6.75,14.84-15,24.85-14.48,22.89,1.07,41.59-7.4,58.95-20.91,9.72-7.57,17.53-5.63,24.51,4.54,8.63,12.57,20.23,15.66,35.1,10.81,22.15-7.23,35.2,3.38,43.53,23.6,10.39,25.2,18.51,28.35,42.87,15.36,17.75-9.46,33.35-18.79,54.1-4.85,11.66,7.83,23.72-1.84,33.49-10.11,9.53-8.07,19.69-15.32,29.53-23a47.68,47.68,0,0,1,13.66-6.83c1.25-.24,2.51-.44,3.77-.67,1.25.09,2.52.22,3.79.31,1.19.37,2.39.79,3.59,1.14,2.34.85,4.64,1.83,6.93,2.79,13.57,3.71,27.59,5.22,39.95,13.6,14,9.48,27.27,2.75,39.23-6,22.18-16.31,43.47-33.75,64.83-51.12,6.2-5,12.54-10.14,20.25-12.58,10.48-3.31,16-.27,12.11,11.59-2.73,8.34-8.75,16.23-5.7,25.42,5.57,16.75,18.83,16.89,32.71,13.05,13-3.58,19-1.8,20.3,14,2.2,27.11,17.13,32.37,39.14,15.56,7-5.37,12.47-12.71,20.64-16.7a13.52,13.52,0,0,1,11,.68c4.14,4.21,2.5,9.89,3.79,14.82,5.47,20.89,21.69,27.48,39.93,16,11.15-7,18.85-18.26,29.85-25.51,1.78-1.3,3.68-2.48,5.55-3.6.86-.59,1.8-1.13,2.65-1.72,1.6-1.23,3.27-2.4,4.88-3.61.72-.64,1.52-1.24,2.25-1.87,1.36-1.32,2.82-2.56,4.24-3.82.65-.64,1.37-1.25,2-1.9,1.26-1.3,2.61-2.54,3.94-3.77.63-.64,1.31-1.24,1.94-1.87,1.19-1.31,2.49-2.53,3.8-3.73,0,0,1.93-1.81,1.88-1.85,1.18-1.31,2.45-2.52,3.74-3.72,0-.05,1.91-1.82,1.87-1.87,1.19-1.34,2.47-2.57,3.76-3.8.62-.66,1.28-1.26,1.9-1.93,1.23-1.37,2.53-2.66,3.84-4,.64-.7,1.31-1.34,1.95-2,1.28-1.48,2.64-2.85,4-4.26.67-.76,1.37-1.45,2-2.21,1.34-1.61,2.75-3.11,4.18-4.65.73-.82,1.48-1.56,2.21-2.38,7.33-7.08,13.78-15,22.11-21.07a16.41,16.41,0,0,1,6.82-2c17.39,7.62,4.12,15.56-.72,21.49-12.22,15-28.11,26.66-39.34,42.61a65.33,65.33,0,0,1-4,5.76,68.84,68.84,0,0,0-9.18,14.63c-.85,2.26-1.8,4.44-2.68,6.67-3.93,10.25-2.08,20.53,5.29,27.33,12,11.12,20,24.52,28.4,38.19,9.53,15.44,31.47,15.52,49.48.85,16.57-13.5,30.53-29.88,45.93-44.71,35.35-34.05,81.51-29,107.47,11.55,6.73,10.52,15,20,23.31,29.15,15.38,16.85,40.2,10.86,64.29-14.29,15.63-16.47,33-22.18,55.46-13.2,19.47,7.78,38.93-.47,57.38-6.57,59.81-19.77,121-19.19,182.66-14.77,17.26,6.56,15.15,17.09,5.31,28.53-11,12.74-23.47,24-35.2,36-7.4,7.57-15.61,14.47-21.82,23.08-8.66,12-15.89,25.68-2.88,38.05,11.92,11.33,22.77.94,32.75-6.3,6.43-4.66,12.81-9.41,19-14.34,12-8.05,23.67-16.58,33.27-27.58,14.56-14.5,32.25-25.36,46.57-40.13a50.89,50.89,0,0,1,5.88-4,87.16,87.16,0,0,0,8.64-6.19c10-9,19-19.21,31.72-24.69a39.42,39.42,0,0,1,7.49-2.34c13.35-1.87,27.07-.72,40.06-5.32q73.18-4.07,146.2-10.47c6.29-.54,12.92-.59,18.31,2.47,17.76,10.09,34.42,4.38,51.11-2.49,19.11-7.87,38.73-13.16,59.62-12.48,12.2.4,21.59,4,28.32,16,12.66,22.52,20.41,24,42.38,11.76,7.76-4.34,14.84-9.83,23-13.6,29.8-12.28,22.8,15.27,30,27.55,9.22,17.35,23,17.49,38.8,10.42,15.6-7,29.43-16.84,43.53-26.31,5.84-3.93,12.54-8.62,19.4-2.49,5.68,5.08,3.13,11.78.58,17.44-18.52,41.13-12.84,76.33,24.54,104.34,11,8.22,13.34,20.5,14.29,33.37,1.16,15.77,7,28.89,25.28,28.42,16.92-.43,20.84,8.58,22.79,22.86,4.69,34.24,9.92,36.44,40.78,24.76,20.82-7.87,42.59-15.49,59.31,9.35,4.84,7.2,13.76,7.31,22.16,5.48,24.34-5.31,47.76-3.63,69.87,9,14.92,8.53,25.94,2.26,33.82-10.68,8.75-14.37,18-18.8,31.67-5.66,6.49,6.21,15.75,8.33,24.11,11.38,23.89,8.72,38.49,3.94,41.28-21.2,4.73-42.67,42.34-54.54,67.25-76.46,14.09-12.4,26-22.22,30.22-40.39,2-8.71,3.88-17.45,6-26.12,8-32.18,31.88-41.69,58-21.41,12.09,9.39,22.54,19.75,38.6,22.06,7.7,1.11,11,8.52,14.42,14.85,4.39,8,9.25,16.16,20,15,12.3-1.38,20.38-10.39,21.26-21.19,3-36.42,30.53-41.21,57.54-47.51,12,12.74,6.5,28.64,7.6,43.26,1.26,16.78-1.74,33.75,2.15,50.36,18,25.18,29,24.46,45.4-3.13,6.29-19.95-2-41.32,6.11-61a9.8,9.8,0,0,1,6.24-4.77c17.95,7.18,34.32,22.2,56.15,10.46,3.46-1.86,8.46,1.69,12.24,4.11,23,14.71,45.69,24,70,1.3,8.38-7.82,12.31.42,13.87,8,2.27,11.06-3.46,20.77-6,31-3.11,12.78.21,23.56,12.95,28.52,14,5.43,21.16-3.94,27.06-14.86,9.5-17.61,5.22-38.81,14.82-56.39,7.83-10.78-2.79-34.89,14.82-34,12.84.63,7.34,22.42,8.45,35,.84,9.41,4.64,16.75,10.87,23.3,14.62,18.38,31,18.35,49,5.18,8.63-6.3,17.76-12,26.3-18.39,16.46-12.38,31.95-18.8,49.23-.08,10.57,11.45,26.41,9.68,40.56,9,57-2.67,113.63-10.2,170.11-17.6,152.29-19.94,305-30.15,458.52-25.11,10.5.76,21.07.31,31.57,1.26,8.12.74,18.52,2.56,20.13,10.14,6.12,28.61,32.5,42.43,45.42,65.73,17.54,17.47,44.09,24.1,54.66,51,4.77,12.15,24.35,6.61,31.32-7.71,5.82-12,4.45-26.18,11.54-37.8a12.45,12.45,0,0,1,10.78-2.74c11.54,4.9,15.86,16.15,22.14,25.58,16.23,24.37,27.45,25,46.67,2.2,4-4.74,7.93-9.51,12.06-14.08,5-5.12,6.12-12,8.24-18.41a13.41,13.41,0,0,1,4.53-5.29,15.74,15.74,0,0,1,7.07-.88,19.06,19.06,0,0,1,6.52,3.23,26.93,26.93,0,0,0,13.66,6c26.51-4.46,49.8-14.71,64.49-38.25,8.77-14.05,16.86-13.4,30.66-5.93,20.33,11,40.74,18.95,51.76,42.71,7.36,15.88,24.65,15.56,34.27-.48,13.54-22.55,31-37.23,55.2-47.52,19.62-8.36,18.25-28.87,16.36-47.06-5.53-53-2.25-59,50.78-69.18,22.81-4.39,30.86-15.18,26.88-36.85-2.33-12.67-2.84-25.1,5.83-35.78,12-14.75,12.59-30.89,6.75-48-5.07-14.91-6.11-29.28,1.85-44,8.86-16.37,4.87-33.94-1.38-49.5-18.32-45.7,1.53-84.58,19.63-124,1.83-4,6.52-7.71,6-11.75-6.34-46.64,24.77-83.47,32.64-126.32,1.32-7.14,1.53-14.38-.32-21.3-19.55-73.19-3.49-147.6-7.65-221.31-.45-8-.13-17,4.87-23.29,18.4-23.08,16-50,16.33-76.76,1.69-127.75-1.43-255.68-7.61-383-7.43-152.92,9.91-303,26.47-453.72,3.51-32,3-64.16,7.09-96.12,2.09-16.29-3.76-30.59-22-34.93-16.79-4-20.38-16.29-19.78-30.49,2.53-59.93-5.87-119.48-5.68-179.3a125.86,125.86,0,0,0-12.75-56.74c-16.73-34.58-9.48-72.2-7.26-108.24,3.36-54.31,6-108.65,9.14-163a210.4,210.4,0,0,1,7.08-44.86c6.16-18.73,10.77-37.69,9.82-57.72-.56-11.8,1.84-22.77,9-32.9,25.73-36.32,23.37-75.29,8.7-114.64-4-10.66-2.32-19.66-.92-30.54,4.67-36.29,19.51-69.82,8.72-110.25-12-44.81-7.87-94.09-.36-141,3.26-20.35,4.92-37-17.56-47-12.76-5.66-13.2-18.36-12.88-30.07,1.05-38.33,1-76.7,2.22-115,1.16-37.06-2.19-74.72-2.49-112.16-.12-14.4,1.12-28.55,5.15-42.4,5.72-19.7,11-21.41,27.47-8.31,8.4,6.69,15.46,14.83,22.51,22.92,4.76,5.47,9.81,11.47,18,7.88,7.48-3.25,8.79-10.69,9.48-18,.58-6.28-.78-12.46-1.15-18.69-2.56-43.17-4.53-86.61-8.47-129.39-3.14-34-11.94-65.15,6.13-97.92,6.38-11.56-.48-28-4.78-41.78-9.35-30-13.31-61-15.29-92.3-1.33-20.92,3-39.85,13.92-58.75,18.29-31.74,14.24-67.66,11.18-102.25-1.82-20.48-4.33-40.85-3.73-61.41.62-20.93-1.11-41-14.49-58.55-5-6.57-8.85-15.72-5.82-22.7,9.73-22.34,2.4-47.24,12.36-69.52,5.51-12.29,6.45-25.85,1.18-39.2-3.38-8.56-4.54-18.11.06-26.1,11.55-20.07,2.7-32.4-12.6-45.67-13.47-11.68-25.36-25.15-41.54-33.34s-31.75-12.84-51-6.45c-25.87,8.61-46.57-.51-62.22-22.86-7.35-10.5-14.91-19.72-29-21.33-10.22-1.17-17.27-8.43-24.52-15.3-28.83-27.28-51.87-26.09-81.52.31-22.87,20.35-49.25,34.75-81.93,29.71-7.55-1.17-13.73,2.58-20.53,4.59-16.76,5-28.6-6.66-22.55-23,7.89-21.39-1.87-41.43-4.22-61.5-1.94-16.52-39.35-18-49-.69-17.59,31.46-42.15,44.58-77.34,39.62-8-1.13-13.63,2.93-16.92,10.33-1.44,3.25-2.53,8.15-5.46,9C705.07,174,717.68,199,721.5,219.45c4.86,26-10.94,45.93-17.24,68.49-2.93,10.48-16,13.8-27.07,14.23-14.29.55-28.42,3.61-42.75,2.82-10.26-.57-17.67,3.5-20.84,13.14-7.6,23.09-25.77,27.88-46.74,27.41-19.55-.43-34.64,3.79-41.06,25.7C521,387.8,507.42,391.55,491.24,387c-9.69-2.72-20.27-6.1-25.26-14.2-15.15-24.57-35-33.09-63.09-25.59-10.25,2.73-18.11-5.1-25-12.71-11.77-13-26.33-17.88-43.51-12.5-5.16,1.61-12.25,5.21-15.35,1.72-25.55-28.81-60.5-14.51-90.13-17.2-36.5-3.32-73.45-10.5-111.65-2.73-23.27,4.74-49.59.44-74.49-.86-16.29-.84-32.18-.43-47.34,6.2-12.17,5.33-23.63,4-36.28-.06-35.88-11.61-51.19-6.24-74.88,23.45-10.44,13.1-23.76,19.4-40.13,14.38-15.6-4.79-17-19.24-18.77-32.59-1.07-8,.95-16.07.72-24.07-.27-10,7.75-23.95-5.26-28.92a64.45,64.45,0,0,0-49.7,1.57c-13.11,6-10.46,18.54-9.41,30.51,3.37,38.4-4.68,76.35-5.92,114.63-.56,17-11.18,28.41-30.69,24.88-14.46-2.61-28.24,2.8-42.58,2.5-19.86-.42-29-8.69-29.78-29.06-1.37-34.81,7.79-69,4.08-104.06-1.54-14.6-5.73-26.17-16.16-35.11-13-11.11-26.14-4-35.81,9.08-28.54,38.72-11,81-12.83,121.67-1.47,32.59-9.33,40.47-40.25,36.87-22.62-2.63-29.78-12.33-30-35.65-.21-22.3,1.58-44.34,3.6-66.47,1.38-15.25-.8-29.54-20.68-30.82-18.28-1.17-36.66-2-43.54,21-3.39,11.33-2.77,23-3.54,34.55-1.81,27-10.34,34-37.82,31.74-3.56-.3.83.31-2.65-.42-17.38-3.6-36.82,3.3-52.4-7.26-16.38-11.12-8.07-31.57-13.67-47.25-6-16.79-11.65-29.38-32.86-27.23-20.85,2.12-31.69,10.07-32.81,33.22-1.55,31.92-24.83,52.95-56.85,51.09-40.15-2.34-80.23,3.08-120.26-.74-12.88-1.23-24.48,2-28.4,14.73-6.18,20.11-18.94,26.46-38.48,24.05-21.95-2.7-25.3-19.43-28.65-36.58-6.2-31.83-32.42-52.21-62.63-47.26-14.87,2.44-30.31,6.63-42.24,15.91-12.91,10.07-27.86,9.06-41.58,13.46-48.48,15.54-103.76,8.65-146.18,44.32-19,16-42.22,11.39-64.34,9-11.71-1.25-14.47-11.73-18.81-20.57-7.45-15.16-22.33-20.24-32.76-9-20.66,22.19-50.56,17.35-74,30.73-23.64,13.47-49.6,17.36-76.71,5.46-14-6.13-22.12.82-26.16,16.81-9.13,36.12-29.23,42.57-61.71,24-15.62-8.91-31.21-15.59-38.54-34.49-4.7-12.12-18.91-8-29-8.11-16.07-.17-32.21,2.83-44.39-12-4.55-5.54-11-4.21-17.21-1.43-37.34,16.66-72.36,16.5-108.09-7.61-30.56-20.61-67.77-20.36-103.5-21.78-13.35-.53-26.75.35-40.15.29-21.34-.09-39.23-3.39-45.25-27.93-1.49-6.07-5.91-11.59-12.91-12.16-9.21-.75-12,7-14.13,13.59-6,18.77-19.8,23.6-37.53,23.18-13.39-.32-26.8-.16-40.2-.07-16.89.12-30.19-4-32.2-23.93-1-9.83-6.2-16.52-16.24-18.86-2.61-.61-6.16-.8-7.48-2.63-17-23.68-29.16-17.84-48.32,1.15-17.72,17.56-80.84-2.25-93-25-4.08-7.66-9.44-12.72-17.1-16-9.43-4-15.76-10.5-20.16-20.18-11.38-25-20.82-27.17-37.39-5.64-16.83,21.88-37.31,31.39-64.1,32.44-20.62.81-31.85-8.45-37-27.24-5.68-20.78-8.66-41.61-6.88-63.48,2.06-25.4-15.12-41.64-40.59-41.19-34.11.59-42.55,6.69-49.21,45-3.93,22.61-13.87,36.39-36.36,39.66-11.2,1.63-18,6.4-20.33,17.65-2.93,13.92-11,21.83-26.09,21.84-13.06,0-21.91-4.59-26.44-17.78-6.36-18.5-24.06-24.84-39-21.21-46.14,11.19-91.77-6.94-137.86.86-14.93,2.53-23.16,5.15-25.4,20.15-2.68,18-13.61,21.67-30.8,20.77a781.73,781.73,0,0,0-106.9,1.67c-33,2.8-36.4-.24-47.54-31.53-10-27.95-33.22-44-60.23-52.32-15.23-4.69-29.38,3.52-40.24,15.88-23.87,27.18-52.22,32.91-83,15.87-14.18-7.84-26.36-15-39.6,1.87-7.85,10-20.15,3.56-30.51,4.06-14.55.69-28.62.28-29.06,21.78-.31,14.87-13.48,19.79-26.12,22.91-14.69,3.64-28.08-.75-35.07-13.32-10.24-18.42-26-24.89-44.91-29.62-30.16-7.54-42.08-24.73-41.86-56.12.2-30.1-1.08-31.42-31.26-32-16-.31-32.3,1.22-47.11-7.16-13.31-7.52-23.29,7.12-35.72,5.54a30.71,30.71,0,0,1-7.73-1.22c-13.09-6.2-22.59-16.84-30.51-28.23-13.09-18.81-27.09-20.05-43.76-5.57C-3762.79,138.6-3767,141.75-3772.42,138.69Z"/></g></g><g class="cls-9"><g class="cls-8"><path class="cls-3" d="M-5974.42,88.69V-571H1350.89v5491.3H-5974.42V4358c7.16-7.91,13.62-16.55,22.88-22.27,6.92-4.27,15.12-9.59,22.1-3.06,24.46,22.86,50.57,9.94,75.65,3.6,12.62-3.19,23.88-6,36.1-.3,7.58,3.53,15.76,4.35,23.26.25,13.06-7.15,24-7.39,36.37,3.23s25.68,4.38,35.94-5.46c16.11-15.46,34.06-28.69,50.58-43.65,18.93-17.13,25.67-15.33,37.16,7.36,10,19.75,22.35,22.75,40.66,9.49,8.69-6.29,15.57-14.63,23.39-21.92,7.23-6.75,14.84-15,24.85-14.48,22.89,1.07,41.59-7.4,58.95-20.91,9.72-7.57,17.53-5.63,24.51,4.54,8.63,12.57,20.23,15.66,35.1,10.81,22.15-7.23,35.2,3.38,43.53,23.6,10.39,25.2,18.51,28.35,42.87,15.36,17.75-9.46,33.35-18.79,54.1-4.85,11.66,7.83,23.72-1.84,33.49-10.11,9.53-8.07,19.69-15.32,29.53-23a47.68,47.68,0,0,1,13.66-6.83c1.25-.24,2.51-.44,3.77-.67,1.25.09,2.52.22,3.79.31,1.19.37,2.39.79,3.59,1.14,2.34.85,4.64,1.83,6.93,2.79,13.57,3.71,27.59,5.22,39.95,13.6,14,9.48,27.27,2.75,39.23-6,22.18-16.31,43.47-33.75,64.83-51.12,6.2-5,12.54-10.14,20.25-12.58,10.48-3.31,16-.27,12.11,11.59-2.73,8.34-8.75,16.23-5.7,25.42,5.57,16.75,18.83,16.89,32.71,13.05,12.95-3.58,19-1.8,20.3,14,2.2,27.11,17.13,32.37,39.14,15.56,7-5.37,12.47-12.71,20.64-16.7a13.52,13.52,0,0,1,11,.68c4.14,4.21,2.5,9.89,3.79,14.82,5.47,20.89,21.69,27.48,39.93,16,11.15-7,18.85-18.26,29.85-25.51,1.78-1.3,3.68-2.48,5.55-3.6.86-.59,1.8-1.13,2.65-1.72,1.6-1.23,3.27-2.4,4.88-3.61.72-.64,1.52-1.24,2.25-1.87,1.36-1.32,2.82-2.56,4.24-3.82.65-.64,1.37-1.25,2-1.9,1.26-1.3,2.61-2.54,3.94-3.77.63-.64,1.31-1.24,1.94-1.87,1.19-1.31,2.49-2.53,3.8-3.73-.05,0,1.93-1.81,1.88-1.85,1.18-1.31,2.45-2.52,3.74-3.72,0-.05,1.91-1.82,1.87-1.87,1.19-1.34,2.47-2.57,3.76-3.8.62-.66,1.28-1.26,1.9-1.93,1.23-1.37,2.53-2.66,3.84-4,.64-.7,1.31-1.34,2-2,1.28-1.48,2.64-2.85,4-4.26.67-.76,1.37-1.45,2-2.21,1.34-1.61,2.75-3.11,4.18-4.65.73-.82,1.48-1.56,2.21-2.38,7.33-7.08,13.78-15,22.11-21.07a16.41,16.41,0,0,1,6.82-2c17.39,7.62,4.12,15.56-.72,21.49-12.22,15-28.11,26.66-39.34,42.61a65.33,65.33,0,0,1-4,5.76,68.84,68.84,0,0,0-9.18,14.63c-.85,2.26-1.8,4.44-2.68,6.67-3.93,10.25-2.08,20.53,5.29,27.33,12,11.12,20,24.52,28.4,38.19,9.53,15.44,31.47,15.52,49.48.85,16.57-13.5,30.53-29.88,45.93-44.71,35.35-34.05,81.51-29,107.47,11.55,6.73,10.52,15,20,23.31,29.15,15.38,16.85,40.2,10.86,64.29-14.29,15.63-16.47,33-22.18,55.46-13.2,19.47,7.78,38.93-.47,57.38-6.57,59.81-19.77,121-19.19,182.66-14.77,17.26,6.56,15.15,17.09,5.31,28.53-10.95,12.74-23.47,24-35.2,36-7.4,7.57-15.61,14.47-21.82,23.08-8.66,12-15.89,25.68-2.88,38.05,11.92,11.33,22.77.94,32.75-6.3,6.43-4.66,12.81-9.41,19-14.34,12-8.05,23.67-16.58,33.27-27.58,14.56-14.5,32.25-25.36,46.57-40.13a50.89,50.89,0,0,1,5.88-4,87.16,87.16,0,0,0,8.64-6.19c9.95-9,19-19.21,31.72-24.69a39.42,39.42,0,0,1,7.49-2.34c13.35-1.87,27.07-.72,40.06-5.32q73.18-4.07,146.2-10.47c6.29-.54,12.92-.59,18.31,2.47,17.76,10.09,34.42,4.38,51.11-2.49,19.11-7.87,38.73-13.16,59.62-12.48,12.2.4,21.59,4,28.32,16,12.66,22.52,20.41,24,42.38,11.76,7.76-4.34,14.84-9.83,22.95-13.6,29.8-12.28,22.8,15.27,30,27.55,9.22,17.35,23,17.49,38.8,10.42,15.6-7,29.43-16.84,43.53-26.31,5.84-3.93,12.54-8.62,19.4-2.49,5.68,5.08,3.13,11.78.58,17.44-18.52,41.13-12.84,76.33,24.54,104.34,11,8.22,13.34,20.5,14.29,33.37,1.16,15.77,7,28.89,25.28,28.42,16.92-.43,20.84,8.58,22.79,22.86,4.69,34.24,9.92,36.44,40.78,24.76,20.82-7.87,42.59-15.49,59.31,9.35,4.84,7.2,13.76,7.31,22.16,5.48,24.34-5.31,47.76-3.63,69.87,9,14.92,8.53,25.94,2.26,33.82-10.68,8.75-14.37,18-18.8,31.67-5.66,6.49,6.21,15.75,8.33,24.11,11.38,23.89,8.72,38.49,3.94,41.28-21.2,4.73-42.67,42.34-54.54,67.25-76.46,14.09-12.4,26-22.22,30.22-40.39,2-8.71,3.88-17.45,6-26.12,8-32.18,31.88-41.69,58-21.41,12.09,9.39,22.54,19.75,38.6,22.06,7.7,1.11,10.95,8.52,14.42,14.85,4.39,8,9.25,16.16,20,15,12.3-1.38,20.38-10.39,21.26-21.19,3-36.42,30.53-41.21,57.54-47.51,12,12.74,6.5,28.64,7.6,43.26,1.26,16.78-1.74,33.75,2.15,50.36,18,25.18,29,24.46,45.4-3.13,6.29-19.95-2-41.32,6.11-61a9.8,9.8,0,0,1,6.24-4.77c18,7.18,34.32,22.2,56.15,10.46,3.46-1.86,8.46,1.69,12.24,4.11,23,14.71,45.69,24,70,1.3,8.38-7.82,12.31.42,13.87,8,2.27,11.06-3.46,20.77-6,31-3.11,12.78.21,23.56,12.95,28.52,14,5.43,21.16-3.94,27.06-14.86,9.5-17.61,5.22-38.81,14.82-56.39,7.83-10.78-2.79-34.89,14.82-34,12.84.63,7.34,22.42,8.45,35,.84,9.41,4.64,16.75,10.87,23.3,14.62,18.38,31,18.35,49,5.18,8.63-6.3,17.76-12,26.3-18.39,16.46-12.38,31.95-18.8,49.23-.08,10.57,11.45,26.41,9.68,40.56,9,57-2.67,113.63-10.2,170.11-17.6,152.29-19.94,305-30.15,458.52-25.11,10.5.76,21.07.31,31.57,1.26,8.12.74,18.52,2.56,20.13,10.14,6.12,28.61,32.5,42.43,45.42,65.73,17.54,17.47,44.09,24.1,54.66,51,4.77,12.15,24.35,6.61,31.32-7.71,5.82-12,4.45-26.18,11.54-37.8a12.45,12.45,0,0,1,10.78-2.74c11.54,4.9,15.86,16.15,22.14,25.58,16.23,24.37,27.45,25,46.67,2.2,4-4.74,7.93-9.51,12.06-14.08,5-5.12,6.12-12,8.24-18.41a13.41,13.41,0,0,1,4.53-5.29,15.74,15.74,0,0,1,7.07-.88,19.06,19.06,0,0,1,6.52,3.23,26.93,26.93,0,0,0,13.66,6c26.51-4.46,49.8-14.71,64.49-38.25,8.77-14.05,16.86-13.4,30.66-5.93,20.33,11,40.74,18.95,51.76,42.71,7.36,15.88,24.65,15.56,34.27-.48,13.54-22.55,31-37.23,55.2-47.52,19.62-8.36,18.25-28.87,16.36-47.06-5.53-53-2.25-59,50.78-69.18,22.81-4.39,30.86-15.18,26.88-36.85-2.33-12.67-2.84-25.1,5.83-35.78,12-14.75,12.59-30.89,6.75-48-5.07-14.91-6.11-29.28,1.85-44,8.86-16.37,4.87-33.94-1.38-49.5-18.32-45.7,1.53-84.58,19.63-124,1.83-4,6.52-7.71,6-11.75-6.34-46.64,24.77-83.47,32.64-126.32,1.32-7.14,1.53-14.38-.32-21.3-19.55-73.19-3.49-147.6-7.65-221.31-.45-8-.13-17,4.87-23.29,18.4-23.08,16-50,16.33-76.76,1.69-127.75-1.43-255.68-7.61-383-7.43-152.92,9.91-303,26.47-453.72,3.51-32,3-64.16,7.09-96.12,2.09-16.29-3.76-30.59-22-34.93-16.79-4-20.38-16.29-19.78-30.49,2.53-59.93-5.87-119.48-5.68-179.3A125.86,125.86,0,0,0-969.64,2215c-16.73-34.58-9.48-72.2-7.26-108.24,3.36-54.31,6-108.65,9.14-163a210.4,210.4,0,0,1,7.08-44.86c6.16-18.73,10.77-37.69,9.82-57.72-.56-11.8,1.84-22.77,9-32.9,25.73-36.32,23.37-75.29,8.7-114.64-4-10.66-2.32-19.66-.92-30.54,4.67-36.29,19.51-69.82,8.72-110.25-12-44.81-7.87-94.09-.36-141,3.26-20.35,4.92-37-17.56-47-12.76-5.66-13.2-18.36-12.88-30.07,1-38.33,1-76.7,2.22-115,1.16-37.06-2.19-74.72-2.49-112.16-.12-14.4,1.12-28.55,5.15-42.4,5.72-19.7,11-21.41,27.47-8.31,8.4,6.69,15.46,14.83,22.51,22.92,4.76,5.47,9.81,11.47,18,7.88,7.48-3.25,8.79-10.69,9.48-18,.58-6.28-.78-12.46-1.15-18.69-2.56-43.17-4.53-86.61-8.47-129.39-3.14-34-11.94-65.15,6.13-97.92,6.38-11.56-.48-28-4.78-41.78-9.35-30-13.31-61-15.29-92.3-1.33-20.92,3-39.85,13.92-58.75,18.29-31.74,14.24-67.66,11.18-102.25-1.82-20.48-4.33-40.85-3.73-61.41.62-20.93-1.11-41-14.49-58.55-5-6.57-8.85-15.72-5.82-22.7,9.73-22.34,2.4-47.24,12.36-69.52,5.51-12.29,6.45-25.85,1.18-39.2-3.38-8.56-4.54-18.11.06-26.1,11.55-20.07,2.7-32.4-12.6-45.67-13.47-11.68-25.36-25.15-41.54-33.34s-31.75-12.84-51-6.45c-25.87,8.61-46.57-.51-62.22-22.86-7.35-10.5-14.91-19.72-29-21.33-10.22-1.17-17.27-8.43-24.52-15.3-28.83-27.28-51.87-26.09-81.52.31-22.87,20.35-49.25,34.75-81.93,29.71-7.55-1.17-13.73,2.58-20.53,4.59-16.76,5-28.6-6.66-22.55-23,7.89-21.39-1.87-41.43-4.22-61.5-1.94-16.52-39.35-18-49-.69-17.59,31.46-42.15,44.58-77.34,39.62-8-1.13-13.63,2.93-16.92,10.33-1.44,3.25-2.53,8.15-5.46,9-33.94,9.42-21.33,34.46-17.51,54.91,4.86,26-10.94,45.93-17.24,68.49-2.93,10.48-16,13.8-27.07,14.23-14.29.55-28.42,3.61-42.75,2.82-10.26-.57-17.67,3.5-20.84,13.14-7.6,23.09-25.77,27.88-46.74,27.41-19.55-.43-34.64,3.79-41.06,25.7-4.85,16.56-18.38,20.31-34.56,15.78-9.69-2.72-20.27-6.1-25.26-14.2-15.15-24.57-35-33.09-63.09-25.59-10.25,2.73-18.11-5.1-25-12.71-11.77-13-26.33-17.88-43.51-12.5-5.16,1.61-12.25,5.21-15.35,1.72-25.55-28.81-60.5-14.51-90.13-17.2-36.5-3.32-73.45-10.5-111.65-2.73-23.27,4.74-49.59.44-74.49-.86-16.29-.84-32.18-.43-47.34,6.2-12.17,5.33-23.63,4-36.28-.06-35.88-11.61-51.19-6.24-74.88,23.45-10.44,13.1-23.76,19.4-40.13,14.38-15.6-4.79-17-19.24-18.77-32.59-1.07-8,1-16.07.72-24.07-.27-10,7.75-23.95-5.26-28.92a64.45,64.45,0,0,0-49.7,1.57c-13.11,6-10.46,18.54-9.41,30.51,3.37,38.4-4.68,76.35-5.92,114.63-.56,17-11.18,28.41-30.69,24.88-14.46-2.61-28.24,2.8-42.58,2.5-19.86-.42-29-8.69-29.78-29.06-1.37-34.81,7.79-69,4.08-104.06-1.54-14.6-5.73-26.17-16.16-35.11-13-11.11-26.14-4-35.81,9.08-28.54,38.72-11,81-12.83,121.67-1.47,32.59-9.33,40.47-40.25,36.87-22.62-2.63-29.78-12.33-30-35.65-.21-22.3,1.58-44.34,3.6-66.47,1.38-15.25-.8-29.54-20.68-30.82-18.28-1.17-36.66-2-43.54,21-3.39,11.33-2.77,23-3.54,34.55-1.81,27-10.34,34-37.82,31.74-3.56-.3.83.31-2.65-.42-17.38-3.6-36.82,3.3-52.4-7.26-16.38-11.12-8.07-31.57-13.67-47.25-6-16.79-11.65-29.38-32.86-27.23-20.85,2.12-31.69,10.07-32.81,33.22-1.55,31.92-24.83,52.95-56.85,51.09-40.15-2.34-80.23,3.08-120.26-.74-12.88-1.23-24.48,2-28.4,14.73-6.18,20.11-18.94,26.46-38.48,24.05-21.95-2.7-25.3-19.43-28.65-36.58-6.2-31.83-32.42-52.21-62.63-47.26-14.87,2.44-30.31,6.63-42.24,15.91-12.91,10.07-27.86,9.06-41.58,13.46-48.48,15.54-103.76,8.65-146.18,44.32-19,16-42.22,11.39-64.34,9-11.71-1.25-14.47-11.73-18.81-20.57-7.45-15.16-22.33-20.24-32.76-9-20.66,22.19-50.56,17.35-74,30.73-23.64,13.47-49.6,17.36-76.71,5.46-14-6.13-22.12.82-26.16,16.81-9.13,36.12-29.23,42.57-61.71,24-15.62-8.91-31.21-15.59-38.54-34.49-4.7-12.12-18.91-8-29-8.11-16.07-.17-32.21,2.83-44.39-12-4.55-5.54-11-4.21-17.21-1.43-37.34,16.66-72.36,16.5-108.09-7.61-30.56-20.61-67.77-20.36-103.5-21.78-13.35-.53-26.75.35-40.15.29-21.34-.09-39.23-3.39-45.25-27.93-1.49-6.07-5.91-11.59-12.91-12.16-9.21-.75-12,7-14.13,13.59-6,18.77-19.8,23.6-37.53,23.18-13.39-.32-26.8-.16-40.2-.07-16.89.12-30.19-4-32.2-23.93-1-9.83-6.2-16.52-16.24-18.86-2.61-.61-6.16-.8-7.48-2.63-17-23.68-29.16-17.84-48.32,1.15-17.72,17.56-80.84-2.25-93-25-4.08-7.66-9.44-12.72-17.1-16-9.43-4-15.76-10.5-20.16-20.18-11.38-25-20.82-27.17-37.39-5.64-16.83,21.88-37.31,31.39-64.1,32.44-20.62.81-31.85-8.45-37-27.24-5.68-20.78-8.66-41.61-6.88-63.48,2.06-25.4-15.12-41.64-40.59-41.19-34.11.59-42.55,6.69-49.21,45-3.93,22.61-13.87,36.39-36.36,39.66-11.2,1.63-18,6.4-20.33,17.65-2.93,13.92-11,21.83-26.09,21.84-13.06,0-21.91-4.59-26.44-17.78-6.36-18.5-24.06-24.84-39.05-21.21-46.14,11.19-91.77-6.94-137.86.86-14.93,2.53-23.16,5.15-25.4,20.15-2.68,18-13.61,21.67-30.8,20.77a781.73,781.73,0,0,0-106.9,1.67c-33,2.8-36.4-.24-47.54-31.53-9.95-28-33.22-44-60.23-52.32-15.23-4.69-29.38,3.52-40.24,15.88-23.87,27.18-52.22,32.91-83,15.87-14.18-7.84-26.36-15-39.6,1.87-7.85,10-20.15,3.56-30.51,4.06-14.55.69-28.62.28-29.06,21.78-.31,14.87-13.48,19.79-26.12,22.91-14.69,3.64-28.08-.75-35.07-13.32-10.24-18.42-26-24.89-44.91-29.62-30.16-7.54-42.08-24.73-41.86-56.12.2-30.1-1.08-31.42-31.26-32-16-.31-32.3,1.22-47.11-7.16-13.31-7.52-23.29,7.12-35.72,5.54a30.71,30.71,0,0,1-7.73-1.22c-13.09-6.2-22.59-16.84-30.51-28.23-13.09-18.81-27.09-20-43.76-5.57C-5964.79,88.6-5969,91.75-5974.42,88.69Z"/></g></g><path class="cls-10" d="M130.86,45.58V36.8l17.3-15.67c2.2-2.07,3.64-4.14,3.64-6.84A5.15,5.15,0,0,0,146.28,9c-3.51,0-5.83,2.76-6.27,6.71l-10.09-1.39c1-9,8.28-14.29,16.93-14.29C155,0,162.9,4.33,162.9,13.61c0,6.33-3.7,10-7.78,13.66l-10.28,9.16H163v9.15Z"/><path class="cls-11" d="M13.79,13.29H2.18L1.09,28V11.69H12.18A15.41,15.41,0,0,1,23.88,17a15.45,15.45,0,0,0-10.09-3.72M11.05,37.9H9V18.47h2.12c5.8,0,9.9,3.5,9.9,9.72,0,6.76-4.6,9.71-10,9.71M12.8,10.83H0V45.54H12.8a17.36,17.36,0,1,0,0-34.71"/><path class="cls-12" d="M43.81,13.34H32.72L31.91,28V11.74l11.79.06c4.38,0,6.93,2,9.56,5.26a13.94,13.94,0,0,0-9.45-3.72m-3,13.05H40V17.73h.88c2.95,0,6.26.56,6.26,4.33s-3.31,4.33-6.26,4.33m8.06,4.93c4.92-.88,7.59-5,7.59-9.81,0-7.41-5.2-10.68-12.06-10.68H30.94V45.54h9V32.19h.1l8.51,13.35H59.81Z"/><path class="cls-13" d="M66,11.6,60.9,13.11,59.58,25.29V11.6Zm-7.43-.77V45.54h9V10.83Z"/><path class="cls-14" d="M106.94,13.11l-1.32,12.18V11.6H112Zm24.53,3.17L129.68,16a1.77,1.77,0,0,1-1.51-1.94q.09-.7.21-1.38h0l-2.24.4-8.25,8.38,7.55-9.91h3.18v0c.06-.27.13-.53.21-.79h-4L114,25.15h-.09V10.83h-9V45.54h9v-15H114L125.6,45.54h3.5V36.8a1.74,1.74,0,0,1,.26-.89l-7.12-8.65Z"/><path class="cls-15" d="M209.55,37.65c-5.3,0-9.64-4.3-9.64-10.18,0-4.71,4.34-9,9.64-9s9.63,4.3,9.63,9c0,5.88-4.34,10.18-9.63,10.18M193,31a21.34,21.34,0,0,0,.69,5.47,18.82,18.82,0,0,1-1.63-7.89c0-10.72,7.26-17.76,17.88-17.76a16.67,16.67,0,0,1,9.25,2.53,19.16,19.16,0,0,0-7.12-1.28C200.73,12.06,193,19.56,193,31M166.26,12.73a17.73,17.73,0,0,1,13.4.09,19.73,19.73,0,0,0-2.88-.22,19.1,19.1,0,0,0-7,1.35,27,27,0,0,1-2.47,2.43l-1.6,1.43a17.32,17.32,0,0,0,.57-5.08m43.29-2.86c-9.38,0-18.06,6.61-18.81,16.2H175.25v7h7.24C182.12,37,179.18,39,175.34,39c-5.84,0-9-5.38-9-10.68s3-10.77,8.87-10.77c3.58,0,6.16,2.17,7.38,5.43L191,19.41c-2.95-6.38-8.38-9.54-15.39-9.54a19.52,19.52,0,0,0-11,3.08c0,.22,0,.43,0,.65,0,6.51-3.47,10.53-7.54,14.25,0,.13,0,.25,0,.39a20.07,20.07,0,0,0,1,6.43H163a1.76,1.76,0,0,1,1.76,1.76V43.3a19.17,19.17,0,0,0,10.57,3c5.7,0,10.73-2,14.08-6.7a17,17,0,0,0,2.49-5.13c2.6,7.19,9.24,11.83,17.69,11.83,10.95,0,18.87-7.79,18.87-18.83,0-10.32-9-17.55-18.87-17.55"/><path class="cls-16" d="M76.28,11.6,71.2,13.11,69.87,25.29V11.6Zm25.54,0-5.08,1.51L95.42,25.29V11.6Zm1.73-.77h-9V32.05h-.09L77.9,10.83h-9V45.54h9V24.27H78L94.52,45.54h9Z"/></g></svg>