<svg id="Vrstva_1" data-name="Vrstva 1" xmlns="http://www.w3.org/2000/svg" viewBox="0 0 318.87 98.45"><defs><style>.cls-1{fill:#575756;}.cls-2{fill:#c61617;}</style></defs><path class="cls-1" d="M54.74,40.58a13.13,13.13,0,0,1,10.61,5.09V31.25a28.58,28.58,0,0,0-11-2.33,25.27,25.27,0,0,0-17.71,7.49,24.12,24.12,0,0,0-6.85,16.93c0,6.86,2.35,12.88,7.47,17.48a26,26,0,0,0,17.46,6.8c3.77,0,6.67-.92,10.68-2.14V61.06A13.93,13.93,0,0,1,54.92,66C47.39,66,42.33,60.7,42.33,53.4S47.33,40.58,54.74,40.58Z"/><path class="cls-1" d="M97,30.16H83.75L65.85,76.69H78.68l3.21-8.09H98.56l3,8.09h12.9ZM85.23,59.35l5-14.81h.13l4.94,14.81Z"/><path class="cls-2" d="M157.42,76.59V64.74l23.36-21.16c3-2.79,4.91-5.59,4.91-9.23,0-4.23-3-7.19-7.44-7.19-4.74,0-7.88,3.72-8.47,9.06l-13.62-1.87c1.35-12.1,11.17-19.3,22.85-19.3,11,0,21.67,5.84,21.67,18.37,0,8.55-5,13.55-10.5,18.45L176.3,64.23h24.46V76.59Z"/><path class="cls-1" d="M263.66,65.88c-7.15,0-13-5.8-13-13.74,0-6.36,5.87-12.16,13-12.16s13,5.8,13,12.16c0,7.94-5.87,13.74-13,13.74m0-37.51c-12.67,0-24.38,8.93-25.4,21.87H217.35v9.41h9.77c-.49,5.32-4.46,8-9.65,8-7.88,0-12.15-7.27-12.15-14.42s4.09-14.53,12-14.53c4.83,0,8.31,2.93,10,7.33l11.36-4.77c-4-8.61-11.3-12.89-20.77-12.89A26.46,26.46,0,0,0,203,32.53c0,.3,0,.59,0,.89,0,8.79-4.7,14.21-10.19,19.23,0,.17,0,.35,0,.52a27.39,27.39,0,0,0,1.36,8.69h6.55a2.37,2.37,0,0,1,2.37,2.37v9.28a25.84,25.84,0,0,0,14.28,4c7.7,0,14.48-2.75,19-9a22.8,22.8,0,0,0,3.37-6.92c3.51,9.7,12.47,16,23.88,16,14.78,0,25.47-10.51,25.47-25.42,0-13.93-12.22-23.7-25.47-23.7"/><path class="cls-1" d="M155.2,76.59V64.74a2.2,2.2,0,0,1,.73-1.65l3.1-2.82V37l-3.18-.44a2.23,2.23,0,0,1-1.91-2.46,25.92,25.92,0,0,1,.77-3.94h-7.77V58.61h-.12L124.66,30.16h-12.1V76.69h12.1V48.18h.12l22.16,28.51h8.27A.34.34,0,0,1,155.2,76.59Z"/></svg>