<svg xmlns="http://www.w3.org/2000/svg" xmlns:xlink="http://www.w3.org/1999/xlink" viewBox="0 0 1832.17 1037.78"><defs><style>.cls-1{fill:none;}.cls-2{fill:#3e7496;}.cls-3{clip-path:url(#clip-path);}.cls-4{opacity:0.08;}.cls-5{fill:#fff;}.cls-6{fill:#4a7f09;}.cls-7{fill:#aececd;}.cls-8{fill:#c6dede;}.cls-9{fill:#9a0606;}.cls-10{fill:#f8f4f4;}.cls-11{fill:#c0d9d9;}.cls-12{fill:#d8e7e9;}.cls-13{fill:#4a1801;}.cls-14{fill:#d4dccc;}.cls-15{fill:#8c7299;}.cls-16{fill:#4a1802;}.cls-17{fill:#4f2815;}.cls-18{fill:#f4f8f9;}.cls-19{fill:#f5f9fa;}.cls-20{fill:#f9fbfc;}.cls-21{fill:#cededc;}.cls-22{fill:#d0e3e3;}.cls-23{fill:#c9d7d4;}.cls-24{fill:#dae9ea;}.cls-25{fill:#9fafaa;}.cls-26{fill:#e9ebe9;}.cls-27{fill:#d9edee;}.cls-28{fill:#f8ecec;}.cls-29{fill:#cb7777;}.cls-30{fill:#f3a507;}.cls-31{fill:#d6b36f;}.cls-32{fill:#fdfdfd;}.cls-33{fill:#f1a307;}.cls-34{fill:#541f03;}.cls-35{fill:#4f200e;}.cls-36{fill:#d4ba90;}.cls-37{fill:#f7f1e3;}.cls-38{fill:#f5efeb;}.cls-39{fill:#e4c89e;}.cls-40{fill:#d4bd9e;}.cls-41{fill:#990b0c;}.cls-42{fill:#a5bcb9;}.cls-43{fill:#a5bcb8;}.cls-44{fill:#dfaaab;}.cls-45{fill:#c9dfde;}</style><clipPath id="clip-path"><rect class="cls-1" x="3163.1" y="-3253.46" width="1938" height="4780"/></clipPath></defs><title>DRINK2GO_WEB_svg</title><g id="Vrstva_1" data-name="Vrstva 1"><path class="cls-2" d="M179,739.9q27.73-37.89,56.43-75l-15,19.43C285.74,599.83,355,518.35,428.62,441q30.38-31.9,61.75-62.82L339.59,261.86c-70.44,107.72-133.82,220-191.14,335.22q-25.71,51.67-49.82,104.14a71.43,71.43,0,0,0-11.4,35.69A72.8,72.8,0,0,0,89,775.19c6.13,22.27,23.35,46.4,44.12,57.38,22.27,11.77,49.27,17.67,74,9.67,24.42-7.9,43.32-22.37,57.37-44.11L447.15,515.45l-175.46-74a1100.51,1100.51,0,0,1-46.44,135.11l9.67-22.94A839.07,839.07,0,0,1,182.2,658c-12.74,21.2-16.21,50.23-9.68,74,6.14,22.27,23.35,46.4,44.12,57.37,22.28,11.77,49.27,17.68,74,9.68l22.93-9.68A96.49,96.49,0,0,0,348,754.91l186.07-272,53.42-78.1L412,330.85c-20.18,74.16-44.7,147.13-74.5,218l9.68-22.94c-15.9,37.59-33.26,74.53-52.36,110.59-12,22.6-16.57,48.92-9.67,74,6.13,22.27,23.35,46.4,44.11,57.37,22.28,11.77,49.28,17.67,74,9.68,24.16-7.82,43.83-22.24,57.37-44.12L644.28,436.59l52.59-85-175.46-74L370.33,660.26a72.7,72.7,0,0,0-1.71,38.28A71.48,71.48,0,0,0,380,734.23l15,19.43a72,72,0,0,0,30.9,19.85c19.07,8,42.25,11.4,62.51,4.84,24.34-7.88,43.47-22.33,57.37-44.12L678.32,526.44l-175.46-74q-16,99.13-40.6,196.58a97,97,0,0,0,4.84,62.51c7.79,18.44,21.08,36.29,39.28,45.91a113.93,113.93,0,0,0,48.45,13.1,72.3,72.3,0,0,0,37-8.27,71.92,71.92,0,0,0,30.9-19.85L856.52,449l-160.45-93.4C678.44,422.8,656.62,488.94,629.61,553l9.68-22.93c-15,35.41-31.6,70.13-50.07,103.87-11.65,21.27-17.36,50.25-9.68,74,6.55,20.24,17.5,36.81,34.4,49.87,16.19,12.51,37.14,21.55,58.17,20.61,23.72-1.06,52.42-8.63,67.88-28.11l219-276L798.5,380.87l-26.72,90.78c-6.65,22.63-3.25,53.92,9.68,74l15,19.43a71.92,71.92,0,0,0,30.9,19.85c19.07,8.05,42.25,11.4,62.51,4.84l22.93-9.68a96.49,96.49,0,0,0,34.44-34.44q59.16-82.2,121-162.4l-15,19.43q69-89.22,141.53-175.61l-160.45-93.4q-11.17,29.06-23.25,57.75l9.68-22.94C994.32,231.05,964.45,292.2,930.41,351c-12.51,21.63-16.32,49.84-9.68,74,6.14,22.27,23.35,46.4,44.12,57.38,22.28,11.77,49.27,17.67,74,9.67s42.91-22.49,57.37-44.11l144.11-215.61-165.78-96.9L909.71,465.69C898.12,488.91,893,514,900,539.66c6.14,22.27,23.35,46.4,44.12,57.37,22.28,11.78,49.27,17.68,74,9.68l22.93-9.68a96.49,96.49,0,0,0,34.44-34.44L1290.2,281l-165.79-96.91L965.75,516.94l-44.93,94.25a71.43,71.43,0,0,0-11.4,35.7,72.8,72.8,0,0,0,1.72,38.28c6.55,20.24,17.5,36.8,34.4,49.87,16.19,12.51,37.14,21.55,58.17,20.61l25.52-3.43a95.9,95.9,0,0,0,42.36-24.69l291.16-375.21,82.33-106.1L1294.3,129.89,1164.53,436.65l-36.89,87.22a71.43,71.43,0,0,0-11.4,35.69,72.8,72.8,0,0,0,1.72,38.28c6.13,22.27,23.35,46.4,44.12,57.37,22.28,11.78,49.27,17.68,74,9.68l22.93-9.68a96.33,96.33,0,0,0,34.44-34.44l255.15-356,72.36-100.95L1455.14,66.92,1225.49,530.68l-65.4,132.08c-11,22.27-17.67,49.28-9.68,74,6.55,20.24,17.49,36.81,34.4,49.87C1201,799.11,1222,808.15,1243,807.21c23.83-1.07,52.24-8.68,67.88-28.12L1514.2,526.37,1363.43,410,1190.92,736.89l-48.85,92.56c-11.42,21.64-17.47,49.89-9.67,74,6.55,20.24,17.49,36.81,34.4,49.87,16.19,12.51,37.14,21.56,58.17,20.61,23.82-1.06,52.26-8.67,67.88-28.11L1573.7,596.15l80-99.53L1502.87,380.28,1327,674.07,1277.34,757l175.46,74,78.5-192.68,3.43-25.52-3.43-25.53c-5.57-20.2-18-37.2-34.41-49.86-30.79-23.79-72.4-26.42-106.62-7.51-31.94,17.66-61.36,42-86,68.9-17.09,18.71-28.12,42.1-28.12,67.88,0,23.55,10.46,51.67,28.12,67.88,18.29,16.8,42.31,29.26,67.88,28.12s49.41-9.79,67.88-28.12a2051.61,2051.61,0,0,1,190-167.17l-19.43,15q15.31-11.79,30.86-23.28l-141-108.42a998.74,998.74,0,0,1-45,133.82l9.67-22.94q-10.4,24.53-22.32,48.34c-11.62,23.15-16.72,48.38-9.67,74,6.13,22.27,23.35,46.4,44.11,57.37,22.28,11.78,49.27,17.68,74,9.68l22.93-9.68a96.49,96.49,0,0,0,34.44-34.44L1819,428.34l-175.46-74q-7.11,17.56-14.46,35l9.68-22.93c-27.28,64.57-57.24,128-90.35,189.78-12,22.47-16.54,49-9.67,74,6.13,22.27,23.35,46.4,44.11,57.38,22.28,11.77,49.27,17.67,74,9.67l22.93-9.67a96.44,96.44,0,0,0,34.44-34.45q11.14-16.21,23.11-31.83l-15,19.43a577.85,577.85,0,0,1,58.7-65.31L1620.53,482q-2.64,6.84-5.46,13.61l9.68-22.93c-12.85,30.43-28.6,59.61-48.64,85.93l15-19.43c-12.11,15.63-25.62,30-41.15,42.31l19.43-15c-1.11.86-2.22,1.71-3.35,2.55a72.6,72.6,0,0,0-26.93,24.73,72.23,72.23,0,0,0-17.18,32.64c-6.33,23-3.47,53.58,9.67,74s32.9,38.54,57.38,44.11l25.52,3.43a95.53,95.53,0,0,0,48.45-13.1c5.8-2.69,17-11.9,21.44-16.47a118.39,118.39,0,0,0,16.2-21.46c9.57-17,14.1-36.41,14.5-55.86.24-11.55-1.68-23.84-4.29-35-1.29-5.49-4.23-11.14-6.3-16-6.06-14.35-8.51-21.42-21.57-33.84-20-19-45.47-30.79-73.44-31.29a110.88,110.88,0,0,0-30,4.07c-10,3-20.93,7.63-29.61,13.78-17.65,12.5-32.86,27.4-48.56,42.14L1372.22,706.17l-73.45,69,160.45,93.4C1487,760.3,1520.29,653.4,1560.15,548.94q16.06-42.09,33.58-83.62l-9.68,22.93q11.67-27.56,24-54.82a71.43,71.43,0,0,0,11.4-35.7,72.8,72.8,0,0,0-1.72-38.28c-6.55-20.23-17.5-36.8-34.4-49.86-16.19-12.51-37.14-21.56-58.17-20.62-24.68,1.11-50.82,9.18-67.88,28.12-92.08,102.23-178.56,209.36-260.94,319.53q-34.15,45.68-67.19,92.17l175.47,74,129.06-329.21,3.42-25.52a72.27,72.27,0,0,0-8.26-37c-7.79-18.45-21.08-36.29-39.28-45.91A114,114,0,0,0,1341.06,352c-25.46-1.14-49.51,11.94-67.88,28.12-71.77,63.22-132.27,138.08-192.78,211.77l160.45,93.4Q1266,615,1295,546.11L1285.31,569q26.85-63.43,57.25-125.28c11.51-23.34,16.77-48.2,9.67-74-6.13-22.27-23.35-46.4-44.11-57.37-22.28-11.77-49.27-17.68-74-9.68l-22.93,9.68a96.33,96.33,0,0,0-34.44,34.44q-36.06,50-73.7,98.77l15-19.43q-83.92,108.51-176.3,210.09l160.46,93.4q10.21-26.25,21.18-52.22l-9.67,22.93c41.53-98,91.1-192.2,143.14-285q21.42-38.21,43.18-76.23c11.88-20.86,17.23-50.63,9.67-74-6.54-20.24-17.49-36.81-34.4-49.87-16.19-12.51-37.14-21.55-58.17-20.61-24.12,1.08-51.76,8.83-67.88,28.12L871.92,554.66,833.19,601c-10.62,12.7-20.52,27-33.61,37.33l19.43-15a53.34,53.34,0,0,1-10.73,6.32L831.22,620a34.2,34.2,0,0,1-6,1.66l25.52-3.43a25,25,0,0,1-4.33.08l25.52,3.43a20.61,20.61,0,0,1-4.07-1l22.93,9.67A21.11,21.11,0,0,1,887,628l19.43,15a18.89,18.89,0,0,1-2.26-2.3l15,19.43a34.6,34.6,0,0,1-3.87-6.59L925,676.5a65.84,65.84,0,0,1-2.24-6.84,96.79,96.79,0,0,0-67-67c-33.64-9.26-68.47.9-93.4,24.69l-158,150.77L755.06,894.41c60.55-99.14,124.85-196,193.49-289.74q28.1-38.38,57.17-76l-15,19.43q46.26-59.85,95-117.72l-160.46-93.4q-7.83,19.24-15.89,38.38L919,352.38q-27.74,65.64-58.4,130-14.83,31-30.42,61.69c-1.37,2.7-2.83,5.37-4.13,8.09l-9.68,22.94a72.8,72.8,0,0,0-1.72,38.28,71.43,71.43,0,0,0,11.4,35.69l1.82,4.3,3,7.17,14.59,34.39A96.33,96.33,0,0,0,880,729.36a71.43,71.43,0,0,0,35.69,11.4A72.8,72.8,0,0,0,954,739a95.79,95.79,0,0,0,42.36-24.69l368.78-428.92L1469.54,164,1318.76,47.61,1113.14,419.13l-58,104.71c-11.71,21.16-17.32,50.35-9.68,74,6.55,20.24,17.5,36.81,34.41,49.87,16.19,12.51,37.14,21.55,58.16,20.61,23.9-1.07,52.15-8.71,67.89-28.12L1228.84,612,1078.06,495.63,932.19,728,922.52,751l-3.43,25.52c0,21.37,7.7,41.46,20.61,58.17a91.62,91.62,0,0,0,38.4,29.56c19.86,8.38,41.27,10.48,62.51,4.84,10.26-2.73,20.31-7.49,29.81-12a64.32,64.32,0,0,0,8.36-4.73c11.41-7.7,23.65-16.65,32.75-27.34,22-25.77,35-50.32,46.57-82.24,11.38-31.51-1.92-70.63-24.69-93.4s-61.84-36-93.4-24.69c-15.35,5.5-30.74,10.84-46.92,13.23l25.52-3.43a96.66,96.66,0,0,1-23.49.13l25.52,3.43a77.85,77.85,0,0,1-16.09-4.3l22.93,9.68a74.14,74.14,0,0,1-15-8.7l19.43,15A101.09,101.09,0,0,1,1015.13,633l15,19.43A135.12,135.12,0,0,1,1013,622.9l9.68,22.93a174.34,174.34,0,0,1-11-41l3.43,25.52q-1.85-14.19-3.8-28.38a95.9,95.9,0,0,0-24.69-42.36c-4.52-4.51-15.35-12.87-23.31-17.49-9.57-5.55-20.72-9.93-30.77-13.4C919,524,904,522.2,889.78,522.28c-30.84.17-58,10-85.17,23.66-27.49,13.87-50.94,34.86-79.33,47l22.93-9.68a83.2,83.2,0,0,1-19.84,5.74l25.52-3.43a54.74,54.74,0,0,1-12.92.12l25.52,3.43a48.83,48.83,0,0,1-11.39-3.07L778,595.78a55.76,55.76,0,0,1-11.12-6.56l19.43,15a77.1,77.1,0,0,1-8.44-7.82l24.69,93.4,13-60c5.21-24.09,4.18-52.47-9.68-74l-15-19.42A71.86,71.86,0,0,0,760,516.58c-19.07-8.05-42.25-11.4-62.5-4.84l-22.94,9.67a96.65,96.65,0,0,0-34.44,34.44l-199.46,262-57.27,75.23L549.16,990,689.25,720.91c11.34-21.78,17.52-49.76,9.68-74-7.56-23.38-21.95-45.36-44.12-57.38-14.43-7.82-29.82-14.77-45.7-19a107,107,0,0,0-12.28-2.4c-12-1.77-24.28-4.14-36.49-4.07-33.38.2-65.42,9.94-94.44,26l141,108.41c12.83-49,29.61-96.77,49.25-143.45L646.5,578c22.38-52.89,48.23-104.17,74.29-155.31l9.68-22.94a72.7,72.7,0,0,0,1.71-38.28c-2.7-20.14-11-41-26.4-55.12a114.35,114.35,0,0,0-42.36-24.69A72.7,72.7,0,0,0,625.14,280a71.36,71.36,0,0,0-35.69,11.39c-106.71,82.37-207.54,171.09-301.8,267.51L438.42,675.2c24.78-58.59,53.67-115.43,88-169a71.43,71.43,0,0,0,11.4-35.69,72.8,72.8,0,0,0-1.72-38.28c-6.55-20.24-17.49-36.81-34.4-49.87-16.19-12.51-37.14-21.55-58.17-20.61-25.47,1.14-49.49,9.75-67.88,28.12C297.6,467.81,227,552.37,160.51,640.31L326.3,737.22a658.45,658.45,0,0,1,49.92-75.93l-15,19.43q11.71-15.13,24.41-29.43L234.84,535l-30.16,48c-13,20.68-16.08,50.72-9.68,74,6.13,22.27,23.35,46.4,44.12,57.37,22.28,11.77,49.27,17.67,74,9.68,24.26-7.85,43.64-22.29,57.38-44.12l30.16-48c12.46-19.81,16.91-51.63,9.68-74-6.55-20.24-17.5-36.8-34.4-49.87-16.2-12.51-37.14-21.55-58.17-20.61-24.61,1.1-51,9.12-67.88,28.12a726.92,726.92,0,0,0-89.35,124.78c-12.38,21.86-16.38,49.63-9.67,74,6.13,22.27,23.35,46.4,44.11,57.38,22.28,11.77,49.27,17.67,74,9.67l22.93-9.67a96.49,96.49,0,0,0,34.44-34.44q8.54-11.29,17.2-22.5l-15,19.43C385.15,661,445.93,591,511.42,525.61L360.65,409.28c-34.34,53.58-63.24,110.43-88,169A71.39,71.39,0,0,0,261.25,614,72.7,72.7,0,0,0,263,652.27c6.55,20.24,17.5,36.81,34.4,49.87,16.2,12.51,37.14,21.55,58.17,20.61,25.3-1.13,49.79-9.61,67.88-28.12,87.67-89.66,180.85-173.93,280-250.69L684,459l2.33-1.8L555,325.8C502.28,429.28,451.33,534.7,421.79,647.49c-4.18,16-4.4,35.1,0,51,5.56,20.21,18,37.21,34.4,49.87,30.75,23.76,72.45,26.47,106.62,7.51,3.47-1.93,7-3.7,10.61-5.33l-22.93,9.68a103,103,0,0,1,24.4-6.85l-25.52,3.43a97.55,97.55,0,0,1,21.94-.13l-25.52-3.43a102.64,102.64,0,0,1,24.42,6.55l-22.93-9.67c3.63,1.58,7.15,3.3,10.63,5.19L523.47,624,383.37,893.09c-11.86,22.78-16.62,48.75-9.68,74,6.14,22.27,23.35,46.4,44.12,57.38,22.28,11.77,49.27,17.67,74,9.67l22.93-9.67A96.65,96.65,0,0,0,549.16,990L748.62,728l57.27-75.23-175.46-74L620.87,623l-2,9.48c-.45,2.09-1,4.2-1.36,6.31l-1.72,12.76a48.46,48.46,0,0,0,0,25.52c1.67,12.43,5,24.69,11.39,35.7,3.59,6.12,11.33,15.61,16.21,20.7,1.35,1.4,2.75,2.75,4.21,4,28.18,24.78,61,40.49,99.2,40.61,29.77.1,55.86-9.5,82.15-22.4,13.13-6.44,25.32-14.65,37.51-22.68,14-9.18,28-18.48,43.34-25.13l-22.93,9.68a87.24,87.24,0,0,1,21.75-6.26l-25.52,3.43a58.31,58.31,0,0,1,13.4-.07l-25.52-3.43a53.22,53.22,0,0,1,11.9,3.11l-22.94-9.67a59.71,59.71,0,0,1,10.41,5.69l-47.54-82.9c2.36,18.07,4.07,36.33,9.28,53.85,4.82,16.22,11.67,32.16,19.23,47.26a133.3,133.3,0,0,0,13.09,20.76c9.18,12.15,17.84,24.58,29.56,34.36,10.59,8.85,21.74,18.42,34.37,24.45,25.06,12,44.64,17.19,72.68,19,30.57,2,61.6-7.18,90.08-17.39L973,691.67c-1,2.71-2,5.38-3.07,8.05l9.67-22.93A132.08,132.08,0,0,1,963,705.93l15-19.43a84.19,84.19,0,0,1-13.9,13.83l19.42-15a60.48,60.48,0,0,1-10,5.91l22.93-9.67a54,54,0,0,1-6.87,2.34l108.41,141,145.87-232.39c12.44-19.83,16.91-51.61,9.68-74-6.55-20.24-17.5-36.81-34.41-49.87-16.19-12.51-37.14-21.55-58.16-20.61-23.9,1.07-52.15,8.71-67.89,28.12l-22.88,28.21L1221,620.74l205.62-371.51,58-104.71c11.71-21.16,17.32-50.35,9.67-74-6.54-20.24-17.49-36.81-34.4-49.87C1443.63,8.17,1422.68-.87,1401.65.07c-24.33,1.09-51.4,9-67.88,28.12L965,457.1,860.55,578.59,1011.33,598l-19.46-45.87v96.91c43.59-85.14,82.46-172.52,118.53-261.09l3.42-25.52a72.27,72.27,0,0,0-8.26-37c-7.79-18.45-21.08-36.29-39.28-45.91a114,114,0,0,0-48.46-13.11,72.28,72.28,0,0,0-37,8.27,72,72,0,0,0-30.9,19.85C846.51,417.22,750.86,546.61,663,680.83q-37.8,57.75-73.73,116.67c-12.29,20.12-17,51.33-9.67,74,6.54,20.23,17.49,36.8,34.4,49.86,16.19,12.51,37.14,21.56,58.17,20.61,25.8-1.15,48.93-10,67.88-28.11l158-150.77L737.62,720.7c13.44,49.07,56.21,90.54,109.46,89.61,36.44-.64,67.17-16.31,93.44-40.62,14.46-13.37,26.29-30.38,38.9-45.46l41.87-50.08,167.47-200.33,96.3-115.19L1134.28,242.3c-59,103.55-117.54,207.45-166.62,316.14q-26.83,59.41-50.56,120.21l-3.43,25.52a72.29,72.29,0,0,0,8.26,37c7.79,18.44,21.08,36.29,39.28,45.91a113.83,113.83,0,0,0,48.46,13.1c22.83,1,52.43-11.19,67.88-28.11,74.27-81.34,143.79-166.7,210.37-254.42q27.78-36.6,54.64-73.88l-165.79-96.9c-46,93.23-86.06,189.57-121.06,287.43l-3.43,25.52a72.3,72.3,0,0,0,8.27,37c7.78,18.44,21.07,36.29,39.28,45.91a113.93,113.93,0,0,0,48.45,13.1,72.32,72.32,0,0,0,37-8.27,71.83,71.83,0,0,0,30.89-19.85c60.52-73.69,121-148.55,192.79-211.76l-160.46-93.41-129,329.21a72.7,72.7,0,0,0-1.72,38.28,71.52,71.52,0,0,0,11.39,35.69l15,19.43A71.92,71.92,0,0,0,1175,865c19.08,8,42.25,11.39,62.51,4.84l22.93-9.68a96.49,96.49,0,0,0,34.44-34.44q53.89-75.8,110.71-149.44l-15,19.43Q1487.32,570.6,1593,452.86L1442.23,336.52a2896.52,2896.52,0,0,0-138.37,372.8q-15.85,53.82-29.78,108.2a96.82,96.82,0,0,0,4.84,62.51c7.78,18.44,21.08,36.29,39.28,45.91a113.93,113.93,0,0,0,48.45,13.1c24.68,1.11,50.39-11.68,67.88-28.11l116.11-109,56.86-53.41c19.49-18.3,38.42-37.59,58.75-55l-19.43,15a34.65,34.65,0,0,1,6.67-4.1l-22.93,9.68,2.24-.59L1607.28,717l2.22-.05L1584,713.47l2.2.58-22.94-9.68,2.15,1.31-19.43-15a8,8,0,0,1,1.6,1.78l-15-19.43a14.52,14.52,0,0,1,1.33,2.45l-9.67-22.93a36.56,36.56,0,0,1,2,8L1522.83,635a43.63,43.63,0,0,1,.09,8.55l3.43-25.52a27.93,27.93,0,0,1-1,4.33l9.68-22.93a9.81,9.81,0,0,1-1.09,2.2l15-19.42a4.91,4.91,0,0,1-1.48,1.46l19.43-15-.88.41L1663,734.86c16.57-12.49,32.91-24.81,47.09-40,15.16-16.2,28.77-34.15,41.33-52.39,23.18-33.67,39.58-71.45,54.3-109.42l3.42-25.52a72.29,72.29,0,0,0-8.26-37c-7.79-18.44-21.08-36.29-39.28-45.9a113.8,113.8,0,0,0-48.46-13.11c-24.55-1.1-50.52,11.65-67.88,28.12-36.65,34.77-68.27,75-96.82,116.57l165.79,96.9c43-80.28,80.33-163.34,114.48-247.74a72.7,72.7,0,0,0,1.71-38.28,71.42,71.42,0,0,0-11.39-35.7L1804,312a72,72,0,0,0-30.9-19.85c-19.07-8-42.25-11.39-62.5-4.83L1687.64,297a96.65,96.65,0,0,0-34.44,34.44L1442.88,609.9l165.79,96.9a1052.07,1052.07,0,0,0,77-205.08c4.18-16,4.39-35.09,0-51-5.57-20.21-18-37.21-34.4-49.87A48,48,0,0,0,1630,388.47a47.7,47.7,0,0,0-24.22-6.55c-19.44-2.62-44.75-.78-61.22,11.39a2181.86,2181.86,0,0,0-240.28,205.47l135.76,135.76a301.9,301.9,0,0,1,36.84-34.39l-19.42,15a240.09,240.09,0,0,1,29.68-19.49l-141-108.42-78.5,192.69a72.8,72.8,0,0,0-1.72,38.28,71.43,71.43,0,0,0,11.4,35.7l15,19.43a72,72,0,0,0,30.89,19.85c19.08,8,42.25,11.39,62.51,4.83,24-7.75,44.22-22.15,57.37-44.11L1619,560.12l49.65-82.93c12.17-20.34,17.07-51.13,9.68-74-6.55-20.23-17.5-36.8-34.41-49.86-16.19-12.51-37.14-21.56-58.16-20.62-23.82,1.07-52.27,8.68-67.89,28.12L1237,710.49l-80,99.53,150.78,116.34,172.5-326.86,48.86-92.56c11.42-21.64,17.47-49.89,9.67-74-6.55-20.24-17.49-36.81-34.4-49.87-16.19-12.51-37.14-21.55-58.17-20.61-23.83,1.07-52.24,8.68-67.88,28.12L1175.1,643.33l150.77,116.33,229.65-463.75,65.41-132.08c11.53-23.3,16.76-48.25,9.67-74-6.13-22.26-23.35-46.4-44.11-57.37-22.28-11.77-49.27-17.67-74-9.68l-22.93,9.68a96.49,96.49,0,0,0-34.44,34.44L1200,422.92l-72.35,100.95,165.78,96.9L1423.19,314l36.9-87.21a71.42,71.42,0,0,0,11.39-35.7,72.7,72.7,0,0,0-1.71-38.28c-6.55-20.24-17.5-36.8-34.4-49.87-16.2-12.5-37.14-21.55-58.17-20.61l-25.52,3.43a95.79,95.79,0,0,0-42.36,24.69L1018.15,485.67l-82.32,106.1L1086.6,708.1l158.67-332.82L1290.2,281a71.52,71.52,0,0,0,11.39-35.7,72.6,72.6,0,0,0-1.72-38.28c-6.13-22.26-23.35-46.4-44.11-57.37-22.28-11.77-49.27-17.67-74-9.68l-22.93,9.68a96.65,96.65,0,0,0-34.44,34.44L909.71,465.69l165.79,96.9,164.81-330.25c11.59-23.22,16.74-48.32,9.68-74-6.13-22.27-23.35-46.4-44.12-57.37-22.28-11.77-49.27-17.67-74-9.68s-42.92,22.49-57.37,44.12L930.41,351,1096.2,448c48.59-84,88.5-172.78,123.31-263.27l3.43-25.52a72.2,72.2,0,0,0-8.27-37c-7.78-18.44-21.07-36.29-39.27-45.91a113.86,113.86,0,0,0-48.46-13.1,72.27,72.27,0,0,0-37,8.26,72,72,0,0,0-30.9,19.85Q944.67,227.37,838.79,370.35q-29,39-57.33,78.37l175.47,74,26.71-90.78,3.43-25.52a72.26,72.26,0,0,0-8.27-37C971,351,957.72,333.12,939.52,323.5a113.94,113.94,0,0,0-48.45-13.11,72.3,72.3,0,0,0-37,8.27,71.92,71.92,0,0,0-30.89,19.85l-219,276L755,730.87c55.72-101.77,96.83-212.19,126.21-324.28,5.52-21.07,3.56-42.59-4.84-62.51-7.78-18.44-21.08-36.29-39.28-45.9a113.79,113.79,0,0,0-48.45-13.11,72.3,72.3,0,0,0-37,8.27,72,72,0,0,0-30.9,19.85L487,606.68l160.46,93.4Q672.18,602.78,688,503.5a72.7,72.7,0,0,0,1.71-38.28,71.42,71.42,0,0,0-11.39-35.69l-15-19.43a72,72,0,0,0-30.9-19.85c-19.07-8.05-42.25-11.39-62.5-4.84-24.34,7.88-43.48,22.33-57.38,44.12L380,637.33l175.47,74L706.55,328.65a72.7,72.7,0,0,0,1.71-38.28,71.39,71.39,0,0,0-11.39-35.69l-15-19.43A72,72,0,0,0,651,215.4c-19.07-8.05-42.24-11.4-62.5-4.84-24.16,7.82-43.84,22.24-57.38,44.12L347.44,551.5l-52.6,85,165.79,96.91c58.85-111.14,103.54-230.28,136.53-351.52,6.27-23,3.51-53.52-9.68-74l-15-19.43a72,72,0,0,0-30.89-19.85c-19.08-8-42.25-11.39-62.51-4.83l-22.93,9.67a96.49,96.49,0,0,0-34.44,34.44l-186.07,272L182.2,658,348,754.91c48.72-81.09,83.79-171.36,108.84-262.4,6.32-23,3.47-53.57-9.68-74l-15-19.43a72,72,0,0,0-30.9-19.85c-19.07-8.05-42.25-11.39-62.5-4.84-24.42,7.91-43.32,22.38-57.38,44.12L98.63,701.22l165.78,96.91c55-119.54,116-236.42,184.14-349q27.61-45.66,56.83-90.33a71.39,71.39,0,0,0,11.39-35.69,72.7,72.7,0,0,0-1.71-38.28c-6.55-20.24-17.5-36.81-34.41-49.87-16.19-12.51-37.14-21.55-58.16-20.61-25.57,1.14-49.34,9.83-67.89,28.12C262.05,333.69,176.08,431.47,96,533.84c-28.14,36-55.86,72.29-82.84,109.15a71.42,71.42,0,0,0-11.39,35.7A72.7,72.7,0,0,0,3.5,717c6.13,22.26,23.35,46.4,44.12,57.37,22.28,11.77,49.27,17.67,74,9.68l22.93-9.68A96.49,96.49,0,0,0,179,739.9Z"/><g class="cls-3"><g class="cls-4"><path class="cls-5" d="M215.79-3362.61v-659.66H7541.1V1469H215.79V906.71c7.16-7.91,13.62-16.56,22.88-22.27,6.92-4.27,15.12-9.59,22.1-3.07,24.46,22.86,50.56,9.94,75.65,3.61,12.62-3.19,23.88-6,36.1-.3,7.58,3.52,15.76,4.35,23.26.24,13.06-7.15,24-7.38,36.37,3.24s25.68,4.37,35.94-5.47c16.11-15.45,34.06-28.69,50.58-43.64,18.93-17.13,25.67-15.33,37.16,7.35,10,19.75,22.35,22.76,40.66,9.5,8.68-6.3,15.57-14.64,23.39-21.93,7.23-6.74,14.83-15,24.85-14.48,22.89,1.07,41.59-7.39,58.95-20.91,9.71-7.57,17.53-5.63,24.51,4.54,8.63,12.58,20.23,15.67,35.1,10.81,22.15-7.22,35.2,3.38,43.53,23.61,10.39,25.2,18.51,28.34,42.87,15.36,17.75-9.46,33.35-18.8,54.1-4.86,11.66,7.84,23.72-1.84,33.49-10.1,9.53-8.07,19.69-15.32,29.53-23a47.83,47.83,0,0,1,13.66-6.84c1.25-.24,2.51-.43,3.77-.66,1.25.09,2.52.22,3.78.3,1.2.37,2.39.79,3.6,1.14,2.34.85,4.63,1.84,6.93,2.79,13.57,3.71,27.59,5.23,40,13.6,14,9.48,27.27,2.76,39.23-6,22.18-16.31,43.47-33.75,64.82-51.11,6.21-5.05,12.55-10.15,20.26-12.58,10.48-3.31,16-.27,12.11,11.58-2.73,8.34-8.76,16.24-5.7,25.42,5.57,16.76,18.83,16.9,32.7,13.06,13-3.59,19-1.81,20.31,14,2.19,27.11,17.12,32.37,39.13,15.55,7-5.37,12.48-12.71,20.65-16.7a13.56,13.56,0,0,1,11,.68c4.14,4.21,2.5,9.89,3.79,14.83,5.47,20.89,21.69,27.48,39.93,16,11.15-7,18.85-18.26,29.85-25.52,1.78-1.3,3.68-2.47,5.55-3.6.86-.58,1.8-1.13,2.65-1.72,1.59-1.22,3.27-2.39,4.88-3.6.72-.64,1.52-1.24,2.25-1.88,1.36-1.31,2.82-2.56,4.23-3.81.66-.65,1.38-1.26,2-1.9,1.26-1.31,2.61-2.54,3.94-3.78.63-.63,1.31-1.23,1.93-1.87,1.2-1.31,2.5-2.52,3.81-3.72,0,0,1.92-1.81,1.88-1.85,1.18-1.31,2.45-2.52,3.74-3.73,0,0,1.91-1.82,1.87-1.87,1.19-1.33,2.47-2.56,3.76-3.79.62-.66,1.28-1.27,1.9-1.93,1.23-1.38,2.53-2.66,3.84-4,.64-.7,1.31-1.34,2-2.05,1.28-1.47,2.63-2.85,4-4.25.67-.76,1.37-1.46,2-2.22,1.33-1.61,2.75-3.11,4.18-4.64.73-.82,1.48-1.57,2.2-2.38,7.33-7.08,13.79-15,22.12-21.07a16.26,16.26,0,0,1,6.82-2c17.39,7.61,4.11,15.56-.72,21.49-12.22,15-28.11,26.65-39.34,42.6a66.13,66.13,0,0,1-4,5.77,68.59,68.59,0,0,0-9.18,14.63c-.85,2.25-1.8,4.44-2.68,6.66-3.93,10.26-2.08,20.54,5.28,27.34,12,11.12,20,24.51,28.41,38.19,9.53,15.44,31.47,15.51,49.48.84,16.57-13.49,30.53-29.88,45.93-44.7,35.35-34,81.51-29,107.47,11.55,6.72,10.51,15,20,23.31,29.15,15.38,16.84,40.2,10.86,64.28-14.29,15.63-16.48,33-22.19,55.47-13.21,19.47,7.78,38.93-.46,57.38-6.56,59.81-19.77,121-19.19,182.65-14.77,17.27,6.56,15.16,17.08,5.32,28.53-11,12.73-23.47,24-35.2,36-7.4,7.58-15.61,14.48-21.82,23.08-8.66,12-15.89,25.68-2.88,38,11.92,11.33,22.77.94,32.75-6.29,6.43-4.67,12.81-9.41,19-14.35,12-8,23.67-16.58,33.27-27.57,14.55-14.51,32.24-25.36,46.57-40.13a48.85,48.85,0,0,1,5.88-4,87.16,87.16,0,0,0,8.64-6.19c9.94-9,19-19.21,31.72-24.7a40.15,40.15,0,0,1,7.49-2.34c13.35-1.87,27.07-.72,40.06-5.31q73.18-4.08,146.2-10.48c6.29-.54,12.92-.59,18.31,2.48,17.76,10.09,34.42,4.38,51.11-2.49,19.11-7.88,38.73-13.16,59.62-12.48,12.2.4,21.59,4,28.32,16,12.66,22.52,20.41,24,42.38,11.76,7.75-4.33,14.84-9.83,22.95-13.59,29.8-12.29,22.8,15.27,30,27.55,9.23,17.34,23,17.49,38.81,10.42,15.6-7,29.43-16.84,43.53-26.31,5.84-3.93,12.53-8.62,19.4-2.49,5.68,5.07,3.13,11.78.58,17.44-18.52,41.13-12.84,76.33,24.54,104.34,11,8.22,13.34,20.5,14.29,33.37,1.16,15.76,7,28.88,25.27,28.42,16.93-.44,20.85,8.58,22.8,22.86,4.69,34.24,9.92,36.43,40.78,24.76,20.81-7.88,42.59-15.5,59.31,9.35,4.84,7.19,13.76,7.31,22.16,5.48,24.34-5.32,47.76-3.63,69.86,9,14.93,8.52,26,2.25,33.83-10.69,8.75-14.36,18-18.79,31.67-5.66,6.49,6.22,15.75,8.34,24.11,11.39,23.89,8.72,38.49,3.94,41.28-21.21,4.73-42.67,42.34-54.53,67.25-76.46,14.09-12.39,26-22.21,30.22-40.38,2-8.71,3.87-17.46,6-26.12,8-32.18,31.89-41.69,58-21.41,12.09,9.39,22.54,19.75,38.6,22.06,7.7,1.11,10.95,8.51,14.42,14.84,4.38,8,9.24,16.16,20,15,12.3-1.38,20.37-10.39,21.26-21.18,3-36.43,30.53-41.22,57.54-47.52,12,12.75,6.5,28.64,7.6,43.26,1.26,16.78-1.74,33.76,2.15,50.36,18,25.18,29,24.46,45.4-3.12,6.29-19.95-2-41.33,6.1-61a9.8,9.8,0,0,1,6.25-4.76c18,7.18,34.32,22.2,56.15,10.45,3.45-1.85,8.46,1.7,12.24,4.11,23,14.71,45.69,24,70,1.3,8.38-7.82,12.31.42,13.86,8,2.28,11.06-3.45,20.76-5.95,31-3.11,12.79.2,23.57,12.94,28.52,14,5.44,21.17-3.93,27.07-14.85,9.5-17.61,5.22-38.81,14.82-56.39,7.82-10.79-2.79-34.9,14.82-34,12.84.62,7.34,22.42,8.45,35,.83,9.41,4.64,16.75,10.87,23.3,14.61,18.37,31,18.35,49,5.18,8.63-6.31,17.76-12,26.3-18.39,16.46-12.39,31.95-18.81,49.23-.08,10.57,11.45,26.41,9.67,40.56,9,57-2.66,113.63-10.2,170.1-17.59,152.29-19.95,305-30.16,458.53-25.12,10.5.76,21.06.31,31.57,1.27,8.12.73,18.51,2.56,20.13,10.13,6.12,28.62,32.5,42.43,45.42,65.73,17.54,17.47,44.09,24.1,54.66,51,4.77,12.16,24.34,6.62,31.31-7.71,5.83-12,4.45-26.17,11.54-37.8a12.5,12.5,0,0,1,10.79-2.73c11.54,4.9,15.86,16.15,22.14,25.57,16.23,24.37,27.45,25,46.67,2.2,4-4.74,7.93-9.51,12.06-14.08,5-5.11,6.12-12,8.24-18.41a13.38,13.38,0,0,1,4.53-5.28,15.72,15.72,0,0,1,7.07-.88,18.94,18.94,0,0,1,6.52,3.22,27,27,0,0,0,13.66,6c26.51-4.47,49.8-14.71,64.49-38.26,8.77-14,16.85-13.4,30.66-5.93,20.33,11,40.74,19,51.76,42.71,7.36,15.88,24.65,15.56,34.27-.47,13.53-22.56,31-37.23,55.2-47.53,19.62-8.36,18.25-28.86,16.36-47.06-5.53-53-2.25-59,50.77-69.17,22.82-4.4,30.87-15.18,26.89-36.86-2.33-12.67-2.84-25.1,5.83-35.78,12-14.75,12.59-30.88,6.75-48-5.08-14.9-6.11-29.27,1.85-44,8.85-16.38,4.87-33.94-1.38-49.51-18.32-45.7,1.53-84.58,19.63-124,1.83-4,6.52-7.7,6-11.75-6.34-46.64,24.77-83.47,32.64-126.31,1.32-7.15,1.53-14.39-.32-21.3-19.55-73.19-3.49-147.6-7.65-221.31-.45-8-.13-17,4.87-23.29,18.4-23.08,16-50,16.33-76.77,1.69-127.74-1.43-255.67-7.62-383-7.42-152.92,9.91-303,26.48-453.71,3.51-31.95,3-64.17,7.09-96.12,2.09-16.3-3.76-30.6-22-34.93-16.79-4-20.38-16.29-19.78-30.49,2.52-59.93-5.87-119.49-5.68-179.31a125.84,125.84,0,0,0-12.75-56.73c-16.73-34.59-9.49-72.2-7.26-108.24,3.36-54.31,6-108.66,9.14-163a210.3,210.3,0,0,1,7.08-44.86c6.16-18.73,10.77-37.7,9.82-57.73-.56-11.79,1.84-22.77,9-32.89,25.73-36.33,23.37-75.3,8.7-114.65-4-10.65-2.32-19.65-.92-30.53,4.67-36.29,19.51-69.82,8.72-110.26-12-44.81-7.87-94.09-.36-141,3.26-20.34,4.92-37-17.56-47-12.76-5.65-13.21-18.36-12.88-30.07,1-38.33,1-76.7,2.22-115,1.16-37.06-2.19-74.72-2.49-112.16-.12-14.4,1.12-28.56,5.14-42.41,5.73-19.69,11-21.4,27.48-8.31,8.4,6.69,15.46,14.83,22.51,22.93,4.75,5.46,9.81,11.46,18.05,7.88,7.48-3.25,8.79-10.7,9.47-18,.59-6.28-.78-12.46-1.14-18.7-2.56-43.16-4.53-86.61-8.47-129.39-3.14-34-11.94-65.14,6.13-97.92,6.38-11.56-.48-28-4.78-41.77-9.35-30-13.32-61-15.29-92.3-1.33-20.92,3-39.86,13.92-58.76,18.29-31.74,14.24-67.66,11.18-102.25-1.82-20.48-4.33-40.84-3.73-61.41.62-20.93-1.11-41-14.5-58.55-5-6.56-8.84-15.72-5.81-22.69,9.73-22.35,2.39-47.25,12.36-69.52,5.5-12.29,6.45-25.85,1.18-39.2-3.38-8.56-4.54-18.11.06-26.1,11.55-20.08,2.7-32.4-12.6-45.67-13.47-11.69-25.36-25.15-41.54-33.34s-31.75-12.85-51-6.46c-25.87,8.61-46.57-.5-62.22-22.86-7.35-10.5-14.91-19.71-29-21.32-10.22-1.17-17.27-8.44-24.52-15.3-28.83-27.29-51.87-26.09-81.52.3-22.87,20.35-49.25,34.75-81.93,29.71-7.55-1.16-13.73,2.58-20.53,4.6-16.76,5-28.6-6.66-22.55-23.05,7.89-21.39-1.87-41.42-4.22-61.5-1.94-16.52-39.35-17.95-49-.68-17.59,31.45-42.15,44.57-77.34,39.62-8-1.13-13.63,2.93-16.92,10.33-1.44,3.25-2.53,8.15-5.46,9-33.94,9.42-21.34,34.46-17.51,54.91,4.86,26-10.94,45.92-17.24,68.48-2.93,10.49-16,13.81-27.07,14.23-14.29.55-28.42,3.62-42.75,2.83-10.26-.57-17.67,3.5-20.84,13.13-7.6,23.1-25.77,27.88-46.74,27.42-19.55-.43-34.64,3.79-41.06,25.69-4.85,16.57-18.38,20.32-34.56,15.78-9.69-2.72-20.27-6.1-25.26-14.19-15.15-24.58-35-33.1-63.09-25.6-10.25,2.74-18.11-5.09-25-12.71-11.77-12.95-26.33-17.88-43.52-12.5-5.15,1.62-12.24,5.21-15.34,1.72-25.55-28.81-60.5-14.5-90.13-17.2-36.51-3.32-73.45-10.5-111.65-2.72-23.28,4.74-49.59.43-74.49-.86-16.3-.85-32.18-.44-47.34,6.2-12.17,5.32-23.64,4-36.28-.06-35.88-11.61-51.19-6.25-74.88,23.45-10.44,13.09-23.77,19.39-40.13,14.37-15.61-4.79-17-19.23-18.77-32.59-1.07-8,.95-16.07.72-24.07-.27-10,7.75-23.95-5.26-28.91a64.41,64.41,0,0,0-49.7,1.56c-13.11,6-10.46,18.54-9.41,30.51,3.37,38.4-4.68,76.35-5.93,114.63-.55,17-11.17,28.41-30.68,24.89-14.46-2.61-28.24,2.79-42.58,2.49-19.86-.42-29-8.69-29.78-29.06-1.37-34.8,7.78-69,4.08-104.05-1.55-14.6-5.73-26.17-16.16-35.11-13-11.12-26.14-4-35.81,9.07-28.55,38.73-11,81-12.83,121.68-1.47,32.58-9.33,40.47-40.25,36.87-22.62-2.64-29.78-12.33-30-35.65-.2-22.3,1.59-44.34,3.61-66.47,1.38-15.26-.8-29.54-20.68-30.82-18.28-1.18-36.66-2-43.54,21-3.39,11.33-2.77,23-3.55,34.56-1.8,27-10.33,34-37.81,31.73-3.57-.29.83.31-2.65-.41-17.38-3.61-36.82,3.3-52.4-7.27-16.39-11.11-8.07-31.56-13.67-47.25-6-16.79-11.65-29.37-32.86-27.22-20.85,2.11-31.69,10.06-32.81,33.21-1.55,31.92-24.83,53-56.85,51.09-40.15-2.33-80.23,3.08-120.26-.74-12.88-1.23-24.48,2-28.4,14.73-6.18,20.11-18.94,26.47-38.48,24.06-21.95-2.71-25.3-19.43-28.65-36.59-6.21-31.83-32.42-52.2-62.63-47.25-14.87,2.44-30.31,6.62-42.24,15.91-12.92,10.06-27.86,9-41.58,13.45-48.48,15.54-103.76,8.66-146.18,44.33-19,16-42.22,11.38-64.34,9-11.71-1.25-14.47-11.74-18.81-20.57-7.46-15.16-22.34-20.24-32.76-9-20.66,22.2-50.56,17.35-74,30.74-23.64,13.46-49.61,17.36-76.71,5.46-14-6.13-22.12.81-26.17,16.81-9.12,36.11-29.22,42.57-61.7,24-15.62-8.92-31.21-15.59-38.54-34.49-4.7-12.12-18.91-8-29-8.11-16.08-.18-32.21,2.83-44.39-12-4.55-5.55-11-4.21-17.22-1.43-37.33,16.66-72.35,16.49-108.09-7.61-30.55-20.61-67.76-20.37-103.49-21.79-13.35-.52-26.76.35-40.15.3-21.34-.09-39.23-3.39-45.25-27.93-1.49-6.08-5.91-11.59-12.91-12.16-9.21-.75-12,7-14.13,13.59-6,18.77-19.81,23.59-37.53,23.17-13.39-.31-26.8-.15-40.21-.06-16.89.11-30.18-4-32.19-23.94-1-9.82-6.2-16.52-16.25-18.86-2.6-.6-6.15-.79-7.47-2.63-17-23.67-29.17-17.83-48.32,1.15-17.72,17.56-80.84-2.24-93-25-4.08-7.67-9.45-12.73-17.1-16-9.44-4-15.76-10.5-20.17-20.18-11.37-25-20.81-27.17-37.38-5.63-16.83,21.88-37.31,31.39-64.1,32.44-20.62.81-31.85-8.46-37-27.24-5.68-20.78-8.66-41.62-6.88-63.49,2.06-25.39-15.12-41.63-40.59-41.19-34.11.6-42.55,6.69-49.22,45-3.92,22.61-13.86,36.39-36.35,39.66-11.2,1.63-18,6.41-20.33,17.66-2.94,13.92-11,21.83-26.09,21.84-13.06,0-21.91-4.59-26.44-17.78-6.36-18.5-24.06-24.85-39-21.21-46.15,11.18-91.77-7-137.86.86-14.93,2.53-23.16,5.14-25.4,20.14-2.68,18-13.61,21.68-30.8,20.78a781.7,781.7,0,0,0-106.9,1.66c-33,2.8-36.4-.23-47.54-31.53-10-27.94-33.22-44-60.23-52.31-15.24-4.7-29.38,3.51-40.24,15.88-23.87,27.18-52.22,32.9-83,15.87-14.18-7.84-26.36-15-39.6,1.87-7.85,10-20.15,3.55-30.51,4.05-14.55.7-28.62.29-29.06,21.78-.31,14.87-13.48,19.79-26.12,22.92-14.69,3.64-28.08-.76-35.07-13.33-10.25-18.41-26-24.88-44.91-29.61-30.16-7.55-42.08-24.73-41.86-56.12.2-30.1-1.08-31.43-31.26-32-16-.3-32.3,1.23-47.12-7.15-13.3-7.53-23.29,7.12-35.71,5.53a30.25,30.25,0,0,1-7.73-1.21c-13.09-6.2-22.59-16.84-30.51-28.23-13.09-18.82-27.1-20.05-43.76-5.57C225.41-3362.7,221.18-3359.55,215.79-3362.61Z"/><path class="cls-6" d="M226.67-3367.78c19.28-21.33,34.08-22,47.81.25,7.57,12.31,22.7,17.34,27.07,31.76,8.58,9.51,7.94,21.2,7.1,32.6-3.69,50.07.16,100.35-4.46,150.36,0,7.82,0,15.67,0,23.49-.89,8.94,1.71,18.34.35,22.24.83-3.36-.67-12.11-.18-20.6,0-7.53,0-15,0-22.54,2.7-39.16,3-78.36,2.63-117.56.07-7.56-.15-15.14.55-22.68,3.23-12.61,4.66-25.87,12.95-36.7,1.18-1.32,2.35-2.86,3.93-3.56,28.39-12.57,83.93,10.25,98.24,37.26,14,26.39,15.64,54.16,15,87.07,17.75-10,34.7-16.4,48.39-2,25.74,27.08,66.85,45.4,56.86,94.21,1.2,11.64-3.65,22.79-2.72,34.39q0,10.71,0,21.4c-.07,7.25.21,14.55-.48,24.49,1-9.64.48-16.77.65-23.81q0-10.74,0-21.45c1.37-19,3.86-38,2.46-57.06-.47-5.46-.21-11.54,3.31-15.28,17.21-18.31,22.06-41.46,27.06-64.75,1.48-6.86,3-14.37,9-18.87,21.59-16.22,48.29-7.79,72.34-13.29,17.66-4,27.19,16.17,32.58,33,1.69,5.49.81,11.09.61,16.64,0,3.86-.06,7.74-.31,11.57a46.87,46.87,0,0,1-3.16,11.44c3.85-7.45,3.22-13.82,4-20a24.39,24.39,0,0,1,2.39-7.46,35.75,35.75,0,0,1,11.65-11.72,28.41,28.41,0,0,1,8.28-3c34.33,2.54,41.33,12.65,41.53,59.93v42.48c.38,5.11-.88,10.33.65,15.42-1.24-6.41-.3-12.89-.6-19.37q0-14.62,0-29.21c.06-11.8-.14-23.59.21-35.37,3.13-16.48,2.21-33.64,7.76-49.69,5.8-16.81,15.35-30.36,34.68-32.37,17.63-1.84,27.12,9.61,35.43,23.11,19.41,31.53,40.84,62.06,46.91,99.85.81,15.78-1.65,31.76,2.78,47.35a63.31,63.31,0,0,1,.76,8.69c.21,13.07.09,26.15.13,39.21,0,7,0,14,0,21,0,5.21,0,10.44,0,15.64.08,1.84-.2,3.71.06,5.59,0-3.48,0-6.95,0-10.46,0-5.23,0-10.43,0-15.66v-25c0-10-.08-19.95.14-29.92a74.42,74.42,0,0,1,.69-8.58c4.18-12.56,1.71-25.93,4.64-38.66q5.1-17.77,11.76-35c6.94-17.92,18.53-29.49,39.76-27.43,20.93,2,27.74,15.68,29.56,34-1.64,20.25-.43,40.53-.8,60.8v27.18c-1.15,13.3,2.9,27.3-.47,33.75,2.08-11.66-.13-30.17.52-48.4v-26.22c0-10,0-20,.06-29.93-.33-12.86,3.62-24.69,9.69-35.72,8.59-15.6,21.06-25.17,39.46-18,12.85,5,18.21,2,23.93-10.69,13.34-29.65,35.93-32.34,58-8.13,4.79,5.25,7.49,12.84,16.7,8.67,11.54-5.23,22.59-2,33.86,1.26,15.86,4.62,29.88-1.64,43.38-8.86,15.13-8.08,28.46-6.21,42.23,4,26.55,19.69,58.59,16.21,81.88-7.87,12.49-12.91,26.24-18.19,42.93-7.64,10.3,9.23,13.51,21.5,11.53,34.17-6.56,41.9-3.56,83.46.2,125.39,1.84,20.4,7.28,43-8.34,61.67-12.05,5.61-20.1-2.62-29-8.38-23.07-14.92-38.35-37.11-55.07-58-7.79-9.75-17.86-16.65-29.95-7.61-11.08,8.28-11,20.47-4.61,31.41,15.17,25.84,38.27,44.67,60.25,64.18,25.21,22.39,26.33,26.89,2.53,50.71-14.6,14.61-26.76,31.18-40.2,46.7-8.24,9.51-12.28,21.2-2.79,31.51,10.65,11.56,21.35,3.81,30.52-3.8,14.48-12,26.11-26.91,39.25-40.34,9.12-6.22,15.36-16.8,27.69-18.18a13.93,13.93,0,0,1,6.79,6.2,151.15,151.15,0,0,1,8.68,50c1.09,96.33,11.63,192.64,5.4,288.9-4.4,67.87-6.28,135.28.32,203,2.6,26.62-.44,53.4-3.81,80.08-5.08,40.17,5,79.93,5,120.18-.08,35.64-3.49,69.26-22.67,99.92-3.36,14.76-14.13,24.48-24.11,34.65-12.75,13-22.41,28-27.53,45.37-11.21,38.14,2.74,66.9,41.21,88.4,11,6.11,27.25,7.3,27.24,25.51.7,98.13,8.41,196,10.41,294,.27,13.35.95,26.8-2.05,40-5.19,16.31-16.38,10.58-25.74,5.87-45.72-23-88.55-50.31-123-88.82-12.38-13.84-25.13-25.52-45.19-24.51-9,.45-13.59,3.17-8.49,13.26,15,29.65,30.12,59.61,58.25,79,35.9,24.69,67.34,56.07,109.18,72.11,16.5,6.33,12.53,19.3,5.29,31.13-14,22.89-32.13,43-45.85,66-42.54,71.37-87,141.47-135,209.34-2.57,3.63-4.26,7.85-6.27,11.84-19.06,37.79-17.1,45.62,17.81,70.93,3.72,3.3,7.24,6.82,10.68,10.45a15.49,15.49,0,0,1,3.06,6.78c.26,7-3.28,12.06-8,16.63-6.78,6-14.73,10.27-23,13.62-112.53,45.78-182.33,133.68-235.21,238.29-1.53,3.46-3.06,6.93-4.55,10.42a22.15,22.15,0,0,1-6.65,9.45c-14.49,3.67-23.26,17.19-37.33,21.68-38.16-2.31-76.08-7.78-114.39-7.77-31.94-11.69-65.21-8.66-98.15-8.66-34.85,0-69.71-.56-104.54-.52-13.67.31-27.52-1.75-40.92,2.81a63,63,0,0,1-13.78,2.08c-12.58.41-25.15.36-37.73.52-43.08-.2-86.16.19-129.18-.14-4.35-.05-9,.41-13-1.06-26.67-9.71-45.86-.19-60,22.79-8,7.61-14.29,16.27-17.14,27.15-1.92,56.87-3.36,113.68,1,170.43,4.61,20.51-.78,43.57,15.58,61.1,13.23,33.28,19.76,68.51,29.48,102.81,24.31,85.84,93.55,173,207.07,176.49,32.14,1,35.82,7.34,35.53,38.9-.44,48.18-4,96.48,2.88,144.53,1.29,9-.08,17.78-1.61,26.63-5.63,32.59-9.75,35.92-42,32.89-26.89-2.53-53.42,1.53-79.94,4.74-22.14,2.68-42.16,7.81-45.84,35.86-1.48,11.28-14.3,15-23.14,20.9-19.28,13-21.37,22.51-4.66,38.24,15.36,14.48,22.18,26.44,5,44.31-8,8.33-2.29,16.1,7.22,21.16,8.91,4.74,22.15,3.14,25.33,16.65-6.35,13.17-18.71,11.94-30.25,12.68-9.9,0-19.87-.63-29.46,2.92a54.64,54.64,0,0,1-8.74,2c-35.46,1.59-71,4.13-104.47-11.85V-3303.61C222.72-3324.44,215.57-3347.66,226.67-3367.78Z"/><path class="cls-7" d="M215.79,209.46c37.26,1.81,74.38,7.15,111.83,4.78,34.58,3.6,67.74-6,101.4-11.1,80.67-3.34,161.32-3.08,242-.26,16.22,5.19,32.75,5.73,49.47,2.82,26.48,1.72,52.72,1.86,78.18,13.48,16.77,7.66,36.87-4.32,55.41,1.15,27.48,6.27,55.23,2.77,82.9,2.33,11.89.44,16.88,9.91,23.18,17.66,28.9,34.81,58.51,69,74.7,90.6-14.21-16.12-38.06-48.13-63.77-78.54-14.15-16.74-8-27.74,15.37-27.83,58-.21,115.58-9.4,173.65-6a128.31,128.31,0,0,0,45-5c91-2.55,182-3.49,272.89.31a196.57,196.57,0,0,0,85.88.34c103.23-3.91,206.38-5.92,308.25,16.18,23.8,5.17,47.93,2.28,71.91,3,16,.49,32.07-1.13,47.9,2,20.16,7.34,8.37,17.41,1.42,25.71-22.93,27.39-51.24,49.25-78.12,72.32q-79.93,68.61-153.5,143.8c-8,8.23-15.79,17-26.64,21.84-15.15,5.6-23.44-4.33-31.09-14.41-13-17.07-26.23-34.95-33.8-54.39-16.78-43.11-49.22-76.22-69.51-116.79a69.7,69.7,0,0,0-10.91-15.17c-19.22-21.39-32.84-21.82-54.07-2.28-32.59,30-56.45,67.12-78.85,104.28C1426.37,450.9,1390.47,497.37,1356,545c-30.22,41.85-18.89,73,32.41,82.07,43.91,7.75,86.43,21.92,130.84,27,10.86,1.25,20.87,5,27.13,15a14.16,14.16,0,0,1,1,7.68,27.65,27.65,0,0,1-3.65,6.79c-22,17.71-34.87,44.88-60.58,58.84-9.57,1.14-19.61-2-28.75,3.15l0,0c-10.78,7.15-19.41,16.5-27.16,26.73l.15-.08a18.8,18.8,0,0,1-5.41,5.47l.08-.08a21.08,21.08,0,0,1-5.42,5.48l.1-.09a24.39,24.39,0,0,1-5.42,5.5l.1-.1a29.71,29.71,0,0,1-5.42,5.5l.09-.09a34.68,34.68,0,0,1-5.44,5.46l.09-.09a42.52,42.52,0,0,1-5.4,5.5l.08-.08a63.36,63.36,0,0,1-5.4,5.47l.06-.06c-1.71,1.89-3.53,3.68-5.37,5.45l0,0c-1.75,1.83-3.56,3.6-5.31,5.42l0,0a74.17,74.17,0,0,0-5.29,5.35c-11.26,10-22,20.69-33.94,29.7-13.64,10.26-28,10.1-39.26.32-11.13-9.63-15.55-21.4-7.23-35.38,6.43-17.11,22.52-25.52,34.1-37.85a30.24,30.24,0,0,0,2.69-4.1,47.34,47.34,0,0,0-2.94,4.15c-15.39,12.18-27.43,28.13-44.36,38.44A90.72,90.72,0,0,1,1258.87,846c-10,6.88-21.07,10-32.5,2.63-11-7.15-14.79-17.24-11.75-30,.76-3.2,3.88-6.35-.51-10.73-15.82,6.88-33.31,14.76-47.89-2.17-14.12-16.39-2.33-31.29,9.48-50.24-27.11,12.19-42.73,30.48-61.63,44-13.74,9.83-26.89,20.47-40.58,30.38s-29.32,12.28-41.17-.63c-11.41-12.44-28.59-2.25-39.07-13.55a33.17,33.17,0,0,0-5.33-5.33l0,0q-2.46-2.9-5.27-.32h0c-2.68,3.22-7.89,2.05-10.22,5.88-10.87,14.51-26.57,23.58-40.37,34.58-12.56,10-27.86,12.93-41-.63-7.12-7.31-13-6.66-20.73-.81-7,5.3-15.26,9.17-23.26,13-25.78,12.46-40.64,5.89-46.21-22.24-1.85-9.31-6.94-13.49-13.12-18.51s-11.82-5.75-19.59-3.11c-29.29,9.94-36,7-51-21.13-10,7-19.91,14-30,20.73-9.12,6.1-19.33,10.85-30.18,7.52-12.47-3.82-20.43,1.79-28.35,9.57C619,844.31,610,854.4,599.6,862.7c-22.85,18.22-43.9,10.43-51.17-18.15-3.52-13.83-8.39-15.79-19.68-6.28-17,14.31-33.41,29.33-49.88,44.27-6.61,6-12.87,12.33-21.37,15.74-11.62,4.67-23.7,5.81-31.68-5-7.66-10.36-14.1-11.31-23.76-3.69-11.09,8.75-22.91,9-34.43.55-6.24-4.56-13.62-7.54-19.75-2.78-15.26,11.87-34.14,8.5-51,13.46-12.89,3.8-27.33,2.76-35.55-11.14-5.62-9.5-11.2-5.75-17.46-1.69-9.44,6.11-14.53,18.77-28.09,18.68V804.8c6.85-5.36,8.79-10.73,0-16.09Z"/><path class="cls-8" d="M215.79,788.71c5.86.46,12.09-1.23,18.1,2.43-3.32,9.1-9.28,13.27-18.1,13.66Z"/><path class="cls-9" d="M1734,494.63c77.06-77.69,158.24-150.92,240.42-223.09,10.64-9.34,22-18.14,29.64-30.44,8.7-10.82,20.89-7.56,32.2-8.09,49-2.31,97.71,5.39,146.62,5.5q212.29.48,424.53-.15c13.83,6.82,7,16.07,2.3,24.46-7.05,12.62-17.58,22.49-27.86,32.42-89.94,86.92-176.74,177-261.5,268.88s-170,183.06-255.26,274.4c-9.14,9.81-18.05,24.09-35.88,15.52-23.2,0-46.42.72-69.6,0-42.33-1.32-83.43,4-123.9,17.09-22.62,7.29-46.38,15.61-69.33-.81-5.2-3.72-10.35-1.12-14.82,1.9-8.06,5.46-17.55,8.87-24.06,16.57-14.56,12.08-30,23.17-50.12,19.69-22.07-3.8-35.63-25-39.37-39.92-6.56-26.15-24.49-29.27-42-31-19.75-1.95-41.53-4.11-58,14.67a579.87,579.87,0,0,1-49.18,49.23c-25.67,23-49.6,17.12-60.76-14.92-2.66-7.65-7-11.44-13.45-15.18-18.23-10.66-23.21-25.49-12.24-44.45l-.34.54c2.25-6.45,5.15-12.49,11.07-16.48l-.35.44c13.39-23.63,36.42-38.47,53.49-58.72,1.3-1.93,2.62-3.85,3.9-5.8.77-.85,1.58-1.68,2.35-2.55a23.2,23.2,0,0,1,5.65-3.89c1.08-.35,2.18-.69,3.28-1l59.13-58.74a14.29,14.29,0,0,0,4.55-4.7l.44-.44c7-12.36,18.51-8.73,28.69-7.14,54.65,8.55,110.13,8.24,164.89,15.73,12.35,1.69,25,1.35,37.41.31,26.47-2.21,33-15.21,23.13-40.08-16.89-42.46-46.94-77.72-64.18-119.87C1731.56,514.8,1725,505.05,1734,494.63Z"/><path class="cls-10" d="M1402.4,826.9c-3.9,20.25-2.41,37.68,21.84,44.16,6.4,1.71,5.59,7.76,6.77,13,6.24,27.52,25.86,35.61,49.37,19.79A197.29,197.29,0,0,0,1530,855.48c16.91-23.52,40.94-23.4,63.47-22,13.31.83,27.4,4.53,44.1,3.84-10.26,32.58,17.27,44.58,31.39,63.26,6.74,8.92,19.56,7.22,30,2.38,9.64-4.48,19.06-9.43,28.57-14.18-14.63,19.27-38.48,28.72-57.66,22.52-3.27-1-6.87-2.87-9-5.44-10.13-12.3-23.95-23.6-28.67-37.84-7.17-21.65-25.71-26.2-40.62-27.39-16.64-1.32-37-2.84-51.25,14.66-12.87,15.82-28.69,29.23-43.11,43.8-6.31,6.38-12.82,12.31-21.38,15.63-23.31,9-41.38,2.86-50.46-19.27-4.22-10.25-9.23-17.78-18.54-24.53C1389.69,858.51,1389.13,843,1402.4,826.9Z"/><path class="cls-10" d="M1471.16,750.19l-58.38,61.2c-2.32-10.76,5.91-16,11.91-22.18,11.72-12.11,24.15-23.58,35.31-36.18,5.08-5.73-1.34-6.58-5.53-7.4,8.13-5.8,15.45-15.11,27-6.22,0,0-1.16,1.25-1.16,1.25a11.21,11.21,0,0,1-3.81,4.08l-1.39,1.46A15.65,15.65,0,0,1,1471.16,750.19Z"/><path class="cls-11" d="M1331.29,778c-5.81,20.14-22.93,30.39-37.49,42.88l-10.51.63c12.6-18.25,27.17-34.33,48-43.54Z"/><path class="cls-10" d="M1427.36,772.32c4-14,12.72-23.3,27.16-26.73C1447.71,756.78,1439,766.08,1427.36,772.32Z"/><path class="cls-10" d="M1413.13,811a29.55,29.55,0,0,1-11.08,16.48C1400.55,818.46,1404,812.77,1413.13,811Z"/><path class="cls-12" d="M972.38,815.93c1.84-4.69,5.71-5.85,10.22-5.88C980.55,814.37,976.7,815.57,972.38,815.93Z"/><path class="cls-10" d="M1422.1,777.71l5.41-5.46Z"/><path class="cls-10" d="M1416.76,783.11q2.71-2.73,5.42-5.48C1420.37,779.46,1418.57,781.29,1416.76,783.11Z"/><path class="cls-10" d="M1411.44,788.52l5.42-5.5Z"/><path class="cls-10" d="M1406.12,793.92l5.42-5.5Q1408.83,791.17,1406.12,793.92Z"/><path class="cls-10" d="M1400.77,799.29l5.44-5.46Z"/><path class="cls-10" d="M1395.46,804.7l5.4-5.49Z"/><path class="cls-12" d="M982.6,810c2-3.67,3.75-3.69,5.27.31A35.76,35.76,0,0,1,982.6,810Z"/><path class="cls-10" d="M1390.14,810.09l5.4-5.47Z"/><path class="cls-12" d="M987.92,810.34a7,7,0,0,1,5.33,5.32Q990.58,813,987.92,810.34Z"/><path class="cls-10" d="M1384.83,815.48l5.37-5.45Z"/><path class="cls-10" d="M1379.55,820.86l5.31-5.41Z"/><path class="cls-10" d="M1374.23,826.24c1.77-1.78,3.53-3.57,5.29-5.35C1377.76,822.67,1376,824.46,1374.23,826.24Z"/><path class="cls-13" d="M2718.16,240.39c-29,.69-58.07,1.15-87.08,2.23-6,.22-11.89,2.73-17.82,4.18-11.07-8.18-22.06.62-33.13.57-142.49-.7-285,1.58-427.47-1.71-44.11-1-88.69-1.5-132.88-5.84-5.15-.51-10.48.81-15.72,1.28-37.5.19-75,.28-112.51.61a72.85,72.85,0,0,1-30.84-6.14c-20.68-9-43.71-7.36-65.79-9.38-48.07-4.4-96.32-4.54-144.58-4.52-29.44,0-58.88-1-88.32-1.49-26.85-1.66-53.67,2.84-80.52.4q-128.05.72-256.11,1.38c-8.86,0-17.71-.73-26.57-1.12-8.54,3.46-17.56,2.28-26.26,1.79-63.64-3.55-126.91,7.44-190.37,4.72-14.8-.64-16.08,14.12-27.19,14.78-7.08-3.2-7.09-13.47-15.42-15.41-28.53,1.79-57.07,3.42-85.55-.88-6.18-.19-12.6-1.53-18.52-.37-21.42,4.18-41.93,6.7-60.82-8.87-6.07-5-15.58-2-23.54-2.2-10.57-.2-21.35,1.28-31.16-4.33-14.37,3-28.72,3.68-43-.48-55.71.68-111.42,1.63-167.14,1.92-28.29.15-56.58-.9-84.88-1.41-13.33,3.65-25.59.86-37.14-6.21-7.55-7.46-18.29-5.85-27.29-9.44-22.74-9.06-25.69-19.1-9.18-37.07,3.56-3.87,8-6.91,11.68-10-8.33-9.18-16.57-18-24.56-27.14-12.7-14.45-11.54-26.7,3.92-37.87,5-3.63,10.9-6.1,16.49-8.89,9.55-4.76,19.76-7.63,14.74-23.22-3-9.15,5.33-15.9,13.69-20.63,10.4-5.88,21.69-7.65,33.25-9.21,29.75-4,59.24-9.72,89.63-4.79,22.31,3.61,23.22.46,28.57-22.07,4.1-17.3.15-33.3-.55-50-1.92-46.35-2.28-92.87,1.51-139.14.93-11.24-3.06-14.45-11.32-16.91a30.57,30.57,0,0,0-10.54-1.41c-21.8,1.48-42-6.05-63-9.72-48.75-8.56-80.42-40-109.63-75.45-28.2-34.21-45.44-73.38-54.91-117.1-6-27.62-13.49-55.19-21.29-82.51-10.72-28.12-11.28-58.06-15.69-87.32,0-30.32-.08-60.63,0-90.93,2.23-25.87,15.1-49.28,17.44-75.15,10.94-25,27.49-30.6,56.39-29.94,53.65,1.24,107.73,7.54,161.46-.38,7.1-.6,14.36.21,21.33-2a31.33,31.33,0,0,1,8.29-1c8.47.58,16.42-3.57,24.92-2.73,8.88.84,17.3-2.71,26.1-2.62,51.21,9.33,103.19,2.4,154.58,7.53,12.75,4.69,26.2,3.32,39.36,4.38,34.22,2.75,68.87-.36,102.68,8.74,8.08,2.18,17.63,2.75,25.61-3,2.85-18.53,16.62-20.7,31.58-21.1,2,1.76,4.87,3.56,4.73,6.07-2,36.53,17.36,66.87,28.5,99.61,2.84,36.3,4.55,72.59-.84,108.77-9.34,15.93-10.45,2.14-12.81-2.11-2.75,39.2-25.33,73.5-37.16,111.28-24.15,43.84-51.38,85.53-80.7,126.25-42.6,59.17-94,105-165.21,124.81-25.21,7-31.37,19.44-31,46,.6,49.75-2.78,99.69-4,149.59-.55,23,5,35,30.79,34.54,15.75-.26,31.78,4,47.82,5.19,8.93,2.16,18.18,3.69,25-4.09C748.41-11.13,776-14.28,803.64-17.6c33.17-1.67,66.37,1.07,99.47-1.09a116.09,116.09,0,0,0,10.55-4.91,54,54,0,0,1,6.49-3.59c1.15-.37,2.33-.7,3.49-1.06,3.87.08,6.54,2,8.28,5.39.86,2,1.63,4.13,2.42,6.17C942-7.46,953.82-12,963-8c62.49,2,124.93.4,187.36.77,6.22,0,12.6.37,17.49-4.41,2.23-4.31,1.23-8.65.12-13-1-4.56-1.27-9,2.25-12.73a8.63,8.63,0,0,1,6.32-1.24,18.69,18.69,0,0,1,5.34,3.75,31.63,31.63,0,0,1,3.57,5.36c1.11,1.81,2.14,3.67,3.23,5.5A63.93,63.93,0,0,0,1193-19c4,3.22,8.7,4.15,13.58,4.9,49.3,4.25,98.35-2.63,147.08-5.81,87.56-5.73,175-3.92,262.4-3.4,116,.7,231.93,3.73,347.53,14.69,82.56,7.83,82.61,7.35,141.44-68.71a65,65,0,0,1,5.56-6.57c.9-1,1.91-2,2.81-3,18-21,38-40.36,51-65.3,29.79-46.82,65.73-88.9,102.19-130.44,13.84-15.76,13.16-26.88-3.3-39.07-7.91-5.86-15.46-12.15-24.48-16.15-34.85-15.47-63.9-38.64-90.12-66-20.18-21.05-20.59-20.63-33.9,4.16-11.5,21.42-26,40.78-44.33,56.56-18.57,16-42.5,17.11-65.78,18.72-15.87,4.79-32.16,4.77-48.46,4.67a59.66,59.66,0,0,0-19.62,2.9c-13,2.85-25.76,6.6-39,8.36-22.77,7.24-43.35,21.15-68.1,22.41-21.74-5.43-42.55,3.73-63.92,4.2-34.59-8.74-70.29-10.88-105.4-15.53-46.94-6.21-82.73-26.16-98.65-70.34-13.7-38-35.2-59.17-74.16-74.24-44.78-17.33-88.2-40.95-125.6-74.86-23.87-21.64-52.31-40-80.09-57.28-28.26-17.58-35.69-48-53.3-72-7.69-10.44,2.5-19.61,13.33-24.54,49.67-22.64,94-54.42,141-81.65,19.45-11.26,29-24.86,22.56-48.06-13-46.86-10.78-95.61-16.09-143.43-2.17-19.55-10.29-30.87-27.67-38.36-34.39-14.82-64.38-38.07-99-52.5-17.23-12.42-34.2-25.29-53.78-34.07-6.28-2.82-7.37-9.92-11.8-14.27l0,0c-2.56-3.55-7.74-2.41-10.38-5.82-45.31-29.84-47-36.93-21.44-86.24,14.85-28.66,35.26-53.56,53.87-79.6,24.43-34.15,45-70.51,65.5-107,17.06-30.41,39.58-57,59.18-85.67,4-5.88,8.17-11.72,11.71-17.9,3.71-6.48,2.9-11.9-5.16-14.61-35.39-11.88-64-34.26-91.19-58.88-9.31-8.44-22.06-11.37-31.32-20.28-19.59-18.84-33.42-41.58-45.66-65.36-2.81-5.47-4.68-10.85-9.23-15.66-8.41-8.91-5.74-15.76,6.45-16.93,22.18-2.13,42.79,1.1,57.62,20.53,29.89,39.17,71.51,63.35,113,87.64,9.21,5.4,19,9.73,28.59,14.55,33-3.88,41.93-33.37,58.32-55C1477-1642.7,1511.89-1700,1553-1752.85c7.64-9.81,11.7-16.7-4.13-24.06-32.05-14.89-39.64-35-20.85-66.7,22.87-38.53,40.88-79.17,60.38-119.22,7.42-15.24,16.17-29.89,22.29-45.71,23.79-61.56,48-72.41,123.2-65.32,39.25,3.7,77.19,8,116.49,2.89,33.06-4.26,65.58,5.86,98.24,10,33.86,4.33,67.25,2.28,101.18,1.1,83.69-2.89,167.53-5.05,250.88,10.74,35.12,6.65,72.46,13,106.45-9.21,9.41-6.15,23.92-3.48,25,6.2,3.1,28.76,30.73,40.63,39.88,64.46,4.74,23.18,18.74,42.37,27.7,63.75,11.74,65,51.05,119.46,69.49,182.2,24.61,83.71,62.29,163,77.77,250.14,9.3,52.33,29.64,102.79,50.58,152.17,24.09,43.6,31.61,92.83,46.61,139.5,19.65,61.11,36.55,123,62.7,182,32.26,72.83,48,150.89,68.35,229.4,15.44-10.18,28.6-23,40.51-37.3,55.35-66.59,110.88-132.92,173.06-193.55,35.81-34.91,64-76.82,96.79-114.6,24-27.64,49.19-54.22,72-83,10.67-13.46,11.4-24.41-1.54-37.2-78.77-77.86-126.11-172-143.72-281.22-5.4-75.45-17.86-150.56-8-226.7,2.83-22,1.43-44.59-3.18-66.71-5.43-26,3.27-51.5,3.73-77.32.26-14.82-.8-26.23-20.39-15-11.38,6.53-23.71,10.28-30.77-7-2.34-5.73-8.25-6.54-13.72-6.18-50.66,3.36-68.65-33.15-86-70.38-1.5-3.2-1.8-6.93-3.24-10.2-18.14-41.18-18.22-44.08,18.42-74.09,54.95-45,99-100.31,146.89-152,9.25-10,16.43-20.09,14.21-35.63s7.26-19.18,20-12.3c11.77,6.35,23.89,12.54,34.54,20.5,35,26.16,69.6,52.59,109,72.41,12.83,6.46,27.82,16.69,14.35,35.85-27.86,15.2-55.3,31.29-86.47,42.59,7.58,5.59,15.15,2.9,21.59,5.31,20,7.5,31.74,3.43,34.95-20.45,2.15-15.92,13-24.85,30.79-17.7a24.66,24.66,0,0,1,6.62,11.37c9.25,33.59,12.18,35.75,46.88,34.36,18.65-.75,36.81-6.07,55.57-6,27.52-6.58,55.33-5.41,83.17-3.66,25,4.34,50.13-4.37,75.1.75,27.43,16.92,52.93-.06,79.14-4.65a98.28,98.28,0,0,1,34.67-.68c16.21,6.2,32,7.87,48.34-.82,13.61-7.23,29.19-5.6,44.15-6.49,88.36-3.13,176.78-4.93,264.35-18.71,8-1.26,16-2.39,24-1.06,106.33,17.71,213.61,13.34,320.67,14,16,.11,32.2-1.42,48,2.35a22,22,0,0,1,7.47,4c-12,16.84,7.39,22.06,12.26,32.74a170.85,170.85,0,0,1,16.88,80.33c-1.24,39.19,8.17,78,5.27,117.38-1.12,15.09-.49,30.17-3.76,45.23-2.59,11.95-4.72,24.76,5.9,35.18,7.51,7.37,3.49,16.85,3.59,25.51,1.25,15.17,2.64,29.77-10.79,41.93-7.59,6.87-6.61,18.22-5.38,28.06,6.88,55.36-4.15,108.17-22.19,160.06-11.13,32-18.74,65-31.51,96.72-34.31,85.18-89.8,156.07-147.6,225.5-17.54,21.07-32.47,45-56.68,59.83a13.57,13.57,0,0,1-7-1.14c-3.2-1.94,1.5-5.45-1.37-7.53-.83,1.87-1.56,3.81-3.22,5.25-45.35,36-97,61.34-147.53,88.63-7.86,4.24-15.89,7.6-20.74,15.61-59.47,22.28-116.38,53.18-182.08,54.17-6.48.9-8.78,5.1-8.65,11.22-.21,8.46,2.2,16.7,1.73,25.16-1.15,7.93-2.28,15.84-4.14,23.64-3.35,47.61-3,95.37-6.61,142.94-18.46,10.35-32-5.25-47.17-10.07-10.37-3.29-19.79-11.52-25.44-22.22-12.12-31-6.54-63.43-7.77-95.31-.34-8.9,0-17.83-.05-26.74-.09-43.47-.38-43.78-44.16-48.39-4.49-.12-9-.15-13.48-.13-17.45-1.1-35.74,4.13-51.91-6.66-.09-20.37,17.25-7.24,22.57-11.18-29.72-8.54-59.7-21.33-90-33-10-3.83-20.28-10.52-26.08,5.38-56.68,56.28-102.38,122.51-160.77,177.23-24.75,17-41.87,40.17-54.8,66.84-10.23,1.43-18.05,6.82-23.88,15.08-17.42,24.71-40.52,44.09-61.08,65.86-17.92,16.34-34.23,34.12-48,54.16-5.18,7.13-10.56,14.07-18.37,18.6-24.47,20.57-41.14,44.88-37.83,78.82-3.59,59.27-10.23,118.55,7.31,177,20.09,66.95,12.46,126.58-47.22,171.69-9.12,11.09-17.57,22.79-27.3,33.34-1.79,1.86-3.86,3.57-4.85,6a4.59,4.59,0,0,0,1.93,3.87c2.4,1.23,4.92,2,7.34,3.08,3.07,1.79,4.47,4.25,3.29,7.82-4.81,6.39-12,6.16-18.86,7.1-4.59.64-8.95,1.9-12.74,4.73-18.05,15.77-34.3,33.09-48.06,52.75-15.92,22.75-15.62,26.91,6.38,42.51q20.52,14.55,41.06,29.06c13.94,13.14,29.9,23.87,44.14,36.64,3.78,2.92,7.83,5.47,11.75,8.2,22.68,22.35,49.18,40.47,70.92,63.89C3194.93,72.14,3211.4,86,3220.38,106c5.59,12.36,7.45,25.39,3.85,38.3-2.32,8.33-3.17,20.14-17.41,17.33-27.75,21.71-60.39,29.13-94.48,31.52-11.58.81-22.77,1.91-34.09,5.12-47.12,13.37-95.31,21.68-144.27,21.41-26-.14-51.2,5.57-76.94,6.5-5.33.2-10.33,2.58-15.07,6.79,1.61,9.81,11.4,14.91,14.85,24,7.45,19.65-1.79,33.69-22.81,33.21-21.86-.5-39.14-13.75-47.87-30C2768.8,228,2744.43,234.22,2718.16,240.39Z"/><path class="cls-14" d="M387.82,203.89,425,210.1c-1.38,1.08-2.68,3-4.16,3.13-24.55,2.41-49.12,4.76-73.71,6.75-7,.57-14.39.94-19.47-5.74l.32.12c8.45-4.75,18.27.25,26.82-3.77C365.57,207.31,377.56,209.86,387.82,203.89Z"/><path class="cls-7" d="M354.76,210.59c-8.08,7.36-17.71,3.7-26.82,3.78C336.29,208.88,345.5,209.58,354.76,210.59Z"/><path class="cls-15" d="M1734,494.63c3.52,26,14.83,48.85,30.56,69,10,12.83,18.53,26.05,24.26,41a221.39,221.39,0,0,0,18.5,38.18c16.92,27.37,3.59,50-28.88,48.91-69.18-2.43-138.22-7.14-206.85-16.62-8.77-1.22-17.4-3.81-26,.38-6.66-11.2-17.68-14.51-29.49-15.51-48.08-4.1-93.54-21-141.14-28.26-41-6.22-55.61-47.84-31.43-81.33,30.23-41.89,64.17-81.25,90.52-125.74,21-35.38,44.9-68.5,68.44-102,10.35-14.74,23-27.37,36.28-39.23,16-14.26,31.65-13.62,47.45.82,4,3.61,8.77,7.07,11,11.67,19.89,41.87,54.72,74.43,72.11,118.1,10.17,25.56,26.51,48.3,42.84,70.55C1717.15,491.48,1722.93,499.57,1734,494.63Z"/><path class="cls-16" d="M688.64,393.27C688.1,435.41,658,477.16,626.31,488c-36.82,12.6-86.87-22.36-85-58.1,2-39.68,16.43-72.43,47.78-97.16,15.53-12.25,32.39-13.67,50-4.46C668.63,343.81,687.54,366.62,688.64,393.27Z"/><path class="cls-16" d="M742.94,548.25c23.33-17.92,48.69-20.28,75.75-10,38.67,14.73,55.62,57.65,37.37,94.77-22.09,45-69.3,61.51-115.49,40.88-16.05-7.17-23.13-21.41-30.4-35.75-5.93-17.63-5.77-35.26-.08-52.91l-.14.32c2.55-7.73,4.14-15.92,10.35-21.92l-.15.16a20.85,20.85,0,0,1,5.48-5.52l-.17.14C730.78,554.18,736.23,550.14,742.94,548.25Z"/><path class="cls-16" d="M692.43,590c-10,17.84-20,35.7-30.07,53.5-4.84,8.54-9.57,17.28-17.37,23.55-8.86,7.11-18.64,11-29.59,4.65-11.67-6.72-15.14-17.4-11.72-29.78,2.11-7.64,5.75-15,9.57-22,35.47-65,68.22-131.38,97.65-199.36,3.94-9.11,8.29-17.85,17.29-23.13s18.35-6.63,27.87-1.09,13.23,14,13.15,24.62c-.08,9.3-4.6,17.06-8.56,25.06-14.62,29.54-29.24,59.09-41.15,89.87-2.65,3.34-1.68,8.41-5.4,11.24l.1-.18c-2.73,3.18-1.84,8.17-5.43,10.92l.12-.14c-3.19,2.9-1,8.51-5.45,10.78l0-.1c-2.75,3.16-1.8,8.21-5.54,10.86l.11-.2C695.41,582.33,696.29,587.39,692.43,590Z"/><path class="cls-17" d="M955,242.13c5.92-14.1,16.6-17.36,31.42-17.12,61.1,1,121.95-8.35,183.16-5.18,9.73.5,19.48.68,29.24,1-8.39,4.14-17.5,2.73-26.3,3.07-67.68,2.6-135.36,5-204.12,7.45-.62,13.37,9.84,20.4,16.85,28.47,17.53,20.16,36.68,38.88,50,62.47,5,8.83,13.61,13.74,22.67,18,5.23,2.46,12.76,3,12.89,12.66-17.76,3.87-33.11-3.94-41.53-16.87-20.62-31.67-48.71-56.8-71.08-86.75C956.64,247.3,956,244.55,955,242.13Z"/><path class="cls-18" d="M1459.75,274c.19,12.36-10.78,25-22.36,25.7-11,.7-25.57-14.31-25.3-26.15.28-11.56,10.15-20.84,22.73-21.35C1448.62,251.59,1459.55,261.15,1459.75,274Z"/><path class="cls-19" d="M539.93,530.88c12.2-.16,22.62,9.62,22.71,21.31.08,10.4-12.46,21.75-23.4,21.17-9.94-.52-21.1-11.21-21.39-20.52C517.49,541.29,527.8,531,539.93,530.88Z"/><path class="cls-20" d="M1040.27,669.9c-10.8.44-20.36-10.43-20.25-23,.1-11.38,5.11-18.23,17.11-19,12.47-.85,22.92,7.3,24.29,19.23C1062.61,657.41,1051.48,669.44,1040.27,669.9Z"/><path class="cls-21" d="M1481.5,220.58c26.82-4.45,53.64-8.65,80.52-.4C1543,227.57,1502.18,227.77,1481.5,220.58Z"/><path class="cls-22" d="M900.92,600.19c-8.5,0-13.62-4.43-13.85-12.63-.2-6.89,4.09-11.82,11.25-12.41,8.55-.7,13.56,4.28,13.83,12.44C912.38,594.5,908,598.88,900.92,600.19Z"/><path class="cls-23" d="M854,225.84c28.54-2,57.09-4.85,85.55.88C911,233.05,882.47,234.37,854,225.84Z"/><path class="cls-24" d="M515.17,333.89c-.15,7.23-4.33,9.4-10.23,9.29-6.06-.11-9.64-3.2-9.92-9.43-.25-5.8,1.7-10.61,8.28-10.6C510.29,323.17,514.18,327.5,515.17,333.89Z"/><path class="cls-25" d="M710.09,585.27q0,26.46.08,52.91C699.92,620.56,700.07,602.92,710.09,585.27Z"/><path class="cls-26" d="M677,209.59c14.36-2.38,28.72-4,43,.48Q698.36,221.76,677,209.59Z"/><path class="cls-25" d="M720.3,563.67c-2.13,7.93-4.8,15.61-10.35,21.92q-.37-8.4-.74-16.81l-.06.06Z"/><path class="cls-25" d="M742.94,548.25c-4,6.47-10.42,8.91-17.48,10.2C728.34,550,734.36,546.94,742.94,548.25Z"/><path class="cls-27" d="M838.09,495.78c1.07,1,3,1.92,3,3,.24,3.05-1.89,4.53-4.66,3.62-1-.32-2-2.76-1.79-4C834.88,497.34,836.88,496.64,838.09,495.78Z"/><path class="cls-25" d="M714.1,547.15c-.32-4.76,1.15-8.67,5.4-11.24C720.28,540.89,719.33,545.05,714.1,547.15Z"/><path class="cls-25" d="M708.77,557.89c-.34-4.71,1.09-8.53,5.43-10.92C714.93,551.87,713.89,555.89,708.77,557.89Z"/><path class="cls-25" d="M692.43,590c-.21-4.71,1.24-8.57,5.62-10.92C698.79,584.07,697.7,588.12,692.43,590Z"/><path class="cls-25" d="M703.44,568.53c-.25-4.64.9-8.57,5.45-10.78.09,3.7.17,7.4.26,11.09l.06-.06Z"/><path class="cls-25" d="M697.94,579.29c-.27-4.7,1.21-8.51,5.54-10.85C704.19,573.36,703.12,577.38,697.94,579.29Z"/><path class="cls-25" d="M725.63,558.31a6.37,6.37,0,0,1-5.48,5.52A6.09,6.09,0,0,1,725.63,558.31Z"/><path class="cls-15" d="M1545.13,676c0,3-1.58,4.55-4.55,4.71A4.65,4.65,0,0,1,1545.13,676Z"/><path class="cls-11" d="M1331.28,778c.41-.75,1-2.19,1.21-2.13,1.81.4,1.39,1.25-1.2,2.16Z"/><path class="cls-28" d="M1805.78,523.75a22,22,0,0,1-20.52-23.09A21.75,21.75,0,0,1,1808.05,480c11.78.68,21.47,11.35,20.8,22.92S1817.25,524.36,1805.78,523.75Z"/><path class="cls-29" d="M1587.67,766.34c6.36-7.54,14.09-8,20.6-1.52s6.56,14.18-2.13,20a9.79,9.79,0,0,1-5.39-3.78,29.7,29.7,0,0,0-9.17-9.43A11.15,11.15,0,0,1,1587.67,766.34Z"/><path class="cls-29" d="M1606.14,784.82c-19.62,4.9-23.65.86-18.47-18.48l2.45,2.27a147.41,147.41,0,0,1,13.68,13.7Z"/><path class="cls-7" d="M1476.47,744.74c.09-2.47,1.34-3.86,3.81-4.09Q1480.67,744.84,1476.47,744.74Z"/><path class="cls-7" d="M1471.16,750.19a3.79,3.79,0,0,1,3.93-4C1475.26,749,1474,750.33,1471.16,750.19Z"/><path class="cls-30" d="M1202.87,86.27c1.51-3.16,3.82-6.17,4.4-9.49,4.58-26.55,4.5-26.28,30-27.63,54.4-2.86,108.8-8.81,163.18-8.53,103.55.55,207.11-7.94,310.68.67,54.31,4.51,108.93,1.92,163.35,6,82.75,6.16,165.7,9,248.4,16.31,100.66,8.86,201.67,9.32,302.63,7.66,89.3-1.47,178.59-4.5,267.88-6.94,9.9-.27,19.43,1.47,29.17,2.91,29.14,4.33,52.83-16.64,56.78-46,1.36-10.11-2.3-14.56-8.46-19.93Q2692.14-67.4,2613.4-136.14c-8.07-7-16.31-14.25-25.57-19.42C2525.82-190.2,2472-236,2416.88-280c-11.16-8.91-22.66-17.43-34.28-25.74-25.39-18.15-51.69-34.86-73.5-57.88-14.79-15.61-34.11-25.78-53.91-34.46-39.16-17.17-61.6-53.55-92.24-80.52-5.08-4.48-3.31-9.92,0-14.46,12.88-17.52,19.89-37.81,28.13-57.6,6.31-15.17,7.16-14.86,21-6.09,49.27,31.1,94.37,67.5,136.64,107.48a324.09,324.09,0,0,0,44.3,34.56q80.37,53.18,160.4,106.89c23.89,16,43.92,36.58,64.19,56.73,55.84,55.5,115.93,105.71,179.9,151.76,53.66,38.62,108,75.67,165.24,108.92,58.12,33.78,105.29,81.94,157.52,125.54-33.16,2.72-63.85,15.83-96.81,15.16-60.94-1.23-121.1,8.48-181.63,12.95-30.27,2.24-60.47,5.4-90.76,7.3-72.17,4.53-144.38,8.54-216.56,12.8-11.37.67-22.79-.67-33.06,7.53-4.09,3.26-12,2.33-18.12,2.39q-80.41.67-160.84,1a123.16,123.16,0,0,1-36.88-5.21c-21.57-6.54-44.15-6-66.5-6.25-2.66,0-6.06-.65-7.9.69-23.76,17.23-49.76,7.66-75,6.49-45.5-2.12-91-5.64-136.47-6.78-87.57-2.2-174.46-12.12-261.56-20.16a914.53,914.53,0,0,0-101.53-4c-71.4,1.35-142.87.8-214.35-.54-86.48-1.63-173.16-6.18-259.63,5.39-41.53,5.55-83.68,4.75-125.61-.58-28.41-3.62-57-2.84-85.51,1.17-25.37,3.58-25.85,2.7-33.73-22-9.65-30.27-11.27-61.33-9.85-92.75,4.86-12.82,16.62-10.75,25-8.55,23.73,6.2,47.66,5.15,71.53,4.51,15.93-.44,20.82,5.91,18.27,20.74-9.55,55.37,57.67,99.93,108.59,69C1156.27,120.36,1185,111.29,1202.87,86.27Z"/><path class="cls-15" d="M913.19-14.4c-2.86,6.17-8.58,5.17-13.62,5.09C866.28-9.9,833-10.67,799.7-11.38c-2.68-13.56,7.19-21.08,14.4-29.84,29.41-35.73,59.52-70.85,89.52-106.08,2.89-3.39,5.81-6.8,7.86-10.76,5.37-10.43,6.56-21.17-3.56-29-9.21-7.1-19.3-3.49-26.71,3.67a440.78,440.78,0,0,0-34.13,37.49C805.87-95.65,763.58-46.31,723.31,4.67c-5.57,7-10.87,14.14-19.82,17.16-24.21,2-47.54-6.62-71.65-5.9-10.46.31-13.57-5.33-13.36-15.16.6-27.61-.23-55.27,1-82.85,1.21-27.33-3.28-54.9,3.89-82.09,1.7-6.44-.32-14.13-1.66-21-4.7-24.17-1.51-27.16,20.94-35.24,41.55-15,82.89-28.69,116.85-61.07C811.79-331.39,851-389.9,887.15-451.34c4.39-7.45,5.88-17.18,15.29-21,1,.7,1.93,1.39,2.91,2.07A40.57,40.57,0,0,1,912.48-458c4.55,16,12.58,31,13.56,48,2.78,1.75-10.27,8.43,2.38,7.19,13.32,23.94,22.35,49.9,37,73.12,19.38,30.82,40.38,60.23,67.95,84.4,10.37,11,20.69,22.12,34.39,29.28,31.1,22.58,62.87,47.5,100.12,54.57,43.16,8.18,82.39,28.37,125.69,34.41,10,3.73,14.13,12.17,18.78,21.1,24.75,47.52,85.21,60.91,129.41,29.74,12.76-9,21.52-24.44,39.46-25.46,96.72,26.71,175-24,256-61.89,16.26-7.61,24.85-24.76,34.69-39.94,18.79-29,31.62-62.15,58.4-85.69l63.83-24.08c17.07,9.09,31.72,7.37,42.92-9.66,5.13-3.56,10.63-3.29,16.27-1.53,7.36,7.71,3,16.66,2.48,25.12-.56,8.84-1.17,17.68,1.84,26.15,3.42,9.64,8.85,18.06,20.54,17.05,10.7-.93,13.65-9.83,15.49-18.79,3.84-18.74,2-38.8,13.21-55.8,7.94-.74,16-1,23.81-2.33,21.75-3.73,39-13.14,52.85-32.1,15.64-21.38,28.32-44.55,42.07-67.22,15,8,23.69,19.51,33.54,29.6,23.2,23.78,48.63,44.28,79.44,57.53a122.66,122.66,0,0,1,16.52,8.69c37.12,23.28,39.24,31.63,11.09,63.83-34.56,39.51-65.9,81.48-97.84,123-10.47,11.54-14.13,3.18-16.75-6.07-2.56-9-.38-18.9-5-27.56-20.27-34.35-46.29-47.21-76.22-37.56-30.46,9.81-57.69,51.9-53.51,84.39,2.76,21.38,20.06,28,37.8,32.14,13.88,3.22,28.35,1,42.52,1.54a69.29,69.29,0,0,0,14.21-1.45,25.71,25.71,0,0,1,7.11-.56c14.58,5.62,3.85,12.65,1.05,19.24l0,0a24,24,0,0,0-4.91,6.11,294.48,294.48,0,0,1-38.37,51.29c-3,3.26-7.83,6.15-8.72,9.94-5.57,23.59-21.26,20-40.1,19.49-91-2.5-181.64-9.88-272.56-13.34-108-4.11-215.88-3.66-323.8-2.35-56.13.68-112.24,3.48-168.28,7.76-23.52,1.79-47.87,7.2-71-3.78-3.06-2.85-2-7.88-5.51-10.5l-.08-.15c-1.85-2.21-3.94-4.27-4.47-7.29a3.82,3.82,0,0,0-1.16-3.57,58.88,58.88,0,0,1-4.46-6l.27-.17c-15.11-7.55-24.66-22.21-40.12-29.87-27-13.34-55-17.32-84.58-16-14.81.68-30,2.32-44.47-3.47-1.53-.89-3.2-1.84-4.08-3.33-22.86-38.78-29.9-39.95-57.35-4.7C926-70,901.53-48.82,881.65-22.43,892.7-19.62,905.52-26.44,913.19-14.4Z"/><path class="cls-31" d="M650.44,150.27c2.32-1.35,4.59-2.78,7-4,3.44-1.84,5.77-4.69,4.73-8.48-1.2-4.34-5.25-3.63-8.82-3.58-72.35,1-144.33-9.08-216.73-7.31-13.3.33-26.66-2.26-40-3.4-6.39-.54-12.28-1.78-16.41-7.46-5.16-7.1-6-13.36,3.77-16.45a60.92,60.92,0,0,1,18.42-3c29.44.21,58.79,1.22,88.22,3.69,46.22,3.88,92.71,4.56,139.08,6.62,6.71.29,12-2.68,18.22-8.33-24.63-7.62-48.56-12.23-73.46-13.46-37.26-1.83-73.59-11.91-111-13.57-9.26-.41-22.44-3.86-21.36-15.14,1.25-13.09,14.5-13.39,25.64-12.71,29.41,1.79,59,2.23,88.17,5.76,33.89,4.1,67.75,3,101.65,3.79,15,.34,30.65-2.37,44.5,6,8.44,5.1,10.41-3.36,15.12-6.31,14-8.75,21.78-6.09,24.4,9.72a270.33,270.33,0,0,0,17.23,59c7.81,19,2.88,38.9,3.43,58.39.2,7.05-6,7.91-11.5,8-11.61.14-23.23,0-34.85.07-50.88.37-101.82,2.61-152.57,2.85-36.94.18-74.4-2.34-111.65-3-10.56-.17-11.78-9-15-16,15.09-17.24,35.37-8.52,53.47-10.71,32.51,1.5,64.82-4.44,97.33-2.62,10.29.37,20.53.28,30.22-4C628.2,150.43,640.2,157,650.44,150.27Z"/><path class="cls-32" d="M703.49,21.83c36.79-51.45,78.44-99,118.68-147.64,14.74-17.83,30.09-35.16,45.18-52.7,3.48-4,6.59-8.52,10.62-11.91,11.09-9.33,25.09-10.63,34.43-3.81,10.71,7.81,13.89,22.35,6.49,36-4.18,7.71-10.24,14.47-15.85,21.33C868.7-95,831.43-55.47,799.7-11.38c-11.29,2-22.61,3.93-33.88,6.12C754.27-3,741.59.45,737.26,11.67,729.67,31.34,717.15,26.64,703.49,21.83Z"/><path class="cls-33" d="M910.46,164.32c-29.92,3.74-56-.36-81.2,6.47-7.25,2-12.92-2-11.94-9.93,4-32.42-9.72-61-18.16-90.85-6.29-22.28-3.5-25.36,18.87-26.09,21.38-.7,42.79-.72,64.19-.9,6.57-.06,13.16,1,13,9.59C894.34,90,894.76,127.16,910.46,164.32Z"/><path class="cls-33" d="M1084.42,54.63c10.17,13.15,4.54,28.82,5.53,43.86,16.86-8,16.86-8,13.6-48.8,26.51,0,52.86,0,79.2,0,13.18,0,12.13,10.28,13.81,18.66-.49,26.12-12.54,42.76-37.89,51.57-13.18,4.59-24.55,14.32-37.94,19.42a73.73,73.73,0,0,1-98.13-51.27c-4.38-17.83,6-34.15,25.54-36.1C1060,50.76,1072.8,47.91,1084.42,54.63Z"/><path class="cls-34" d="M1084.42,54.63c-9.77-.5-19.56-1.63-29.31-1.35-21.61.64-31.87,18.36-24.65,38.88,12.85,36.48,58.07,60.29,95.25,37.6,14.35-8.76,29.9-15.65,45.29-22.53,17.09-7.65,17.72-25.5,25.56-38.89,1.18,6.3-.65,13.66,6.31,17.93-1.6,14.39-8.95,25.26-21.54,31.86-18.15,9.51-37,17.71-55.11,27.3-42.38,22.45-98.17-5.36-111.57-54.56-3.62-13.29-.89-26.22,6.68-37.91-15.27-6.28-27.88-3.44-40.18-4.06-15.15-.76-30.3-.62-45.33-3.64-9.53-1.91-19.59-3.78-27.74,4.46-.09-11.63,8.07-11.14,16.38-12.08,17.15-2,32.87,7.55,49.87,5.47,33.34-4.06,65.69,9.14,99,5.61C1078,48.23,1081.9,50.47,1084.42,54.63Z"/><path class="cls-35" d="M1176.56-16.55C1181.85-9.7,1183-3.37,1173-.3c-4.11,1.26-8.84.63-13.28.64q-92.16,0-184.31-.07c-7,0-14.39,1-20.08-4.79,1.13-1.18,2.27-2.36,3.39-3.55,23.66-9,48.24-3.61,72.4-4.66,22.15-.56,44.31-.38,66.45-.32,24.92.22,49.93,2.6,74.68-2.67C1173.69-16,1175.12-16.28,1176.56-16.55Z"/><path class="cls-36" d="M591.24,161.06c-34.4-3.43-68,8.84-102.45,5.07a5.2,5.2,0,0,1,1.13-6.64c8.48-2.63,17.71,1.47,26-2.91l75.23-1.06q2.64,1.8,1.8,3.66C592.39,160.43,591.82,161.06,591.24,161.06Z"/><path class="cls-37" d="M490.26,161.64c-.44,1.52-.93,3-1.47,4.49-17.66-.49-35.24-.23-52.18,5.78-2.06-5.6.45-8.94,5.45-11.06,2.49-2.44,6.29-2,8.92-4.19l6.22-.38C467.5,162.5,480.15,154.25,490.26,161.64Z"/><path class="cls-38" d="M490.26,161.64c-10.9-2.52-23.23,3.79-33.06-5.36,19.6-4.8,39.15-2.11,58.72.3C508.46,163.83,499,160.94,490.26,161.64Z"/><path class="cls-39" d="M650.44,150.27c-9.36,9.92-21.39,4.09-32.21,5.46L616.41,154l1.44-2.07C628.55,148.2,639.49,149.09,650.44,150.27Z"/><path class="cls-40" d="M591.24,161.06c0-1.85,0-3.7-.08-5.54L606,154.37c4.18-1,8.33-1.78,12.08,1.28l.15.08C610.73,165.08,600.43,160.25,591.24,161.06Z"/><path class="cls-31" d="M451,156.66c-1.8,3.92-4.88,5.1-8.93,4.19C444.06,157.37,446.8,155.49,451,156.66Z"/><path class="cls-31" d="M618.08,155.65,606,154.37a14.52,14.52,0,0,1,11.86-2.46A11,11,0,0,1,618.08,155.65Z"/><path class="cls-7" d="M1609.58,617.24c-17.43,10.66-35.35,4.48-51.54-1.46-16.93-6.21-34-10.69-51.57-12.35-31.27-3-59.72-17.35-89.85-19.54-5-7.58.22-11.06,3.26-15.06,35.1-46.23,67.51-93.94,88.21-148.83,7.57-20.08,21.36-37,34.37-53.92,10-13,15.61-12.65,23.34,2.08,13.67,26,27.46,51.83,43.27,76.74,20,31.52,36.21,65.38,58.75,95.42,3.55,4.73,4.39,11.49,6.48,17.32-.16,1.23-.33,2.47-.47,3.71a25.11,25.11,0,0,1-3.66,6.48q-18.72,20.22-38.85,39.07C1625.43,612.42,1620.5,621.63,1609.58,617.24Z"/><path class="cls-41" d="M1609.58,617.24c22.2-15.89,39.85-36.63,59.32-55.43a7.85,7.85,0,0,0,5.19-4l.21-.13c12.22,23.37,22.2,47.89,37.29,68.29-5.29,9.67-12.17,6.79-17.79,6.49-23.92-1.26-47.81-3.19-71.73-4.55C1614.83,627.46,1610.22,624.93,1609.58,617.24Z"/><path class="cls-42" d="M619.18,384.1c8.92,0,16.66,11,14.32,21.46-2.88,12.91-12.12,21.28-23.12,27.37-5.54,3.07-10.29-.32-12.72-5.67-4.38-9.59,6.78-37.29,16.65-41.84A28.49,28.49,0,0,1,619.18,384.1Z"/><path class="cls-43" d="M782.06,626.77c-13.6.08-19.11-4.5-19.23-16-.12-12.29,11-21,27.91-21.81,9.27-.46,15.61,3.06,16.52,12.9C808.44,614.74,796.12,626.69,782.06,626.77Z"/><path class="cls-44" d="M1603.8,782.31c-9.59.45-14.45-3.82-13.69-13.7C1602.13,765.74,1606.48,770.52,1603.8,782.31Z"/><path class="cls-45" d="M1557.63,545.76c-4.88.16-8.45-2.36-9.68-6.73-1.69-6,1.82-10,7.43-11.16,4.8-1,8.46,2.13,9.71,6.5C1566.83,540.45,1563.1,543.86,1557.63,545.76Z"/><path class="cls-15" d="M1674.09,557.77c-.26,3.25-2.26,4.25-5.19,4.05C1669.49,559,1671.18,557.61,1674.09,557.77Z"/></g></g></g></svg>