<svg id="Vrstva_1" data-name="Vrstva 1" xmlns="http://www.w3.org/2000/svg" xmlns:xlink="http://www.w3.org/1999/xlink" viewBox="0 0 369.18 185.67"><defs><style>.cls-1{fill:none;}.cls-2{clip-path:url(#clip-path);}.cls-3{fill:#c61617;}.cls-4{fill:#575756;}</style><clipPath id="clip-path"><rect class="cls-1" x="266" y="-1353.76" width="1919.76" height="748.52"/></clipPath></defs><g class="cls-2"><image width="1778" height="2165" transform="translate(-44.68 -2034.66) scale(1.49)" xlink:href="../../../../../Library/Mobile%20Documents/com~apple~CloudDocs/Desktop/REKTOR/BEZINKA_BG.png"/></g><path class="cls-3" d="M57.06,182.13l-3.79.41L42.58,80.38c0-1.53-.9-2.3-2.71-2.3H21.07a2.32,2.32,0,0,0-2.57,2.3L6.86,182.54l-3.92-.41L14.57,79.84q.54-5.69,6.5-5.69h18.8q5.82,0,6.5,6Zm-9.07,1-3.79.4L34.06,87.14H27L15.93,183.62,12,183.21,23.37,85a1.65,1.65,0,0,1,1.89-1.63H35.68A1.89,1.89,0,0,1,37.84,85Z"/><path class="cls-3" d="M105,182.81H70.32q-6.63,0-6.63-6.5V74.15h3.92V176.31A2.39,2.39,0,0,0,70.32,179H105Zm0-9.07H74.78a1.8,1.8,0,0,1-2-2V74.15h3.93v95.67H105Z"/><path class="cls-3" d="M158.54,161.16q0,11.63-5.82,17.79t-17.45,6.16q-23.42,0-23.41-24v-87h3.92v87q0,19.89,19.49,19.89,9.6,0,14.54-5.08t4.94-14.81v-87h3.79Zm-8.93,0q0,14.75-14.34,14.75t-14.35-14.75v-87h3.93v87q0,10.82,10.42,10.82t10.42-10.82v-87h3.92Z"/><path class="cls-3" d="M251.09,159.94q0,12.18-5.89,17.52t-19,5.35H210.9q-6.63,0-6.63-6.5V80.65q0-6.5,6.63-6.5h15.29q13.13,0,19,5.35t5.89,17.66V110a30.51,30.51,0,0,1-1,8.53,14.45,14.45,0,0,1-3.72,6.08,16.38,16.38,0,0,1,3.72,6.63,32.35,32.35,0,0,1,1,8.53Zm-3.92-20.16a25.11,25.11,0,0,0-.95-7.78,14.17,14.17,0,0,0-4.06-5.62,2.33,2.33,0,0,1-.81-1.62,2.25,2.25,0,0,1,.81-1.36A15.56,15.56,0,0,0,244.6,121a11.23,11.23,0,0,0,1.55-2.7,12.4,12.4,0,0,0,.81-3.52,46.76,46.76,0,0,0,.21-4.74V97.16q0-10.29-4.94-14.69t-16-4.39H210.9c-1.8,0-2.7.85-2.7,2.57v95.66a2.39,2.39,0,0,0,2.7,2.71h15.29q11.24,0,16.11-4.6t4.87-14.48ZM242,110a12.92,12.92,0,0,1-3.79,9.74q-3.8,3.66-10.69,3.65H213.34V85.25c0-1.27.68-1.9,2-1.9h10.82q8.26,0,12.05,3.12T242,97.29Zm0,49.93q0,7.58-3.66,10.69t-12.31,3.11H215.37a1.8,1.8,0,0,1-2-2v-44h14.48q6.9,0,10.55,3.19t3.66,8.86ZM238,97.29c0-3.79-.91-6.43-2.71-7.92s-4.83-2.23-9.07-2.23h-8.93v32.07h10.29a10.39,10.39,0,0,0,7.37-2.84A8.53,8.53,0,0,0,238,110Zm0,42.49a7.38,7.38,0,0,0-2.84-5.89,11,11,0,0,0-7.31-2.37H217.26v38.3h8.8q6.49,0,9.2-2.17c1.8-1.44,2.71-4,2.71-7.71Z"/><path class="cls-3" d="M309.27,182.13l-3.79.41L294.79,80.38c0-1.53-.9-2.3-2.7-2.3H273.28a2.32,2.32,0,0,0-2.57,2.3L259.07,182.54l-3.92-.41L266.79,79.84q.52-5.69,6.49-5.69h18.81q5.82,0,6.49,6Zm-9.06,1-3.79.4L286.27,87.14h-7l-11.1,96.48-3.92-.41L275.58,85a1.65,1.65,0,0,1,1.9-1.63h10.41A1.9,1.9,0,0,1,290.06,85Z"/><path class="cls-3" d="M362.45,181.59c-.81-2.34-1.47-4.4-2-6.16a37.34,37.34,0,0,1-1.08-5c-.23-1.58-.39-3.18-.48-4.81s-.13-3.52-.13-5.68V139.78a28.12,28.12,0,0,0-1.08-8,6.13,6.13,0,0,0-1.36-2.23c-.63-.67-1.28-1.33-2-2s-1.26-1.19-1.76-1.69a2.08,2.08,0,0,1-.74-1.29c0-.36.31-.81.94-1.35a16.4,16.4,0,0,0,4.54-6.16,22.38,22.38,0,0,0,1.42-8.45V97.16q0-10.29-4.94-14.69t-16-4.39H322.53c-1.8,0-2.7.85-2.7,2.57V182.81H315.9V80.65c0-4.33,2.22-6.5,6.63-6.5h15.29q13.13,0,18.95,5.35t5.82,17.66v11.5q0,10-5.55,15.83a12.62,12.62,0,0,1,4.33,6.29,30,30,0,0,1,1.22,9v20.16c0,2,0,3.72.06,5.21s.16,2.95.34,4.4a28.89,28.89,0,0,0,1,4.67,56.29,56.29,0,0,0,2.23,6Zm-8.52,3.11c-.91-2.43-1.63-4.67-2.17-6.7s-1-4-1.29-5.88a50,50,0,0,1-.6-5.75q-.14-2.91-.14-6.43V139.78a5.36,5.36,0,0,0-1.15-3.72,9.07,9.07,0,0,0-2.77-2.1,16.74,16.74,0,0,0-3.66-1.29,21.78,21.78,0,0,1-3.65-1.15,8.34,8.34,0,0,1-2.77-1.82,4.48,4.48,0,0,1-1.15-3.32c0-2.61,1.71-4.69,5.14-6.22q5.55-2.16,7.78-4.67a9.89,9.89,0,0,0,2.23-6.83V97.29q0-5.69-2.77-7.92c-1.85-1.48-4.9-2.23-9.14-2.23h-8.93v95.67H325V85.25c0-1.27.68-1.9,2-1.9h10.82q8.26,0,12.05,3.12t3.79,10.82v11.37q0,6.09-2.85,9.33t-9.74,5.82a3.08,3.08,0,0,0-1.89,2.57,2.69,2.69,0,0,0,.67,1.76,2.5,2.5,0,0,0,2,.81c4.33.46,7.38,1.42,9.14,2.91s2.64,4.13,2.64,7.92v20.16q0,3.39.13,6.09a41.16,41.16,0,0,0,.61,5.34c.32,1.76.72,3.59,1.22,5.48s1.15,4.06,2,6.5Z"/><path class="cls-3" d="M34.35,33.59H4.49V29.17H34.35Zm0,10.36H4.49V39.53H34.35Z"/><path class="cls-3" d="M334.82,39.53h29.87V44H334.82Zm0-10.36h29.87v4.42H334.82Z"/><path class="cls-4" d="M92.13,23.16a11.6,11.6,0,0,1,9.37,4.5V14.93a25.18,25.18,0,0,0-9.75-2.06A22.35,22.35,0,0,0,76.1,19.48a21.32,21.32,0,0,0-6,15,19.94,19.94,0,0,0,6.6,15.44,23,23,0,0,0,15.42,6c3.33,0,5.89-.81,9.43-1.9V41.25a12.29,12.29,0,0,1-9.21,4.34c-6.65,0-11.12-4.66-11.12-11.11S85.59,23.16,92.13,23.16Z"/><path class="cls-4" d="M129.41,14H117.75L101.94,55.05h11.34l2.83-7.14h14.72l2.67,7.14h11.39ZM119.05,39.74l4.42-13.08h.11l4.36,13.08Z"/><path class="cls-3" d="M182.81,55V44.5l20.63-18.69c2.62-2.46,4.34-4.93,4.34-8.14,0-3.74-2.62-6.36-6.58-6.36-4.19,0-6.95,3.29-7.48,8l-12-1.64c1.2-10.69,9.87-17,20.18-17C211.59.62,221,5.78,221,16.84c0,7.55-4.41,12-9.27,16.3L199.48,44.05h21.6V55Z"/><path class="cls-4" d="M276.62,45.51c-6.31,0-11.49-5.12-11.49-12.14,0-5.61,5.18-10.74,11.49-10.74s11.5,5.13,11.5,10.74c0,7-5.18,12.14-11.5,12.14m0-33.13c-11.18,0-21.52,7.89-22.42,19.32H235.73V40h8.63c-.43,4.69-3.93,7.06-8.52,7.06-7,0-10.74-6.42-10.74-12.73s3.62-12.84,10.58-12.84c4.26,0,7.34,2.59,8.79,6.47l10-4.2c-3.51-7.61-10-11.39-18.35-11.39a23.34,23.34,0,0,0-13.08,3.68c0,.26,0,.52,0,.78,0,7.76-4.14,12.55-9,17,0,.16,0,.31,0,.47A24.18,24.18,0,0,0,215.3,42h5.78a2.1,2.1,0,0,1,2.1,2.09v8.2a22.9,22.9,0,0,0,12.61,3.51c6.79,0,12.78-2.43,16.77-8a20,20,0,0,0,3-6.11c3.1,8.57,11,14.1,21.08,14.1,13.06,0,22.5-9.28,22.5-22.44,0-12.3-10.79-20.94-22.5-20.94"/><path class="cls-4" d="M180.84,55V44.5a2,2,0,0,1,.65-1.46l2.74-2.48V20l-2.81-.38a2,2,0,0,1-1.68-2.17,21.77,21.77,0,0,1,.68-3.49h-6.87V39.08h-.11L153.88,14H143.19V55.05h10.69V29.87H154l19.56,25.18h7.3S180.84,55,180.84,55Z"/></svg>