<svg xmlns="http://www.w3.org/2000/svg" xmlns:xlink="http://www.w3.org/1999/xlink" viewBox="0 0 369.18 185.67"><defs><style>.cls-1{fill:none;}.cls-2{isolation:isolate;}.cls-3{clip-path:url(#clip-path);}.cls-4{clip-path:url(#clip-path-2);}.cls-5{fill:#fff;}.cls-6{fill:#4a7f09;}.cls-7{fill:#aececd;}.cls-8{opacity:0.84;mix-blend-mode:lighten;fill:url(#Nepojmenovaný_přechod_6);}.cls-9{fill:url(#Nepojmenovaný_přechod_30);}.cls-10{fill:url(#Nepojmenovaný_přechod_13);}.cls-11{fill:url(#Nepojmenovaný_přechod_13-2);}.cls-12{fill:url(#Nepojmenovaný_přechod_13-3);}.cls-13{fill:url(#Nepojmenovaný_přechod_13-4);}.cls-14{fill:url(#Nepojmenovaný_přechod_13-5);}.cls-15{fill:url(#Nepojmenovaný_přechod_13-6);}.cls-16{fill:url(#Nepojmenovaný_přechod_30-2);}.cls-17{fill:url(#Nepojmenovaný_přechod_30-3);}.cls-18{fill:url(#Nepojmenovaný_přechod_30-4);}.cls-19{fill:url(#Nepojmenovaný_přechod_30-5);}.cls-20{fill:url(#Nepojmenovaný_přechod_30-6);}.cls-21{fill:url(#Nepojmenovaný_přechod_30-7);}.cls-22{fill:url(#Nepojmenovaný_přechod_30-8);}.cls-23{fill:url(#Nepojmenovaný_přechod_30-9);}</style><clipPath id="clip-path"><rect class="cls-1" x="362.84" y="-709.9" width="1921" height="440"/></clipPath><clipPath id="clip-path-2"><rect class="cls-1" x="362.43" y="-899.76" width="1921" height="1177"/></clipPath><linearGradient id="Nepojmenovaný_přechod_6" x1="1395.34" y1="338.88" x2="1395.34" y2="-779.97" gradientUnits="userSpaceOnUse"><stop offset="0" stop-color="#fff" stop-opacity="0"/><stop offset="0.01" stop-color="#fff" stop-opacity="0.04"/><stop offset="0.05" stop-color="#fff" stop-opacity="0.22"/><stop offset="0.09" stop-color="#fff" stop-opacity="0.39"/><stop offset="0.14" stop-color="#fff" stop-opacity="0.53"/><stop offset="0.2" stop-color="#fff" stop-opacity="0.66"/><stop offset="0.25" stop-color="#fff" stop-opacity="0.77"/><stop offset="0.32" stop-color="#fff" stop-opacity="0.85"/><stop offset="0.4" stop-color="#fff" stop-opacity="0.92"/><stop offset="0.49" stop-color="#fff" stop-opacity="0.97"/><stop offset="0.63" stop-color="#fff" stop-opacity="0.99"/><stop offset="1" stop-color="#fff"/></linearGradient><linearGradient id="Nepojmenovaný_přechod_30" x1="225.12" x2="225.12" y2="57.32" gradientUnits="userSpaceOnUse"><stop offset="0" stop-color="#f39600"/><stop offset="0.3" stop-color="#de6d0e"/><stop offset="0.59" stop-color="#cd4d1a"/><stop offset="0.83" stop-color="#c33921"/><stop offset="1" stop-color="#bf3223"/></linearGradient><linearGradient id="Nepojmenovaný_přechod_13" x1="60.1" y1="13.62" x2="60.1" y2="57.27" gradientUnits="userSpaceOnUse"><stop offset="0" stop-color="#b17f49"/><stop offset="1" stop-color="#683b11"/></linearGradient><linearGradient id="Nepojmenovaný_přechod_13-2" x1="98.03" y1="13.62" x2="98.03" y2="57.27" xlink:href="#Nepojmenovaný_přechod_13"/><linearGradient id="Nepojmenovaný_přechod_13-3" x1="120.29" y1="13.62" x2="120.29" y2="57.27" xlink:href="#Nepojmenovaný_přechod_13"/><linearGradient id="Nepojmenovaný_přechod_13-4" x1="189.55" y1="13.62" x2="189.55" y2="57.27" xlink:href="#Nepojmenovaný_přechod_13"/><linearGradient id="Nepojmenovaný_přechod_13-5" x1="283.37" y1="12.41" x2="283.37" y2="58.16" xlink:href="#Nepojmenovaný_přechod_13"/><linearGradient id="Nepojmenovaný_přechod_13-6" x1="149.38" y1="13.62" x2="149.38" y2="57.27" xlink:href="#Nepojmenovaný_přechod_13"/><linearGradient id="Nepojmenovaný_přechod_30-2" x1="27.5" y1="72.93" x2="27.5" y2="184.16" xlink:href="#Nepojmenovaný_přechod_30"/><linearGradient id="Nepojmenovaný_přechod_30-3" x1="82.7" y1="72.93" x2="82.7" y2="183.34" xlink:href="#Nepojmenovaný_přechod_30"/><linearGradient id="Nepojmenovaný_přechod_30-4" x1="134.4" y1="72.93" x2="134.4" y2="185.67" xlink:href="#Nepojmenovaný_přechod_30"/><linearGradient id="Nepojmenovaný_přechod_30-5" x1="228.38" y1="72.93" x2="228.38" y2="183.34" xlink:href="#Nepojmenovaný_přechod_30"/><linearGradient id="Nepojmenovaný_přechod_30-6" x1="283.79" y1="72.93" x2="283.79" y2="184.16" xlink:href="#Nepojmenovaný_přechod_30"/><linearGradient id="Nepojmenovaný_přechod_30-7" x1="343.6" y1="72.93" x2="343.6" y2="185.26" xlink:href="#Nepojmenovaný_přechod_30"/><linearGradient id="Nepojmenovaný_přechod_30-8" x1="1.58" y1="34.72" x2="31.92" y2="34.72" xlink:href="#Nepojmenovaný_přechod_30"/><linearGradient id="Nepojmenovaný_přechod_30-9" x1="14533.08" y1="-11524.47" x2="14563.43" y2="-11524.47" gradientTransform="translate(14900.68 -11489.75) rotate(180)" xlink:href="#Nepojmenovaný_přechod_30"/></defs><g class="cls-2"><g id="Vrstva_1" data-name="Vrstva 1"><g class="cls-3"><g class="cls-4"><path class="cls-5" d="M359.69-1285.69V-1549H3283.43V642.74H359.69V418.31c2.86-3.16,5.44-6.61,9.14-8.89,2.76-1.7,6-3.83,8.82-1.22,9.76,9.12,20.18,4,30.19,1.44,5-1.28,9.53-2.39,14.41-.13,3,1.41,6.29,1.74,9.28.1,5.21-2.85,9.59-2.95,14.52,1.29s10.25,1.75,14.34-2.18c6.43-6.17,13.6-11.45,20.19-17.41,7.56-6.84,10.25-6.12,14.83,2.93,4,7.88,8.93,9.08,16.23,3.79,3.47-2.51,6.22-5.84,9.34-8.75,2.88-2.69,5.92-6,9.92-5.78,9.13.43,16.6-2.95,23.52-8.35,3.88-3,7-2.25,9.79,1.82,3.44,5,8.07,6.25,14,4.31,8.84-2.88,14,1.35,17.37,9.42,4.15,10.06,7.39,11.32,17.11,6.13,7.09-3.77,13.31-7.5,21.59-1.94,4.66,3.13,9.47-.73,13.37-4s7.86-6.11,11.79-9.18A18.84,18.84,0,0,1,664.9,379l1.5-.27,1.51.12c.48.15,1,.32,1.44.46.93.34,1.85.73,2.76,1.11,5.42,1.48,11,2.09,15.95,5.43,5.59,3.79,10.89,1.1,15.66-2.41,8.85-6.51,17.35-13.47,25.87-20.4,2.48-2,5-4.05,8.09-5,4.18-1.32,6.37-.11,4.83,4.62-1.09,3.33-3.49,6.48-2.28,10.15,2.23,6.68,7.52,6.74,13.06,5.21,5.17-1.43,7.59-.72,8.1,5.59.88,10.82,6.84,12.92,15.62,6.22,2.81-2.15,5-5.08,8.24-6.67a5.41,5.41,0,0,1,4.4.27c1.65,1.68,1,3.95,1.51,5.92,2.18,8.34,8.66,11,15.94,6.39,4.45-2.8,7.52-7.29,11.91-10.19.71-.52,1.47-1,2.22-1.43.34-.24.71-.45,1-.69.64-.49,1.31-1,2-1.44l.9-.75c.54-.53,1.12-1,1.69-1.52.26-.26.55-.5.81-.76.5-.52,1-1,1.57-1.51.25-.25.53-.49.78-.74.47-.53,1-1,1.51-1.49,0,0,.77-.72.76-.74.47-.52,1-1,1.49-1.49,0,0,.76-.72.74-.74.48-.53,1-1,1.5-1.51.25-.27.51-.51.76-.77.5-.55,1-1.07,1.54-1.59.25-.28.52-.54.78-.82.51-.58,1.05-1.13,1.59-1.69.26-.31.54-.59.81-.89.53-.64,1.1-1.24,1.67-1.85.29-.33.59-.63.88-.95,2.93-2.83,5.5-6,8.83-8.41a6.36,6.36,0,0,1,2.72-.81c6.94,3,1.64,6.21-.29,8.57-4.88,6-11.22,10.64-15.7,17a26.31,26.31,0,0,1-1.61,2.3,27.17,27.17,0,0,0-3.66,5.84c-.34.9-.72,1.77-1.07,2.66-1.57,4.1-.83,8.2,2.1,10.91,4.82,4.44,8,9.78,11.35,15.24,3.8,6.17,12.55,6.2,19.74.34,6.62-5.38,12.19-11.93,18.33-17.84,14.11-13.59,32.54-11.58,42.9,4.6a86,86,0,0,0,9.3,11.64c6.14,6.73,16,4.33,25.66-5.7,6.24-6.58,13.17-8.85,22.14-5.27,7.77,3.1,15.54-.19,22.9-2.62,23.87-7.9,48.31-7.66,72.9-5.9,6.9,2.62,6,6.82,2.12,11.39-4.37,5.08-9.36,9.57-14,14.36-3,3-6.24,5.78-8.72,9.21-3.45,4.79-6.34,10.25-1.14,15.19,4.75,4.52,9.08.37,13.07-2.51,2.57-1.86,5.11-3.76,7.6-5.73a65.45,65.45,0,0,0,13.27-11c5.82-5.79,12.88-10.12,18.59-16a20.78,20.78,0,0,1,2.35-1.61,34.35,34.35,0,0,0,3.45-2.46c4-3.61,7.57-7.68,12.66-9.86a16.47,16.47,0,0,1,3-.94c5.33-.74,10.8-.29,16-2.11q29.21-1.63,58.35-4.19c2.51-.21,5.16-.23,7.31,1,7.09,4,13.73,1.75,20.4-1,7.63-3.14,15.45-5.24,23.79-5,4.87.17,8.62,1.6,11.31,6.38,5,9,8.14,9.59,16.91,4.69,3.1-1.73,5.93-3.92,9.16-5.42,11.89-4.91,9.1,6.09,12,11,3.68,6.92,9.18,7,15.49,4.16s11.75-6.72,17.37-10.51c2.33-1.56,5-3.43,7.74-1,2.27,2,1.25,4.71.24,7-7.39,16.41-5.13,30.46,9.79,41.64,4.38,3.28,5.32,8.18,5.71,13.32.46,6.29,2.78,11.53,10.08,11.34,6.76-.17,8.32,3.43,9.11,9.13,1.86,13.66,4,14.54,16.27,9.88,8.31-3.14,17-6.19,23.67,3.73,1.93,2.87,5.49,2.92,8.85,2.19,9.71-2.12,19.06-1.45,27.88,3.59,6,3.4,10.35.9,13.5-4.27,3.49-5.73,7.17-7.5,12.64-2.26,2.59,2.48,6.29,3.33,9.63,4.55,9.53,3.48,15.35,1.57,16.47-8.47,1.89-17,16.9-21.76,26.84-30.51,5.62-4.95,10.4-8.87,12.06-16.12.8-3.48,1.55-7,2.41-10.43,3.18-12.84,12.72-16.64,23.15-8.54,4.82,3.75,9,7.88,15.41,8.8,3.07.44,4.36,3.4,5.75,5.93,1.75,3.19,3.69,6.45,8,6a9.23,9.23,0,0,0,8.49-8.45c1.19-14.54,12.18-16.45,23-19,4.81,5.09,2.6,11.43,3,17.27.5,6.7-.7,13.47.85,20.1,7.19,10.05,11.59,9.76,18.12-1.25,2.51-8-.79-16.49,2.44-24.36a4,4,0,0,1,2.49-1.9c7.17,2.87,13.7,8.86,22.42,4.18,1.37-.74,3.37.67,4.88,1.64,9.2,5.87,18.24,9.57,27.93.51,3.34-3.12,4.92.17,5.54,3.2.9,4.41-1.38,8.28-2.38,12.38-1.25,5.1.08,9.41,5.17,11.38,5.57,2.17,8.44-1.57,10.8-5.92,3.79-7,2.08-15.5,5.91-22.51,3.13-4.31-1.11-13.93,5.92-13.59,5.12.25,2.93,9,3.37,14a14.88,14.88,0,0,0,4.34,9.3c5.83,7.34,12.36,7.33,19.56,2.07,3.44-2.52,7.08-4.77,10.49-7.34,6.57-4.94,12.75-7.51,19.65,0,4.22,4.57,10.54,3.86,16.19,3.6,22.76-1.07,45.35-4.07,67.9-7,60.78-8,121.71-12,183-10,4.2.3,8.41.13,12.6.5,3.25.3,7.4,1,8,4.05,2.44,11.42,13,16.94,18.13,26.24,7,7,17.6,9.61,21.81,20.37,1.91,4.85,9.72,2.64,12.5-3.08,2.33-4.78,1.78-10.45,4.61-15.09a5,5,0,0,1,4.3-1.09c4.61,2,6.33,6.45,8.84,10.21,6.48,9.73,11,10,18.62.88,1.6-1.9,3.17-3.8,4.82-5.62,2-2,2.44-4.78,3.29-7.35a5.28,5.28,0,0,1,1.81-2.11,6.14,6.14,0,0,1,2.82-.35,7.61,7.61,0,0,1,2.6,1.28,10.69,10.69,0,0,0,5.45,2.4c10.59-1.78,19.88-5.87,25.74-15.27,3.5-5.6,6.73-5.35,12.24-2.36,8.11,4.39,16.26,7.56,20.66,17,2.94,6.34,9.84,6.21,13.68-.18a44.71,44.71,0,0,1,22-19c7.83-3.33,7.28-11.52,6.53-18.78-2.21-21.14-.9-23.54,20.27-27.61,9.1-1.75,12.31-6.06,10.73-14.71-.93-5.06-1.14-10,2.32-14.28,4.79-5.89,5-12.33,2.7-19.16-2-6-2.44-11.68.73-17.55,3.54-6.54,2-13.55-.54-19.76-7.32-18.24.6-33.76,7.83-49.5.73-1.59,2.61-3.07,2.38-4.69-2.53-18.62,9.88-33.32,13-50.41a19.38,19.38,0,0,0-.13-8.51c-7.8-29.21-1.39-58.91-3.05-88.33-.18-3.2,0-6.79,1.94-9.3,7.35-9.21,6.38-19.94,6.52-30.63.67-51-.58-102-3-152.85-3-61,4-120.92,10.57-181.09,1.4-12.76,1.19-25.61,2.83-38.37.83-6.5-1.5-12.21-8.78-13.94-6.7-1.59-8.13-6.5-7.9-12.17,1-23.92-2.34-47.69-2.26-71.56a50.36,50.36,0,0,0-5.09-22.65c-6.68-13.8-3.78-28.82-2.9-43.2,1.34-21.68,2.41-43.37,3.65-65a83.61,83.61,0,0,1,2.83-17.9c2.45-7.48,4.3-15,3.91-23a20.22,20.22,0,0,1,3.6-13.13c10.27-14.5,9.33-30,3.47-45.76-1.58-4.25-.92-7.84-.36-12.18,1.86-14.49,7.78-27.87,3.47-44-4.76-17.88-3.14-37.56-.14-56.29,1.3-8.11,2-14.77-7-18.74-5.1-2.25-5.28-7.32-5.15-12,.42-15.3.41-30.61.89-45.91.46-14.79-.87-29.82-1-44.76a58.56,58.56,0,0,1,2.06-16.93c2.28-7.86,4.4-8.54,11-3.31a70,70,0,0,1,9,9.15c1.9,2.18,3.91,4.57,7.21,3.14,3-1.3,3.5-4.27,3.78-7.18.23-2.51-.32-5-.46-7.46-1-17.23-1.81-34.57-3.38-51.64-1.25-13.58-4.77-26,2.44-39.09,2.55-4.61-.18-11.16-1.9-16.67-3.74-12-5.32-24.36-6.11-36.84a40.23,40.23,0,0,1,5.56-23.45c7.3-12.67,5.68-27,4.46-40.81-.73-8.18-1.72-16.3-1.49-24.51.25-8.36-.44-16.38-5.78-23.37-2-2.62-3.53-6.27-2.32-9.06,3.88-8.92.95-18.85,4.93-27.74a19.76,19.76,0,0,0,.47-15.65c-1.35-3.42-1.81-7.23,0-10.42,4.61-8,1.07-12.93-5-18.23-5.38-4.66-10.13-10-16.58-13.31s-12.68-5.12-20.35-2.57c-10.32,3.44-18.58-.2-24.83-9.12-2.93-4.2-6-7.87-11.57-8.52-4.08-.46-6.9-3.36-9.79-6.1-11.51-10.89-20.7-10.42-32.54.12-9.13,8.12-19.66,13.87-32.7,11.86-3-.47-5.48,1-8.2,1.83-6.68,2-11.41-2.65-9-9.2,3.15-8.53-.74-16.53-1.68-24.54-.77-6.6-15.7-7.17-19.56-.27-7,12.55-16.82,17.79-30.87,15.8-3.2-.44-5.44,1.18-6.75,4.13-.58,1.3-1,3.26-2.18,3.58-13.55,3.76-8.51,13.75-7,21.91,1.94,10.37-4.37,18.33-6.88,27.34-1.17,4.18-6.39,5.51-10.8,5.68-5.71.22-11.35,1.44-17.07,1.12-4.09-.22-7.05,1.4-8.31,5.25-3,9.22-10.29,11.13-18.66,10.94-7.8-.17-13.83,1.51-16.39,10.26-1.93,6.61-7.34,8.1-13.79,6.29-3.87-1.08-8.1-2.43-10.09-5.66-6-9.81-14-13.21-25.18-10.22-4.09,1.09-7.22-2-10-5.07-4.69-5.17-10.5-7.14-17.36-5-2.06.65-4.89,2.08-6.13.68-10.2-11.49-24.14-5.78-36-6.86-14.57-1.33-29.32-4.19-44.56-1.09-9.29,1.89-19.8.18-29.73-.34-6.51-.34-12.85-.17-18.9,2.47-4.86,2.13-9.43,1.61-14.48,0-14.32-4.63-20.43-2.49-29.88,9.36-4.17,5.22-9.49,7.74-16,5.74-6.23-1.91-6.79-7.68-7.49-13-.43-3.19.37-6.41.29-9.61-.12-4,3.08-9.55-2.11-11.54a25.7,25.7,0,0,0-19.84.63c-5.23,2.39-4.17,7.39-3.75,12.17,1.35,15.33-1.87,30.48-2.36,45.76-.22,6.77-4.46,11.33-12.25,9.93-5.77-1-11.27,1.11-17,1-7.92-.16-11.56-3.46-11.88-11.59-.55-13.89,3.11-27.54,1.63-41.54-.62-5.82-2.29-10.44-6.46-14-5.17-4.44-10.43-1.61-14.29,3.62-11.39,15.46-4.38,32.33-5.12,48.57-.59,13-3.72,16.15-16.07,14.71-9-1-11.88-4.92-12-14.23a263.61,263.61,0,0,1,1.43-26.52c.56-6.1-.32-11.8-8.25-12.31-7.3-.47-14.63-.8-17.37,8.37-1.36,4.52-1.11,9.17-1.42,13.79-.72,10.77-4.13,13.58-15.1,12.67-1.42-.12.34.12-1-.17-6.94-1.44-14.7,1.32-20.92-2.9-6.54-4.43-3.22-12.6-5.45-18.86-2.39-6.7-4.65-11.72-13.12-10.86-8.32.84-12.65,4-13.09,13.25-.62,12.74-9.91,21.14-22.69,20.4-16-.94-32,1.23-48-.3-5.14-.49-9.77.79-11.34,5.88-2.47,8-7.56,10.56-15.36,9.6-8.76-1.08-10.1-7.75-11.43-14.6-2.48-12.7-12.94-20.84-25-18.86-5.93,1-12.1,2.64-16.86,6.35-5.15,4-11.12,3.61-16.6,5.37-19.34,6.2-41.41,3.45-58.34,17.69-7.6,6.39-16.85,4.54-25.68,3.6-4.67-.49-5.77-4.68-7.51-8.21-3-6.05-8.91-8.07-13.07-3.6-8.25,8.85-20.18,6.92-29.56,12.26s-19.8,6.93-30.61,2.18c-5.58-2.45-8.83.32-10.45,6.71-3.64,14.42-11.66,17-24.63,9.59-6.23-3.56-12.45-6.22-15.38-13.76-1.87-4.84-7.54-3.2-11.57-3.24-6.42-.07-12.85,1.13-17.72-4.8-1.81-2.21-4.38-1.67-6.87-.57-14.9,6.65-28.87,6.59-43.14-3-12.19-8.23-27-8.13-41.31-8.7-5.32-.21-10.68.14-16,.12-8.52,0-15.66-1.35-18.06-11.15a6,6,0,0,0-5.16-4.85c-3.67-.3-4.79,2.78-5.63,5.42-2.39,7.5-7.91,9.42-15,9.25-5.35-.12-10.7-.06-16,0-6.74,0-12-1.59-12.85-9.56-.39-3.92-2.48-6.59-6.48-7.52-1-.25-2.46-.32-3-1.06-6.79-9.44-11.64-7.11-19.28.47-7.07,7-32.27-.9-37.12-10a13.21,13.21,0,0,0-6.82-6.37,14.86,14.86,0,0,1-8.05-8.06c-4.54-10-8.31-10.84-14.92-2.25-6.72,8.74-14.89,12.53-25.59,13-8.23.32-12.71-3.37-14.76-10.87a72.51,72.51,0,0,1-2.75-25.34c.83-10.13-6-16.62-16.2-16.44-13.61.24-17,2.67-19.64,18-1.57,9-5.53,14.52-14.51,15.83-4.47.65-7.17,2.55-8.11,7-1.17,5.56-4.41,8.72-10.42,8.72-5.21,0-8.74-1.83-10.55-7.1a12.89,12.89,0,0,0-15.59-8.46c-18.42,4.46-36.62-2.77-55,.34-6,1-9.25,2-10.14,8-1.07,7.19-5.43,8.65-12.29,8.29a311.69,311.69,0,0,0-42.67.67c-13.16,1.11-14.53-.1-19-12.59-4-11.15-13.26-17.55-24-20.88-6.08-1.87-11.73,1.41-16.06,6.34-9.53,10.85-20.85,13.13-33.14,6.34-5.67-3.13-10.53-6-15.81.74-3.14,4-8.05,1.42-12.18,1.62-5.81.28-11.42.12-11.6,8.69-.12,5.94-5.38,7.9-10.43,9.15-5.86,1.45-11.2-.3-14-5.32-4.09-7.35-10.38-9.93-17.92-11.82-12-3-16.8-9.87-16.71-22.4.08-12-.43-12.54-12.48-12.77-6.4-.12-12.89.49-18.81-2.86-5.31-3-9.29,2.85-14.25,2.22a12.07,12.07,0,0,1-3.09-.49c-5.22-2.47-9-6.72-12.17-11.27-5.23-7.51-10.82-8-17.47-2.22-1.72,1-3.42,2.29-5.57,1.07"/><path class="cls-6" d="M364-1287.76c7.69-8.51,13.6-8.8,19.08.1,3,4.92,9.06,6.92,10.8,12.68,3.43,3.79,3.17,8.46,2.84,13-1.47,20,.06,40-1.78,60v9.38c-.36,3.56.68,7.32.14,8.87.33-1.34-.27-4.83-.07-8.22,0-3,0-6,0-9,1.07-15.64,1.19-31.28,1-46.92,0-3,0-6.05.23-9.06,1.28-5,1.86-10.32,5.16-14.65a5.29,5.29,0,0,1,1.57-1.42c11.33-5,33.5,4.1,39.21,14.88,5.58,10.53,6.25,21.61,6,34.75,7.08-4,13.85-6.55,19.31-.8,10.27,10.81,26.69,18.12,22.7,37.6.47,4.65-1.46,9.1-1.09,13.73v8.54c0,2.89.08,5.81-.19,9.77.41-3.84.19-6.69.26-9.5s0-5.71,0-8.57c.55-7.58,1.54-15.13,1-22.76-.19-2.18-.09-4.61,1.32-6.1,6.87-7.31,8.8-16.55,10.8-25.85.59-2.74,1.22-5.73,3.61-7.53,8.61-6.47,19.27-3.11,28.87-5.3,7.05-1.61,10.85,6.45,13,13.17.68,2.19.32,4.43.25,6.64,0,1.54,0,3.09-.13,4.62a18.58,18.58,0,0,1-1.26,4.57c1.54-3,1.28-5.52,1.58-8a9.92,9.92,0,0,1,1-3,14.28,14.28,0,0,1,4.66-4.68,11.16,11.16,0,0,1,3.3-1.19c13.7,1,16.5,5,16.57,23.92v17c.16,2-.35,4.13.26,6.16-.49-2.56-.12-5.15-.23-7.73,0-3.89,0-7.78,0-11.66,0-4.71,0-9.41.09-14.12,1.25-6.58.88-13.42,3.09-19.83,2.32-6.71,6.13-12.12,13.85-12.92,7-.73,10.82,3.84,14.14,9.22,7.75,12.59,16.3,24.77,18.72,39.86.32,6.3-.66,12.67,1.11,18.9a23.65,23.65,0,0,1,.3,3.46c.09,5.22,0,10.44.06,15.65q0,4.2,0,8.39c0,2.08,0,4.17,0,6.24,0,.74-.08,1.49,0,2.23,0-1.38,0-2.77,0-4.17v-16.23c0-4,0-8,.06-11.94a30.29,30.29,0,0,1,.27-3.43c1.67-5,.68-10.35,1.86-15.43,1.35-4.72,2.92-9.39,4.69-14,2.77-7.15,7.4-11.76,15.87-10.95s11.07,6.27,11.79,13.58c-.65,8.08-.17,16.18-.31,24.27v10.85c-.46,5.31,1.15,10.9-.19,13.47.83-4.66-.06-12,.2-19.32q0-5.24,0-10.46c0-4,0-8,0-12a28,28,0,0,1,3.87-14.26c3.42-6.23,8.4-10,15.75-7.2,5.12,2,7.26.82,9.55-4.26,5.32-11.84,14.34-12.91,23.15-3.24,1.91,2.09,3,5.12,6.67,3.45,4.6-2.09,9-.81,13.51.51,6.33,1.84,11.93-.66,17.32-3.54,6-3.23,11.35-2.48,16.85,1.6,10.6,7.86,23.38,6.47,32.68-3.14,5-5.15,10.47-7.26,17.13-3a14.53,14.53,0,0,1,4.61,13.64c-2.62,16.72-1.43,33.31.08,50,.73,8.15,2.9,17.15-3.33,24.62-4.81,2.24-8-1-11.57-3.34-9.21-6-15.31-14.82-22-23.17-3.11-3.89-7.14-6.65-12-3-4.42,3.31-4.4,8.17-1.84,12.54,6.06,10.31,15.27,17.83,24,25.62,10.07,8.93,10.52,10.73,1,20.23-5.83,5.84-10.68,12.45-16.05,18.64-3.29,3.8-4.9,8.47-1.11,12.58,4.25,4.62,8.52,1.52,12.18-1.52,5.78-4.79,10.42-10.74,15.67-16.1,3.64-2.48,6.13-6.71,11.05-7.25a5.54,5.54,0,0,1,2.71,2.48,60.18,60.18,0,0,1,3.46,19.93c.44,38.45,4.65,76.89,2.16,115.31-1.75,27.09-2.51,54,.13,81,1,10.63-.18,21.32-1.53,32-2,16,2,31.9,2,48,0,14.23-1.39,27.64-9,39.88-1.34,5.9-5.65,9.77-9.63,13.83A43.19,43.19,0,0,0,796-738c-4.48,15.23,1.09,26.7,16.44,35.29,4.37,2.44,10.88,2.91,10.88,10.18.27,39.16,3.35,78.22,4.15,117.35.11,5.33.38,10.7-.82,16-2.07,6.51-6.54,4.23-10.27,2.34C798.08-566.1,781-577,767.23-592.36c-5-5.53-10-10.19-18-9.79-3.6.18-5.42,1.27-3.39,5.29,6,11.84,12,23.8,23.25,31.52,14.33,9.85,26.88,22.38,43.58,28.78,6.58,2.53,5,7.7,2.11,12.43-5.59,9.13-12.82,17.17-18.3,26.35-17,28.49-34.73,56.46-53.86,83.56a36,36,0,0,0-2.51,4.72c-7.6,15.08-6.82,18.21,7.11,28.31,1.49,1.32,2.89,2.72,4.26,4.17a6.2,6.2,0,0,1,1.23,2.71c.1,2.77-1.31,4.81-3.19,6.63a31.47,31.47,0,0,1-9.16,5.44c-44.92,18.27-72.78,53.36-93.88,95.11-.62,1.38-1.23,2.76-1.82,4.16A8.88,8.88,0,0,1,642-259.2c-5.78,1.46-9.28,6.86-14.89,8.65-15.24-.92-30.37-3.1-45.66-3.1-12.75-4.67-26-3.45-39.17-3.46-13.92,0-27.82-.22-41.73-.2-5.46.12-11-.7-16.33,1.12a25.57,25.57,0,0,1-5.5.83c-5,.17-10,.14-15.06.2-17.2-.07-34.39.08-51.56-.05-1.73,0-3.58.17-5.2-.43-10.65-3.87-18.3-.07-23.95,9.1a23,23,0,0,0-6.84,10.84c-.77,22.7-1.34,45.37.38,68,1.84,8.19-.31,17.39,6.22,24.39,5.28,13.28,7.89,27.34,11.76,41,9.71,34.27,37.34,69,82.65,70.44,12.83.41,14.3,2.94,14.18,15.53-.17,19.23-1.61,38.51,1.15,57.69A33.64,33.64,0,0,1,491.77,52c-2.25,13-3.89,14.33-16.76,13.12-10.73-1-21.31.61-31.9,1.89-8.84,1.07-16.83,3.12-18.3,14.32-.59,4.5-5.71,6-9.23,8.34-7.7,5.18-8.53,9-1.86,15.26,6.13,5.78,8.85,10.55,2,17.69-3.19,3.32-.91,6.42,2.88,8.44,3.56,1.9,8.84,1.26,10.11,6.65-2.53,5.25-7.46,4.76-12.07,5.06-3.95,0-7.93-.25-11.76,1.17a23.43,23.43,0,0,1-3.49.78c-14.15.63-28.35,1.64-41.69-4.73V-1262.15c2.76-8.31-.1-17.57,4.34-25.61"/><path class="cls-7" d="M359.69,140c14.88.72,29.69,2.85,44.64,1.91,13.8,1.43,27-2.4,40.47-4.43,32.2-1.34,64.39-1.23,96.58-.11a40.83,40.83,0,0,0,19.73,1.13c10.58.68,21,.74,31.21,5.38,6.7,3,14.72-1.73,22.12.46,11,2.5,22,1.1,33.09.93,4.74.17,6.73,4,9.25,7.05,11.53,13.89,23.35,27.55,29.81,36.15-5.67-6.43-15.19-19.21-25.45-31.34-5.65-6.68-3.19-11.08,6.13-11.11,23.14-.08,46.14-3.75,69.31-2.4a51.17,51.17,0,0,0,18-2c36.33-1,72.63-1.39,108.92.13a78.51,78.51,0,0,0,34.28.13c41.2-1.56,82.37-2.36,123,6.46,9.49,2.06,19.13.91,28.7,1.21,6.38.2,12.8-.45,19.12.78,8,2.94,3.34,7,.56,10.27-9.15,10.93-20.45,19.65-31.18,28.86q-31.89,27.39-61.26,57.39c-3.21,3.29-6.3,6.77-10.63,8.72-6.05,2.24-9.36-1.72-12.42-5.75-5.17-6.81-10.46-14-13.48-21.71-6.7-17.2-19.65-30.42-27.75-46.61a28.37,28.37,0,0,0-4.35-6.06c-7.67-8.53-13.11-8.71-21.58-.91-13,12-22.54,26.8-31.47,41.62-12.18,20.21-26.51,38.76-40.25,57.79-12.07,16.7-7.54,29.14,12.93,32.75,17.53,3.1,34.5,8.75,52.23,10.8,4.33.5,8.33,2,10.83,6a5.77,5.77,0,0,1,.41,3.07,11.36,11.36,0,0,1-1.46,2.7c-8.78,7.07-13.92,17.92-24.18,23.49-3.82.45-7.83-.81-11.47,1.25h0a45.25,45.25,0,0,0-10.85,10.67l.07,0a7.6,7.6,0,0,1-2.16,2.18l0,0A8.22,8.22,0,0,1,839,369l0,0a9.55,9.55,0,0,1-2.16,2.19l0,0a11.79,11.79,0,0,1-2.16,2.19l0,0a13.22,13.22,0,0,1-2.17,2.19l0,0a17.19,17.19,0,0,1-2.16,2.19l0,0a23.38,23.38,0,0,1-2.15,2.19l0,0c-.68.76-1.41,1.47-2.14,2.18v0c-.69.73-1.42,1.44-2.12,2.16v0a28.28,28.28,0,0,0-2.11,2.13c-4.5,4-8.77,8.26-13.55,11.85-5.44,4.1-11.16,4-15.67.13s-6.2-8.54-2.88-14.12c2.57-6.82,9-10.18,13.61-15.1a13.62,13.62,0,0,0,1.07-1.64,18.84,18.84,0,0,0-1.17,1.66c-6.14,4.86-11,11.22-17.71,15.34a36.47,36.47,0,0,1-9.74,9.76c-4,2.74-8.41,4-13,1-4.4-2.85-5.91-6.88-4.69-12,.3-1.27,1.54-2.53-.21-4.28-6.31,2.75-13.29,5.89-19.11-.87-5.64-6.54-.93-12.48,3.78-20.05-10.82,4.87-17.05,12.17-24.6,17.57-5.48,3.92-10.73,8.17-16.19,12.12s-11.7,4.91-16.44-.25c-4.55-5-11.41-.9-15.59-5.41a12.57,12.57,0,0,0-2.13-2.12h0a1.29,1.29,0,0,0-2.1-.13h0c-1.07,1.29-3.15.82-4.08,2.35-4.34,5.79-10.61,9.41-16.11,13.8-5,4-11.13,5.16-16.39-.25-2.84-2.92-5.17-2.66-8.27-.33a55.4,55.4,0,0,1-9.28,5.21c-10.29,5-16.22,2.35-18.45-8.88-.74-3.72-2.77-5.38-5.23-7.39s-4.72-2.29-7.82-1.24c-11.7,4-14.36,2.79-20.37-8.43-4,2.78-7.94,5.58-12,8.27-3.64,2.44-7.72,4.33-12,3-5-1.53-8.15.71-11.31,3.82-3.81,3.74-7.4,7.76-11.55,11.07-9.12,7.28-17.52,4.17-20.42-7.24-1.4-5.52-3.35-6.3-7.86-2.51-6.78,5.71-13.33,11.71-19.9,17.67-2.64,2.4-5.14,4.92-8.53,6.29-4.64,1.86-9.46,2.31-12.65-2-3-4.13-5.63-4.51-9.48-1.47-4.42,3.49-9.15,3.58-13.74.23-2.49-1.83-5.44-3-7.89-1.12-6.08,4.74-13.62,3.39-20.35,5.38-5.14,1.51-10.9,1.1-14.18-4.45-2.25-3.79-4.48-2.3-7-.68-3.77,2.45-5.8,7.49-11.22,7.46V377.63c2.74-2.13,3.51-4.28,0-6.42Z"/><rect class="cls-8" x="301.84" y="-779.97" width="2187" height="1118.85"/></g></g><path class="cls-9" d="M205.53,57.32v-11l21.76-19.71c2.76-2.6,4.57-5.2,4.57-8.59,0-4-2.76-6.71-6.94-6.71-4.41,0-7.33,3.47-7.88,8.44L204.34,18C205.61,6.7,214.75,0,225.63,0c10.25,0,20.19,5.44,20.19,17.11,0,8-4.66,12.62-9.78,17.19L223.11,45.81h22.78V57.32Z"/><path class="cls-10" d="M58.31,16.72H43.72L42.34,35.19V14.7H56.29A19.32,19.32,0,0,1,71,21.39a19.38,19.38,0,0,0-12.68-4.67M54.87,47.66H52.32V23.23H55c7.3,0,12.45,4.4,12.45,12.21,0,8.52-5.79,12.22-12.56,12.22m2.2-34H41V57.27h16.1a21.83,21.83,0,1,0,0-43.65"/><path class="cls-11" d="M96.06,16.78H82.12l-1,18.48V14.76l14.82.08c5.51,0,8.71,2.5,12,6.62a17.48,17.48,0,0,0-11.89-4.68M92.33,33.19h-1.1V22.3h1.1c3.7,0,7.87.7,7.87,5.44S96,33.19,92.33,33.19m10.13,6.19c6.19-1.1,9.55-6.31,9.55-12.33,0-9.32-6.54-13.43-15.17-13.43h-17V57.27H91.23V40.48h.11l10.71,16.79h14.13Z"/><path class="cls-12" d="M124,14.59l-6.39,1.9L115.89,31.8V14.59Zm-9.34-1V57.27H126V13.62Z"/><path class="cls-13" d="M175.45,16.49,173.78,31.8V14.59h8.06Zm30.84,4-2.24-.31a2.21,2.21,0,0,1-1.9-2.43c.07-.59.16-1.17.26-1.74v0l-2.82.5L189.22,27.05l9.49-12.46h4v0q.12-.51.27-1h-5l-13.73,18h-.11v-18H172.8V57.27h11.35V38.34h.11l14.65,18.93h4.41v-11a2.18,2.18,0,0,1,.32-1.12l-8.95-10.87Z"/><path class="cls-14" d="M304.48,47.35c-6.66,0-12.12-5.41-12.12-12.81,0-5.92,5.46-11.32,12.12-11.32s12.12,5.4,12.12,11.32c0,7.4-5.46,12.81-12.12,12.81M283.65,39a26.54,26.54,0,0,0,.87,6.87,23.66,23.66,0,0,1-2-9.92c0-13.47,9.13-22.32,22.5-22.32a20.9,20.9,0,0,1,11.62,3.18,24,24,0,0,0-8.95-1.62c-14.25,0-24,9.44-24,23.81m-33.6-23a22.32,22.32,0,0,1,16.84.12,23,23,0,0,0-3.62-.29,23.87,23.87,0,0,0-8.82,1.7,34.61,34.61,0,0,1-3.11,3.06l-2,1.79a22,22,0,0,0,.72-6.38m54.43-3.6c-11.8,0-22.71,8.31-23.66,20.37H261.35v8.76h9.1c-.46,5-4.15,7.45-9,7.45-7.34,0-11.32-6.77-11.32-13.43S254,22,261.29,22c4.49,0,7.74,2.73,9.27,6.83l10.59-4.44c-3.7-8-10.53-12-19.35-12A24.68,24.68,0,0,0,248,16.28c0,.28,0,.55,0,.83,0,8.18-4.37,13.23-9.48,17.91,0,.16,0,.32,0,.49a25.55,25.55,0,0,0,1.26,8.09h6.1a2.21,2.21,0,0,1,2.21,2.21v8.65a24.19,24.19,0,0,0,13.3,3.7c7.17,0,13.49-2.56,17.7-8.43a21,21,0,0,0,3.14-6.44c3.26,9,11.61,14.87,22.24,14.87,13.77,0,23.73-9.79,23.73-23.68,0-13-11.38-22.07-23.73-22.07"/><path class="cls-15" d="M136.89,14.59l-6.39,1.9L128.83,31.8V14.59Zm32.12,0-6.39,1.9L161,31.8V14.59Zm2.17-1H159.83V40.31h-.12L138.93,13.62H127.58V57.27h11.35V30.52h.12l20.78,26.75h11.35Z"/><path class="cls-16" d="M55,182.65l-3.85.41L40.29,79.25c0-1.55-.92-2.34-2.75-2.34H18.43a2.37,2.37,0,0,0-2.62,2.34L4,183.06l-4-.41L11.82,78.7q.55-5.78,6.61-5.77H37.54q5.91,0,6.6,6Zm-9.21,1-3.85.41L31.63,86.13H24.48l-11.28,98-4-.41L20.76,83.93a1.68,1.68,0,0,1,1.93-1.65H33.28a1.91,1.91,0,0,1,2.19,1.65Z"/><path class="cls-17" d="M103.67,183.34H68.47q-6.73,0-6.74-6.6V72.93h4V176.74a2.43,2.43,0,0,0,2.75,2.75h35.2Zm0-9.22H73A1.82,1.82,0,0,1,71,172.06V72.93h4v97.21h28.74Z"/><path class="cls-18" d="M158.12,161.34q0,11.82-5.91,18.08t-17.74,6.25q-23.79,0-23.79-24.33V72.93h4v88.41q0,20.21,19.8,20.21,9.76,0,14.78-5.16t5-15V72.93h3.85Zm-9.08,0q0,15-14.57,15t-14.58-15V72.93h4v88.41q0,11,10.59,11t10.59-11V72.93h4Z"/><path class="cls-19" d="M252.17,160.1q0,12.38-6,17.81t-19.31,5.43H211.33q-6.74,0-6.74-6.6V79.53q0-6.6,6.74-6.6h15.54q13.33,0,19.31,5.43t6,17.94v13.06a31,31,0,0,1-1,8.67,14.66,14.66,0,0,1-3.79,6.19,16.42,16.42,0,0,1,3.79,6.73,32.8,32.8,0,0,1,1,8.66Zm-4-20.49a25.52,25.52,0,0,0-1-7.9,14.44,14.44,0,0,0-4.13-5.71,2.37,2.37,0,0,1-.82-1.65,2.25,2.25,0,0,1,.82-1.37,16.11,16.11,0,0,0,2.48-2.48,11.46,11.46,0,0,0,1.58-2.75,12.68,12.68,0,0,0,.82-3.57c.14-1.38.21-3,.21-4.82V96.3q0-10.44-5-14.92t-16.29-4.47H211.33c-1.83,0-2.75.88-2.75,2.62v97.21a2.43,2.43,0,0,0,2.75,2.75h15.54q11.4,0,16.36-4.68t5-14.71ZM243,109.36a13.09,13.09,0,0,1-3.85,9.9Q235.26,123,228.24,123H213.8V84.2q0-1.92,2.07-1.92h11q8.38,0,12.23,3.16t3.85,11Zm0,50.74c0,5.13-1.23,8.76-3.71,10.86s-6.64,3.16-12.51,3.16H215.87a1.82,1.82,0,0,1-2.07-2.06V127.38h14.72q7,0,10.72,3.23t3.71,9Zm-4.12-63.66q0-5.77-2.75-8t-9.21-2.26h-9.08v32.58h10.45a10.58,10.58,0,0,0,7.49-2.88,8.67,8.67,0,0,0,3.1-6.47Zm0,43.17a7.48,7.48,0,0,0-2.89-6,11.21,11.21,0,0,0-7.42-2.4H217.79v38.91h8.94q6.6,0,9.35-2.2t2.75-7.84Z"/><path class="cls-20" d="M311.29,182.65l-3.85.41L296.58,79.25c0-1.55-.92-2.34-2.75-2.34H274.72a2.37,2.37,0,0,0-2.62,2.34L260.28,183.06l-4-.41L268.11,78.7q.56-5.78,6.61-5.77h19.11q5.91,0,6.6,6Zm-9.21,1-3.85.41L287.92,86.13h-7.16l-11.27,98-4-.41,11.55-99.82A1.68,1.68,0,0,1,279,82.28h10.58c1.29,0,2,.55,2.2,1.65Z"/><path class="cls-21" d="M365.33,182.1q-1.24-3.57-2-6.26a40.25,40.25,0,0,1-1.1-5.08c-.23-1.61-.39-3.23-.48-4.88s-.13-3.58-.13-5.78V139.61a28.24,28.24,0,0,0-1.11-8.11,6.09,6.09,0,0,0-1.37-2.27c-.64-.68-1.31-1.35-2-2s-1.29-1.22-1.79-1.72a2,2,0,0,1-.76-1.3q0-.56,1-1.38a16.62,16.62,0,0,0,4.61-6.26,22.61,22.61,0,0,0,1.45-8.59V96.3q0-10.44-5-14.92T340.3,76.91H324.76c-1.83,0-2.75.88-2.75,2.62V183.34h-4V79.53q0-6.6,6.73-6.6H340.3q13.33,0,19.25,5.43t5.91,17.94V108q0,10.17-5.63,16.09a12.91,12.91,0,0,1,4.4,6.39,30.59,30.59,0,0,1,1.23,9.14V160.1c0,2,0,3.78.07,5.29s.16,3,.35,4.47a28.76,28.76,0,0,0,1,4.75,56.89,56.89,0,0,0,2.27,6.12Zm-8.67,3.16c-.91-2.47-1.65-4.74-2.19-6.81a60.47,60.47,0,0,1-1.31-6,49.18,49.18,0,0,1-.62-5.84q-.14-3-.14-6.53V139.61a5.48,5.48,0,0,0-1.17-3.78,9.37,9.37,0,0,0-2.82-2.13,17.2,17.2,0,0,0-3.71-1.31,24.25,24.25,0,0,1-3.71-1.16,8.66,8.66,0,0,1-2.82-1.86A4.56,4.56,0,0,1,337,126c0-2.66,1.74-4.76,5.23-6.32q5.63-2.21,7.9-4.75A10,10,0,0,0,352.4,108V96.44q0-5.77-2.82-8t-9.28-2.26h-9.07v97.21h-4V84.2c0-1.28.69-1.92,2.06-1.92h11q8.38,0,12.24,3.16t3.85,11V108c0,4.12-1,7.29-2.89,9.48s-5.22,4.18-9.9,5.92a3.11,3.11,0,0,0-1.92,2.61,2.73,2.73,0,0,0,.68,1.79,2.55,2.55,0,0,0,2.07.83q6.6.67,9.28,2.95t2.68,8V160.1c0,2.29,0,4.36.14,6.19a41,41,0,0,0,.62,5.43c.32,1.79.73,3.64,1.23,5.57s1.17,4.12,2,6.6Z"/><path class="cls-22" d="M31.92,31.71H1.58V27.22H31.92Zm0,10.52H1.58V37.74H31.92Z"/><path class="cls-23" d="M337.25,37.74H367.6v4.49H337.25Zm0-10.52H367.6v4.49H337.25Z"/></g></g></svg>