<svg width="27.749mm" height="19.183mm" version="1.1" viewBox="0 0 27.749 19.183" xmlns="http://www.w3.org/2000/svg">
 <defs>
  <clipPath id="clipPath23371">
   <path d="m0 5367h1920v-5367h-1920z"/>
  </clipPath>
 </defs>
 <g transform="translate(-36.914 -58.707)">
  <g transform="matrix(.35278 0 0 -.35278 7.5588 724.43)">
   <g transform="translate(71.863 -61.008)">
    <g clip-path="url(#clipPath23371)">
     <g transform="translate(56.687 2041.1)">
      <path d="m0 0c-12.772 7.648-25.991 14.459-39.633 20.419-7.008 3.061-13.124-7.274-6.056-10.361 13.642-5.961 26.86-12.771 39.633-20.419 6.641-3.978 12.682 6.393 6.056 10.361" fill="#3e7496"/>
     </g>
     <g transform="translate(50.323 2012.2)">
      <path d="m0 0c-14.017 0.215-27.958-1.342-41.6-4.563-7.513-1.774-4.332-13.348 3.19-11.572 12.644 2.987 25.421 4.334 38.41 4.135 7.725-0.118 7.727 11.882 0 12" fill="#3e7496"/>
     </g>
     <g transform="translate(13.279 1916.4)">
      <g transform="translate(8.376 19.412)">
       <path d="m0 0c11.028 1.326 21.48-1.563 32.101-4.158 10.606-2.593 21.006-4.349 31.904-2.77 7.613 1.103 4.376 12.667-3.191 11.572-20.575-2.982-40.025 9.856-60.814 7.356-7.572-0.91-7.663-12.921 0-12" fill="#3e7496"/>
      </g>
      <path d="m 0,0 c 8.554,-7.596 17.468,-14.749 26.696,-21.507 6.238,-4.568 12.231,5.84 6.057,10.361 C 24.349,-4.99 16.274,1.568 8.485,8.485 2.729,13.597 -5.789,5.14 0,0" fill="#3e7496"/>
     </g>
    </g>
   </g>
  </g>
 </g>
</svg>
