<svg xmlns="http://www.w3.org/2000/svg" xmlns:xlink="http://www.w3.org/1999/xlink" viewBox="0 0 1343.59 605.48"><defs><style>.cls-1{fill:none;}.cls-2{clip-path:url(#clip-path);}.cls-3{opacity:0.08;}.cls-4{fill:#fff;}.cls-5{fill:#4a7f09;}.cls-6{fill:#4a1801;}.cls-7{fill:#8c7299;}.cls-8{fill:#8c7298;}.cls-9{fill:#aa8b66;}.cls-10{fill:#a1895e;}.cls-11{fill:#8b6947;}.cls-12{fill:#aa8a66;}.cls-13{fill:#957f52;}.cls-14{fill:#978054;}.cls-15{fill:#8f894b;}.cls-16{fill:#6b7850;}.cls-17{fill:#b79474;}.cls-18{fill:#9a0606;}.cls-19{fill:#6b3a22;}.cls-20{fill:#fefefe;}.cls-21{fill:#fbc600;}</style><clipPath id="clip-path"><rect class="cls-1" x="3808.25" y="-2199.67" width="1938" height="4780"/></clipPath></defs><title>DRINK2GO_WEB_svg</title><g id="Vrstva_1" data-name="Vrstva 1"><g class="cls-2"><g class="cls-3"><path class="cls-4" d="M860.94-2308.82v-659.67H8186.25v5491.3H860.94V1960.49c7.16-7.91,13.62-16.55,22.88-22.27,6.92-4.27,15.12-9.59,22.1-3.06,24.46,22.86,50.56,9.94,75.65,3.6,12.62-3.19,23.87-6,36.09-.3,7.59,3.53,15.77,4.35,23.27.24,13-7.15,24-7.38,36.37,3.24s25.68,4.38,35.93-5.46c16.11-15.46,34.07-28.69,50.59-43.65,18.93-17.13,25.67-15.33,37.16,7.36,10,19.75,22.35,22.75,40.66,9.49,8.68-6.29,15.57-14.63,23.39-21.93,7.23-6.74,14.83-14.94,24.85-14.48,22.89,1.08,41.59-7.39,58.94-20.91,9.72-7.56,17.54-5.62,24.52,4.55,8.63,12.57,20.22,15.66,35.1,10.81,22.15-7.23,35.2,3.38,43.53,23.6,10.39,25.2,18.51,28.35,42.86,15.36,17.76-9.46,33.36-18.79,54.1-4.85,11.67,7.83,23.73-1.84,33.5-10.11,9.53-8.07,19.69-15.32,29.53-23a47.55,47.55,0,0,1,13.66-6.83c1.25-.24,2.51-.44,3.77-.67,1.25.09,2.52.22,3.78.31,1.2.37,2.39.78,3.6,1.13,2.34.86,4.63,1.84,6.93,2.8,13.57,3.71,27.59,5.22,40,13.6,14,9.48,27.27,2.75,39.23-6,22.18-16.31,43.47-33.75,64.82-51.12,6.21-5.05,12.55-10.15,20.26-12.58,10.48-3.31,16-.27,12.11,11.59-2.73,8.33-8.76,16.23-5.7,25.42,5.57,16.75,18.83,16.89,32.7,13,13-3.58,19-1.8,20.31,14,2.19,27.11,17.12,32.37,39.13,15.56,7-5.37,12.48-12.71,20.65-16.71a13.56,13.56,0,0,1,11,.69c4.14,4.21,2.5,9.89,3.79,14.82,5.47,20.89,21.69,27.48,39.93,16,11.15-7,18.85-18.26,29.85-25.51,1.77-1.3,3.68-2.48,5.55-3.6.86-.59,1.8-1.13,2.65-1.72,1.59-1.23,3.27-2.4,4.88-3.61.72-.64,1.52-1.24,2.25-1.87,1.36-1.32,2.82-2.56,4.23-3.82.66-.64,1.38-1.25,2-1.9,1.26-1.3,2.61-2.54,3.94-3.77.63-.64,1.31-1.24,1.93-1.87,1.2-1.31,2.5-2.53,3.81-3.73,0,0,1.92-1.81,1.88-1.85,1.18-1.31,2.45-2.52,3.74-3.72,0,0,1.91-1.82,1.87-1.87,1.19-1.34,2.47-2.57,3.76-3.8.62-.66,1.28-1.26,1.9-1.93,1.23-1.37,2.53-2.66,3.84-4,.64-.7,1.31-1.34,1.95-2,1.28-1.48,2.63-2.85,4-4.26.67-.76,1.37-1.45,2-2.21,1.34-1.61,2.76-3.11,4.19-4.65.73-.82,1.48-1.56,2.2-2.38,7.33-7.08,13.79-15,22.12-21.07a16.41,16.41,0,0,1,6.82-2c17.39,7.62,4.11,15.56-.72,21.49-12.22,15-28.11,26.66-39.34,42.61a67.52,67.52,0,0,1-4,5.76,68.84,68.84,0,0,0-9.18,14.63c-.85,2.26-1.8,4.44-2.68,6.67-3.93,10.25-2.08,20.53,5.28,27.33,12.05,11.12,20,24.52,28.41,38.19,9.53,15.44,31.47,15.52,49.48.85,16.57-13.5,30.53-29.88,45.93-44.71,35.35-34.05,81.51-29,107.47,11.55,6.72,10.51,15,20,23.31,29.15,15.38,16.85,40.2,10.86,64.28-14.29,15.63-16.47,33-22.18,55.47-13.2,19.47,7.78,38.93-.47,57.38-6.57,59.81-19.77,121-19.19,182.65-14.77,17.27,6.56,15.16,17.09,5.32,28.53-11,12.74-23.47,24-35.2,36-7.4,7.57-15.61,14.47-21.83,23.08-8.65,12-15.88,25.68-2.87,38.05,11.92,11.33,22.77.94,32.75-6.3,6.43-4.66,12.81-9.41,19-14.34,12-8,23.66-16.58,33.27-27.58,14.55-14.5,32.24-25.36,46.57-40.13a50,50,0,0,1,5.88-4,87.16,87.16,0,0,0,8.64-6.19c9.94-9,19-19.21,31.72-24.69a39.2,39.2,0,0,1,7.49-2.34c13.35-1.87,27.06-.72,40.06-5.32q73.18-4.07,146.2-10.47c6.29-.54,12.92-.59,18.31,2.47,17.76,10.09,34.42,4.38,51.11-2.49,19.11-7.87,38.73-13.16,59.62-12.48,12.2.4,21.58,4,28.32,16,12.66,22.52,20.41,24,42.38,11.76,7.75-4.34,14.84-9.83,22.95-13.6,29.8-12.28,22.8,15.27,30,27.55,9.23,17.35,23,17.49,38.8,10.42,15.61-7,29.44-16.84,43.53-26.31,5.85-3.93,12.54-8.62,19.4-2.49,5.69,5.07,3.13,11.78.59,17.44-18.52,41.13-12.85,76.33,24.54,104.34,11,8.22,13.33,20.5,14.28,33.37,1.17,15.77,7,28.89,25.28,28.42,16.93-.43,20.85,8.58,22.8,22.86,4.69,34.24,9.92,36.44,40.78,24.76,20.81-7.87,42.59-15.49,59.31,9.35,4.84,7.2,13.76,7.31,22.16,5.48,24.33-5.31,47.76-3.63,69.86,9,14.93,8.53,25.95,2.26,33.83-10.68,8.75-14.37,18-18.8,31.67-5.66,6.49,6.21,15.75,8.33,24.11,11.38,23.89,8.72,38.49,3.94,41.28-21.21,4.73-42.66,42.34-54.53,67.25-76.45,14.09-12.4,26.05-22.22,30.22-40.39,2-8.71,3.87-17.45,6-26.12,8-32.18,31.89-41.69,58-21.41,12.09,9.39,22.54,19.75,38.6,22.06,7.69,1.11,10.94,8.52,14.42,14.85,4.38,8,9.24,16.16,20,15,12.3-1.38,20.37-10.39,21.26-21.19,3-36.43,30.53-41.21,57.54-47.51,12,12.74,6.5,28.64,7.6,43.26,1.26,16.78-1.74,33.75,2.15,50.36,18,25.18,29,24.46,45.4-3.13,6.29-20-2-41.32,6.1-61a9.82,9.82,0,0,1,6.25-4.77c17.95,7.18,34.31,22.2,56.15,10.46,3.45-1.86,8.46,1.69,12.24,4.11,23,14.71,45.69,24,70,1.3,8.37-7.82,12.31.42,13.86,8,2.28,11.06-3.45,20.77-5.95,31-3.11,12.78.2,23.56,12.94,28.52,14,5.43,21.17-3.94,27.07-14.86,9.5-17.61,5.22-38.81,14.82-56.39,7.82-10.78-2.79-34.89,14.82-34,12.84.63,7.34,22.42,8.45,35,.83,9.41,4.64,16.75,10.87,23.3,14.61,18.38,31,18.35,49,5.18,8.63-6.3,17.76-12,26.3-18.39,16.46-12.38,32-18.8,49.23-.08,10.56,11.45,26.41,9.68,40.56,9,57-2.66,113.63-10.19,170.1-17.59,152.29-19.94,305-30.15,458.53-25.11,10.49.76,21.06.3,31.57,1.26,8.12.74,18.51,2.56,20.13,10.14,6.12,28.61,32.5,42.43,45.42,65.73,17.54,17.47,44.09,24.1,54.66,51,4.77,12.15,24.34,6.61,31.31-7.71,5.82-12,4.45-26.18,11.54-37.8a12.46,12.46,0,0,1,10.78-2.74c11.55,4.9,15.87,16.15,22.14,25.58,16.24,24.37,27.46,25,46.67,2.2,4-4.74,7.94-9.51,12.07-14.08,5-5.12,6.11-12,8.24-18.41a13.33,13.33,0,0,1,4.53-5.29,15.72,15.72,0,0,1,7.07-.88,19.15,19.15,0,0,1,6.52,3.23,26.93,26.93,0,0,0,13.66,6c26.51-4.46,49.79-14.71,64.49-38.25,8.77-14,16.85-13.4,30.66-5.93,20.33,11,40.74,18.95,51.76,42.71,7.36,15.88,24.65,15.56,34.27-.48,13.53-22.55,31-37.23,55.2-47.52,19.62-8.36,18.25-28.87,16.36-47.06-5.53-53-2.25-59,50.77-69.18,22.82-4.39,30.87-15.18,26.89-36.85-2.33-12.67-2.84-25.1,5.83-35.78,12-14.75,12.59-30.89,6.75-48-5.08-14.91-6.11-29.28,1.85-44,8.85-16.37,4.86-33.94-1.38-49.5-18.32-45.7,1.52-84.58,19.63-124,1.83-4,6.52-7.71,6-11.75-6.34-46.64,24.77-83.47,32.64-126.32,1.32-7.14,1.53-14.38-.32-21.3-19.56-73.19-3.49-147.6-7.65-221.31-.45-8-.13-17,4.87-23.29,18.4-23.08,16-50,16.32-76.76,1.7-127.75-1.43-255.68-7.61-383-7.42-152.92,9.91-303,26.48-453.72,3.51-32,3-64.16,7.09-96.12,2.09-16.3-3.76-30.59-22-34.93-16.79-4-20.38-16.29-19.78-30.49,2.52-59.93-5.87-119.48-5.68-179.31a125.84,125.84,0,0,0-12.75-56.73c-16.73-34.59-9.49-72.2-7.26-108.24,3.35-54.31,6-108.65,9.14-163a210.4,210.4,0,0,1,7.08-44.86c6.16-18.73,10.76-37.69,9.82-57.72-.56-11.8,1.84-22.77,9-32.9,25.73-36.33,23.37-75.29,8.7-114.64-4-10.66-2.32-19.66-.92-30.54,4.66-36.29,19.51-69.82,8.72-110.25-12-44.82-7.87-94.09-.36-141,3.26-20.35,4.92-37-17.56-47-12.76-5.66-13.21-18.36-12.88-30.07,1.05-38.33,1-76.7,2.22-115,1.15-37.06-2.19-74.72-2.49-112.16-.12-14.4,1.12-28.55,5.14-42.4,5.73-19.7,11-21.41,27.48-8.31,8.4,6.69,15.46,14.83,22.51,22.92,4.75,5.47,9.81,11.47,18.05,7.88,7.48-3.25,8.79-10.69,9.47-18,.59-6.28-.78-12.46-1.15-18.69-2.55-43.17-4.52-86.62-8.46-129.39-3.14-34-11.94-65.15,6.13-97.92,6.38-11.56-.48-28-4.78-41.78-9.35-30-13.32-61-15.29-92.3-1.33-20.92,3-39.85,13.92-58.75,18.29-31.74,14.24-67.66,11.18-102.26-1.82-20.47-4.33-40.84-3.73-61.4.61-20.93-1.11-41-14.5-58.55-5-6.57-8.84-15.72-5.81-22.7,9.73-22.34,2.39-47.24,12.36-69.52,5.5-12.29,6.45-25.85,1.18-39.2-3.38-8.56-4.54-18.11.06-26.1,11.55-20.07,2.7-32.4-12.6-45.67-13.47-11.68-25.36-25.15-41.54-33.34s-31.75-12.84-51-6.45c-25.87,8.61-46.57-.51-62.22-22.86-7.36-10.5-14.91-19.72-29-21.33-10.22-1.17-17.27-8.44-24.53-15.3-28.82-27.28-51.86-26.09-81.51.31-22.87,20.35-49.25,34.75-81.93,29.71-7.55-1.17-13.73,2.58-20.54,4.59-16.75,5-28.59-6.66-22.54-23,7.89-21.39-1.87-41.43-4.22-61.51-1.94-16.51-39.35-18-49-.68-17.6,31.46-42.15,44.58-77.34,39.62-8-1.13-13.63,2.93-16.92,10.33-1.44,3.25-2.53,8.15-5.46,9-33.94,9.42-21.34,34.46-17.51,54.91,4.86,26-10.94,45.93-17.24,68.48-2.93,10.49-16,13.81-27.07,14.24-14.29.55-28.42,3.61-42.75,2.82-10.26-.57-17.68,3.5-20.84,13.14-7.6,23.09-25.77,27.88-46.74,27.41-19.55-.43-34.64,3.79-41.06,25.7-4.85,16.56-18.39,20.31-34.56,15.78-9.69-2.72-20.27-6.1-25.27-14.2-15.14-24.57-35-33.09-63.09-25.59-10.24,2.73-18.1-5.1-25-12.71-11.77-13-26.33-17.88-43.52-12.5-5.15,1.61-12.24,5.21-15.34,1.72-25.55-28.81-60.5-14.51-90.13-17.2-36.51-3.32-73.45-10.5-111.65-2.73-23.28,4.74-49.59.44-74.5-.86-16.29-.84-32.17-.43-47.33,6.2-12.17,5.33-23.64,4-36.28-.06-35.89-11.61-51.19-6.24-74.88,23.45-10.44,13.1-23.77,19.4-40.13,14.38-15.61-4.79-17-19.24-18.77-32.59-1.07-8,.94-16.07.72-24.07-.28-10,7.75-23.95-5.26-28.92a64.48,64.48,0,0,0-49.71,1.57c-13.1,6-10.45,18.54-9.4,30.5,3.37,38.41-4.69,76.36-5.93,114.64-.55,17-11.17,28.4-30.68,24.88-14.46-2.61-28.24,2.8-42.58,2.5-19.86-.42-29-8.69-29.78-29.06-1.37-34.81,7.78-69,4.08-104.06-1.55-14.6-5.73-26.17-16.16-35.11-13-11.11-26.14-4-35.81,9.08-28.55,38.72-11,81-12.83,121.67-1.47,32.59-9.34,40.47-40.26,36.87-22.61-2.63-29.77-12.33-30-35.65-.2-22.3,1.59-44.34,3.6-66.47,1.39-15.25-.79-29.54-20.67-30.82-18.28-1.17-36.66-2-43.54,21-3.39,11.32-2.77,23-3.55,34.55-1.81,27-10.33,34-37.81,31.74-3.57-.3.83.31-2.65-.42-17.38-3.6-36.82,3.3-52.4-7.26-16.39-11.12-8.07-31.57-13.67-47.25-6-16.79-11.65-29.38-32.86-27.23-20.85,2.12-31.69,10.07-32.81,33.22-1.55,31.92-24.83,52.95-56.85,51.09-40.15-2.34-80.23,3.08-120.26-.74-12.88-1.23-24.48,2-28.4,14.73-6.18,20.1-18.94,26.46-38.48,24-21.95-2.71-25.3-19.43-28.65-36.58-6.21-31.83-32.42-52.21-62.63-47.26-14.87,2.44-30.31,6.63-42.24,15.91-12.92,10.07-27.86,9.06-41.58,13.46-48.48,15.54-103.76,8.65-146.18,44.32-19,16-42.22,11.39-64.34,9-11.71-1.25-14.47-11.73-18.82-20.57-7.45-15.16-22.33-20.24-32.75-9-20.66,22.19-50.56,17.35-74,30.73-23.64,13.47-49.61,17.36-76.71,5.46-14-6.13-22.12.82-26.17,16.81-9.12,36.12-29.22,42.57-61.71,24-15.61-8.91-31.2-15.59-38.53-34.49-4.71-12.12-18.91-8-29-8.11-16.08-.17-32.21,2.83-44.39-12-4.55-5.54-11-4.21-17.22-1.43-37.33,16.66-72.35,16.5-108.09-7.61-30.55-20.61-67.76-20.36-103.49-21.78-13.35-.53-26.76.35-40.16.29-21.33-.09-39.23-3.39-45.24-27.93-1.49-6.07-5.91-11.59-12.91-12.16-9.21-.75-12,7-14.13,13.59-6,18.77-19.81,23.6-37.53,23.18-13.39-.32-26.8-.16-40.21-.07-16.89.12-30.18-4-32.19-23.93-1-9.83-6.2-16.52-16.25-18.86-2.6-.61-6.15-.8-7.47-2.63-17-23.68-29.17-17.84-48.32,1.15-17.72,17.56-80.84-2.25-93-25-4.08-7.66-9.45-12.72-17.1-16-9.44-4-15.76-10.5-20.17-20.18-11.37-25-20.81-27.17-37.38-5.64-16.83,21.88-37.31,31.39-64.1,32.44-20.63.81-31.86-8.45-37-27.24-5.68-20.78-8.66-41.61-6.88-63.48,2.06-25.4-15.12-41.64-40.59-41.19-34.11.59-42.55,6.69-49.22,45-3.93,22.61-13.86,36.39-36.35,39.66-11.2,1.63-18,6.4-20.33,17.65-2.94,13.92-11,21.83-26.09,21.84-13.06,0-21.91-4.59-26.44-17.78-6.36-18.5-24.06-24.84-39.05-21.21-46.15,11.19-91.77-6.94-137.86.86-14.93,2.53-23.16,5.15-25.4,20.15-2.68,18-13.61,21.67-30.8,20.77a781.7,781.7,0,0,0-106.9,1.67c-33,2.8-36.4-.24-47.54-31.53-10-27.95-33.22-44-60.23-52.32-15.24-4.69-29.38,3.52-40.24,15.88-23.87,27.18-52.22,32.91-83,15.87-14.18-7.84-26.36-15-39.6,1.87-7.85,10-20.16,3.56-30.51,4.06-14.55.69-28.62.28-29.06,21.78-.31,14.87-13.48,19.79-26.12,22.91-14.69,3.64-28.08-.75-35.07-13.32-10.25-18.42-26-24.89-44.91-29.62-30.16-7.55-42.08-24.73-41.86-56.12.2-30.1-1.08-31.42-31.26-32-16-.31-32.3,1.22-47.12-7.16-13.3-7.52-23.29,7.12-35.71,5.54a30.71,30.71,0,0,1-7.73-1.22c-13.09-6.2-22.59-16.84-30.51-28.23-13.09-18.81-27.1-20.05-43.76-5.57C870.56-2308.92,866.33-2305.76,860.94-2308.82Z"/><path class="cls-5" d="M871.82-2314c19.28-21.33,34.08-22.05,47.81.25,7.57,12.3,22.7,17.33,27.07,31.76,8.58,9.5,7.94,21.19,7.1,32.59-3.69,50.07.16,100.35-4.46,150.36,0,7.82,0,15.68,0,23.49-.89,8.94,1.71,18.34.35,22.24.83-3.36-.67-12.1-.18-20.6q0-11.28,0-22.54c2.7-39.16,3-78.36,2.62-117.56.08-7.55-.14-15.13.56-22.68,3.23-12.6,4.66-25.87,12.95-36.7,1.18-1.32,2.35-2.86,3.93-3.56,28.39-12.57,83.93,10.26,98.24,37.27,14,26.38,15.64,54.15,15,87.07,17.75-10,34.7-16.41,48.39-2,25.74,27.07,66.85,45.4,56.86,94.2,1.2,11.65-3.65,22.79-2.72,34.4q0,10.7,0,21.39c-.07,7.25.21,14.56-.48,24.5,1-9.65.47-16.77.65-23.82q0-10.74,0-21.45c1.37-19,3.86-37.94,2.46-57-.47-5.46-.21-11.54,3.3-15.28,17.22-18.31,22.07-41.46,27.07-64.76,1.47-6.86,3-14.37,9-18.87,21.59-16.22,48.29-7.79,72.34-13.29,17.66-4,27.19,16.18,32.58,33,1.69,5.49.81,11.09.61,16.64,0,3.86-.06,7.74-.31,11.58a46.81,46.81,0,0,1-3.16,11.43c3.85-7.45,3.22-13.82,4-20a24.33,24.33,0,0,1,2.39-7.45,35.88,35.88,0,0,1,11.65-11.73,28.75,28.75,0,0,1,8.27-3c34.34,2.55,41.34,12.66,41.54,59.94v42.47c.38,5.11-.88,10.33.64,15.43-1.23-6.41-.29-12.9-.59-19.37,0-9.76,0-19.48,0-29.22.06-11.8-.14-23.58.21-35.37,3.13-16.48,2.21-33.63,7.76-49.69,5.8-16.81,15.35-30.35,34.68-32.37,17.63-1.83,27.11,9.61,35.43,23.11,19.41,31.54,40.84,62.06,46.91,99.85.81,15.79-1.65,31.76,2.78,47.35a63.31,63.31,0,0,1,.76,8.69c.21,13.08.09,26.15.13,39.21q0,10.51,0,21c0,5.22,0,10.45,0,15.64.09,1.84-.19,3.72.07,5.59,0-3.47,0-7,0-10.45V-2003c0-10-.08-19.94.14-29.92a72.59,72.59,0,0,1,.69-8.58c4.18-12.55,1.71-25.93,4.64-38.66q5.1-17.76,11.76-35c6.94-17.91,18.53-29.48,39.76-27.43,20.93,2,27.74,15.69,29.56,34-1.64,20.25-.43,40.54-.8,60.8v27.18c-1.15,13.3,2.9,27.31-.47,33.75,2.08-11.66-.13-30.16.52-48.4v-26.21c0-10,0-20,.06-29.94-.33-12.85,3.62-24.68,9.69-35.72,8.59-15.6,21.06-25.16,39.45-18,12.86,5,18.22,2,23.94-10.69,13.34-29.65,35.93-32.33,58-8.12,4.79,5.24,7.49,12.84,16.7,8.66,11.54-5.23,22.58-2,33.86,1.26,15.86,4.63,29.88-1.64,43.38-8.85,15.13-8.09,28.46-6.21,42.23,4,26.55,19.69,58.58,16.21,81.88-7.87,12.49-12.9,26.24-18.18,42.93-7.64,10.3,9.24,13.51,21.5,11.53,34.18-6.56,41.89-3.57,83.45.2,125.38,1.84,20.41,7.28,43-8.34,61.67-12,5.62-20.1-2.61-29-8.37-23.07-14.92-38.35-37.12-55.07-58-7.79-9.74-17.86-16.65-30-7.6-11.07,8.28-11,20.46-4.6,31.4,15.17,25.84,38.27,44.68,60.25,64.19,25.21,22.38,26.33,26.88,2.53,50.7-14.61,14.61-26.76,31.18-40.21,46.7-8.23,9.51-12.27,21.21-2.78,31.51,10.65,11.57,21.35,3.81,30.52-3.8,14.48-12,26.11-26.91,39.25-40.34,9.12-6.21,15.36-16.8,27.69-18.18a14,14,0,0,1,6.79,6.21,151.14,151.14,0,0,1,8.68,50c1.09,96.34,11.63,192.64,5.4,288.91-4.4,67.86-6.28,135.28.32,203,2.6,26.63-.44,53.4-3.81,80.08-5.08,40.17,5,79.93,5,120.18-.08,35.64-3.49,69.26-22.67,99.93-3.36,14.75-14.14,24.47-24.11,34.64-12.75,13-22.41,28-27.53,45.37-11.21,38.15,2.74,66.91,41.21,88.4,10.95,6.12,27.25,7.3,27.24,25.51.7,98.14,8.41,196,10.41,294,.27,13.35,1,26.8-2,40-5.19,16.32-16.38,10.59-25.74,5.87-45.72-23-88.55-50.31-123-88.82-12.38-13.83-25.13-25.51-45.19-24.51-9,.46-13.59,3.17-8.49,13.26,15,29.66,30.12,59.62,58.24,79,35.91,24.69,67.35,56.07,109.19,72.12,16.49,6.33,12.52,19.29,5.29,31.12-14,22.9-32.13,43-45.85,66-42.54,71.37-87,141.46-135,209.34-2.57,3.63-4.26,7.84-6.27,11.83-19.06,37.8-17.1,45.63,17.81,70.94,3.72,3.3,7.24,6.82,10.68,10.44a15.64,15.64,0,0,1,3.06,6.79c.26,7-3.28,12.06-8,16.62-6.78,6-14.73,10.28-23,13.63C1702,50.64,1632.24,138.54,1579.36,243.14c-1.53,3.46-3.06,6.93-4.55,10.43a22.12,22.12,0,0,1-6.65,9.44c-14.49,3.67-23.26,17.2-37.33,21.69-38.16-2.32-76.08-7.79-114.39-7.77-31.94-11.7-65.21-8.66-98.15-8.67-34.85,0-69.71-.56-104.55-.51-13.66.31-27.51-1.76-40.91,2.81a63.58,63.58,0,0,1-13.78,2.07c-12.58.42-25.15.37-37.74.53-43.08-.21-86.15.18-129.17-.15-4.35-.05-9,.42-13-1.06-26.67-9.7-45.86-.19-60,22.79-8,7.62-14.29,16.28-17.14,27.15-1.92,56.88-3.37,113.68,1,170.43,4.61,20.52-.78,43.58,15.58,61.11,13.23,33.28,19.76,68.5,29.48,102.81,24.31,85.84,93.55,173,207.07,176.49,32.14,1,35.82,7.33,35.53,38.9-.44,48.18-4,96.48,2.88,144.53,1.29,9-.08,17.78-1.61,26.62-5.63,32.59-9.75,35.92-42,32.89-26.89-2.52-53.42,1.53-79.94,4.74-22.14,2.68-42.16,7.82-45.84,35.87-1.49,11.27-14.3,15-23.14,20.89-19.28,13-21.37,22.51-4.66,38.25,15.36,14.47,22.18,26.43,5,44.31-8,8.32-2.29,16.1,7.22,21.15,8.91,4.74,22.15,3.14,25.33,16.65-6.36,13.17-18.71,12-30.25,12.69-9.9,0-19.87-.64-29.46,2.92a54.86,54.86,0,0,1-8.74,1.95c-35.46,1.59-71,4.13-104.47-11.85V-2249.83C867.87-2270.65,860.72-2293.87,871.82-2314Z"/><path class="cls-6" d="M3363.3,1294.18c-29,.68-58.06,1.15-87.07,2.22-6,.23-11.89,2.73-17.83,4.19-11.06-8.19-22.05.61-33.12.56-142.49-.7-285,1.59-427.47-1.7-44.11-1-88.69-1.51-132.88-5.85-5.15-.5-10.48.82-15.72,1.29-37.5.18-75,.28-112.51.61a72.86,72.86,0,0,1-30.84-6.15c-20.68-9-43.71-7.36-65.79-9.38-48.07-4.4-96.32-4.54-144.58-4.51-29.44,0-58.88-1-88.32-1.5-26.85-1.66-53.67,2.85-80.52.4q-128.06.72-256.11,1.38c-8.86,0-17.71-.73-26.57-1.12-8.55,3.47-17.56,2.28-26.26,1.8-63.64-3.56-126.91,7.43-190.37,4.71-14.8-.63-16.08,14.12-27.19,14.78-7.08-3.19-7.09-13.46-15.42-15.41-28.54,1.8-57.07,3.43-85.55-.88-6.18-.19-12.6-1.52-18.52-.37-21.42,4.19-41.93,6.71-60.82-8.86-6.07-5-15.58-2.06-23.54-2.21-10.57-.19-21.35,1.28-31.16-4.32-14.37,3-28.72,3.67-43-.49-55.71.68-111.42,1.64-167.14,1.93-28.29.14-56.59-.91-84.88-1.42-13.33,3.66-25.59.86-37.14-6.2-7.55-7.47-18.29-5.85-27.3-9.44-22.73-9.06-25.68-19.1-9.17-37.07,3.56-3.88,8-6.92,11.68-10-8.33-9.19-16.57-18.05-24.56-27.14-12.7-14.45-11.55-26.7,3.92-37.88,5-3.62,10.9-6.09,16.49-8.88,9.55-4.77,19.76-7.64,14.73-23.22-3-9.16,5.34-15.91,13.7-20.63,10.4-5.89,21.69-7.66,33.25-9.21,29.75-4,59.24-9.72,89.63-4.8,22.31,3.62,23.22.46,28.57-22.07,4.1-17.29.15-33.29-.55-50-1.92-46.35-2.29-92.87,1.51-139.14.93-11.24-3.06-14.44-11.32-16.91a30.82,30.82,0,0,0-10.54-1.41c-21.8,1.49-42-6-63-9.72-48.75-8.55-80.42-40-109.63-75.45-28.2-34.2-45.44-73.38-54.91-117.1-6-27.61-13.49-55.18-21.29-82.51C903.48,527,902.92,497,898.51,467.77c0-30.32-.08-60.63,0-90.93,2.23-25.87,15.1-49.28,17.44-75.15,10.94-25,27.49-30.6,56.39-29.93,53.64,1.23,107.73,7.53,161.46-.38,7.1-.61,14.36.2,21.33-2a31.32,31.32,0,0,1,8.29-.95c8.46.58,16.41-3.57,24.92-2.74,8.87.84,17.29-2.71,26.1-2.62,51.2,9.33,103.19,2.4,154.58,7.54,12.75,4.69,26.2,3.31,39.36,4.37,34.22,2.75,68.87-.36,102.68,8.75,8.08,2.18,17.63,2.74,25.61-3,2.85-18.53,16.62-20.7,31.58-21.11,2,1.76,4.87,3.56,4.73,6.08-2,36.52,17.36,66.87,28.5,99.6,2.84,36.3,4.55,72.59-.84,108.78-9.34,15.93-10.45,2.14-12.81-2.12-2.75,39.2-25.33,73.5-37.16,111.28-24.15,43.85-51.38,85.54-80.7,126.26-42.6,59.16-94,105-165.21,124.8-25.21,7-31.37,19.45-31,46,.6,49.75-2.78,99.69-4,149.59-.55,23,5,35,30.79,34.55,15.75-.27,31.78,4,47.82,5.18,8.93,2.16,18.18,3.69,25-4.09,20.13-22.93,47.7-26.09,75.36-29.4,33.17-1.67,66.37,1.07,99.47-1.1,3.56-1.53,7.16-3,10.55-4.9a52.72,52.72,0,0,1,6.49-3.6c1.15-.37,2.33-.7,3.49-1,3.87.07,6.53,2,8.28,5.38.86,2,1.62,4.14,2.42,6.18,7.63,9.22,19.48,4.64,28.68,8.72,62.49,2,124.93.4,187.36.77,6.22,0,12.6.37,17.49-4.41,2.22-4.31,1.23-8.65.12-13-1-4.56-1.27-9,2.25-12.74a8.61,8.61,0,0,1,6.31-1.24,19,19,0,0,1,5.35,3.75,31.71,31.71,0,0,1,3.57,5.37c1.11,1.8,2.14,3.66,3.23,5.5a63.5,63.5,0,0,0,4.31,4.94c3.95,3.22,8.69,4.15,13.57,4.9,49.31,4.25,98.36-2.62,147.09-5.81,87.56-5.73,175-3.92,262.4-3.39,116,.69,231.93,3.73,347.53,14.68,82.56,7.83,82.61,7.36,141.44-68.71a64.84,64.84,0,0,1,5.56-6.56c.9-1,1.91-2,2.81-3,18-21,38-40.36,51-65.31,29.79-46.81,65.73-88.89,102.19-130.43,13.84-15.77,13.16-26.88-3.3-39.07C2900.55,726.26,2893,720,2884,716c-34.85-15.47-63.9-38.63-90.12-66-20.18-21.05-20.59-20.63-33.9,4.17-11.5,21.42-26.05,40.77-44.33,56.56-18.57,16-42.5,17.1-65.79,18.71-15.86,4.79-32.15,4.78-48.45,4.67a59.93,59.93,0,0,0-19.62,2.91c-13,2.84-25.76,6.6-39,8.35-22.77,7.25-43.35,21.16-68.1,22.41-21.74-5.43-42.55,3.73-63.92,4.2-34.59-8.73-70.29-10.88-105.4-15.53-46.94-6.21-82.73-26.16-98.65-70.33-13.7-38-35.2-59.18-74.16-74.25-44.78-17.32-88.2-40.94-125.6-74.85-23.87-21.65-52.31-40-80.09-57.29-28.26-17.57-35.69-48-53.3-72-7.69-10.44,2.5-19.6,13.33-24.54,49.67-22.64,94-54.41,141-81.64,19.45-11.27,29-24.87,22.56-48.06-13-46.86-10.78-95.62-16.09-143.44-2.17-19.54-10.29-30.86-27.67-38.35-34.39-14.82-64.38-38.08-99-52.51C1890.51,6.78,1873.54-6.1,1854-14.87c-6.28-2.82-7.37-9.92-11.8-14.28v0c-2.55-3.55-7.73-2.4-10.37-5.81-45.31-29.84-47-36.93-21.44-86.25,14.85-28.66,35.25-53.56,53.87-79.59,24.43-34.16,45-70.51,65.5-107,17.06-30.4,39.58-57,59.17-85.66,4-5.89,8.18-11.72,11.72-17.9,3.71-6.49,2.9-11.9-5.16-14.61-35.39-11.88-64-34.27-91.19-58.89-9.31-8.44-22.06-11.37-31.32-20.28-19.59-18.84-33.42-41.57-45.66-65.36-2.81-5.47-4.68-10.85-9.23-15.66-8.41-8.91-5.74-15.76,6.45-16.93,22.18-2.12,42.79,1.1,57.62,20.54,29.89,39.17,71.51,63.34,112.95,87.64,9.21,5.4,19,9.72,28.59,14.54,33-3.88,41.93-33.36,58.32-55,40.19-53.57,75.05-110.88,116.19-163.72,7.64-9.81,11.7-16.71-4.13-24.06-32.05-14.89-39.64-35-20.85-66.71,22.86-38.53,40.88-79.16,60.38-119.21,7.42-15.25,16.17-29.9,22.29-45.72,23.79-61.55,48-72.4,123.2-65.31,39.25,3.7,77.19,8,116.49,2.89,33.06-4.27,65.58,5.85,98.24,10,33.86,4.33,67.24,2.28,101.18,1.11,83.69-2.9,167.53-5.06,250.88,10.73,35.12,6.66,72.46,13,106.45-9.21,9.41-6.15,23.92-3.48,25,6.2,3.1,28.77,30.73,40.64,39.87,64.47,4.75,23.17,18.75,42.36,27.71,63.74,11.74,65,51.05,119.46,69.49,182.21,24.61,83.7,62.29,163,77.77,250.13,9.3,52.34,29.64,102.79,50.58,152.17,24.09,43.6,31.61,92.84,46.61,139.5,19.65,61.12,36.55,123,62.69,182,32.27,72.84,48,150.89,68.36,229.41,15.44-10.19,28.6-23,40.51-37.3,55.35-66.6,110.88-132.93,173.06-193.55,35.81-34.92,64-76.82,96.78-114.6,24-27.65,49.2-54.23,72-83,10.67-13.46,11.4-24.4-1.54-37.2-78.78-77.86-126.11-172-143.72-281.21-5.41-75.45-17.86-150.57-8-226.7,2.83-22,1.43-44.6-3.18-66.71-5.43-26,3.27-51.5,3.73-77.32.26-14.83-.8-26.23-20.39-15-11.38,6.53-23.71,10.29-30.77-7-2.34-5.73-8.25-6.54-13.72-6.18-50.66,3.37-68.65-33.15-86-70.37-1.5-3.2-1.8-6.94-3.24-10.21-18.14-41.17-18.22-44.08,18.42-74.08,55-45,99-100.31,146.89-152,9.25-10,16.42-20.09,14.21-35.62s7.26-19.18,20-12.3c11.77,6.34,23.89,12.53,34.53,20.49,35,26.16,69.61,52.59,109,72.41,12.83,6.46,27.82,16.69,14.35,35.85-27.87,15.2-55.3,31.3-86.47,42.59,7.58,5.6,15.15,2.9,21.59,5.32,20,7.49,31.74,3.42,34.95-20.46,2.15-15.92,13-24.84,30.79-17.7a24.71,24.71,0,0,1,6.62,11.37c9.25,33.59,12.18,35.75,46.88,34.37,18.65-.75,36.81-6.08,55.57-6,27.51-6.57,55.33-5.41,83.17-3.66,25,4.34,50.13-4.36,75.1.75,27.43,16.92,52.93-.06,79.14-4.65a98.22,98.22,0,0,1,34.66-.68c16.22,6.2,32,7.88,48.35-.81,13.61-7.24,29.19-5.61,44.14-6.49,88.37-3.14,176.79-4.93,264.36-18.72,8-1.25,16-2.39,24-1,106.33,17.71,213.61,13.33,320.67,14,16,.1,32.2-1.42,48,2.34a22,22,0,0,1,7.47,4c-12,16.84,7.39,22.06,12.26,32.73a170.75,170.75,0,0,1,16.87,80.33c-1.23,39.19,8.18,78,5.28,117.38-1.12,15.09-.49,30.18-3.76,45.23-2.59,12-4.73,24.76,5.9,35.19,7.51,7.36,3.49,16.84,3.59,25.5,1.25,15.17,2.64,29.77-10.79,41.93-7.59,6.88-6.61,18.22-5.38,28.07C5123-610,5112-557.22,5094-505.33c-11.13,32-18.74,65-31.51,96.72-34.31,85.18-89.8,156.08-147.6,225.5-17.54,21.07-32.47,45-56.68,59.84a13.67,13.67,0,0,1-7-1.14c-3.2-2,1.5-5.46-1.37-7.54-.84,1.88-1.56,3.82-3.22,5.25-45.35,36-97,61.35-147.53,88.63-7.86,4.25-15.89,7.6-20.74,15.62-59.47,22.28-116.38,53.18-182.08,54.16-6.48.9-8.79,5.1-8.66,11.22-.2,8.46,2.21,16.71,1.74,25.16-1.15,7.93-2.28,15.84-4.14,23.64-3.35,47.62-3,95.38-6.61,143-18.46,10.34-32-5.26-47.17-10.07-10.38-3.3-19.79-11.53-25.44-22.23-12.12-31-6.54-63.43-7.77-95.31-.34-8.9,0-17.82-.05-26.74-.09-43.46-.38-43.77-44.16-48.39-4.5-.12-9-.15-13.48-.12-17.45-1.11-35.74,4.12-51.91-6.66-.09-20.38,17.25-7.24,22.57-11.19-29.72-8.54-59.7-21.33-90.05-33-10-3.83-20.28-10.51-26.08,5.39-56.68,56.27-102.38,122.51-160.77,177.22-24.75,17-41.87,40.17-54.81,66.85-10.22,1.43-18,6.82-23.87,15.08-17.42,24.7-40.52,44.09-61.08,65.86-17.92,16.33-34.23,34.11-48,54.16-5.18,7.13-10.56,14.07-18.37,18.59C3803.64,404.71,3787,429,3790.28,463c-3.59,59.28-10.23,118.55,7.31,177,20.09,66.94,12.46,126.58-47.22,171.68-9.12,11.09-17.57,22.79-27.3,33.35-1.79,1.86-3.86,3.56-4.85,6a4.58,4.58,0,0,0,1.93,3.86c2.4,1.23,4.92,2,7.34,3.09,3.07,1.79,4.47,4.24,3.29,7.81-4.81,6.4-12,6.17-18.86,7.11-4.59.63-9,1.89-12.74,4.72-18,15.77-34.31,33.1-48.06,52.75-15.93,22.76-15.62,26.92,6.38,42.51q20.52,14.55,41.06,29.07c13.94,13.13,29.89,23.86,44.14,36.63,3.78,2.93,7.83,5.47,11.75,8.21,22.68,22.34,49.18,40.46,70.91,63.89,14.72,15.27,31.19,29.09,40.16,49.09,5.6,12.35,7.46,25.38,3.86,38.29-2.32,8.33-3.17,20.14-17.41,17.34-27.75,21.7-60.39,29.13-94.48,31.51-11.58.81-22.77,1.91-34.09,5.12-47.12,13.37-95.31,21.68-144.28,21.42-26-.14-51.2,5.56-76.93,6.5-5.33.19-10.33,2.57-15.07,6.79,1.61,9.81,11.4,14.9,14.85,24,7.45,19.65-1.79,33.7-22.81,33.22-21.86-.51-39.14-13.75-47.87-30C3414,1281.81,3389.58,1288,3363.3,1294.18Z"/><path class="cls-7" d="M1203.92,8.36c12.27,38.39,3,71.29-28.56,95.66-33.08,25.5-70.22,29.15-108.56,11.83-14.59-6.58-25.42-18.44-28-34-6.22-36.58-1.38-71.48,24-100.71,19.76-22.79,43.78-32.53,74.26-23.23,12,3.64,24.16,6.25,35.1,12.58,10.35,7.55,19.77,16,26.54,27.07h0C1202,.4,1200.88,5.4,1203.92,8.36Z"/><path class="cls-8" d="M1332.91,21.43c-.39-12.72.94-25.7,6.53-38.31,16.73-37.69,46-50.51,84.9-35.6a248.76,248.76,0,0,1,38.22,18.84c29.69,17.69,39.76,61.79,5.11,86.9-14.34,10.4-28.67,21.07-44.08,29.68C1384.38,104.84,1326.84,79.36,1332.91,21.43Z"/><path class="cls-9" d="M1368.63,277.06c-20.49.14-41.09-1-61.44.71-33.58,2.83-65.22-7.75-97.79-11.7q-2.64-2-1.66-3.79c.64-1.19,1.27-1.78,1.89-1.78q76-.36,152-.74a151.24,151.24,0,0,1,57.12,11.1C1403.8,286.9,1385.54,276.57,1368.63,277.06Z"/><path class="cls-10" d="M1161.29,271.18l-2.06.61-2.14-.22c-5.2,3.49-12.09.2-17.16,4.27-26,9-52.79,7.23-79.31,4.62a254.24,254.24,0,0,0-50.41-.2c-14.79,1.46-29.7,4-45-.32-24.36-6.9-25.51-5.79-39,15-1.92,2.95-4.12,5.73-6.19,8.58-4.64-2.42-5.64-6.8-6.16-11.44,3.1-4.29,6.6-8.35,9.22-12.91,9.91-17.28,24.79-21.25,43.11-16.88,6,1.43,12.11,2.47,18.17,3.69a837.85,837.85,0,0,0,139.09.19l37.76-.56q2.6,1.86,1.73,3.72C1162.45,270.56,1161.87,271.18,1161.29,271.18Z"/><path class="cls-11" d="M903.19,372.34v97.55c-6,8.18,2.73,19.39-5.61,27.08-4.3-5.18-4.15-11.4-4.15-17.6q0-75.45,0-150.92c0-5.36.27-10.61,4.48-14.68C915.3,331.9,899,353,903.19,372.34Z"/><path class="cls-12" d="M903.19,372.34c-10.27-18.76-1.88-39.19-5.23-58.57,1.4-10.12,7.58-16.73,16-21.7,4.88,2.29,5.81,6.71,6.16,11.44C920.93,328.05,914.62,350.82,903.19,372.34Z"/><path class="cls-13" d="M897.59,497c2.54-8.89-2.75-19.4,5.61-27.08,3,28.49,14.27,55.9,11,85.2-12-7.16-15.5-18.54-15.78-31.58C898.24,514.66,897.88,505.82,897.59,497Z"/><path class="cls-14" d="M1123.53,266.16c-21,6.91-118.87,6.78-139.09-.19Z"/><path class="cls-15" d="M1209.63,260.5c-.07,1.85-.15,3.71-.23,5.57-7.07,3.41-14.42,4.72-22.17,2.82-5-1.9-11.3,1.6-15.64-3.48C1183.37,256.77,1196.81,261.06,1209.63,260.5Z"/><path class="cls-14" d="M1171.59,265.41c5.33.64,11.13-.79,15.65,3.49-8.5,2.56-17.21,2.6-26,2.28V265.6Z"/><path class="cls-16" d="M1203.92,8.36c-4.23-2.38-5.44-6.24-5.28-10.77C1203.29-.24,1204.36,3.69,1203.92,8.36Z"/><path class="cls-7" d="M1558.34,1039.38c-2.86,6.17-8.58,5.18-13.62,5.09-33.29-.59-66.58-1.36-99.87-2.07-2.68-13.55,7.19-21.07,14.4-29.84,29.41-35.72,59.52-70.85,89.52-106.07,2.89-3.4,5.81-6.8,7.86-10.77,5.37-10.43,6.56-21.17-3.56-29-9.21-7.11-19.3-3.5-26.71,3.66a442.31,442.31,0,0,0-34.13,37.49c-41.21,50.23-83.5,99.56-123.77,150.55-5.57,7-10.87,14.13-19.82,17.15-24.21,2-47.54-6.61-71.65-5.89-10.46.31-13.57-5.33-13.36-15.17.6-27.61-.23-55.27,1-82.84,1.21-27.34-3.28-54.9,3.89-82.09,1.7-6.44-.32-14.13-1.66-21-4.7-24.17-1.51-27.17,20.94-35.25,41.55-15,82.89-28.69,116.85-61.06,52.3-49.87,91.53-108.39,127.66-169.82,4.38-7.46,5.88-17.19,15.29-21.05,1,.7,1.93,1.4,2.91,2.07a40.5,40.5,0,0,1,7.13,12.32c4.55,16,12.58,31,13.56,48,2.78,1.75-10.27,8.42,2.38,7.18,13.32,23.95,22.35,49.9,37,73.13,19.38,30.81,40.38,60.22,68,84.39,10.37,11,20.69,22.13,34.39,29.29,31.1,22.58,62.86,47.5,100.12,54.56,43.16,8.19,82.39,28.38,125.68,34.41,10,3.74,14.14,12.17,18.79,21.1,24.75,47.52,85.21,60.92,129.41,29.75,12.76-9,21.52-24.44,39.46-25.46,96.72,26.7,175-24,256-61.9,16.26-7.6,24.85-24.76,34.69-39.94,18.79-29,31.62-62.14,58.4-85.68l63.83-24.09c17.07,9.1,31.72,7.37,42.92-9.65,5.13-3.57,10.63-3.29,16.27-1.54,7.36,7.72,3,16.66,2.48,25.13-.56,8.83-1.17,17.67,1.84,26.15,3.42,9.64,8.85,18,20.54,17,10.7-.92,13.65-9.83,15.49-18.79,3.84-18.73,2-38.79,13.21-55.79,7.94-.75,16-1,23.81-2.33,21.75-3.73,39-13.14,52.85-32.1,15.64-21.38,28.32-44.56,42.07-67.22,15,8,23.69,19.5,33.54,29.59,23.2,23.78,48.63,44.29,79.43,57.54a121,121,0,0,1,16.53,8.68c37.12,23.29,39.24,31.64,11.08,63.83-34.55,39.51-65.89,81.48-97.83,123-10.47,11.54-14.13,3.17-16.75-6.07-2.56-9-.38-18.91-5-27.57-20.27-34.34-46.29-47.21-76.22-37.56-30.46,9.82-57.7,51.91-53.51,84.39,2.76,21.38,20.06,28,37.8,32.14,13.88,3.22,28.34,1,42.52,1.54a68.66,68.66,0,0,0,14.21-1.44,25.72,25.72,0,0,1,7.11-.57c14.58,5.63,3.85,12.65,1,19.24l0,0a24,24,0,0,0-4.91,6.12,293.59,293.59,0,0,1-38.38,51.28c-3,3.26-7.82,6.15-8.71,9.94-5.57,23.6-21.26,20-40.1,19.5-90.95-2.5-181.64-9.89-272.56-13.35-108-4.11-215.88-3.66-323.8-2.35-56.13.69-112.24,3.49-168.28,7.76-23.52,1.8-47.87,7.21-71-3.77-3.06-2.86-2-7.89-5.51-10.5l-.08-.16c-1.85-2.21-3.94-4.26-4.47-7.28a3.81,3.81,0,0,0-1.16-3.57,57.55,57.55,0,0,1-4.46-6l.27-.16c-15.11-7.56-24.66-22.22-40.12-29.87-27-13.35-55-17.33-84.58-16-14.81.68-30,2.32-44.47-3.47-1.54-.88-3.2-1.83-4.08-3.33-22.86-38.78-29.9-40-57.35-4.69-19.81,25.43-44.32,46.58-64.2,73C1537.85,1034.17,1550.66,1027.35,1558.34,1039.38Z"/><path class="cls-17" d="M975,564.91c-6.33-62.24-1-124.61-2.08-186.91-.25-14.25-.9-28.54-.33-42.77.82-20.43,1.84-22.09,21.58-21.33,58.65,2.23,117.24-2.81,176.14,4.43,43,5.29,87.09,4.57,130.15,11.47,28.36,4.54,56.61,5.95,85.13,5.64,3.56,0,7.44-.77,10.65.34,28.42,9.78,57,12,86.66,5.56,11-2.38,27.2,15.1,27.06,30.34-.31,34.51,4.78,69.36-7.66,103.3-9.48,25.87-10.24,54.23-20.52,80-10.69,17.76-25.74,13.46-41,8.12-8.91-9.56-4.56-20.07-1.63-30.16,7.46-25.7,12.19-52,17.36-78.19,1.72-8.75,3.32-17.56,3-26.48-.54-14.82,2.64-35.06-16.84-37.05-20.34-2.08-20.09,18.13-22.23,33-5.58,38.82-12.26,77.43-25.57,114.46-3.69,10.24-5.63,23.57-21.56,23.08-55.94-16.21-113.45-15.64-168.48-2.61-34.64,8.21-67.56,13.74-102,8.09-32.12-5.26-63.63-5-95.29,2.47C996.3,572.36,984.52,575,975,564.91Z"/><path class="cls-18" d="M975,564.91c15.44,3,30.34-1.42,44.64-5.36,23.9-6.58,47.28-5.47,71.23-1.79,19.27,3,38.73,5.07,58.19,6.38a64.21,64.21,0,0,0,33.7-6.64c23-11.92,47.16-14,72.47-13.21,27.53.83,55.15-1.16,82.68-.38,14.55.42,30.77.18,38.79,17,2.95,14.74-7.76,22.81-16,31.76-23.55,25.63-49.71,48.4-77.27,69.66-10.49,8.09-24.44,17.4-13.8,32.42s25.85,9.09,37.81-.06c44.63-34.11,87.56-70,116.2-119.75,3.66-6.37,5.46-15.92,16.44-14.32,14-1.15,28.47,1.28,41.7-5.55,3.92,10.06,5.14,18.19-1.58,29.47-32,53.79-67.59,104.53-112.83,148.19-9.81,9.47-20,17.82-32.72,22.58-37.23,13.93-73.18,33.59-114.68,30.41-31-2.38-61.92-5.34-93.09-6.18-32-.87-57.73-18.66-78.12-41.15-23.8-26.24-45.63-54.93-53.58-90.89C989,619.78,977.22,593.51,975,564.91Z"/><path class="cls-19" d="M1359,305.65c-8.12,3.89-16.55,3.65-25.1,0C1341.93,302.41,1350.25,302.62,1359,305.65Z"/><path class="cls-14" d="M1139.93,275.84c4.56-6.07,10.94-4.82,17.15-4.27C1152.2,276.32,1146.19,276.56,1139.93,275.84Z"/><path class="cls-20" d="M1440,560.57c-26.56,54.19-69.75,93.69-115.77,130.59-7.58,6.08-15.75,11.84-24.48,16-15.54,7.39-30.42,3.67-38.09-8-7.85-12-5-26.26,10.1-36.77,28.62-20,54-43.39,78.38-68.22,10-10.22,19.74-20.5,26.47-33.26,18.84-30,23-64.62,30-98.18,3.43-16.41,7.76-32.89,7-50a31.09,31.09,0,0,1,1.68-10.46c4.36-14.1,17.52-23.93,29.39-22.25,10.9,1.55,21,12.83,22.13,26.64a180.26,180.26,0,0,1-2.27,45.1C1458.25,488.44,1448.64,524.38,1440,560.57Z"/></g></g><path class="cls-21" d="M163.94,368.58q28.84-24,58.53-47l-19.43,15A1882.84,1882.84,0,0,1,397.7,204.52L281.36,53.74A1776.06,1776.06,0,0,0,124.65,220.3q-21.5,25.94-42.09,52.6a72,72,0,0,0-19.85,30.89,72.29,72.29,0,0,0-8.26,37,72.29,72.29,0,0,0,8.26,37,72,72,0,0,0,19.85,30.89c18.3,16.8,42.32,29.27,67.89,28.12L176,433.35a95.9,95.9,0,0,0,42.36-24.69l147-138.39L214.51,153.93a522,522,0,0,1-52.54,84l15-19.42A434.87,434.87,0,0,1,143.3,257c-17.37,17.58-28.12,43.12-28.12,67.89a72.28,72.28,0,0,0,8.27,37,72,72,0,0,0,19.85,30.9c18.3,16.79,42.32,29.26,67.88,28.12l25.52-3.43a95.88,95.88,0,0,0,42.37-24.69L470.13,222.58,319.36,106.24c-23.64,47.24-51.29,92.44-83.5,134.33l15-19.43q-13.71,17.73-28.48,34.59a72.1,72.1,0,0,0-19.85,30.9,72.27,72.27,0,0,0-8.26,37,72.29,72.29,0,0,0,8.26,37,72.1,72.1,0,0,0,19.85,30.9c18.3,16.79,42.32,29.26,67.89,28.11s49.29-9.85,67.88-28.11L549.38,203.56,398.6,87.23,265.9,283.62a71.52,71.52,0,0,0-11.39,35.7,72.7,72.7,0,0,0,1.71,38.28l9.68,22.93a72.36,72.36,0,0,0,24.73,26.93,48,48,0,0,0,21.18,12.35,72.28,72.28,0,0,0,37,8.27c25.81-1.16,48.94-10,67.89-28.12L523.46,298.05,363,204.65q-11.13,32-24.24,63.21l9.67-22.93Q339.65,265.7,330,286.09L320.3,309a72.7,72.7,0,0,0-1.72,38.28,47.8,47.8,0,0,0,6.55,24.22A72,72,0,0,0,345,402.43l19.43,15,22.94,9.68a72.7,72.7,0,0,0,38.28,1.71,71.42,71.42,0,0,0,35.69-11.39L644.21,277.9,512.87,146.55c-20.5,42.14-44.76,82.41-73.32,119.59l15-19.43q-14.08,18.21-29.51,35.3c-16.3,18-29.25,42.76-28.12,67.89l3.43,25.52a72.32,72.32,0,0,0,17.18,32.64,48.17,48.17,0,0,0,17.22,17.22,72.28,72.28,0,0,0,32.65,17.19l25.52,3.43a95.64,95.64,0,0,0,48.45-13.11L712.76,301.46,581.42,170.12l-25.21,47.45a71.52,71.52,0,0,0-11.39,35.69,72.7,72.7,0,0,0,1.71,38.28l9.68,22.93a72.55,72.55,0,0,0,24.73,26.94,47.94,47.94,0,0,0,21.18,12.34,72.28,72.28,0,0,0,37,8.27l25.53-3.43A95.9,95.9,0,0,0,707,333.9Q765.77,284.15,826.72,237l-19.43,15q42.65-32.91,86.31-64.44L762.25,56.23q-18.91,28.6-39.83,55.82l15-19.43A840.79,840.79,0,0,1,681,158.39c-17.25,18.08-28.12,42.66-28.12,67.88a72.32,72.32,0,0,0,8.27,37A71.92,71.92,0,0,0,681,294.15c18.3,16.8,42.32,29.26,67.88,28.12l25.52-3.43a95.88,95.88,0,0,0,42.37-24.69L932.13,189,796.37,53.28,658.16,219.54a71.83,71.83,0,0,0-19.85,30.89,72.32,72.32,0,0,0-8.27,37,72.3,72.3,0,0,0,8.27,37,71.83,71.83,0,0,0,19.85,30.89c18.29,16.8,42.31,29.27,67.88,28.12L751.56,380a95.9,95.9,0,0,0,42.36-24.69L962.78,220.53,827,84.76,654.84,300.67A72,72,0,0,0,635,331.56a72.29,72.29,0,0,0-8.26,37,72.31,72.31,0,0,0,8.26,37,72,72,0,0,0,19.85,30.89c18.3,16.8,42.32,29.26,67.89,28.12l25.52-3.43a95.9,95.9,0,0,0,42.36-24.69l228-178.71,65.13-51.07L932.94,90.32,788.66,291.48a71.43,71.43,0,0,0-11.4,35.69A72.84,72.84,0,0,0,779,365.46l9.68,22.93a72.49,72.49,0,0,0,24.72,26.93,48,48,0,0,0,21.18,12.35,72.4,72.4,0,0,0,37,8.27l25.52-3.43a96,96,0,0,0,42.36-24.69l201.75-171.49,57.89-49.21L1063.31,51.36l-193.12,234-54.66,66.22a71.9,71.9,0,0,0-19.84,30.89,72.2,72.2,0,0,0-8.27,37L790.85,445A72.31,72.31,0,0,0,808,477.6a48.33,48.33,0,0,0,17.22,17.22A72.31,72.31,0,0,0,857.9,512l25.52,3.43a95.54,95.54,0,0,0,48.45-13.11l158.88-120L974.41,231.57,790.6,441.6a72,72,0,0,0-19.85,30.89,72.29,72.29,0,0,0-8.26,37L765.91,535a72.34,72.34,0,0,0,17.19,32.64,48.17,48.17,0,0,0,17.22,17.22A72.23,72.23,0,0,0,833,602.05l25.52,3.43a95.66,95.66,0,0,0,48.45-13.11l219.71-166.19,62.25-47.09L1072.56,228.31,889.09,414.45l150.77,116.33,68.49-98.67,9.68-22.93,3.43-25.52L1118,358.14a72.36,72.36,0,0,0-17.18-32.65,48.33,48.33,0,0,0-17.22-17.22,47.94,47.94,0,0,0-21.18-12.34,47.74,47.74,0,0,0-24.23-6.56,72.8,72.8,0,0,0-38.28,1.72c-16.24,4.69-31.94,11.63-47.23,18.7a195.68,195.68,0,0,0-25.52,14.38,72.57,72.57,0,0,0-26.93,24.72,72.26,72.26,0,0,0-17.18,32.65,72.7,72.7,0,0,0-1.72,38.28,71.48,71.48,0,0,0,11.39,35.69c13.22,20.5,32.9,38.54,57.38,44.12,25.12,5.72,51.34,3.73,74-9.68a1366.15,1366.15,0,0,1,164.26-83.22l-22.93,9.68,2-.83L1059,274.55a471.39,471.39,0,0,1-50.23,81.83l15-19.43q-4.77,6.14-9.75,12.1a71.92,71.92,0,0,0-19.85,30.89,72.4,72.4,0,0,0-8.27,37,72.38,72.38,0,0,0,8.27,37,72,72,0,0,0,19.85,30.9c18.3,16.79,42.32,29.26,67.88,28.12l25.52-3.43a95.88,95.88,0,0,0,42.37-24.69L1315.4,351.33,1164.62,235q-18.66,27-38.68,53.08l15-19.43q-24.14,31.25-50.31,60.8a72,72,0,0,0-19.85,30.9,72.28,72.28,0,0,0-8.27,37,72.3,72.3,0,0,0,8.27,37,72,72,0,0,0,19.85,30.9c18.29,16.79,42.31,29.26,67.88,28.11l25.52-3.43a96,96,0,0,0,42.36-24.68q10.33-9.16,21.22-17.64l-19.43,15a361.37,361.37,0,0,1,42.36-28.13L1139.2,303.1q-5.06,7.59-10.59,14.81l15-19.43a208.06,208.06,0,0,1-35.81,36.22l19.43-15A153.54,153.54,0,0,1,1095,338.86,72.6,72.6,0,0,0,1068,363.59a72.23,72.23,0,0,0-17.19,32.65l-3.43,25.52a72.38,72.38,0,0,0,8.27,37A48,48,0,0,0,1068,479.92,72.52,72.52,0,0,0,1095,504.65c23.2,12.25,48.16,16.08,74,9.68,45.8-11.35,74.94-56.35,74.72-101.94a108.07,108.07,0,0,0-15-54.56A103.24,103.24,0,0,0,1140.78,308c-38-.06-72.13,24.31-104.29,42.25L910.11,420.72l131.34,131.35c31.4-65.56,67.39-129,108.55-188.88q16.88-24.58,34.92-48.33l9.67-22.93a72.6,72.6,0,0,0,1.72-38.28,47.83,47.83,0,0,0-6.55-24.23,72.1,72.1,0,0,0-19.85-30.9l-19.43-15-22.94-9.67a72.6,72.6,0,0,0-38.28-1.72,71.52,71.52,0,0,0-35.69,11.39C980.91,232.22,910.86,284.86,843,340.07Q815.86,362.18,789.26,385L940,501.31l113.54-169,9.67-22.93a72.6,72.6,0,0,0,1.72-38.28,47.86,47.86,0,0,0-6.55-24.23,72,72,0,0,0-19.85-30.89l-19.43-15-22.94-9.68a72.8,72.8,0,0,0-38.28-1.72,71.43,71.43,0,0,0-35.69,11.4c-52.85,27.4-100.79,63.13-148.53,98.42L905,430.69a1289.13,1289.13,0,0,1,74.43-107.42l-15,19.43q10.85-14,22.09-27.69a72,72,0,0,0,19.85-30.89,72.29,72.29,0,0,0,8.26-37,72.27,72.27,0,0,0-8.26-37,72,72,0,0,0-19.85-30.9c-18.3-16.79-42.32-29.26-67.89-28.12l-25.52,3.43a95.9,95.9,0,0,0-42.36,24.69Q814.45,209.93,776.83,239l19.43-15q-59,45.53-121.24,86.71L806.37,442.07q19.71-29.51,41.47-57.56l-15,19.43c41-52.85,86.6-101.77,132.36-150.47A71.92,71.92,0,0,0,985,222.58a72.3,72.3,0,0,0,8.27-37l-3.43-25.52a72.28,72.28,0,0,0-17.19-32.65,48.17,48.17,0,0,0-17.22-17.22A72.32,72.32,0,0,0,922.83,93l-25.52-3.43a95.5,95.5,0,0,0-48.46,13.11L631.32,260.52,601.58,282.1c-8.16,5.91-16.07,12.72-25.39,16.73l22.94-9.68a36.35,36.35,0,0,1-8.49,2.32L616.16,288a23.43,23.43,0,0,1-4.51,0l25.52,3.43a19,19,0,0,1-3.07-.79L657,300.36a15.85,15.85,0,0,1-2.72-1.54l19.43,15a15.93,15.93,0,0,1-2.27-2.37l15,19.43a21.44,21.44,0,0,1-1.74-3.28l9.67,22.93a31.59,31.59,0,0,1-1.13-4.27,95.9,95.9,0,0,0-24.69-42.36,72,72,0,0,0-30.9-19.85,72.28,72.28,0,0,0-37-8.27,95.5,95.5,0,0,0-48.46,13.11L432.22,357,548.55,507.79c53.15-52.88,108.65-103.4,166.62-151Q739.31,337,764,317.92l-19.43,15q29-22.37,58.66-43.73L671.91,157.85q-23.2,33.43-48,65.66l15-19.43q-21.74,28.11-44.75,55.18a96,96,0,0,0-24.69,93.41l9.93,27.07a95.9,95.9,0,0,0,24.69,42.36A72,72,0,0,0,635,442a72.28,72.28,0,0,0,37,8.27,95.7,95.7,0,0,0,48.46-13.11l286-201.44,80.91-57L971,27.91,801.91,212.67l-48.08,52.55c-16.33,17.85-29.23,42.89-28.11,67.88l3.43,25.53a72.23,72.23,0,0,0,17.18,32.64,48.17,48.17,0,0,0,17.22,17.22,72.23,72.23,0,0,0,32.65,17.19l25.52,3.42A95.53,95.53,0,0,0,870.17,416L888,402.62,771.7,251.85,653.88,366l-15,19.43-9.68,22.93-3.43,25.52a72.3,72.3,0,0,0,8.27,37,48,48,0,0,0,12.34,21.18,48.33,48.33,0,0,0,17.22,17.22,47.94,47.94,0,0,0,21.18,12.34,72.22,72.22,0,0,0,37,8.27,231.09,231.09,0,0,0,30-4,48.39,48.39,0,0,0,5.91-1.65,237.76,237.76,0,0,0,27.3-11.59,48.35,48.35,0,0,0,6.39-3.88c9.87-7,20.43-14.28,28.75-23.29a215.47,215.47,0,0,0,23.74-31l9.68-22.94L856.92,406l-3.43-25.52a72.33,72.33,0,0,0-17.19-32.65,48.17,48.17,0,0,0-17.22-17.22A48,48,0,0,0,797.9,318.3a47.7,47.7,0,0,0-24.22-6.55,72.7,72.7,0,0,0-38.28,1.71q-4,.59-8,1.13l25.52-3.43c-11.3,1.48-22.63,2.44-34,1l25.52,3.43a70.28,70.28,0,0,1-15.28-4l22.93,9.68a57.21,57.21,0,0,1-11.21-6.43l19.43,15a64.86,64.86,0,0,1-11.38-11.5l15,19.43a74.94,74.94,0,0,1-8.68-15.35l9.67,22.93A82.54,82.54,0,0,1,760,326.73l3.43,25.52c-.26-2.17-.48-4.34-.59-6.52-1-19.25-3.34-34.47-13.21-51.33-8.92-15.25-21.25-25.44-35.43-35.16-1-.67-2-1.33-3-1.94-1.34-.77-2.72-1.42-4.12-2.08a248.38,248.38,0,0,0-25-10.52,53.45,53.45,0,0,0-6.44-1.79c-11.72-2.51-26.26-5-39-4.09a238.88,238.88,0,0,0-40.21,5.92c-21.26,5.29-41,16.08-62.83,19.25l25.52-3.43a58.41,58.41,0,0,1-14.35.24l25.52,3.43a42,42,0,0,1-10.33-2.8l22.94,9.68a41.9,41.9,0,0,1-7.72-4.56l19.43,15a51.27,51.27,0,0,1-6.29-5.95l15,116.34,13.44-31.8a71.52,71.52,0,0,0,11.39-35.7,72.7,72.7,0,0,0-1.71-38.28l-9.68-22.93A72.52,72.52,0,0,0,592,236.31,48,48,0,0,0,570.8,224a72.38,72.38,0,0,0-37-8.27l-25.52,3.43a95.88,95.88,0,0,0-42.37,24.69L264,405.28,399.74,541,516.35,406.12A96.07,96.07,0,0,0,541,363.75a72.7,72.7,0,0,0,1.71-38.28,71.52,71.52,0,0,0-11.39-35.69,96.65,96.65,0,0,0-34.44-34.44c-11.64-7.05-24.75-12.13-37.43-16.8-12.89-4.75-27.48-5.7-40.78-7.32a83.34,83.34,0,0,0-16.71-.53c-14.1,1.11-28.7,2.67-42.38,6.63L468,378.34c16.6-34.15,37.54-65.78,60.68-95.82l-15,19.42c15-19.44,30.88-38.23,46.77-57a72,72,0,0,0,19.85-30.9,72.38,72.38,0,0,0,8.27-37l-3.43-25.53A72.25,72.25,0,0,0,568,118.91a48,48,0,0,0-17.22-17.22A72.25,72.25,0,0,0,518.12,84.5L492.6,81.08a95.59,95.59,0,0,0-48.46,13.1A1823.35,1823.35,0,0,0,230.93,206.6L362.28,337.94q6.87-9.58,14.06-18.93l-15,19.42a584.36,584.36,0,0,1,59.19-65.81,71.92,71.92,0,0,0,19.85-30.89,72.4,72.4,0,0,0,8.27-37l-3.43-25.52A72.33,72.33,0,0,0,428,146.57a48.17,48.17,0,0,0-17.22-17.22,72.32,72.32,0,0,0-32.64-17.18c-25.08-5.71-51.43-3.79-74,9.68-61.27,36.6-118.9,78.62-174.47,123.35L265.48,381a368.9,368.9,0,0,1,42.95-39.36l-19.43,15q7.89-6,16.1-11.63L188.77,194.2l-24.36,23.56a72,72,0,0,0-19.85,30.9,72.26,72.26,0,0,0-8.27,37,72.3,72.3,0,0,0,8.27,37,71.92,71.92,0,0,0,19.85,30.89c18.3,16.8,42.32,29.27,67.88,28.12s49.1-9.95,67.89-28.12L324.53,330a72,72,0,0,0,19.85-30.9,72.3,72.3,0,0,0,8.27-37l-3.43-25.52A72.32,72.32,0,0,0,332,203.92a48.17,48.17,0,0,0-17.22-17.22,72.28,72.28,0,0,0-32.65-17.19c-24.22-5.51-52.69-4.77-74,9.68-28.26,19.18-55.11,41.05-78.49,66-17.18,18.34-28.11,42.43-28.11,67.88a72.18,72.18,0,0,0,8.27,37A71.93,71.93,0,0,0,129.71,381C148,397.75,172,410.22,197.6,409.08l25.52-3.43A95.9,95.9,0,0,0,265.48,381q11.26-9.07,22.71-17.93l-19.43,15a1347.36,1347.36,0,0,1,132.33-90.41L284.75,136.86C251.69,168.28,223,204,196.49,241L186.81,264a72.7,72.7,0,0,0-1.71,38.28,47.73,47.73,0,0,0,6.55,24.23,71.92,71.92,0,0,0,19.85,30.89l19.43,15,22.93,9.68a72.8,72.8,0,0,0,38.28,1.72,71.43,71.43,0,0,0,35.7-11.4A1821,1821,0,0,1,541.05,260L424.71,109.19c-45.48,53.69-91.51,108.59-122.46,172.24l-9.68,22.94-3.43,25.52,3.43,25.52a72.33,72.33,0,0,0,17.19,32.65A48.17,48.17,0,0,0,327,405.28a47.93,47.93,0,0,0,21.18,12.34,47.7,47.7,0,0,0,24.22,6.55,72.7,72.7,0,0,0,38.28-1.71,95.21,95.21,0,0,1,11.91-2.65L397,423.23a83.17,83.17,0,0,1,21.67,0l-25.52-3.43a83.84,83.84,0,0,1,19,5.37l-22.93-9.68A96.12,96.12,0,0,1,400,421.13L380.58,270.35,264,405.28a71.83,71.83,0,0,0-19.85,30.89,72.3,72.3,0,0,0-8.27,37,72.26,72.26,0,0,0,8.27,37A71.86,71.86,0,0,0,264,541c18.29,16.79,42.31,29.26,67.88,28.12l25.52-3.43A95.9,95.9,0,0,0,399.74,541l202-161.46L450.92,263.24,437.49,295,427.81,318a72.7,72.7,0,0,0-1.71,38.28,47.73,47.73,0,0,0,6.55,24.23,72,72,0,0,0,19.85,30.9,54.37,54.37,0,0,0,6.29,5.94c7.66,6.23,15.44,13.34,24.19,18.13,10.77,5.89,22.83,11.58,35.14,13.77,12.54,2.23,25.81,4.77,38.68,3.62s26.19-2.68,38.78-5.95c20.89-5.43,40.38-15.83,61.88-19l-25.52,3.43a61.56,61.56,0,0,1,15.93-.2l-25.52-3.43a45.46,45.46,0,0,1,10.74,3L610.16,421a45.34,45.34,0,0,1,8.1,4.75l-47.54-82.9c.83,29.95,7.63,54.4,20.75,81,9.92,20.11,25.36,35.81,42.75,49.25,4.77,3.68,9.6,7.88,14.9,11,5.47,3.18,11.79,5.4,17.49,7.81,6.93,2.92,13.61,6.14,20.94,7.82,10.84,2.48,22.27,3.64,33.29,4.72,21.72,2.11,44.35-2.77,65.6-5.84L678,357.58c-1.41,2.24-2.88,4.4-4.46,6.53l15-19.43a72.66,72.66,0,0,1-11.51,11.81l19.43-15a54.88,54.88,0,0,1-11.37,6.76l22.93-9.68A43.1,43.1,0,0,1,699.2,341l25.52-3.43a29.38,29.38,0,0,1-3,.3L789.64,501.8,907.46,387.61a71.92,71.92,0,0,0,19.85-30.89,72.32,72.32,0,0,0,8.27-37l-3.43-25.52A72.36,72.36,0,0,0,915,261.56a48.33,48.33,0,0,0-17.22-17.22,72.41,72.41,0,0,0-32.65-17.18l-25.52-3.43a95.5,95.5,0,0,0-48.46,13.11l-17.86,13.37L889.6,401l169.05-184.77,48.07-52.55c16.34-17.85,29.24-42.88,28.12-67.88l-3.43-25.52a72.26,72.26,0,0,0-17.18-32.65A48.33,48.33,0,0,0,1097,20.4a72.31,72.31,0,0,0-32.65-17.18c-24-5.46-53.08-5-74,9.68l-286,201.44-80.91,57,141,57.38-9.93-27.07L729.9,395c38.19-44.9,74.18-91.85,107.79-140.27l9.68-22.93a72.7,72.7,0,0,0,1.71-38.28,47.73,47.73,0,0,0-6.55-24.23,72,72,0,0,0-19.85-30.9l-19.43-15-22.93-9.67A72.7,72.7,0,0,0,742,112a71.45,71.45,0,0,0-35.69,11.39A2402.52,2402.52,0,0,0,471.44,315.53q-29.81,27.75-58.65,56.5a71.92,71.92,0,0,0-19.85,30.89,72.3,72.3,0,0,0-8.27,37l3.43,25.52a72.36,72.36,0,0,0,17.18,32.65A48.33,48.33,0,0,0,422.5,515.3a72.41,72.41,0,0,0,32.65,17.18c25.4,5.79,51,3.39,74-9.68q60-34,120-68.12l-141-57.37c3.44,17.25,15.42,38.6,28.28,50.8,13.46,12.78,30.26,24.11,48.66,28.32,20.44,4.67,37.93,4.34,58.4-.09,11.65-2.53,22.75-8,33.27-13.42,10.09-5.21,19.09-13.11,28.25-19.76l33.47-24.28,132-95.77,75.3-54.63L829.42,117.71c-23.83,25.37-47.66,50.75-70.8,76.77C730,226.67,703,260.06,676.88,294.34q-18.93,24.84-36.3,50.82l-9.68,22.93a72.7,72.7,0,0,0-1.71,38.28,47.83,47.83,0,0,0,6.55,24.23,72,72,0,0,0,19.85,30.9l19.43,15L698,486.19a72.7,72.7,0,0,0,38.28,1.71,71.52,71.52,0,0,0,35.7-11.39c74.7-49.34,146.22-103.75,214.62-161.5L850.78,179.25c-40.36,49.12-77.94,100.53-111.52,154.53l-9.68,22.93A72.8,72.8,0,0,0,727.86,395a47.84,47.84,0,0,0,6.56,24.23,72,72,0,0,0,19.85,30.9l19.43,15,22.93,9.67a72.6,72.6,0,0,0,38.28,1.72,71.48,71.48,0,0,0,35.69-11.39c47.75-35.29,95.68-71,148.54-98.43L887.79,235.36,774.25,404.41a71.48,71.48,0,0,0-11.39,35.69,72.6,72.6,0,0,0,1.72,38.28l9.67,22.93A72.63,72.63,0,0,0,799,528.25a47.94,47.94,0,0,0,21.18,12.34,72.3,72.3,0,0,0,37,8.27l25.52-3.43A95.9,95.9,0,0,0,925,520.74q52.1-44.62,106.36-86.63l-19.43,15q67.59-52.19,138.52-99.82L1019.13,218A1334.37,1334.37,0,0,0,904.24,398.51q-14.9,28-28.57,56.65L866,478.09a72.8,72.8,0,0,0-1.72,38.28,47.84,47.84,0,0,0,6.56,24.23,72,72,0,0,0,19.85,30.9l19.43,15L933,596.18a72.6,72.6,0,0,0,38.28,1.72A71.48,71.48,0,0,0,1007,586.51l89.28-49.78,44.13-24.6c14.44-8.05,28.8-17.63,44-24.2l-22.93,9.68a15.35,15.35,0,0,1,3.26-.92l-25.52,3.43a8.19,8.19,0,0,1,3.12.07l-25.52-3.43,1.46.53-22.93-9.68,1.38.92-19.43-15,.62.64-15-19.43a7,7,0,0,1,1,1.7l-9.67-22.93a17.94,17.94,0,0,1,.8,3.23l-3.43-25.52a22,22,0,0,1-.1,4.73l3.43-25.52a17,17,0,0,1-.94,3.12l9.68-22.93a6.42,6.42,0,0,1-1,1.56l15-19.43-.62.56,19.43-15-.7.38,22.93-9.68-.77.2,74,175.46c22.79-9.85,43.13-25.95,61.48-42.32,20.06-17.89,36.82-40.09,51.64-62.32l9.68-22.94a72.7,72.7,0,0,0,1.71-38.28,47.8,47.8,0,0,0-6.55-24.22,72,72,0,0,0-19.85-30.9l-19.43-15L1247.62,259a72.7,72.7,0,0,0-38.28-1.71,71.42,71.42,0,0,0-35.7,11.39c-29.81,16.83-57.44,38.11-83,60.78L1226.4,465.21a1394.68,1394.68,0,0,0,104-133.31,71.42,71.42,0,0,0,11.39-35.69,72.74,72.74,0,0,0-1.71-38.29L1330.41,235a72.57,72.57,0,0,0-24.72-26.93,47.94,47.94,0,0,0-21.19-12.35,72.27,72.27,0,0,0-37-8.26L1222,190.87a96,96,0,0,0-42.36,24.69L1014,349.05l135.77,135.76c29.28-35.06,55-72.26,75-113.35l9.68-22.93,3.43-25.53-3.43-25.52a72.25,72.25,0,0,0-17.19-32.64,48,48,0,0,0-17.22-17.22,47.91,47.91,0,0,0-21.18-12.35,47.8,47.8,0,0,0-24.22-6.55,72.7,72.7,0,0,0-38.28,1.71c-65.12,27.4-128.36,57.7-189.18,93.74L1024.1,490a197.68,197.68,0,0,1,31.09-16.83l-22.93,9.68a178.92,178.92,0,0,1,18.72-6.57l-108.41-141-68.49,98.66a71.32,71.32,0,0,0-11.39,35.7,72.7,72.7,0,0,0,1.71,38.28l9.68,22.93a72.52,72.52,0,0,0,24.72,26.94A48,48,0,0,0,920,570.06a72.3,72.3,0,0,0,37,8.27c25.36-1.14,49.69-9.66,67.88-28.12l183.48-186.13a72,72,0,0,0,19.84-30.9,72.2,72.2,0,0,0,8.27-37L1233,270.67A72.23,72.23,0,0,0,1215.83,238a48.17,48.17,0,0,0-17.22-17.22A72.23,72.23,0,0,0,1166,203.62l-25.52-3.43A95.64,95.64,0,0,0,1092,213.3L872.28,379.5,810,426.58,926.37,577.36l183.81-210a72,72,0,0,0,19.85-30.9,72.27,72.27,0,0,0,8.26-37l-3.43-25.52a72.21,72.21,0,0,0-17.18-32.65,48.33,48.33,0,0,0-17.22-17.22,72.21,72.21,0,0,0-32.65-17.18l-25.52-3.43a95.56,95.56,0,0,0-48.45,13.1L835,336.53,951.3,487.31l193.12-234,54.65-66.22a71.83,71.83,0,0,0,19.85-30.89,72.3,72.3,0,0,0,8.27-37,72.3,72.3,0,0,0-8.27-37,71.83,71.83,0,0,0-19.85-30.89c-18.29-16.8-42.31-29.26-67.88-28.12l-25.52,3.43a95.9,95.9,0,0,0-42.36,24.69L861.56,222.84l-57.89,49.21L954.44,388.39l144.28-201.17a71.37,71.37,0,0,0,11.4-35.69,72.8,72.8,0,0,0-1.72-38.28l-9.68-22.93A72.52,72.52,0,0,0,1074,63.38,48,48,0,0,0,1052.82,51a72.3,72.3,0,0,0-37-8.27L990.31,46.2A95.9,95.9,0,0,0,948,70.89L720,249.6l-65.14,51.07L790.61,436.43l172.17-215.9a72,72,0,0,0,19.85-30.9,72.4,72.4,0,0,0,8.27-37,72.38,72.38,0,0,0-8.27-37,72,72,0,0,0-19.85-30.9C944.48,68,920.46,55.5,894.9,56.64l-25.52,3.43A95.88,95.88,0,0,0,827,84.76L658.16,219.54,793.92,355.3,932.13,189A71.92,71.92,0,0,0,952,158.15a72.32,72.32,0,0,0,8.27-37,72.3,72.3,0,0,0-8.27-37,71.92,71.92,0,0,0-19.85-30.89c-18.3-16.8-42.31-29.27-67.88-28.12l-25.52,3.43a95.79,95.79,0,0,0-42.36,24.69L681,158.39,816.79,294.15c41.27-43.29,78.28-91.15,111.25-141l9.68-22.93a72.7,72.7,0,0,0,1.71-38.28,47.73,47.73,0,0,0-6.55-24.23A71.92,71.92,0,0,0,913,36.8l-19.43-15-22.93-9.68a72.8,72.8,0,0,0-38.28-1.72,71.43,71.43,0,0,0-35.7,11.4Q680.64,105.52,571.22,198.14L722,314.47,747.2,267l9.68-22.93a72.7,72.7,0,0,0,1.71-38.28A47.76,47.76,0,0,0,752,181.58a71.92,71.92,0,0,0-19.85-30.89l-19.43-15L689.83,126a72.7,72.7,0,0,0-38.28-1.71,71.26,71.26,0,0,0-35.69,11.39L444.49,267,560.82,417.78A747.77,747.77,0,0,0,678.65,243.46l9.68-22.94a72.8,72.8,0,0,0,1.72-38.28A47.81,47.81,0,0,0,683.49,158a72,72,0,0,0-19.85-30.9l-19.43-15-22.93-9.68A72.7,72.7,0,0,0,583,100.72a71.39,71.39,0,0,0-35.69,11.39L364.41,251.65,495.76,383a1270.29,1270.29,0,0,0,52.39-127.31l3.43-25.52a72.32,72.32,0,0,0-8.27-37A47.94,47.94,0,0,0,531,172,72.52,72.52,0,0,0,504,147.28L481.1,137.6l-25.52-3.43a72.3,72.3,0,0,0-37,8.27,71.92,71.92,0,0,0-30.89,19.85L280.91,264.19,431.69,380.53l132.7-196.4a71.45,71.45,0,0,0,11.39-35.69,72.7,72.7,0,0,0-1.71-38.28l-9.68-22.93a72.55,72.55,0,0,0-24.73-26.94A47.94,47.94,0,0,0,518.48,48a72.28,72.28,0,0,0-37-8.27c-25.6,1.15-49.3,9.85-67.89,28.12L222.39,255.73,358.16,391.5a890.24,890.24,0,0,0,127-188.35,71.52,71.52,0,0,0,11.39-35.69,72.74,72.74,0,0,0-1.72-38.29l-9.67-22.93a72.68,72.68,0,0,0-24.73-26.93A48,48,0,0,0,439.24,67a72.29,72.29,0,0,0-37-8.26l-25.52,3.42a96.09,96.09,0,0,0-42.36,24.69L143.3,257,279.07,392.74c22.53-22.8,42.46-48.34,60.94-74.47a530.9,530.9,0,0,0,40.29-67.43,71.52,71.52,0,0,0,11.39-35.69A72.73,72.73,0,0,0,390,176.86l-9.68-22.93A72.52,72.52,0,0,0,355.57,127a48,48,0,0,0-21.18-12.35,72.38,72.38,0,0,0-37-8.27l-25.52,3.43a96,96,0,0,0-42.37,24.69l-147,138.4L218.33,408.66A1859.57,1859.57,0,0,1,371.27,233.85q22.5-22.6,45.86-44.34A72,72,0,0,0,437,158.61a72.38,72.38,0,0,0,8.27-37l-3.43-25.52a72.23,72.23,0,0,0-17.19-32.65,48.17,48.17,0,0,0-17.22-17.22,72.23,72.23,0,0,0-32.64-17.18c-25.17-5.74-51.29-3.69-74,9.67C224.71,83.54,153,134.42,83.24,188.53q-27.91,21.66-55.06,44.29A71.83,71.83,0,0,0,8.33,263.71a72.2,72.2,0,0,0-8.27,37,72.2,72.2,0,0,0,8.27,37,71.83,71.83,0,0,0,19.85,30.89c18.29,16.8,42.31,29.26,67.88,28.12l25.52-3.43a95.9,95.9,0,0,0,42.36-24.69Z"/></g></svg>