<svg id="Vrstva_1" data-name="Vrstva 1" xmlns="http://www.w3.org/2000/svg" xmlns:xlink="http://www.w3.org/1999/xlink" viewBox="0 0 63.45 64.51"><defs><style>.cls-1{fill:none;}.cls-2{opacity:0.59;}.cls-3{clip-path:url(#clip-path);}.cls-4{opacity:0.08;}.cls-5{fill:#fff;}.cls-6{fill:#aececd;}.cls-7{fill:#3a9a63;}.cls-8{fill:#246c42;}</style><clipPath id="clip-path"><rect class="cls-1" x="207.12" y="-3299.49" width="1920" height="2802"/></clipPath></defs><g class="cls-2"><g class="cls-3"><g class="cls-4"><path class="cls-5" d="M25.81-4169.64v-659.67H7351.12V662H25.81V99.68C33,91.77,39.43,83.12,48.69,77.4c6.92-4.26,15.12-9.59,22.1-3.06C95.25,97.2,121.35,84.28,146.44,78c12.61-3.19,23.87-6,36.09-.3,7.59,3.52,15.76,4.35,23.27.24,13-7.15,24-7.38,36.37,3.24s25.68,4.37,35.93-5.47C294.21,60.21,312.17,47,328.69,32c18.93-17.14,25.67-15.33,37.16,7.35,10,19.75,22.35,22.76,40.66,9.5,8.68-6.3,15.57-14.64,23.39-21.93,7.23-6.74,14.83-14.95,24.85-14.48,22.89,1.07,41.59-7.4,58.94-20.91,9.72-7.57,17.54-5.63,24.52,4.54,8.63,12.58,20.22,15.67,35.1,10.81,22.15-7.23,35.19,3.38,43.53,23.6,10.38,25.21,18.5,28.35,42.86,15.37,17.76-9.47,33.36-18.8,54.1-4.86,11.67,7.84,23.73-1.84,33.49-10.11,9.54-8.07,19.7-15.32,29.54-23a47.83,47.83,0,0,1,13.66-6.84C791.74.82,793,.63,794.25.4c1.26.09,2.53.22,3.79.3,1.19.37,2.39.79,3.6,1.14,2.33.85,4.63,1.84,6.93,2.79,13.57,3.71,27.59,5.22,39.95,13.6,14,9.48,27.27,2.76,39.23-6,22.17-16.31,43.47-33.75,64.82-51.11,6.21-5,12.55-10.15,20.26-12.59,10.48-3.3,16-.26,12.11,11.59-2.73,8.34-8.76,16.24-5.7,25.42,5.57,16.76,18.83,16.9,32.7,13.06,13-3.59,19-1.81,20.31,14,2.19,27.11,17.12,32.37,39.13,15.55,7-5.37,12.47-12.71,20.64-16.7a13.52,13.52,0,0,1,11,.68c4.15,4.21,2.5,9.89,3.8,14.83,5.47,20.89,21.69,27.47,39.92,16,11.16-7,18.86-18.26,29.86-25.51,1.77-1.3,3.68-2.47,5.55-3.6.86-.59,1.8-1.13,2.65-1.72,1.59-1.22,3.27-2.4,4.88-3.6.72-.64,1.52-1.24,2.25-1.88,1.36-1.31,2.81-2.56,4.23-3.81.66-.65,1.38-1.26,2-1.9,1.26-1.31,2.62-2.55,4-3.78.63-.63,1.31-1.23,1.93-1.87,1.2-1.31,2.5-2.52,3.8-3.72,0,0,1.93-1.81,1.89-1.86,1.17-1.31,2.45-2.52,3.74-3.72,0,0,1.91-1.82,1.87-1.87,1.19-1.33,2.46-2.56,3.76-3.79.62-.66,1.28-1.27,1.9-1.93,1.23-1.38,2.53-2.67,3.84-4,.64-.7,1.31-1.35,1.95-2.05,1.28-1.48,2.63-2.85,4-4.25.67-.77,1.37-1.46,2-2.22,1.34-1.61,2.76-3.11,4.19-4.64.73-.83,1.48-1.57,2.2-2.38,7.33-7.09,13.78-15,22.12-21.07a16.26,16.26,0,0,1,6.82-2c17.39,7.61,4.11,15.56-.73,21.48-12.21,15-28.1,26.66-39.33,42.61a64.5,64.5,0,0,1-4,5.76,68.69,68.69,0,0,0-9.18,14.63c-.85,2.26-1.8,4.44-2.68,6.67-3.93,10.26-2.08,20.54,5.28,27.33,12,11.12,20,24.52,28.41,38.2,9.53,15.44,31.46,15.51,49.48.84,16.57-13.5,30.53-29.88,45.92-44.7,35.36-34.05,81.52-29,107.47,11.54,6.73,10.52,15,20,23.32,29.16,15.37,16.84,40.2,10.85,64.28-14.3,15.63-16.47,33-22.18,55.47-13.2,19.47,7.78,38.93-.47,57.38-6.56,59.8-19.78,121-19.19,182.65-14.77,17.27,6.56,15.16,17.08,5.32,28.53-11,12.73-23.47,24-35.2,36-7.4,7.58-15.61,14.47-21.83,23.08-8.65,12-15.89,25.68-2.87,38,11.92,11.33,22.77.94,32.75-6.29,6.43-4.67,12.81-9.41,19-14.35,12-8.05,23.66-16.58,33.27-27.57,14.55-14.51,32.24-25.36,46.57-40.13a48.93,48.93,0,0,1,5.88-4,87.06,87.06,0,0,0,8.64-6.18c9.94-9,19-19.22,31.71-24.7a40.25,40.25,0,0,1,7.5-2.34c13.35-1.87,27.06-.72,40.06-5.31q73.18-4.08,146.19-10.48c6.3-.54,12.93-.59,18.32,2.47,17.76,10.1,34.42,4.39,51.11-2.49,19.11-7.87,38.73-13.16,59.62-12.47,12.2.39,21.58,4,28.32,16,12.66,22.52,20.41,24,42.37,11.76,7.76-4.34,14.85-9.83,23-13.59,29.8-12.29,22.79,15.26,30,27.55,9.23,17.34,23,17.48,38.8,10.41,15.6-7,29.44-16.83,43.53-26.31,5.85-3.92,12.54-8.61,19.4-2.49,5.69,5.08,3.13,11.78.58,17.45-18.51,41.12-12.84,76.32,24.55,104.33,11,8.22,13.33,20.51,14.28,33.37,1.17,15.77,7,28.89,25.28,28.42,16.93-.43,20.85,8.59,22.8,22.86,4.69,34.25,9.92,36.44,40.78,24.77,20.81-7.88,42.59-15.5,59.31,9.35,4.84,7.19,13.76,7.31,22.16,5.47,24.33-5.31,47.76-3.62,69.86,9,14.93,8.52,26,2.25,33.83-10.69,8.75-14.37,18-18.79,31.67-5.66,6.49,6.21,15.74,8.33,24.11,11.38,23.89,8.72,38.48,3.94,41.27-21.2,4.74-42.67,42.35-54.53,67.26-76.46,14.08-12.39,26-22.21,30.21-40.38,2-8.71,3.88-17.46,6-26.13,8-32.17,31.88-41.68,58-21.4,12.09,9.38,22.54,19.74,38.6,22.06,7.69,1.11,10.94,8.51,14.41,14.84,4.39,8,9.25,16.16,20,14.95,12.3-1.38,20.37-10.39,21.26-21.18,3-36.43,30.53-41.22,57.53-47.52,12,12.74,6.51,28.64,7.61,43.26,1.26,16.78-1.74,33.75,2.15,50.36,18,25.18,29,24.46,45.4-3.12,6.29-20-2-41.33,6.1-61a9.82,9.82,0,0,1,6.25-4.77c18,7.18,34.31,22.2,56.15,10.46,3.45-1.85,8.46,1.7,12.24,4.11,23,14.71,45.69,24,70,1.3,8.37-7.82,12.31.42,13.86,8,2.27,11.06-3.45,20.76-5.95,31-3.12,12.79.2,23.57,12.94,28.52,14,5.43,21.17-3.93,27.06-14.85,9.5-17.61,5.23-38.81,14.83-56.4,7.82-10.78-2.8-34.89,14.82-34,12.83.62,7.34,22.42,8.45,35,.83,9.41,4.63,16.75,10.87,23.29,14.61,18.38,31,18.36,49,5.18,8.63-6.3,17.75-11.95,26.3-18.38,16.45-12.39,31.95-18.81,49.23-.08,10.56,11.44,26.41,9.67,40.56,9,57-2.67,113.63-10.2,170.1-17.59,152.29-20,305-30.16,458.53-25.12,10.49.76,21.06.31,31.57,1.26,8.12.74,18.51,2.57,20.13,10.14,6.11,28.62,32.5,42.43,45.42,65.73,17.54,17.47,44.08,24.1,54.66,51,4.77,12.15,24.34,6.62,31.31-7.71,5.82-12,4.45-26.17,11.54-37.8a12.49,12.49,0,0,1,10.78-2.73c11.54,4.89,15.86,16.15,22.14,25.57,16.24,24.37,27.46,25,46.67,2.2,4-4.74,7.94-9.51,12.07-14.08,5-5.11,6.11-12,8.23-18.41a13.42,13.42,0,0,1,4.54-5.29,15.68,15.68,0,0,1,7.06-.87,18.9,18.9,0,0,1,6.53,3.22,26.93,26.93,0,0,0,13.66,6c26.51-4.46,49.79-14.71,64.49-38.25,8.77-14,16.85-13.4,30.66-5.93,20.33,11,40.74,18.95,51.76,42.71,7.36,15.88,24.65,15.56,34.27-.48,13.53-22.55,31-37.23,55.2-47.52,19.61-8.36,18.25-28.86,16.35-47.06-5.52-53-2.24-59,50.78-69.18,22.82-4.39,30.87-15.17,26.89-36.85-2.33-12.67-2.85-25.1,5.83-35.78,12-14.75,12.58-30.89,6.75-48-5.08-14.9-6.11-29.27,1.84-44,8.86-16.38,4.87-33.94-1.37-49.51-18.33-45.7,1.52-84.58,19.63-124,1.83-4,6.52-7.7,6-11.75-6.34-46.64,24.76-83.47,32.64-126.31,1.31-7.15,1.52-14.39-.32-21.3-19.56-73.2-3.49-147.6-7.65-221.31-.45-8-.13-17,4.87-23.3,18.4-23.08,16-50,16.32-76.76,1.7-127.74-1.43-255.67-7.61-383-7.42-152.92,9.91-303,26.48-453.71,3.51-32,3-64.17,7.09-96.13,2.09-16.29-3.76-30.59-22-34.92-16.79-4-20.38-16.3-19.79-30.49,2.53-59.93-5.87-119.49-5.67-179.31a125.69,125.69,0,0,0-12.76-56.73c-16.72-34.59-9.48-72.2-7.25-108.25,3.35-54.3,6-108.65,9.13-163a211,211,0,0,1,7.09-44.85c6.16-18.74,10.76-37.7,9.82-57.73-.56-11.79,1.84-22.77,9-32.89,25.72-36.33,23.37-75.3,8.7-114.65-4-10.66-2.32-19.66-.92-30.53,4.66-36.3,19.51-69.83,8.72-110.26-12-44.81-7.88-94.09-.36-141,3.26-20.34,4.92-37-17.56-47-12.76-5.65-13.21-18.36-12.89-30.07,1.06-38.33,1-76.7,2.23-115,1.15-37.06-2.19-74.73-2.5-112.17-.11-14.39,1.13-28.55,5.15-42.4,5.73-19.69,11-21.4,27.47-8.31,8.41,6.69,15.47,14.83,22.52,22.93,4.75,5.46,9.81,11.46,18.05,7.88,7.47-3.26,8.79-10.7,9.47-18,.59-6.29-.78-12.47-1.15-18.7-2.55-43.17-4.52-86.61-8.47-129.39-3.13-34-11.93-65.15,6.14-97.92,6.37-11.56-.48-28-4.78-41.78-9.35-30-13.32-61-15.3-92.3-1.32-20.91,3-39.85,13.92-58.75,18.3-31.74,14.25-67.66,11.18-102.25-1.81-20.48-4.32-40.84-3.72-61.41.61-20.93-1.11-41-14.5-58.55-5-6.57-8.84-15.72-5.81-22.69,9.73-22.35,2.39-47.25,12.36-69.52,5.5-12.29,6.45-25.85,1.18-39.2-3.38-8.57-4.54-18.12.06-26.11,11.55-20.07,2.7-32.39-12.6-45.66-13.47-11.69-25.36-25.16-41.55-33.34s-31.74-12.85-51-6.46c-25.88,8.61-46.57-.5-62.22-22.86-7.36-10.5-14.91-19.72-29-21.33-10.22-1.16-17.27-8.43-24.53-15.3-28.82-27.28-51.86-26.08-81.52.31-22.86,20.35-49.24,34.75-81.92,29.71-7.55-1.17-13.73,2.58-20.54,4.6-16.75,5-28.59-6.66-22.54-23.05,7.89-21.39-1.87-41.43-4.23-61.5-1.93-16.52-39.34-18-49-.68-17.59,31.45-42.14,44.57-77.33,39.61-8-1.13-13.63,2.94-16.92,10.33-1.45,3.26-2.53,8.16-5.46,9-33.94,9.41-21.34,34.45-17.51,54.9,4.86,26-10.94,45.93-17.25,68.49-2.93,10.48-16,13.81-27.06,14.23-14.29.55-28.42,3.62-42.75,2.83-10.26-.57-17.68,3.5-20.85,13.13-7.59,23.1-25.76,27.88-46.73,27.42-19.55-.43-34.64,3.78-41.06,25.69-4.86,16.57-18.39,20.32-34.56,15.78-9.69-2.72-20.28-6.1-25.27-14.2-15.15-24.57-35-33.09-63.09-25.59-10.24,2.74-18.1-5.09-25-12.71-11.78-13-26.33-17.88-43.52-12.5-5.15,1.62-12.25,5.21-15.34,1.72-25.55-28.81-60.5-14.5-90.14-17.2-36.5-3.32-73.44-10.5-111.64-2.72-23.28,4.73-49.6.43-74.5-.86-16.29-.85-32.18-.44-47.33,6.19-12.17,5.33-23.64,4-36.28-.05-35.89-11.61-51.19-6.25-74.88,23.45-10.45,13.09-23.77,19.39-40.13,14.37-15.61-4.79-17-19.23-18.78-32.59-1.06-8,.95-16.07.73-24.07-.28-10,7.74-23.95-5.26-28.91a64.43,64.43,0,0,0-49.71,1.56c-13.11,6-10.45,18.54-9.4,30.51,3.37,38.4-4.69,76.35-5.93,114.63-.55,17-11.18,28.41-30.68,24.89-14.46-2.62-28.24,2.79-42.58,2.49-19.87-.42-29-8.69-29.78-29.06-1.38-34.8,7.78-69,4.08-104.06-1.55-14.59-5.73-26.17-16.17-35.11-13-11.11-26.13-4-35.8,9.08-28.55,38.72-11,81-12.83,121.68-1.47,32.58-9.34,40.47-40.26,36.86-22.62-2.63-29.77-12.33-30-35.65-.2-22.29,1.59-44.33,3.6-66.46,1.39-15.26-.8-29.55-20.67-30.82-18.28-1.18-36.66-2-43.54,21-3.39,11.33-2.77,23-3.55,34.56-1.81,27-10.33,34-37.81,31.73-3.57-.29.83.31-2.65-.41-17.38-3.61-36.82,3.29-52.4-7.27-16.39-11.11-8.07-31.57-13.67-47.25-6-16.79-11.65-29.37-32.87-27.22-20.84,2.11-31.69,10.06-32.81,33.21-1.54,31.92-24.82,53-56.84,51.09-40.16-2.34-80.23,3.08-120.26-.74-12.88-1.23-24.48,2-28.41,14.73-6.17,20.11-18.93,26.47-38.47,24.06-21.95-2.71-25.3-19.43-28.65-36.59-6.21-31.83-32.42-52.2-62.63-47.25-14.87,2.43-30.32,6.62-42.24,15.91-12.92,10.06-27.86,9.05-41.58,13.45-48.48,15.54-103.76,8.66-146.18,44.33-19,16-42.22,11.38-64.34,9-11.71-1.24-14.47-11.73-18.82-20.56-7.45-15.16-22.33-20.24-32.75-9.05-20.66,22.19-50.57,17.35-74.06,30.73s-49.6,17.37-76.71,5.47c-14-6.14-22.12.81-26.16,16.81-9.12,36.11-29.22,42.57-61.71,24-15.62-8.91-31.2-15.58-38.54-34.48-4.7-12.12-18.9-8-29-8.12-16.08-.17-32.21,2.84-44.39-12-4.55-5.54-11-4.2-17.22-1.42-37.33,16.65-72.35,16.49-108.09-7.62-30.55-20.61-67.76-20.36-103.49-21.78-13.35-.53-26.76.35-40.16.3-21.33-.09-39.23-3.4-45.24-27.93-1.49-6.08-5.92-11.59-12.92-12.16-9.2-.76-12,7-14.12,13.58-6,18.78-19.81,23.6-37.53,23.18-13.39-.32-26.81-.15-40.21-.06-16.89.11-30.19-4-32.19-23.94-1-9.82-6.2-16.52-16.25-18.86-2.6-.6-6.15-.8-7.47-2.63-17-23.67-29.17-17.83-48.33,1.15-17.71,17.56-80.83-2.24-93-25-4.08-7.66-9.45-12.72-17.1-16-9.44-4-15.76-10.5-20.17-20.18-11.37-25-20.81-27.17-37.38-5.63-16.84,21.88-37.31,31.39-64.1,32.44-20.63.81-31.86-8.46-37-27.24-5.68-20.79-8.66-41.62-6.88-63.49,2.06-25.4-15.13-41.63-40.59-41.19-34.11.6-42.55,6.69-49.22,45-3.93,22.61-13.86,36.39-36.35,39.66-11.2,1.63-18,6.41-20.33,17.65-2.94,13.92-11,21.84-26.09,21.84-13.06,0-21.91-4.58-26.45-17.78-6.35-18.5-24-24.84-39-21.21-46.15,11.19-91.77-6.94-137.86.87-14.94,2.53-23.16,5.14-25.4,20.14-2.68,18-13.62,21.67-30.8,20.77a781.7,781.7,0,0,0-106.9,1.67c-33,2.8-36.4-.23-47.54-31.53-10-27.94-33.22-44-60.24-52.31-15.23-4.7-29.37,3.51-40.23,15.88-23.87,27.18-52.22,32.9-83,15.87-14.18-7.84-26.36-15-39.6,1.87-7.85,10-20.16,3.55-30.51,4-14.56.7-28.62.29-29.07,21.78-.3,14.87-13.47,19.79-26.11,22.92-14.69,3.63-28.08-.76-35.07-13.33-10.25-18.41-26-24.89-44.91-29.62-30.16-7.54-42.08-24.72-41.87-56.11.21-30.1-1.07-31.43-31.26-32-16-.3-32.29,1.22-47.11-7.16-13.3-7.52-23.29,7.13-35.71,5.54a30.69,30.69,0,0,1-7.73-1.21c-13.09-6.21-22.59-16.84-30.51-28.24-13.09-18.81-27.1-20-43.76-5.56C35.43-4169.73,31.2-4166.58,25.81-4169.64Z"/><path class="cls-6" d="M25.81-597.57c37.26,1.8,74.38,7.15,111.82,4.78,34.59,3.6,67.75-6,101.41-11.1,80.66-3.34,161.32-3.08,242-.26,16.22,5.19,32.75,5.73,49.46,2.82,26.49,1.72,52.73,1.86,78.19,13.48,16.77,7.65,36.86-4.32,55.41,1.15,27.48,6.27,55.23,2.77,82.9,2.33,11.89.44,16.88,9.9,23.18,17.66,28.9,34.81,58.51,69,74.7,90.59-14.21-16.12-38.06-48.13-63.77-78.53-14.15-16.74-8-27.75,15.37-27.83,58-.21,115.58-9.4,173.65-6a128.54,128.54,0,0,0,45-5c91-2.55,181.95-3.49,272.89.31a196.72,196.72,0,0,0,85.88.34c103.23-3.92,206.38-5.93,308.25,16.18,23.79,5.16,47.93,2.28,71.91,3,16,.5,32.07-1.12,47.9,2,20.15,7.35,8.37,17.42,1.41,25.72-22.92,27.38-51.23,49.25-78.11,72.32q-79.93,68.59-153.51,143.8c-8,8.23-15.78,17-26.63,21.84-15.15,5.6-23.44-4.33-31.1-14.41-13-17.08-26.22-34.95-33.79-54.39-16.78-43.11-49.22-76.22-69.52-116.79a69.62,69.62,0,0,0-10.9-15.18c-19.23-21.38-32.84-21.81-54.07-2.27-32.6,30-56.46,67.12-78.85,104.28-30.51,50.62-66.42,97.1-100.84,144.76-30.23,41.86-18.89,73,32.41,82.08,43.91,7.75,86.42,21.92,130.84,27,10.86,1.25,20.87,5,27.13,15a14.14,14.14,0,0,1,1,7.68,28.08,28.08,0,0,1-3.65,6.78c-22,17.72-34.87,44.89-60.59,58.85-9.56,1.14-19.6-2-28.74,3.14l0,0c-10.78,7.15-19.4,16.49-27.16,26.72l.16-.07a18.71,18.71,0,0,1-5.42,5.47l.09-.08a21.08,21.08,0,0,1-5.42,5.48l.09-.09a24.38,24.38,0,0,1-5.42,5.5l.11-.1a30,30,0,0,1-5.42,5.49l.08-.08a33.85,33.85,0,0,1-5.44,5.46l.1-.09a43.18,43.18,0,0,1-5.4,5.5l.08-.08a66.37,66.37,0,0,1-5.4,5.47l.06-.06c-1.71,1.89-3.53,3.68-5.37,5.44l0,0c-1.75,1.83-3.56,3.6-5.32,5.42l0,0a74.17,74.17,0,0,0-5.29,5.35c-11.26,10-22,20.68-33.94,29.7-13.65,10.26-28,10.1-39.26.32-11.13-9.63-15.55-21.4-7.24-35.38,6.44-17.11,22.53-25.52,34.11-37.85a30.88,30.88,0,0,0,2.69-4.1,47.34,47.34,0,0,0-2.94,4.15c-15.39,12.17-27.43,28.13-44.36,38.43a90.75,90.75,0,0,1-24.42,24.45c-10.05,6.88-21.07,10-32.5,2.63-11-7.15-14.79-17.24-11.75-30,.75-3.2,3.87-6.36-.51-10.73-15.82,6.88-33.31,14.76-47.89-2.17-14.12-16.39-2.33-31.29,9.48-50.24-27.11,12.19-42.73,30.48-61.63,44-13.74,9.83-26.9,20.47-40.58,30.38s-29.32,12.28-41.17-.63c-11.41-12.44-28.6-2.25-39.07-13.56a32.77,32.77,0,0,0-5.34-5.32h0c-1.65-1.92-3.4-2-5.27-.31h0c-2.68,3.22-7.9,2-10.23,5.88C771.53,23.41,755.82,32.48,742,43.48c-12.57,10-27.86,12.93-41.06-.63-7.11-7.32-13-6.66-20.73-.82-7,5.3-15.25,9.18-23.26,13C631.2,67.54,616.35,61,610.78,32.84c-1.85-9.32-6.95-13.49-13.12-18.52s-11.82-5.74-19.6-3.1c-29.29,9.94-36,7-51-21.13-10,7-19.91,14-30,20.72-9.12,6.11-19.33,10.86-30.18,7.53-12.47-3.83-20.43,1.78-28.36,9.57C429,37.28,420,47.37,409.62,55.67c-22.85,18.22-43.91,10.43-51.17-18.15-3.52-13.83-8.39-15.79-19.68-6.29-17,14.32-33.42,29.34-49.88,44.28-6.61,6-12.87,12.32-21.37,15.74-11.62,4.67-23.71,5.81-31.68-5-7.66-10.35-14.1-11.3-23.76-3.68-11.09,8.75-22.92,9-34.43.55C171.4,78.58,164,75.6,157.9,80.37c-15.26,11.86-34.14,8.5-51,13.46C94,97.63,79.58,96.59,71.36,82.68,65.74,73.19,60.16,76.94,53.9,81c-9.44,6.11-14.53,18.76-28.09,18.68V-2.23c6.85-5.36,8.79-10.73,0-16.09Z"/></g></g></g><path class="cls-7" d="M25.56,64.31c-11.37,0-20.62-8.78-20.62-19.58V26.23a2.95,2.95,0,0,1,5.89,0V44.73c0,7.55,6.6,13.69,14.73,13.69s14.72-6.15,14.72-13.7V15.26a2.95,2.95,0,0,1,5.89,0V44.72c0,10.8-9.25,19.59-20.61,19.59"/><path class="cls-8" d="M36.54,35.38v6.8c0,6.63-4.92,12-11,12s-11-5.37-11-12V35.39c9.07-5.25,13.9,3.43,22,0"/><path class="cls-7" d="M57.43,19.79a2.94,2.94,0,0,1-2.94-2.94,10.81,10.81,0,0,0-21.62,0,2.94,2.94,0,1,1-5.88,0,16.7,16.7,0,1,1,33.39,0,3,3,0,0,1-3,2.94"/></svg>