<svg id="Vrstva_1" data-name="Vrstva 1" xmlns="http://www.w3.org/2000/svg" viewBox="0 0 63.45 64.51"><defs><style>.cls-1{fill:#f9ce57;}.cls-2{fill:#429f5f;}.cls-3{fill:#c31d18;}.cls-4{fill:#fff;opacity:0.5;}</style></defs><path class="cls-1" d="M30,19.49,28.12,16a.77.77,0,0,0,.32-.63V14.7a.41.41,0,0,1,0-.11c0-.29-.23-2-12.61-2-13.51,0-12.87,2-12.87,2v.68a.75.75,0,0,0,.23.55l-1.86,3.7a9,9,0,0,0-1,4.21L.79,51a4.86,4.86,0,0,0,1.1,3,5.64,5.64,0,0,0,2.64,1.74L5,56C6.17,57,9,58.4,15.74,58.4S25.37,57,26.49,55.93a11.05,11.05,0,0,0,1.21-.44A8,8,0,0,0,29.94,54a4.77,4.77,0,0,0,1-2.59c.06-1.1.18-20.67.22-27.51A9.11,9.11,0,0,0,30,19.49Z"/><path class="cls-2" d="M62,19.49,60.06,16a.77.77,0,0,0,.32-.63V14.7a.41.41,0,0,1,0-.11c0-.29-.23-2-12.61-2-13.51,0-12.87,2-12.87,2v.68a.75.75,0,0,0,.23.55l-1.86,3.7a9,9,0,0,0-1,4.21L32.74,51a4.79,4.79,0,0,0,1.09,3,5.64,5.64,0,0,0,2.64,1.74L37,56c1.13,1,3.91,2.45,10.7,2.45S57.31,57,58.44,55.93a11.55,11.55,0,0,0,1.2-.44A8,8,0,0,0,61.88,54a4.84,4.84,0,0,0,1-2.59c0-1.1.17-20.67.22-27.51A9,9,0,0,0,62,19.49Z"/><path class="cls-3" d="M49.77,15.94l-2.34-4.3a1,1,0,0,0,.39-.77v-.79c0-.05,0-.09,0-.14.05-.35-.27-2.45-15.41-2.45C15.91,7.49,16.68,10,16.68,10v.83a.92.92,0,0,0,.29.67L14.69,16a11.21,11.21,0,0,0-1.18,5.15L14,54.47a5.9,5.9,0,0,0,1.34,3.71,6.79,6.79,0,0,0,3.22,2.12l.63.19c1.38,1.29,4.78,3,13.08,3s11.77-1.73,13.15-3a11.08,11.08,0,0,0,1.46-.54,9.41,9.41,0,0,0,2.75-1.84,5.84,5.84,0,0,0,1.19-3.16c.07-1.35.22-25.28.27-33.63A11,11,0,0,0,49.77,15.94Z"/><path class="cls-4" d="M19.29,57.49a.82.82,0,0,1-.61-.27,9.09,9.09,0,0,1-1.55-2.83c-.13-.37-.45-1.23-.71-16.75-.13-7.57-.19-15.62-.19-17,0-2.61,2.59-6.9,2.89-7.38A.83.83,0,0,1,20.26,13a.84.84,0,0,1,.28,1.15c-.74,1.2-2.64,4.69-2.64,6.51,0,5.16.27,31.47.8,33.2a8,8,0,0,0,1.21,2.28.82.82,0,0,1-.06,1.17A.81.81,0,0,1,19.29,57.49Z"/><path class="cls-4" d="M5.59,53.68a.67.67,0,0,1-.49-.21,7.14,7.14,0,0,1-1.24-2.25c-.11-.29-.36-1-.57-13.29-.1-6-.15-12.39-.15-13.51,0-2.07,2.07-5.47,2.3-5.85a.67.67,0,0,1,1.14.69C6,20.21,4.47,23,4.47,24.42c0,4.1.22,25,.64,26.35a6.53,6.53,0,0,0,1,1.81.65.65,0,0,1,0,.93A.64.64,0,0,1,5.59,53.68Z"/></svg>