<svg id="Vrstva_1" data-name="Vrstva 1" xmlns="http://www.w3.org/2000/svg" viewBox="0 0 63.45 64.51"><defs><style>.cls-1{fill:#42a05f;}.cls-2{fill:#bfd68b;}.cls-3{fill:#683b11;}</style></defs><path class="cls-1" d="M29.3,23l-.46.36.05-.17c-1.95-1-3.85-2.11-5.86-3a17,17,0,0,0-7-1.29c-.71,0-1.14.35-1.16.93s.43,1,1.17,1a19,19,0,0,1,6.54,1.23,6.92,6.92,0,0,0-4.42,4.18,11.35,11.35,0,0,1-9-10.19l.52,0c3,0,6.09-.08,9.13,0A11.33,11.33,0,0,1,29.24,22.8,1.45,1.45,0,0,1,29.3,23Z"/><path class="cls-2" d="M33.18,23.71v2A2.82,2.82,0,0,1,36,28.54a2.81,2.81,0,1,1-2.79-2.83v-2m0,0a4.82,4.82,0,0,0,0,9.63h0a4.82,4.82,0,0,0,0-9.63Z"/><path class="cls-2" d="M26.14,7.35v1a1.51,1.51,0,0,1,1.08.45,1.49,1.49,0,0,1,.45,1.1,1.55,1.55,0,0,1-1.56,1.54,1.54,1.54,0,0,1-1.53-1.56,1.55,1.55,0,0,1,1.55-1.53v-1m0,0a2.55,2.55,0,0,0,0,5.09h0a2.55,2.55,0,0,0,0-5.09Z"/><path class="cls-2" d="M49.27,51v1a1.54,1.54,0,0,1,1.09.45,1.58,1.58,0,0,1,.45,1.11A1.56,1.56,0,0,1,49.25,55a1.54,1.54,0,0,1-1.09-.45,1.58,1.58,0,0,1-.45-1.11A1.56,1.56,0,0,1,49.27,52V51m0,0a2.55,2.55,0,1,0,0,5.09h0a2.55,2.55,0,1,0,0-5.09Z"/><path class="cls-2" d="M39.26,16v1a1.5,1.5,0,0,1,1.09.46,1.55,1.55,0,1,1-2.2,2.18,1.58,1.58,0,0,1-.45-1.1A1.56,1.56,0,0,1,39.26,17V16m0,0a2.55,2.55,0,0,0,0,5.1h0a2.55,2.55,0,0,0,0-5.1Z"/><path class="cls-2" d="M15.5,44.88v1a1.54,1.54,0,0,1,1.09.45A1.55,1.55,0,0,1,15.48,49a1.5,1.5,0,0,1-1.09-.46,1.54,1.54,0,0,1,1.11-2.63v-1m0,0a2.55,2.55,0,0,0,0,5.09h0a2.55,2.55,0,1,0,0-5.09Z"/><path class="cls-2" d="M22.59,59.37a1.46,1.46,0,1,0,0,2.91h0a1.46,1.46,0,1,0,0-2.91Z"/><path class="cls-2" d="M40.22,60.59v.25a.67.67,0,0,1,.5.21.74.74,0,0,1,.21.51.71.71,0,0,1-1.22.49.67.67,0,0,1-.21-.5.71.71,0,0,1,.72-.71v-.25m0,0a1,1,0,0,0-1,.95,1,1,0,0,0,1,1h0a1,1,0,1,0,0-1.93Z"/><path class="cls-2" d="M12,28.52a1.46,1.46,0,0,0,0,2.92h0a1.46,1.46,0,0,0,0-2.92Z"/><path class="cls-2" d="M33.2,5.89a1.46,1.46,0,1,0,0,2.91h0a1.46,1.46,0,0,0,0-2.91Z"/><path class="cls-2" d="M42.8,0a1.46,1.46,0,0,0,0,2.92h0a1.45,1.45,0,0,0,1.46-1.45A1.45,1.45,0,0,0,42.81,0Z"/><path class="cls-2" d="M51.43,24.28a1.46,1.46,0,1,0,0,2.91h0a1.46,1.46,0,0,0,0-2.91Z"/><path class="cls-2" d="M42.78,42.07a2.81,2.81,0,0,1,0,5.61,2.87,2.87,0,0,1-2-.82,2.76,2.76,0,0,1-.82-2,2.81,2.81,0,0,1,2.81-2.81h0m0-2h0a4.81,4.81,0,1,0,0,9.61h0a4.81,4.81,0,0,0-.06-9.61Z"/><path class="cls-2" d="M33.19,37.19A4.91,4.91,0,0,1,28.81,42a4.81,4.81,0,0,1-1.72-9.42.8.8,0,0,1,1,.31,6.48,6.48,0,0,0,3.85,2.26c1,.19,1,.17,1.15,1.12C33.12,36.56,33.15,36.88,33.19,37.19Z"/><path class="cls-2" d="M38.81,32.21a6.82,6.82,0,0,0,0-7.36c1.51-1.57,4.51-1.5,6.27.15a4.8,4.8,0,0,1,.28,6.76A4.72,4.72,0,0,1,38.81,32.21Z"/><path class="cls-2" d="M22,35c-.46,3.15-.46,3.15.73,5.91A4.78,4.78,0,0,1,15,38.27a4.79,4.79,0,0,1,3.39-5.7.87.87,0,0,1,1,.27C20.18,33.59,21.05,34.24,22,35Z"/><path class="cls-2" d="M22.71,51.58a6.85,6.85,0,0,0,5.62-2,3.74,3.74,0,0,0,.5.41,25.31,25.31,0,0,0,2.65,1.34.9.9,0,0,1,.72.9,4.82,4.82,0,1,1-9.61,0C22.61,52,22.67,51.83,22.71,51.58Z"/><path class="cls-2" d="M43.6,51.58a4.75,4.75,0,0,1-2.17,5.11,4.82,4.82,0,0,1-7.28-4.62.63.63,0,0,1,.58-.67A6.53,6.53,0,0,0,38,49.59,6.85,6.85,0,0,0,43.6,51.58Z"/><path class="cls-2" d="M22.91,33a4.7,4.7,0,0,1-3.2-4.16,4.8,4.8,0,0,1,2.73-4.68,4.65,4.65,0,0,1,5.08.67,6.7,6.7,0,0,0-.79,5.69,17,17,0,0,0-2.05,1A16.9,16.9,0,0,0,22.91,33Z"/><path class="cls-2" d="M18.9,43.88A6.75,6.75,0,0,0,24,42.33a7,7,0,0,0,4.18,1.6,4.67,4.67,0,0,1-1.88,4.92,4.83,4.83,0,0,1-5.56,0A4.69,4.69,0,0,1,18.9,43.88Z"/><path class="cls-2" d="M28.34,59.24A7,7,0,0,0,33.16,56,6.94,6.94,0,0,0,38,59.23a4.69,4.69,0,0,1-2.11,4,4.57,4.57,0,0,1-5.05.21A4.74,4.74,0,0,1,28.34,59.24Z"/><path class="cls-2" d="M44.77,38.44l-.35-3.69a6.05,6.05,0,0,0,.8-.43,13.56,13.56,0,0,0,1.45-1.15c.81-.8.87-.85,1.92-.36a4.59,4.59,0,0,1,2.83,4.07A4.68,4.68,0,0,1,49,41.37a.84.84,0,0,1-.21.11l-.16,0A6.82,6.82,0,0,0,44.77,38.44Z"/><path class="cls-2" d="M34.78,35.18l2.79-1.42a6.94,6.94,0,0,0,4.55,1.51.46.46,0,0,1,.36.28,4,4,0,0,1,.22,2.39c-1,.34-2,.57-3,1A6,6,0,0,0,37,41.45c-.2.34-.39.4-.71.23a8.62,8.62,0,0,1-.86-.43c-1-.62-1.1-.78-.72-1.89A6.72,6.72,0,0,0,34.78,35.18Z"/><path class="cls-2" d="M30.2,43.81l3-1.76,2.94,1.77a7,7,0,0,0,.57,4,.57.57,0,0,1-.14.5,4.8,4.8,0,0,1-6.74,0,.63.63,0,0,1-.15-.54A7,7,0,0,0,30.2,43.81Z"/><path class="cls-3" d="M34.13,21.81H32.2c0-.9-.05-1.82,0-2.73a15,15,0,0,1,.38-3.43,7.41,7.41,0,0,1,5.74-5.24,1.35,1.35,0,0,1,.29,0h.28v1.85a13.26,13.26,0,0,0-1.3.45,5.63,5.63,0,0,0-3.46,5.19C34.09,19.16,34.13,20.48,34.13,21.81Z"/></svg>