<svg id="Vrstva_1" data-name="Vrstva 1" xmlns="http://www.w3.org/2000/svg" viewBox="0 0 63.45 64.51"><defs><style>.cls-1{fill:#f6a713;}.cls-2{fill:#c41d18;}</style></defs><path class="cls-1" d="M36.53,9.65a10.08,10.08,0,0,0-2.17-1.49,5.14,5.14,0,0,0-2.17-.67A1.27,1.27,0,0,0,31,8.12c-.29.55-.6,1.1-.89,1.65-.55,1.06-1.1,2.13-1.63,3.2-.3.61-.62,1.21-.9,1.83-.16.34-.35.67-.5,1l-.69,1.54c-.19.41-.38.81-.56,1.22-.25.57-.48,1.15-.73,1.71a.92.92,0,0,0,.16,1.06.94.94,0,0,0,1,.2c.23-.09.45-.17.67-.28.59-.28,1.2-.49,1.79-.78.79-.38,1.6-.72,2.39-1.1s1.72-.84,2.57-1.27,1.84-1,2.76-1.43c.67-.34,1.3-.72,2-1a1,1,0,0,0,.66-.86A3.41,3.41,0,0,0,39,13.6a10.2,10.2,0,0,0-.58-1.45,6.17,6.17,0,0,0-.42-.7A7.91,7.91,0,0,0,36.53,9.65Zm-7.59,8a3.92,3.92,0,0,1-1.1,1.23c-.49.38-1,.77-1.47,1.13-.07.05-.14.13-.21.05a.21.21,0,0,1,0-.23,19.58,19.58,0,0,1,1.36-2.08c.29-.33.56-.74,1.06-.81a.37.37,0,0,1,.47.37C29.1,17.43,29,17.53,28.94,17.64ZM31.06,13a1,1,0,0,1,.12-.63c.21-.44.25-.93.44-1.37a2.46,2.46,0,0,1,.56-.86.54.54,0,0,1,.7-.12.6.6,0,0,1,.19.77,5.21,5.21,0,0,1-.65,1c-.35.4-.8.69-1.13,1.1A.29.29,0,0,1,31.06,13Zm4.52,2.26a4.43,4.43,0,0,1-1.4,1.07,5.78,5.78,0,0,1-.91.43,3.37,3.37,0,0,1-1.27.44c-.1,0-.06.07-.09.11a.27.27,0,0,1-.35.06c-.09-.07,0-.19.07-.24A10.06,10.06,0,0,0,33,15.82c.24-.24.49-.47.73-.72a.74.74,0,0,1,.31-.17,6.88,6.88,0,0,0,.77-.38.35.35,0,0,1,.23,0,.46.46,0,0,1,.53.13A.44.44,0,0,1,35.58,15.29Z"/><path class="cls-1" d="M18.1,7.48c.23.55.32,1.16.52,1.73.12.35.17.72.32,1.06s.28.84.44,1.26c.27.73.49,1.48.74,2.21.18.53.36,1,.55,1.57.26.76.49,1.53.81,2.26s.6,1.52.93,2.27a.93.93,0,0,0,.69.66A.94.94,0,0,0,24.18,20c.13-.35.27-.69.41-1,.21-.54.41-1.08.63-1.62s.48-1.23.69-1.85c.39-1.13.79-2.25,1.15-3.4.28-.9.58-1.79.85-2.7.22-.71.43-1.42.66-2.13a1.19,1.19,0,0,0-.43-1.45,4.53,4.53,0,0,0-1.67-.91,8.87,8.87,0,0,0-6.09-.08,5.45,5.45,0,0,0-1.55.71C18.15,6,17.7,6.52,18.1,7.48Zm4.62,6a2.32,2.32,0,0,0,0,.37,4,4,0,0,1-.47-.89,12.22,12.22,0,0,1-.56-1.46,2.83,2.83,0,0,1-.25-1.25c0-.18,0-.37.23-.47a.38.38,0,0,1,.58.16,3.88,3.88,0,0,1,.43,1.8C22.73,12.33,22.71,12.91,22.72,13.49Zm.37,6.16a1.36,1.36,0,0,1,0,.16,7.68,7.68,0,0,1-.52-1.22,5.09,5.09,0,0,1-.46-1.77.57.57,0,0,1,.25-.52.31.31,0,0,1,.4.08A1.4,1.4,0,0,1,23,17,13.53,13.53,0,0,1,23.09,19.65Zm1.7-2.92-.72,1.52a1,1,0,0,1-.12.14A17.24,17.24,0,0,1,24.12,16a1.94,1.94,0,0,1,.46-1.15.35.35,0,0,1,.4-.09c.16.06.17.18.19.32A3,3,0,0,1,24.79,16.73Zm.78-9.23a2.9,2.9,0,0,1,.29-1.19c.1-.2.23-.39.48-.39s.45.3.46.52a2.13,2.13,0,0,1-.22,1.42c-.09.13,0,.31-.06.46-.21.51-.29,1.06-.54,1.57-.13.26-.12.57-.29.86A18.71,18.71,0,0,1,25.57,7.5Z"/><path class="cls-1" d="M19.78,22.33c-.55-.18-1.09-.42-1.63-.63s-.89-.36-1.33-.52c-.72-.25-1.42-.55-2.15-.79-.47-.15-.94-.34-1.41-.49s-.94-.29-1.41-.44-1.09-.4-1.65-.54S9,18.54,8.38,18.37c-.45-.12-.9-.27-1.35-.41a.93.93,0,0,0-.74.1,2.6,2.6,0,0,0-1,1.25,9.12,9.12,0,0,0-.93,3.88,6.93,6.93,0,0,0,.24,2.08A6,6,0,0,0,5.8,28.11a1.21,1.21,0,0,0,1,.51,4.52,4.52,0,0,0,1-.2c.74-.19,1.45-.47,2.19-.65.43-.11.84-.31,1.26-.43.75-.22,1.48-.47,2.21-.72l1.47-.53c.83-.3,1.66-.59,2.48-.91s1.71-.65,2.55-1a.93.93,0,0,0,.56-.4A1,1,0,0,0,19.78,22.33Zm-8.66-.88a9.18,9.18,0,0,1-1.38-.12,1.42,1.42,0,0,1-.55-.24A.47.47,0,0,1,9,20.51c0-.16.19-.21.36-.26a3.44,3.44,0,0,1,1.53.08,10.89,10.89,0,0,1,1.6.47,7.41,7.41,0,0,1,1.32.49C12.87,21.33,12,21.46,11.12,21.45Zm5.38,3.17c-.53.2-1.05.44-1.58.61a6.68,6.68,0,0,1-1.83.36,1.29,1.29,0,0,1-.55-.08.38.38,0,0,1-.3-.41.5.5,0,0,1,.3-.45,3.71,3.71,0,0,1,1.53-.34,27.22,27.22,0,0,1,2.85.09C16.83,24.62,16.64,24.57,16.5,24.62Zm3.19-1.72c-.33,0-.65.06-1,.09A9.09,9.09,0,0,1,17,23.1c-.3,0-.56,0-.82,0a1.47,1.47,0,0,1-.74-.2.46.46,0,0,1-.27-.5c0-.21.16-.3.33-.37A2.61,2.61,0,0,1,16.72,22a11.14,11.14,0,0,1,2,.45q.53.13,1,.3c.05,0,.14,0,.13.07S19.76,22.89,19.69,22.9Z"/><path class="cls-1" d="M7.9,12.85a4.22,4.22,0,0,0-.38,1.63,1.13,1.13,0,0,0,.41,1c.24.16.5.3.74.47s.4.13.59.26a11.2,11.2,0,0,0,1.13.62c.45.23.93.43,1.36.69s1.17.59,1.75.87,1.2.59,1.81.86,1.23.61,1.85.89c1.1.48,2.18,1,3.29,1.42a.88.88,0,0,0,1-.26,1,1,0,0,0,.17-.91c-.38-.91-.75-1.82-1.15-2.72s-.91-1.92-1.37-2.87c-.38-.79-.77-1.57-1.17-2.35s-.77-1.48-1.16-2.22-.68-1.2-1-1.82a1.34,1.34,0,0,0-1.5-.92,4.06,4.06,0,0,0-.64.1A9.52,9.52,0,0,0,12,8.3,8,8,0,0,0,10.83,9a5.2,5.2,0,0,0-.86.69,7.88,7.88,0,0,0-.7.83A10.61,10.61,0,0,0,7.9,12.85Zm7.87,5.23a9.56,9.56,0,0,1-2.2-1.24,1.64,1.64,0,0,1-.58-.67c-.14-.34,0-.59.37-.6a1.52,1.52,0,0,1,1,.4c.36.29.68.64,1.06.91a1,1,0,0,1,.28.32,6,6,0,0,0,.74.85c.1.12.18.24.3.41A3.5,3.5,0,0,1,15.77,18.08Zm3.65,0c.22.32.41.66.61,1s.45.92.76,1.34c0,0,.08.12,0,.16s-.1,0-.15,0c-.41-.39-.91-.68-1.34-1A7.22,7.22,0,0,1,18,18.2a1.42,1.42,0,0,1-.36-.84.41.41,0,0,1,.44-.43,1.17,1.17,0,0,1,.77.43A7.56,7.56,0,0,1,19.42,18.05Zm-2.9-6.24A8.54,8.54,0,0,1,17,13.22a8.06,8.06,0,0,0,.32,1.06.54.54,0,0,1,0,.32,3,3,0,0,1-.66-.83s0,0,0,0c-.49-.32-.68-.89-1.08-1.3a4.46,4.46,0,0,1-1-1.86.69.69,0,0,1,.22-.82.67.67,0,0,1,.74.17A5.28,5.28,0,0,1,16.52,11.81Z"/><path class="cls-1" d="M15.55,38.59a5.29,5.29,0,0,0,.4-.74c.43-.74.83-1.49,1.2-2.26s.65-1.22,1-1.84c.46-.93.91-1.87,1.36-2.81s.8-1.72,1.19-2.59c.31-.67.59-1.35.89-2A.95.95,0,0,0,20.28,25c-.64.29-1.29.55-1.93.83-.32.14-.65.26-1,.42-.86.43-1.75.81-2.61,1.24-.43.21-.88.41-1.31.64-.58.31-1.18.59-1.76.9s-1.26.62-1.88,1c-.45.25-.9.5-1.34.76a5.62,5.62,0,0,0-.56.25,1.07,1.07,0,0,0-.4,1,5.11,5.11,0,0,0,.5,2c.28.56.62,1.07.94,1.6a6,6,0,0,0,1.37,1.48,10.53,10.53,0,0,0,2.26,1.4,4.37,4.37,0,0,0,2,.49A1.17,1.17,0,0,0,15.55,38.59Zm2.12-9.88a3.5,3.5,0,0,1,.76-1.1,15.43,15.43,0,0,1,1.63-1.38l.69-.56a16.94,16.94,0,0,1-1.14,2.25,5.06,5.06,0,0,1-.73,1,1.11,1.11,0,0,1-.76.46A.48.48,0,0,1,17.67,28.71Zm-6.6,3a4.82,4.82,0,0,1,2-1.33,10.74,10.74,0,0,1,1.37-.52c.19-.05.37-.17.57-.24,0,0,.06,0,.08,0a.1.1,0,0,1,0,.09l-.35.61c-.21.36-.48.69-.68,1.06a5,5,0,0,1-1.53,1.72c-.71.47-1.31.41-1.69-.46a.75.75,0,0,1,0-.26A1.08,1.08,0,0,1,11.07,31.7Zm2.47,4.21a4.09,4.09,0,0,1,.73-1,6.52,6.52,0,0,1,.91-.91c.21-.15.31-.43.53-.59.06,0,.09-.15.2-.1s0,.14.05.2c.06.22-.14.34-.21.5-.2.48-.27,1-.47,1.49a4.26,4.26,0,0,0-.26.59,3,3,0,0,1-.33.72,1.45,1.45,0,0,1-.67.65.6.6,0,0,1-.8-.51A2.22,2.22,0,0,1,13.54,35.91Z"/><path class="cls-1" d="M11,43.05l2.16-1.68A20.76,20.76,0,1,1,43.37,18l2.15-1.66c0-.11-.07-.22-.1-.34-.22-.64-.46-1.29-.73-1.91-.33-.78-.73-1.53-1.12-2.28a1.76,1.76,0,0,1-.49-.79c-.41-.63-.83-1.25-1.28-1.85a.65.65,0,0,1-.3-.39c-.28-.33-.55-.66-.84-1A22.21,22.21,0,0,0,38.83,6c-.29-.24-.56-.5-.85-.75a3.84,3.84,0,0,1-.88-.68c-.71-.49-1.42-1-2.16-1.41s-1.34-.73-2-1-1.38-.58-2.08-.83A25.79,25.79,0,0,0,28.16.51C27.78.42,27.41.35,27,.29c-.13,0-.26,0-.4-.06C26,.14,25.38.07,24.75,0h-.33a21.69,21.69,0,0,0-2.55,0L21.25.1c-.72.07-1.44.15-2.16.28s-1.31.28-2,.44-1.37.44-2,.66a4.78,4.78,0,0,1-.79.38.66.66,0,0,1-.38.1.88.88,0,0,0-.22.1l-1,.5c-.1.2-.33.26-.5.35a3.64,3.64,0,0,1-.49.22A12.67,12.67,0,0,0,10.29,4,17.5,17.5,0,0,0,8.52,5.3a2.23,2.23,0,0,1-.68.58h0a5,5,0,0,1-.68.7C6.66,7,6.21,7.53,5.76,8a1.29,1.29,0,0,1-.17.16c-.29.35-.58.7-.85,1.06s-.67.93-1,1.4l0,.06a18.92,18.92,0,0,0-1.58,2.86c-.22.48-.42,1-.61,1.47-.24.65-.46,1.3-.64,2s-.28,1.1-.4,1.65c0,.17-.06.34-.1.51-.1.59-.19,1.17-.25,1.76a22.85,22.85,0,0,0-.12,3A5.79,5.79,0,0,1,.1,25.27a15.81,15.81,0,0,0,.24,1.94,8.73,8.73,0,0,0,.24,1.13c.09.34.15.69.22,1A1.07,1.07,0,0,1,1,30l.3,1c.15.13.16.34.23.5.14.32.24.65.36,1,0,.05.06.09.08.15a15.44,15.44,0,0,0,1.29,2.57A23.46,23.46,0,0,0,6.09,39l.36.37a21,21,0,0,0,1.88,1.77c.23,0,.32.22.48.32a2.44,2.44,0,0,1,.39.33s.08.08.1.13c.35.25.69.52,1,.76Z"/><path class="cls-1" d="M26.71,24.19c.87.35,1.75.71,2.63,1s1.44.55,2.17.81l1,.34,9-6.95a3.75,3.75,0,0,0-.65-1A1.23,1.23,0,0,0,39.38,18a7.13,7.13,0,0,1-1.27.38,14.32,14.32,0,0,0-1.49.46c-.56.19-1.13.35-1.69.55S33.66,19.8,33,20l-2,.71c-.94.34-1.87.71-2.81,1.05-.5.17-1,.41-1.47.56a1,1,0,0,0-.53.34A.94.94,0,0,0,26.71,24.19ZM35.32,21A10,10,0,0,1,37,20.51a2.45,2.45,0,0,1,1.6.06.53.53,0,0,1,0,1,3.92,3.92,0,0,1-1.35.32,12.09,12.09,0,0,1-2.48-.08,2.66,2.66,0,0,1-1.25-.21C34.1,21.34,34.72,21.17,35.32,21Zm-5.61,2.41a9.65,9.65,0,0,1,1.92.27,1.88,1.88,0,0,1,1,.53.54.54,0,0,1-.31.9,2.53,2.53,0,0,1-1.16,0,12.88,12.88,0,0,1-2.55-.9c-.58-.23-1.13-.55-1.72-.78C27.84,23.33,28.77,23.29,29.71,23.36Z"/><path class="cls-1" d="M25.46,27.25c.2.44.37.89.56,1.33.3.69.65,1.37,1,2.05l1.39-1.07a.81.81,0,0,1-.6-.08A3,3,0,0,1,27,28.4a13,13,0,0,1-.83-1.87c-.05-.15-.26-.25-.15-.49.65.58,1.34,1.07,1.92,1.68a7,7,0,0,1,.67.88.67.67,0,0,1,.07.75l2.64-2-1.72-.82c-.66-.31-1.33-.57-2-.91-.38-.19-.79-.31-1.18-.49a.92.92,0,0,0-1.29.32.76.76,0,0,0-.08.86C25.17,26.6,25.32,26.93,25.46,27.25Z"/><path class="cls-1" d="M24.15,32.83v0a.49.49,0,0,1,0-.12c0-.06,0-.19.09-.19s.1.09.12.16L26,31.4c-.1-.27-.19-.55-.3-.82-.23-.62-.48-1.23-.71-1.85s-.53-1.4-.81-2.09a1.06,1.06,0,0,0-.29-.41,1,1,0,0,0-1.48.47c-.14.41-.3.81-.48,1.21-.39.89-.71,1.8-1.05,2.71s-.74,2.13-1.1,3.19c-.26.78-.52,1.55-.75,2.33-.09.3-.19.59-.28.88ZM22.7,28.45c.12-.58.28-1.16.41-1.76.1.42.2.83.28,1.25s.21,1,.28,1.51a3.71,3.71,0,0,1-.1,1.52.52.52,0,0,1-.43.36.43.43,0,0,1-.47-.26,1.07,1.07,0,0,1-.14-.47A9.18,9.18,0,0,1,22.7,28.45Z"/><path class="cls-2" d="M50.77,57.57A33,33,0,0,1,4.54,51.83l-.79-1a2.6,2.6,0,0,1,.45-3.63L52.09,9.88a2.59,2.59,0,0,1,3.63.45l.78,1A33,33,0,0,1,50.77,57.57ZM5.32,48.63a.76.76,0,0,0-.13,1.07l.79,1a31.15,31.15,0,0,0,43.67,5.42h0a31.16,31.16,0,0,0,5.42-43.67l-.79-1a.76.76,0,0,0-1.07-.13Z"/><path class="cls-2" d="M48.34,54.45A30.3,30.3,0,0,1,5.86,49.18a2.58,2.58,0,0,1,.45-3.63L50,11.52a2.58,2.58,0,0,1,3.63.45A30.31,30.31,0,0,1,48.34,54.45ZM7.42,47a.76.76,0,0,0-.13,1.07,28.48,28.48,0,0,0,39.93,5h0a28.48,28.48,0,0,0,5-39.93A.76.76,0,0,0,51.11,13Z"/><ellipse cx="16.29" cy="47.68" rx="0.91" ry="1.85" transform="translate(-25.93 20.18) rotate(-38.05)"/><ellipse cx="26.89" cy="46.7" rx="0.91" ry="1.85" transform="translate(-23.07 26.5) rotate(-38.05)"/><ellipse cx="35.69" cy="32.01" rx="0.91" ry="1.85" transform="translate(-12.14 28.81) rotate(-38.05)"/><ellipse cx="37.32" cy="46.12" rx="0.91" ry="1.85" transform="translate(-20.49 32.81) rotate(-38.05)"/><ellipse cx="53.02" cy="32.01" rx="0.91" ry="1.85" transform="translate(-8.46 39.48) rotate(-38.05)"/><ellipse cx="49.4" cy="19.49" rx="0.91" ry="1.85" transform="translate(-1.51 34.59) rotate(-38.05)"/><ellipse cx="44.9" cy="29.92" rx="0.91" ry="1.85" transform="translate(-8.9 34.03) rotate(-38.05)"/></svg>