<svg id="Vrstva_1" data-name="Vrstva 1" xmlns="http://www.w3.org/2000/svg" viewBox="0 0 63.45 64.51"><defs><style>.cls-1{fill:#fff;}.cls-2{fill:#5c3b17;}.cls-3{fill:#facf57;}</style></defs><path class="cls-1" d="M51.59,48.2H37.46V42.37H51.59a3,3,0,0,0,3-3V29.92a3,3,0,0,0-3-3H37.46V21.09H51.59a8.84,8.84,0,0,1,8.83,8.83v9.46A8.83,8.83,0,0,1,51.59,48.2Z"/><path class="cls-2" d="M51.59,49.1h-15V41.47h15a2.1,2.1,0,0,0,2.09-2.09V29.92a2.1,2.1,0,0,0-2.09-2.09h-15V20.2h15a9.74,9.74,0,0,1,9.73,9.72v9.46A9.74,9.74,0,0,1,51.59,49.1ZM38.36,47.31H51.59a7.94,7.94,0,0,0,7.93-7.93V29.92A7.94,7.94,0,0,0,51.59,22H38.36v4H51.59a3.89,3.89,0,0,1,3.89,3.89v9.46a3.89,3.89,0,0,1-3.89,3.89H38.36Z"/><path class="cls-1" d="M30.1,14.34h1.42A15.84,15.84,0,0,1,47.37,30.18V63.55a0,0,0,0,1,0,0H14.26a0,0,0,0,1,0,0V30.18A15.84,15.84,0,0,1,30.1,14.34Z" transform="translate(61.63 77.89) rotate(-180)"/><path class="cls-2" d="M37.44,64.45H24.19A10.83,10.83,0,0,1,13.37,53.63V13.44H48.26V53.63A10.83,10.83,0,0,1,37.44,64.45ZM15.16,15.24V53.63a9,9,0,0,0,9,9H37.44a9,9,0,0,0,9-9V15.24Z"/><path class="cls-3" d="M16.06,16.14V53.63a8.1,8.1,0,0,0,.39,2.48,3.84,3.84,0,0,0,3.66,2.64H41.52a3.84,3.84,0,0,0,3.66-2.64,8.1,8.1,0,0,0,.39-2.48V16.14Z"/><path class="cls-1" d="M47.05,12a6.68,6.68,0,0,0-.18-3.18A6.74,6.74,0,0,0,36.7,5.12,8.9,8.9,0,0,0,20.33,8.45a7.59,7.59,0,1,0-3.47,14.33,7.78,7.78,0,0,0,2-.26,2,2,0,0,1,2.6,1.92v6.47a3.84,3.84,0,1,0,7.67,0V23.13a2.05,2.05,0,0,1,2.05-2.05h3a2.05,2.05,0,0,1,2.06,2.05v3.06a3.83,3.83,0,1,0,7.66,0V23.13a2.05,2.05,0,0,1,2.06-2.05,4.69,4.69,0,0,0,4.7-4A4.59,4.59,0,0,0,47.05,12Z"/><path class="cls-2" d="M51.57,16.47s0,0,0-.08,0-.26,0-.38a.53.53,0,0,0,0-.13,5.47,5.47,0,0,0-3.27-4.45l-.11,0L48,11.33a7.55,7.55,0,0,0-.31-2.79A7.68,7.68,0,0,0,41,3.12a7.55,7.55,0,0,0-4,.81c-.09-.13-.19-.25-.29-.37a1.34,1.34,0,0,1-.11-.14l-.28-.3-.21-.23-.22-.21c-.16-.15-.32-.3-.49-.44l0,0-.51-.39-.08-.05a9.73,9.73,0,0,0-1.9-1h0L32.14.47h0A9.65,9.65,0,0,0,30.71.13l-.14,0L30,0h-.18c-.23,0-.47,0-.7,0a9.87,9.87,0,0,0-9.45,7.19l-.17-.05L19,7l-.29-.07-.49-.1-.3,0-.48,0-.35,0h-.59l-.29,0-.39,0-.41.06L15,6.92,14.7,7l-.49.14L14,7.21a8.57,8.57,0,0,0-4.88,4.46.3.3,0,0,1,0,.08Q9,12,8.9,12.29l-.09.24c-.05.15-.09.31-.13.46a2.25,2.25,0,0,0-.09.35c0,.13-.06.27-.08.41s0,.28-.07.42l0,.39,0,.26c0,.06,0,.12,0,.19a1.15,1.15,0,0,0,0,.19h0a8.46,8.46,0,0,0,8.47,8.48,8.46,8.46,0,0,0,2.24-.3,1.17,1.17,0,0,1,1,.2,1,1,0,0,1,.42.86v6.47a4.73,4.73,0,1,0,9.46,0V23.13A1.16,1.16,0,0,1,31.18,22h3a1.16,1.16,0,0,1,1.16,1.15v3.06a4.73,4.73,0,1,0,9.46,0V23.13A1.16,1.16,0,0,1,45.92,22a5.58,5.58,0,0,0,5.59-4.75,4.85,4.85,0,0,0,.05-.76ZM49.73,17a3.78,3.78,0,0,1-3.81,3.19,3,3,0,0,0-3,2.95v3.06a2.94,2.94,0,1,1-5.87,0V23.13a3,3,0,0,0-3-2.95h-3a3,3,0,0,0-2.95,2.95v7.78a2.94,2.94,0,1,1-5.87,0V24.44a2.85,2.85,0,0,0-1.13-2.29,2.94,2.94,0,0,0-1.8-.61,3.22,3.22,0,0,0-.81.11,6.5,6.5,0,0,1-1.76.24,6.69,6.69,0,0,1-6.68-6.84c0-.12,0-.24,0-.36s0-.2,0-.3l.06-.35c0-.1,0-.2.06-.3s.05-.2.07-.3.06-.23.1-.34l.08-.21c.05-.14.1-.27.16-.4a.31.31,0,0,1,.05-.1,6.75,6.75,0,0,1,3.34-3.3h0l.45-.18.16-.06.38-.1.26-.07.33-.06.33,0,.3,0,.41,0h.15l.54,0,.14,0,.4.06.21,0,.4.09.22.07.38.13.2.08.34.15.16.07a6.7,6.7,0,0,1,1.5,1.06.9.9,0,0,0,1.2,0h0a.89.89,0,0,0,0-1.35,8.91,8.91,0,0,0-1.31-1A8,8,0,0,1,29.13,1.8a5.62,5.62,0,0,1,.58,0h.17l.42,0,.16,0c.15,0,.3.05.45.09L31,2a8.53,8.53,0,0,1,1.67.61h0c.17.08.33.17.49.26l.07.05.41.26.1.07c.12.08.23.17.34.26l.13.09.28.26c.16.14.31.29.46.45l0,0,.31.36,0,0,.3.38,0,0,.27.4A8.57,8.57,0,0,1,36.64,7a.91.91,0,0,0,1.07.58.9.9,0,0,0,.63-1.17,8.56,8.56,0,0,0-.43-1,5.78,5.78,0,0,1,2.93-.56A5.88,5.88,0,0,1,46,9.06,5.69,5.69,0,0,1,46.25,11h-.19a5.67,5.67,0,0,0-1.64.25.9.9,0,0,0-.51,1.29.88.88,0,0,0,1,.42,3.77,3.77,0,0,1,1.11-.16,3.38,3.38,0,0,1,.72.07h.11l.3.08.22.08.1,0a3.76,3.76,0,0,1,2,2h0c0,.1.08.2.11.3l0,.1.06.23,0,.14,0,.2a1.1,1.1,0,0,0,0,.18v.18A3.26,3.26,0,0,1,49.73,17Z"/><path class="cls-2" d="M39.21,11.59a4.29,4.29,0,0,0-3.84.1,4.24,4.24,0,0,0-1.64,1.5.9.9,0,0,0,.49,1.35h0a.92.92,0,0,0,1-.4A2.53,2.53,0,0,1,39.88,16a2.61,2.61,0,0,1-.51,1.12.92.92,0,0,0,0,1.11.91.91,0,0,0,1.44,0,4.33,4.33,0,0,0-1.55-6.65Z"/><path class="cls-2" d="M29.38,5.59a3.41,3.41,0,0,0-2.46,1.84,3.46,3.46,0,0,0-.36,1.4.9.9,0,0,0,1.19.87,1,1,0,0,0,.61-.85,1.56,1.56,0,0,1,.17-.62,1.61,1.61,0,0,1,2.87,0,1.55,1.55,0,0,1,.18.66.93.93,0,0,0,.61.84h0a.89.89,0,0,0,1.19-.86,3.39,3.39,0,0,0-.21-1.08A3.44,3.44,0,0,0,29.38,5.59Z"/><path class="cls-2" d="M23.35,12.35a4.92,4.92,0,0,0-4.21,2.46,4.22,4.22,0,0,0-.54,1.42,5,5,0,0,0,.33,3.05.91.91,0,0,0,1.38.35.88.88,0,0,0,.26-1.08,3.18,3.18,0,0,1-.28-1.27,3.07,3.07,0,0,1,.89-2.2,3.11,3.11,0,0,1,2.19-.93h0a3.11,3.11,0,0,1,3,2.37.9.9,0,0,0,1.75-.39A4.91,4.91,0,0,0,23.35,12.35Z"/><path class="cls-1" d="M39.93,40.08h0a2.61,2.61,0,0,1-2.61-2.61v-1.4a2.61,2.61,0,0,1,2.61-2.61h0a2.61,2.61,0,0,1,2.61,2.61v1.4A2.61,2.61,0,0,1,39.93,40.08Z"/><path class="cls-2" d="M39.93,41a3.51,3.51,0,0,1-3.51-3.51v-1.4a3.51,3.51,0,0,1,7,0v1.4A3.51,3.51,0,0,1,39.93,41Zm0-6.62a1.72,1.72,0,0,0-1.71,1.71v1.4a1.72,1.72,0,1,0,3.43,0v-1.4A1.72,1.72,0,0,0,39.93,34.36Z"/></svg>