<svg id="Vrstva_1" data-name="Vrstva 1" xmlns="http://www.w3.org/2000/svg" viewBox="0 0 63.45 64.51"><defs><style>.cls-1{fill:#c41d18;}.cls-2{fill:#ffcc01;}.cls-3{fill:#a86f45;}.cls-4{fill:#683b11;}.cls-5{opacity:0.49;}.cls-6{fill:#fff;}</style></defs><path class="cls-1" d="M41.39,26a.89.89,0,0,1-.52-.16.9.9,0,0,1-.22-1.26l9.76-13.87a.89.89,0,0,1,.74-.39H61.78a.91.91,0,0,1,0,1.81H51.62L42.13,25.6A.91.91,0,0,1,41.39,26Z"/><path class="cls-2" d="M18.07,25.33a.91.91,0,0,1-.88-.69l-1.85-7.88a.9.9,0,0,1,1.76-.41L19,24.22a.9.9,0,0,1-.67,1.09A.75.75,0,0,1,18.07,25.33Z"/><path class="cls-2" d="M1.67,21a.92.92,0,0,1-.88-.69.9.9,0,0,1,.66-1.09L30.33,12a.9.9,0,0,1,.44,1.75L1.89,21A.83.83,0,0,1,1.67,21Z"/><path class="cls-2" d="M1.67,21A.88.88,0,0,1,1,20.72a.89.89,0,0,1,.09-1.27L13.72,8.62a.88.88,0,0,1,.78-.2L30.74,12a.91.91,0,0,1-.39,1.77l-15.8-3.51L2.26,20.82A.88.88,0,0,1,1.67,21Z"/><path class="cls-3" d="M30.83,64.4a20.72,20.72,0,0,1-14.43-6A25.88,25.88,0,0,1,8.82,40.18a26.5,26.5,0,0,1,4.71-15.53h0a2.54,2.54,0,0,1,2.09-1.12h6.14a.9.9,0,0,1,.85.57l.86,4.83a1,1,0,0,0,2,0l.91-4.85a.9.9,0,0,1,.84-.56H46a2.56,2.56,0,0,1,2.09,1.11,26.18,26.18,0,0,1,4.71,15.19A26,26,0,0,1,46.54,57a20.87,20.87,0,0,1-15.37,7.35Z"/><path class="cls-4" d="M46,26.12l0,0a23.56,23.56,0,0,1,4.23,13.69,23.36,23.36,0,0,1-5.65,15.5A18.3,18.3,0,0,1,31.13,61.8h-.3a18.13,18.13,0,0,1-12.62-5.3,23.27,23.27,0,0,1-6.8-16.35,24,24,0,0,1,4.23-14l0,0h4.66l.59,3.27a3.61,3.61,0,0,0,7.11,0l.62-3.3H46m0-2.59H27.24a.9.9,0,0,0-.84.56l-.91,4.85a1,1,0,0,1-2,0l-.86-4.83a.9.9,0,0,0-.85-.57H15.62a2.54,2.54,0,0,0-2.09,1.12A26.5,26.5,0,0,0,8.82,40.18,25.88,25.88,0,0,0,16.4,58.36a20.72,20.72,0,0,0,14.43,6h.34A20.87,20.87,0,0,0,46.54,57a26,26,0,0,0,6.29-17.21,26.11,26.11,0,0,0-4.71-15.19A2.56,2.56,0,0,0,46,23.53Z"/><g class="cls-5"><circle class="cls-4" cx="40.02" cy="50.74" r="3.53"/></g><g class="cls-5"><circle class="cls-4" cx="32.18" cy="56.37" r="1.82"/></g><path class="cls-6" d="M30.83,62.13A18.48,18.48,0,0,1,18,56.73a23.58,23.58,0,0,1-6.89-16.58A24.24,24.24,0,0,1,15.38,26a.34.34,0,0,1,.06-.06.33.33,0,0,1,.23-.1h4.66a.31.31,0,0,1,.32.27l.59,3.27a3.29,3.29,0,0,0,6.47,0l.63-3.3a.32.32,0,0,1,.31-.27H46a.32.32,0,0,1,.24.11h0a23.92,23.92,0,0,1,4.34,13.93,23.69,23.69,0,0,1-5.74,15.71,18.59,18.59,0,0,1-13.7,6.59Zm-15-35.69a23.62,23.62,0,0,0-4.1,13.71,22.94,22.94,0,0,0,6.7,16.12,17.84,17.84,0,0,0,12.4,5.21h.29a18,18,0,0,0,13.23-6.37,23.07,23.07,0,0,0,5.57-15.28,23.29,23.29,0,0,0-4.1-13.39H28.92l-.57,3a3.94,3.94,0,0,1-7.75,0l-.54-3Z"/></svg>