<svg xmlns="http://www.w3.org/2000/svg" xmlns:xlink="http://www.w3.org/1999/xlink" viewBox="0 0 957 977.91"><defs><style>.cls-1{fill:none;}.cls-2{clip-path:url(#clip-path);}.cls-10,.cls-3{fill:#fff;}.cls-4{clip-path:url(#clip-path-2);}.cls-5{opacity:0.08;}.cls-6{clip-path:url(#clip-path-3);}.cls-7{clip-path:url(#clip-path-4);}.cls-8{font-size:223.2px;font-family:FuturaCE-Bold, Futura CE;font-weight:700;}.cls-9{font-size:174.28px;stroke:#fff;stroke-miterlimit:10;stroke-width:2px;font-family:Barrio-Regular, Barrio;}.cls-10{opacity:0.91;}</style><clipPath id="clip-path"><rect class="cls-1" x="-2837" y="1480.87" width="1921" height="1177"/></clipPath><clipPath id="clip-path-2"><rect class="cls-1" x="3533" y="1411.87" width="1938" height="4780"/></clipPath><clipPath id="clip-path-3"><rect class="cls-1" x="1331" y="1361.87" width="1938" height="4780"/></clipPath><clipPath id="clip-path-4"><rect class="cls-1" width="957" height="977.91"/></clipPath></defs><title>DRINK2GO_WEB_svg</title><g id="Vrstva_2" data-name="Vrstva 2"><g class="cls-2"><path class="cls-3" d="M-2839.73,926.93V663.64H84V2855.37H-2839.73V2630.93c2.86-3.15,5.44-6.61,9.13-8.89,2.76-1.7,6-3.82,8.82-1.22,9.77,9.12,20.19,4,30.2,1.44,5-1.27,9.53-2.39,14.4-.12,3,1.41,6.3,1.74,9.29.1,5.21-2.86,9.59-2.95,14.51,1.29s10.25,1.74,14.35-2.18c6.43-6.17,13.59-11.45,20.19-17.42,7.55-6.84,10.24-6.12,14.83,2.93,4,7.89,8.92,9.08,16.23,3.79,3.47-2.51,6.21-5.84,9.34-8.75,2.88-2.69,5.91-6,9.91-5.78,9.14.43,16.6-2.95,23.53-8.35,3.88-3,7-2.24,9.79,1.82,3.44,5,8.06,6.25,14,4.31,8.83-2.88,14,1.35,17.37,9.43,4.14,10.06,7.38,11.31,17.11,6.13,7.08-3.78,13.31-7.51,21.59-1.94,4.65,3.13,9.47-.74,13.36-4s7.87-6.11,11.79-9.18a19,19,0,0,1,5.46-2.73l1.5-.26,1.51.12c.48.15,1,.31,1.44.45.93.34,1.85.74,2.76,1.12,5.42,1.48,11,2.08,15.95,5.43,5.58,3.78,10.88,1.1,15.66-2.41,8.85-6.52,17.35-13.48,25.87-20.41,2.47-2,5-4.05,8.09-5,4.18-1.32,6.37-.11,4.83,4.63-1.09,3.32-3.5,6.48-2.28,10.14,2.22,6.69,7.52,6.74,13.05,5.21,5.17-1.42,7.6-.72,8.11,5.6.87,10.82,6.83,12.92,15.62,6.21,2.8-2.15,5-5.08,8.23-6.67a5.44,5.44,0,0,1,4.4.27c1.66,1.68,1,3.95,1.52,5.92,2.18,8.34,8.65,11,15.93,6.39,4.45-2.8,7.53-7.29,11.92-10.18.7-.52,1.46-1,2.21-1.44.34-.23.72-.45,1.06-.69.64-.49,1.3-.95,1.95-1.44.28-.25.61-.49.9-.75.54-.52,1.12-1,1.69-1.52.26-.26.54-.5.8-.75.51-.53,1.05-1,1.58-1.51.25-.26.52-.49.77-.75.48-.52,1-1,1.52-1.49,0,0,.77-.72.75-.73a21.09,21.09,0,0,1,1.5-1.49s.76-.73.74-.75c.48-.53,1-1,1.5-1.51.25-.27.51-.51.76-.77.49-.55,1-1.07,1.53-1.59.26-.28.53-.53.78-.81.51-.59,1-1.14,1.59-1.7.27-.3.55-.58.82-.89.53-.64,1.1-1.24,1.67-1.85.29-.33.59-.62.87-.95,2.93-2.83,5.51-6,8.83-8.41a6.7,6.7,0,0,1,2.73-.81c6.94,3,1.64,6.21-.29,8.58-4.88,6-11.22,10.64-15.7,17a26.31,26.31,0,0,1-1.61,2.3,27.46,27.46,0,0,0-3.67,5.84c-.34.9-.71,1.77-1.06,2.67-1.57,4.09-.84,8.19,2.1,10.9,4.81,4.44,8,9.79,11.34,15.25,3.8,6.16,12.56,6.19,19.75.33,6.61-5.38,12.19-11.92,18.33-17.84,14.11-13.59,32.53-11.58,42.9,4.61a86.46,86.46,0,0,0,9.3,11.64c6.14,6.72,16,4.33,25.66-5.71,6.24-6.57,13.17-8.85,22.14-5.27,7.77,3.1,15.53-.19,22.89-2.62,23.88-7.89,48.32-7.66,72.91-5.9,6.89,2.63,6,6.82,2.12,11.39-4.37,5.09-9.37,9.57-14.05,14.36-2.95,3-6.23,5.78-8.71,9.21-3.45,4.79-6.34,10.26-1.14,15.19,4.75,4.53,9.08.38,13.06-2.51,2.57-1.86,5.12-3.75,7.6-5.73a64.85,64.85,0,0,0,13.28-11c5.81-5.79,12.87-10.12,18.59-16a19.84,19.84,0,0,1,2.35-1.6,34.78,34.78,0,0,0,3.44-2.47c4-3.6,7.58-7.67,12.66-9.86a16.79,16.79,0,0,1,3-.93c5.32-.75,10.8-.29,16-2.12,19.48-1.08,38.93-2.51,58.35-4.18,2.52-.22,5.16-.24,7.31,1,7.09,4,13.74,1.75,20.4-1,7.63-3.15,15.46-5.25,23.8-5,4.87.16,8.61,1.59,11.3,6.37,5.06,9,8.15,9.59,16.92,4.7,3.09-1.73,5.92-3.93,9.16-5.43,11.89-4.91,9.09,6.09,12,11,3.68,6.93,9.18,7,15.48,4.16s11.75-6.72,17.38-10.5c2.33-1.57,5-3.44,7.74-1,2.27,2,1.25,4.7.23,7-7.39,16.41-5.12,30.46,9.8,41.64,4.38,3.28,5.32,8.18,5.7,13.32.46,6.3,2.79,11.53,10.09,11.35,6.76-.17,8.32,3.42,9.1,9.12,1.87,13.67,4,14.54,16.28,9.89,8.3-3.15,17-6.19,23.67,3.73,1.93,2.87,5.49,2.91,8.84,2.18,9.71-2.12,19.06-1.45,27.89,3.59,6,3.4,10.35.9,13.49-4.26,3.5-5.74,7.17-7.51,12.65-2.26,2.59,2.48,6.28,3.32,9.62,4.54,9.54,3.48,15.36,1.57,16.48-8.46,1.89-17,16.9-21.77,26.84-30.52,5.62-5,10.39-8.87,12.06-16.12.8-3.47,1.55-7,2.41-10.42,3.18-12.85,12.72-16.64,23.15-8.55,4.82,3.75,9,7.88,15.4,8.8,3.07.45,4.37,3.4,5.76,5.93,1.75,3.2,3.69,6.45,8,6a9.23,9.23,0,0,0,8.48-8.46c1.19-14.54,12.19-16.45,23-19,4.8,5.08,2.59,11.43,3,17.26.51,6.7-.69,13.47.86,20.1,7.19,10.05,11.58,9.76,18.12-1.24,2.51-8-.79-16.5,2.44-24.36a3.94,3.94,0,0,1,2.49-1.91c7.17,2.87,13.7,8.87,22.41,4.18,1.38-.74,3.38.68,4.89,1.64,9.19,5.87,18.24,9.58,27.93.52,3.34-3.12,4.91.17,5.53,3.19.91,4.42-1.38,8.29-2.38,12.38-1.24,5.11.09,9.41,5.17,11.39,5.57,2.16,8.45-1.57,10.8-5.93,3.79-7,2.09-15.49,5.92-22.51,3.12-4.3-1.11-13.93,5.91-13.59,5.13.25,2.93,8.95,3.38,14a14.87,14.87,0,0,0,4.34,9.3c5.83,7.33,12.35,7.32,19.56,2.06,3.44-2.51,7.08-4.77,10.49-7.33,6.57-4.95,12.75-7.51,19.65,0,4.22,4.56,10.54,3.85,16.19,3.59,22.75-1.06,45.35-4.07,67.89-7,60.79-8,121.72-12,183-10,4.19.31,8.41.13,12.6.51,3.24.29,7.39,1,8,4.05,2.45,11.42,13,16.93,18.13,26.23,7,7,17.6,9.62,21.82,20.37,1.91,4.85,9.72,2.64,12.5-3.08,2.32-4.77,1.78-10.45,4.61-15.08a4.94,4.94,0,0,1,4.3-1.09c4.61,2,6.33,6.44,8.84,10.2,6.47,9.73,10.95,10,18.62.88,1.59-1.89,3.17-3.79,4.82-5.62,2-2,2.44-4.78,3.28-7.35a5.43,5.43,0,0,1,1.81-2.11,6.33,6.33,0,0,1,2.83-.35,7.54,7.54,0,0,1,2.6,1.29,10.64,10.64,0,0,0,5.45,2.39c10.58-1.78,19.87-5.87,25.74-15.26,3.5-5.61,6.73-5.35,12.24-2.37,8.11,4.39,16.26,7.57,20.65,17,2.94,6.33,9.85,6.21,13.68-.19a44.79,44.79,0,0,1,22-19c7.84-3.34,7.29-11.52,6.53-18.78-2.2-21.15-.89-23.54,20.27-27.61,9.11-1.76,12.32-6.06,10.73-14.71-.92-5.06-1.13-10,2.33-14.28,4.78-5.89,5-12.33,2.69-19.16-2-6-2.43-11.69.74-17.56,3.53-6.53,1.94-13.54-.55-19.76-7.31-18.23.61-33.76,7.83-49.5.74-1.59,2.61-3.07,2.39-4.69-2.53-18.61,9.88-33.31,13-50.41a19.49,19.49,0,0,0-.13-8.5c-7.81-29.22-1.39-58.91-3.06-88.33-.17-3.21,0-6.8,2-9.3,7.34-9.22,6.38-19.94,6.51-30.64.68-51-.57-102-3-152.85-3-61,3.95-120.92,10.56-181.09,1.41-12.75,1.19-25.61,2.83-38.36.84-6.51-1.5-12.22-8.77-14-6.7-1.58-8.14-6.5-7.9-12.16,1-23.92-2.34-47.69-2.27-71.57a50.15,50.15,0,0,0-5.08-22.64c-6.68-13.81-3.79-28.82-2.9-43.2,1.33-21.68,2.41-43.37,3.65-65.05a84.23,84.23,0,0,1,2.82-17.9c2.46-7.48,4.3-15,3.92-23a20.25,20.25,0,0,1,3.6-13.13c10.27-14.5,9.32-30,3.47-45.75-1.59-4.26-.93-7.85-.37-12.19,1.87-14.48,7.79-27.87,3.48-44-4.77-17.88-3.14-37.55-.14-56.28,1.3-8.12,2-14.77-7-18.75-5.09-2.25-5.27-7.32-5.14-12,.42-15.29.41-30.61.89-45.9.46-14.79-.88-29.83-1-44.77a58.19,58.19,0,0,1,2.06-16.92c2.28-7.86,4.39-8.54,11-3.32a70,70,0,0,1,9,9.15c1.9,2.18,3.92,4.58,7.21,3.15,3-1.3,3.51-4.27,3.78-7.18.23-2.51-.31-5-.46-7.46-1-17.23-1.8-34.58-3.38-51.65-1.25-13.58-4.76-26,2.45-39.08,2.55-4.62-.19-11.17-1.91-16.68-3.73-12-5.31-24.36-6.1-36.84a40.19,40.19,0,0,1,5.56-23.45c7.3-12.66,5.68-27,4.46-40.81-.73-8.17-1.73-16.3-1.49-24.51s-.44-16.38-5.79-23.37c-2-2.62-3.52-6.27-2.31-9.06,3.88-8.91.95-18.85,4.93-27.74a19.8,19.8,0,0,0,.47-15.65c-1.35-3.41-1.81-7.23,0-10.41,4.61-8,1.08-12.94-5-18.23-5.38-4.67-10.13-10-16.59-13.31s-12.67-5.13-20.34-2.58c-10.33,3.44-18.59-.2-24.83-9.12-2.94-4.19-6-7.87-11.58-8.51-4.08-.47-6.89-3.37-9.79-6.11-11.5-10.89-20.7-10.41-32.53.12-9.13,8.13-19.66,13.87-32.7,11.86-3-.46-5.48,1-8.2,1.84-6.68,2-11.41-2.66-9-9.2,3.15-8.54-.74-16.54-1.68-24.55-.78-6.59-15.71-7.16-19.56-.27-7,12.55-16.83,17.79-30.87,15.81-3.2-.45-5.44,1.17-6.75,4.13-.58,1.29-1,3.25-2.18,3.57-13.55,3.76-8.52,13.75-7,21.92,1.94,10.36-4.37,18.33-6.89,27.33-1.16,4.18-6.38,5.51-10.79,5.68-5.71.22-11.35,1.45-17.07,1.13-4.09-.23-7.05,1.4-8.32,5.24-3,9.22-10.28,11.13-18.65,10.94-7.81-.17-13.83,1.52-16.39,10.26-1.94,6.61-7.34,8.11-13.79,6.3-3.87-1.09-8.1-2.44-10.09-5.67-6-9.81-14-13.21-25.18-10.22-4.09,1.1-7.23-2-10-5.06-4.7-5.18-10.51-7.14-17.37-5-2.05.65-4.89,2.08-6.12.69-10.2-11.5-24.15-5.79-36-6.86-14.56-1.33-29.31-4.2-44.56-1.09-9.29,1.89-19.79.17-29.73-.34-6.5-.34-12.84-.18-18.89,2.47-4.86,2.12-9.44,1.61-14.48,0-14.32-4.63-20.43-2.49-29.89,9.37-4.17,5.22-9.48,7.74-16,5.73-6.23-1.91-6.78-7.68-7.49-13-.43-3.19.38-6.41.29-9.6-.11-4,3.09-9.56-2.1-11.54a25.74,25.74,0,0,0-19.84.62c-5.23,2.4-4.17,7.4-3.75,12.18,1.34,15.32-1.87,30.47-2.37,45.75-.22,6.77-4.46,11.34-12.24,9.93-5.78-1-11.28,1.12-17,1-7.93-.17-11.57-3.47-11.89-11.6-.55-13.89,3.11-27.53,1.63-41.53-.61-5.83-2.28-10.45-6.45-14-5.18-4.43-10.43-1.61-14.29,3.63-11.39,15.45-4.39,32.33-5.12,48.56-.59,13-3.73,16.15-16.07,14.71-9-1-11.88-4.92-12-14.22-.08-8.9.64-17.7,1.44-26.53.55-6.09-.32-11.79-8.25-12.3-7.3-.47-14.63-.8-17.38,8.37-1.35,4.52-1.11,9.17-1.42,13.79-.72,10.76-4.12,13.57-15.09,12.66-1.42-.12.33.12-1-.16-6.94-1.44-14.7,1.31-20.92-2.9-6.54-4.44-3.22-12.6-5.46-18.86-2.39-6.7-4.64-11.73-13.11-10.87-8.32.85-12.65,4-13.1,13.26-.61,12.74-9.91,21.14-22.68,20.39-16-.93-32,1.23-48-.29-5.14-.49-9.77.78-11.33,5.87-2.47,8-7.56,10.57-15.36,9.61-8.76-1.08-10.1-7.76-11.43-14.61-2.48-12.7-13-20.83-25-18.86-5.94,1-12.1,2.65-16.86,6.35-5.16,4-11.12,3.62-16.6,5.37-19.35,6.21-41.41,3.45-58.34,17.7-7.6,6.38-16.85,4.54-25.68,3.6-4.67-.5-5.78-4.69-7.51-8.21-3-6-8.91-8.08-13.07-3.61-8.25,8.86-20.19,6.92-29.56,12.27s-19.8,6.92-30.62,2.17c-5.58-2.44-8.83.33-10.44,6.72-3.64,14.41-11.67,17-24.63,9.58-6.23-3.55-12.45-6.22-15.38-13.76-1.88-4.84-7.55-3.19-11.57-3.24-6.42-.07-12.86,1.13-17.72-4.79-1.81-2.22-4.39-1.68-6.87-.57-14.9,6.65-28.88,6.58-43.14-3-12.2-8.22-27.05-8.13-41.31-8.69-5.33-.21-10.68.14-16,.11-8.51,0-15.65-1.35-18-11.14a6,6,0,0,0-5.16-4.86c-3.67-.3-4.8,2.78-5.64,5.43-2.38,7.49-7.9,9.41-15,9.25-5.34-.13-10.69-.06-16,0-6.74.05-12.05-1.59-12.85-9.55-.4-3.93-2.48-6.6-6.49-7.53-1-.24-2.46-.32-3-1-6.8-9.45-11.64-7.12-19.29.46-7.07,7-32.26-.9-37.11-10a13.31,13.31,0,0,0-6.82-6.38,14.89,14.89,0,0,1-8.06-8c-4.53-10-8.3-10.84-14.91-2.25s-14.89,12.52-25.59,13c-8.23.32-12.72-3.38-14.76-10.88a72.51,72.51,0,0,1-2.75-25.34c.83-10.13-6-16.61-16.2-16.43-13.62.23-17,2.66-19.64,18-1.57,9-5.54,14.53-14.51,15.83-4.47.65-7.17,2.55-8.12,7-1.17,5.56-4.4,8.72-10.41,8.72-5.21,0-8.75-1.83-10.55-7.09a12.89,12.89,0,0,0-15.59-8.47c-18.42,4.47-36.63-2.77-55,.34-6,1-9.25,2.06-10.14,8-1.07,7.2-5.44,8.66-12.29,8.3a311.66,311.66,0,0,0-42.67.66c-13.17,1.12-14.53-.09-19-12.58-4-11.16-13.25-17.56-24-20.88-6.08-1.88-11.72,1.4-16.06,6.34-9.52,10.84-20.84,13.13-33.14,6.33-5.66-3.13-10.52-6-15.81.74-3.13,4-8,1.43-12.17,1.63-5.81.27-11.43.11-11.6,8.69-.13,5.93-5.38,7.9-10.43,9.14-5.86,1.45-11.2-.3-14-5.31-4.09-7.35-10.38-9.94-17.93-11.83-12-3-16.79-9.87-16.71-22.39.08-12-.43-12.55-12.47-12.77-6.4-.13-12.9.48-18.81-2.86-5.31-3-9.29,2.84-14.25,2.21a12.44,12.44,0,0,1-3.09-.48c-5.22-2.48-9-6.73-12.18-11.27-5.22-7.51-10.81-8-17.46-2.23-1.73,1-3.42,2.29-5.57,1.07"/></g></g><g id="Vrstva_1" data-name="Vrstva 1"><g class="cls-4"><g class="cls-5"><path class="cls-3" d="M585.69,1302.72V643.05H7911v5491.3H585.69V5572c7.16-7.91,13.63-16.55,22.89-22.27,6.91-4.27,15.12-9.59,22.1-3.06,24.46,22.86,50.56,9.94,75.64,3.6,12.62-3.19,23.88-6,36.1-.3,7.59,3.53,15.76,4.35,23.26.25,13.06-7.16,24-7.39,36.37,3.23s25.68,4.38,35.94-5.46c16.11-15.46,34.06-28.69,50.59-43.65,18.92-17.13,25.67-15.33,37.16,7.36,10,19.75,22.35,22.75,40.65,9.49,8.69-6.29,15.58-14.63,23.4-21.92,7.22-6.75,14.83-14.95,24.85-14.49,22.89,1.08,41.59-7.39,58.94-20.91,9.72-7.56,17.54-5.62,24.52,4.55,8.63,12.57,20.22,15.66,35.1,10.81,22.15-7.23,35.19,3.38,43.53,23.6,10.38,25.2,18.5,28.35,42.86,15.36,17.76-9.46,33.36-18.79,54.1-4.85,11.67,7.83,23.73-1.84,33.49-10.11,9.54-8.07,19.7-15.32,29.53-23a47.73,47.73,0,0,1,13.67-6.83c1.24-.24,2.51-.44,3.76-.67,1.26.09,2.53.22,3.79.31,1.19.37,2.39.79,3.6,1.14,2.33.85,4.63,1.83,6.92,2.79,13.58,3.71,27.59,5.22,40,13.6,14,9.48,27.27,2.75,39.23-6,22.17-16.31,43.47-33.75,64.82-51.12,6.21-5.05,12.55-10.14,20.26-12.58,10.48-3.31,16-.27,12.1,11.59-2.72,8.33-8.75,16.23-5.7,25.42,5.58,16.75,18.84,16.89,32.71,13.05,13-3.58,19-1.8,20.31,14,2.19,27.11,17.12,32.37,39.13,15.56,7-5.37,12.47-12.71,20.64-16.7a13.52,13.52,0,0,1,11,.68c4.15,4.21,2.5,9.89,3.79,14.82,5.47,20.89,21.7,27.48,39.93,16,11.16-7,18.85-18.26,29.85-25.51,1.78-1.3,3.68-2.48,5.56-3.6.85-.59,1.79-1.13,2.65-1.72,1.59-1.23,3.27-2.4,4.87-3.61.73-.64,1.53-1.24,2.25-1.87,1.37-1.32,2.82-2.56,4.24-3.82.66-.64,1.37-1.25,2-1.9,1.26-1.3,2.62-2.54,4-3.77.62-.64,1.3-1.24,1.93-1.87,1.2-1.31,2.5-2.53,3.8-3.73,0,0,1.93-1.81,1.88-1.85,1.18-1.31,2.46-2.52,3.75-3.72-.05-.05,1.91-1.82,1.87-1.87,1.18-1.34,2.46-2.57,3.76-3.8.62-.66,1.27-1.26,1.89-1.93,1.24-1.37,2.54-2.66,3.85-4,.64-.7,1.31-1.34,2-2,1.28-1.48,2.63-2.85,4-4.26.67-.76,1.36-1.45,2-2.21,1.34-1.61,2.75-3.11,4.19-4.65.73-.82,1.48-1.56,2.2-2.38,7.33-7.08,13.78-15.05,22.12-21.07a16.36,16.36,0,0,1,6.82-2c17.38,7.62,4.11,15.56-.73,21.49-12.22,15-28.1,26.66-39.33,42.61a65.44,65.44,0,0,1-4,5.76,68.4,68.4,0,0,0-9.17,14.63c-.86,2.26-1.8,4.44-2.68,6.67-3.93,10.25-2.09,20.53,5.28,27.33,12,11.12,20,24.52,28.41,38.19,9.53,15.44,31.46,15.52,49.47.85,16.58-13.5,30.54-29.88,45.93-44.71,35.36-34,81.52-29,107.47,11.55,6.73,10.51,15,20,23.31,29.15,15.38,16.85,40.21,10.86,64.29-14.29,15.63-16.47,33-22.18,55.47-13.2,19.47,7.78,38.93-.47,57.37-6.57,59.81-19.77,121.05-19.19,182.66-14.77,17.27,6.56,15.15,17.09,5.31,28.53-11,12.74-23.47,24-35.19,36-7.41,7.57-15.61,14.47-21.83,23.08-8.65,12-15.89,25.68-2.87,38.05,11.92,11.33,22.76.94,32.74-6.3,6.44-4.66,12.82-9.41,19-14.34,12-8,23.66-16.58,33.26-27.58,14.56-14.5,32.25-25.36,46.58-40.13a50,50,0,0,1,5.88-4,87,87,0,0,0,8.63-6.19c9.95-9,19-19.21,31.72-24.69a39.52,39.52,0,0,1,7.5-2.34c13.34-1.87,27.06-.72,40.05-5.32q73.2-4.06,146.2-10.47c6.3-.54,12.93-.59,18.31,2.47,17.77,10.09,34.43,4.38,51.11-2.49,19.12-7.87,38.74-13.16,59.62-12.48,12.21.4,21.59,4,28.33,16,12.66,22.52,20.4,24,42.37,11.76,7.76-4.34,14.85-9.83,23-13.6,29.79-12.28,22.79,15.27,30,27.55,9.23,17.35,23,17.49,38.8,10.42,15.6-7,29.43-16.84,43.53-26.31,5.85-3.93,12.54-8.62,19.4-2.49,5.68,5.08,3.13,11.78.58,17.44-18.51,41.13-12.84,76.33,24.54,104.34,11,8.22,13.34,20.5,14.29,33.37,1.16,15.77,7,28.89,25.28,28.42,16.93-.43,20.85,8.58,22.8,22.86,4.68,34.24,9.92,36.44,40.78,24.76,20.81-7.87,42.59-15.49,59.3,9.35,4.84,7.2,13.77,7.31,22.17,5.48,24.33-5.31,47.76-3.63,69.86,9,14.93,8.53,25.94,2.26,33.82-10.68,8.75-14.37,18-18.8,31.68-5.66,6.49,6.21,15.74,8.33,24.1,11.38,23.9,8.72,38.49,3.94,41.28-21.21,4.74-42.66,42.35-54.53,67.26-76.45,14.08-12.4,26-22.22,30.21-40.39,2-8.71,3.88-17.45,6-26.12,8-32.18,31.88-41.69,58-21.41,12.09,9.39,22.54,19.75,38.61,22.06,7.69,1.11,10.94,8.52,14.41,14.85,4.39,8,9.25,16.16,20,14.95,12.3-1.38,20.37-10.39,21.25-21.19,3-36.42,30.53-41.21,57.54-47.51,12,12.74,6.51,28.64,7.61,43.26,1.26,16.78-1.75,33.75,2.15,50.36,18,25.18,29,24.46,45.39-3.13,6.3-19.95-2-41.32,6.11-61a9.82,9.82,0,0,1,6.24-4.77c18,7.18,34.32,22.2,56.16,10.46,3.45-1.86,8.46,1.69,12.24,4.11,23,14.71,45.69,24,70,1.3,8.37-7.82,12.3.42,13.86,8,2.27,11.06-3.45,20.77-6,31-3.12,12.78.2,23.56,12.94,28.52,14,5.43,21.17-3.94,27.06-14.86,9.5-17.61,5.23-38.81,14.82-56.39,7.83-10.78-2.79-34.89,14.83-34,12.83.63,7.34,22.42,8.45,35,.83,9.41,4.63,16.75,10.87,23.3,14.61,18.38,31,18.35,49,5.18,8.63-6.3,17.75-12,26.3-18.39,16.45-12.38,31.95-18.8,49.23-.08,10.56,11.45,26.41,9.68,40.55,9,57-2.67,113.63-10.2,170.11-17.6,152.29-19.94,305-30.15,458.53-25.11,10.49.76,21.06.31,31.56,1.26,8.13.74,18.52,2.56,20.14,10.14,6.11,28.61,32.49,42.43,45.42,65.73,17.54,17.47,44.08,24.1,54.66,51,4.77,12.15,24.34,6.61,31.31-7.71,5.82-12,4.45-26.18,11.54-37.8a12.45,12.45,0,0,1,10.78-2.74c11.54,4.9,15.86,16.15,22.14,25.58,16.23,24.37,27.45,25,46.67,2.2,4-4.74,7.94-9.51,12.07-14.08,5-5.12,6.11-12,8.23-18.41a13.41,13.41,0,0,1,4.53-5.29,15.74,15.74,0,0,1,7.07-.88,19.19,19.19,0,0,1,6.53,3.23,26.9,26.9,0,0,0,13.65,6c26.52-4.46,49.8-14.71,64.5-38.25,8.76-14.05,16.85-13.4,30.66-5.93,20.32,11,40.74,18.95,51.75,42.71,7.37,15.88,24.66,15.56,34.28-.48,13.53-22.55,31-37.23,55.19-47.52,19.62-8.36,18.26-28.87,16.36-47.06-5.52-53-2.25-59,50.78-69.18,22.81-4.39,30.86-15.18,26.89-36.85-2.33-12.67-2.85-25.1,5.83-35.78,12-14.75,12.58-30.89,6.75-48-5.08-14.91-6.11-29.28,1.84-44,8.86-16.37,4.87-33.94-1.37-49.5-18.33-45.7,1.52-84.58,19.63-124,1.83-4,6.52-7.71,6-11.75-6.34-46.64,24.76-83.47,32.64-126.32,1.31-7.14,1.52-14.38-.33-21.3-19.55-73.19-3.49-147.6-7.64-221.31-.46-8-.14-17,4.86-23.29,18.41-23.08,16-50,16.33-76.76,1.69-127.75-1.43-255.68-7.61-383-7.43-152.92,9.91-303,26.48-453.72,3.51-31.95,3-64.16,7.08-96.12,2.1-16.3-3.75-30.59-22-34.93-16.79-4-20.39-16.29-19.79-30.49,2.53-59.93-5.87-119.48-5.68-179.3a125.59,125.59,0,0,0-12.75-56.74c-16.72-34.58-9.48-72.2-7.25-108.24,3.35-54.31,6-108.65,9.13-163a211,211,0,0,1,7.09-44.86c6.15-18.73,10.76-37.69,9.81-57.72-.55-11.8,1.85-22.77,9-32.9,25.72-36.32,23.37-75.29,8.69-114.64-4-10.66-2.31-19.66-.91-30.54,4.66-36.29,19.51-69.82,8.71-110.25-12-44.82-7.87-94.09-.35-141,3.25-20.35,4.91-37-17.56-47-12.77-5.66-13.21-18.36-12.89-30.07,1.05-38.33,1-76.7,2.22-115,1.16-37.06-2.18-74.72-2.49-112.16-.12-14.4,1.12-28.55,5.15-42.4,5.72-19.7,11-21.41,27.47-8.31,8.41,6.69,15.47,14.83,22.51,22.92,4.76,5.47,9.82,11.47,18.06,7.88,7.47-3.25,8.79-10.69,9.47-18,.59-6.28-.78-12.46-1.15-18.69-2.55-43.17-4.53-86.61-8.47-129.39-3.13-34-11.94-65.15,6.14-97.92,6.37-11.56-.48-28-4.78-41.78-9.36-30-13.32-61-15.3-92.3-1.32-20.92,3-39.85,13.92-58.75,18.3-31.74,14.25-67.66,11.18-102.26-1.81-20.47-4.32-40.84-3.72-61.4.61-20.93-1.12-41-14.5-58.55-5-6.57-8.85-15.72-5.81-22.7,9.72-22.34,2.39-47.24,12.36-69.52,5.5-12.29,6.44-25.85,1.18-39.2-3.38-8.56-4.54-18.11.05-26.1,11.55-20.07,2.7-32.4-12.59-45.67-13.47-11.68-25.37-25.15-41.55-33.34s-31.75-12.84-51-6.45c-25.87,8.61-46.57-.51-62.22-22.86-7.35-10.5-14.91-19.72-29-21.33-10.23-1.17-17.28-8.44-24.53-15.3-28.83-27.28-51.86-26.09-81.52.31-22.87,20.35-49.24,34.75-81.92,29.71-7.56-1.17-13.74,2.58-20.54,4.59-16.76,5-28.6-6.66-22.55-23,7.9-21.39-1.86-41.43-4.22-61.51-1.94-16.51-39.35-17.95-49-.68-17.59,31.46-42.15,44.58-77.34,39.62-8-1.13-13.63,2.93-16.91,10.33-1.45,3.25-2.54,8.15-5.46,9-33.94,9.42-21.34,34.46-17.51,54.91,4.86,26-10.95,45.93-17.25,68.49-2.93,10.48-16,13.8-27.06,14.23-14.3.55-28.42,3.61-42.75,2.82-10.26-.57-17.68,3.5-20.85,13.14-7.59,23.09-25.76,27.88-46.73,27.41-19.55-.43-34.64,3.79-41.06,25.7-4.86,16.56-18.39,20.31-34.56,15.78-9.69-2.72-20.28-6.1-25.27-14.2-15.15-24.57-35-33.09-63.09-25.59-10.25,2.73-18.11-5.1-25-12.71-11.77-13-26.32-17.88-43.51-12.5-5.16,1.61-12.25,5.21-15.34,1.72-25.56-28.81-60.5-14.51-90.14-17.2-36.5-3.32-73.44-10.5-111.65-2.73-23.27,4.74-49.59.44-74.49-.86-16.29-.84-32.18-.43-47.33,6.2-12.17,5.33-23.64,4-36.29-.06-35.88-11.61-51.18-6.24-74.87,23.45-10.45,13.1-23.77,19.4-40.14,14.38-15.6-4.79-17-19.24-18.77-32.59-1.06-8,1-16.07.73-24.07-.28-10,7.74-24-5.27-28.92a64.46,64.46,0,0,0-49.7,1.57c-13.11,6-10.45,18.54-9.4,30.51,3.36,38.4-4.69,76.35-5.93,114.63-.55,17-11.18,28.41-30.68,24.88-14.46-2.61-28.25,2.8-42.58,2.5-19.87-.42-29-8.69-29.79-29.06-1.37-34.81,7.79-69,4.08-104.06-1.54-14.6-5.72-26.17-16.16-35.11-13-11.11-26.14-4-35.81,9.08-28.54,38.72-11,81-12.82,121.67-1.48,32.59-9.34,40.47-40.26,36.87-22.62-2.63-29.78-12.33-30-35.65-.21-22.3,1.59-44.34,3.6-66.47,1.39-15.25-.8-29.54-20.68-30.82-18.28-1.17-36.65-2-43.53,21-3.39,11.32-2.77,23-3.55,34.55-1.81,27-10.34,34-37.82,31.74-3.56-.3.84.31-2.64-.42-17.38-3.6-36.82,3.3-52.4-7.26-16.39-11.12-8.08-31.57-13.67-47.25-6-16.79-11.65-29.38-32.87-27.23-20.85,2.12-31.69,10.07-32.81,33.22-1.54,31.92-24.82,53-56.84,51.09-40.16-2.34-80.23,3.08-120.27-.74-12.87-1.23-24.47,2-28.4,14.73-6.18,20.11-18.94,26.46-38.48,24-21.94-2.71-25.3-19.43-28.64-36.58-6.21-31.83-32.43-52.21-62.63-47.26-14.87,2.44-30.32,6.63-42.24,15.91-12.92,10.07-27.87,9.06-41.59,13.46-48.47,15.54-103.76,8.65-146.18,44.32-19,16-42.21,11.39-64.33,9-11.71-1.25-14.48-11.73-18.82-20.57-7.45-15.16-22.33-20.24-32.75-9-20.67,22.19-50.57,17.35-74.06,30.73-23.64,13.47-49.6,17.36-76.71,5.46-14-6.13-22.12.82-26.16,16.81-9.12,36.12-29.23,42.57-61.71,24-15.62-8.91-31.21-15.59-38.54-34.49-4.7-12.12-18.9-8-29-8.11-16.07-.17-32.2,2.83-44.38-12-4.55-5.54-11-4.21-17.22-1.43-37.33,16.66-72.35,16.5-108.09-7.61-30.56-20.61-67.77-20.36-103.49-21.78-13.36-.53-26.76.35-40.16.29-21.33-.09-39.23-3.39-45.24-27.93-1.49-6.07-5.92-11.59-12.92-12.16-9.21-.75-12,7-14.13,13.59-6,18.77-19.8,23.6-37.52,23.18-13.4-.32-26.81-.16-40.21-.07-16.89.12-30.19-4-32.19-23.93-1-9.83-6.21-16.52-16.25-18.86-2.6-.61-6.16-.8-7.47-2.63-17-23.68-29.17-17.84-48.33,1.15-17.72,17.56-80.84-2.25-93-25-4.08-7.66-9.45-12.72-17.1-16-9.44-4-15.76-10.5-20.17-20.18-11.37-25-20.81-27.17-37.38-5.64-16.84,21.88-37.31,31.39-64.1,32.44-20.63.81-31.86-8.45-37-27.24-5.69-20.78-8.67-41.61-6.89-63.48,2.07-25.4-15.12-41.64-40.58-41.19-34.12.59-42.56,6.69-49.22,45-3.93,22.61-13.87,36.39-36.36,39.66-11.19,1.63-18,6.4-20.32,17.65-2.94,13.92-11,21.83-26.09,21.84-13.06,0-21.92-4.59-26.45-17.78-6.35-18.5-24.05-24.84-39-21.21-46.15,11.19-91.77-6.94-137.86.86-14.94,2.53-23.17,5.15-25.4,20.15-2.69,18-13.62,21.67-30.81,20.77a781.58,781.58,0,0,0-106.89,1.67c-33,2.8-36.4-.24-47.55-31.53-9.95-28-33.21-44-60.23-52.32-15.23-4.69-29.38,3.52-40.24,15.88-23.86,27.18-52.22,32.91-83,15.87-14.19-7.84-26.37-15-39.6,1.87-7.85,10-20.16,3.56-30.51,4.06-14.56.69-28.63.28-29.07,21.78-.31,14.87-13.48,19.79-26.11,22.91-14.7,3.64-28.08-.75-35.08-13.32-10.24-18.42-26-24.89-44.91-29.62-30.15-7.54-42.07-24.73-41.86-56.12.21-30.1-1.07-31.42-31.26-32-16-.31-32.29,1.22-47.11-7.16-13.3-7.52-23.29,7.12-35.71,5.54a30.71,30.71,0,0,1-7.73-1.22c-13.09-6.2-22.59-16.84-30.52-28.23-13.08-18.81-27.09-20-43.76-5.57C595.32,1302.62,591.09,1305.78,585.69,1302.72Z"/></g></g><g class="cls-6"><g class="cls-5"><path class="cls-3" d="M-1616.31,1252.72V593.05H5709v5491.3H-1616.31V5522c7.16-7.91,13.63-16.55,22.89-22.27,6.91-4.27,15.12-9.59,22.1-3.06,24.46,22.86,50.56,9.94,75.64,3.6,12.62-3.19,23.88-6,36.1-.3,7.59,3.53,15.76,4.35,23.26.25,13.06-7.16,24-7.39,36.37,3.23s25.68,4.38,35.94-5.46c16.11-15.46,34.06-28.69,50.59-43.65,18.92-17.13,25.67-15.33,37.16,7.36,10,19.75,22.35,22.75,40.65,9.49,8.69-6.29,15.58-14.63,23.4-21.92,7.22-6.75,14.83-14.95,24.85-14.49,22.89,1.08,41.59-7.39,58.94-20.91,9.72-7.56,17.54-5.62,24.52,4.55,8.63,12.57,20.22,15.66,35.1,10.81,22.15-7.23,35.19,3.38,43.53,23.6,10.38,25.2,18.5,28.35,42.86,15.36,17.76-9.46,33.36-18.79,54.1-4.85,11.67,7.83,23.73-1.84,33.49-10.11,9.54-8.07,19.7-15.32,29.53-23a47.73,47.73,0,0,1,13.67-6.83c1.24-.24,2.51-.44,3.76-.67,1.26.09,2.53.22,3.79.31,1.19.37,2.39.79,3.6,1.14,2.33.85,4.63,1.83,6.92,2.79,13.58,3.71,27.59,5.22,40,13.6,14,9.48,27.27,2.75,39.23-6,22.17-16.31,43.47-33.75,64.82-51.12,6.21-5.05,12.55-10.14,20.26-12.58,10.48-3.31,16-.27,12.1,11.59-2.72,8.33-8.75,16.23-5.7,25.42,5.58,16.75,18.84,16.89,32.71,13.05,12.95-3.58,19-1.8,20.31,14,2.19,27.11,17.12,32.37,39.13,15.56,7-5.37,12.47-12.71,20.64-16.7a13.52,13.52,0,0,1,11,.68c4.15,4.21,2.5,9.89,3.79,14.82,5.47,20.89,21.7,27.48,39.93,16,11.16-7,18.85-18.26,29.85-25.51,1.78-1.3,3.68-2.48,5.56-3.6.85-.59,1.79-1.13,2.65-1.72,1.59-1.23,3.27-2.4,4.87-3.61.73-.64,1.53-1.24,2.25-1.87,1.37-1.32,2.82-2.56,4.24-3.82.66-.64,1.37-1.25,2-1.9,1.26-1.3,2.62-2.54,4-3.77.62-.64,1.3-1.24,1.93-1.87,1.2-1.31,2.5-2.53,3.8-3.73,0,0,1.93-1.81,1.88-1.85,1.18-1.31,2.46-2.52,3.75-3.72,0-.05,1.91-1.82,1.87-1.87,1.18-1.34,2.46-2.57,3.76-3.8.62-.66,1.27-1.26,1.89-1.93,1.24-1.37,2.54-2.66,3.85-4,.64-.7,1.31-1.34,2-2,1.28-1.48,2.63-2.85,4-4.26.67-.76,1.36-1.45,2-2.21,1.34-1.61,2.75-3.11,4.19-4.65.73-.82,1.48-1.56,2.2-2.38,7.33-7.08,13.78-15.05,22.12-21.07a16.36,16.36,0,0,1,6.82-2c17.38,7.62,4.11,15.56-.73,21.49-12.22,15-28.1,26.66-39.33,42.61a65.44,65.44,0,0,1-4,5.76,68.4,68.4,0,0,0-9.17,14.63c-.86,2.26-1.8,4.44-2.68,6.67-3.93,10.25-2.09,20.53,5.28,27.33,12.05,11.12,20,24.52,28.41,38.19,9.53,15.44,31.46,15.52,49.47.85,16.58-13.5,30.54-29.88,45.93-44.71,35.36-34,81.52-29,107.47,11.55,6.73,10.51,15,20,23.31,29.15,15.38,16.85,40.21,10.86,64.29-14.29,15.63-16.47,33-22.18,55.47-13.2,19.47,7.78,38.93-.47,57.37-6.57,59.81-19.77,121-19.19,182.66-14.77,17.27,6.56,15.15,17.09,5.31,28.53-11,12.74-23.47,24-35.19,36-7.41,7.57-15.61,14.47-21.83,23.08-8.65,12-15.89,25.68-2.87,38.05,11.92,11.33,22.76.94,32.74-6.3,6.44-4.66,12.82-9.41,19.05-14.34,12-8,23.66-16.58,33.26-27.58,14.56-14.5,32.25-25.36,46.58-40.13a50,50,0,0,1,5.88-4,87,87,0,0,0,8.63-6.19c10-9,19-19.21,31.72-24.69a39.52,39.52,0,0,1,7.5-2.34c13.34-1.87,27.06-.72,40.05-5.32q73.2-4.06,146.2-10.47c6.3-.54,12.93-.59,18.31,2.47,17.77,10.09,34.43,4.38,51.11-2.49,19.12-7.87,38.74-13.16,59.62-12.48,12.21.4,21.59,4,28.33,16,12.66,22.52,20.4,24,42.37,11.76,7.76-4.34,14.85-9.83,23-13.6,29.79-12.28,22.79,15.27,30,27.55,9.23,17.35,23,17.49,38.8,10.42,15.6-7,29.43-16.84,43.53-26.31,5.85-3.93,12.54-8.62,19.4-2.49,5.68,5.08,3.13,11.78.58,17.44-18.51,41.13-12.84,76.33,24.54,104.34,11,8.22,13.34,20.5,14.29,33.37,1.16,15.77,7,28.89,25.28,28.42,16.93-.43,20.85,8.58,22.8,22.86,4.68,34.24,9.92,36.44,40.78,24.76,20.81-7.87,42.59-15.49,59.3,9.35,4.84,7.2,13.77,7.31,22.17,5.48,24.33-5.31,47.76-3.63,69.86,9,14.93,8.53,25.94,2.26,33.82-10.68,8.75-14.37,18-18.8,31.68-5.66,6.49,6.21,15.74,8.33,24.1,11.38,23.9,8.72,38.49,3.94,41.28-21.21,4.74-42.66,42.35-54.53,67.26-76.45,14.08-12.4,26-22.22,30.21-40.39,2-8.71,3.88-17.45,6-26.12,8-32.18,31.88-41.69,58-21.41,12.09,9.39,22.54,19.75,38.61,22.06,7.69,1.11,10.94,8.52,14.41,14.85,4.39,8,9.25,16.16,20,14.95,12.3-1.38,20.37-10.39,21.25-21.19,3-36.42,30.53-41.21,57.54-47.51,12,12.74,6.51,28.64,7.61,43.26,1.26,16.78-1.75,33.75,2.15,50.36,18,25.18,29,24.46,45.39-3.13,6.3-19.95-2-41.32,6.11-61a9.82,9.82,0,0,1,6.24-4.77c18,7.18,34.32,22.2,56.16,10.46,3.45-1.86,8.46,1.69,12.24,4.11,23,14.71,45.69,24,70,1.3,8.37-7.82,12.3.42,13.86,8,2.27,11.06-3.45,20.77-6,31-3.12,12.78.2,23.56,12.94,28.52,14,5.43,21.17-3.94,27.06-14.86,9.5-17.61,5.23-38.81,14.82-56.39,7.83-10.78-2.79-34.89,14.83-34,12.83.63,7.34,22.42,8.45,35,.83,9.41,4.63,16.75,10.87,23.3,14.61,18.38,31,18.35,49,5.18,8.63-6.3,17.75-12,26.3-18.39,16.45-12.38,32-18.8,49.23-.08,10.56,11.45,26.41,9.68,40.55,9,57-2.67,113.63-10.2,170.11-17.6,152.29-19.94,305-30.15,458.53-25.11,10.49.76,21.06.31,31.56,1.26,8.13.74,18.52,2.56,20.14,10.14,6.11,28.61,32.49,42.43,45.42,65.73,17.54,17.47,44.08,24.1,54.66,51,4.77,12.15,24.34,6.61,31.31-7.71,5.82-12,4.45-26.18,11.54-37.8a12.45,12.45,0,0,1,10.78-2.74c11.54,4.9,15.86,16.15,22.14,25.58,16.23,24.37,27.45,25,46.67,2.2,4-4.74,7.94-9.51,12.07-14.08,5-5.12,6.11-12,8.23-18.41a13.41,13.41,0,0,1,4.53-5.29,15.74,15.74,0,0,1,7.07-.88,19.19,19.19,0,0,1,6.53,3.23,26.9,26.9,0,0,0,13.65,6c26.52-4.46,49.8-14.71,64.5-38.25,8.76-14.05,16.85-13.4,30.66-5.93,20.32,11,40.74,18.95,51.75,42.71,7.37,15.88,24.66,15.56,34.28-.48,13.53-22.55,31-37.23,55.19-47.52,19.62-8.36,18.26-28.87,16.36-47.06-5.52-53-2.25-59,50.78-69.18,22.81-4.39,30.86-15.18,26.89-36.85-2.33-12.67-2.85-25.1,5.83-35.78,12-14.75,12.58-30.89,6.75-48-5.08-14.91-6.11-29.28,1.84-44,8.86-16.37,4.87-33.94-1.37-49.5-18.33-45.7,1.52-84.58,19.63-124,1.83-4,6.52-7.71,6-11.75-6.34-46.64,24.76-83.47,32.64-126.32,1.31-7.14,1.52-14.38-.33-21.3-19.55-73.19-3.49-147.6-7.64-221.31-.46-8-.14-17,4.86-23.29,18.41-23.08,16-50,16.33-76.76,1.69-127.75-1.43-255.68-7.61-383-7.43-152.92,9.91-303,26.48-453.72,3.51-31.95,3-64.16,7.08-96.12,2.1-16.3-3.75-30.59-22-34.93-16.79-4-20.39-16.29-19.79-30.49,2.53-59.93-5.87-119.48-5.68-179.3a125.59,125.59,0,0,0-12.75-56.74c-16.72-34.58-9.48-72.2-7.25-108.24,3.35-54.31,6-108.65,9.13-163a211,211,0,0,1,7.09-44.86c6.15-18.73,10.76-37.69,9.81-57.72-.55-11.8,1.85-22.77,9-32.9,25.72-36.32,23.37-75.29,8.69-114.64-4-10.66-2.31-19.66-.91-30.54,4.66-36.29,19.51-69.82,8.71-110.25-12-44.82-7.87-94.09-.35-141,3.25-20.35,4.91-37-17.56-47-12.77-5.66-13.21-18.36-12.89-30.07,1.05-38.33,1-76.7,2.22-115,1.16-37.06-2.18-74.72-2.49-112.16-.12-14.4,1.12-28.55,5.15-42.4,5.72-19.7,11-21.41,27.47-8.31,8.41,6.69,15.47,14.83,22.51,22.92,4.76,5.47,9.82,11.47,18.06,7.88,7.47-3.25,8.79-10.69,9.47-18,.59-6.28-.78-12.46-1.15-18.69-2.55-43.17-4.53-86.61-8.47-129.39-3.13-34-11.94-65.15,6.14-97.92,6.37-11.56-.48-28-4.78-41.78-9.36-30-13.32-61-15.3-92.3-1.32-20.92,3-39.85,13.92-58.75,18.3-31.74,14.25-67.66,11.18-102.26-1.81-20.47-4.32-40.84-3.72-61.4.61-20.93-1.12-41-14.5-58.55-5-6.57-8.85-15.72-5.81-22.7,9.72-22.34,2.39-47.24,12.36-69.52,5.5-12.29,6.44-25.85,1.18-39.2-3.38-8.56-4.54-18.11,0-26.1,11.55-20.07,2.7-32.4-12.59-45.67-13.47-11.68-25.37-25.15-41.55-33.34s-31.75-12.84-51-6.45c-25.87,8.61-46.57-.51-62.22-22.86-7.35-10.5-14.91-19.72-29-21.33-10.23-1.17-17.28-8.44-24.53-15.3-28.83-27.28-51.86-26.09-81.52.31-22.87,20.35-49.24,34.75-81.92,29.71-7.56-1.17-13.74,2.58-20.54,4.59-16.76,5-28.6-6.66-22.55-23,7.9-21.39-1.86-41.43-4.22-61.51-1.94-16.51-39.35-17.95-49-.68-17.59,31.46-42.15,44.58-77.34,39.62-8-1.13-13.63,2.93-16.91,10.33-1.45,3.25-2.54,8.15-5.46,9-33.94,9.42-21.34,34.46-17.51,54.91,4.86,26-10.95,45.93-17.25,68.49-2.93,10.48-16,13.8-27.06,14.23-14.3.55-28.42,3.61-42.75,2.82-10.26-.57-17.68,3.5-20.85,13.14-7.59,23.09-25.76,27.88-46.73,27.41-19.55-.43-34.64,3.79-41.06,25.7-4.86,16.56-18.39,20.31-34.56,15.78-9.69-2.72-20.28-6.1-25.27-14.2-15.15-24.57-35-33.09-63.09-25.59-10.25,2.73-18.11-5.1-25-12.71-11.77-13-26.32-17.88-43.51-12.5-5.16,1.61-12.25,5.21-15.34,1.72-25.56-28.81-60.5-14.51-90.14-17.2-36.5-3.32-73.44-10.5-111.65-2.73-23.27,4.74-49.59.44-74.49-.86-16.29-.84-32.18-.43-47.33,6.2-12.17,5.33-23.64,4-36.29-.06-35.88-11.61-51.18-6.24-74.87,23.45-10.45,13.1-23.77,19.4-40.14,14.38-15.6-4.79-17-19.24-18.77-32.59-1.06-8,1-16.07.73-24.07-.28-10,7.74-24-5.27-28.92a64.46,64.46,0,0,0-49.7,1.57c-13.11,6-10.45,18.54-9.4,30.51,3.36,38.4-4.69,76.35-5.93,114.63-.55,17-11.18,28.41-30.68,24.88-14.46-2.61-28.25,2.8-42.58,2.5-19.87-.42-29-8.69-29.79-29.06-1.37-34.81,7.79-69,4.08-104.06-1.54-14.6-5.72-26.17-16.16-35.11-13-11.11-26.14-4-35.81,9.08-28.54,38.72-11,81-12.82,121.67-1.48,32.59-9.34,40.47-40.26,36.87-22.62-2.63-29.78-12.33-30-35.65-.21-22.3,1.59-44.34,3.6-66.47,1.39-15.25-.8-29.54-20.68-30.82-18.28-1.17-36.65-2-43.53,21-3.39,11.32-2.77,23-3.55,34.55-1.81,27-10.34,34-37.82,31.74-3.56-.3.84.31-2.64-.42-17.38-3.6-36.82,3.3-52.4-7.26-16.39-11.12-8.08-31.57-13.67-47.25-6-16.79-11.65-29.38-32.87-27.23-20.85,2.12-31.69,10.07-32.81,33.22-1.54,31.92-24.82,53-56.84,51.09-40.16-2.34-80.23,3.08-120.27-.74-12.87-1.23-24.47,2-28.4,14.73-6.18,20.11-18.94,26.46-38.48,24-21.94-2.71-25.3-19.43-28.64-36.58-6.21-31.83-32.43-52.21-62.63-47.26-14.87,2.44-30.32,6.63-42.24,15.91-12.92,10.07-27.87,9.06-41.59,13.46-48.47,15.54-103.76,8.65-146.18,44.32-19,16-42.21,11.39-64.33,9-11.71-1.25-14.48-11.73-18.82-20.57-7.45-15.16-22.33-20.24-32.75-9-20.67,22.19-50.57,17.35-74.06,30.73s-49.6,17.36-76.71,5.46c-14-6.13-22.12.82-26.16,16.81-9.12,36.12-29.23,42.57-61.71,24-15.62-8.91-31.21-15.59-38.54-34.49-4.7-12.12-18.9-8-29-8.11-16.07-.17-32.2,2.83-44.38-12-4.55-5.54-11-4.21-17.22-1.43-37.33,16.66-72.35,16.5-108.09-7.61-30.56-20.61-67.77-20.36-103.49-21.78-13.36-.53-26.76.35-40.16.29-21.33-.09-39.23-3.39-45.24-27.93-1.49-6.07-5.92-11.59-12.92-12.16-9.21-.75-12,7-14.13,13.59-6,18.77-19.8,23.6-37.52,23.18-13.4-.32-26.81-.16-40.21-.07-16.89.12-30.19-4-32.19-23.93-1-9.83-6.21-16.52-16.25-18.86-2.6-.61-6.16-.8-7.47-2.63-17-23.68-29.17-17.84-48.33,1.15-17.72,17.56-80.84-2.25-93-25-4.08-7.66-9.45-12.72-17.1-16-9.44-4-15.76-10.5-20.17-20.18-11.37-25-20.81-27.17-37.38-5.64-16.84,21.88-37.31,31.39-64.1,32.44-20.63.81-31.86-8.45-37-27.24-5.69-20.78-8.67-41.61-6.89-63.48,2.07-25.4-15.12-41.64-40.58-41.19-34.12.59-42.56,6.69-49.22,45-3.93,22.61-13.87,36.39-36.36,39.66-11.19,1.63-17.95,6.4-20.32,17.65-2.94,13.92-11,21.83-26.09,21.84-13.06,0-21.92-4.59-26.45-17.78-6.35-18.5-24-24.84-39-21.21-46.15,11.19-91.77-6.94-137.86.86-14.94,2.53-23.17,5.15-25.4,20.15-2.69,18-13.62,21.67-30.81,20.77a781.58,781.58,0,0,0-106.89,1.67c-33,2.8-36.4-.24-47.55-31.53-10-28-33.21-44-60.23-52.32-15.23-4.69-29.38,3.52-40.24,15.88-23.86,27.18-52.22,32.91-83,15.87-14.19-7.84-26.37-15-39.6,1.87-7.85,10-20.16,3.56-30.51,4.06-14.56.69-28.63.28-29.07,21.78-.31,14.87-13.48,19.79-26.11,22.91-14.7,3.64-28.08-.75-35.08-13.32-10.24-18.42-26-24.89-44.91-29.62-30.15-7.54-42.07-24.73-41.86-56.12.21-30.1-1.07-31.42-31.26-32-16-.31-32.29,1.22-47.11-7.16-13.3-7.52-23.29,7.12-35.71,5.54a30.71,30.71,0,0,1-7.73-1.22c-13.09-6.2-22.59-16.84-30.52-28.23-13.08-18.81-27.09-20-43.76-5.57C-1606.68,1252.62-1610.91,1255.78-1616.31,1252.72Z"/></g></g><g class="cls-7"><text class="cls-8" transform="translate(394.69 827.4) rotate(-45)">CAN</text><text class="cls-8" transform="translate(128.27 820.3) rotate(-45)">DESIGN</text><text class="cls-9" transform="translate(348.25 690.54) rotate(-45)">YOUR</text><text class="cls-8" transform="translate(718.19 1150.9) rotate(-45)">CAN</text><text class="cls-8" transform="translate(451.77 1143.8) rotate(-45)">DESIGN</text><text class="cls-9" transform="translate(671.75 1014.04) rotate(-45)">YOUR</text><text class="cls-8" transform="translate(77.19 509.9) rotate(-45)">CAN</text><text class="cls-8" transform="translate(-189.23 502.8) rotate(-45)">DESIGN</text><text class="cls-9" transform="translate(30.75 373.04) rotate(-45)">YOUR</text></g><rect class="cls-10" width="957" height="977.91"/></g></svg>